M48
INCH,TZ
T1C0.0157
T2C0.0197
T3C0.0236
T4C0.0335
%
G90
G05
T1
X31811Y-37244
X32165Y-38465
X32480Y-38780
X32480Y-39173
X32480Y-39567
X32953Y-38504
X33031Y-39252
X33031Y-41024
X33819Y-36339
X33898Y-41969
X33976Y-30709
X34173Y-42441
X34291Y-42953
X34291Y-43346
X34331Y-32717
X34331Y-34213
X34646Y-39843
X34685Y-42441
X34724Y-36811
X34843Y-43346
X35630Y-30000
X35945Y-33031
X36220Y-36417
X36339Y-34961
X36417Y-38819
X36496Y-41339
X36496Y-41732
X36496Y-42126
X36496Y-42520
X36614Y-30354
X36614Y-43740
X36654Y-44882
X36811Y-40827
X36850Y-38583
X36850Y-38976
X37008Y-44291
X37047Y-44882
X37200Y-30989
X37205Y-40827
X37244Y-29252
X37402Y-41339
X37402Y-41732
X37402Y-42126
X37441Y-44882
X37677Y-30236
X37677Y-39134
X37874Y-42638
X37913Y-40827
X38110Y-39134
X38268Y-42598
X38307Y-29685
X38307Y-40827
X38307Y-41417
X38307Y-41811
X38307Y-42205
X38346Y-36732
X38465Y-39921
X38568Y-31865
X38740Y-30394
X39094Y-31654
X39134Y-30315
X39449Y-33189
X39843Y-36339
X39882Y-34528
X39921Y-44134
X40276Y-39094
X40394Y-28898
X40394Y-42835
X40906Y-43661
X40945Y-30000
X40945Y-30512
X40984Y-31102
X41339Y-35433
X41339Y-42008
X41654Y-33307
X41732Y-36339
X41811Y-36969
X41850Y-42087
X42047Y-37913
X42087Y-39213
X42126Y-32795
X42205Y-34567
X42677Y-34567
X42835Y-37717
X43150Y-37441
X43622Y-29606
X43622Y-31299
X43661Y-37441
X43701Y-38740
X43937Y-34961
X43937Y-36417
X44134Y-32598
X44173Y-31299
X44173Y-36850
X44370Y-40079
X44488Y-36496
T2
X39606Y-39173
X39606Y-39567
T4
X41654Y-43204
X43622Y-43204
T3
G00X41260Y-44405
M15
G01X41260Y-44129
M16
G05
G00X44016Y-44129
M15
G01X44016Y-44405
M16
G05
T0
M30
