G04 #@! TF.GenerationSoftware,KiCad,Pcbnew,(5.1.5)-3*
G04 #@! TF.CreationDate,2021-09-06T00:05:08-04:00*
G04 #@! TF.ProjectId,EPC611 LIDAR,45504336-3131-4204-9c49-4441522e6b69,rev?*
G04 #@! TF.SameCoordinates,Original*
G04 #@! TF.FileFunction,Paste,Bot*
G04 #@! TF.FilePolarity,Positive*
%FSLAX46Y46*%
G04 Gerber Fmt 4.6, Leading zero omitted, Abs format (unit mm)*
G04 Created by KiCad (PCBNEW (5.1.5)-3) date 2021-09-06 00:05:08*
%MOMM*%
%LPD*%
G04 APERTURE LIST*
%ADD10C,0.100000*%
G04 APERTURE END LIST*
D10*
G36*
X83674594Y-91826203D02*
G01*
X83698853Y-91829802D01*
X83722642Y-91835761D01*
X83745733Y-91844023D01*
X83767902Y-91854508D01*
X83788937Y-91867116D01*
X83808635Y-91881725D01*
X83826806Y-91898194D01*
X83843275Y-91916365D01*
X83857884Y-91936063D01*
X83870492Y-91957098D01*
X83880977Y-91979267D01*
X83889239Y-92002358D01*
X83895198Y-92026147D01*
X83898797Y-92050406D01*
X83900000Y-92074900D01*
X83900000Y-93675100D01*
X83898797Y-93699594D01*
X83895198Y-93723853D01*
X83889239Y-93747642D01*
X83880977Y-93770733D01*
X83870492Y-93792902D01*
X83857884Y-93813937D01*
X83843275Y-93833635D01*
X83826806Y-93851806D01*
X83808635Y-93868275D01*
X83788937Y-93882884D01*
X83767902Y-93895492D01*
X83745733Y-93905977D01*
X83722642Y-93914239D01*
X83698853Y-93920198D01*
X83674594Y-93923797D01*
X83650100Y-93925000D01*
X81149900Y-93925000D01*
X81125406Y-93923797D01*
X81101147Y-93920198D01*
X81077358Y-93914239D01*
X81054267Y-93905977D01*
X81032098Y-93895492D01*
X81011063Y-93882884D01*
X80991365Y-93868275D01*
X80973194Y-93851806D01*
X80956725Y-93833635D01*
X80942116Y-93813937D01*
X80929508Y-93792902D01*
X80919023Y-93770733D01*
X80910761Y-93747642D01*
X80904802Y-93723853D01*
X80901203Y-93699594D01*
X80900000Y-93675100D01*
X80900000Y-92074900D01*
X80901203Y-92050406D01*
X80904802Y-92026147D01*
X80910761Y-92002358D01*
X80919023Y-91979267D01*
X80929508Y-91957098D01*
X80942116Y-91936063D01*
X80956725Y-91916365D01*
X80973194Y-91898194D01*
X80991365Y-91881725D01*
X81011063Y-91867116D01*
X81032098Y-91854508D01*
X81054267Y-91844023D01*
X81077358Y-91835761D01*
X81101147Y-91829802D01*
X81125406Y-91826203D01*
X81149900Y-91825000D01*
X83650100Y-91825000D01*
X83674594Y-91826203D01*
G37*
G36*
X83674504Y-105676204D02*
G01*
X83698773Y-105679804D01*
X83722571Y-105685765D01*
X83745671Y-105694030D01*
X83767849Y-105704520D01*
X83788893Y-105717133D01*
X83808598Y-105731747D01*
X83826777Y-105748223D01*
X83843253Y-105766402D01*
X83857867Y-105786107D01*
X83870480Y-105807151D01*
X83880970Y-105829329D01*
X83889235Y-105852429D01*
X83895196Y-105876227D01*
X83898796Y-105900496D01*
X83900000Y-105925000D01*
X83900000Y-107525000D01*
X83898796Y-107549504D01*
X83895196Y-107573773D01*
X83889235Y-107597571D01*
X83880970Y-107620671D01*
X83870480Y-107642849D01*
X83857867Y-107663893D01*
X83843253Y-107683598D01*
X83826777Y-107701777D01*
X83808598Y-107718253D01*
X83788893Y-107732867D01*
X83767849Y-107745480D01*
X83745671Y-107755970D01*
X83722571Y-107764235D01*
X83698773Y-107770196D01*
X83674504Y-107773796D01*
X83650000Y-107775000D01*
X81150000Y-107775000D01*
X81125496Y-107773796D01*
X81101227Y-107770196D01*
X81077429Y-107764235D01*
X81054329Y-107755970D01*
X81032151Y-107745480D01*
X81011107Y-107732867D01*
X80991402Y-107718253D01*
X80973223Y-107701777D01*
X80956747Y-107683598D01*
X80942133Y-107663893D01*
X80929520Y-107642849D01*
X80919030Y-107620671D01*
X80910765Y-107597571D01*
X80904804Y-107573773D01*
X80901204Y-107549504D01*
X80900000Y-107525000D01*
X80900000Y-105925000D01*
X80901204Y-105900496D01*
X80904804Y-105876227D01*
X80910765Y-105852429D01*
X80919030Y-105829329D01*
X80929520Y-105807151D01*
X80942133Y-105786107D01*
X80956747Y-105766402D01*
X80973223Y-105748223D01*
X80991402Y-105731747D01*
X81011107Y-105717133D01*
X81032151Y-105704520D01*
X81054329Y-105694030D01*
X81077429Y-105685765D01*
X81101227Y-105679804D01*
X81125496Y-105676204D01*
X81150000Y-105675000D01*
X83650000Y-105675000D01*
X83674504Y-105676204D01*
G37*
G36*
X85919603Y-95025963D02*
G01*
X85939018Y-95028843D01*
X85958057Y-95033612D01*
X85976537Y-95040224D01*
X85994279Y-95048616D01*
X86011114Y-95058706D01*
X86026879Y-95070398D01*
X86041421Y-95083579D01*
X86054602Y-95098121D01*
X86066294Y-95113886D01*
X86076384Y-95130721D01*
X86084776Y-95148463D01*
X86091388Y-95166943D01*
X86096157Y-95185982D01*
X86099037Y-95205397D01*
X86100000Y-95225000D01*
X86100000Y-95625000D01*
X86099037Y-95644603D01*
X86096157Y-95664018D01*
X86091388Y-95683057D01*
X86084776Y-95701537D01*
X86076384Y-95719279D01*
X86066294Y-95736114D01*
X86054602Y-95751879D01*
X86041421Y-95766421D01*
X86026879Y-95779602D01*
X86011114Y-95791294D01*
X85994279Y-95801384D01*
X85976537Y-95809776D01*
X85958057Y-95816388D01*
X85939018Y-95821157D01*
X85919603Y-95824037D01*
X85900000Y-95825000D01*
X84700000Y-95825000D01*
X84680397Y-95824037D01*
X84660982Y-95821157D01*
X84641943Y-95816388D01*
X84623463Y-95809776D01*
X84605721Y-95801384D01*
X84588886Y-95791294D01*
X84573121Y-95779602D01*
X84558579Y-95766421D01*
X84545398Y-95751879D01*
X84533706Y-95736114D01*
X84523616Y-95719279D01*
X84515224Y-95701537D01*
X84508612Y-95683057D01*
X84503843Y-95664018D01*
X84500963Y-95644603D01*
X84500000Y-95625000D01*
X84500000Y-95225000D01*
X84500963Y-95205397D01*
X84503843Y-95185982D01*
X84508612Y-95166943D01*
X84515224Y-95148463D01*
X84523616Y-95130721D01*
X84533706Y-95113886D01*
X84545398Y-95098121D01*
X84558579Y-95083579D01*
X84573121Y-95070398D01*
X84588886Y-95058706D01*
X84605721Y-95048616D01*
X84623463Y-95040224D01*
X84641943Y-95033612D01*
X84660982Y-95028843D01*
X84680397Y-95025963D01*
X84700000Y-95025000D01*
X85900000Y-95025000D01*
X85919603Y-95025963D01*
G37*
G36*
X85919603Y-96275963D02*
G01*
X85939018Y-96278843D01*
X85958057Y-96283612D01*
X85976537Y-96290224D01*
X85994279Y-96298616D01*
X86011114Y-96308706D01*
X86026879Y-96320398D01*
X86041421Y-96333579D01*
X86054602Y-96348121D01*
X86066294Y-96363886D01*
X86076384Y-96380721D01*
X86084776Y-96398463D01*
X86091388Y-96416943D01*
X86096157Y-96435982D01*
X86099037Y-96455397D01*
X86100000Y-96475000D01*
X86100000Y-96875000D01*
X86099037Y-96894603D01*
X86096157Y-96914018D01*
X86091388Y-96933057D01*
X86084776Y-96951537D01*
X86076384Y-96969279D01*
X86066294Y-96986114D01*
X86054602Y-97001879D01*
X86041421Y-97016421D01*
X86026879Y-97029602D01*
X86011114Y-97041294D01*
X85994279Y-97051384D01*
X85976537Y-97059776D01*
X85958057Y-97066388D01*
X85939018Y-97071157D01*
X85919603Y-97074037D01*
X85900000Y-97075000D01*
X84700000Y-97075000D01*
X84680397Y-97074037D01*
X84660982Y-97071157D01*
X84641943Y-97066388D01*
X84623463Y-97059776D01*
X84605721Y-97051384D01*
X84588886Y-97041294D01*
X84573121Y-97029602D01*
X84558579Y-97016421D01*
X84545398Y-97001879D01*
X84533706Y-96986114D01*
X84523616Y-96969279D01*
X84515224Y-96951537D01*
X84508612Y-96933057D01*
X84503843Y-96914018D01*
X84500963Y-96894603D01*
X84500000Y-96875000D01*
X84500000Y-96475000D01*
X84500963Y-96455397D01*
X84503843Y-96435982D01*
X84508612Y-96416943D01*
X84515224Y-96398463D01*
X84523616Y-96380721D01*
X84533706Y-96363886D01*
X84545398Y-96348121D01*
X84558579Y-96333579D01*
X84573121Y-96320398D01*
X84588886Y-96308706D01*
X84605721Y-96298616D01*
X84623463Y-96290224D01*
X84641943Y-96283612D01*
X84660982Y-96278843D01*
X84680397Y-96275963D01*
X84700000Y-96275000D01*
X85900000Y-96275000D01*
X85919603Y-96275963D01*
G37*
G36*
X85919603Y-97525963D02*
G01*
X85939018Y-97528843D01*
X85958057Y-97533612D01*
X85976537Y-97540224D01*
X85994279Y-97548616D01*
X86011114Y-97558706D01*
X86026879Y-97570398D01*
X86041421Y-97583579D01*
X86054602Y-97598121D01*
X86066294Y-97613886D01*
X86076384Y-97630721D01*
X86084776Y-97648463D01*
X86091388Y-97666943D01*
X86096157Y-97685982D01*
X86099037Y-97705397D01*
X86100000Y-97725000D01*
X86100000Y-98125000D01*
X86099037Y-98144603D01*
X86096157Y-98164018D01*
X86091388Y-98183057D01*
X86084776Y-98201537D01*
X86076384Y-98219279D01*
X86066294Y-98236114D01*
X86054602Y-98251879D01*
X86041421Y-98266421D01*
X86026879Y-98279602D01*
X86011114Y-98291294D01*
X85994279Y-98301384D01*
X85976537Y-98309776D01*
X85958057Y-98316388D01*
X85939018Y-98321157D01*
X85919603Y-98324037D01*
X85900000Y-98325000D01*
X84700000Y-98325000D01*
X84680397Y-98324037D01*
X84660982Y-98321157D01*
X84641943Y-98316388D01*
X84623463Y-98309776D01*
X84605721Y-98301384D01*
X84588886Y-98291294D01*
X84573121Y-98279602D01*
X84558579Y-98266421D01*
X84545398Y-98251879D01*
X84533706Y-98236114D01*
X84523616Y-98219279D01*
X84515224Y-98201537D01*
X84508612Y-98183057D01*
X84503843Y-98164018D01*
X84500963Y-98144603D01*
X84500000Y-98125000D01*
X84500000Y-97725000D01*
X84500963Y-97705397D01*
X84503843Y-97685982D01*
X84508612Y-97666943D01*
X84515224Y-97648463D01*
X84523616Y-97630721D01*
X84533706Y-97613886D01*
X84545398Y-97598121D01*
X84558579Y-97583579D01*
X84573121Y-97570398D01*
X84588886Y-97558706D01*
X84605721Y-97548616D01*
X84623463Y-97540224D01*
X84641943Y-97533612D01*
X84660982Y-97528843D01*
X84680397Y-97525963D01*
X84700000Y-97525000D01*
X85900000Y-97525000D01*
X85919603Y-97525963D01*
G37*
G36*
X85919603Y-98775963D02*
G01*
X85939018Y-98778843D01*
X85958057Y-98783612D01*
X85976537Y-98790224D01*
X85994279Y-98798616D01*
X86011114Y-98808706D01*
X86026879Y-98820398D01*
X86041421Y-98833579D01*
X86054602Y-98848121D01*
X86066294Y-98863886D01*
X86076384Y-98880721D01*
X86084776Y-98898463D01*
X86091388Y-98916943D01*
X86096157Y-98935982D01*
X86099037Y-98955397D01*
X86100000Y-98975000D01*
X86100000Y-99375000D01*
X86099037Y-99394603D01*
X86096157Y-99414018D01*
X86091388Y-99433057D01*
X86084776Y-99451537D01*
X86076384Y-99469279D01*
X86066294Y-99486114D01*
X86054602Y-99501879D01*
X86041421Y-99516421D01*
X86026879Y-99529602D01*
X86011114Y-99541294D01*
X85994279Y-99551384D01*
X85976537Y-99559776D01*
X85958057Y-99566388D01*
X85939018Y-99571157D01*
X85919603Y-99574037D01*
X85900000Y-99575000D01*
X84700000Y-99575000D01*
X84680397Y-99574037D01*
X84660982Y-99571157D01*
X84641943Y-99566388D01*
X84623463Y-99559776D01*
X84605721Y-99551384D01*
X84588886Y-99541294D01*
X84573121Y-99529602D01*
X84558579Y-99516421D01*
X84545398Y-99501879D01*
X84533706Y-99486114D01*
X84523616Y-99469279D01*
X84515224Y-99451537D01*
X84508612Y-99433057D01*
X84503843Y-99414018D01*
X84500963Y-99394603D01*
X84500000Y-99375000D01*
X84500000Y-98975000D01*
X84500963Y-98955397D01*
X84503843Y-98935982D01*
X84508612Y-98916943D01*
X84515224Y-98898463D01*
X84523616Y-98880721D01*
X84533706Y-98863886D01*
X84545398Y-98848121D01*
X84558579Y-98833579D01*
X84573121Y-98820398D01*
X84588886Y-98808706D01*
X84605721Y-98798616D01*
X84623463Y-98790224D01*
X84641943Y-98783612D01*
X84660982Y-98778843D01*
X84680397Y-98775963D01*
X84700000Y-98775000D01*
X85900000Y-98775000D01*
X85919603Y-98775963D01*
G37*
G36*
X85919603Y-100025963D02*
G01*
X85939018Y-100028843D01*
X85958057Y-100033612D01*
X85976537Y-100040224D01*
X85994279Y-100048616D01*
X86011114Y-100058706D01*
X86026879Y-100070398D01*
X86041421Y-100083579D01*
X86054602Y-100098121D01*
X86066294Y-100113886D01*
X86076384Y-100130721D01*
X86084776Y-100148463D01*
X86091388Y-100166943D01*
X86096157Y-100185982D01*
X86099037Y-100205397D01*
X86100000Y-100225000D01*
X86100000Y-100625000D01*
X86099037Y-100644603D01*
X86096157Y-100664018D01*
X86091388Y-100683057D01*
X86084776Y-100701537D01*
X86076384Y-100719279D01*
X86066294Y-100736114D01*
X86054602Y-100751879D01*
X86041421Y-100766421D01*
X86026879Y-100779602D01*
X86011114Y-100791294D01*
X85994279Y-100801384D01*
X85976537Y-100809776D01*
X85958057Y-100816388D01*
X85939018Y-100821157D01*
X85919603Y-100824037D01*
X85900000Y-100825000D01*
X84700000Y-100825000D01*
X84680397Y-100824037D01*
X84660982Y-100821157D01*
X84641943Y-100816388D01*
X84623463Y-100809776D01*
X84605721Y-100801384D01*
X84588886Y-100791294D01*
X84573121Y-100779602D01*
X84558579Y-100766421D01*
X84545398Y-100751879D01*
X84533706Y-100736114D01*
X84523616Y-100719279D01*
X84515224Y-100701537D01*
X84508612Y-100683057D01*
X84503843Y-100664018D01*
X84500963Y-100644603D01*
X84500000Y-100625000D01*
X84500000Y-100225000D01*
X84500963Y-100205397D01*
X84503843Y-100185982D01*
X84508612Y-100166943D01*
X84515224Y-100148463D01*
X84523616Y-100130721D01*
X84533706Y-100113886D01*
X84545398Y-100098121D01*
X84558579Y-100083579D01*
X84573121Y-100070398D01*
X84588886Y-100058706D01*
X84605721Y-100048616D01*
X84623463Y-100040224D01*
X84641943Y-100033612D01*
X84660982Y-100028843D01*
X84680397Y-100025963D01*
X84700000Y-100025000D01*
X85900000Y-100025000D01*
X85919603Y-100025963D01*
G37*
G36*
X85919603Y-101275963D02*
G01*
X85939018Y-101278843D01*
X85958057Y-101283612D01*
X85976537Y-101290224D01*
X85994279Y-101298616D01*
X86011114Y-101308706D01*
X86026879Y-101320398D01*
X86041421Y-101333579D01*
X86054602Y-101348121D01*
X86066294Y-101363886D01*
X86076384Y-101380721D01*
X86084776Y-101398463D01*
X86091388Y-101416943D01*
X86096157Y-101435982D01*
X86099037Y-101455397D01*
X86100000Y-101475000D01*
X86100000Y-101875000D01*
X86099037Y-101894603D01*
X86096157Y-101914018D01*
X86091388Y-101933057D01*
X86084776Y-101951537D01*
X86076384Y-101969279D01*
X86066294Y-101986114D01*
X86054602Y-102001879D01*
X86041421Y-102016421D01*
X86026879Y-102029602D01*
X86011114Y-102041294D01*
X85994279Y-102051384D01*
X85976537Y-102059776D01*
X85958057Y-102066388D01*
X85939018Y-102071157D01*
X85919603Y-102074037D01*
X85900000Y-102075000D01*
X84700000Y-102075000D01*
X84680397Y-102074037D01*
X84660982Y-102071157D01*
X84641943Y-102066388D01*
X84623463Y-102059776D01*
X84605721Y-102051384D01*
X84588886Y-102041294D01*
X84573121Y-102029602D01*
X84558579Y-102016421D01*
X84545398Y-102001879D01*
X84533706Y-101986114D01*
X84523616Y-101969279D01*
X84515224Y-101951537D01*
X84508612Y-101933057D01*
X84503843Y-101914018D01*
X84500963Y-101894603D01*
X84500000Y-101875000D01*
X84500000Y-101475000D01*
X84500963Y-101455397D01*
X84503843Y-101435982D01*
X84508612Y-101416943D01*
X84515224Y-101398463D01*
X84523616Y-101380721D01*
X84533706Y-101363886D01*
X84545398Y-101348121D01*
X84558579Y-101333579D01*
X84573121Y-101320398D01*
X84588886Y-101308706D01*
X84605721Y-101298616D01*
X84623463Y-101290224D01*
X84641943Y-101283612D01*
X84660982Y-101278843D01*
X84680397Y-101275963D01*
X84700000Y-101275000D01*
X85900000Y-101275000D01*
X85919603Y-101275963D01*
G37*
G36*
X85919603Y-102525963D02*
G01*
X85939018Y-102528843D01*
X85958057Y-102533612D01*
X85976537Y-102540224D01*
X85994279Y-102548616D01*
X86011114Y-102558706D01*
X86026879Y-102570398D01*
X86041421Y-102583579D01*
X86054602Y-102598121D01*
X86066294Y-102613886D01*
X86076384Y-102630721D01*
X86084776Y-102648463D01*
X86091388Y-102666943D01*
X86096157Y-102685982D01*
X86099037Y-102705397D01*
X86100000Y-102725000D01*
X86100000Y-103125000D01*
X86099037Y-103144603D01*
X86096157Y-103164018D01*
X86091388Y-103183057D01*
X86084776Y-103201537D01*
X86076384Y-103219279D01*
X86066294Y-103236114D01*
X86054602Y-103251879D01*
X86041421Y-103266421D01*
X86026879Y-103279602D01*
X86011114Y-103291294D01*
X85994279Y-103301384D01*
X85976537Y-103309776D01*
X85958057Y-103316388D01*
X85939018Y-103321157D01*
X85919603Y-103324037D01*
X85900000Y-103325000D01*
X84700000Y-103325000D01*
X84680397Y-103324037D01*
X84660982Y-103321157D01*
X84641943Y-103316388D01*
X84623463Y-103309776D01*
X84605721Y-103301384D01*
X84588886Y-103291294D01*
X84573121Y-103279602D01*
X84558579Y-103266421D01*
X84545398Y-103251879D01*
X84533706Y-103236114D01*
X84523616Y-103219279D01*
X84515224Y-103201537D01*
X84508612Y-103183057D01*
X84503843Y-103164018D01*
X84500963Y-103144603D01*
X84500000Y-103125000D01*
X84500000Y-102725000D01*
X84500963Y-102705397D01*
X84503843Y-102685982D01*
X84508612Y-102666943D01*
X84515224Y-102648463D01*
X84523616Y-102630721D01*
X84533706Y-102613886D01*
X84545398Y-102598121D01*
X84558579Y-102583579D01*
X84573121Y-102570398D01*
X84588886Y-102558706D01*
X84605721Y-102548616D01*
X84623463Y-102540224D01*
X84641943Y-102533612D01*
X84660982Y-102528843D01*
X84680397Y-102525963D01*
X84700000Y-102525000D01*
X85900000Y-102525000D01*
X85919603Y-102525963D01*
G37*
G36*
X85919603Y-103775963D02*
G01*
X85939018Y-103778843D01*
X85958057Y-103783612D01*
X85976537Y-103790224D01*
X85994279Y-103798616D01*
X86011114Y-103808706D01*
X86026879Y-103820398D01*
X86041421Y-103833579D01*
X86054602Y-103848121D01*
X86066294Y-103863886D01*
X86076384Y-103880721D01*
X86084776Y-103898463D01*
X86091388Y-103916943D01*
X86096157Y-103935982D01*
X86099037Y-103955397D01*
X86100000Y-103975000D01*
X86100000Y-104375000D01*
X86099037Y-104394603D01*
X86096157Y-104414018D01*
X86091388Y-104433057D01*
X86084776Y-104451537D01*
X86076384Y-104469279D01*
X86066294Y-104486114D01*
X86054602Y-104501879D01*
X86041421Y-104516421D01*
X86026879Y-104529602D01*
X86011114Y-104541294D01*
X85994279Y-104551384D01*
X85976537Y-104559776D01*
X85958057Y-104566388D01*
X85939018Y-104571157D01*
X85919603Y-104574037D01*
X85900000Y-104575000D01*
X84700000Y-104575000D01*
X84680397Y-104574037D01*
X84660982Y-104571157D01*
X84641943Y-104566388D01*
X84623463Y-104559776D01*
X84605721Y-104551384D01*
X84588886Y-104541294D01*
X84573121Y-104529602D01*
X84558579Y-104516421D01*
X84545398Y-104501879D01*
X84533706Y-104486114D01*
X84523616Y-104469279D01*
X84515224Y-104451537D01*
X84508612Y-104433057D01*
X84503843Y-104414018D01*
X84500963Y-104394603D01*
X84500000Y-104375000D01*
X84500000Y-103975000D01*
X84500963Y-103955397D01*
X84503843Y-103935982D01*
X84508612Y-103916943D01*
X84515224Y-103898463D01*
X84523616Y-103880721D01*
X84533706Y-103863886D01*
X84545398Y-103848121D01*
X84558579Y-103833579D01*
X84573121Y-103820398D01*
X84588886Y-103808706D01*
X84605721Y-103798616D01*
X84623463Y-103790224D01*
X84641943Y-103783612D01*
X84660982Y-103778843D01*
X84680397Y-103775963D01*
X84700000Y-103775000D01*
X85900000Y-103775000D01*
X85919603Y-103775963D01*
G37*
G36*
X83774504Y-79526204D02*
G01*
X83798773Y-79529804D01*
X83822571Y-79535765D01*
X83845671Y-79544030D01*
X83867849Y-79554520D01*
X83888893Y-79567133D01*
X83908598Y-79581747D01*
X83926777Y-79598223D01*
X83943253Y-79616402D01*
X83957867Y-79636107D01*
X83970480Y-79657151D01*
X83980970Y-79679329D01*
X83989235Y-79702429D01*
X83995196Y-79726227D01*
X83998796Y-79750496D01*
X84000000Y-79775000D01*
X84000000Y-81375000D01*
X83998796Y-81399504D01*
X83995196Y-81423773D01*
X83989235Y-81447571D01*
X83980970Y-81470671D01*
X83970480Y-81492849D01*
X83957867Y-81513893D01*
X83943253Y-81533598D01*
X83926777Y-81551777D01*
X83908598Y-81568253D01*
X83888893Y-81582867D01*
X83867849Y-81595480D01*
X83845671Y-81605970D01*
X83822571Y-81614235D01*
X83798773Y-81620196D01*
X83774504Y-81623796D01*
X83750000Y-81625000D01*
X81250000Y-81625000D01*
X81225496Y-81623796D01*
X81201227Y-81620196D01*
X81177429Y-81614235D01*
X81154329Y-81605970D01*
X81132151Y-81595480D01*
X81111107Y-81582867D01*
X81091402Y-81568253D01*
X81073223Y-81551777D01*
X81056747Y-81533598D01*
X81042133Y-81513893D01*
X81029520Y-81492849D01*
X81019030Y-81470671D01*
X81010765Y-81447571D01*
X81004804Y-81423773D01*
X81001204Y-81399504D01*
X81000000Y-81375000D01*
X81000000Y-79775000D01*
X81001204Y-79750496D01*
X81004804Y-79726227D01*
X81010765Y-79702429D01*
X81019030Y-79679329D01*
X81029520Y-79657151D01*
X81042133Y-79636107D01*
X81056747Y-79616402D01*
X81073223Y-79598223D01*
X81091402Y-79581747D01*
X81111107Y-79567133D01*
X81132151Y-79554520D01*
X81154329Y-79544030D01*
X81177429Y-79535765D01*
X81201227Y-79529804D01*
X81225496Y-79526204D01*
X81250000Y-79525000D01*
X83750000Y-79525000D01*
X83774504Y-79526204D01*
G37*
G36*
X83774504Y-88376204D02*
G01*
X83798773Y-88379804D01*
X83822571Y-88385765D01*
X83845671Y-88394030D01*
X83867849Y-88404520D01*
X83888893Y-88417133D01*
X83908598Y-88431747D01*
X83926777Y-88448223D01*
X83943253Y-88466402D01*
X83957867Y-88486107D01*
X83970480Y-88507151D01*
X83980970Y-88529329D01*
X83989235Y-88552429D01*
X83995196Y-88576227D01*
X83998796Y-88600496D01*
X84000000Y-88625000D01*
X84000000Y-90225000D01*
X83998796Y-90249504D01*
X83995196Y-90273773D01*
X83989235Y-90297571D01*
X83980970Y-90320671D01*
X83970480Y-90342849D01*
X83957867Y-90363893D01*
X83943253Y-90383598D01*
X83926777Y-90401777D01*
X83908598Y-90418253D01*
X83888893Y-90432867D01*
X83867849Y-90445480D01*
X83845671Y-90455970D01*
X83822571Y-90464235D01*
X83798773Y-90470196D01*
X83774504Y-90473796D01*
X83750000Y-90475000D01*
X81250000Y-90475000D01*
X81225496Y-90473796D01*
X81201227Y-90470196D01*
X81177429Y-90464235D01*
X81154329Y-90455970D01*
X81132151Y-90445480D01*
X81111107Y-90432867D01*
X81091402Y-90418253D01*
X81073223Y-90401777D01*
X81056747Y-90383598D01*
X81042133Y-90363893D01*
X81029520Y-90342849D01*
X81019030Y-90320671D01*
X81010765Y-90297571D01*
X81004804Y-90273773D01*
X81001204Y-90249504D01*
X81000000Y-90225000D01*
X81000000Y-88625000D01*
X81001204Y-88600496D01*
X81004804Y-88576227D01*
X81010765Y-88552429D01*
X81019030Y-88529329D01*
X81029520Y-88507151D01*
X81042133Y-88486107D01*
X81056747Y-88466402D01*
X81073223Y-88448223D01*
X81091402Y-88431747D01*
X81111107Y-88417133D01*
X81132151Y-88404520D01*
X81154329Y-88394030D01*
X81177429Y-88385765D01*
X81201227Y-88379804D01*
X81225496Y-88376204D01*
X81250000Y-88375000D01*
X83750000Y-88375000D01*
X83774504Y-88376204D01*
G37*
G36*
X86019603Y-82725963D02*
G01*
X86039018Y-82728843D01*
X86058057Y-82733612D01*
X86076537Y-82740224D01*
X86094279Y-82748616D01*
X86111114Y-82758706D01*
X86126879Y-82770398D01*
X86141421Y-82783579D01*
X86154602Y-82798121D01*
X86166294Y-82813886D01*
X86176384Y-82830721D01*
X86184776Y-82848463D01*
X86191388Y-82866943D01*
X86196157Y-82885982D01*
X86199037Y-82905397D01*
X86200000Y-82925000D01*
X86200000Y-83325000D01*
X86199037Y-83344603D01*
X86196157Y-83364018D01*
X86191388Y-83383057D01*
X86184776Y-83401537D01*
X86176384Y-83419279D01*
X86166294Y-83436114D01*
X86154602Y-83451879D01*
X86141421Y-83466421D01*
X86126879Y-83479602D01*
X86111114Y-83491294D01*
X86094279Y-83501384D01*
X86076537Y-83509776D01*
X86058057Y-83516388D01*
X86039018Y-83521157D01*
X86019603Y-83524037D01*
X86000000Y-83525000D01*
X84800000Y-83525000D01*
X84780397Y-83524037D01*
X84760982Y-83521157D01*
X84741943Y-83516388D01*
X84723463Y-83509776D01*
X84705721Y-83501384D01*
X84688886Y-83491294D01*
X84673121Y-83479602D01*
X84658579Y-83466421D01*
X84645398Y-83451879D01*
X84633706Y-83436114D01*
X84623616Y-83419279D01*
X84615224Y-83401537D01*
X84608612Y-83383057D01*
X84603843Y-83364018D01*
X84600963Y-83344603D01*
X84600000Y-83325000D01*
X84600000Y-82925000D01*
X84600963Y-82905397D01*
X84603843Y-82885982D01*
X84608612Y-82866943D01*
X84615224Y-82848463D01*
X84623616Y-82830721D01*
X84633706Y-82813886D01*
X84645398Y-82798121D01*
X84658579Y-82783579D01*
X84673121Y-82770398D01*
X84688886Y-82758706D01*
X84705721Y-82748616D01*
X84723463Y-82740224D01*
X84741943Y-82733612D01*
X84760982Y-82728843D01*
X84780397Y-82725963D01*
X84800000Y-82725000D01*
X86000000Y-82725000D01*
X86019603Y-82725963D01*
G37*
G36*
X86019603Y-83975963D02*
G01*
X86039018Y-83978843D01*
X86058057Y-83983612D01*
X86076537Y-83990224D01*
X86094279Y-83998616D01*
X86111114Y-84008706D01*
X86126879Y-84020398D01*
X86141421Y-84033579D01*
X86154602Y-84048121D01*
X86166294Y-84063886D01*
X86176384Y-84080721D01*
X86184776Y-84098463D01*
X86191388Y-84116943D01*
X86196157Y-84135982D01*
X86199037Y-84155397D01*
X86200000Y-84175000D01*
X86200000Y-84575000D01*
X86199037Y-84594603D01*
X86196157Y-84614018D01*
X86191388Y-84633057D01*
X86184776Y-84651537D01*
X86176384Y-84669279D01*
X86166294Y-84686114D01*
X86154602Y-84701879D01*
X86141421Y-84716421D01*
X86126879Y-84729602D01*
X86111114Y-84741294D01*
X86094279Y-84751384D01*
X86076537Y-84759776D01*
X86058057Y-84766388D01*
X86039018Y-84771157D01*
X86019603Y-84774037D01*
X86000000Y-84775000D01*
X84800000Y-84775000D01*
X84780397Y-84774037D01*
X84760982Y-84771157D01*
X84741943Y-84766388D01*
X84723463Y-84759776D01*
X84705721Y-84751384D01*
X84688886Y-84741294D01*
X84673121Y-84729602D01*
X84658579Y-84716421D01*
X84645398Y-84701879D01*
X84633706Y-84686114D01*
X84623616Y-84669279D01*
X84615224Y-84651537D01*
X84608612Y-84633057D01*
X84603843Y-84614018D01*
X84600963Y-84594603D01*
X84600000Y-84575000D01*
X84600000Y-84175000D01*
X84600963Y-84155397D01*
X84603843Y-84135982D01*
X84608612Y-84116943D01*
X84615224Y-84098463D01*
X84623616Y-84080721D01*
X84633706Y-84063886D01*
X84645398Y-84048121D01*
X84658579Y-84033579D01*
X84673121Y-84020398D01*
X84688886Y-84008706D01*
X84705721Y-83998616D01*
X84723463Y-83990224D01*
X84741943Y-83983612D01*
X84760982Y-83978843D01*
X84780397Y-83975963D01*
X84800000Y-83975000D01*
X86000000Y-83975000D01*
X86019603Y-83975963D01*
G37*
G36*
X86019603Y-85225963D02*
G01*
X86039018Y-85228843D01*
X86058057Y-85233612D01*
X86076537Y-85240224D01*
X86094279Y-85248616D01*
X86111114Y-85258706D01*
X86126879Y-85270398D01*
X86141421Y-85283579D01*
X86154602Y-85298121D01*
X86166294Y-85313886D01*
X86176384Y-85330721D01*
X86184776Y-85348463D01*
X86191388Y-85366943D01*
X86196157Y-85385982D01*
X86199037Y-85405397D01*
X86200000Y-85425000D01*
X86200000Y-85825000D01*
X86199037Y-85844603D01*
X86196157Y-85864018D01*
X86191388Y-85883057D01*
X86184776Y-85901537D01*
X86176384Y-85919279D01*
X86166294Y-85936114D01*
X86154602Y-85951879D01*
X86141421Y-85966421D01*
X86126879Y-85979602D01*
X86111114Y-85991294D01*
X86094279Y-86001384D01*
X86076537Y-86009776D01*
X86058057Y-86016388D01*
X86039018Y-86021157D01*
X86019603Y-86024037D01*
X86000000Y-86025000D01*
X84800000Y-86025000D01*
X84780397Y-86024037D01*
X84760982Y-86021157D01*
X84741943Y-86016388D01*
X84723463Y-86009776D01*
X84705721Y-86001384D01*
X84688886Y-85991294D01*
X84673121Y-85979602D01*
X84658579Y-85966421D01*
X84645398Y-85951879D01*
X84633706Y-85936114D01*
X84623616Y-85919279D01*
X84615224Y-85901537D01*
X84608612Y-85883057D01*
X84603843Y-85864018D01*
X84600963Y-85844603D01*
X84600000Y-85825000D01*
X84600000Y-85425000D01*
X84600963Y-85405397D01*
X84603843Y-85385982D01*
X84608612Y-85366943D01*
X84615224Y-85348463D01*
X84623616Y-85330721D01*
X84633706Y-85313886D01*
X84645398Y-85298121D01*
X84658579Y-85283579D01*
X84673121Y-85270398D01*
X84688886Y-85258706D01*
X84705721Y-85248616D01*
X84723463Y-85240224D01*
X84741943Y-85233612D01*
X84760982Y-85228843D01*
X84780397Y-85225963D01*
X84800000Y-85225000D01*
X86000000Y-85225000D01*
X86019603Y-85225963D01*
G37*
G36*
X86019603Y-86475963D02*
G01*
X86039018Y-86478843D01*
X86058057Y-86483612D01*
X86076537Y-86490224D01*
X86094279Y-86498616D01*
X86111114Y-86508706D01*
X86126879Y-86520398D01*
X86141421Y-86533579D01*
X86154602Y-86548121D01*
X86166294Y-86563886D01*
X86176384Y-86580721D01*
X86184776Y-86598463D01*
X86191388Y-86616943D01*
X86196157Y-86635982D01*
X86199037Y-86655397D01*
X86200000Y-86675000D01*
X86200000Y-87075000D01*
X86199037Y-87094603D01*
X86196157Y-87114018D01*
X86191388Y-87133057D01*
X86184776Y-87151537D01*
X86176384Y-87169279D01*
X86166294Y-87186114D01*
X86154602Y-87201879D01*
X86141421Y-87216421D01*
X86126879Y-87229602D01*
X86111114Y-87241294D01*
X86094279Y-87251384D01*
X86076537Y-87259776D01*
X86058057Y-87266388D01*
X86039018Y-87271157D01*
X86019603Y-87274037D01*
X86000000Y-87275000D01*
X84800000Y-87275000D01*
X84780397Y-87274037D01*
X84760982Y-87271157D01*
X84741943Y-87266388D01*
X84723463Y-87259776D01*
X84705721Y-87251384D01*
X84688886Y-87241294D01*
X84673121Y-87229602D01*
X84658579Y-87216421D01*
X84645398Y-87201879D01*
X84633706Y-87186114D01*
X84623616Y-87169279D01*
X84615224Y-87151537D01*
X84608612Y-87133057D01*
X84603843Y-87114018D01*
X84600963Y-87094603D01*
X84600000Y-87075000D01*
X84600000Y-86675000D01*
X84600963Y-86655397D01*
X84603843Y-86635982D01*
X84608612Y-86616943D01*
X84615224Y-86598463D01*
X84623616Y-86580721D01*
X84633706Y-86563886D01*
X84645398Y-86548121D01*
X84658579Y-86533579D01*
X84673121Y-86520398D01*
X84688886Y-86508706D01*
X84705721Y-86498616D01*
X84723463Y-86490224D01*
X84741943Y-86483612D01*
X84760982Y-86478843D01*
X84780397Y-86475963D01*
X84800000Y-86475000D01*
X86000000Y-86475000D01*
X86019603Y-86475963D01*
G37*
G36*
X88999504Y-111001204D02*
G01*
X89023773Y-111004804D01*
X89047571Y-111010765D01*
X89070671Y-111019030D01*
X89092849Y-111029520D01*
X89113893Y-111042133D01*
X89133598Y-111056747D01*
X89151777Y-111073223D01*
X89168253Y-111091402D01*
X89182867Y-111111107D01*
X89195480Y-111132151D01*
X89205970Y-111154329D01*
X89214235Y-111177429D01*
X89220196Y-111201227D01*
X89223796Y-111225496D01*
X89225000Y-111250000D01*
X89225000Y-113750000D01*
X89223796Y-113774504D01*
X89220196Y-113798773D01*
X89214235Y-113822571D01*
X89205970Y-113845671D01*
X89195480Y-113867849D01*
X89182867Y-113888893D01*
X89168253Y-113908598D01*
X89151777Y-113926777D01*
X89133598Y-113943253D01*
X89113893Y-113957867D01*
X89092849Y-113970480D01*
X89070671Y-113980970D01*
X89047571Y-113989235D01*
X89023773Y-113995196D01*
X88999504Y-113998796D01*
X88975000Y-114000000D01*
X87375000Y-114000000D01*
X87350496Y-113998796D01*
X87326227Y-113995196D01*
X87302429Y-113989235D01*
X87279329Y-113980970D01*
X87257151Y-113970480D01*
X87236107Y-113957867D01*
X87216402Y-113943253D01*
X87198223Y-113926777D01*
X87181747Y-113908598D01*
X87167133Y-113888893D01*
X87154520Y-113867849D01*
X87144030Y-113845671D01*
X87135765Y-113822571D01*
X87129804Y-113798773D01*
X87126204Y-113774504D01*
X87125000Y-113750000D01*
X87125000Y-111250000D01*
X87126204Y-111225496D01*
X87129804Y-111201227D01*
X87135765Y-111177429D01*
X87144030Y-111154329D01*
X87154520Y-111132151D01*
X87167133Y-111111107D01*
X87181747Y-111091402D01*
X87198223Y-111073223D01*
X87216402Y-111056747D01*
X87236107Y-111042133D01*
X87257151Y-111029520D01*
X87279329Y-111019030D01*
X87302429Y-111010765D01*
X87326227Y-111004804D01*
X87350496Y-111001204D01*
X87375000Y-111000000D01*
X88975000Y-111000000D01*
X88999504Y-111001204D01*
G37*
G36*
X97849504Y-111001204D02*
G01*
X97873773Y-111004804D01*
X97897571Y-111010765D01*
X97920671Y-111019030D01*
X97942849Y-111029520D01*
X97963893Y-111042133D01*
X97983598Y-111056747D01*
X98001777Y-111073223D01*
X98018253Y-111091402D01*
X98032867Y-111111107D01*
X98045480Y-111132151D01*
X98055970Y-111154329D01*
X98064235Y-111177429D01*
X98070196Y-111201227D01*
X98073796Y-111225496D01*
X98075000Y-111250000D01*
X98075000Y-113750000D01*
X98073796Y-113774504D01*
X98070196Y-113798773D01*
X98064235Y-113822571D01*
X98055970Y-113845671D01*
X98045480Y-113867849D01*
X98032867Y-113888893D01*
X98018253Y-113908598D01*
X98001777Y-113926777D01*
X97983598Y-113943253D01*
X97963893Y-113957867D01*
X97942849Y-113970480D01*
X97920671Y-113980970D01*
X97897571Y-113989235D01*
X97873773Y-113995196D01*
X97849504Y-113998796D01*
X97825000Y-114000000D01*
X96225000Y-114000000D01*
X96200496Y-113998796D01*
X96176227Y-113995196D01*
X96152429Y-113989235D01*
X96129329Y-113980970D01*
X96107151Y-113970480D01*
X96086107Y-113957867D01*
X96066402Y-113943253D01*
X96048223Y-113926777D01*
X96031747Y-113908598D01*
X96017133Y-113888893D01*
X96004520Y-113867849D01*
X95994030Y-113845671D01*
X95985765Y-113822571D01*
X95979804Y-113798773D01*
X95976204Y-113774504D01*
X95975000Y-113750000D01*
X95975000Y-111250000D01*
X95976204Y-111225496D01*
X95979804Y-111201227D01*
X95985765Y-111177429D01*
X95994030Y-111154329D01*
X96004520Y-111132151D01*
X96017133Y-111111107D01*
X96031747Y-111091402D01*
X96048223Y-111073223D01*
X96066402Y-111056747D01*
X96086107Y-111042133D01*
X96107151Y-111029520D01*
X96129329Y-111019030D01*
X96152429Y-111010765D01*
X96176227Y-111004804D01*
X96200496Y-111001204D01*
X96225000Y-111000000D01*
X97825000Y-111000000D01*
X97849504Y-111001204D01*
G37*
G36*
X90944603Y-108800963D02*
G01*
X90964018Y-108803843D01*
X90983057Y-108808612D01*
X91001537Y-108815224D01*
X91019279Y-108823616D01*
X91036114Y-108833706D01*
X91051879Y-108845398D01*
X91066421Y-108858579D01*
X91079602Y-108873121D01*
X91091294Y-108888886D01*
X91101384Y-108905721D01*
X91109776Y-108923463D01*
X91116388Y-108941943D01*
X91121157Y-108960982D01*
X91124037Y-108980397D01*
X91125000Y-109000000D01*
X91125000Y-110200000D01*
X91124037Y-110219603D01*
X91121157Y-110239018D01*
X91116388Y-110258057D01*
X91109776Y-110276537D01*
X91101384Y-110294279D01*
X91091294Y-110311114D01*
X91079602Y-110326879D01*
X91066421Y-110341421D01*
X91051879Y-110354602D01*
X91036114Y-110366294D01*
X91019279Y-110376384D01*
X91001537Y-110384776D01*
X90983057Y-110391388D01*
X90964018Y-110396157D01*
X90944603Y-110399037D01*
X90925000Y-110400000D01*
X90525000Y-110400000D01*
X90505397Y-110399037D01*
X90485982Y-110396157D01*
X90466943Y-110391388D01*
X90448463Y-110384776D01*
X90430721Y-110376384D01*
X90413886Y-110366294D01*
X90398121Y-110354602D01*
X90383579Y-110341421D01*
X90370398Y-110326879D01*
X90358706Y-110311114D01*
X90348616Y-110294279D01*
X90340224Y-110276537D01*
X90333612Y-110258057D01*
X90328843Y-110239018D01*
X90325963Y-110219603D01*
X90325000Y-110200000D01*
X90325000Y-109000000D01*
X90325963Y-108980397D01*
X90328843Y-108960982D01*
X90333612Y-108941943D01*
X90340224Y-108923463D01*
X90348616Y-108905721D01*
X90358706Y-108888886D01*
X90370398Y-108873121D01*
X90383579Y-108858579D01*
X90398121Y-108845398D01*
X90413886Y-108833706D01*
X90430721Y-108823616D01*
X90448463Y-108815224D01*
X90466943Y-108808612D01*
X90485982Y-108803843D01*
X90505397Y-108800963D01*
X90525000Y-108800000D01*
X90925000Y-108800000D01*
X90944603Y-108800963D01*
G37*
G36*
X92194603Y-108800963D02*
G01*
X92214018Y-108803843D01*
X92233057Y-108808612D01*
X92251537Y-108815224D01*
X92269279Y-108823616D01*
X92286114Y-108833706D01*
X92301879Y-108845398D01*
X92316421Y-108858579D01*
X92329602Y-108873121D01*
X92341294Y-108888886D01*
X92351384Y-108905721D01*
X92359776Y-108923463D01*
X92366388Y-108941943D01*
X92371157Y-108960982D01*
X92374037Y-108980397D01*
X92375000Y-109000000D01*
X92375000Y-110200000D01*
X92374037Y-110219603D01*
X92371157Y-110239018D01*
X92366388Y-110258057D01*
X92359776Y-110276537D01*
X92351384Y-110294279D01*
X92341294Y-110311114D01*
X92329602Y-110326879D01*
X92316421Y-110341421D01*
X92301879Y-110354602D01*
X92286114Y-110366294D01*
X92269279Y-110376384D01*
X92251537Y-110384776D01*
X92233057Y-110391388D01*
X92214018Y-110396157D01*
X92194603Y-110399037D01*
X92175000Y-110400000D01*
X91775000Y-110400000D01*
X91755397Y-110399037D01*
X91735982Y-110396157D01*
X91716943Y-110391388D01*
X91698463Y-110384776D01*
X91680721Y-110376384D01*
X91663886Y-110366294D01*
X91648121Y-110354602D01*
X91633579Y-110341421D01*
X91620398Y-110326879D01*
X91608706Y-110311114D01*
X91598616Y-110294279D01*
X91590224Y-110276537D01*
X91583612Y-110258057D01*
X91578843Y-110239018D01*
X91575963Y-110219603D01*
X91575000Y-110200000D01*
X91575000Y-109000000D01*
X91575963Y-108980397D01*
X91578843Y-108960982D01*
X91583612Y-108941943D01*
X91590224Y-108923463D01*
X91598616Y-108905721D01*
X91608706Y-108888886D01*
X91620398Y-108873121D01*
X91633579Y-108858579D01*
X91648121Y-108845398D01*
X91663886Y-108833706D01*
X91680721Y-108823616D01*
X91698463Y-108815224D01*
X91716943Y-108808612D01*
X91735982Y-108803843D01*
X91755397Y-108800963D01*
X91775000Y-108800000D01*
X92175000Y-108800000D01*
X92194603Y-108800963D01*
G37*
G36*
X93444603Y-108800963D02*
G01*
X93464018Y-108803843D01*
X93483057Y-108808612D01*
X93501537Y-108815224D01*
X93519279Y-108823616D01*
X93536114Y-108833706D01*
X93551879Y-108845398D01*
X93566421Y-108858579D01*
X93579602Y-108873121D01*
X93591294Y-108888886D01*
X93601384Y-108905721D01*
X93609776Y-108923463D01*
X93616388Y-108941943D01*
X93621157Y-108960982D01*
X93624037Y-108980397D01*
X93625000Y-109000000D01*
X93625000Y-110200000D01*
X93624037Y-110219603D01*
X93621157Y-110239018D01*
X93616388Y-110258057D01*
X93609776Y-110276537D01*
X93601384Y-110294279D01*
X93591294Y-110311114D01*
X93579602Y-110326879D01*
X93566421Y-110341421D01*
X93551879Y-110354602D01*
X93536114Y-110366294D01*
X93519279Y-110376384D01*
X93501537Y-110384776D01*
X93483057Y-110391388D01*
X93464018Y-110396157D01*
X93444603Y-110399037D01*
X93425000Y-110400000D01*
X93025000Y-110400000D01*
X93005397Y-110399037D01*
X92985982Y-110396157D01*
X92966943Y-110391388D01*
X92948463Y-110384776D01*
X92930721Y-110376384D01*
X92913886Y-110366294D01*
X92898121Y-110354602D01*
X92883579Y-110341421D01*
X92870398Y-110326879D01*
X92858706Y-110311114D01*
X92848616Y-110294279D01*
X92840224Y-110276537D01*
X92833612Y-110258057D01*
X92828843Y-110239018D01*
X92825963Y-110219603D01*
X92825000Y-110200000D01*
X92825000Y-109000000D01*
X92825963Y-108980397D01*
X92828843Y-108960982D01*
X92833612Y-108941943D01*
X92840224Y-108923463D01*
X92848616Y-108905721D01*
X92858706Y-108888886D01*
X92870398Y-108873121D01*
X92883579Y-108858579D01*
X92898121Y-108845398D01*
X92913886Y-108833706D01*
X92930721Y-108823616D01*
X92948463Y-108815224D01*
X92966943Y-108808612D01*
X92985982Y-108803843D01*
X93005397Y-108800963D01*
X93025000Y-108800000D01*
X93425000Y-108800000D01*
X93444603Y-108800963D01*
G37*
G36*
X94694603Y-108800963D02*
G01*
X94714018Y-108803843D01*
X94733057Y-108808612D01*
X94751537Y-108815224D01*
X94769279Y-108823616D01*
X94786114Y-108833706D01*
X94801879Y-108845398D01*
X94816421Y-108858579D01*
X94829602Y-108873121D01*
X94841294Y-108888886D01*
X94851384Y-108905721D01*
X94859776Y-108923463D01*
X94866388Y-108941943D01*
X94871157Y-108960982D01*
X94874037Y-108980397D01*
X94875000Y-109000000D01*
X94875000Y-110200000D01*
X94874037Y-110219603D01*
X94871157Y-110239018D01*
X94866388Y-110258057D01*
X94859776Y-110276537D01*
X94851384Y-110294279D01*
X94841294Y-110311114D01*
X94829602Y-110326879D01*
X94816421Y-110341421D01*
X94801879Y-110354602D01*
X94786114Y-110366294D01*
X94769279Y-110376384D01*
X94751537Y-110384776D01*
X94733057Y-110391388D01*
X94714018Y-110396157D01*
X94694603Y-110399037D01*
X94675000Y-110400000D01*
X94275000Y-110400000D01*
X94255397Y-110399037D01*
X94235982Y-110396157D01*
X94216943Y-110391388D01*
X94198463Y-110384776D01*
X94180721Y-110376384D01*
X94163886Y-110366294D01*
X94148121Y-110354602D01*
X94133579Y-110341421D01*
X94120398Y-110326879D01*
X94108706Y-110311114D01*
X94098616Y-110294279D01*
X94090224Y-110276537D01*
X94083612Y-110258057D01*
X94078843Y-110239018D01*
X94075963Y-110219603D01*
X94075000Y-110200000D01*
X94075000Y-109000000D01*
X94075963Y-108980397D01*
X94078843Y-108960982D01*
X94083612Y-108941943D01*
X94090224Y-108923463D01*
X94098616Y-108905721D01*
X94108706Y-108888886D01*
X94120398Y-108873121D01*
X94133579Y-108858579D01*
X94148121Y-108845398D01*
X94163886Y-108833706D01*
X94180721Y-108823616D01*
X94198463Y-108815224D01*
X94216943Y-108808612D01*
X94235982Y-108803843D01*
X94255397Y-108800963D01*
X94275000Y-108800000D01*
X94675000Y-108800000D01*
X94694603Y-108800963D01*
G37*
M02*
