G04 #@! TF.GenerationSoftware,KiCad,Pcbnew,(5.1.5)-3*
G04 #@! TF.CreationDate,2021-09-06T00:05:08-04:00*
G04 #@! TF.ProjectId,EPC611 LIDAR,45504336-3131-4204-9c49-4441522e6b69,rev?*
G04 #@! TF.SameCoordinates,Original*
G04 #@! TF.FileFunction,Copper,L2,Inr*
G04 #@! TF.FilePolarity,Positive*
%FSLAX46Y46*%
G04 Gerber Fmt 4.6, Leading zero omitted, Abs format (unit mm)*
G04 Created by KiCad (PCBNEW (5.1.5)-3) date 2021-09-06 00:05:08*
%MOMM*%
%LPD*%
G04 APERTURE LIST*
%ADD10O,0.850000X0.850000*%
%ADD11R,0.850000X0.850000*%
%ADD12O,1.200000X1.900000*%
%ADD13C,1.450000*%
%ADD14C,0.800000*%
%ADD15C,0.155000*%
%ADD16C,0.254000*%
G04 APERTURE END LIST*
D10*
X100600000Y-100500000D03*
D11*
X100600000Y-99500000D03*
D12*
X111800000Y-112437500D03*
X104800000Y-112437500D03*
D13*
X110800000Y-109737500D03*
X105800000Y-109737500D03*
D14*
X93000000Y-77100000D03*
X92000000Y-92500000D03*
X110800000Y-75200000D03*
X94000000Y-112500000D03*
X102600000Y-108800000D03*
X101400000Y-112100000D03*
X105000000Y-106700000D03*
X112700000Y-101800000D03*
X106900000Y-99600000D03*
X106800000Y-96300000D03*
X101200000Y-92300000D03*
X97400000Y-93300000D03*
X95000000Y-105000000D03*
X95000000Y-107000000D03*
X95000000Y-106000000D03*
X92700000Y-105000000D03*
X88000000Y-101200000D03*
X86100000Y-106600000D03*
X83900000Y-104200000D03*
X87200000Y-86900000D03*
X91300000Y-83900000D03*
X86300000Y-78000000D03*
X83900000Y-99700000D03*
X85900000Y-92300000D03*
X92500000Y-98600000D03*
X80800000Y-94600000D03*
X102600000Y-73400000D03*
X99300000Y-80400000D03*
X97300000Y-75400000D03*
X112100000Y-82800000D03*
X105800000Y-84600000D03*
X111600000Y-92500000D03*
X105000000Y-90000000D03*
X100200000Y-84300000D03*
X110800000Y-79500000D03*
X101300000Y-87700000D03*
X97700000Y-101400000D03*
X93000000Y-111100000D03*
X97300000Y-106200000D03*
X97200000Y-108200000D03*
X106300000Y-106900000D03*
X93500000Y-103700000D03*
X92700000Y-106000000D03*
X88100000Y-107800000D03*
X87200000Y-83100000D03*
X83700000Y-97800000D03*
X93600000Y-98000000D03*
X81700000Y-97700000D03*
X104000000Y-77500000D03*
X107200000Y-87800000D03*
X113000000Y-92700000D03*
X102300000Y-99300000D03*
X99400000Y-77000000D03*
X95700000Y-76800000D03*
X94487500Y-78712500D03*
X97962500Y-80937500D03*
X90500000Y-76200000D03*
X98400000Y-77200000D03*
X107000000Y-83300000D03*
X112200000Y-79500000D03*
X108400000Y-87800000D03*
X97300000Y-105200000D03*
X86800000Y-107800000D03*
X97300000Y-107200000D03*
X104000000Y-76200000D03*
X104100000Y-79000000D03*
X92300000Y-88800000D03*
X111600000Y-88800000D03*
X92700000Y-107000000D03*
X92700000Y-108000000D03*
X88200000Y-93500000D03*
X93600000Y-99000000D03*
X112200000Y-93600000D03*
X94500000Y-103700000D03*
X96300000Y-103700000D03*
X109600000Y-95100000D03*
X106000000Y-92300000D03*
X97300000Y-103700000D03*
X106200000Y-93900000D03*
X110900000Y-95100000D03*
X96800000Y-99400000D03*
X108800000Y-95800000D03*
X95700000Y-99400000D03*
X82500000Y-98500000D03*
X95100000Y-114000000D03*
X82500000Y-99500000D03*
X94100000Y-114000000D03*
X82500000Y-100500000D03*
X93100000Y-114000000D03*
X88500000Y-110100000D03*
X87100000Y-110100000D03*
X87100000Y-109100000D03*
X111000000Y-98400000D03*
X96200000Y-108300000D03*
X94600000Y-74300000D03*
X103900000Y-110900000D03*
D15*
X82500000Y-99500000D02*
X82500000Y-99556498D01*
D16*
G36*
X115808801Y-72504897D02*
G01*
X116592030Y-72719165D01*
X117238914Y-73027713D01*
X117195111Y-73019000D01*
X116804889Y-73019000D01*
X116422164Y-73095129D01*
X116061645Y-73244461D01*
X115737186Y-73461257D01*
X115461257Y-73737186D01*
X115244461Y-74061645D01*
X115095129Y-74422164D01*
X115019000Y-74804889D01*
X115019000Y-75195111D01*
X115095129Y-75577836D01*
X115244461Y-75938355D01*
X115461257Y-76262814D01*
X115737186Y-76538743D01*
X116061645Y-76755539D01*
X116422164Y-76904871D01*
X116804889Y-76981000D01*
X117195111Y-76981000D01*
X117577836Y-76904871D01*
X117938355Y-76755539D01*
X118262814Y-76538743D01*
X118538743Y-76262814D01*
X118755539Y-75938355D01*
X118904871Y-75577836D01*
X118981000Y-75195111D01*
X118981000Y-74804889D01*
X118970557Y-74752389D01*
X119002344Y-74799693D01*
X119328731Y-75543224D01*
X119519086Y-76336107D01*
X119569001Y-77015824D01*
X119569000Y-109980802D01*
X119495103Y-110808800D01*
X119280836Y-111592029D01*
X118972287Y-112238916D01*
X118981000Y-112195111D01*
X118981000Y-111804889D01*
X118904871Y-111422164D01*
X118755539Y-111061645D01*
X118538743Y-110737186D01*
X118262814Y-110461257D01*
X117938355Y-110244461D01*
X117577836Y-110095129D01*
X117195111Y-110019000D01*
X116804889Y-110019000D01*
X116422164Y-110095129D01*
X116061645Y-110244461D01*
X115737186Y-110461257D01*
X115461257Y-110737186D01*
X115244461Y-111061645D01*
X115095129Y-111422164D01*
X115019000Y-111804889D01*
X115019000Y-112195111D01*
X115095129Y-112577836D01*
X115244461Y-112938355D01*
X115461257Y-113262814D01*
X115737186Y-113538743D01*
X116061645Y-113755539D01*
X116422164Y-113904871D01*
X116804889Y-113981000D01*
X117195111Y-113981000D01*
X117247611Y-113970557D01*
X117200307Y-114002344D01*
X116456779Y-114328731D01*
X115663893Y-114519086D01*
X114984190Y-114569000D01*
X95635501Y-114569000D01*
X95706642Y-114497859D01*
X95792113Y-114369942D01*
X95850987Y-114227809D01*
X95881000Y-114076922D01*
X95881000Y-113923078D01*
X95850987Y-113772191D01*
X95792113Y-113630058D01*
X95706642Y-113502141D01*
X95597859Y-113393358D01*
X95469942Y-113307887D01*
X95327809Y-113249013D01*
X95176922Y-113219000D01*
X95023078Y-113219000D01*
X94872191Y-113249013D01*
X94730058Y-113307887D01*
X94602141Y-113393358D01*
X94600000Y-113395499D01*
X94597859Y-113393358D01*
X94469942Y-113307887D01*
X94327809Y-113249013D01*
X94176922Y-113219000D01*
X94023078Y-113219000D01*
X93872191Y-113249013D01*
X93730058Y-113307887D01*
X93602141Y-113393358D01*
X93600000Y-113395499D01*
X93597859Y-113393358D01*
X93469942Y-113307887D01*
X93327809Y-113249013D01*
X93176922Y-113219000D01*
X93023078Y-113219000D01*
X92872191Y-113249013D01*
X92730058Y-113307887D01*
X92602141Y-113393358D01*
X92493358Y-113502141D01*
X92407887Y-113630058D01*
X92349013Y-113772191D01*
X92319000Y-113923078D01*
X92319000Y-114076922D01*
X92349013Y-114227809D01*
X92407887Y-114369942D01*
X92493358Y-114497859D01*
X92564499Y-114569000D01*
X85019198Y-114569000D01*
X84191200Y-114495103D01*
X83407971Y-114280836D01*
X82761084Y-113972287D01*
X82804889Y-113981000D01*
X83195111Y-113981000D01*
X83577836Y-113904871D01*
X83938355Y-113755539D01*
X84262814Y-113538743D01*
X84538743Y-113262814D01*
X84755539Y-112938355D01*
X84904871Y-112577836D01*
X84907523Y-112564500D01*
X103565000Y-112564500D01*
X103565000Y-112914500D01*
X103613507Y-113152996D01*
X103707610Y-113377446D01*
X103843693Y-113579225D01*
X104016526Y-113750578D01*
X104219467Y-113884921D01*
X104444718Y-113977091D01*
X104482391Y-113980962D01*
X104673000Y-113856231D01*
X104673000Y-112564500D01*
X104927000Y-112564500D01*
X104927000Y-113856231D01*
X105117609Y-113980962D01*
X105155282Y-113977091D01*
X105380533Y-113884921D01*
X105583474Y-113750578D01*
X105756307Y-113579225D01*
X105892390Y-113377446D01*
X105986493Y-113152996D01*
X106035000Y-112914500D01*
X106035000Y-112564500D01*
X110565000Y-112564500D01*
X110565000Y-112914500D01*
X110613507Y-113152996D01*
X110707610Y-113377446D01*
X110843693Y-113579225D01*
X111016526Y-113750578D01*
X111219467Y-113884921D01*
X111444718Y-113977091D01*
X111482391Y-113980962D01*
X111673000Y-113856231D01*
X111673000Y-112564500D01*
X111927000Y-112564500D01*
X111927000Y-113856231D01*
X112117609Y-113980962D01*
X112155282Y-113977091D01*
X112380533Y-113884921D01*
X112583474Y-113750578D01*
X112756307Y-113579225D01*
X112892390Y-113377446D01*
X112986493Y-113152996D01*
X113035000Y-112914500D01*
X113035000Y-112564500D01*
X111927000Y-112564500D01*
X111673000Y-112564500D01*
X110565000Y-112564500D01*
X106035000Y-112564500D01*
X104927000Y-112564500D01*
X104673000Y-112564500D01*
X103565000Y-112564500D01*
X84907523Y-112564500D01*
X84981000Y-112195111D01*
X84981000Y-111804889D01*
X84904871Y-111422164D01*
X84755539Y-111061645D01*
X84729770Y-111023078D01*
X92219000Y-111023078D01*
X92219000Y-111176922D01*
X92249013Y-111327809D01*
X92307887Y-111469942D01*
X92393358Y-111597859D01*
X92502141Y-111706642D01*
X92630058Y-111792113D01*
X92772191Y-111850987D01*
X92923078Y-111881000D01*
X93076922Y-111881000D01*
X93227809Y-111850987D01*
X93369942Y-111792113D01*
X93497859Y-111706642D01*
X93606642Y-111597859D01*
X93692113Y-111469942D01*
X93750987Y-111327809D01*
X93781000Y-111176922D01*
X93781000Y-111023078D01*
X93750987Y-110872191D01*
X93730644Y-110823078D01*
X103119000Y-110823078D01*
X103119000Y-110976922D01*
X103149013Y-111127809D01*
X103207887Y-111269942D01*
X103293358Y-111397859D01*
X103402141Y-111506642D01*
X103530058Y-111592113D01*
X103647559Y-111640784D01*
X103613507Y-111722004D01*
X103565000Y-111960500D01*
X103565000Y-112310500D01*
X104673000Y-112310500D01*
X104673000Y-111018769D01*
X104927000Y-111018769D01*
X104927000Y-112310500D01*
X106035000Y-112310500D01*
X106035000Y-111960500D01*
X105986493Y-111722004D01*
X105892390Y-111497554D01*
X105756307Y-111295775D01*
X105583474Y-111124422D01*
X105488164Y-111061329D01*
X105605849Y-111090219D01*
X105873482Y-111102104D01*
X106138291Y-111061548D01*
X106390100Y-110970109D01*
X106497035Y-110912950D01*
X106559528Y-110676633D01*
X110040472Y-110676633D01*
X110102965Y-110912950D01*
X110345678Y-111026350D01*
X110605849Y-111090219D01*
X110873482Y-111102104D01*
X111103442Y-111066885D01*
X111016526Y-111124422D01*
X110843693Y-111295775D01*
X110707610Y-111497554D01*
X110613507Y-111722004D01*
X110565000Y-111960500D01*
X110565000Y-112310500D01*
X111673000Y-112310500D01*
X111673000Y-111018769D01*
X111927000Y-111018769D01*
X111927000Y-112310500D01*
X113035000Y-112310500D01*
X113035000Y-111960500D01*
X112986493Y-111722004D01*
X112892390Y-111497554D01*
X112756307Y-111295775D01*
X112583474Y-111124422D01*
X112380533Y-110990079D01*
X112155282Y-110897909D01*
X112117609Y-110894038D01*
X111927000Y-111018769D01*
X111673000Y-111018769D01*
X111499138Y-110904997D01*
X111559528Y-110676633D01*
X110800000Y-109917105D01*
X110040472Y-110676633D01*
X106559528Y-110676633D01*
X105800000Y-109917105D01*
X105040472Y-110676633D01*
X105100862Y-110904997D01*
X104927000Y-111018769D01*
X104673000Y-111018769D01*
X104672713Y-111018582D01*
X104681000Y-110976922D01*
X104681000Y-110823078D01*
X104650987Y-110672191D01*
X104592113Y-110530058D01*
X104506642Y-110402141D01*
X104397859Y-110293358D01*
X104269942Y-110207887D01*
X104127809Y-110149013D01*
X103976922Y-110119000D01*
X103823078Y-110119000D01*
X103672191Y-110149013D01*
X103530058Y-110207887D01*
X103402141Y-110293358D01*
X103293358Y-110402141D01*
X103207887Y-110530058D01*
X103149013Y-110672191D01*
X103119000Y-110823078D01*
X93730644Y-110823078D01*
X93692113Y-110730058D01*
X93606642Y-110602141D01*
X93497859Y-110493358D01*
X93369942Y-110407887D01*
X93227809Y-110349013D01*
X93076922Y-110319000D01*
X92923078Y-110319000D01*
X92772191Y-110349013D01*
X92630058Y-110407887D01*
X92502141Y-110493358D01*
X92393358Y-110602141D01*
X92307887Y-110730058D01*
X92249013Y-110872191D01*
X92219000Y-111023078D01*
X84729770Y-111023078D01*
X84538743Y-110737186D01*
X84262814Y-110461257D01*
X83938355Y-110244461D01*
X83577836Y-110095129D01*
X83195111Y-110019000D01*
X82804889Y-110019000D01*
X82422164Y-110095129D01*
X82061645Y-110244461D01*
X81737186Y-110461257D01*
X81461257Y-110737186D01*
X81244461Y-111061645D01*
X81095129Y-111422164D01*
X81019000Y-111804889D01*
X81019000Y-112195111D01*
X81029443Y-112247611D01*
X80997656Y-112200307D01*
X80671269Y-111456779D01*
X80480914Y-110663893D01*
X80431000Y-109984190D01*
X80431000Y-107723078D01*
X86019000Y-107723078D01*
X86019000Y-107876922D01*
X86049013Y-108027809D01*
X86107887Y-108169942D01*
X86193358Y-108297859D01*
X86302141Y-108406642D01*
X86430058Y-108492113D01*
X86552619Y-108542880D01*
X86493358Y-108602141D01*
X86407887Y-108730058D01*
X86349013Y-108872191D01*
X86319000Y-109023078D01*
X86319000Y-109176922D01*
X86349013Y-109327809D01*
X86407887Y-109469942D01*
X86493358Y-109597859D01*
X86495499Y-109600000D01*
X86493358Y-109602141D01*
X86407887Y-109730058D01*
X86349013Y-109872191D01*
X86319000Y-110023078D01*
X86319000Y-110176922D01*
X86349013Y-110327809D01*
X86407887Y-110469942D01*
X86493358Y-110597859D01*
X86602141Y-110706642D01*
X86730058Y-110792113D01*
X86872191Y-110850987D01*
X87023078Y-110881000D01*
X87176922Y-110881000D01*
X87327809Y-110850987D01*
X87469942Y-110792113D01*
X87597859Y-110706642D01*
X87706642Y-110597859D01*
X87792113Y-110469942D01*
X87800000Y-110450901D01*
X87807887Y-110469942D01*
X87893358Y-110597859D01*
X88002141Y-110706642D01*
X88130058Y-110792113D01*
X88272191Y-110850987D01*
X88423078Y-110881000D01*
X88576922Y-110881000D01*
X88727809Y-110850987D01*
X88869942Y-110792113D01*
X88997859Y-110706642D01*
X89106642Y-110597859D01*
X89192113Y-110469942D01*
X89250987Y-110327809D01*
X89281000Y-110176922D01*
X89281000Y-110023078D01*
X89250987Y-109872191D01*
X89225634Y-109810982D01*
X104435396Y-109810982D01*
X104475952Y-110075791D01*
X104567391Y-110327600D01*
X104624550Y-110434535D01*
X104860867Y-110497028D01*
X105620395Y-109737500D01*
X105979605Y-109737500D01*
X106739133Y-110497028D01*
X106975450Y-110434535D01*
X107088850Y-110191822D01*
X107152719Y-109931651D01*
X107158077Y-109810982D01*
X109435396Y-109810982D01*
X109475952Y-110075791D01*
X109567391Y-110327600D01*
X109624550Y-110434535D01*
X109860867Y-110497028D01*
X110620395Y-109737500D01*
X110979605Y-109737500D01*
X111739133Y-110497028D01*
X111975450Y-110434535D01*
X112088850Y-110191822D01*
X112152719Y-109931651D01*
X112164604Y-109664018D01*
X112124048Y-109399209D01*
X112032609Y-109147400D01*
X111975450Y-109040465D01*
X111739133Y-108977972D01*
X110979605Y-109737500D01*
X110620395Y-109737500D01*
X109860867Y-108977972D01*
X109624550Y-109040465D01*
X109511150Y-109283178D01*
X109447281Y-109543349D01*
X109435396Y-109810982D01*
X107158077Y-109810982D01*
X107164604Y-109664018D01*
X107124048Y-109399209D01*
X107032609Y-109147400D01*
X106975450Y-109040465D01*
X106739133Y-108977972D01*
X105979605Y-109737500D01*
X105620395Y-109737500D01*
X104860867Y-108977972D01*
X104624550Y-109040465D01*
X104511150Y-109283178D01*
X104447281Y-109543349D01*
X104435396Y-109810982D01*
X89225634Y-109810982D01*
X89192113Y-109730058D01*
X89106642Y-109602141D01*
X88997859Y-109493358D01*
X88869942Y-109407887D01*
X88727809Y-109349013D01*
X88576922Y-109319000D01*
X88423078Y-109319000D01*
X88272191Y-109349013D01*
X88130058Y-109407887D01*
X88002141Y-109493358D01*
X87893358Y-109602141D01*
X87807887Y-109730058D01*
X87800000Y-109749099D01*
X87792113Y-109730058D01*
X87706642Y-109602141D01*
X87704501Y-109600000D01*
X87706642Y-109597859D01*
X87792113Y-109469942D01*
X87850987Y-109327809D01*
X87881000Y-109176922D01*
X87881000Y-109023078D01*
X87850987Y-108872191D01*
X87792113Y-108730058D01*
X87706642Y-108602141D01*
X87597859Y-108493358D01*
X87469942Y-108407887D01*
X87347381Y-108357120D01*
X87406642Y-108297859D01*
X87450000Y-108232969D01*
X87493358Y-108297859D01*
X87602141Y-108406642D01*
X87730058Y-108492113D01*
X87872191Y-108550987D01*
X88023078Y-108581000D01*
X88176922Y-108581000D01*
X88327809Y-108550987D01*
X88469942Y-108492113D01*
X88597859Y-108406642D01*
X88706642Y-108297859D01*
X88792113Y-108169942D01*
X88850987Y-108027809D01*
X88881000Y-107876922D01*
X88881000Y-107723078D01*
X88850987Y-107572191D01*
X88792113Y-107430058D01*
X88706642Y-107302141D01*
X88597859Y-107193358D01*
X88469942Y-107107887D01*
X88327809Y-107049013D01*
X88176922Y-107019000D01*
X88023078Y-107019000D01*
X87872191Y-107049013D01*
X87730058Y-107107887D01*
X87602141Y-107193358D01*
X87493358Y-107302141D01*
X87450000Y-107367031D01*
X87406642Y-107302141D01*
X87297859Y-107193358D01*
X87169942Y-107107887D01*
X87027809Y-107049013D01*
X86876922Y-107019000D01*
X86723078Y-107019000D01*
X86572191Y-107049013D01*
X86430058Y-107107887D01*
X86302141Y-107193358D01*
X86193358Y-107302141D01*
X86107887Y-107430058D01*
X86049013Y-107572191D01*
X86019000Y-107723078D01*
X80431000Y-107723078D01*
X80431000Y-105923078D01*
X91919000Y-105923078D01*
X91919000Y-106076922D01*
X91949013Y-106227809D01*
X92007887Y-106369942D01*
X92093358Y-106497859D01*
X92095499Y-106500000D01*
X92093358Y-106502141D01*
X92007887Y-106630058D01*
X91949013Y-106772191D01*
X91919000Y-106923078D01*
X91919000Y-107076922D01*
X91949013Y-107227809D01*
X92007887Y-107369942D01*
X92093358Y-107497859D01*
X92095499Y-107500000D01*
X92093358Y-107502141D01*
X92007887Y-107630058D01*
X91949013Y-107772191D01*
X91919000Y-107923078D01*
X91919000Y-108076922D01*
X91949013Y-108227809D01*
X92007887Y-108369942D01*
X92093358Y-108497859D01*
X92202141Y-108606642D01*
X92330058Y-108692113D01*
X92472191Y-108750987D01*
X92623078Y-108781000D01*
X92776922Y-108781000D01*
X92927809Y-108750987D01*
X93069942Y-108692113D01*
X93197859Y-108606642D01*
X93306642Y-108497859D01*
X93392113Y-108369942D01*
X93450987Y-108227809D01*
X93451928Y-108223078D01*
X95419000Y-108223078D01*
X95419000Y-108376922D01*
X95449013Y-108527809D01*
X95507887Y-108669942D01*
X95593358Y-108797859D01*
X95702141Y-108906642D01*
X95830058Y-108992113D01*
X95972191Y-109050987D01*
X96123078Y-109081000D01*
X96276922Y-109081000D01*
X96427809Y-109050987D01*
X96569942Y-108992113D01*
X96697859Y-108906642D01*
X96759520Y-108844981D01*
X96830058Y-108892113D01*
X96972191Y-108950987D01*
X97123078Y-108981000D01*
X97276922Y-108981000D01*
X97427809Y-108950987D01*
X97569942Y-108892113D01*
X97697859Y-108806642D01*
X97706134Y-108798367D01*
X105040472Y-108798367D01*
X105800000Y-109557895D01*
X106559528Y-108798367D01*
X110040472Y-108798367D01*
X110800000Y-109557895D01*
X111559528Y-108798367D01*
X111497035Y-108562050D01*
X111254322Y-108448650D01*
X110994151Y-108384781D01*
X110726518Y-108372896D01*
X110461709Y-108413452D01*
X110209900Y-108504891D01*
X110102965Y-108562050D01*
X110040472Y-108798367D01*
X106559528Y-108798367D01*
X106497035Y-108562050D01*
X106254322Y-108448650D01*
X105994151Y-108384781D01*
X105726518Y-108372896D01*
X105461709Y-108413452D01*
X105209900Y-108504891D01*
X105102965Y-108562050D01*
X105040472Y-108798367D01*
X97706134Y-108798367D01*
X97806642Y-108697859D01*
X97892113Y-108569942D01*
X97950987Y-108427809D01*
X97981000Y-108276922D01*
X97981000Y-108123078D01*
X97950987Y-107972191D01*
X97892113Y-107830058D01*
X97844981Y-107759520D01*
X97906642Y-107697859D01*
X97992113Y-107569942D01*
X98050987Y-107427809D01*
X98081000Y-107276922D01*
X98081000Y-107123078D01*
X98050987Y-106972191D01*
X97992113Y-106830058D01*
X97987450Y-106823078D01*
X105519000Y-106823078D01*
X105519000Y-106976922D01*
X105549013Y-107127809D01*
X105607887Y-107269942D01*
X105693358Y-107397859D01*
X105802141Y-107506642D01*
X105930058Y-107592113D01*
X106072191Y-107650987D01*
X106223078Y-107681000D01*
X106376922Y-107681000D01*
X106527809Y-107650987D01*
X106669942Y-107592113D01*
X106797859Y-107506642D01*
X106906642Y-107397859D01*
X106992113Y-107269942D01*
X107050987Y-107127809D01*
X107081000Y-106976922D01*
X107081000Y-106823078D01*
X107050987Y-106672191D01*
X106992113Y-106530058D01*
X106906642Y-106402141D01*
X106797859Y-106293358D01*
X106669942Y-106207887D01*
X106527809Y-106149013D01*
X106376922Y-106119000D01*
X106223078Y-106119000D01*
X106072191Y-106149013D01*
X105930058Y-106207887D01*
X105802141Y-106293358D01*
X105693358Y-106402141D01*
X105607887Y-106530058D01*
X105549013Y-106672191D01*
X105519000Y-106823078D01*
X97987450Y-106823078D01*
X97906642Y-106702141D01*
X97904501Y-106700000D01*
X97906642Y-106697859D01*
X97992113Y-106569942D01*
X98050987Y-106427809D01*
X98081000Y-106276922D01*
X98081000Y-106123078D01*
X98050987Y-105972191D01*
X97992113Y-105830058D01*
X97906642Y-105702141D01*
X97904501Y-105700000D01*
X97906642Y-105697859D01*
X97992113Y-105569942D01*
X98050987Y-105427809D01*
X98081000Y-105276922D01*
X98081000Y-105123078D01*
X98050987Y-104972191D01*
X97992113Y-104830058D01*
X97906642Y-104702141D01*
X97797859Y-104593358D01*
X97669942Y-104507887D01*
X97530192Y-104450000D01*
X97669942Y-104392113D01*
X97797859Y-104306642D01*
X97906642Y-104197859D01*
X97992113Y-104069942D01*
X98050987Y-103927809D01*
X98081000Y-103776922D01*
X98081000Y-103623078D01*
X98050987Y-103472191D01*
X97992113Y-103330058D01*
X97906642Y-103202141D01*
X97797859Y-103093358D01*
X97669942Y-103007887D01*
X97527809Y-102949013D01*
X97376922Y-102919000D01*
X97223078Y-102919000D01*
X97072191Y-102949013D01*
X96930058Y-103007887D01*
X96802141Y-103093358D01*
X96800000Y-103095499D01*
X96797859Y-103093358D01*
X96669942Y-103007887D01*
X96527809Y-102949013D01*
X96376922Y-102919000D01*
X96223078Y-102919000D01*
X96072191Y-102949013D01*
X95930058Y-103007887D01*
X95802141Y-103093358D01*
X95693358Y-103202141D01*
X95607887Y-103330058D01*
X95549013Y-103472191D01*
X95519000Y-103623078D01*
X95519000Y-103776922D01*
X95549013Y-103927809D01*
X95607887Y-104069942D01*
X95693358Y-104197859D01*
X95802141Y-104306642D01*
X95930058Y-104392113D01*
X96072191Y-104450987D01*
X96223078Y-104481000D01*
X96376922Y-104481000D01*
X96527809Y-104450987D01*
X96669942Y-104392113D01*
X96797859Y-104306642D01*
X96800000Y-104304501D01*
X96802141Y-104306642D01*
X96930058Y-104392113D01*
X97069808Y-104450000D01*
X96930058Y-104507887D01*
X96802141Y-104593358D01*
X96693358Y-104702141D01*
X96607887Y-104830058D01*
X96549013Y-104972191D01*
X96519000Y-105123078D01*
X96519000Y-105276922D01*
X96549013Y-105427809D01*
X96607887Y-105569942D01*
X96693358Y-105697859D01*
X96695499Y-105700000D01*
X96693358Y-105702141D01*
X96607887Y-105830058D01*
X96549013Y-105972191D01*
X96519000Y-106123078D01*
X96519000Y-106276922D01*
X96549013Y-106427809D01*
X96607887Y-106569942D01*
X96693358Y-106697859D01*
X96695499Y-106700000D01*
X96693358Y-106702141D01*
X96607887Y-106830058D01*
X96549013Y-106972191D01*
X96519000Y-107123078D01*
X96519000Y-107276922D01*
X96549013Y-107427809D01*
X96607887Y-107569942D01*
X96655019Y-107640480D01*
X96640480Y-107655019D01*
X96569942Y-107607887D01*
X96427809Y-107549013D01*
X96276922Y-107519000D01*
X96123078Y-107519000D01*
X95972191Y-107549013D01*
X95830058Y-107607887D01*
X95702141Y-107693358D01*
X95593358Y-107802141D01*
X95507887Y-107930058D01*
X95449013Y-108072191D01*
X95419000Y-108223078D01*
X93451928Y-108223078D01*
X93481000Y-108076922D01*
X93481000Y-107923078D01*
X93450987Y-107772191D01*
X93392113Y-107630058D01*
X93306642Y-107502141D01*
X93304501Y-107500000D01*
X93306642Y-107497859D01*
X93392113Y-107369942D01*
X93450987Y-107227809D01*
X93481000Y-107076922D01*
X93481000Y-106923078D01*
X93450987Y-106772191D01*
X93392113Y-106630058D01*
X93306642Y-106502141D01*
X93304501Y-106500000D01*
X93306642Y-106497859D01*
X93392113Y-106369942D01*
X93450987Y-106227809D01*
X93481000Y-106076922D01*
X93481000Y-105923078D01*
X93450987Y-105772191D01*
X93392113Y-105630058D01*
X93306642Y-105502141D01*
X93197859Y-105393358D01*
X93069942Y-105307887D01*
X92927809Y-105249013D01*
X92776922Y-105219000D01*
X92623078Y-105219000D01*
X92472191Y-105249013D01*
X92330058Y-105307887D01*
X92202141Y-105393358D01*
X92093358Y-105502141D01*
X92007887Y-105630058D01*
X91949013Y-105772191D01*
X91919000Y-105923078D01*
X80431000Y-105923078D01*
X80431000Y-103623078D01*
X92719000Y-103623078D01*
X92719000Y-103776922D01*
X92749013Y-103927809D01*
X92807887Y-104069942D01*
X92893358Y-104197859D01*
X93002141Y-104306642D01*
X93130058Y-104392113D01*
X93272191Y-104450987D01*
X93423078Y-104481000D01*
X93576922Y-104481000D01*
X93727809Y-104450987D01*
X93869942Y-104392113D01*
X93997859Y-104306642D01*
X94000000Y-104304501D01*
X94002141Y-104306642D01*
X94130058Y-104392113D01*
X94272191Y-104450987D01*
X94423078Y-104481000D01*
X94576922Y-104481000D01*
X94727809Y-104450987D01*
X94869942Y-104392113D01*
X94997859Y-104306642D01*
X95106642Y-104197859D01*
X95192113Y-104069942D01*
X95250987Y-103927809D01*
X95281000Y-103776922D01*
X95281000Y-103623078D01*
X95250987Y-103472191D01*
X95192113Y-103330058D01*
X95106642Y-103202141D01*
X94997859Y-103093358D01*
X94869942Y-103007887D01*
X94727809Y-102949013D01*
X94576922Y-102919000D01*
X94423078Y-102919000D01*
X94272191Y-102949013D01*
X94130058Y-103007887D01*
X94002141Y-103093358D01*
X94000000Y-103095499D01*
X93997859Y-103093358D01*
X93869942Y-103007887D01*
X93727809Y-102949013D01*
X93576922Y-102919000D01*
X93423078Y-102919000D01*
X93272191Y-102949013D01*
X93130058Y-103007887D01*
X93002141Y-103093358D01*
X92893358Y-103202141D01*
X92807887Y-103330058D01*
X92749013Y-103472191D01*
X92719000Y-103623078D01*
X80431000Y-103623078D01*
X80431000Y-101323078D01*
X96919000Y-101323078D01*
X96919000Y-101476922D01*
X96949013Y-101627809D01*
X97007887Y-101769942D01*
X97093358Y-101897859D01*
X97202141Y-102006642D01*
X97330058Y-102092113D01*
X97472191Y-102150987D01*
X97623078Y-102181000D01*
X97776922Y-102181000D01*
X97927809Y-102150987D01*
X98069942Y-102092113D01*
X98197859Y-102006642D01*
X98306642Y-101897859D01*
X98392113Y-101769942D01*
X98450987Y-101627809D01*
X98481000Y-101476922D01*
X98481000Y-101323078D01*
X98450987Y-101172191D01*
X98392113Y-101030058D01*
X98306642Y-100902141D01*
X98197859Y-100793358D01*
X98069942Y-100707887D01*
X97927809Y-100649013D01*
X97776922Y-100619000D01*
X97623078Y-100619000D01*
X97472191Y-100649013D01*
X97330058Y-100707887D01*
X97202141Y-100793358D01*
X97093358Y-100902141D01*
X97007887Y-101030058D01*
X96949013Y-101172191D01*
X96919000Y-101323078D01*
X80431000Y-101323078D01*
X80431000Y-97623078D01*
X80919000Y-97623078D01*
X80919000Y-97776922D01*
X80949013Y-97927809D01*
X81007887Y-98069942D01*
X81093358Y-98197859D01*
X81202141Y-98306642D01*
X81330058Y-98392113D01*
X81472191Y-98450987D01*
X81623078Y-98481000D01*
X81719000Y-98481000D01*
X81719000Y-98576922D01*
X81749013Y-98727809D01*
X81807887Y-98869942D01*
X81893358Y-98997859D01*
X81895499Y-99000000D01*
X81893358Y-99002141D01*
X81807887Y-99130058D01*
X81749013Y-99272191D01*
X81719000Y-99423078D01*
X81719000Y-99576922D01*
X81749013Y-99727809D01*
X81807887Y-99869942D01*
X81893358Y-99997859D01*
X81895499Y-100000000D01*
X81893358Y-100002141D01*
X81807887Y-100130058D01*
X81749013Y-100272191D01*
X81719000Y-100423078D01*
X81719000Y-100576922D01*
X81749013Y-100727809D01*
X81807887Y-100869942D01*
X81893358Y-100997859D01*
X82002141Y-101106642D01*
X82130058Y-101192113D01*
X82272191Y-101250987D01*
X82423078Y-101281000D01*
X82576922Y-101281000D01*
X82727809Y-101250987D01*
X82869942Y-101192113D01*
X82997859Y-101106642D01*
X83106642Y-100997859D01*
X83192113Y-100869942D01*
X83250987Y-100727809D01*
X83281000Y-100576922D01*
X83281000Y-100423078D01*
X83250987Y-100272191D01*
X83192113Y-100130058D01*
X83106642Y-100002141D01*
X83104501Y-100000000D01*
X83106642Y-99997859D01*
X83192113Y-99869942D01*
X83250987Y-99727809D01*
X83281000Y-99576922D01*
X83281000Y-99423078D01*
X83250987Y-99272191D01*
X83192113Y-99130058D01*
X83106642Y-99002141D01*
X83104501Y-99000000D01*
X83106642Y-98997859D01*
X83192113Y-98869942D01*
X83250987Y-98727809D01*
X83281000Y-98576922D01*
X83281000Y-98459334D01*
X83330058Y-98492113D01*
X83472191Y-98550987D01*
X83623078Y-98581000D01*
X83776922Y-98581000D01*
X83927809Y-98550987D01*
X84069942Y-98492113D01*
X84197859Y-98406642D01*
X84306642Y-98297859D01*
X84392113Y-98169942D01*
X84450987Y-98027809D01*
X84471819Y-97923078D01*
X92819000Y-97923078D01*
X92819000Y-98076922D01*
X92849013Y-98227809D01*
X92907887Y-98369942D01*
X92993358Y-98497859D01*
X92995499Y-98500000D01*
X92993358Y-98502141D01*
X92907887Y-98630058D01*
X92849013Y-98772191D01*
X92819000Y-98923078D01*
X92819000Y-99076922D01*
X92849013Y-99227809D01*
X92907887Y-99369942D01*
X92993358Y-99497859D01*
X93102141Y-99606642D01*
X93230058Y-99692113D01*
X93372191Y-99750987D01*
X93523078Y-99781000D01*
X93676922Y-99781000D01*
X93827809Y-99750987D01*
X93969942Y-99692113D01*
X94097859Y-99606642D01*
X94206642Y-99497859D01*
X94292113Y-99369942D01*
X94311524Y-99323078D01*
X94919000Y-99323078D01*
X94919000Y-99476922D01*
X94949013Y-99627809D01*
X95007887Y-99769942D01*
X95093358Y-99897859D01*
X95202141Y-100006642D01*
X95330058Y-100092113D01*
X95472191Y-100150987D01*
X95623078Y-100181000D01*
X95776922Y-100181000D01*
X95927809Y-100150987D01*
X96069942Y-100092113D01*
X96197859Y-100006642D01*
X96250000Y-99954501D01*
X96302141Y-100006642D01*
X96430058Y-100092113D01*
X96572191Y-100150987D01*
X96723078Y-100181000D01*
X96876922Y-100181000D01*
X97027809Y-100150987D01*
X97169942Y-100092113D01*
X97297859Y-100006642D01*
X97379501Y-99925000D01*
X99536928Y-99925000D01*
X99549188Y-100049482D01*
X99585498Y-100169180D01*
X99644463Y-100279494D01*
X99723815Y-100376185D01*
X99794000Y-100433784D01*
X99794000Y-100579384D01*
X99824974Y-100735102D01*
X99885732Y-100881784D01*
X99973939Y-101013795D01*
X100086205Y-101126061D01*
X100218216Y-101214268D01*
X100364898Y-101275026D01*
X100520616Y-101306000D01*
X100679384Y-101306000D01*
X100835102Y-101275026D01*
X100981784Y-101214268D01*
X101113795Y-101126061D01*
X101226061Y-101013795D01*
X101314268Y-100881784D01*
X101375026Y-100735102D01*
X101406000Y-100579384D01*
X101406000Y-100433784D01*
X101476185Y-100376185D01*
X101555537Y-100279494D01*
X101614502Y-100169180D01*
X101650812Y-100049482D01*
X101663072Y-99925000D01*
X101660000Y-99785750D01*
X101501252Y-99627002D01*
X101590100Y-99627002D01*
X101607887Y-99669942D01*
X101693358Y-99797859D01*
X101802141Y-99906642D01*
X101930058Y-99992113D01*
X102072191Y-100050987D01*
X102223078Y-100081000D01*
X102376922Y-100081000D01*
X102527809Y-100050987D01*
X102669942Y-99992113D01*
X102797859Y-99906642D01*
X102906642Y-99797859D01*
X102992113Y-99669942D01*
X103050987Y-99527809D01*
X103081000Y-99376922D01*
X103081000Y-99223078D01*
X103050987Y-99072191D01*
X102992113Y-98930058D01*
X102906642Y-98802141D01*
X102797859Y-98693358D01*
X102669942Y-98607887D01*
X102527809Y-98549013D01*
X102376922Y-98519000D01*
X102223078Y-98519000D01*
X102072191Y-98549013D01*
X101930058Y-98607887D01*
X101802141Y-98693358D01*
X101693358Y-98802141D01*
X101633141Y-98892263D01*
X101614502Y-98830820D01*
X101555537Y-98720506D01*
X101476185Y-98623815D01*
X101379494Y-98544463D01*
X101269180Y-98485498D01*
X101149482Y-98449188D01*
X101025000Y-98436928D01*
X100885750Y-98440000D01*
X100727000Y-98598750D01*
X100727000Y-99373000D01*
X100747000Y-99373000D01*
X100747000Y-99627000D01*
X100727000Y-99627000D01*
X100727000Y-99647000D01*
X100473000Y-99647000D01*
X100473000Y-99627000D01*
X99698750Y-99627000D01*
X99540000Y-99785750D01*
X99536928Y-99925000D01*
X97379501Y-99925000D01*
X97406642Y-99897859D01*
X97492113Y-99769942D01*
X97550987Y-99627809D01*
X97581000Y-99476922D01*
X97581000Y-99323078D01*
X97550987Y-99172191D01*
X97510729Y-99075000D01*
X99536928Y-99075000D01*
X99540000Y-99214250D01*
X99698750Y-99373000D01*
X100473000Y-99373000D01*
X100473000Y-98598750D01*
X100314250Y-98440000D01*
X100175000Y-98436928D01*
X100050518Y-98449188D01*
X99930820Y-98485498D01*
X99820506Y-98544463D01*
X99723815Y-98623815D01*
X99644463Y-98720506D01*
X99585498Y-98830820D01*
X99549188Y-98950518D01*
X99536928Y-99075000D01*
X97510729Y-99075000D01*
X97492113Y-99030058D01*
X97406642Y-98902141D01*
X97297859Y-98793358D01*
X97169942Y-98707887D01*
X97027809Y-98649013D01*
X96876922Y-98619000D01*
X96723078Y-98619000D01*
X96572191Y-98649013D01*
X96430058Y-98707887D01*
X96302141Y-98793358D01*
X96250000Y-98845499D01*
X96197859Y-98793358D01*
X96069942Y-98707887D01*
X95927809Y-98649013D01*
X95776922Y-98619000D01*
X95623078Y-98619000D01*
X95472191Y-98649013D01*
X95330058Y-98707887D01*
X95202141Y-98793358D01*
X95093358Y-98902141D01*
X95007887Y-99030058D01*
X94949013Y-99172191D01*
X94919000Y-99323078D01*
X94311524Y-99323078D01*
X94350987Y-99227809D01*
X94381000Y-99076922D01*
X94381000Y-98923078D01*
X94350987Y-98772191D01*
X94292113Y-98630058D01*
X94206642Y-98502141D01*
X94204501Y-98500000D01*
X94206642Y-98497859D01*
X94292113Y-98369942D01*
X94311524Y-98323078D01*
X110219000Y-98323078D01*
X110219000Y-98476922D01*
X110249013Y-98627809D01*
X110307887Y-98769942D01*
X110393358Y-98897859D01*
X110502141Y-99006642D01*
X110630058Y-99092113D01*
X110772191Y-99150987D01*
X110923078Y-99181000D01*
X111076922Y-99181000D01*
X111227809Y-99150987D01*
X111369942Y-99092113D01*
X111497859Y-99006642D01*
X111606642Y-98897859D01*
X111692113Y-98769942D01*
X111750987Y-98627809D01*
X111781000Y-98476922D01*
X111781000Y-98323078D01*
X111750987Y-98172191D01*
X111692113Y-98030058D01*
X111606642Y-97902141D01*
X111497859Y-97793358D01*
X111369942Y-97707887D01*
X111227809Y-97649013D01*
X111076922Y-97619000D01*
X110923078Y-97619000D01*
X110772191Y-97649013D01*
X110630058Y-97707887D01*
X110502141Y-97793358D01*
X110393358Y-97902141D01*
X110307887Y-98030058D01*
X110249013Y-98172191D01*
X110219000Y-98323078D01*
X94311524Y-98323078D01*
X94350987Y-98227809D01*
X94381000Y-98076922D01*
X94381000Y-97923078D01*
X94350987Y-97772191D01*
X94292113Y-97630058D01*
X94206642Y-97502141D01*
X94097859Y-97393358D01*
X93969942Y-97307887D01*
X93827809Y-97249013D01*
X93676922Y-97219000D01*
X93523078Y-97219000D01*
X93372191Y-97249013D01*
X93230058Y-97307887D01*
X93102141Y-97393358D01*
X92993358Y-97502141D01*
X92907887Y-97630058D01*
X92849013Y-97772191D01*
X92819000Y-97923078D01*
X84471819Y-97923078D01*
X84481000Y-97876922D01*
X84481000Y-97723078D01*
X84450987Y-97572191D01*
X84392113Y-97430058D01*
X84306642Y-97302141D01*
X84197859Y-97193358D01*
X84069942Y-97107887D01*
X83927809Y-97049013D01*
X83776922Y-97019000D01*
X83623078Y-97019000D01*
X83472191Y-97049013D01*
X83330058Y-97107887D01*
X83202141Y-97193358D01*
X83093358Y-97302141D01*
X83007887Y-97430058D01*
X82949013Y-97572191D01*
X82919000Y-97723078D01*
X82919000Y-97840666D01*
X82869942Y-97807887D01*
X82727809Y-97749013D01*
X82576922Y-97719000D01*
X82481000Y-97719000D01*
X82481000Y-97623078D01*
X82450987Y-97472191D01*
X82392113Y-97330058D01*
X82306642Y-97202141D01*
X82197859Y-97093358D01*
X82069942Y-97007887D01*
X81927809Y-96949013D01*
X81776922Y-96919000D01*
X81623078Y-96919000D01*
X81472191Y-96949013D01*
X81330058Y-97007887D01*
X81202141Y-97093358D01*
X81093358Y-97202141D01*
X81007887Y-97330058D01*
X80949013Y-97472191D01*
X80919000Y-97623078D01*
X80431000Y-97623078D01*
X80431000Y-94854134D01*
X93519000Y-94854134D01*
X93519000Y-95145866D01*
X93575914Y-95431992D01*
X93687555Y-95701517D01*
X93849632Y-95944083D01*
X94055917Y-96150368D01*
X94298483Y-96312445D01*
X94568008Y-96424086D01*
X94854134Y-96481000D01*
X95145866Y-96481000D01*
X95431992Y-96424086D01*
X95701517Y-96312445D01*
X95944083Y-96150368D01*
X96150368Y-95944083D01*
X96298038Y-95723078D01*
X108019000Y-95723078D01*
X108019000Y-95876922D01*
X108049013Y-96027809D01*
X108107887Y-96169942D01*
X108193358Y-96297859D01*
X108302141Y-96406642D01*
X108430058Y-96492113D01*
X108572191Y-96550987D01*
X108723078Y-96581000D01*
X108876922Y-96581000D01*
X109027809Y-96550987D01*
X109169942Y-96492113D01*
X109297859Y-96406642D01*
X109406642Y-96297859D01*
X109492113Y-96169942D01*
X109550987Y-96027809D01*
X109580189Y-95881000D01*
X109676922Y-95881000D01*
X109827809Y-95850987D01*
X109969942Y-95792113D01*
X110097859Y-95706642D01*
X110206642Y-95597859D01*
X110250000Y-95532969D01*
X110293358Y-95597859D01*
X110402141Y-95706642D01*
X110530058Y-95792113D01*
X110672191Y-95850987D01*
X110823078Y-95881000D01*
X110976922Y-95881000D01*
X111127809Y-95850987D01*
X111269942Y-95792113D01*
X111397859Y-95706642D01*
X111506642Y-95597859D01*
X111592113Y-95469942D01*
X111650987Y-95327809D01*
X111681000Y-95176922D01*
X111681000Y-95023078D01*
X111650987Y-94872191D01*
X111643508Y-94854134D01*
X113519000Y-94854134D01*
X113519000Y-95145866D01*
X113575914Y-95431992D01*
X113687555Y-95701517D01*
X113849632Y-95944083D01*
X114055917Y-96150368D01*
X114298483Y-96312445D01*
X114568008Y-96424086D01*
X114854134Y-96481000D01*
X115145866Y-96481000D01*
X115431992Y-96424086D01*
X115701517Y-96312445D01*
X115944083Y-96150368D01*
X116150368Y-95944083D01*
X116312445Y-95701517D01*
X116424086Y-95431992D01*
X116481000Y-95145866D01*
X116481000Y-94854134D01*
X116424086Y-94568008D01*
X116312445Y-94298483D01*
X116150368Y-94055917D01*
X115944083Y-93849632D01*
X115701517Y-93687555D01*
X115431992Y-93575914D01*
X115145866Y-93519000D01*
X114854134Y-93519000D01*
X114568008Y-93575914D01*
X114298483Y-93687555D01*
X114055917Y-93849632D01*
X113849632Y-94055917D01*
X113687555Y-94298483D01*
X113575914Y-94568008D01*
X113519000Y-94854134D01*
X111643508Y-94854134D01*
X111592113Y-94730058D01*
X111506642Y-94602141D01*
X111397859Y-94493358D01*
X111269942Y-94407887D01*
X111127809Y-94349013D01*
X110976922Y-94319000D01*
X110823078Y-94319000D01*
X110672191Y-94349013D01*
X110530058Y-94407887D01*
X110402141Y-94493358D01*
X110293358Y-94602141D01*
X110250000Y-94667031D01*
X110206642Y-94602141D01*
X110097859Y-94493358D01*
X109969942Y-94407887D01*
X109827809Y-94349013D01*
X109676922Y-94319000D01*
X109523078Y-94319000D01*
X109372191Y-94349013D01*
X109230058Y-94407887D01*
X109102141Y-94493358D01*
X108993358Y-94602141D01*
X108907887Y-94730058D01*
X108849013Y-94872191D01*
X108819811Y-95019000D01*
X108723078Y-95019000D01*
X108572191Y-95049013D01*
X108430058Y-95107887D01*
X108302141Y-95193358D01*
X108193358Y-95302141D01*
X108107887Y-95430058D01*
X108049013Y-95572191D01*
X108019000Y-95723078D01*
X96298038Y-95723078D01*
X96312445Y-95701517D01*
X96424086Y-95431992D01*
X96481000Y-95145866D01*
X96481000Y-94854134D01*
X96424086Y-94568008D01*
X96312445Y-94298483D01*
X96150368Y-94055917D01*
X95944083Y-93849632D01*
X95904343Y-93823078D01*
X105419000Y-93823078D01*
X105419000Y-93976922D01*
X105449013Y-94127809D01*
X105507887Y-94269942D01*
X105593358Y-94397859D01*
X105702141Y-94506642D01*
X105830058Y-94592113D01*
X105972191Y-94650987D01*
X106123078Y-94681000D01*
X106276922Y-94681000D01*
X106427809Y-94650987D01*
X106569942Y-94592113D01*
X106697859Y-94506642D01*
X106806642Y-94397859D01*
X106892113Y-94269942D01*
X106950987Y-94127809D01*
X106981000Y-93976922D01*
X106981000Y-93823078D01*
X106950987Y-93672191D01*
X106892113Y-93530058D01*
X106887450Y-93523078D01*
X111419000Y-93523078D01*
X111419000Y-93676922D01*
X111449013Y-93827809D01*
X111507887Y-93969942D01*
X111593358Y-94097859D01*
X111702141Y-94206642D01*
X111830058Y-94292113D01*
X111972191Y-94350987D01*
X112123078Y-94381000D01*
X112276922Y-94381000D01*
X112427809Y-94350987D01*
X112569942Y-94292113D01*
X112697859Y-94206642D01*
X112806642Y-94097859D01*
X112892113Y-93969942D01*
X112950987Y-93827809D01*
X112981000Y-93676922D01*
X112981000Y-93523078D01*
X112972630Y-93481000D01*
X113076922Y-93481000D01*
X113227809Y-93450987D01*
X113369942Y-93392113D01*
X113497859Y-93306642D01*
X113606642Y-93197859D01*
X113692113Y-93069942D01*
X113750987Y-92927809D01*
X113781000Y-92776922D01*
X113781000Y-92623078D01*
X113750987Y-92472191D01*
X113692113Y-92330058D01*
X113606642Y-92202141D01*
X113497859Y-92093358D01*
X113369942Y-92007887D01*
X113227809Y-91949013D01*
X113076922Y-91919000D01*
X112923078Y-91919000D01*
X112772191Y-91949013D01*
X112630058Y-92007887D01*
X112502141Y-92093358D01*
X112393358Y-92202141D01*
X112307887Y-92330058D01*
X112249013Y-92472191D01*
X112219000Y-92623078D01*
X112219000Y-92776922D01*
X112227370Y-92819000D01*
X112123078Y-92819000D01*
X111972191Y-92849013D01*
X111830058Y-92907887D01*
X111702141Y-92993358D01*
X111593358Y-93102141D01*
X111507887Y-93230058D01*
X111449013Y-93372191D01*
X111419000Y-93523078D01*
X106887450Y-93523078D01*
X106806642Y-93402141D01*
X106697859Y-93293358D01*
X106569942Y-93207887D01*
X106427809Y-93149013D01*
X106276922Y-93119000D01*
X106123078Y-93119000D01*
X105972191Y-93149013D01*
X105830058Y-93207887D01*
X105702141Y-93293358D01*
X105593358Y-93402141D01*
X105507887Y-93530058D01*
X105449013Y-93672191D01*
X105419000Y-93823078D01*
X95904343Y-93823078D01*
X95701517Y-93687555D01*
X95431992Y-93575914D01*
X95145866Y-93519000D01*
X94854134Y-93519000D01*
X94568008Y-93575914D01*
X94298483Y-93687555D01*
X94055917Y-93849632D01*
X93849632Y-94055917D01*
X93687555Y-94298483D01*
X93575914Y-94568008D01*
X93519000Y-94854134D01*
X80431000Y-94854134D01*
X80431000Y-93423078D01*
X87419000Y-93423078D01*
X87419000Y-93576922D01*
X87449013Y-93727809D01*
X87507887Y-93869942D01*
X87593358Y-93997859D01*
X87702141Y-94106642D01*
X87830058Y-94192113D01*
X87972191Y-94250987D01*
X88123078Y-94281000D01*
X88276922Y-94281000D01*
X88427809Y-94250987D01*
X88569942Y-94192113D01*
X88697859Y-94106642D01*
X88806642Y-93997859D01*
X88892113Y-93869942D01*
X88950987Y-93727809D01*
X88981000Y-93576922D01*
X88981000Y-93423078D01*
X88950987Y-93272191D01*
X88892113Y-93130058D01*
X88806642Y-93002141D01*
X88697859Y-92893358D01*
X88569942Y-92807887D01*
X88427809Y-92749013D01*
X88276922Y-92719000D01*
X88123078Y-92719000D01*
X87972191Y-92749013D01*
X87830058Y-92807887D01*
X87702141Y-92893358D01*
X87593358Y-93002141D01*
X87507887Y-93130058D01*
X87449013Y-93272191D01*
X87419000Y-93423078D01*
X80431000Y-93423078D01*
X80431000Y-92223078D01*
X105219000Y-92223078D01*
X105219000Y-92376922D01*
X105249013Y-92527809D01*
X105307887Y-92669942D01*
X105393358Y-92797859D01*
X105502141Y-92906642D01*
X105630058Y-92992113D01*
X105772191Y-93050987D01*
X105923078Y-93081000D01*
X106076922Y-93081000D01*
X106227809Y-93050987D01*
X106369942Y-92992113D01*
X106497859Y-92906642D01*
X106606642Y-92797859D01*
X106692113Y-92669942D01*
X106750987Y-92527809D01*
X106781000Y-92376922D01*
X106781000Y-92223078D01*
X106750987Y-92072191D01*
X106692113Y-91930058D01*
X106606642Y-91802141D01*
X106497859Y-91693358D01*
X106369942Y-91607887D01*
X106227809Y-91549013D01*
X106076922Y-91519000D01*
X105923078Y-91519000D01*
X105772191Y-91549013D01*
X105630058Y-91607887D01*
X105502141Y-91693358D01*
X105393358Y-91802141D01*
X105307887Y-91930058D01*
X105249013Y-92072191D01*
X105219000Y-92223078D01*
X80431000Y-92223078D01*
X80431000Y-88723078D01*
X91519000Y-88723078D01*
X91519000Y-88876922D01*
X91549013Y-89027809D01*
X91607887Y-89169942D01*
X91693358Y-89297859D01*
X91802141Y-89406642D01*
X91930058Y-89492113D01*
X92072191Y-89550987D01*
X92223078Y-89581000D01*
X92376922Y-89581000D01*
X92527809Y-89550987D01*
X92669942Y-89492113D01*
X92797859Y-89406642D01*
X92906642Y-89297859D01*
X92992113Y-89169942D01*
X93050987Y-89027809D01*
X93081000Y-88876922D01*
X93081000Y-88723078D01*
X110819000Y-88723078D01*
X110819000Y-88876922D01*
X110849013Y-89027809D01*
X110907887Y-89169942D01*
X110993358Y-89297859D01*
X111102141Y-89406642D01*
X111230058Y-89492113D01*
X111372191Y-89550987D01*
X111523078Y-89581000D01*
X111676922Y-89581000D01*
X111827809Y-89550987D01*
X111969942Y-89492113D01*
X112097859Y-89406642D01*
X112206642Y-89297859D01*
X112292113Y-89169942D01*
X112350987Y-89027809D01*
X112381000Y-88876922D01*
X112381000Y-88723078D01*
X112350987Y-88572191D01*
X112292113Y-88430058D01*
X112206642Y-88302141D01*
X112097859Y-88193358D01*
X111969942Y-88107887D01*
X111827809Y-88049013D01*
X111676922Y-88019000D01*
X111523078Y-88019000D01*
X111372191Y-88049013D01*
X111230058Y-88107887D01*
X111102141Y-88193358D01*
X110993358Y-88302141D01*
X110907887Y-88430058D01*
X110849013Y-88572191D01*
X110819000Y-88723078D01*
X93081000Y-88723078D01*
X93050987Y-88572191D01*
X92992113Y-88430058D01*
X92906642Y-88302141D01*
X92797859Y-88193358D01*
X92669942Y-88107887D01*
X92527809Y-88049013D01*
X92376922Y-88019000D01*
X92223078Y-88019000D01*
X92072191Y-88049013D01*
X91930058Y-88107887D01*
X91802141Y-88193358D01*
X91693358Y-88302141D01*
X91607887Y-88430058D01*
X91549013Y-88572191D01*
X91519000Y-88723078D01*
X80431000Y-88723078D01*
X80431000Y-87623078D01*
X100519000Y-87623078D01*
X100519000Y-87776922D01*
X100549013Y-87927809D01*
X100607887Y-88069942D01*
X100693358Y-88197859D01*
X100802141Y-88306642D01*
X100930058Y-88392113D01*
X101072191Y-88450987D01*
X101223078Y-88481000D01*
X101376922Y-88481000D01*
X101527809Y-88450987D01*
X101669942Y-88392113D01*
X101797859Y-88306642D01*
X101906642Y-88197859D01*
X101992113Y-88069942D01*
X102050987Y-87927809D01*
X102081000Y-87776922D01*
X102081000Y-87723078D01*
X106419000Y-87723078D01*
X106419000Y-87876922D01*
X106449013Y-88027809D01*
X106507887Y-88169942D01*
X106593358Y-88297859D01*
X106702141Y-88406642D01*
X106830058Y-88492113D01*
X106972191Y-88550987D01*
X107123078Y-88581000D01*
X107276922Y-88581000D01*
X107427809Y-88550987D01*
X107569942Y-88492113D01*
X107697859Y-88406642D01*
X107800000Y-88304501D01*
X107902141Y-88406642D01*
X108030058Y-88492113D01*
X108172191Y-88550987D01*
X108323078Y-88581000D01*
X108476922Y-88581000D01*
X108627809Y-88550987D01*
X108769942Y-88492113D01*
X108897859Y-88406642D01*
X109006642Y-88297859D01*
X109092113Y-88169942D01*
X109150987Y-88027809D01*
X109181000Y-87876922D01*
X109181000Y-87723078D01*
X109150987Y-87572191D01*
X109092113Y-87430058D01*
X109006642Y-87302141D01*
X108897859Y-87193358D01*
X108769942Y-87107887D01*
X108627809Y-87049013D01*
X108476922Y-87019000D01*
X108323078Y-87019000D01*
X108172191Y-87049013D01*
X108030058Y-87107887D01*
X107902141Y-87193358D01*
X107800000Y-87295499D01*
X107697859Y-87193358D01*
X107569942Y-87107887D01*
X107427809Y-87049013D01*
X107276922Y-87019000D01*
X107123078Y-87019000D01*
X106972191Y-87049013D01*
X106830058Y-87107887D01*
X106702141Y-87193358D01*
X106593358Y-87302141D01*
X106507887Y-87430058D01*
X106449013Y-87572191D01*
X106419000Y-87723078D01*
X102081000Y-87723078D01*
X102081000Y-87623078D01*
X102050987Y-87472191D01*
X101992113Y-87330058D01*
X101906642Y-87202141D01*
X101797859Y-87093358D01*
X101669942Y-87007887D01*
X101527809Y-86949013D01*
X101376922Y-86919000D01*
X101223078Y-86919000D01*
X101072191Y-86949013D01*
X100930058Y-87007887D01*
X100802141Y-87093358D01*
X100693358Y-87202141D01*
X100607887Y-87330058D01*
X100549013Y-87472191D01*
X100519000Y-87623078D01*
X80431000Y-87623078D01*
X80431000Y-84854134D01*
X93519000Y-84854134D01*
X93519000Y-85145866D01*
X93575914Y-85431992D01*
X93687555Y-85701517D01*
X93849632Y-85944083D01*
X94055917Y-86150368D01*
X94298483Y-86312445D01*
X94568008Y-86424086D01*
X94854134Y-86481000D01*
X95145866Y-86481000D01*
X95431992Y-86424086D01*
X95701517Y-86312445D01*
X95944083Y-86150368D01*
X96150368Y-85944083D01*
X96312445Y-85701517D01*
X96424086Y-85431992D01*
X96481000Y-85145866D01*
X96481000Y-84854134D01*
X113519000Y-84854134D01*
X113519000Y-85145866D01*
X113575914Y-85431992D01*
X113687555Y-85701517D01*
X113849632Y-85944083D01*
X114055917Y-86150368D01*
X114298483Y-86312445D01*
X114568008Y-86424086D01*
X114854134Y-86481000D01*
X115145866Y-86481000D01*
X115431992Y-86424086D01*
X115701517Y-86312445D01*
X115944083Y-86150368D01*
X116150368Y-85944083D01*
X116312445Y-85701517D01*
X116424086Y-85431992D01*
X116481000Y-85145866D01*
X116481000Y-84854134D01*
X116424086Y-84568008D01*
X116312445Y-84298483D01*
X116150368Y-84055917D01*
X115944083Y-83849632D01*
X115701517Y-83687555D01*
X115431992Y-83575914D01*
X115145866Y-83519000D01*
X114854134Y-83519000D01*
X114568008Y-83575914D01*
X114298483Y-83687555D01*
X114055917Y-83849632D01*
X113849632Y-84055917D01*
X113687555Y-84298483D01*
X113575914Y-84568008D01*
X113519000Y-84854134D01*
X96481000Y-84854134D01*
X96424086Y-84568008D01*
X96312445Y-84298483D01*
X96150368Y-84055917D01*
X95944083Y-83849632D01*
X95701517Y-83687555D01*
X95431992Y-83575914D01*
X95145866Y-83519000D01*
X94854134Y-83519000D01*
X94568008Y-83575914D01*
X94298483Y-83687555D01*
X94055917Y-83849632D01*
X93849632Y-84055917D01*
X93687555Y-84298483D01*
X93575914Y-84568008D01*
X93519000Y-84854134D01*
X80431000Y-84854134D01*
X80431000Y-83023078D01*
X86419000Y-83023078D01*
X86419000Y-83176922D01*
X86449013Y-83327809D01*
X86507887Y-83469942D01*
X86593358Y-83597859D01*
X86702141Y-83706642D01*
X86830058Y-83792113D01*
X86972191Y-83850987D01*
X87123078Y-83881000D01*
X87276922Y-83881000D01*
X87427809Y-83850987D01*
X87569942Y-83792113D01*
X87697859Y-83706642D01*
X87806642Y-83597859D01*
X87892113Y-83469942D01*
X87950987Y-83327809D01*
X87971819Y-83223078D01*
X106219000Y-83223078D01*
X106219000Y-83376922D01*
X106249013Y-83527809D01*
X106307887Y-83669942D01*
X106393358Y-83797859D01*
X106502141Y-83906642D01*
X106630058Y-83992113D01*
X106772191Y-84050987D01*
X106923078Y-84081000D01*
X107076922Y-84081000D01*
X107227809Y-84050987D01*
X107369942Y-83992113D01*
X107497859Y-83906642D01*
X107606642Y-83797859D01*
X107692113Y-83669942D01*
X107750987Y-83527809D01*
X107781000Y-83376922D01*
X107781000Y-83223078D01*
X107750987Y-83072191D01*
X107692113Y-82930058D01*
X107606642Y-82802141D01*
X107497859Y-82693358D01*
X107369942Y-82607887D01*
X107227809Y-82549013D01*
X107076922Y-82519000D01*
X106923078Y-82519000D01*
X106772191Y-82549013D01*
X106630058Y-82607887D01*
X106502141Y-82693358D01*
X106393358Y-82802141D01*
X106307887Y-82930058D01*
X106249013Y-83072191D01*
X106219000Y-83223078D01*
X87971819Y-83223078D01*
X87981000Y-83176922D01*
X87981000Y-83023078D01*
X87950987Y-82872191D01*
X87892113Y-82730058D01*
X87806642Y-82602141D01*
X87697859Y-82493358D01*
X87569942Y-82407887D01*
X87427809Y-82349013D01*
X87276922Y-82319000D01*
X87123078Y-82319000D01*
X86972191Y-82349013D01*
X86830058Y-82407887D01*
X86702141Y-82493358D01*
X86593358Y-82602141D01*
X86507887Y-82730058D01*
X86449013Y-82872191D01*
X86419000Y-83023078D01*
X80431000Y-83023078D01*
X80431000Y-80860578D01*
X97181500Y-80860578D01*
X97181500Y-81014422D01*
X97211513Y-81165309D01*
X97270387Y-81307442D01*
X97355858Y-81435359D01*
X97464641Y-81544142D01*
X97592558Y-81629613D01*
X97734691Y-81688487D01*
X97885578Y-81718500D01*
X98039422Y-81718500D01*
X98190309Y-81688487D01*
X98332442Y-81629613D01*
X98460359Y-81544142D01*
X98569142Y-81435359D01*
X98654613Y-81307442D01*
X98713487Y-81165309D01*
X98743500Y-81014422D01*
X98743500Y-80860578D01*
X98713487Y-80709691D01*
X98654613Y-80567558D01*
X98569142Y-80439641D01*
X98460359Y-80330858D01*
X98332442Y-80245387D01*
X98190309Y-80186513D01*
X98039422Y-80156500D01*
X97885578Y-80156500D01*
X97734691Y-80186513D01*
X97592558Y-80245387D01*
X97464641Y-80330858D01*
X97355858Y-80439641D01*
X97270387Y-80567558D01*
X97211513Y-80709691D01*
X97181500Y-80860578D01*
X80431000Y-80860578D01*
X80431000Y-78635578D01*
X93706500Y-78635578D01*
X93706500Y-78789422D01*
X93736513Y-78940309D01*
X93795387Y-79082442D01*
X93880858Y-79210359D01*
X93989641Y-79319142D01*
X94117558Y-79404613D01*
X94259691Y-79463487D01*
X94410578Y-79493500D01*
X94564422Y-79493500D01*
X94715309Y-79463487D01*
X94857442Y-79404613D01*
X94985359Y-79319142D01*
X95094142Y-79210359D01*
X95179613Y-79082442D01*
X95238487Y-78940309D01*
X95268500Y-78789422D01*
X95268500Y-78635578D01*
X95238487Y-78484691D01*
X95179613Y-78342558D01*
X95094142Y-78214641D01*
X94985359Y-78105858D01*
X94857442Y-78020387D01*
X94715309Y-77961513D01*
X94564422Y-77931500D01*
X94410578Y-77931500D01*
X94259691Y-77961513D01*
X94117558Y-78020387D01*
X93989641Y-78105858D01*
X93880858Y-78214641D01*
X93795387Y-78342558D01*
X93736513Y-78484691D01*
X93706500Y-78635578D01*
X80431000Y-78635578D01*
X80431000Y-77019198D01*
X80504897Y-76191199D01*
X80719165Y-75407970D01*
X81027713Y-74761086D01*
X81019000Y-74804889D01*
X81019000Y-75195111D01*
X81095129Y-75577836D01*
X81244461Y-75938355D01*
X81461257Y-76262814D01*
X81737186Y-76538743D01*
X82061645Y-76755539D01*
X82422164Y-76904871D01*
X82804889Y-76981000D01*
X83195111Y-76981000D01*
X83577836Y-76904871D01*
X83938355Y-76755539D01*
X84262814Y-76538743D01*
X84538743Y-76262814D01*
X84632111Y-76123078D01*
X89719000Y-76123078D01*
X89719000Y-76276922D01*
X89749013Y-76427809D01*
X89807887Y-76569942D01*
X89893358Y-76697859D01*
X90002141Y-76806642D01*
X90130058Y-76892113D01*
X90272191Y-76950987D01*
X90423078Y-76981000D01*
X90576922Y-76981000D01*
X90727809Y-76950987D01*
X90869942Y-76892113D01*
X90997859Y-76806642D01*
X91081423Y-76723078D01*
X94919000Y-76723078D01*
X94919000Y-76876922D01*
X94949013Y-77027809D01*
X95007887Y-77169942D01*
X95093358Y-77297859D01*
X95202141Y-77406642D01*
X95330058Y-77492113D01*
X95472191Y-77550987D01*
X95623078Y-77581000D01*
X95776922Y-77581000D01*
X95927809Y-77550987D01*
X96069942Y-77492113D01*
X96197859Y-77406642D01*
X96306642Y-77297859D01*
X96392113Y-77169942D01*
X96411524Y-77123078D01*
X97619000Y-77123078D01*
X97619000Y-77276922D01*
X97649013Y-77427809D01*
X97707887Y-77569942D01*
X97793358Y-77697859D01*
X97902141Y-77806642D01*
X98030058Y-77892113D01*
X98172191Y-77950987D01*
X98323078Y-77981000D01*
X98476922Y-77981000D01*
X98627809Y-77950987D01*
X98769942Y-77892113D01*
X98897859Y-77806642D01*
X99006642Y-77697859D01*
X99016524Y-77683070D01*
X99030058Y-77692113D01*
X99172191Y-77750987D01*
X99323078Y-77781000D01*
X99476922Y-77781000D01*
X99627809Y-77750987D01*
X99769942Y-77692113D01*
X99897859Y-77606642D01*
X100006642Y-77497859D01*
X100092113Y-77369942D01*
X100150987Y-77227809D01*
X100181000Y-77076922D01*
X100181000Y-76923078D01*
X100150987Y-76772191D01*
X100092113Y-76630058D01*
X100006642Y-76502141D01*
X99897859Y-76393358D01*
X99769942Y-76307887D01*
X99627809Y-76249013D01*
X99476922Y-76219000D01*
X99323078Y-76219000D01*
X99172191Y-76249013D01*
X99030058Y-76307887D01*
X98902141Y-76393358D01*
X98793358Y-76502141D01*
X98783476Y-76516930D01*
X98769942Y-76507887D01*
X98627809Y-76449013D01*
X98476922Y-76419000D01*
X98323078Y-76419000D01*
X98172191Y-76449013D01*
X98030058Y-76507887D01*
X97902141Y-76593358D01*
X97793358Y-76702141D01*
X97707887Y-76830058D01*
X97649013Y-76972191D01*
X97619000Y-77123078D01*
X96411524Y-77123078D01*
X96450987Y-77027809D01*
X96481000Y-76876922D01*
X96481000Y-76723078D01*
X96450987Y-76572191D01*
X96392113Y-76430058D01*
X96306642Y-76302141D01*
X96197859Y-76193358D01*
X96092678Y-76123078D01*
X103219000Y-76123078D01*
X103219000Y-76276922D01*
X103249013Y-76427809D01*
X103307887Y-76569942D01*
X103393358Y-76697859D01*
X103502141Y-76806642D01*
X103567031Y-76850000D01*
X103502141Y-76893358D01*
X103393358Y-77002141D01*
X103307887Y-77130058D01*
X103249013Y-77272191D01*
X103219000Y-77423078D01*
X103219000Y-77576922D01*
X103249013Y-77727809D01*
X103307887Y-77869942D01*
X103393358Y-77997859D01*
X103502141Y-78106642D01*
X103630058Y-78192113D01*
X103772191Y-78250987D01*
X103836530Y-78263785D01*
X103730058Y-78307887D01*
X103602141Y-78393358D01*
X103493358Y-78502141D01*
X103407887Y-78630058D01*
X103349013Y-78772191D01*
X103319000Y-78923078D01*
X103319000Y-79076922D01*
X103349013Y-79227809D01*
X103407887Y-79369942D01*
X103493358Y-79497859D01*
X103602141Y-79606642D01*
X103730058Y-79692113D01*
X103872191Y-79750987D01*
X104023078Y-79781000D01*
X104176922Y-79781000D01*
X104327809Y-79750987D01*
X104469942Y-79692113D01*
X104597859Y-79606642D01*
X104706642Y-79497859D01*
X104756608Y-79423078D01*
X110019000Y-79423078D01*
X110019000Y-79576922D01*
X110049013Y-79727809D01*
X110107887Y-79869942D01*
X110193358Y-79997859D01*
X110302141Y-80106642D01*
X110430058Y-80192113D01*
X110572191Y-80250987D01*
X110723078Y-80281000D01*
X110876922Y-80281000D01*
X111027809Y-80250987D01*
X111169942Y-80192113D01*
X111297859Y-80106642D01*
X111406642Y-79997859D01*
X111492113Y-79869942D01*
X111500000Y-79850901D01*
X111507887Y-79869942D01*
X111593358Y-79997859D01*
X111702141Y-80106642D01*
X111830058Y-80192113D01*
X111972191Y-80250987D01*
X112123078Y-80281000D01*
X112276922Y-80281000D01*
X112427809Y-80250987D01*
X112569942Y-80192113D01*
X112697859Y-80106642D01*
X112806642Y-79997859D01*
X112892113Y-79869942D01*
X112950987Y-79727809D01*
X112981000Y-79576922D01*
X112981000Y-79423078D01*
X112950987Y-79272191D01*
X112892113Y-79130058D01*
X112806642Y-79002141D01*
X112697859Y-78893358D01*
X112569942Y-78807887D01*
X112427809Y-78749013D01*
X112276922Y-78719000D01*
X112123078Y-78719000D01*
X111972191Y-78749013D01*
X111830058Y-78807887D01*
X111702141Y-78893358D01*
X111593358Y-79002141D01*
X111507887Y-79130058D01*
X111500000Y-79149099D01*
X111492113Y-79130058D01*
X111406642Y-79002141D01*
X111297859Y-78893358D01*
X111169942Y-78807887D01*
X111027809Y-78749013D01*
X110876922Y-78719000D01*
X110723078Y-78719000D01*
X110572191Y-78749013D01*
X110430058Y-78807887D01*
X110302141Y-78893358D01*
X110193358Y-79002141D01*
X110107887Y-79130058D01*
X110049013Y-79272191D01*
X110019000Y-79423078D01*
X104756608Y-79423078D01*
X104792113Y-79369942D01*
X104850987Y-79227809D01*
X104881000Y-79076922D01*
X104881000Y-78923078D01*
X104850987Y-78772191D01*
X104792113Y-78630058D01*
X104706642Y-78502141D01*
X104597859Y-78393358D01*
X104469942Y-78307887D01*
X104327809Y-78249013D01*
X104263470Y-78236215D01*
X104369942Y-78192113D01*
X104497859Y-78106642D01*
X104606642Y-77997859D01*
X104692113Y-77869942D01*
X104750987Y-77727809D01*
X104781000Y-77576922D01*
X104781000Y-77423078D01*
X104750987Y-77272191D01*
X104692113Y-77130058D01*
X104606642Y-77002141D01*
X104497859Y-76893358D01*
X104432969Y-76850000D01*
X104497859Y-76806642D01*
X104606642Y-76697859D01*
X104692113Y-76569942D01*
X104750987Y-76427809D01*
X104781000Y-76276922D01*
X104781000Y-76123078D01*
X104750987Y-75972191D01*
X104692113Y-75830058D01*
X104606642Y-75702141D01*
X104497859Y-75593358D01*
X104369942Y-75507887D01*
X104227809Y-75449013D01*
X104076922Y-75419000D01*
X103923078Y-75419000D01*
X103772191Y-75449013D01*
X103630058Y-75507887D01*
X103502141Y-75593358D01*
X103393358Y-75702141D01*
X103307887Y-75830058D01*
X103249013Y-75972191D01*
X103219000Y-76123078D01*
X96092678Y-76123078D01*
X96069942Y-76107887D01*
X95927809Y-76049013D01*
X95776922Y-76019000D01*
X95623078Y-76019000D01*
X95472191Y-76049013D01*
X95330058Y-76107887D01*
X95202141Y-76193358D01*
X95093358Y-76302141D01*
X95007887Y-76430058D01*
X94949013Y-76572191D01*
X94919000Y-76723078D01*
X91081423Y-76723078D01*
X91106642Y-76697859D01*
X91192113Y-76569942D01*
X91250987Y-76427809D01*
X91281000Y-76276922D01*
X91281000Y-76123078D01*
X91250987Y-75972191D01*
X91192113Y-75830058D01*
X91106642Y-75702141D01*
X90997859Y-75593358D01*
X90869942Y-75507887D01*
X90727809Y-75449013D01*
X90576922Y-75419000D01*
X90423078Y-75419000D01*
X90272191Y-75449013D01*
X90130058Y-75507887D01*
X90002141Y-75593358D01*
X89893358Y-75702141D01*
X89807887Y-75830058D01*
X89749013Y-75972191D01*
X89719000Y-76123078D01*
X84632111Y-76123078D01*
X84755539Y-75938355D01*
X84904871Y-75577836D01*
X84981000Y-75195111D01*
X84981000Y-74804889D01*
X84904871Y-74422164D01*
X84822407Y-74223078D01*
X93819000Y-74223078D01*
X93819000Y-74376922D01*
X93849013Y-74527809D01*
X93907887Y-74669942D01*
X93993358Y-74797859D01*
X94102141Y-74906642D01*
X94230058Y-74992113D01*
X94372191Y-75050987D01*
X94523078Y-75081000D01*
X94676922Y-75081000D01*
X94827809Y-75050987D01*
X94969942Y-74992113D01*
X95097859Y-74906642D01*
X95206642Y-74797859D01*
X95292113Y-74669942D01*
X95350987Y-74527809D01*
X95381000Y-74376922D01*
X95381000Y-74223078D01*
X95350987Y-74072191D01*
X95292113Y-73930058D01*
X95206642Y-73802141D01*
X95097859Y-73693358D01*
X94969942Y-73607887D01*
X94827809Y-73549013D01*
X94676922Y-73519000D01*
X94523078Y-73519000D01*
X94372191Y-73549013D01*
X94230058Y-73607887D01*
X94102141Y-73693358D01*
X93993358Y-73802141D01*
X93907887Y-73930058D01*
X93849013Y-74072191D01*
X93819000Y-74223078D01*
X84822407Y-74223078D01*
X84755539Y-74061645D01*
X84538743Y-73737186D01*
X84262814Y-73461257D01*
X83938355Y-73244461D01*
X83577836Y-73095129D01*
X83195111Y-73019000D01*
X82804889Y-73019000D01*
X82752389Y-73029443D01*
X82799693Y-72997656D01*
X83543224Y-72671269D01*
X84336107Y-72480914D01*
X85015811Y-72431000D01*
X114980802Y-72431000D01*
X115808801Y-72504897D01*
G37*
X115808801Y-72504897D02*
X116592030Y-72719165D01*
X117238914Y-73027713D01*
X117195111Y-73019000D01*
X116804889Y-73019000D01*
X116422164Y-73095129D01*
X116061645Y-73244461D01*
X115737186Y-73461257D01*
X115461257Y-73737186D01*
X115244461Y-74061645D01*
X115095129Y-74422164D01*
X115019000Y-74804889D01*
X115019000Y-75195111D01*
X115095129Y-75577836D01*
X115244461Y-75938355D01*
X115461257Y-76262814D01*
X115737186Y-76538743D01*
X116061645Y-76755539D01*
X116422164Y-76904871D01*
X116804889Y-76981000D01*
X117195111Y-76981000D01*
X117577836Y-76904871D01*
X117938355Y-76755539D01*
X118262814Y-76538743D01*
X118538743Y-76262814D01*
X118755539Y-75938355D01*
X118904871Y-75577836D01*
X118981000Y-75195111D01*
X118981000Y-74804889D01*
X118970557Y-74752389D01*
X119002344Y-74799693D01*
X119328731Y-75543224D01*
X119519086Y-76336107D01*
X119569001Y-77015824D01*
X119569000Y-109980802D01*
X119495103Y-110808800D01*
X119280836Y-111592029D01*
X118972287Y-112238916D01*
X118981000Y-112195111D01*
X118981000Y-111804889D01*
X118904871Y-111422164D01*
X118755539Y-111061645D01*
X118538743Y-110737186D01*
X118262814Y-110461257D01*
X117938355Y-110244461D01*
X117577836Y-110095129D01*
X117195111Y-110019000D01*
X116804889Y-110019000D01*
X116422164Y-110095129D01*
X116061645Y-110244461D01*
X115737186Y-110461257D01*
X115461257Y-110737186D01*
X115244461Y-111061645D01*
X115095129Y-111422164D01*
X115019000Y-111804889D01*
X115019000Y-112195111D01*
X115095129Y-112577836D01*
X115244461Y-112938355D01*
X115461257Y-113262814D01*
X115737186Y-113538743D01*
X116061645Y-113755539D01*
X116422164Y-113904871D01*
X116804889Y-113981000D01*
X117195111Y-113981000D01*
X117247611Y-113970557D01*
X117200307Y-114002344D01*
X116456779Y-114328731D01*
X115663893Y-114519086D01*
X114984190Y-114569000D01*
X95635501Y-114569000D01*
X95706642Y-114497859D01*
X95792113Y-114369942D01*
X95850987Y-114227809D01*
X95881000Y-114076922D01*
X95881000Y-113923078D01*
X95850987Y-113772191D01*
X95792113Y-113630058D01*
X95706642Y-113502141D01*
X95597859Y-113393358D01*
X95469942Y-113307887D01*
X95327809Y-113249013D01*
X95176922Y-113219000D01*
X95023078Y-113219000D01*
X94872191Y-113249013D01*
X94730058Y-113307887D01*
X94602141Y-113393358D01*
X94600000Y-113395499D01*
X94597859Y-113393358D01*
X94469942Y-113307887D01*
X94327809Y-113249013D01*
X94176922Y-113219000D01*
X94023078Y-113219000D01*
X93872191Y-113249013D01*
X93730058Y-113307887D01*
X93602141Y-113393358D01*
X93600000Y-113395499D01*
X93597859Y-113393358D01*
X93469942Y-113307887D01*
X93327809Y-113249013D01*
X93176922Y-113219000D01*
X93023078Y-113219000D01*
X92872191Y-113249013D01*
X92730058Y-113307887D01*
X92602141Y-113393358D01*
X92493358Y-113502141D01*
X92407887Y-113630058D01*
X92349013Y-113772191D01*
X92319000Y-113923078D01*
X92319000Y-114076922D01*
X92349013Y-114227809D01*
X92407887Y-114369942D01*
X92493358Y-114497859D01*
X92564499Y-114569000D01*
X85019198Y-114569000D01*
X84191200Y-114495103D01*
X83407971Y-114280836D01*
X82761084Y-113972287D01*
X82804889Y-113981000D01*
X83195111Y-113981000D01*
X83577836Y-113904871D01*
X83938355Y-113755539D01*
X84262814Y-113538743D01*
X84538743Y-113262814D01*
X84755539Y-112938355D01*
X84904871Y-112577836D01*
X84907523Y-112564500D01*
X103565000Y-112564500D01*
X103565000Y-112914500D01*
X103613507Y-113152996D01*
X103707610Y-113377446D01*
X103843693Y-113579225D01*
X104016526Y-113750578D01*
X104219467Y-113884921D01*
X104444718Y-113977091D01*
X104482391Y-113980962D01*
X104673000Y-113856231D01*
X104673000Y-112564500D01*
X104927000Y-112564500D01*
X104927000Y-113856231D01*
X105117609Y-113980962D01*
X105155282Y-113977091D01*
X105380533Y-113884921D01*
X105583474Y-113750578D01*
X105756307Y-113579225D01*
X105892390Y-113377446D01*
X105986493Y-113152996D01*
X106035000Y-112914500D01*
X106035000Y-112564500D01*
X110565000Y-112564500D01*
X110565000Y-112914500D01*
X110613507Y-113152996D01*
X110707610Y-113377446D01*
X110843693Y-113579225D01*
X111016526Y-113750578D01*
X111219467Y-113884921D01*
X111444718Y-113977091D01*
X111482391Y-113980962D01*
X111673000Y-113856231D01*
X111673000Y-112564500D01*
X111927000Y-112564500D01*
X111927000Y-113856231D01*
X112117609Y-113980962D01*
X112155282Y-113977091D01*
X112380533Y-113884921D01*
X112583474Y-113750578D01*
X112756307Y-113579225D01*
X112892390Y-113377446D01*
X112986493Y-113152996D01*
X113035000Y-112914500D01*
X113035000Y-112564500D01*
X111927000Y-112564500D01*
X111673000Y-112564500D01*
X110565000Y-112564500D01*
X106035000Y-112564500D01*
X104927000Y-112564500D01*
X104673000Y-112564500D01*
X103565000Y-112564500D01*
X84907523Y-112564500D01*
X84981000Y-112195111D01*
X84981000Y-111804889D01*
X84904871Y-111422164D01*
X84755539Y-111061645D01*
X84729770Y-111023078D01*
X92219000Y-111023078D01*
X92219000Y-111176922D01*
X92249013Y-111327809D01*
X92307887Y-111469942D01*
X92393358Y-111597859D01*
X92502141Y-111706642D01*
X92630058Y-111792113D01*
X92772191Y-111850987D01*
X92923078Y-111881000D01*
X93076922Y-111881000D01*
X93227809Y-111850987D01*
X93369942Y-111792113D01*
X93497859Y-111706642D01*
X93606642Y-111597859D01*
X93692113Y-111469942D01*
X93750987Y-111327809D01*
X93781000Y-111176922D01*
X93781000Y-111023078D01*
X93750987Y-110872191D01*
X93730644Y-110823078D01*
X103119000Y-110823078D01*
X103119000Y-110976922D01*
X103149013Y-111127809D01*
X103207887Y-111269942D01*
X103293358Y-111397859D01*
X103402141Y-111506642D01*
X103530058Y-111592113D01*
X103647559Y-111640784D01*
X103613507Y-111722004D01*
X103565000Y-111960500D01*
X103565000Y-112310500D01*
X104673000Y-112310500D01*
X104673000Y-111018769D01*
X104927000Y-111018769D01*
X104927000Y-112310500D01*
X106035000Y-112310500D01*
X106035000Y-111960500D01*
X105986493Y-111722004D01*
X105892390Y-111497554D01*
X105756307Y-111295775D01*
X105583474Y-111124422D01*
X105488164Y-111061329D01*
X105605849Y-111090219D01*
X105873482Y-111102104D01*
X106138291Y-111061548D01*
X106390100Y-110970109D01*
X106497035Y-110912950D01*
X106559528Y-110676633D01*
X110040472Y-110676633D01*
X110102965Y-110912950D01*
X110345678Y-111026350D01*
X110605849Y-111090219D01*
X110873482Y-111102104D01*
X111103442Y-111066885D01*
X111016526Y-111124422D01*
X110843693Y-111295775D01*
X110707610Y-111497554D01*
X110613507Y-111722004D01*
X110565000Y-111960500D01*
X110565000Y-112310500D01*
X111673000Y-112310500D01*
X111673000Y-111018769D01*
X111927000Y-111018769D01*
X111927000Y-112310500D01*
X113035000Y-112310500D01*
X113035000Y-111960500D01*
X112986493Y-111722004D01*
X112892390Y-111497554D01*
X112756307Y-111295775D01*
X112583474Y-111124422D01*
X112380533Y-110990079D01*
X112155282Y-110897909D01*
X112117609Y-110894038D01*
X111927000Y-111018769D01*
X111673000Y-111018769D01*
X111499138Y-110904997D01*
X111559528Y-110676633D01*
X110800000Y-109917105D01*
X110040472Y-110676633D01*
X106559528Y-110676633D01*
X105800000Y-109917105D01*
X105040472Y-110676633D01*
X105100862Y-110904997D01*
X104927000Y-111018769D01*
X104673000Y-111018769D01*
X104672713Y-111018582D01*
X104681000Y-110976922D01*
X104681000Y-110823078D01*
X104650987Y-110672191D01*
X104592113Y-110530058D01*
X104506642Y-110402141D01*
X104397859Y-110293358D01*
X104269942Y-110207887D01*
X104127809Y-110149013D01*
X103976922Y-110119000D01*
X103823078Y-110119000D01*
X103672191Y-110149013D01*
X103530058Y-110207887D01*
X103402141Y-110293358D01*
X103293358Y-110402141D01*
X103207887Y-110530058D01*
X103149013Y-110672191D01*
X103119000Y-110823078D01*
X93730644Y-110823078D01*
X93692113Y-110730058D01*
X93606642Y-110602141D01*
X93497859Y-110493358D01*
X93369942Y-110407887D01*
X93227809Y-110349013D01*
X93076922Y-110319000D01*
X92923078Y-110319000D01*
X92772191Y-110349013D01*
X92630058Y-110407887D01*
X92502141Y-110493358D01*
X92393358Y-110602141D01*
X92307887Y-110730058D01*
X92249013Y-110872191D01*
X92219000Y-111023078D01*
X84729770Y-111023078D01*
X84538743Y-110737186D01*
X84262814Y-110461257D01*
X83938355Y-110244461D01*
X83577836Y-110095129D01*
X83195111Y-110019000D01*
X82804889Y-110019000D01*
X82422164Y-110095129D01*
X82061645Y-110244461D01*
X81737186Y-110461257D01*
X81461257Y-110737186D01*
X81244461Y-111061645D01*
X81095129Y-111422164D01*
X81019000Y-111804889D01*
X81019000Y-112195111D01*
X81029443Y-112247611D01*
X80997656Y-112200307D01*
X80671269Y-111456779D01*
X80480914Y-110663893D01*
X80431000Y-109984190D01*
X80431000Y-107723078D01*
X86019000Y-107723078D01*
X86019000Y-107876922D01*
X86049013Y-108027809D01*
X86107887Y-108169942D01*
X86193358Y-108297859D01*
X86302141Y-108406642D01*
X86430058Y-108492113D01*
X86552619Y-108542880D01*
X86493358Y-108602141D01*
X86407887Y-108730058D01*
X86349013Y-108872191D01*
X86319000Y-109023078D01*
X86319000Y-109176922D01*
X86349013Y-109327809D01*
X86407887Y-109469942D01*
X86493358Y-109597859D01*
X86495499Y-109600000D01*
X86493358Y-109602141D01*
X86407887Y-109730058D01*
X86349013Y-109872191D01*
X86319000Y-110023078D01*
X86319000Y-110176922D01*
X86349013Y-110327809D01*
X86407887Y-110469942D01*
X86493358Y-110597859D01*
X86602141Y-110706642D01*
X86730058Y-110792113D01*
X86872191Y-110850987D01*
X87023078Y-110881000D01*
X87176922Y-110881000D01*
X87327809Y-110850987D01*
X87469942Y-110792113D01*
X87597859Y-110706642D01*
X87706642Y-110597859D01*
X87792113Y-110469942D01*
X87800000Y-110450901D01*
X87807887Y-110469942D01*
X87893358Y-110597859D01*
X88002141Y-110706642D01*
X88130058Y-110792113D01*
X88272191Y-110850987D01*
X88423078Y-110881000D01*
X88576922Y-110881000D01*
X88727809Y-110850987D01*
X88869942Y-110792113D01*
X88997859Y-110706642D01*
X89106642Y-110597859D01*
X89192113Y-110469942D01*
X89250987Y-110327809D01*
X89281000Y-110176922D01*
X89281000Y-110023078D01*
X89250987Y-109872191D01*
X89225634Y-109810982D01*
X104435396Y-109810982D01*
X104475952Y-110075791D01*
X104567391Y-110327600D01*
X104624550Y-110434535D01*
X104860867Y-110497028D01*
X105620395Y-109737500D01*
X105979605Y-109737500D01*
X106739133Y-110497028D01*
X106975450Y-110434535D01*
X107088850Y-110191822D01*
X107152719Y-109931651D01*
X107158077Y-109810982D01*
X109435396Y-109810982D01*
X109475952Y-110075791D01*
X109567391Y-110327600D01*
X109624550Y-110434535D01*
X109860867Y-110497028D01*
X110620395Y-109737500D01*
X110979605Y-109737500D01*
X111739133Y-110497028D01*
X111975450Y-110434535D01*
X112088850Y-110191822D01*
X112152719Y-109931651D01*
X112164604Y-109664018D01*
X112124048Y-109399209D01*
X112032609Y-109147400D01*
X111975450Y-109040465D01*
X111739133Y-108977972D01*
X110979605Y-109737500D01*
X110620395Y-109737500D01*
X109860867Y-108977972D01*
X109624550Y-109040465D01*
X109511150Y-109283178D01*
X109447281Y-109543349D01*
X109435396Y-109810982D01*
X107158077Y-109810982D01*
X107164604Y-109664018D01*
X107124048Y-109399209D01*
X107032609Y-109147400D01*
X106975450Y-109040465D01*
X106739133Y-108977972D01*
X105979605Y-109737500D01*
X105620395Y-109737500D01*
X104860867Y-108977972D01*
X104624550Y-109040465D01*
X104511150Y-109283178D01*
X104447281Y-109543349D01*
X104435396Y-109810982D01*
X89225634Y-109810982D01*
X89192113Y-109730058D01*
X89106642Y-109602141D01*
X88997859Y-109493358D01*
X88869942Y-109407887D01*
X88727809Y-109349013D01*
X88576922Y-109319000D01*
X88423078Y-109319000D01*
X88272191Y-109349013D01*
X88130058Y-109407887D01*
X88002141Y-109493358D01*
X87893358Y-109602141D01*
X87807887Y-109730058D01*
X87800000Y-109749099D01*
X87792113Y-109730058D01*
X87706642Y-109602141D01*
X87704501Y-109600000D01*
X87706642Y-109597859D01*
X87792113Y-109469942D01*
X87850987Y-109327809D01*
X87881000Y-109176922D01*
X87881000Y-109023078D01*
X87850987Y-108872191D01*
X87792113Y-108730058D01*
X87706642Y-108602141D01*
X87597859Y-108493358D01*
X87469942Y-108407887D01*
X87347381Y-108357120D01*
X87406642Y-108297859D01*
X87450000Y-108232969D01*
X87493358Y-108297859D01*
X87602141Y-108406642D01*
X87730058Y-108492113D01*
X87872191Y-108550987D01*
X88023078Y-108581000D01*
X88176922Y-108581000D01*
X88327809Y-108550987D01*
X88469942Y-108492113D01*
X88597859Y-108406642D01*
X88706642Y-108297859D01*
X88792113Y-108169942D01*
X88850987Y-108027809D01*
X88881000Y-107876922D01*
X88881000Y-107723078D01*
X88850987Y-107572191D01*
X88792113Y-107430058D01*
X88706642Y-107302141D01*
X88597859Y-107193358D01*
X88469942Y-107107887D01*
X88327809Y-107049013D01*
X88176922Y-107019000D01*
X88023078Y-107019000D01*
X87872191Y-107049013D01*
X87730058Y-107107887D01*
X87602141Y-107193358D01*
X87493358Y-107302141D01*
X87450000Y-107367031D01*
X87406642Y-107302141D01*
X87297859Y-107193358D01*
X87169942Y-107107887D01*
X87027809Y-107049013D01*
X86876922Y-107019000D01*
X86723078Y-107019000D01*
X86572191Y-107049013D01*
X86430058Y-107107887D01*
X86302141Y-107193358D01*
X86193358Y-107302141D01*
X86107887Y-107430058D01*
X86049013Y-107572191D01*
X86019000Y-107723078D01*
X80431000Y-107723078D01*
X80431000Y-105923078D01*
X91919000Y-105923078D01*
X91919000Y-106076922D01*
X91949013Y-106227809D01*
X92007887Y-106369942D01*
X92093358Y-106497859D01*
X92095499Y-106500000D01*
X92093358Y-106502141D01*
X92007887Y-106630058D01*
X91949013Y-106772191D01*
X91919000Y-106923078D01*
X91919000Y-107076922D01*
X91949013Y-107227809D01*
X92007887Y-107369942D01*
X92093358Y-107497859D01*
X92095499Y-107500000D01*
X92093358Y-107502141D01*
X92007887Y-107630058D01*
X91949013Y-107772191D01*
X91919000Y-107923078D01*
X91919000Y-108076922D01*
X91949013Y-108227809D01*
X92007887Y-108369942D01*
X92093358Y-108497859D01*
X92202141Y-108606642D01*
X92330058Y-108692113D01*
X92472191Y-108750987D01*
X92623078Y-108781000D01*
X92776922Y-108781000D01*
X92927809Y-108750987D01*
X93069942Y-108692113D01*
X93197859Y-108606642D01*
X93306642Y-108497859D01*
X93392113Y-108369942D01*
X93450987Y-108227809D01*
X93451928Y-108223078D01*
X95419000Y-108223078D01*
X95419000Y-108376922D01*
X95449013Y-108527809D01*
X95507887Y-108669942D01*
X95593358Y-108797859D01*
X95702141Y-108906642D01*
X95830058Y-108992113D01*
X95972191Y-109050987D01*
X96123078Y-109081000D01*
X96276922Y-109081000D01*
X96427809Y-109050987D01*
X96569942Y-108992113D01*
X96697859Y-108906642D01*
X96759520Y-108844981D01*
X96830058Y-108892113D01*
X96972191Y-108950987D01*
X97123078Y-108981000D01*
X97276922Y-108981000D01*
X97427809Y-108950987D01*
X97569942Y-108892113D01*
X97697859Y-108806642D01*
X97706134Y-108798367D01*
X105040472Y-108798367D01*
X105800000Y-109557895D01*
X106559528Y-108798367D01*
X110040472Y-108798367D01*
X110800000Y-109557895D01*
X111559528Y-108798367D01*
X111497035Y-108562050D01*
X111254322Y-108448650D01*
X110994151Y-108384781D01*
X110726518Y-108372896D01*
X110461709Y-108413452D01*
X110209900Y-108504891D01*
X110102965Y-108562050D01*
X110040472Y-108798367D01*
X106559528Y-108798367D01*
X106497035Y-108562050D01*
X106254322Y-108448650D01*
X105994151Y-108384781D01*
X105726518Y-108372896D01*
X105461709Y-108413452D01*
X105209900Y-108504891D01*
X105102965Y-108562050D01*
X105040472Y-108798367D01*
X97706134Y-108798367D01*
X97806642Y-108697859D01*
X97892113Y-108569942D01*
X97950987Y-108427809D01*
X97981000Y-108276922D01*
X97981000Y-108123078D01*
X97950987Y-107972191D01*
X97892113Y-107830058D01*
X97844981Y-107759520D01*
X97906642Y-107697859D01*
X97992113Y-107569942D01*
X98050987Y-107427809D01*
X98081000Y-107276922D01*
X98081000Y-107123078D01*
X98050987Y-106972191D01*
X97992113Y-106830058D01*
X97987450Y-106823078D01*
X105519000Y-106823078D01*
X105519000Y-106976922D01*
X105549013Y-107127809D01*
X105607887Y-107269942D01*
X105693358Y-107397859D01*
X105802141Y-107506642D01*
X105930058Y-107592113D01*
X106072191Y-107650987D01*
X106223078Y-107681000D01*
X106376922Y-107681000D01*
X106527809Y-107650987D01*
X106669942Y-107592113D01*
X106797859Y-107506642D01*
X106906642Y-107397859D01*
X106992113Y-107269942D01*
X107050987Y-107127809D01*
X107081000Y-106976922D01*
X107081000Y-106823078D01*
X107050987Y-106672191D01*
X106992113Y-106530058D01*
X106906642Y-106402141D01*
X106797859Y-106293358D01*
X106669942Y-106207887D01*
X106527809Y-106149013D01*
X106376922Y-106119000D01*
X106223078Y-106119000D01*
X106072191Y-106149013D01*
X105930058Y-106207887D01*
X105802141Y-106293358D01*
X105693358Y-106402141D01*
X105607887Y-106530058D01*
X105549013Y-106672191D01*
X105519000Y-106823078D01*
X97987450Y-106823078D01*
X97906642Y-106702141D01*
X97904501Y-106700000D01*
X97906642Y-106697859D01*
X97992113Y-106569942D01*
X98050987Y-106427809D01*
X98081000Y-106276922D01*
X98081000Y-106123078D01*
X98050987Y-105972191D01*
X97992113Y-105830058D01*
X97906642Y-105702141D01*
X97904501Y-105700000D01*
X97906642Y-105697859D01*
X97992113Y-105569942D01*
X98050987Y-105427809D01*
X98081000Y-105276922D01*
X98081000Y-105123078D01*
X98050987Y-104972191D01*
X97992113Y-104830058D01*
X97906642Y-104702141D01*
X97797859Y-104593358D01*
X97669942Y-104507887D01*
X97530192Y-104450000D01*
X97669942Y-104392113D01*
X97797859Y-104306642D01*
X97906642Y-104197859D01*
X97992113Y-104069942D01*
X98050987Y-103927809D01*
X98081000Y-103776922D01*
X98081000Y-103623078D01*
X98050987Y-103472191D01*
X97992113Y-103330058D01*
X97906642Y-103202141D01*
X97797859Y-103093358D01*
X97669942Y-103007887D01*
X97527809Y-102949013D01*
X97376922Y-102919000D01*
X97223078Y-102919000D01*
X97072191Y-102949013D01*
X96930058Y-103007887D01*
X96802141Y-103093358D01*
X96800000Y-103095499D01*
X96797859Y-103093358D01*
X96669942Y-103007887D01*
X96527809Y-102949013D01*
X96376922Y-102919000D01*
X96223078Y-102919000D01*
X96072191Y-102949013D01*
X95930058Y-103007887D01*
X95802141Y-103093358D01*
X95693358Y-103202141D01*
X95607887Y-103330058D01*
X95549013Y-103472191D01*
X95519000Y-103623078D01*
X95519000Y-103776922D01*
X95549013Y-103927809D01*
X95607887Y-104069942D01*
X95693358Y-104197859D01*
X95802141Y-104306642D01*
X95930058Y-104392113D01*
X96072191Y-104450987D01*
X96223078Y-104481000D01*
X96376922Y-104481000D01*
X96527809Y-104450987D01*
X96669942Y-104392113D01*
X96797859Y-104306642D01*
X96800000Y-104304501D01*
X96802141Y-104306642D01*
X96930058Y-104392113D01*
X97069808Y-104450000D01*
X96930058Y-104507887D01*
X96802141Y-104593358D01*
X96693358Y-104702141D01*
X96607887Y-104830058D01*
X96549013Y-104972191D01*
X96519000Y-105123078D01*
X96519000Y-105276922D01*
X96549013Y-105427809D01*
X96607887Y-105569942D01*
X96693358Y-105697859D01*
X96695499Y-105700000D01*
X96693358Y-105702141D01*
X96607887Y-105830058D01*
X96549013Y-105972191D01*
X96519000Y-106123078D01*
X96519000Y-106276922D01*
X96549013Y-106427809D01*
X96607887Y-106569942D01*
X96693358Y-106697859D01*
X96695499Y-106700000D01*
X96693358Y-106702141D01*
X96607887Y-106830058D01*
X96549013Y-106972191D01*
X96519000Y-107123078D01*
X96519000Y-107276922D01*
X96549013Y-107427809D01*
X96607887Y-107569942D01*
X96655019Y-107640480D01*
X96640480Y-107655019D01*
X96569942Y-107607887D01*
X96427809Y-107549013D01*
X96276922Y-107519000D01*
X96123078Y-107519000D01*
X95972191Y-107549013D01*
X95830058Y-107607887D01*
X95702141Y-107693358D01*
X95593358Y-107802141D01*
X95507887Y-107930058D01*
X95449013Y-108072191D01*
X95419000Y-108223078D01*
X93451928Y-108223078D01*
X93481000Y-108076922D01*
X93481000Y-107923078D01*
X93450987Y-107772191D01*
X93392113Y-107630058D01*
X93306642Y-107502141D01*
X93304501Y-107500000D01*
X93306642Y-107497859D01*
X93392113Y-107369942D01*
X93450987Y-107227809D01*
X93481000Y-107076922D01*
X93481000Y-106923078D01*
X93450987Y-106772191D01*
X93392113Y-106630058D01*
X93306642Y-106502141D01*
X93304501Y-106500000D01*
X93306642Y-106497859D01*
X93392113Y-106369942D01*
X93450987Y-106227809D01*
X93481000Y-106076922D01*
X93481000Y-105923078D01*
X93450987Y-105772191D01*
X93392113Y-105630058D01*
X93306642Y-105502141D01*
X93197859Y-105393358D01*
X93069942Y-105307887D01*
X92927809Y-105249013D01*
X92776922Y-105219000D01*
X92623078Y-105219000D01*
X92472191Y-105249013D01*
X92330058Y-105307887D01*
X92202141Y-105393358D01*
X92093358Y-105502141D01*
X92007887Y-105630058D01*
X91949013Y-105772191D01*
X91919000Y-105923078D01*
X80431000Y-105923078D01*
X80431000Y-103623078D01*
X92719000Y-103623078D01*
X92719000Y-103776922D01*
X92749013Y-103927809D01*
X92807887Y-104069942D01*
X92893358Y-104197859D01*
X93002141Y-104306642D01*
X93130058Y-104392113D01*
X93272191Y-104450987D01*
X93423078Y-104481000D01*
X93576922Y-104481000D01*
X93727809Y-104450987D01*
X93869942Y-104392113D01*
X93997859Y-104306642D01*
X94000000Y-104304501D01*
X94002141Y-104306642D01*
X94130058Y-104392113D01*
X94272191Y-104450987D01*
X94423078Y-104481000D01*
X94576922Y-104481000D01*
X94727809Y-104450987D01*
X94869942Y-104392113D01*
X94997859Y-104306642D01*
X95106642Y-104197859D01*
X95192113Y-104069942D01*
X95250987Y-103927809D01*
X95281000Y-103776922D01*
X95281000Y-103623078D01*
X95250987Y-103472191D01*
X95192113Y-103330058D01*
X95106642Y-103202141D01*
X94997859Y-103093358D01*
X94869942Y-103007887D01*
X94727809Y-102949013D01*
X94576922Y-102919000D01*
X94423078Y-102919000D01*
X94272191Y-102949013D01*
X94130058Y-103007887D01*
X94002141Y-103093358D01*
X94000000Y-103095499D01*
X93997859Y-103093358D01*
X93869942Y-103007887D01*
X93727809Y-102949013D01*
X93576922Y-102919000D01*
X93423078Y-102919000D01*
X93272191Y-102949013D01*
X93130058Y-103007887D01*
X93002141Y-103093358D01*
X92893358Y-103202141D01*
X92807887Y-103330058D01*
X92749013Y-103472191D01*
X92719000Y-103623078D01*
X80431000Y-103623078D01*
X80431000Y-101323078D01*
X96919000Y-101323078D01*
X96919000Y-101476922D01*
X96949013Y-101627809D01*
X97007887Y-101769942D01*
X97093358Y-101897859D01*
X97202141Y-102006642D01*
X97330058Y-102092113D01*
X97472191Y-102150987D01*
X97623078Y-102181000D01*
X97776922Y-102181000D01*
X97927809Y-102150987D01*
X98069942Y-102092113D01*
X98197859Y-102006642D01*
X98306642Y-101897859D01*
X98392113Y-101769942D01*
X98450987Y-101627809D01*
X98481000Y-101476922D01*
X98481000Y-101323078D01*
X98450987Y-101172191D01*
X98392113Y-101030058D01*
X98306642Y-100902141D01*
X98197859Y-100793358D01*
X98069942Y-100707887D01*
X97927809Y-100649013D01*
X97776922Y-100619000D01*
X97623078Y-100619000D01*
X97472191Y-100649013D01*
X97330058Y-100707887D01*
X97202141Y-100793358D01*
X97093358Y-100902141D01*
X97007887Y-101030058D01*
X96949013Y-101172191D01*
X96919000Y-101323078D01*
X80431000Y-101323078D01*
X80431000Y-97623078D01*
X80919000Y-97623078D01*
X80919000Y-97776922D01*
X80949013Y-97927809D01*
X81007887Y-98069942D01*
X81093358Y-98197859D01*
X81202141Y-98306642D01*
X81330058Y-98392113D01*
X81472191Y-98450987D01*
X81623078Y-98481000D01*
X81719000Y-98481000D01*
X81719000Y-98576922D01*
X81749013Y-98727809D01*
X81807887Y-98869942D01*
X81893358Y-98997859D01*
X81895499Y-99000000D01*
X81893358Y-99002141D01*
X81807887Y-99130058D01*
X81749013Y-99272191D01*
X81719000Y-99423078D01*
X81719000Y-99576922D01*
X81749013Y-99727809D01*
X81807887Y-99869942D01*
X81893358Y-99997859D01*
X81895499Y-100000000D01*
X81893358Y-100002141D01*
X81807887Y-100130058D01*
X81749013Y-100272191D01*
X81719000Y-100423078D01*
X81719000Y-100576922D01*
X81749013Y-100727809D01*
X81807887Y-100869942D01*
X81893358Y-100997859D01*
X82002141Y-101106642D01*
X82130058Y-101192113D01*
X82272191Y-101250987D01*
X82423078Y-101281000D01*
X82576922Y-101281000D01*
X82727809Y-101250987D01*
X82869942Y-101192113D01*
X82997859Y-101106642D01*
X83106642Y-100997859D01*
X83192113Y-100869942D01*
X83250987Y-100727809D01*
X83281000Y-100576922D01*
X83281000Y-100423078D01*
X83250987Y-100272191D01*
X83192113Y-100130058D01*
X83106642Y-100002141D01*
X83104501Y-100000000D01*
X83106642Y-99997859D01*
X83192113Y-99869942D01*
X83250987Y-99727809D01*
X83281000Y-99576922D01*
X83281000Y-99423078D01*
X83250987Y-99272191D01*
X83192113Y-99130058D01*
X83106642Y-99002141D01*
X83104501Y-99000000D01*
X83106642Y-98997859D01*
X83192113Y-98869942D01*
X83250987Y-98727809D01*
X83281000Y-98576922D01*
X83281000Y-98459334D01*
X83330058Y-98492113D01*
X83472191Y-98550987D01*
X83623078Y-98581000D01*
X83776922Y-98581000D01*
X83927809Y-98550987D01*
X84069942Y-98492113D01*
X84197859Y-98406642D01*
X84306642Y-98297859D01*
X84392113Y-98169942D01*
X84450987Y-98027809D01*
X84471819Y-97923078D01*
X92819000Y-97923078D01*
X92819000Y-98076922D01*
X92849013Y-98227809D01*
X92907887Y-98369942D01*
X92993358Y-98497859D01*
X92995499Y-98500000D01*
X92993358Y-98502141D01*
X92907887Y-98630058D01*
X92849013Y-98772191D01*
X92819000Y-98923078D01*
X92819000Y-99076922D01*
X92849013Y-99227809D01*
X92907887Y-99369942D01*
X92993358Y-99497859D01*
X93102141Y-99606642D01*
X93230058Y-99692113D01*
X93372191Y-99750987D01*
X93523078Y-99781000D01*
X93676922Y-99781000D01*
X93827809Y-99750987D01*
X93969942Y-99692113D01*
X94097859Y-99606642D01*
X94206642Y-99497859D01*
X94292113Y-99369942D01*
X94311524Y-99323078D01*
X94919000Y-99323078D01*
X94919000Y-99476922D01*
X94949013Y-99627809D01*
X95007887Y-99769942D01*
X95093358Y-99897859D01*
X95202141Y-100006642D01*
X95330058Y-100092113D01*
X95472191Y-100150987D01*
X95623078Y-100181000D01*
X95776922Y-100181000D01*
X95927809Y-100150987D01*
X96069942Y-100092113D01*
X96197859Y-100006642D01*
X96250000Y-99954501D01*
X96302141Y-100006642D01*
X96430058Y-100092113D01*
X96572191Y-100150987D01*
X96723078Y-100181000D01*
X96876922Y-100181000D01*
X97027809Y-100150987D01*
X97169942Y-100092113D01*
X97297859Y-100006642D01*
X97379501Y-99925000D01*
X99536928Y-99925000D01*
X99549188Y-100049482D01*
X99585498Y-100169180D01*
X99644463Y-100279494D01*
X99723815Y-100376185D01*
X99794000Y-100433784D01*
X99794000Y-100579384D01*
X99824974Y-100735102D01*
X99885732Y-100881784D01*
X99973939Y-101013795D01*
X100086205Y-101126061D01*
X100218216Y-101214268D01*
X100364898Y-101275026D01*
X100520616Y-101306000D01*
X100679384Y-101306000D01*
X100835102Y-101275026D01*
X100981784Y-101214268D01*
X101113795Y-101126061D01*
X101226061Y-101013795D01*
X101314268Y-100881784D01*
X101375026Y-100735102D01*
X101406000Y-100579384D01*
X101406000Y-100433784D01*
X101476185Y-100376185D01*
X101555537Y-100279494D01*
X101614502Y-100169180D01*
X101650812Y-100049482D01*
X101663072Y-99925000D01*
X101660000Y-99785750D01*
X101501252Y-99627002D01*
X101590100Y-99627002D01*
X101607887Y-99669942D01*
X101693358Y-99797859D01*
X101802141Y-99906642D01*
X101930058Y-99992113D01*
X102072191Y-100050987D01*
X102223078Y-100081000D01*
X102376922Y-100081000D01*
X102527809Y-100050987D01*
X102669942Y-99992113D01*
X102797859Y-99906642D01*
X102906642Y-99797859D01*
X102992113Y-99669942D01*
X103050987Y-99527809D01*
X103081000Y-99376922D01*
X103081000Y-99223078D01*
X103050987Y-99072191D01*
X102992113Y-98930058D01*
X102906642Y-98802141D01*
X102797859Y-98693358D01*
X102669942Y-98607887D01*
X102527809Y-98549013D01*
X102376922Y-98519000D01*
X102223078Y-98519000D01*
X102072191Y-98549013D01*
X101930058Y-98607887D01*
X101802141Y-98693358D01*
X101693358Y-98802141D01*
X101633141Y-98892263D01*
X101614502Y-98830820D01*
X101555537Y-98720506D01*
X101476185Y-98623815D01*
X101379494Y-98544463D01*
X101269180Y-98485498D01*
X101149482Y-98449188D01*
X101025000Y-98436928D01*
X100885750Y-98440000D01*
X100727000Y-98598750D01*
X100727000Y-99373000D01*
X100747000Y-99373000D01*
X100747000Y-99627000D01*
X100727000Y-99627000D01*
X100727000Y-99647000D01*
X100473000Y-99647000D01*
X100473000Y-99627000D01*
X99698750Y-99627000D01*
X99540000Y-99785750D01*
X99536928Y-99925000D01*
X97379501Y-99925000D01*
X97406642Y-99897859D01*
X97492113Y-99769942D01*
X97550987Y-99627809D01*
X97581000Y-99476922D01*
X97581000Y-99323078D01*
X97550987Y-99172191D01*
X97510729Y-99075000D01*
X99536928Y-99075000D01*
X99540000Y-99214250D01*
X99698750Y-99373000D01*
X100473000Y-99373000D01*
X100473000Y-98598750D01*
X100314250Y-98440000D01*
X100175000Y-98436928D01*
X100050518Y-98449188D01*
X99930820Y-98485498D01*
X99820506Y-98544463D01*
X99723815Y-98623815D01*
X99644463Y-98720506D01*
X99585498Y-98830820D01*
X99549188Y-98950518D01*
X99536928Y-99075000D01*
X97510729Y-99075000D01*
X97492113Y-99030058D01*
X97406642Y-98902141D01*
X97297859Y-98793358D01*
X97169942Y-98707887D01*
X97027809Y-98649013D01*
X96876922Y-98619000D01*
X96723078Y-98619000D01*
X96572191Y-98649013D01*
X96430058Y-98707887D01*
X96302141Y-98793358D01*
X96250000Y-98845499D01*
X96197859Y-98793358D01*
X96069942Y-98707887D01*
X95927809Y-98649013D01*
X95776922Y-98619000D01*
X95623078Y-98619000D01*
X95472191Y-98649013D01*
X95330058Y-98707887D01*
X95202141Y-98793358D01*
X95093358Y-98902141D01*
X95007887Y-99030058D01*
X94949013Y-99172191D01*
X94919000Y-99323078D01*
X94311524Y-99323078D01*
X94350987Y-99227809D01*
X94381000Y-99076922D01*
X94381000Y-98923078D01*
X94350987Y-98772191D01*
X94292113Y-98630058D01*
X94206642Y-98502141D01*
X94204501Y-98500000D01*
X94206642Y-98497859D01*
X94292113Y-98369942D01*
X94311524Y-98323078D01*
X110219000Y-98323078D01*
X110219000Y-98476922D01*
X110249013Y-98627809D01*
X110307887Y-98769942D01*
X110393358Y-98897859D01*
X110502141Y-99006642D01*
X110630058Y-99092113D01*
X110772191Y-99150987D01*
X110923078Y-99181000D01*
X111076922Y-99181000D01*
X111227809Y-99150987D01*
X111369942Y-99092113D01*
X111497859Y-99006642D01*
X111606642Y-98897859D01*
X111692113Y-98769942D01*
X111750987Y-98627809D01*
X111781000Y-98476922D01*
X111781000Y-98323078D01*
X111750987Y-98172191D01*
X111692113Y-98030058D01*
X111606642Y-97902141D01*
X111497859Y-97793358D01*
X111369942Y-97707887D01*
X111227809Y-97649013D01*
X111076922Y-97619000D01*
X110923078Y-97619000D01*
X110772191Y-97649013D01*
X110630058Y-97707887D01*
X110502141Y-97793358D01*
X110393358Y-97902141D01*
X110307887Y-98030058D01*
X110249013Y-98172191D01*
X110219000Y-98323078D01*
X94311524Y-98323078D01*
X94350987Y-98227809D01*
X94381000Y-98076922D01*
X94381000Y-97923078D01*
X94350987Y-97772191D01*
X94292113Y-97630058D01*
X94206642Y-97502141D01*
X94097859Y-97393358D01*
X93969942Y-97307887D01*
X93827809Y-97249013D01*
X93676922Y-97219000D01*
X93523078Y-97219000D01*
X93372191Y-97249013D01*
X93230058Y-97307887D01*
X93102141Y-97393358D01*
X92993358Y-97502141D01*
X92907887Y-97630058D01*
X92849013Y-97772191D01*
X92819000Y-97923078D01*
X84471819Y-97923078D01*
X84481000Y-97876922D01*
X84481000Y-97723078D01*
X84450987Y-97572191D01*
X84392113Y-97430058D01*
X84306642Y-97302141D01*
X84197859Y-97193358D01*
X84069942Y-97107887D01*
X83927809Y-97049013D01*
X83776922Y-97019000D01*
X83623078Y-97019000D01*
X83472191Y-97049013D01*
X83330058Y-97107887D01*
X83202141Y-97193358D01*
X83093358Y-97302141D01*
X83007887Y-97430058D01*
X82949013Y-97572191D01*
X82919000Y-97723078D01*
X82919000Y-97840666D01*
X82869942Y-97807887D01*
X82727809Y-97749013D01*
X82576922Y-97719000D01*
X82481000Y-97719000D01*
X82481000Y-97623078D01*
X82450987Y-97472191D01*
X82392113Y-97330058D01*
X82306642Y-97202141D01*
X82197859Y-97093358D01*
X82069942Y-97007887D01*
X81927809Y-96949013D01*
X81776922Y-96919000D01*
X81623078Y-96919000D01*
X81472191Y-96949013D01*
X81330058Y-97007887D01*
X81202141Y-97093358D01*
X81093358Y-97202141D01*
X81007887Y-97330058D01*
X80949013Y-97472191D01*
X80919000Y-97623078D01*
X80431000Y-97623078D01*
X80431000Y-94854134D01*
X93519000Y-94854134D01*
X93519000Y-95145866D01*
X93575914Y-95431992D01*
X93687555Y-95701517D01*
X93849632Y-95944083D01*
X94055917Y-96150368D01*
X94298483Y-96312445D01*
X94568008Y-96424086D01*
X94854134Y-96481000D01*
X95145866Y-96481000D01*
X95431992Y-96424086D01*
X95701517Y-96312445D01*
X95944083Y-96150368D01*
X96150368Y-95944083D01*
X96298038Y-95723078D01*
X108019000Y-95723078D01*
X108019000Y-95876922D01*
X108049013Y-96027809D01*
X108107887Y-96169942D01*
X108193358Y-96297859D01*
X108302141Y-96406642D01*
X108430058Y-96492113D01*
X108572191Y-96550987D01*
X108723078Y-96581000D01*
X108876922Y-96581000D01*
X109027809Y-96550987D01*
X109169942Y-96492113D01*
X109297859Y-96406642D01*
X109406642Y-96297859D01*
X109492113Y-96169942D01*
X109550987Y-96027809D01*
X109580189Y-95881000D01*
X109676922Y-95881000D01*
X109827809Y-95850987D01*
X109969942Y-95792113D01*
X110097859Y-95706642D01*
X110206642Y-95597859D01*
X110250000Y-95532969D01*
X110293358Y-95597859D01*
X110402141Y-95706642D01*
X110530058Y-95792113D01*
X110672191Y-95850987D01*
X110823078Y-95881000D01*
X110976922Y-95881000D01*
X111127809Y-95850987D01*
X111269942Y-95792113D01*
X111397859Y-95706642D01*
X111506642Y-95597859D01*
X111592113Y-95469942D01*
X111650987Y-95327809D01*
X111681000Y-95176922D01*
X111681000Y-95023078D01*
X111650987Y-94872191D01*
X111643508Y-94854134D01*
X113519000Y-94854134D01*
X113519000Y-95145866D01*
X113575914Y-95431992D01*
X113687555Y-95701517D01*
X113849632Y-95944083D01*
X114055917Y-96150368D01*
X114298483Y-96312445D01*
X114568008Y-96424086D01*
X114854134Y-96481000D01*
X115145866Y-96481000D01*
X115431992Y-96424086D01*
X115701517Y-96312445D01*
X115944083Y-96150368D01*
X116150368Y-95944083D01*
X116312445Y-95701517D01*
X116424086Y-95431992D01*
X116481000Y-95145866D01*
X116481000Y-94854134D01*
X116424086Y-94568008D01*
X116312445Y-94298483D01*
X116150368Y-94055917D01*
X115944083Y-93849632D01*
X115701517Y-93687555D01*
X115431992Y-93575914D01*
X115145866Y-93519000D01*
X114854134Y-93519000D01*
X114568008Y-93575914D01*
X114298483Y-93687555D01*
X114055917Y-93849632D01*
X113849632Y-94055917D01*
X113687555Y-94298483D01*
X113575914Y-94568008D01*
X113519000Y-94854134D01*
X111643508Y-94854134D01*
X111592113Y-94730058D01*
X111506642Y-94602141D01*
X111397859Y-94493358D01*
X111269942Y-94407887D01*
X111127809Y-94349013D01*
X110976922Y-94319000D01*
X110823078Y-94319000D01*
X110672191Y-94349013D01*
X110530058Y-94407887D01*
X110402141Y-94493358D01*
X110293358Y-94602141D01*
X110250000Y-94667031D01*
X110206642Y-94602141D01*
X110097859Y-94493358D01*
X109969942Y-94407887D01*
X109827809Y-94349013D01*
X109676922Y-94319000D01*
X109523078Y-94319000D01*
X109372191Y-94349013D01*
X109230058Y-94407887D01*
X109102141Y-94493358D01*
X108993358Y-94602141D01*
X108907887Y-94730058D01*
X108849013Y-94872191D01*
X108819811Y-95019000D01*
X108723078Y-95019000D01*
X108572191Y-95049013D01*
X108430058Y-95107887D01*
X108302141Y-95193358D01*
X108193358Y-95302141D01*
X108107887Y-95430058D01*
X108049013Y-95572191D01*
X108019000Y-95723078D01*
X96298038Y-95723078D01*
X96312445Y-95701517D01*
X96424086Y-95431992D01*
X96481000Y-95145866D01*
X96481000Y-94854134D01*
X96424086Y-94568008D01*
X96312445Y-94298483D01*
X96150368Y-94055917D01*
X95944083Y-93849632D01*
X95904343Y-93823078D01*
X105419000Y-93823078D01*
X105419000Y-93976922D01*
X105449013Y-94127809D01*
X105507887Y-94269942D01*
X105593358Y-94397859D01*
X105702141Y-94506642D01*
X105830058Y-94592113D01*
X105972191Y-94650987D01*
X106123078Y-94681000D01*
X106276922Y-94681000D01*
X106427809Y-94650987D01*
X106569942Y-94592113D01*
X106697859Y-94506642D01*
X106806642Y-94397859D01*
X106892113Y-94269942D01*
X106950987Y-94127809D01*
X106981000Y-93976922D01*
X106981000Y-93823078D01*
X106950987Y-93672191D01*
X106892113Y-93530058D01*
X106887450Y-93523078D01*
X111419000Y-93523078D01*
X111419000Y-93676922D01*
X111449013Y-93827809D01*
X111507887Y-93969942D01*
X111593358Y-94097859D01*
X111702141Y-94206642D01*
X111830058Y-94292113D01*
X111972191Y-94350987D01*
X112123078Y-94381000D01*
X112276922Y-94381000D01*
X112427809Y-94350987D01*
X112569942Y-94292113D01*
X112697859Y-94206642D01*
X112806642Y-94097859D01*
X112892113Y-93969942D01*
X112950987Y-93827809D01*
X112981000Y-93676922D01*
X112981000Y-93523078D01*
X112972630Y-93481000D01*
X113076922Y-93481000D01*
X113227809Y-93450987D01*
X113369942Y-93392113D01*
X113497859Y-93306642D01*
X113606642Y-93197859D01*
X113692113Y-93069942D01*
X113750987Y-92927809D01*
X113781000Y-92776922D01*
X113781000Y-92623078D01*
X113750987Y-92472191D01*
X113692113Y-92330058D01*
X113606642Y-92202141D01*
X113497859Y-92093358D01*
X113369942Y-92007887D01*
X113227809Y-91949013D01*
X113076922Y-91919000D01*
X112923078Y-91919000D01*
X112772191Y-91949013D01*
X112630058Y-92007887D01*
X112502141Y-92093358D01*
X112393358Y-92202141D01*
X112307887Y-92330058D01*
X112249013Y-92472191D01*
X112219000Y-92623078D01*
X112219000Y-92776922D01*
X112227370Y-92819000D01*
X112123078Y-92819000D01*
X111972191Y-92849013D01*
X111830058Y-92907887D01*
X111702141Y-92993358D01*
X111593358Y-93102141D01*
X111507887Y-93230058D01*
X111449013Y-93372191D01*
X111419000Y-93523078D01*
X106887450Y-93523078D01*
X106806642Y-93402141D01*
X106697859Y-93293358D01*
X106569942Y-93207887D01*
X106427809Y-93149013D01*
X106276922Y-93119000D01*
X106123078Y-93119000D01*
X105972191Y-93149013D01*
X105830058Y-93207887D01*
X105702141Y-93293358D01*
X105593358Y-93402141D01*
X105507887Y-93530058D01*
X105449013Y-93672191D01*
X105419000Y-93823078D01*
X95904343Y-93823078D01*
X95701517Y-93687555D01*
X95431992Y-93575914D01*
X95145866Y-93519000D01*
X94854134Y-93519000D01*
X94568008Y-93575914D01*
X94298483Y-93687555D01*
X94055917Y-93849632D01*
X93849632Y-94055917D01*
X93687555Y-94298483D01*
X93575914Y-94568008D01*
X93519000Y-94854134D01*
X80431000Y-94854134D01*
X80431000Y-93423078D01*
X87419000Y-93423078D01*
X87419000Y-93576922D01*
X87449013Y-93727809D01*
X87507887Y-93869942D01*
X87593358Y-93997859D01*
X87702141Y-94106642D01*
X87830058Y-94192113D01*
X87972191Y-94250987D01*
X88123078Y-94281000D01*
X88276922Y-94281000D01*
X88427809Y-94250987D01*
X88569942Y-94192113D01*
X88697859Y-94106642D01*
X88806642Y-93997859D01*
X88892113Y-93869942D01*
X88950987Y-93727809D01*
X88981000Y-93576922D01*
X88981000Y-93423078D01*
X88950987Y-93272191D01*
X88892113Y-93130058D01*
X88806642Y-93002141D01*
X88697859Y-92893358D01*
X88569942Y-92807887D01*
X88427809Y-92749013D01*
X88276922Y-92719000D01*
X88123078Y-92719000D01*
X87972191Y-92749013D01*
X87830058Y-92807887D01*
X87702141Y-92893358D01*
X87593358Y-93002141D01*
X87507887Y-93130058D01*
X87449013Y-93272191D01*
X87419000Y-93423078D01*
X80431000Y-93423078D01*
X80431000Y-92223078D01*
X105219000Y-92223078D01*
X105219000Y-92376922D01*
X105249013Y-92527809D01*
X105307887Y-92669942D01*
X105393358Y-92797859D01*
X105502141Y-92906642D01*
X105630058Y-92992113D01*
X105772191Y-93050987D01*
X105923078Y-93081000D01*
X106076922Y-93081000D01*
X106227809Y-93050987D01*
X106369942Y-92992113D01*
X106497859Y-92906642D01*
X106606642Y-92797859D01*
X106692113Y-92669942D01*
X106750987Y-92527809D01*
X106781000Y-92376922D01*
X106781000Y-92223078D01*
X106750987Y-92072191D01*
X106692113Y-91930058D01*
X106606642Y-91802141D01*
X106497859Y-91693358D01*
X106369942Y-91607887D01*
X106227809Y-91549013D01*
X106076922Y-91519000D01*
X105923078Y-91519000D01*
X105772191Y-91549013D01*
X105630058Y-91607887D01*
X105502141Y-91693358D01*
X105393358Y-91802141D01*
X105307887Y-91930058D01*
X105249013Y-92072191D01*
X105219000Y-92223078D01*
X80431000Y-92223078D01*
X80431000Y-88723078D01*
X91519000Y-88723078D01*
X91519000Y-88876922D01*
X91549013Y-89027809D01*
X91607887Y-89169942D01*
X91693358Y-89297859D01*
X91802141Y-89406642D01*
X91930058Y-89492113D01*
X92072191Y-89550987D01*
X92223078Y-89581000D01*
X92376922Y-89581000D01*
X92527809Y-89550987D01*
X92669942Y-89492113D01*
X92797859Y-89406642D01*
X92906642Y-89297859D01*
X92992113Y-89169942D01*
X93050987Y-89027809D01*
X93081000Y-88876922D01*
X93081000Y-88723078D01*
X110819000Y-88723078D01*
X110819000Y-88876922D01*
X110849013Y-89027809D01*
X110907887Y-89169942D01*
X110993358Y-89297859D01*
X111102141Y-89406642D01*
X111230058Y-89492113D01*
X111372191Y-89550987D01*
X111523078Y-89581000D01*
X111676922Y-89581000D01*
X111827809Y-89550987D01*
X111969942Y-89492113D01*
X112097859Y-89406642D01*
X112206642Y-89297859D01*
X112292113Y-89169942D01*
X112350987Y-89027809D01*
X112381000Y-88876922D01*
X112381000Y-88723078D01*
X112350987Y-88572191D01*
X112292113Y-88430058D01*
X112206642Y-88302141D01*
X112097859Y-88193358D01*
X111969942Y-88107887D01*
X111827809Y-88049013D01*
X111676922Y-88019000D01*
X111523078Y-88019000D01*
X111372191Y-88049013D01*
X111230058Y-88107887D01*
X111102141Y-88193358D01*
X110993358Y-88302141D01*
X110907887Y-88430058D01*
X110849013Y-88572191D01*
X110819000Y-88723078D01*
X93081000Y-88723078D01*
X93050987Y-88572191D01*
X92992113Y-88430058D01*
X92906642Y-88302141D01*
X92797859Y-88193358D01*
X92669942Y-88107887D01*
X92527809Y-88049013D01*
X92376922Y-88019000D01*
X92223078Y-88019000D01*
X92072191Y-88049013D01*
X91930058Y-88107887D01*
X91802141Y-88193358D01*
X91693358Y-88302141D01*
X91607887Y-88430058D01*
X91549013Y-88572191D01*
X91519000Y-88723078D01*
X80431000Y-88723078D01*
X80431000Y-87623078D01*
X100519000Y-87623078D01*
X100519000Y-87776922D01*
X100549013Y-87927809D01*
X100607887Y-88069942D01*
X100693358Y-88197859D01*
X100802141Y-88306642D01*
X100930058Y-88392113D01*
X101072191Y-88450987D01*
X101223078Y-88481000D01*
X101376922Y-88481000D01*
X101527809Y-88450987D01*
X101669942Y-88392113D01*
X101797859Y-88306642D01*
X101906642Y-88197859D01*
X101992113Y-88069942D01*
X102050987Y-87927809D01*
X102081000Y-87776922D01*
X102081000Y-87723078D01*
X106419000Y-87723078D01*
X106419000Y-87876922D01*
X106449013Y-88027809D01*
X106507887Y-88169942D01*
X106593358Y-88297859D01*
X106702141Y-88406642D01*
X106830058Y-88492113D01*
X106972191Y-88550987D01*
X107123078Y-88581000D01*
X107276922Y-88581000D01*
X107427809Y-88550987D01*
X107569942Y-88492113D01*
X107697859Y-88406642D01*
X107800000Y-88304501D01*
X107902141Y-88406642D01*
X108030058Y-88492113D01*
X108172191Y-88550987D01*
X108323078Y-88581000D01*
X108476922Y-88581000D01*
X108627809Y-88550987D01*
X108769942Y-88492113D01*
X108897859Y-88406642D01*
X109006642Y-88297859D01*
X109092113Y-88169942D01*
X109150987Y-88027809D01*
X109181000Y-87876922D01*
X109181000Y-87723078D01*
X109150987Y-87572191D01*
X109092113Y-87430058D01*
X109006642Y-87302141D01*
X108897859Y-87193358D01*
X108769942Y-87107887D01*
X108627809Y-87049013D01*
X108476922Y-87019000D01*
X108323078Y-87019000D01*
X108172191Y-87049013D01*
X108030058Y-87107887D01*
X107902141Y-87193358D01*
X107800000Y-87295499D01*
X107697859Y-87193358D01*
X107569942Y-87107887D01*
X107427809Y-87049013D01*
X107276922Y-87019000D01*
X107123078Y-87019000D01*
X106972191Y-87049013D01*
X106830058Y-87107887D01*
X106702141Y-87193358D01*
X106593358Y-87302141D01*
X106507887Y-87430058D01*
X106449013Y-87572191D01*
X106419000Y-87723078D01*
X102081000Y-87723078D01*
X102081000Y-87623078D01*
X102050987Y-87472191D01*
X101992113Y-87330058D01*
X101906642Y-87202141D01*
X101797859Y-87093358D01*
X101669942Y-87007887D01*
X101527809Y-86949013D01*
X101376922Y-86919000D01*
X101223078Y-86919000D01*
X101072191Y-86949013D01*
X100930058Y-87007887D01*
X100802141Y-87093358D01*
X100693358Y-87202141D01*
X100607887Y-87330058D01*
X100549013Y-87472191D01*
X100519000Y-87623078D01*
X80431000Y-87623078D01*
X80431000Y-84854134D01*
X93519000Y-84854134D01*
X93519000Y-85145866D01*
X93575914Y-85431992D01*
X93687555Y-85701517D01*
X93849632Y-85944083D01*
X94055917Y-86150368D01*
X94298483Y-86312445D01*
X94568008Y-86424086D01*
X94854134Y-86481000D01*
X95145866Y-86481000D01*
X95431992Y-86424086D01*
X95701517Y-86312445D01*
X95944083Y-86150368D01*
X96150368Y-85944083D01*
X96312445Y-85701517D01*
X96424086Y-85431992D01*
X96481000Y-85145866D01*
X96481000Y-84854134D01*
X113519000Y-84854134D01*
X113519000Y-85145866D01*
X113575914Y-85431992D01*
X113687555Y-85701517D01*
X113849632Y-85944083D01*
X114055917Y-86150368D01*
X114298483Y-86312445D01*
X114568008Y-86424086D01*
X114854134Y-86481000D01*
X115145866Y-86481000D01*
X115431992Y-86424086D01*
X115701517Y-86312445D01*
X115944083Y-86150368D01*
X116150368Y-85944083D01*
X116312445Y-85701517D01*
X116424086Y-85431992D01*
X116481000Y-85145866D01*
X116481000Y-84854134D01*
X116424086Y-84568008D01*
X116312445Y-84298483D01*
X116150368Y-84055917D01*
X115944083Y-83849632D01*
X115701517Y-83687555D01*
X115431992Y-83575914D01*
X115145866Y-83519000D01*
X114854134Y-83519000D01*
X114568008Y-83575914D01*
X114298483Y-83687555D01*
X114055917Y-83849632D01*
X113849632Y-84055917D01*
X113687555Y-84298483D01*
X113575914Y-84568008D01*
X113519000Y-84854134D01*
X96481000Y-84854134D01*
X96424086Y-84568008D01*
X96312445Y-84298483D01*
X96150368Y-84055917D01*
X95944083Y-83849632D01*
X95701517Y-83687555D01*
X95431992Y-83575914D01*
X95145866Y-83519000D01*
X94854134Y-83519000D01*
X94568008Y-83575914D01*
X94298483Y-83687555D01*
X94055917Y-83849632D01*
X93849632Y-84055917D01*
X93687555Y-84298483D01*
X93575914Y-84568008D01*
X93519000Y-84854134D01*
X80431000Y-84854134D01*
X80431000Y-83023078D01*
X86419000Y-83023078D01*
X86419000Y-83176922D01*
X86449013Y-83327809D01*
X86507887Y-83469942D01*
X86593358Y-83597859D01*
X86702141Y-83706642D01*
X86830058Y-83792113D01*
X86972191Y-83850987D01*
X87123078Y-83881000D01*
X87276922Y-83881000D01*
X87427809Y-83850987D01*
X87569942Y-83792113D01*
X87697859Y-83706642D01*
X87806642Y-83597859D01*
X87892113Y-83469942D01*
X87950987Y-83327809D01*
X87971819Y-83223078D01*
X106219000Y-83223078D01*
X106219000Y-83376922D01*
X106249013Y-83527809D01*
X106307887Y-83669942D01*
X106393358Y-83797859D01*
X106502141Y-83906642D01*
X106630058Y-83992113D01*
X106772191Y-84050987D01*
X106923078Y-84081000D01*
X107076922Y-84081000D01*
X107227809Y-84050987D01*
X107369942Y-83992113D01*
X107497859Y-83906642D01*
X107606642Y-83797859D01*
X107692113Y-83669942D01*
X107750987Y-83527809D01*
X107781000Y-83376922D01*
X107781000Y-83223078D01*
X107750987Y-83072191D01*
X107692113Y-82930058D01*
X107606642Y-82802141D01*
X107497859Y-82693358D01*
X107369942Y-82607887D01*
X107227809Y-82549013D01*
X107076922Y-82519000D01*
X106923078Y-82519000D01*
X106772191Y-82549013D01*
X106630058Y-82607887D01*
X106502141Y-82693358D01*
X106393358Y-82802141D01*
X106307887Y-82930058D01*
X106249013Y-83072191D01*
X106219000Y-83223078D01*
X87971819Y-83223078D01*
X87981000Y-83176922D01*
X87981000Y-83023078D01*
X87950987Y-82872191D01*
X87892113Y-82730058D01*
X87806642Y-82602141D01*
X87697859Y-82493358D01*
X87569942Y-82407887D01*
X87427809Y-82349013D01*
X87276922Y-82319000D01*
X87123078Y-82319000D01*
X86972191Y-82349013D01*
X86830058Y-82407887D01*
X86702141Y-82493358D01*
X86593358Y-82602141D01*
X86507887Y-82730058D01*
X86449013Y-82872191D01*
X86419000Y-83023078D01*
X80431000Y-83023078D01*
X80431000Y-80860578D01*
X97181500Y-80860578D01*
X97181500Y-81014422D01*
X97211513Y-81165309D01*
X97270387Y-81307442D01*
X97355858Y-81435359D01*
X97464641Y-81544142D01*
X97592558Y-81629613D01*
X97734691Y-81688487D01*
X97885578Y-81718500D01*
X98039422Y-81718500D01*
X98190309Y-81688487D01*
X98332442Y-81629613D01*
X98460359Y-81544142D01*
X98569142Y-81435359D01*
X98654613Y-81307442D01*
X98713487Y-81165309D01*
X98743500Y-81014422D01*
X98743500Y-80860578D01*
X98713487Y-80709691D01*
X98654613Y-80567558D01*
X98569142Y-80439641D01*
X98460359Y-80330858D01*
X98332442Y-80245387D01*
X98190309Y-80186513D01*
X98039422Y-80156500D01*
X97885578Y-80156500D01*
X97734691Y-80186513D01*
X97592558Y-80245387D01*
X97464641Y-80330858D01*
X97355858Y-80439641D01*
X97270387Y-80567558D01*
X97211513Y-80709691D01*
X97181500Y-80860578D01*
X80431000Y-80860578D01*
X80431000Y-78635578D01*
X93706500Y-78635578D01*
X93706500Y-78789422D01*
X93736513Y-78940309D01*
X93795387Y-79082442D01*
X93880858Y-79210359D01*
X93989641Y-79319142D01*
X94117558Y-79404613D01*
X94259691Y-79463487D01*
X94410578Y-79493500D01*
X94564422Y-79493500D01*
X94715309Y-79463487D01*
X94857442Y-79404613D01*
X94985359Y-79319142D01*
X95094142Y-79210359D01*
X95179613Y-79082442D01*
X95238487Y-78940309D01*
X95268500Y-78789422D01*
X95268500Y-78635578D01*
X95238487Y-78484691D01*
X95179613Y-78342558D01*
X95094142Y-78214641D01*
X94985359Y-78105858D01*
X94857442Y-78020387D01*
X94715309Y-77961513D01*
X94564422Y-77931500D01*
X94410578Y-77931500D01*
X94259691Y-77961513D01*
X94117558Y-78020387D01*
X93989641Y-78105858D01*
X93880858Y-78214641D01*
X93795387Y-78342558D01*
X93736513Y-78484691D01*
X93706500Y-78635578D01*
X80431000Y-78635578D01*
X80431000Y-77019198D01*
X80504897Y-76191199D01*
X80719165Y-75407970D01*
X81027713Y-74761086D01*
X81019000Y-74804889D01*
X81019000Y-75195111D01*
X81095129Y-75577836D01*
X81244461Y-75938355D01*
X81461257Y-76262814D01*
X81737186Y-76538743D01*
X82061645Y-76755539D01*
X82422164Y-76904871D01*
X82804889Y-76981000D01*
X83195111Y-76981000D01*
X83577836Y-76904871D01*
X83938355Y-76755539D01*
X84262814Y-76538743D01*
X84538743Y-76262814D01*
X84632111Y-76123078D01*
X89719000Y-76123078D01*
X89719000Y-76276922D01*
X89749013Y-76427809D01*
X89807887Y-76569942D01*
X89893358Y-76697859D01*
X90002141Y-76806642D01*
X90130058Y-76892113D01*
X90272191Y-76950987D01*
X90423078Y-76981000D01*
X90576922Y-76981000D01*
X90727809Y-76950987D01*
X90869942Y-76892113D01*
X90997859Y-76806642D01*
X91081423Y-76723078D01*
X94919000Y-76723078D01*
X94919000Y-76876922D01*
X94949013Y-77027809D01*
X95007887Y-77169942D01*
X95093358Y-77297859D01*
X95202141Y-77406642D01*
X95330058Y-77492113D01*
X95472191Y-77550987D01*
X95623078Y-77581000D01*
X95776922Y-77581000D01*
X95927809Y-77550987D01*
X96069942Y-77492113D01*
X96197859Y-77406642D01*
X96306642Y-77297859D01*
X96392113Y-77169942D01*
X96411524Y-77123078D01*
X97619000Y-77123078D01*
X97619000Y-77276922D01*
X97649013Y-77427809D01*
X97707887Y-77569942D01*
X97793358Y-77697859D01*
X97902141Y-77806642D01*
X98030058Y-77892113D01*
X98172191Y-77950987D01*
X98323078Y-77981000D01*
X98476922Y-77981000D01*
X98627809Y-77950987D01*
X98769942Y-77892113D01*
X98897859Y-77806642D01*
X99006642Y-77697859D01*
X99016524Y-77683070D01*
X99030058Y-77692113D01*
X99172191Y-77750987D01*
X99323078Y-77781000D01*
X99476922Y-77781000D01*
X99627809Y-77750987D01*
X99769942Y-77692113D01*
X99897859Y-77606642D01*
X100006642Y-77497859D01*
X100092113Y-77369942D01*
X100150987Y-77227809D01*
X100181000Y-77076922D01*
X100181000Y-76923078D01*
X100150987Y-76772191D01*
X100092113Y-76630058D01*
X100006642Y-76502141D01*
X99897859Y-76393358D01*
X99769942Y-76307887D01*
X99627809Y-76249013D01*
X99476922Y-76219000D01*
X99323078Y-76219000D01*
X99172191Y-76249013D01*
X99030058Y-76307887D01*
X98902141Y-76393358D01*
X98793358Y-76502141D01*
X98783476Y-76516930D01*
X98769942Y-76507887D01*
X98627809Y-76449013D01*
X98476922Y-76419000D01*
X98323078Y-76419000D01*
X98172191Y-76449013D01*
X98030058Y-76507887D01*
X97902141Y-76593358D01*
X97793358Y-76702141D01*
X97707887Y-76830058D01*
X97649013Y-76972191D01*
X97619000Y-77123078D01*
X96411524Y-77123078D01*
X96450987Y-77027809D01*
X96481000Y-76876922D01*
X96481000Y-76723078D01*
X96450987Y-76572191D01*
X96392113Y-76430058D01*
X96306642Y-76302141D01*
X96197859Y-76193358D01*
X96092678Y-76123078D01*
X103219000Y-76123078D01*
X103219000Y-76276922D01*
X103249013Y-76427809D01*
X103307887Y-76569942D01*
X103393358Y-76697859D01*
X103502141Y-76806642D01*
X103567031Y-76850000D01*
X103502141Y-76893358D01*
X103393358Y-77002141D01*
X103307887Y-77130058D01*
X103249013Y-77272191D01*
X103219000Y-77423078D01*
X103219000Y-77576922D01*
X103249013Y-77727809D01*
X103307887Y-77869942D01*
X103393358Y-77997859D01*
X103502141Y-78106642D01*
X103630058Y-78192113D01*
X103772191Y-78250987D01*
X103836530Y-78263785D01*
X103730058Y-78307887D01*
X103602141Y-78393358D01*
X103493358Y-78502141D01*
X103407887Y-78630058D01*
X103349013Y-78772191D01*
X103319000Y-78923078D01*
X103319000Y-79076922D01*
X103349013Y-79227809D01*
X103407887Y-79369942D01*
X103493358Y-79497859D01*
X103602141Y-79606642D01*
X103730058Y-79692113D01*
X103872191Y-79750987D01*
X104023078Y-79781000D01*
X104176922Y-79781000D01*
X104327809Y-79750987D01*
X104469942Y-79692113D01*
X104597859Y-79606642D01*
X104706642Y-79497859D01*
X104756608Y-79423078D01*
X110019000Y-79423078D01*
X110019000Y-79576922D01*
X110049013Y-79727809D01*
X110107887Y-79869942D01*
X110193358Y-79997859D01*
X110302141Y-80106642D01*
X110430058Y-80192113D01*
X110572191Y-80250987D01*
X110723078Y-80281000D01*
X110876922Y-80281000D01*
X111027809Y-80250987D01*
X111169942Y-80192113D01*
X111297859Y-80106642D01*
X111406642Y-79997859D01*
X111492113Y-79869942D01*
X111500000Y-79850901D01*
X111507887Y-79869942D01*
X111593358Y-79997859D01*
X111702141Y-80106642D01*
X111830058Y-80192113D01*
X111972191Y-80250987D01*
X112123078Y-80281000D01*
X112276922Y-80281000D01*
X112427809Y-80250987D01*
X112569942Y-80192113D01*
X112697859Y-80106642D01*
X112806642Y-79997859D01*
X112892113Y-79869942D01*
X112950987Y-79727809D01*
X112981000Y-79576922D01*
X112981000Y-79423078D01*
X112950987Y-79272191D01*
X112892113Y-79130058D01*
X112806642Y-79002141D01*
X112697859Y-78893358D01*
X112569942Y-78807887D01*
X112427809Y-78749013D01*
X112276922Y-78719000D01*
X112123078Y-78719000D01*
X111972191Y-78749013D01*
X111830058Y-78807887D01*
X111702141Y-78893358D01*
X111593358Y-79002141D01*
X111507887Y-79130058D01*
X111500000Y-79149099D01*
X111492113Y-79130058D01*
X111406642Y-79002141D01*
X111297859Y-78893358D01*
X111169942Y-78807887D01*
X111027809Y-78749013D01*
X110876922Y-78719000D01*
X110723078Y-78719000D01*
X110572191Y-78749013D01*
X110430058Y-78807887D01*
X110302141Y-78893358D01*
X110193358Y-79002141D01*
X110107887Y-79130058D01*
X110049013Y-79272191D01*
X110019000Y-79423078D01*
X104756608Y-79423078D01*
X104792113Y-79369942D01*
X104850987Y-79227809D01*
X104881000Y-79076922D01*
X104881000Y-78923078D01*
X104850987Y-78772191D01*
X104792113Y-78630058D01*
X104706642Y-78502141D01*
X104597859Y-78393358D01*
X104469942Y-78307887D01*
X104327809Y-78249013D01*
X104263470Y-78236215D01*
X104369942Y-78192113D01*
X104497859Y-78106642D01*
X104606642Y-77997859D01*
X104692113Y-77869942D01*
X104750987Y-77727809D01*
X104781000Y-77576922D01*
X104781000Y-77423078D01*
X104750987Y-77272191D01*
X104692113Y-77130058D01*
X104606642Y-77002141D01*
X104497859Y-76893358D01*
X104432969Y-76850000D01*
X104497859Y-76806642D01*
X104606642Y-76697859D01*
X104692113Y-76569942D01*
X104750987Y-76427809D01*
X104781000Y-76276922D01*
X104781000Y-76123078D01*
X104750987Y-75972191D01*
X104692113Y-75830058D01*
X104606642Y-75702141D01*
X104497859Y-75593358D01*
X104369942Y-75507887D01*
X104227809Y-75449013D01*
X104076922Y-75419000D01*
X103923078Y-75419000D01*
X103772191Y-75449013D01*
X103630058Y-75507887D01*
X103502141Y-75593358D01*
X103393358Y-75702141D01*
X103307887Y-75830058D01*
X103249013Y-75972191D01*
X103219000Y-76123078D01*
X96092678Y-76123078D01*
X96069942Y-76107887D01*
X95927809Y-76049013D01*
X95776922Y-76019000D01*
X95623078Y-76019000D01*
X95472191Y-76049013D01*
X95330058Y-76107887D01*
X95202141Y-76193358D01*
X95093358Y-76302141D01*
X95007887Y-76430058D01*
X94949013Y-76572191D01*
X94919000Y-76723078D01*
X91081423Y-76723078D01*
X91106642Y-76697859D01*
X91192113Y-76569942D01*
X91250987Y-76427809D01*
X91281000Y-76276922D01*
X91281000Y-76123078D01*
X91250987Y-75972191D01*
X91192113Y-75830058D01*
X91106642Y-75702141D01*
X90997859Y-75593358D01*
X90869942Y-75507887D01*
X90727809Y-75449013D01*
X90576922Y-75419000D01*
X90423078Y-75419000D01*
X90272191Y-75449013D01*
X90130058Y-75507887D01*
X90002141Y-75593358D01*
X89893358Y-75702141D01*
X89807887Y-75830058D01*
X89749013Y-75972191D01*
X89719000Y-76123078D01*
X84632111Y-76123078D01*
X84755539Y-75938355D01*
X84904871Y-75577836D01*
X84981000Y-75195111D01*
X84981000Y-74804889D01*
X84904871Y-74422164D01*
X84822407Y-74223078D01*
X93819000Y-74223078D01*
X93819000Y-74376922D01*
X93849013Y-74527809D01*
X93907887Y-74669942D01*
X93993358Y-74797859D01*
X94102141Y-74906642D01*
X94230058Y-74992113D01*
X94372191Y-75050987D01*
X94523078Y-75081000D01*
X94676922Y-75081000D01*
X94827809Y-75050987D01*
X94969942Y-74992113D01*
X95097859Y-74906642D01*
X95206642Y-74797859D01*
X95292113Y-74669942D01*
X95350987Y-74527809D01*
X95381000Y-74376922D01*
X95381000Y-74223078D01*
X95350987Y-74072191D01*
X95292113Y-73930058D01*
X95206642Y-73802141D01*
X95097859Y-73693358D01*
X94969942Y-73607887D01*
X94827809Y-73549013D01*
X94676922Y-73519000D01*
X94523078Y-73519000D01*
X94372191Y-73549013D01*
X94230058Y-73607887D01*
X94102141Y-73693358D01*
X93993358Y-73802141D01*
X93907887Y-73930058D01*
X93849013Y-74072191D01*
X93819000Y-74223078D01*
X84822407Y-74223078D01*
X84755539Y-74061645D01*
X84538743Y-73737186D01*
X84262814Y-73461257D01*
X83938355Y-73244461D01*
X83577836Y-73095129D01*
X83195111Y-73019000D01*
X82804889Y-73019000D01*
X82752389Y-73029443D01*
X82799693Y-72997656D01*
X83543224Y-72671269D01*
X84336107Y-72480914D01*
X85015811Y-72431000D01*
X114980802Y-72431000D01*
X115808801Y-72504897D01*
M02*
