  0
SECTION
  2
HEADER
  9
$ANGBASE
  50
0.0
  9
$ANGDIR
  70
1
  9
$MEASUREMENT
  70
0
  0
ENDSEC
  0
SECTION
  2
TABLES
  0
TABLE
  2
LTYPE
  70
4
  0
LTYPE
  5
40F
  2
CONTINUOUS
  70
0
  3
Solid line
  72
65
  73
0
  40
0.0
  0
LTYPE
  5
410
  2
DASHDOT
 70
0
  3
Dash Dot ____ _ ____ _
 72
65
 73
4
 40
2.0
 49
1.25
 49
-0.25
 49
0.25
 49
-0.25
  0
LTYPE
  5
411
  2
DASHED
 70
0
  3
Dashed __ __ __ __ __
 72
65
 73
2
 40
0.75
 49
0.5
 49
-0.25
  0
LTYPE
  5
43B
  2
DOTTED
 70
0
  3
Dotted .  .  .  .
 72
65
 73
2
 40
0.2
 49
0.0
 49
-0.2
  0
ENDTAB
  0
TABLE
  2
STYLE
  70
4
  0
STYLE
  2
KICAD
  70
0
  40
0
  41
1
  42
1
  50
0
  71
0
  3
isocp.shx
  0
STYLE
  2
KICADB
  70
0
  40
0
  41
1
  42
1
  50
0
  71
0
  3
isocp.shx
  0
STYLE
  2
KICADI
  70
0
  40
0
  41
1
  42
1
  50
15
  71
0
  3
isocp.shx
  0
STYLE
  2
KICADBI
  70
0
  40
0
  41
1
  42
1
  50
15
  71
0
  3
isocp.shx
  0
ENDTAB
  0
TABLE
  2
LAYER
  70
1
  0
LAYER
  2
BLACK
  70
0
  62
7
  6
CONTINUOUS
  0
ENDTAB
  0
ENDSEC
  0
SECTION
  2
ENTITIES
0
LINE
8
BLACK
6
CONTINUOUS
10
4.34239
20
-4.48822
11
4.34284
21
-4.48836
0
LINE
8
BLACK
6
CONTINUOUS
10
4.34284
20
-4.48836
11
4.34325
21
-4.48858
0
LINE
8
BLACK
6
CONTINUOUS
10
4.34325
20
-4.48858
11
4.34361
21
-4.48887
0
LINE
8
BLACK
6
CONTINUOUS
10
4.34361
20
-4.48887
11
4.3439
21
-4.48923
0
LINE
8
BLACK
6
CONTINUOUS
10
4.3439
20
-4.48923
11
4.34412
21
-4.48964
0
LINE
8
BLACK
6
CONTINUOUS
10
4.34412
20
-4.48964
11
4.34426
21
-4.49009
0
LINE
8
BLACK
6
CONTINUOUS
10
4.34426
20
-4.49009
11
4.34429
21
-4.49044
0
LINE
8
BLACK
6
CONTINUOUS
10
4.34429
20
-4.49044
11
4.34429
21
-4.50815
0
LINE
8
BLACK
6
CONTINUOUS
10
4.34429
20
-4.50815
11
4.3443
21
-4.50827
0
LINE
8
BLACK
6
CONTINUOUS
10
4.3443
20
-4.50827
11
4.34429
21
-4.50838
0
LINE
8
BLACK
6
CONTINUOUS
10
4.34429
20
-4.50838
11
4.34429
21
-4.50838
0
LINE
8
BLACK
6
CONTINUOUS
10
4.34429
20
-4.50838
11
4.34426
21
-4.50873
0
LINE
8
BLACK
6
CONTINUOUS
10
4.34426
20
-4.50873
11
4.34412
21
-4.50918
0
LINE
8
BLACK
6
CONTINUOUS
10
4.34412
20
-4.50918
11
4.3439
21
-4.50959
0
LINE
8
BLACK
6
CONTINUOUS
10
4.3439
20
-4.50959
11
4.34361
21
-4.50995
0
LINE
8
BLACK
6
CONTINUOUS
10
4.34361
20
-4.50995
11
4.34325
21
-4.51024
0
LINE
8
BLACK
6
CONTINUOUS
10
4.34325
20
-4.51024
11
4.34284
21
-4.51046
0
LINE
8
BLACK
6
CONTINUOUS
10
4.34284
20
-4.51046
11
4.34239
21
-4.5106
0
LINE
8
BLACK
6
CONTINUOUS
10
4.34239
20
-4.5106
11
4.34193
21
-4.51064
0
LINE
8
BLACK
6
CONTINUOUS
10
4.34193
20
-4.51064
11
4.34181
21
-4.51063
0
LINE
8
BLACK
6
CONTINUOUS
10
4.34181
20
-4.51063
11
4.06764
21
-4.51063
0
LINE
8
BLACK
6
CONTINUOUS
10
4.06764
20
-4.51063
11
4.06752
21
-4.51064
0
LINE
8
BLACK
6
CONTINUOUS
10
4.06752
20
-4.51064
11
4.06706
21
-4.5106
0
LINE
8
BLACK
6
CONTINUOUS
10
4.06706
20
-4.5106
11
4.06661
21
-4.51046
0
LINE
8
BLACK
6
CONTINUOUS
10
4.06661
20
-4.51046
11
4.0662
21
-4.51024
0
LINE
8
BLACK
6
CONTINUOUS
10
4.0662
20
-4.51024
11
4.06584
21
-4.50995
0
LINE
8
BLACK
6
CONTINUOUS
10
4.06584
20
-4.50995
11
4.06555
21
-4.50959
0
LINE
8
BLACK
6
CONTINUOUS
10
4.06555
20
-4.50959
11
4.06533
21
-4.50918
0
LINE
8
BLACK
6
CONTINUOUS
10
4.06533
20
-4.50918
11
4.06519
21
-4.50873
0
LINE
8
BLACK
6
CONTINUOUS
10
4.06519
20
-4.50873
11
4.06515
21
-4.50827
0
LINE
8
BLACK
6
CONTINUOUS
10
4.06515
20
-4.50827
11
4.06516
21
-4.50815
0
LINE
8
BLACK
6
CONTINUOUS
10
4.06516
20
-4.50815
11
4.06516
21
-4.49044
0
LINE
8
BLACK
6
CONTINUOUS
10
4.06516
20
-4.49044
11
4.06519
21
-4.49009
0
LINE
8
BLACK
6
CONTINUOUS
10
4.06519
20
-4.49009
11
4.06533
21
-4.48964
0
LINE
8
BLACK
6
CONTINUOUS
10
4.06533
20
-4.48964
11
4.06555
21
-4.48923
0
LINE
8
BLACK
6
CONTINUOUS
10
4.06555
20
-4.48923
11
4.06584
21
-4.48887
0
LINE
8
BLACK
6
CONTINUOUS
10
4.06584
20
-4.48887
11
4.0662
21
-4.48858
0
LINE
8
BLACK
6
CONTINUOUS
10
4.0662
20
-4.48858
11
4.06661
21
-4.48836
0
LINE
8
BLACK
6
CONTINUOUS
10
4.06661
20
-4.48836
11
4.06706
21
-4.48822
0
LINE
8
BLACK
6
CONTINUOUS
10
4.06706
20
-4.48822
11
4.06752
21
-4.48818
0
LINE
8
BLACK
6
CONTINUOUS
10
4.06752
20
-4.48818
11
4.06798
21
-4.48822
0
LINE
8
BLACK
6
CONTINUOUS
10
4.06798
20
-4.48822
11
4.06843
21
-4.48836
0
LINE
8
BLACK
6
CONTINUOUS
10
4.06843
20
-4.48836
11
4.06884
21
-4.48858
0
LINE
8
BLACK
6
CONTINUOUS
10
4.06884
20
-4.48858
11
4.0692
21
-4.48887
0
LINE
8
BLACK
6
CONTINUOUS
10
4.0692
20
-4.48887
11
4.06949
21
-4.48923
0
LINE
8
BLACK
6
CONTINUOUS
10
4.06949
20
-4.48923
11
4.06971
21
-4.48964
0
LINE
8
BLACK
6
CONTINUOUS
10
4.06971
20
-4.48964
11
4.06985
21
-4.49009
0
LINE
8
BLACK
6
CONTINUOUS
10
4.06985
20
-4.49009
11
4.06988
21
-4.49044
0
LINE
8
BLACK
6
CONTINUOUS
10
4.06988
20
-4.49044
11
4.06988
21
-4.50591
0
LINE
8
BLACK
6
CONTINUOUS
10
4.06988
20
-4.50591
11
4.33957
21
-4.50591
0
LINE
8
BLACK
6
CONTINUOUS
10
4.33957
20
-4.50591
11
4.33957
21
-4.49044
0
LINE
8
BLACK
6
CONTINUOUS
10
4.33957
20
-4.49044
11
4.3396
21
-4.49009
0
LINE
8
BLACK
6
CONTINUOUS
10
4.3396
20
-4.49009
11
4.33974
21
-4.48964
0
LINE
8
BLACK
6
CONTINUOUS
10
4.33974
20
-4.48964
11
4.33996
21
-4.48923
0
LINE
8
BLACK
6
CONTINUOUS
10
4.33996
20
-4.48923
11
4.34025
21
-4.48887
0
LINE
8
BLACK
6
CONTINUOUS
10
4.34025
20
-4.48887
11
4.34061
21
-4.48858
0
LINE
8
BLACK
6
CONTINUOUS
10
4.34061
20
-4.48858
11
4.34102
21
-4.48836
0
LINE
8
BLACK
6
CONTINUOUS
10
4.34102
20
-4.48836
11
4.34147
21
-4.48822
0
LINE
8
BLACK
6
CONTINUOUS
10
4.34147
20
-4.48822
11
4.34193
21
-4.48818
0
LINE
8
BLACK
6
CONTINUOUS
10
4.34193
20
-4.48818
11
4.34239
21
-4.48822
0
LINE
8
BLACK
6
CONTINUOUS
10
3.86208
20
-4.48822
11
3.86252
21
-4.48836
0
LINE
8
BLACK
6
CONTINUOUS
10
3.86252
20
-4.48836
11
3.86293
21
-4.48858
0
LINE
8
BLACK
6
CONTINUOUS
10
3.86293
20
-4.48858
11
3.86329
21
-4.48887
0
LINE
8
BLACK
6
CONTINUOUS
10
3.86329
20
-4.48887
11
3.86359
21
-4.48923
0
LINE
8
BLACK
6
CONTINUOUS
10
3.86359
20
-4.48923
11
3.86381
21
-4.48964
0
LINE
8
BLACK
6
CONTINUOUS
10
3.86381
20
-4.48964
11
3.86394
21
-4.49009
0
LINE
8
BLACK
6
CONTINUOUS
10
3.86394
20
-4.49009
11
3.86398
21
-4.49044
0
LINE
8
BLACK
6
CONTINUOUS
10
3.86398
20
-4.49044
11
3.86398
21
-4.50815
0
LINE
8
BLACK
6
CONTINUOUS
10
3.86398
20
-4.50815
11
3.86399
21
-4.50827
0
LINE
8
BLACK
6
CONTINUOUS
10
3.86399
20
-4.50827
11
3.86398
21
-4.50838
0
LINE
8
BLACK
6
CONTINUOUS
10
3.86398
20
-4.50838
11
3.86398
21
-4.50838
0
LINE
8
BLACK
6
CONTINUOUS
10
3.86398
20
-4.50838
11
3.86394
21
-4.50873
0
LINE
8
BLACK
6
CONTINUOUS
10
3.86394
20
-4.50873
11
3.86381
21
-4.50918
0
LINE
8
BLACK
6
CONTINUOUS
10
3.86381
20
-4.50918
11
3.86359
21
-4.50959
0
LINE
8
BLACK
6
CONTINUOUS
10
3.86359
20
-4.50959
11
3.86329
21
-4.50995
0
LINE
8
BLACK
6
CONTINUOUS
10
3.86329
20
-4.50995
11
3.86293
21
-4.51024
0
LINE
8
BLACK
6
CONTINUOUS
10
3.86293
20
-4.51024
11
3.86252
21
-4.51046
0
LINE
8
BLACK
6
CONTINUOUS
10
3.86252
20
-4.51046
11
3.86208
21
-4.5106
0
LINE
8
BLACK
6
CONTINUOUS
10
3.86208
20
-4.5106
11
3.86161
21
-4.51064
0
LINE
8
BLACK
6
CONTINUOUS
10
3.86161
20
-4.51064
11
3.8615
21
-4.51063
0
LINE
8
BLACK
6
CONTINUOUS
10
3.8615
20
-4.51063
11
3.58732
21
-4.51063
0
LINE
8
BLACK
6
CONTINUOUS
10
3.58732
20
-4.51063
11
3.5872
21
-4.51064
0
LINE
8
BLACK
6
CONTINUOUS
10
3.5872
20
-4.51064
11
3.58674
21
-4.5106
0
LINE
8
BLACK
6
CONTINUOUS
10
3.58674
20
-4.5106
11
3.5863
21
-4.51046
0
LINE
8
BLACK
6
CONTINUOUS
10
3.5863
20
-4.51046
11
3.58589
21
-4.51024
0
LINE
8
BLACK
6
CONTINUOUS
10
3.58589
20
-4.51024
11
3.58553
21
-4.50995
0
LINE
8
BLACK
6
CONTINUOUS
10
3.58553
20
-4.50995
11
3.58523
21
-4.50959
0
LINE
8
BLACK
6
CONTINUOUS
10
3.58523
20
-4.50959
11
3.58501
21
-4.50918
0
LINE
8
BLACK
6
CONTINUOUS
10
3.58501
20
-4.50918
11
3.58488
21
-4.50873
0
LINE
8
BLACK
6
CONTINUOUS
10
3.58488
20
-4.50873
11
3.58483
21
-4.50827
0
LINE
8
BLACK
6
CONTINUOUS
10
3.58483
20
-4.50827
11
3.58484
21
-4.50815
0
LINE
8
BLACK
6
CONTINUOUS
10
3.58484
20
-4.50815
11
3.58484
21
-4.49044
0
LINE
8
BLACK
6
CONTINUOUS
10
3.58484
20
-4.49044
11
3.58488
21
-4.49009
0
LINE
8
BLACK
6
CONTINUOUS
10
3.58488
20
-4.49009
11
3.58501
21
-4.48964
0
LINE
8
BLACK
6
CONTINUOUS
10
3.58501
20
-4.48964
11
3.58523
21
-4.48923
0
LINE
8
BLACK
6
CONTINUOUS
10
3.58523
20
-4.48923
11
3.58553
21
-4.48887
0
LINE
8
BLACK
6
CONTINUOUS
10
3.58553
20
-4.48887
11
3.58589
21
-4.48858
0
LINE
8
BLACK
6
CONTINUOUS
10
3.58589
20
-4.48858
11
3.5863
21
-4.48836
0
LINE
8
BLACK
6
CONTINUOUS
10
3.5863
20
-4.48836
11
3.58674
21
-4.48822
0
LINE
8
BLACK
6
CONTINUOUS
10
3.58674
20
-4.48822
11
3.5872
21
-4.48818
0
LINE
8
BLACK
6
CONTINUOUS
10
3.5872
20
-4.48818
11
3.58767
21
-4.48822
0
LINE
8
BLACK
6
CONTINUOUS
10
3.58767
20
-4.48822
11
3.58811
21
-4.48836
0
LINE
8
BLACK
6
CONTINUOUS
10
3.58811
20
-4.48836
11
3.58852
21
-4.48858
0
LINE
8
BLACK
6
CONTINUOUS
10
3.58852
20
-4.48858
11
3.58888
21
-4.48887
0
LINE
8
BLACK
6
CONTINUOUS
10
3.58888
20
-4.48887
11
3.58918
21
-4.48923
0
LINE
8
BLACK
6
CONTINUOUS
10
3.58918
20
-4.48923
11
3.5894
21
-4.48964
0
LINE
8
BLACK
6
CONTINUOUS
10
3.5894
20
-4.48964
11
3.58953
21
-4.49009
0
LINE
8
BLACK
6
CONTINUOUS
10
3.58953
20
-4.49009
11
3.58957
21
-4.49044
0
LINE
8
BLACK
6
CONTINUOUS
10
3.58957
20
-4.49044
11
3.58957
21
-4.50591
0
LINE
8
BLACK
6
CONTINUOUS
10
3.58957
20
-4.50591
11
3.85925
21
-4.50591
0
LINE
8
BLACK
6
CONTINUOUS
10
3.85925
20
-4.50591
11
3.85925
21
-4.49044
0
LINE
8
BLACK
6
CONTINUOUS
10
3.85925
20
-4.49044
11
3.85929
21
-4.49009
0
LINE
8
BLACK
6
CONTINUOUS
10
3.85929
20
-4.49009
11
3.85942
21
-4.48964
0
LINE
8
BLACK
6
CONTINUOUS
10
3.85942
20
-4.48964
11
3.85964
21
-4.48923
0
LINE
8
BLACK
6
CONTINUOUS
10
3.85964
20
-4.48923
11
3.85994
21
-4.48887
0
LINE
8
BLACK
6
CONTINUOUS
10
3.85994
20
-4.48887
11
3.8603
21
-4.48858
0
LINE
8
BLACK
6
CONTINUOUS
10
3.8603
20
-4.48858
11
3.86071
21
-4.48836
0
LINE
8
BLACK
6
CONTINUOUS
10
3.86071
20
-4.48836
11
3.86115
21
-4.48822
0
LINE
8
BLACK
6
CONTINUOUS
10
3.86115
20
-4.48822
11
3.86161
21
-4.48818
0
LINE
8
BLACK
6
CONTINUOUS
10
3.86161
20
-4.48818
11
3.86208
21
-4.48822
0
LINE
8
BLACK
6
CONTINUOUS
10
4.06764
20
-4.33189
11
4.10504
21
-4.33189
0
LINE
8
BLACK
6
CONTINUOUS
10
4.10504
20
-4.33189
11
4.10538
21
-4.33192
0
LINE
8
BLACK
6
CONTINUOUS
10
4.10538
20
-4.33192
11
4.10583
21
-4.33206
0
LINE
8
BLACK
6
CONTINUOUS
10
4.10583
20
-4.33206
11
4.10624
21
-4.33228
0
LINE
8
BLACK
6
CONTINUOUS
10
4.10624
20
-4.33228
11
4.1066
21
-4.33257
0
LINE
8
BLACK
6
CONTINUOUS
10
4.1066
20
-4.33257
11
4.10689
21
-4.33293
0
LINE
8
BLACK
6
CONTINUOUS
10
4.10689
20
-4.33293
11
4.10711
21
-4.33334
0
LINE
8
BLACK
6
CONTINUOUS
10
4.10711
20
-4.33334
11
4.10725
21
-4.33379
0
LINE
8
BLACK
6
CONTINUOUS
10
4.10725
20
-4.33379
11
4.10729
21
-4.33425
0
LINE
8
BLACK
6
CONTINUOUS
10
4.10729
20
-4.33425
11
4.10725
21
-4.33472
0
LINE
8
BLACK
6
CONTINUOUS
10
4.10725
20
-4.33472
11
4.10711
21
-4.33516
0
LINE
8
BLACK
6
CONTINUOUS
10
4.10711
20
-4.33516
11
4.10689
21
-4.33557
0
LINE
8
BLACK
6
CONTINUOUS
10
4.10689
20
-4.33557
11
4.1066
21
-4.33593
0
LINE
8
BLACK
6
CONTINUOUS
10
4.1066
20
-4.33593
11
4.10624
21
-4.33623
0
LINE
8
BLACK
6
CONTINUOUS
10
4.10624
20
-4.33623
11
4.10583
21
-4.33644
0
LINE
8
BLACK
6
CONTINUOUS
10
4.10583
20
-4.33644
11
4.10538
21
-4.33658
0
LINE
8
BLACK
6
CONTINUOUS
10
4.10538
20
-4.33658
11
4.10504
21
-4.33661
0
LINE
8
BLACK
6
CONTINUOUS
10
4.10504
20
-4.33661
11
4.06988
21
-4.33661
0
LINE
8
BLACK
6
CONTINUOUS
10
4.06988
20
-4.33661
11
4.06988
21
-4.35208
0
LINE
8
BLACK
6
CONTINUOUS
10
4.06988
20
-4.35208
11
4.06985
21
-4.35243
0
LINE
8
BLACK
6
CONTINUOUS
10
4.06985
20
-4.35243
11
4.06971
21
-4.35288
0
LINE
8
BLACK
6
CONTINUOUS
10
4.06971
20
-4.35288
11
4.06949
21
-4.35329
0
LINE
8
BLACK
6
CONTINUOUS
10
4.06949
20
-4.35329
11
4.0692
21
-4.35365
0
LINE
8
BLACK
6
CONTINUOUS
10
4.0692
20
-4.35365
11
4.06884
21
-4.35394
0
LINE
8
BLACK
6
CONTINUOUS
10
4.06884
20
-4.35394
11
4.06843
21
-4.35416
0
LINE
8
BLACK
6
CONTINUOUS
10
4.06843
20
-4.35416
11
4.06798
21
-4.3543
0
LINE
8
BLACK
6
CONTINUOUS
10
4.06798
20
-4.3543
11
4.06752
21
-4.35434
0
LINE
8
BLACK
6
CONTINUOUS
10
4.06752
20
-4.35434
11
4.06706
21
-4.3543
0
LINE
8
BLACK
6
CONTINUOUS
10
4.06706
20
-4.3543
11
4.06661
21
-4.35416
0
LINE
8
BLACK
6
CONTINUOUS
10
4.06661
20
-4.35416
11
4.0662
21
-4.35394
0
LINE
8
BLACK
6
CONTINUOUS
10
4.0662
20
-4.35394
11
4.06584
21
-4.35365
0
LINE
8
BLACK
6
CONTINUOUS
10
4.06584
20
-4.35365
11
4.06555
21
-4.35329
0
LINE
8
BLACK
6
CONTINUOUS
10
4.06555
20
-4.35329
11
4.06533
21
-4.35288
0
LINE
8
BLACK
6
CONTINUOUS
10
4.06533
20
-4.35288
11
4.06519
21
-4.35243
0
LINE
8
BLACK
6
CONTINUOUS
10
4.06519
20
-4.35243
11
4.06516
21
-4.35208
0
LINE
8
BLACK
6
CONTINUOUS
10
4.06516
20
-4.35208
11
4.06516
21
-4.33437
0
LINE
8
BLACK
6
CONTINUOUS
10
4.06516
20
-4.33437
11
4.06515
21
-4.33425
0
LINE
8
BLACK
6
CONTINUOUS
10
4.06515
20
-4.33425
11
4.06519
21
-4.33379
0
LINE
8
BLACK
6
CONTINUOUS
10
4.06519
20
-4.33379
11
4.06533
21
-4.33334
0
LINE
8
BLACK
6
CONTINUOUS
10
4.06533
20
-4.33334
11
4.06555
21
-4.33293
0
LINE
8
BLACK
6
CONTINUOUS
10
4.06555
20
-4.33293
11
4.06584
21
-4.33257
0
LINE
8
BLACK
6
CONTINUOUS
10
4.06584
20
-4.33257
11
4.0662
21
-4.33228
0
LINE
8
BLACK
6
CONTINUOUS
10
4.0662
20
-4.33228
11
4.06661
21
-4.33206
0
LINE
8
BLACK
6
CONTINUOUS
10
4.06661
20
-4.33206
11
4.06706
21
-4.33192
0
LINE
8
BLACK
6
CONTINUOUS
10
4.06706
20
-4.33192
11
4.0674
21
-4.33189
0
LINE
8
BLACK
6
CONTINUOUS
10
4.0674
20
-4.33189
11
4.0674
21
-4.33189
0
LINE
8
BLACK
6
CONTINUOUS
10
4.0674
20
-4.33189
11
4.06752
21
-4.33188
0
LINE
8
BLACK
6
CONTINUOUS
10
4.06752
20
-4.33188
11
4.06764
21
-4.33189
0
LINE
8
BLACK
6
CONTINUOUS
10
4.30499
20
-4.27326
11
4.30544
21
-4.2734
0
LINE
8
BLACK
6
CONTINUOUS
10
4.30544
20
-4.2734
11
4.30585
21
-4.27362
0
LINE
8
BLACK
6
CONTINUOUS
10
4.30585
20
-4.27362
11
4.30621
21
-4.27391
0
LINE
8
BLACK
6
CONTINUOUS
10
4.30621
20
-4.27391
11
4.3065
21
-4.27427
0
LINE
8
BLACK
6
CONTINUOUS
10
4.3065
20
-4.27427
11
4.30672
21
-4.27468
0
LINE
8
BLACK
6
CONTINUOUS
10
4.30672
20
-4.27468
11
4.30686
21
-4.27513
0
LINE
8
BLACK
6
CONTINUOUS
10
4.30686
20
-4.27513
11
4.30689
21
-4.27547
0
LINE
8
BLACK
6
CONTINUOUS
10
4.30689
20
-4.27547
11
4.30689
21
-4.33189
0
LINE
8
BLACK
6
CONTINUOUS
10
4.30689
20
-4.33189
11
4.34181
21
-4.33189
0
LINE
8
BLACK
6
CONTINUOUS
10
4.34181
20
-4.33189
11
4.34193
21
-4.33188
0
LINE
8
BLACK
6
CONTINUOUS
10
4.34193
20
-4.33188
11
4.34205
21
-4.33189
0
LINE
8
BLACK
6
CONTINUOUS
10
4.34205
20
-4.33189
11
4.34239
21
-4.33192
0
LINE
8
BLACK
6
CONTINUOUS
10
4.34239
20
-4.33192
11
4.34284
21
-4.33206
0
LINE
8
BLACK
6
CONTINUOUS
10
4.34284
20
-4.33206
11
4.34325
21
-4.33228
0
LINE
8
BLACK
6
CONTINUOUS
10
4.34325
20
-4.33228
11
4.34361
21
-4.33257
0
LINE
8
BLACK
6
CONTINUOUS
10
4.34361
20
-4.33257
11
4.3439
21
-4.33293
0
LINE
8
BLACK
6
CONTINUOUS
10
4.3439
20
-4.33293
11
4.34412
21
-4.33334
0
LINE
8
BLACK
6
CONTINUOUS
10
4.34412
20
-4.33334
11
4.34426
21
-4.33379
0
LINE
8
BLACK
6
CONTINUOUS
10
4.34426
20
-4.33379
11
4.3443
21
-4.33425
0
LINE
8
BLACK
6
CONTINUOUS
10
4.3443
20
-4.33425
11
4.34429
21
-4.33437
0
LINE
8
BLACK
6
CONTINUOUS
10
4.34429
20
-4.33437
11
4.34429
21
-4.35208
0
LINE
8
BLACK
6
CONTINUOUS
10
4.34429
20
-4.35208
11
4.34426
21
-4.35243
0
LINE
8
BLACK
6
CONTINUOUS
10
4.34426
20
-4.35243
11
4.34412
21
-4.35288
0
LINE
8
BLACK
6
CONTINUOUS
10
4.34412
20
-4.35288
11
4.3439
21
-4.35329
0
LINE
8
BLACK
6
CONTINUOUS
10
4.3439
20
-4.35329
11
4.34361
21
-4.35365
0
LINE
8
BLACK
6
CONTINUOUS
10
4.34361
20
-4.35365
11
4.34325
21
-4.35394
0
LINE
8
BLACK
6
CONTINUOUS
10
4.34325
20
-4.35394
11
4.34284
21
-4.35416
0
LINE
8
BLACK
6
CONTINUOUS
10
4.34284
20
-4.35416
11
4.34239
21
-4.3543
0
LINE
8
BLACK
6
CONTINUOUS
10
4.34239
20
-4.3543
11
4.34193
21
-4.35434
0
LINE
8
BLACK
6
CONTINUOUS
10
4.34193
20
-4.35434
11
4.34147
21
-4.3543
0
LINE
8
BLACK
6
CONTINUOUS
10
4.34147
20
-4.3543
11
4.34102
21
-4.35416
0
LINE
8
BLACK
6
CONTINUOUS
10
4.34102
20
-4.35416
11
4.34061
21
-4.35394
0
LINE
8
BLACK
6
CONTINUOUS
10
4.34061
20
-4.35394
11
4.34025
21
-4.35365
0
LINE
8
BLACK
6
CONTINUOUS
10
4.34025
20
-4.35365
11
4.33996
21
-4.35329
0
LINE
8
BLACK
6
CONTINUOUS
10
4.33996
20
-4.35329
11
4.33974
21
-4.35288
0
LINE
8
BLACK
6
CONTINUOUS
10
4.33974
20
-4.35288
11
4.3396
21
-4.35243
0
LINE
8
BLACK
6
CONTINUOUS
10
4.3396
20
-4.35243
11
4.33957
21
-4.35208
0
LINE
8
BLACK
6
CONTINUOUS
10
4.33957
20
-4.35208
11
4.33957
21
-4.33661
0
LINE
8
BLACK
6
CONTINUOUS
10
4.33957
20
-4.33661
11
4.30464
21
-4.33661
0
LINE
8
BLACK
6
CONTINUOUS
10
4.30464
20
-4.33661
11
4.30453
21
-4.33663
0
LINE
8
BLACK
6
CONTINUOUS
10
4.30453
20
-4.33663
11
4.30406
21
-4.33658
0
LINE
8
BLACK
6
CONTINUOUS
10
4.30406
20
-4.33658
11
4.30362
21
-4.33644
0
LINE
8
BLACK
6
CONTINUOUS
10
4.30362
20
-4.33644
11
4.30321
21
-4.33623
0
LINE
8
BLACK
6
CONTINUOUS
10
4.30321
20
-4.33623
11
4.30285
21
-4.33593
0
LINE
8
BLACK
6
CONTINUOUS
10
4.30285
20
-4.33593
11
4.30255
21
-4.33557
0
LINE
8
BLACK
6
CONTINUOUS
10
4.30255
20
-4.33557
11
4.30233
21
-4.33516
0
LINE
8
BLACK
6
CONTINUOUS
10
4.30233
20
-4.33516
11
4.3022
21
-4.33472
0
LINE
8
BLACK
6
CONTINUOUS
10
4.3022
20
-4.33472
11
4.30215
21
-4.33425
0
LINE
8
BLACK
6
CONTINUOUS
10
4.30215
20
-4.33425
11
4.30217
21
-4.33414
0
LINE
8
BLACK
6
CONTINUOUS
10
4.30217
20
-4.33414
11
4.30217
21
-4.27547
0
LINE
8
BLACK
6
CONTINUOUS
10
4.30217
20
-4.27547
11
4.3022
21
-4.27513
0
LINE
8
BLACK
6
CONTINUOUS
10
4.3022
20
-4.27513
11
4.30233
21
-4.27468
0
LINE
8
BLACK
6
CONTINUOUS
10
4.30233
20
-4.27468
11
4.30255
21
-4.27427
0
LINE
8
BLACK
6
CONTINUOUS
10
4.30255
20
-4.27427
11
4.30285
21
-4.27391
0
LINE
8
BLACK
6
CONTINUOUS
10
4.30285
20
-4.27391
11
4.30321
21
-4.27362
0
LINE
8
BLACK
6
CONTINUOUS
10
4.30321
20
-4.27362
11
4.30362
21
-4.2734
0
LINE
8
BLACK
6
CONTINUOUS
10
4.30362
20
-4.2734
11
4.30406
21
-4.27326
0
LINE
8
BLACK
6
CONTINUOUS
10
4.30406
20
-4.27326
11
4.30453
21
-4.27322
0
LINE
8
BLACK
6
CONTINUOUS
10
4.30453
20
-4.27322
11
4.30499
21
-4.27326
0
LINE
8
BLACK
6
CONTINUOUS
10
3.82468
20
-4.27326
11
3.82512
21
-4.2734
0
LINE
8
BLACK
6
CONTINUOUS
10
3.82512
20
-4.2734
11
3.82553
21
-4.27362
0
LINE
8
BLACK
6
CONTINUOUS
10
3.82553
20
-4.27362
11
3.82589
21
-4.27391
0
LINE
8
BLACK
6
CONTINUOUS
10
3.82589
20
-4.27391
11
3.82619
21
-4.27427
0
LINE
8
BLACK
6
CONTINUOUS
10
3.82619
20
-4.27427
11
3.82641
21
-4.27468
0
LINE
8
BLACK
6
CONTINUOUS
10
3.82641
20
-4.27468
11
3.82654
21
-4.27513
0
LINE
8
BLACK
6
CONTINUOUS
10
3.82654
20
-4.27513
11
3.82657
21
-4.27547
0
LINE
8
BLACK
6
CONTINUOUS
10
3.82657
20
-4.27547
11
3.82657
21
-4.33189
0
LINE
8
BLACK
6
CONTINUOUS
10
3.82657
20
-4.33189
11
3.8615
21
-4.33189
0
LINE
8
BLACK
6
CONTINUOUS
10
3.8615
20
-4.33189
11
3.86161
21
-4.33188
0
LINE
8
BLACK
6
CONTINUOUS
10
3.86161
20
-4.33188
11
3.86173
21
-4.33189
0
LINE
8
BLACK
6
CONTINUOUS
10
3.86173
20
-4.33189
11
3.86208
21
-4.33192
0
LINE
8
BLACK
6
CONTINUOUS
10
3.86208
20
-4.33192
11
3.86252
21
-4.33206
0
LINE
8
BLACK
6
CONTINUOUS
10
3.86252
20
-4.33206
11
3.86293
21
-4.33228
0
LINE
8
BLACK
6
CONTINUOUS
10
3.86293
20
-4.33228
11
3.86329
21
-4.33257
0
LINE
8
BLACK
6
CONTINUOUS
10
3.86329
20
-4.33257
11
3.86359
21
-4.33293
0
LINE
8
BLACK
6
CONTINUOUS
10
3.86359
20
-4.33293
11
3.86381
21
-4.33334
0
LINE
8
BLACK
6
CONTINUOUS
10
3.86381
20
-4.33334
11
3.86394
21
-4.33379
0
LINE
8
BLACK
6
CONTINUOUS
10
3.86394
20
-4.33379
11
3.86399
21
-4.33425
0
LINE
8
BLACK
6
CONTINUOUS
10
3.86399
20
-4.33425
11
3.86398
21
-4.33437
0
LINE
8
BLACK
6
CONTINUOUS
10
3.86398
20
-4.33437
11
3.86398
21
-4.35208
0
LINE
8
BLACK
6
CONTINUOUS
10
3.86398
20
-4.35208
11
3.86394
21
-4.35243
0
LINE
8
BLACK
6
CONTINUOUS
10
3.86394
20
-4.35243
11
3.86381
21
-4.35288
0
LINE
8
BLACK
6
CONTINUOUS
10
3.86381
20
-4.35288
11
3.86359
21
-4.35329
0
LINE
8
BLACK
6
CONTINUOUS
10
3.86359
20
-4.35329
11
3.86329
21
-4.35365
0
LINE
8
BLACK
6
CONTINUOUS
10
3.86329
20
-4.35365
11
3.86293
21
-4.35394
0
LINE
8
BLACK
6
CONTINUOUS
10
3.86293
20
-4.35394
11
3.86252
21
-4.35416
0
LINE
8
BLACK
6
CONTINUOUS
10
3.86252
20
-4.35416
11
3.86208
21
-4.3543
0
LINE
8
BLACK
6
CONTINUOUS
10
3.86208
20
-4.3543
11
3.86161
21
-4.35434
0
LINE
8
BLACK
6
CONTINUOUS
10
3.86161
20
-4.35434
11
3.86115
21
-4.3543
0
LINE
8
BLACK
6
CONTINUOUS
10
3.86115
20
-4.3543
11
3.86071
21
-4.35416
0
LINE
8
BLACK
6
CONTINUOUS
10
3.86071
20
-4.35416
11
3.8603
21
-4.35394
0
LINE
8
BLACK
6
CONTINUOUS
10
3.8603
20
-4.35394
11
3.85994
21
-4.35365
0
LINE
8
BLACK
6
CONTINUOUS
10
3.85994
20
-4.35365
11
3.85964
21
-4.35329
0
LINE
8
BLACK
6
CONTINUOUS
10
3.85964
20
-4.35329
11
3.85942
21
-4.35288
0
LINE
8
BLACK
6
CONTINUOUS
10
3.85942
20
-4.35288
11
3.85929
21
-4.35243
0
LINE
8
BLACK
6
CONTINUOUS
10
3.85929
20
-4.35243
11
3.85925
21
-4.35208
0
LINE
8
BLACK
6
CONTINUOUS
10
3.85925
20
-4.35208
11
3.85925
21
-4.33661
0
LINE
8
BLACK
6
CONTINUOUS
10
3.85925
20
-4.33661
11
3.82433
21
-4.33661
0
LINE
8
BLACK
6
CONTINUOUS
10
3.82433
20
-4.33661
11
3.82421
21
-4.33663
0
LINE
8
BLACK
6
CONTINUOUS
10
3.82421
20
-4.33663
11
3.82375
21
-4.33658
0
LINE
8
BLACK
6
CONTINUOUS
10
3.82375
20
-4.33658
11
3.8233
21
-4.33644
0
LINE
8
BLACK
6
CONTINUOUS
10
3.8233
20
-4.33644
11
3.82289
21
-4.33623
0
LINE
8
BLACK
6
CONTINUOUS
10
3.82289
20
-4.33623
11
3.82253
21
-4.33593
0
LINE
8
BLACK
6
CONTINUOUS
10
3.82253
20
-4.33593
11
3.82224
21
-4.33557
0
LINE
8
BLACK
6
CONTINUOUS
10
3.82224
20
-4.33557
11
3.82202
21
-4.33516
0
LINE
8
BLACK
6
CONTINUOUS
10
3.82202
20
-4.33516
11
3.82188
21
-4.33472
0
LINE
8
BLACK
6
CONTINUOUS
10
3.82188
20
-4.33472
11
3.82184
21
-4.33425
0
LINE
8
BLACK
6
CONTINUOUS
10
3.82184
20
-4.33425
11
3.82185
21
-4.33414
0
LINE
8
BLACK
6
CONTINUOUS
10
3.82185
20
-4.33414
11
3.82185
21
-4.27547
0
LINE
8
BLACK
6
CONTINUOUS
10
3.82185
20
-4.27547
11
3.82188
21
-4.27513
0
LINE
8
BLACK
6
CONTINUOUS
10
3.82188
20
-4.27513
11
3.82202
21
-4.27468
0
LINE
8
BLACK
6
CONTINUOUS
10
3.82202
20
-4.27468
11
3.82224
21
-4.27427
0
LINE
8
BLACK
6
CONTINUOUS
10
3.82224
20
-4.27427
11
3.82253
21
-4.27391
0
LINE
8
BLACK
6
CONTINUOUS
10
3.82253
20
-4.27391
11
3.82289
21
-4.27362
0
LINE
8
BLACK
6
CONTINUOUS
10
3.82289
20
-4.27362
11
3.8233
21
-4.2734
0
LINE
8
BLACK
6
CONTINUOUS
10
3.8233
20
-4.2734
11
3.82375
21
-4.27326
0
LINE
8
BLACK
6
CONTINUOUS
10
3.82375
20
-4.27326
11
3.82421
21
-4.27322
0
LINE
8
BLACK
6
CONTINUOUS
10
3.82421
20
-4.27322
11
3.82468
21
-4.27326
0
LINE
8
BLACK
6
CONTINUOUS
10
3.58732
20
-4.33189
11
3.62472
21
-4.33189
0
LINE
8
BLACK
6
CONTINUOUS
10
3.62472
20
-4.33189
11
3.62507
21
-4.33192
0
LINE
8
BLACK
6
CONTINUOUS
10
3.62507
20
-4.33192
11
3.62551
21
-4.33206
0
LINE
8
BLACK
6
CONTINUOUS
10
3.62551
20
-4.33206
11
3.62593
21
-4.33228
0
LINE
8
BLACK
6
CONTINUOUS
10
3.62593
20
-4.33228
11
3.62628
21
-4.33257
0
LINE
8
BLACK
6
CONTINUOUS
10
3.62628
20
-4.33257
11
3.62658
21
-4.33293
0
LINE
8
BLACK
6
CONTINUOUS
10
3.62658
20
-4.33293
11
3.6268
21
-4.33334
0
LINE
8
BLACK
6
CONTINUOUS
10
3.6268
20
-4.33334
11
3.62693
21
-4.33379
0
LINE
8
BLACK
6
CONTINUOUS
10
3.62693
20
-4.33379
11
3.62698
21
-4.33425
0
LINE
8
BLACK
6
CONTINUOUS
10
3.62698
20
-4.33425
11
3.62693
21
-4.33472
0
LINE
8
BLACK
6
CONTINUOUS
10
3.62693
20
-4.33472
11
3.6268
21
-4.33516
0
LINE
8
BLACK
6
CONTINUOUS
10
3.6268
20
-4.33516
11
3.62658
21
-4.33557
0
LINE
8
BLACK
6
CONTINUOUS
10
3.62658
20
-4.33557
11
3.62628
21
-4.33593
0
LINE
8
BLACK
6
CONTINUOUS
10
3.62628
20
-4.33593
11
3.62593
21
-4.33623
0
LINE
8
BLACK
6
CONTINUOUS
10
3.62593
20
-4.33623
11
3.62551
21
-4.33644
0
LINE
8
BLACK
6
CONTINUOUS
10
3.62551
20
-4.33644
11
3.62507
21
-4.33658
0
LINE
8
BLACK
6
CONTINUOUS
10
3.62507
20
-4.33658
11
3.62472
21
-4.33661
0
LINE
8
BLACK
6
CONTINUOUS
10
3.62472
20
-4.33661
11
3.58957
21
-4.33661
0
LINE
8
BLACK
6
CONTINUOUS
10
3.58957
20
-4.33661
11
3.58957
21
-4.35208
0
LINE
8
BLACK
6
CONTINUOUS
10
3.58957
20
-4.35208
11
3.58953
21
-4.35243
0
LINE
8
BLACK
6
CONTINUOUS
10
3.58953
20
-4.35243
11
3.5894
21
-4.35288
0
LINE
8
BLACK
6
CONTINUOUS
10
3.5894
20
-4.35288
11
3.58918
21
-4.35329
0
LINE
8
BLACK
6
CONTINUOUS
10
3.58918
20
-4.35329
11
3.58888
21
-4.35365
0
LINE
8
BLACK
6
CONTINUOUS
10
3.58888
20
-4.35365
11
3.58852
21
-4.35394
0
LINE
8
BLACK
6
CONTINUOUS
10
3.58852
20
-4.35394
11
3.58811
21
-4.35416
0
LINE
8
BLACK
6
CONTINUOUS
10
3.58811
20
-4.35416
11
3.58767
21
-4.3543
0
LINE
8
BLACK
6
CONTINUOUS
10
3.58767
20
-4.3543
11
3.5872
21
-4.35434
0
LINE
8
BLACK
6
CONTINUOUS
10
3.5872
20
-4.35434
11
3.58674
21
-4.3543
0
LINE
8
BLACK
6
CONTINUOUS
10
3.58674
20
-4.3543
11
3.5863
21
-4.35416
0
LINE
8
BLACK
6
CONTINUOUS
10
3.5863
20
-4.35416
11
3.58589
21
-4.35394
0
LINE
8
BLACK
6
CONTINUOUS
10
3.58589
20
-4.35394
11
3.58553
21
-4.35365
0
LINE
8
BLACK
6
CONTINUOUS
10
3.58553
20
-4.35365
11
3.58523
21
-4.35329
0
LINE
8
BLACK
6
CONTINUOUS
10
3.58523
20
-4.35329
11
3.58501
21
-4.35288
0
LINE
8
BLACK
6
CONTINUOUS
10
3.58501
20
-4.35288
11
3.58488
21
-4.35243
0
LINE
8
BLACK
6
CONTINUOUS
10
3.58488
20
-4.35243
11
3.58484
21
-4.35208
0
LINE
8
BLACK
6
CONTINUOUS
10
3.58484
20
-4.35208
11
3.58484
21
-4.33437
0
LINE
8
BLACK
6
CONTINUOUS
10
3.58484
20
-4.33437
11
3.58483
21
-4.33425
0
LINE
8
BLACK
6
CONTINUOUS
10
3.58483
20
-4.33425
11
3.58488
21
-4.33379
0
LINE
8
BLACK
6
CONTINUOUS
10
3.58488
20
-4.33379
11
3.58501
21
-4.33334
0
LINE
8
BLACK
6
CONTINUOUS
10
3.58501
20
-4.33334
11
3.58523
21
-4.33293
0
LINE
8
BLACK
6
CONTINUOUS
10
3.58523
20
-4.33293
11
3.58553
21
-4.33257
0
LINE
8
BLACK
6
CONTINUOUS
10
3.58553
20
-4.33257
11
3.58589
21
-4.33228
0
LINE
8
BLACK
6
CONTINUOUS
10
3.58589
20
-4.33228
11
3.5863
21
-4.33206
0
LINE
8
BLACK
6
CONTINUOUS
10
3.5863
20
-4.33206
11
3.58674
21
-4.33192
0
LINE
8
BLACK
6
CONTINUOUS
10
3.58674
20
-4.33192
11
3.58709
21
-4.33189
0
LINE
8
BLACK
6
CONTINUOUS
10
3.58709
20
-4.33189
11
3.58709
21
-4.33189
0
LINE
8
BLACK
6
CONTINUOUS
10
3.58709
20
-4.33189
11
3.5872
21
-4.33188
0
LINE
8
BLACK
6
CONTINUOUS
10
3.5872
20
-4.33188
11
3.58732
21
-4.33189
0
LINE
8
BLACK
6
CONTINUOUS
10
3.69812
20
-4.24911
11
3.69755
21
-4.24904
0
LINE
8
BLACK
6
CONTINUOUS
10
3.69755
20
-4.24904
11
3.697
21
-4.24887
0
LINE
8
BLACK
6
CONTINUOUS
10
3.697
20
-4.24887
11
3.69649
21
-4.24859
0
LINE
8
BLACK
6
CONTINUOUS
10
3.69649
20
-4.24859
11
3.69605
21
-4.24822
0
LINE
8
BLACK
6
CONTINUOUS
10
3.69605
20
-4.24822
11
3.69569
21
-4.24777
0
LINE
8
BLACK
6
CONTINUOUS
10
3.69569
20
-4.24777
11
3.69542
21
-4.24726
0
LINE
8
BLACK
6
CONTINUOUS
10
3.69542
20
-4.24726
11
3.69526
21
-4.24671
0
LINE
8
BLACK
6
CONTINUOUS
10
3.69526
20
-4.24671
11
3.69521
21
-4.24614
0
LINE
8
BLACK
6
CONTINUOUS
10
3.69521
20
-4.24614
11
3.69527
21
-4.24556
0
LINE
8
BLACK
6
CONTINUOUS
10
3.69527
20
-4.24556
11
3.69544
21
-4.24501
0
LINE
8
BLACK
6
CONTINUOUS
10
3.69544
20
-4.24501
11
3.69571
21
-4.24451
0
LINE
8
BLACK
6
CONTINUOUS
10
3.69571
20
-4.24451
11
3.69608
21
-4.24406
0
LINE
8
BLACK
6
CONTINUOUS
10
3.69608
20
-4.24406
11
3.69653
21
-4.2437
0
LINE
8
BLACK
6
CONTINUOUS
10
3.69653
20
-4.2437
11
3.69704
21
-4.24343
0
LINE
8
BLACK
6
CONTINUOUS
10
3.69704
20
-4.24343
11
3.69759
21
-4.24326
0
LINE
8
BLACK
6
CONTINUOUS
10
3.69759
20
-4.24326
11
3.69816
21
-4.2432
0
LINE
8
BLACK
6
CONTINUOUS
10
3.69816
20
-4.2432
11
3.71541
21
-4.2432
0
LINE
8
BLACK
6
CONTINUOUS
10
3.71541
20
-4.2432
11
3.69795
21
-4.22575
0
LINE
8
BLACK
6
CONTINUOUS
10
3.69795
20
-4.22575
11
3.69792
21
-4.22572
0
LINE
8
BLACK
6
CONTINUOUS
10
3.69792
20
-4.22572
11
3.69787
21
-4.22565
0
LINE
8
BLACK
6
CONTINUOUS
10
3.69787
20
-4.22565
11
3.6978
21
-4.22559
0
LINE
8
BLACK
6
CONTINUOUS
10
3.6978
20
-4.22559
11
3.69769
21
-4.22543
0
LINE
8
BLACK
6
CONTINUOUS
10
3.69769
20
-4.22543
11
3.69756
21
-4.22527
0
LINE
8
BLACK
6
CONTINUOUS
10
3.69756
20
-4.22527
11
3.69752
21
-4.22519
0
LINE
8
BLACK
6
CONTINUOUS
10
3.69752
20
-4.22519
11
3.69747
21
-4.22512
0
LINE
8
BLACK
6
CONTINUOUS
10
3.69747
20
-4.22512
11
3.69739
21
-4.22494
0
LINE
8
BLACK
6
CONTINUOUS
10
3.69739
20
-4.22494
11
3.6973
21
-4.22476
0
LINE
8
BLACK
6
CONTINUOUS
10
3.6973
20
-4.22476
11
3.69727
21
-4.22467
0
LINE
8
BLACK
6
CONTINUOUS
10
3.69727
20
-4.22467
11
3.69724
21
-4.22459
0
LINE
8
BLACK
6
CONTINUOUS
10
3.69724
20
-4.22459
11
3.69536
21
-4.21897
0
LINE
8
BLACK
6
CONTINUOUS
10
3.69536
20
-4.21897
11
3.69535
21
-4.21893
0
LINE
8
BLACK
6
CONTINUOUS
10
3.69535
20
-4.21893
11
3.69531
21
-4.21877
0
LINE
8
BLACK
6
CONTINUOUS
10
3.69531
20
-4.21877
11
3.69527
21
-4.21861
0
LINE
8
BLACK
6
CONTINUOUS
10
3.69527
20
-4.21861
11
3.69525
21
-4.21849
0
LINE
8
BLACK
6
CONTINUOUS
10
3.69525
20
-4.21849
11
3.69523
21
-4.21837
0
LINE
8
BLACK
6
CONTINUOUS
10
3.69523
20
-4.21837
11
3.69523
21
-4.2182
0
LINE
8
BLACK
6
CONTINUOUS
10
3.69523
20
-4.2182
11
3.69521
21
-4.21804
0
LINE
8
BLACK
6
CONTINUOUS
10
3.69521
20
-4.21804
11
3.69521
21
-4.21429
0
LINE
8
BLACK
6
CONTINUOUS
10
3.69521
20
-4.21429
11
3.69521
21
-4.21424
0
LINE
8
BLACK
6
CONTINUOUS
10
3.69521
20
-4.21424
11
3.69522
21
-4.21416
0
LINE
8
BLACK
6
CONTINUOUS
10
3.69522
20
-4.21416
11
3.69522
21
-4.21407
0
LINE
8
BLACK
6
CONTINUOUS
10
3.69522
20
-4.21407
11
3.69525
21
-4.21387
0
LINE
8
BLACK
6
CONTINUOUS
10
3.69525
20
-4.21387
11
3.69527
21
-4.21367
0
LINE
8
BLACK
6
CONTINUOUS
10
3.69527
20
-4.21367
11
3.6953
21
-4.21359
0
LINE
8
BLACK
6
CONTINUOUS
10
3.6953
20
-4.21359
11
3.69532
21
-4.2135
0
LINE
8
BLACK
6
CONTINUOUS
10
3.69532
20
-4.2135
11
3.69539
21
-4.21331
0
LINE
8
BLACK
6
CONTINUOUS
10
3.69539
20
-4.21331
11
3.69545
21
-4.21312
0
LINE
8
BLACK
6
CONTINUOUS
10
3.69545
20
-4.21312
11
3.69549
21
-4.21305
0
LINE
8
BLACK
6
CONTINUOUS
10
3.69549
20
-4.21305
11
3.69552
21
-4.21297
0
LINE
8
BLACK
6
CONTINUOUS
10
3.69552
20
-4.21297
11
3.6974
21
-4.20922
0
LINE
8
BLACK
6
CONTINUOUS
10
3.6974
20
-4.20922
11
3.69742
21
-4.20918
0
LINE
8
BLACK
6
CONTINUOUS
10
3.69742
20
-4.20918
11
3.69751
21
-4.20904
0
LINE
8
BLACK
6
CONTINUOUS
10
3.69751
20
-4.20904
11
3.69758
21
-4.20889
0
LINE
8
BLACK
6
CONTINUOUS
10
3.69758
20
-4.20889
11
3.69766
21
-4.2088
0
LINE
8
BLACK
6
CONTINUOUS
10
3.69766
20
-4.2088
11
3.69773
21
-4.2087
0
LINE
8
BLACK
6
CONTINUOUS
10
3.69773
20
-4.2087
11
3.69784
21
-4.20858
0
LINE
8
BLACK
6
CONTINUOUS
10
3.69784
20
-4.20858
11
3.69795
21
-4.20845
0
LINE
8
BLACK
6
CONTINUOUS
10
3.69795
20
-4.20845
11
3.69982
21
-4.20657
0
LINE
8
BLACK
6
CONTINUOUS
10
3.69982
20
-4.20657
11
3.69985
21
-4.20654
0
LINE
8
BLACK
6
CONTINUOUS
10
3.69985
20
-4.20654
11
3.69998
21
-4.20644
0
LINE
8
BLACK
6
CONTINUOUS
10
3.69998
20
-4.20644
11
3.7001
21
-4.20633
0
LINE
8
BLACK
6
CONTINUOUS
10
3.7001
20
-4.20633
11
3.70021
21
-4.20626
0
LINE
8
BLACK
6
CONTINUOUS
10
3.70021
20
-4.20626
11
3.7003
21
-4.20619
0
LINE
8
BLACK
6
CONTINUOUS
10
3.7003
20
-4.20619
11
3.70045
21
-4.20611
0
LINE
8
BLACK
6
CONTINUOUS
10
3.70045
20
-4.20611
11
3.70059
21
-4.20602
0
LINE
8
BLACK
6
CONTINUOUS
10
3.70059
20
-4.20602
11
3.70434
21
-4.20415
0
LINE
8
BLACK
6
CONTINUOUS
10
3.70434
20
-4.20415
11
3.70438
21
-4.20413
0
LINE
8
BLACK
6
CONTINUOUS
10
3.70438
20
-4.20413
11
3.70446
21
-4.2041
0
LINE
8
BLACK
6
CONTINUOUS
10
3.70446
20
-4.2041
11
3.70454
21
-4.20406
0
LINE
8
BLACK
6
CONTINUOUS
10
3.70454
20
-4.20406
11
3.70473
21
-4.204
0
LINE
8
BLACK
6
CONTINUOUS
10
3.70473
20
-4.204
11
3.70492
21
-4.20393
0
LINE
8
BLACK
6
CONTINUOUS
10
3.70492
20
-4.20393
11
3.705
21
-4.20392
0
LINE
8
BLACK
6
CONTINUOUS
10
3.705
20
-4.20392
11
3.70509
21
-4.20389
0
LINE
8
BLACK
6
CONTINUOUS
10
3.70509
20
-4.20389
11
3.70529
21
-4.20387
0
LINE
8
BLACK
6
CONTINUOUS
10
3.70529
20
-4.20387
11
3.70549
21
-4.20384
0
LINE
8
BLACK
6
CONTINUOUS
10
3.70549
20
-4.20384
11
3.70558
21
-4.20384
0
LINE
8
BLACK
6
CONTINUOUS
10
3.70558
20
-4.20384
11
3.70566
21
-4.20383
0
LINE
8
BLACK
6
CONTINUOUS
10
3.70566
20
-4.20383
11
3.71504
21
-4.20383
0
LINE
8
BLACK
6
CONTINUOUS
10
3.71504
20
-4.20383
11
3.71508
21
-4.20383
0
LINE
8
BLACK
6
CONTINUOUS
10
3.71508
20
-4.20383
11
3.71516
21
-4.20384
0
LINE
8
BLACK
6
CONTINUOUS
10
3.71516
20
-4.20384
11
3.71525
21
-4.20384
0
LINE
8
BLACK
6
CONTINUOUS
10
3.71525
20
-4.20384
11
3.71545
21
-4.20388
0
LINE
8
BLACK
6
CONTINUOUS
10
3.71545
20
-4.20388
11
3.71565
21
-4.2039
0
LINE
8
BLACK
6
CONTINUOUS
10
3.71565
20
-4.2039
11
3.71573
21
-4.20392
0
LINE
8
BLACK
6
CONTINUOUS
10
3.71573
20
-4.20392
11
3.71582
21
-4.20394
0
LINE
8
BLACK
6
CONTINUOUS
10
3.71582
20
-4.20394
11
3.71601
21
-4.20401
0
LINE
8
BLACK
6
CONTINUOUS
10
3.71601
20
-4.20401
11
3.7162
21
-4.20407
0
LINE
8
BLACK
6
CONTINUOUS
10
3.7162
20
-4.20407
11
3.71627
21
-4.20411
0
LINE
8
BLACK
6
CONTINUOUS
10
3.71627
20
-4.20411
11
3.71636
21
-4.20415
0
LINE
8
BLACK
6
CONTINUOUS
10
3.71636
20
-4.20415
11
3.72011
21
-4.20602
0
LINE
8
BLACK
6
CONTINUOUS
10
3.72011
20
-4.20602
11
3.72014
21
-4.20604
0
LINE
8
BLACK
6
CONTINUOUS
10
3.72014
20
-4.20604
11
3.72028
21
-4.20613
0
LINE
8
BLACK
6
CONTINUOUS
10
3.72028
20
-4.20613
11
3.72043
21
-4.20621
0
LINE
8
BLACK
6
CONTINUOUS
10
3.72043
20
-4.20621
11
3.72052
21
-4.20629
0
LINE
8
BLACK
6
CONTINUOUS
10
3.72052
20
-4.20629
11
3.72063
21
-4.20635
0
LINE
8
BLACK
6
CONTINUOUS
10
3.72063
20
-4.20635
11
3.72074
21
-4.20647
0
LINE
8
BLACK
6
CONTINUOUS
10
3.72074
20
-4.20647
11
3.72087
21
-4.20657
0
LINE
8
BLACK
6
CONTINUOUS
10
3.72087
20
-4.20657
11
3.72275
21
-4.20845
0
LINE
8
BLACK
6
CONTINUOUS
10
3.72275
20
-4.20845
11
3.72278
21
-4.20848
0
LINE
8
BLACK
6
CONTINUOUS
10
3.72278
20
-4.20848
11
3.72314
21
-4.20893
0
LINE
8
BLACK
6
CONTINUOUS
10
3.72314
20
-4.20893
11
3.7234
21
-4.20944
0
LINE
8
BLACK
6
CONTINUOUS
10
3.7234
20
-4.20944
11
3.72356
21
-4.20999
0
LINE
8
BLACK
6
CONTINUOUS
10
3.72356
20
-4.20999
11
3.72361
21
-4.21057
0
LINE
8
BLACK
6
CONTINUOUS
10
3.72361
20
-4.21057
11
3.72355
21
-4.21114
0
LINE
8
BLACK
6
CONTINUOUS
10
3.72355
20
-4.21114
11
3.72338
21
-4.21169
0
LINE
8
BLACK
6
CONTINUOUS
10
3.72338
20
-4.21169
11
3.7231
21
-4.2122
0
LINE
8
BLACK
6
CONTINUOUS
10
3.7231
20
-4.2122
11
3.72273
21
-4.21264
0
LINE
8
BLACK
6
CONTINUOUS
10
3.72273
20
-4.21264
11
3.72229
21
-4.213
0
LINE
8
BLACK
6
CONTINUOUS
10
3.72229
20
-4.213
11
3.72178
21
-4.21327
0
LINE
8
BLACK
6
CONTINUOUS
10
3.72178
20
-4.21327
11
3.72122
21
-4.21343
0
LINE
8
BLACK
6
CONTINUOUS
10
3.72122
20
-4.21343
11
3.72065
21
-4.21349
0
LINE
8
BLACK
6
CONTINUOUS
10
3.72065
20
-4.21349
11
3.72008
21
-4.21343
0
LINE
8
BLACK
6
CONTINUOUS
10
3.72008
20
-4.21343
11
3.71953
21
-4.21326
0
LINE
8
BLACK
6
CONTINUOUS
10
3.71953
20
-4.21326
11
3.71902
21
-4.21299
0
LINE
8
BLACK
6
CONTINUOUS
10
3.71902
20
-4.21299
11
3.71857
21
-4.21262
0
LINE
8
BLACK
6
CONTINUOUS
10
3.71857
20
-4.21262
11
3.71704
21
-4.21109
0
LINE
8
BLACK
6
CONTINUOUS
10
3.71704
20
-4.21109
11
3.71434
21
-4.20974
0
LINE
8
BLACK
6
CONTINUOUS
10
3.71434
20
-4.20974
11
3.70636
21
-4.20974
0
LINE
8
BLACK
6
CONTINUOUS
10
3.70636
20
-4.20974
11
3.70366
21
-4.21109
0
LINE
8
BLACK
6
CONTINUOUS
10
3.70366
20
-4.21109
11
3.70246
21
-4.21229
0
LINE
8
BLACK
6
CONTINUOUS
10
3.70246
20
-4.21229
11
3.70112
21
-4.21498
0
LINE
8
BLACK
6
CONTINUOUS
10
3.70112
20
-4.21498
11
3.70112
21
-4.21756
0
LINE
8
BLACK
6
CONTINUOUS
10
3.70112
20
-4.21756
11
3.70262
21
-4.22206
0
LINE
8
BLACK
6
CONTINUOUS
10
3.70262
20
-4.22206
11
3.72462
21
-4.24407
0
LINE
8
BLACK
6
CONTINUOUS
10
3.72462
20
-4.24407
11
3.72464
21
-4.24409
0
LINE
8
BLACK
6
CONTINUOUS
10
3.72464
20
-4.24409
11
3.72464
21
-4.24409
0
LINE
8
BLACK
6
CONTINUOUS
10
3.72464
20
-4.24409
11
3.72464
21
-4.24409
0
LINE
8
BLACK
6
CONTINUOUS
10
3.72464
20
-4.24409
11
3.72465
21
-4.2441
0
LINE
8
BLACK
6
CONTINUOUS
10
3.72465
20
-4.2441
11
3.72483
21
-4.24432
0
LINE
8
BLACK
6
CONTINUOUS
10
3.72483
20
-4.24432
11
3.72501
21
-4.24454
0
LINE
8
BLACK
6
CONTINUOUS
10
3.72501
20
-4.24454
11
3.72501
21
-4.24454
0
LINE
8
BLACK
6
CONTINUOUS
10
3.72501
20
-4.24454
11
3.72501
21
-4.24455
0
LINE
8
BLACK
6
CONTINUOUS
10
3.72501
20
-4.24455
11
3.72514
21
-4.2448
0
LINE
8
BLACK
6
CONTINUOUS
10
3.72514
20
-4.2448
11
3.72527
21
-4.24505
0
LINE
8
BLACK
6
CONTINUOUS
10
3.72527
20
-4.24505
11
3.72527
21
-4.24506
0
LINE
8
BLACK
6
CONTINUOUS
10
3.72527
20
-4.24506
11
3.72528
21
-4.24506
0
LINE
8
BLACK
6
CONTINUOUS
10
3.72528
20
-4.24506
11
3.72535
21
-4.24533
0
LINE
8
BLACK
6
CONTINUOUS
10
3.72535
20
-4.24533
11
3.72544
21
-4.2456
0
LINE
8
BLACK
6
CONTINUOUS
10
3.72544
20
-4.2456
11
3.72544
21
-4.24561
0
LINE
8
BLACK
6
CONTINUOUS
10
3.72544
20
-4.24561
11
3.72544
21
-4.24561
0
LINE
8
BLACK
6
CONTINUOUS
10
3.72544
20
-4.24561
11
3.72546
21
-4.2459
0
LINE
8
BLACK
6
CONTINUOUS
10
3.72546
20
-4.2459
11
3.72549
21
-4.24618
0
LINE
8
BLACK
6
CONTINUOUS
10
3.72549
20
-4.24618
11
3.72549
21
-4.24618
0
LINE
8
BLACK
6
CONTINUOUS
10
3.72549
20
-4.24618
11
3.72549
21
-4.24619
0
LINE
8
BLACK
6
CONTINUOUS
10
3.72549
20
-4.24619
11
3.72546
21
-4.24646
0
LINE
8
BLACK
6
CONTINUOUS
10
3.72546
20
-4.24646
11
3.72543
21
-4.24675
0
LINE
8
BLACK
6
CONTINUOUS
10
3.72543
20
-4.24675
11
3.72543
21
-4.24676
0
LINE
8
BLACK
6
CONTINUOUS
10
3.72543
20
-4.24676
11
3.72542
21
-4.24676
0
LINE
8
BLACK
6
CONTINUOUS
10
3.72542
20
-4.24676
11
3.72534
21
-4.24702
0
LINE
8
BLACK
6
CONTINUOUS
10
3.72534
20
-4.24702
11
3.72526
21
-4.2473
0
LINE
8
BLACK
6
CONTINUOUS
10
3.72526
20
-4.2473
11
3.72525
21
-4.24731
0
LINE
8
BLACK
6
CONTINUOUS
10
3.72525
20
-4.24731
11
3.72525
21
-4.24731
0
LINE
8
BLACK
6
CONTINUOUS
10
3.72525
20
-4.24731
11
3.72512
21
-4.24756
0
LINE
8
BLACK
6
CONTINUOUS
10
3.72512
20
-4.24756
11
3.72498
21
-4.24781
0
LINE
8
BLACK
6
CONTINUOUS
10
3.72498
20
-4.24781
11
3.72498
21
-4.24781
0
LINE
8
BLACK
6
CONTINUOUS
10
3.72498
20
-4.24781
11
3.72498
21
-4.24782
0
LINE
8
BLACK
6
CONTINUOUS
10
3.72498
20
-4.24782
11
3.7248
21
-4.24803
0
LINE
8
BLACK
6
CONTINUOUS
10
3.7248
20
-4.24803
11
3.72462
21
-4.24825
0
LINE
8
BLACK
6
CONTINUOUS
10
3.72462
20
-4.24825
11
3.72461
21
-4.24826
0
LINE
8
BLACK
6
CONTINUOUS
10
3.72461
20
-4.24826
11
3.72461
21
-4.24826
0
LINE
8
BLACK
6
CONTINUOUS
10
3.72461
20
-4.24826
11
3.72439
21
-4.24843
0
LINE
8
BLACK
6
CONTINUOUS
10
3.72439
20
-4.24843
11
3.72417
21
-4.24862
0
LINE
8
BLACK
6
CONTINUOUS
10
3.72417
20
-4.24862
11
3.72416
21
-4.24862
0
LINE
8
BLACK
6
CONTINUOUS
10
3.72416
20
-4.24862
11
3.72416
21
-4.24862
0
LINE
8
BLACK
6
CONTINUOUS
10
3.72416
20
-4.24862
11
3.72391
21
-4.24875
0
LINE
8
BLACK
6
CONTINUOUS
10
3.72391
20
-4.24875
11
3.72366
21
-4.24889
0
LINE
8
BLACK
6
CONTINUOUS
10
3.72366
20
-4.24889
11
3.72365
21
-4.24889
0
LINE
8
BLACK
6
CONTINUOUS
10
3.72365
20
-4.24889
11
3.72365
21
-4.24889
0
LINE
8
BLACK
6
CONTINUOUS
10
3.72365
20
-4.24889
11
3.72338
21
-4.24897
0
LINE
8
BLACK
6
CONTINUOUS
10
3.72338
20
-4.24897
11
3.72311
21
-4.24905
0
LINE
8
BLACK
6
CONTINUOUS
10
3.72311
20
-4.24905
11
3.7231
21
-4.24905
0
LINE
8
BLACK
6
CONTINUOUS
10
3.7231
20
-4.24905
11
3.7231
21
-4.24906
0
LINE
8
BLACK
6
CONTINUOUS
10
3.7231
20
-4.24906
11
3.72282
21
-4.24908
0
LINE
8
BLACK
6
CONTINUOUS
10
3.72282
20
-4.24908
11
3.72253
21
-4.24911
0
LINE
8
BLACK
6
CONTINUOUS
10
3.72253
20
-4.24911
11
3.69816
21
-4.24911
0
LINE
8
BLACK
6
CONTINUOUS
10
3.69816
20
-4.24911
11
3.69812
21
-4.24911
0
LINE
8
BLACK
6
CONTINUOUS
10
4.21844
20
-4.20389
11
4.21899
21
-4.20406
0
LINE
8
BLACK
6
CONTINUOUS
10
4.21899
20
-4.20406
11
4.2195
21
-4.20434
0
LINE
8
BLACK
6
CONTINUOUS
10
4.2195
20
-4.20434
11
4.21994
21
-4.20471
0
LINE
8
BLACK
6
CONTINUOUS
10
4.21994
20
-4.20471
11
4.22031
21
-4.20515
0
LINE
8
BLACK
6
CONTINUOUS
10
4.22031
20
-4.20515
11
4.22058
21
-4.20566
0
LINE
8
BLACK
6
CONTINUOUS
10
4.22058
20
-4.20566
11
4.22074
21
-4.20621
0
LINE
8
BLACK
6
CONTINUOUS
10
4.22074
20
-4.20621
11
4.2208
21
-4.20679
0
LINE
8
BLACK
6
CONTINUOUS
10
4.2208
20
-4.20679
11
4.2208
21
-4.23443
0
LINE
8
BLACK
6
CONTINUOUS
10
4.2208
20
-4.23443
11
4.2223
21
-4.23894
0
LINE
8
BLACK
6
CONTINUOUS
10
4.2223
20
-4.23894
11
4.22507
21
-4.2417
0
LINE
8
BLACK
6
CONTINUOUS
10
4.22507
20
-4.2417
11
4.22958
21
-4.2432
0
LINE
8
BLACK
6
CONTINUOUS
10
4.22958
20
-4.2432
11
4.23285
21
-4.2432
0
LINE
8
BLACK
6
CONTINUOUS
10
4.23285
20
-4.2432
11
4.23289
21
-4.2432
0
LINE
8
BLACK
6
CONTINUOUS
10
4.23289
20
-4.2432
11
4.23346
21
-4.24327
0
LINE
8
BLACK
6
CONTINUOUS
10
4.23346
20
-4.24327
11
4.23401
21
-4.24344
0
LINE
8
BLACK
6
CONTINUOUS
10
4.23401
20
-4.24344
11
4.23451
21
-4.24372
0
LINE
8
BLACK
6
CONTINUOUS
10
4.23451
20
-4.24372
11
4.23496
21
-4.24409
0
LINE
8
BLACK
6
CONTINUOUS
10
4.23496
20
-4.24409
11
4.23532
21
-4.24454
0
LINE
8
BLACK
6
CONTINUOUS
10
4.23532
20
-4.24454
11
4.23558
21
-4.24505
0
LINE
8
BLACK
6
CONTINUOUS
10
4.23558
20
-4.24505
11
4.23575
21
-4.2456
0
LINE
8
BLACK
6
CONTINUOUS
10
4.23575
20
-4.2456
11
4.2358
21
-4.24618
0
LINE
8
BLACK
6
CONTINUOUS
10
4.2358
20
-4.24618
11
4.23574
21
-4.24675
0
LINE
8
BLACK
6
CONTINUOUS
10
4.23574
20
-4.24675
11
4.23557
21
-4.2473
0
LINE
8
BLACK
6
CONTINUOUS
10
4.23557
20
-4.2473
11
4.23529
21
-4.24781
0
LINE
8
BLACK
6
CONTINUOUS
10
4.23529
20
-4.24781
11
4.23493
21
-4.24825
0
LINE
8
BLACK
6
CONTINUOUS
10
4.23493
20
-4.24825
11
4.23448
21
-4.24862
0
LINE
8
BLACK
6
CONTINUOUS
10
4.23448
20
-4.24862
11
4.23397
21
-4.24889
0
LINE
8
BLACK
6
CONTINUOUS
10
4.23397
20
-4.24889
11
4.23342
21
-4.24905
0
LINE
8
BLACK
6
CONTINUOUS
10
4.23342
20
-4.24905
11
4.23285
21
-4.24911
0
LINE
8
BLACK
6
CONTINUOUS
10
4.23285
20
-4.24911
11
4.2291
21
-4.24911
0
LINE
8
BLACK
6
CONTINUOUS
10
4.2291
20
-4.24911
11
4.22906
21
-4.24911
0
LINE
8
BLACK
6
CONTINUOUS
10
4.22906
20
-4.24911
11
4.22889
21
-4.24909
0
LINE
8
BLACK
6
CONTINUOUS
10
4.22889
20
-4.24909
11
4.22872
21
-4.24909
0
LINE
8
BLACK
6
CONTINUOUS
10
4.22872
20
-4.24909
11
4.2286
21
-4.24906
0
LINE
8
BLACK
6
CONTINUOUS
10
4.2286
20
-4.24906
11
4.22848
21
-4.24904
0
LINE
8
BLACK
6
CONTINUOUS
10
4.22848
20
-4.24904
11
4.22832
21
-4.24899
0
LINE
8
BLACK
6
CONTINUOUS
10
4.22832
20
-4.24899
11
4.22816
21
-4.24896
0
LINE
8
BLACK
6
CONTINUOUS
10
4.22816
20
-4.24896
11
4.22254
21
-4.24708
0
LINE
8
BLACK
6
CONTINUOUS
10
4.22254
20
-4.24708
11
4.2225
21
-4.24707
0
LINE
8
BLACK
6
CONTINUOUS
10
4.2225
20
-4.24707
11
4.22242
21
-4.24703
0
LINE
8
BLACK
6
CONTINUOUS
10
4.22242
20
-4.24703
11
4.22234
21
-4.24701
0
LINE
8
BLACK
6
CONTINUOUS
10
4.22234
20
-4.24701
11
4.22216
21
-4.24691
0
LINE
8
BLACK
6
CONTINUOUS
10
4.22216
20
-4.24691
11
4.22198
21
-4.24683
0
LINE
8
BLACK
6
CONTINUOUS
10
4.22198
20
-4.24683
11
4.22191
21
-4.24678
0
LINE
8
BLACK
6
CONTINUOUS
10
4.22191
20
-4.24678
11
4.22183
21
-4.24674
0
LINE
8
BLACK
6
CONTINUOUS
10
4.22183
20
-4.24674
11
4.22167
21
-4.24661
0
LINE
8
BLACK
6
CONTINUOUS
10
4.22167
20
-4.24661
11
4.22151
21
-4.24649
0
LINE
8
BLACK
6
CONTINUOUS
10
4.22151
20
-4.24649
11
4.22145
21
-4.24643
0
LINE
8
BLACK
6
CONTINUOUS
10
4.22145
20
-4.24643
11
4.22138
21
-4.24637
0
LINE
8
BLACK
6
CONTINUOUS
10
4.22138
20
-4.24637
11
4.21763
21
-4.24262
0
LINE
8
BLACK
6
CONTINUOUS
10
4.21763
20
-4.24262
11
4.21761
21
-4.24259
0
LINE
8
BLACK
6
CONTINUOUS
10
4.21761
20
-4.24259
11
4.21755
21
-4.24252
0
LINE
8
BLACK
6
CONTINUOUS
10
4.21755
20
-4.24252
11
4.21749
21
-4.24246
0
LINE
8
BLACK
6
CONTINUOUS
10
4.21749
20
-4.24246
11
4.21737
21
-4.2423
0
LINE
8
BLACK
6
CONTINUOUS
10
4.21737
20
-4.2423
11
4.21725
21
-4.24214
0
LINE
8
BLACK
6
CONTINUOUS
10
4.21725
20
-4.24214
11
4.21721
21
-4.24206
0
LINE
8
BLACK
6
CONTINUOUS
10
4.21721
20
-4.24206
11
4.21716
21
-4.24199
0
LINE
8
BLACK
6
CONTINUOUS
10
4.21716
20
-4.24199
11
4.21707
21
-4.24181
0
LINE
8
BLACK
6
CONTINUOUS
10
4.21707
20
-4.24181
11
4.21698
21
-4.24163
0
LINE
8
BLACK
6
CONTINUOUS
10
4.21698
20
-4.24163
11
4.21696
21
-4.24155
0
LINE
8
BLACK
6
CONTINUOUS
10
4.21696
20
-4.24155
11
4.21692
21
-4.24147
0
LINE
8
BLACK
6
CONTINUOUS
10
4.21692
20
-4.24147
11
4.21505
21
-4.23584
0
LINE
8
BLACK
6
CONTINUOUS
10
4.21505
20
-4.23584
11
4.21503
21
-4.2358
0
LINE
8
BLACK
6
CONTINUOUS
10
4.21503
20
-4.2358
11
4.215
21
-4.23564
0
LINE
8
BLACK
6
CONTINUOUS
10
4.215
20
-4.23564
11
4.21495
21
-4.23548
0
LINE
8
BLACK
6
CONTINUOUS
10
4.21495
20
-4.23548
11
4.21494
21
-4.23536
0
LINE
8
BLACK
6
CONTINUOUS
10
4.21494
20
-4.23536
11
4.21491
21
-4.23524
0
LINE
8
BLACK
6
CONTINUOUS
10
4.21491
20
-4.23524
11
4.21491
21
-4.23507
0
LINE
8
BLACK
6
CONTINUOUS
10
4.21491
20
-4.23507
11
4.2149
21
-4.23491
0
LINE
8
BLACK
6
CONTINUOUS
10
4.2149
20
-4.23491
11
4.2149
21
-4.20679
0
LINE
8
BLACK
6
CONTINUOUS
10
4.2149
20
-4.20679
11
4.2149
21
-4.20675
0
LINE
8
BLACK
6
CONTINUOUS
10
4.2149
20
-4.20675
11
4.21496
21
-4.20617
0
LINE
8
BLACK
6
CONTINUOUS
10
4.21496
20
-4.20617
11
4.21513
21
-4.20562
0
LINE
8
BLACK
6
CONTINUOUS
10
4.21513
20
-4.20562
11
4.21541
21
-4.20512
0
LINE
8
BLACK
6
CONTINUOUS
10
4.21541
20
-4.20512
11
4.21578
21
-4.20468
0
LINE
8
BLACK
6
CONTINUOUS
10
4.21578
20
-4.20468
11
4.21623
21
-4.20432
0
LINE
8
BLACK
6
CONTINUOUS
10
4.21623
20
-4.20432
11
4.21674
21
-4.20405
0
LINE
8
BLACK
6
CONTINUOUS
10
4.21674
20
-4.20405
11
4.21729
21
-4.20389
0
LINE
8
BLACK
6
CONTINUOUS
10
4.21729
20
-4.20389
11
4.21787
21
-4.20383
0
LINE
8
BLACK
6
CONTINUOUS
10
4.21787
20
-4.20383
11
4.21844
21
-4.20389
0
LINE
8
BLACK
6
CONTINUOUS
10
4.20289
20
-4.20383
11
4.20346
21
-4.2039
0
LINE
8
BLACK
6
CONTINUOUS
10
4.20346
20
-4.2039
11
4.20401
21
-4.20407
0
LINE
8
BLACK
6
CONTINUOUS
10
4.20401
20
-4.20407
11
4.20452
21
-4.20435
0
LINE
8
BLACK
6
CONTINUOUS
10
4.20452
20
-4.20435
11
4.20496
21
-4.20472
0
LINE
8
BLACK
6
CONTINUOUS
10
4.20496
20
-4.20472
11
4.20532
21
-4.20517
0
LINE
8
BLACK
6
CONTINUOUS
10
4.20532
20
-4.20517
11
4.20559
21
-4.20568
0
LINE
8
BLACK
6
CONTINUOUS
10
4.20559
20
-4.20568
11
4.20575
21
-4.20623
0
LINE
8
BLACK
6
CONTINUOUS
10
4.20575
20
-4.20623
11
4.2058
21
-4.20681
0
LINE
8
BLACK
6
CONTINUOUS
10
4.2058
20
-4.20681
11
4.20574
21
-4.20738
0
LINE
8
BLACK
6
CONTINUOUS
10
4.20574
20
-4.20738
11
4.20557
21
-4.20793
0
LINE
8
BLACK
6
CONTINUOUS
10
4.20557
20
-4.20793
11
4.2053
21
-4.20844
0
LINE
8
BLACK
6
CONTINUOUS
10
4.2053
20
-4.20844
11
4.20493
21
-4.20888
0
LINE
8
BLACK
6
CONTINUOUS
10
4.20493
20
-4.20888
11
4.20448
21
-4.20925
0
LINE
8
BLACK
6
CONTINUOUS
10
4.20448
20
-4.20925
11
4.20397
21
-4.20952
0
LINE
8
BLACK
6
CONTINUOUS
10
4.20397
20
-4.20952
11
4.20342
21
-4.20968
0
LINE
8
BLACK
6
CONTINUOUS
10
4.20342
20
-4.20968
11
4.20285
21
-4.20974
0
LINE
8
BLACK
6
CONTINUOUS
10
4.20285
20
-4.20974
11
4.18498
21
-4.20974
0
LINE
8
BLACK
6
CONTINUOUS
10
4.18498
20
-4.20974
11
4.19382
21
-4.21984
0
LINE
8
BLACK
6
CONTINUOUS
10
4.19382
20
-4.21984
11
4.19385
21
-4.21987
0
LINE
8
BLACK
6
CONTINUOUS
10
4.19385
20
-4.21987
11
4.19396
21
-4.22002
0
LINE
8
BLACK
6
CONTINUOUS
10
4.19396
20
-4.22002
11
4.19407
21
-4.22017
0
LINE
8
BLACK
6
CONTINUOUS
10
4.19407
20
-4.22017
11
4.19412
21
-4.22026
0
LINE
8
BLACK
6
CONTINUOUS
10
4.19412
20
-4.22026
11
4.19418
21
-4.22034
0
LINE
8
BLACK
6
CONTINUOUS
10
4.19418
20
-4.22034
11
4.19425
21
-4.22051
0
LINE
8
BLACK
6
CONTINUOUS
10
4.19425
20
-4.22051
11
4.19434
21
-4.22068
0
LINE
8
BLACK
6
CONTINUOUS
10
4.19434
20
-4.22068
11
4.19437
21
-4.22078
0
LINE
8
BLACK
6
CONTINUOUS
10
4.19437
20
-4.22078
11
4.19441
21
-4.22087
0
LINE
8
BLACK
6
CONTINUOUS
10
4.19441
20
-4.22087
11
4.19445
21
-4.22105
0
LINE
8
BLACK
6
CONTINUOUS
10
4.19445
20
-4.22105
11
4.1945
21
-4.22123
0
LINE
8
BLACK
6
CONTINUOUS
10
4.1945
20
-4.22123
11
4.19451
21
-4.22133
0
LINE
8
BLACK
6
CONTINUOUS
10
4.19451
20
-4.22133
11
4.19453
21
-4.22144
0
LINE
8
BLACK
6
CONTINUOUS
10
4.19453
20
-4.22144
11
4.19454
21
-4.22162
0
LINE
8
BLACK
6
CONTINUOUS
10
4.19454
20
-4.22162
11
4.19455
21
-4.22181
0
LINE
8
BLACK
6
CONTINUOUS
10
4.19455
20
-4.22181
11
4.19454
21
-4.22191
0
LINE
8
BLACK
6
CONTINUOUS
10
4.19454
20
-4.22191
11
4.19455
21
-4.22201
0
LINE
8
BLACK
6
CONTINUOUS
10
4.19455
20
-4.22201
11
4.19451
21
-4.22219
0
LINE
8
BLACK
6
CONTINUOUS
10
4.19451
20
-4.22219
11
4.19449
21
-4.22238
0
LINE
8
BLACK
6
CONTINUOUS
10
4.19449
20
-4.22238
11
4.19446
21
-4.22248
0
LINE
8
BLACK
6
CONTINUOUS
10
4.19446
20
-4.22248
11
4.19444
21
-4.22258
0
LINE
8
BLACK
6
CONTINUOUS
10
4.19444
20
-4.22258
11
4.19438
21
-4.22275
0
LINE
8
BLACK
6
CONTINUOUS
10
4.19438
20
-4.22275
11
4.19432
21
-4.22293
0
LINE
8
BLACK
6
CONTINUOUS
10
4.19432
20
-4.22293
11
4.19427
21
-4.22302
0
LINE
8
BLACK
6
CONTINUOUS
10
4.19427
20
-4.22302
11
4.19424
21
-4.22312
0
LINE
8
BLACK
6
CONTINUOUS
10
4.19424
20
-4.22312
11
4.19414
21
-4.22327
0
LINE
8
BLACK
6
CONTINUOUS
10
4.19414
20
-4.22327
11
4.19405
21
-4.22344
0
LINE
8
BLACK
6
CONTINUOUS
10
4.19405
20
-4.22344
11
4.19398
21
-4.22352
0
LINE
8
BLACK
6
CONTINUOUS
10
4.19398
20
-4.22352
11
4.19393
21
-4.2236
0
LINE
8
BLACK
6
CONTINUOUS
10
4.19393
20
-4.2236
11
4.1938
21
-4.22374
0
LINE
8
BLACK
6
CONTINUOUS
10
4.1938
20
-4.22374
11
4.19368
21
-4.22388
0
LINE
8
BLACK
6
CONTINUOUS
10
4.19368
20
-4.22388
11
4.1936
21
-4.22395
0
LINE
8
BLACK
6
CONTINUOUS
10
4.1936
20
-4.22395
11
4.19353
21
-4.22402
0
LINE
8
BLACK
6
CONTINUOUS
10
4.19353
20
-4.22402
11
4.19338
21
-4.22413
0
LINE
8
BLACK
6
CONTINUOUS
10
4.19338
20
-4.22413
11
4.19324
21
-4.22424
0
LINE
8
BLACK
6
CONTINUOUS
10
4.19324
20
-4.22424
11
4.19314
21
-4.22429
0
LINE
8
BLACK
6
CONTINUOUS
10
4.19314
20
-4.22429
11
4.19306
21
-4.22435
0
LINE
8
BLACK
6
CONTINUOUS
10
4.19306
20
-4.22435
11
4.19289
21
-4.22443
0
LINE
8
BLACK
6
CONTINUOUS
10
4.19289
20
-4.22443
11
4.19273
21
-4.22451
0
LINE
8
BLACK
6
CONTINUOUS
10
4.19273
20
-4.22451
11
4.19263
21
-4.22454
0
LINE
8
BLACK
6
CONTINUOUS
10
4.19263
20
-4.22454
11
4.19253
21
-4.22459
0
LINE
8
BLACK
6
CONTINUOUS
10
4.19253
20
-4.22459
11
4.19235
21
-4.22463
0
LINE
8
BLACK
6
CONTINUOUS
10
4.19235
20
-4.22463
11
4.19217
21
-4.22468
0
LINE
8
BLACK
6
CONTINUOUS
10
4.19217
20
-4.22468
11
4.19207
21
-4.22469
0
LINE
8
BLACK
6
CONTINUOUS
10
4.19207
20
-4.22469
11
4.19197
21
-4.22471
0
LINE
8
BLACK
6
CONTINUOUS
10
4.19197
20
-4.22471
11
4.19179
21
-4.22472
0
LINE
8
BLACK
6
CONTINUOUS
10
4.19179
20
-4.22472
11
4.1916
21
-4.22474
0
LINE
8
BLACK
6
CONTINUOUS
10
4.1916
20
-4.22474
11
4.18667
21
-4.22474
0
LINE
8
BLACK
6
CONTINUOUS
10
4.18667
20
-4.22474
11
4.18398
21
-4.22609
0
LINE
8
BLACK
6
CONTINUOUS
10
4.18398
20
-4.22609
11
4.18278
21
-4.22728
0
LINE
8
BLACK
6
CONTINUOUS
10
4.18278
20
-4.22728
11
4.18143
21
-4.22998
0
LINE
8
BLACK
6
CONTINUOUS
10
4.18143
20
-4.22998
11
4.18143
21
-4.23796
0
LINE
8
BLACK
6
CONTINUOUS
10
4.18143
20
-4.23796
11
4.18278
21
-4.24066
0
LINE
8
BLACK
6
CONTINUOUS
10
4.18278
20
-4.24066
11
4.18398
21
-4.24186
0
LINE
8
BLACK
6
CONTINUOUS
10
4.18398
20
-4.24186
11
4.18667
21
-4.2432
0
LINE
8
BLACK
6
CONTINUOUS
10
4.18667
20
-4.2432
11
4.19653
21
-4.2432
0
LINE
8
BLACK
6
CONTINUOUS
10
4.19653
20
-4.2432
11
4.19923
21
-4.24186
0
LINE
8
BLACK
6
CONTINUOUS
10
4.19923
20
-4.24186
11
4.20076
21
-4.24032
0
LINE
8
BLACK
6
CONTINUOUS
10
4.20076
20
-4.24032
11
4.20079
21
-4.24029
0
LINE
8
BLACK
6
CONTINUOUS
10
4.20079
20
-4.24029
11
4.20124
21
-4.23993
0
LINE
8
BLACK
6
CONTINUOUS
10
4.20124
20
-4.23993
11
4.20175
21
-4.23967
0
LINE
8
BLACK
6
CONTINUOUS
10
4.20175
20
-4.23967
11
4.20231
21
-4.2395
0
LINE
8
BLACK
6
CONTINUOUS
10
4.20231
20
-4.2395
11
4.20288
21
-4.23945
0
LINE
8
BLACK
6
CONTINUOUS
10
4.20288
20
-4.23945
11
4.20345
21
-4.23952
0
LINE
8
BLACK
6
CONTINUOUS
10
4.20345
20
-4.23952
11
4.204
21
-4.23969
0
LINE
8
BLACK
6
CONTINUOUS
10
4.204
20
-4.23969
11
4.20451
21
-4.23996
0
LINE
8
BLACK
6
CONTINUOUS
10
4.20451
20
-4.23996
11
4.20495
21
-4.24033
0
LINE
8
BLACK
6
CONTINUOUS
10
4.20495
20
-4.24033
11
4.20531
21
-4.24078
0
LINE
8
BLACK
6
CONTINUOUS
10
4.20531
20
-4.24078
11
4.20558
21
-4.24129
0
LINE
8
BLACK
6
CONTINUOUS
10
4.20558
20
-4.24129
11
4.20575
21
-4.24184
0
LINE
8
BLACK
6
CONTINUOUS
10
4.20575
20
-4.24184
11
4.2058
21
-4.24242
0
LINE
8
BLACK
6
CONTINUOUS
10
4.2058
20
-4.24242
11
4.20574
21
-4.24299
0
LINE
8
BLACK
6
CONTINUOUS
10
4.20574
20
-4.24299
11
4.20558
21
-4.24354
0
LINE
8
BLACK
6
CONTINUOUS
10
4.20558
20
-4.24354
11
4.2053
21
-4.24405
0
LINE
8
BLACK
6
CONTINUOUS
10
4.2053
20
-4.24405
11
4.20494
21
-4.2445
0
LINE
8
BLACK
6
CONTINUOUS
10
4.20494
20
-4.2445
11
4.20306
21
-4.24637
0
LINE
8
BLACK
6
CONTINUOUS
10
4.20306
20
-4.24637
11
4.20303
21
-4.2464
0
LINE
8
BLACK
6
CONTINUOUS
10
4.20303
20
-4.2464
11
4.2029
21
-4.2465
0
LINE
8
BLACK
6
CONTINUOUS
10
4.2029
20
-4.2465
11
4.20278
21
-4.24662
0
LINE
8
BLACK
6
CONTINUOUS
10
4.20278
20
-4.24662
11
4.20268
21
-4.24668
0
LINE
8
BLACK
6
CONTINUOUS
10
4.20268
20
-4.24668
11
4.20258
21
-4.24676
0
LINE
8
BLACK
6
CONTINUOUS
10
4.20258
20
-4.24676
11
4.20244
21
-4.24683
0
LINE
8
BLACK
6
CONTINUOUS
10
4.20244
20
-4.24683
11
4.2023
21
-4.24692
0
LINE
8
BLACK
6
CONTINUOUS
10
4.2023
20
-4.24692
11
4.19855
21
-4.2488
0
LINE
8
BLACK
6
CONTINUOUS
10
4.19855
20
-4.2488
11
4.19851
21
-4.24882
0
LINE
8
BLACK
6
CONTINUOUS
10
4.19851
20
-4.24882
11
4.19843
21
-4.24885
0
LINE
8
BLACK
6
CONTINUOUS
10
4.19843
20
-4.24885
11
4.19835
21
-4.24889
0
LINE
8
BLACK
6
CONTINUOUS
10
4.19835
20
-4.24889
11
4.19816
21
-4.24895
0
LINE
8
BLACK
6
CONTINUOUS
10
4.19816
20
-4.24895
11
4.19797
21
-4.24901
0
LINE
8
BLACK
6
CONTINUOUS
10
4.19797
20
-4.24901
11
4.19788
21
-4.24903
0
LINE
8
BLACK
6
CONTINUOUS
10
4.19788
20
-4.24903
11
4.1978
21
-4.24905
0
LINE
8
BLACK
6
CONTINUOUS
10
4.1978
20
-4.24905
11
4.1976
21
-4.24907
0
LINE
8
BLACK
6
CONTINUOUS
10
4.1976
20
-4.24907
11
4.1974
21
-4.2491
0
LINE
8
BLACK
6
CONTINUOUS
10
4.1974
20
-4.2491
11
4.19731
21
-4.2491
0
LINE
8
BLACK
6
CONTINUOUS
10
4.19731
20
-4.2491
11
4.19723
21
-4.24911
0
LINE
8
BLACK
6
CONTINUOUS
10
4.19723
20
-4.24911
11
4.18598
21
-4.24911
0
LINE
8
BLACK
6
CONTINUOUS
10
4.18598
20
-4.24911
11
4.18594
21
-4.24911
0
LINE
8
BLACK
6
CONTINUOUS
10
4.18594
20
-4.24911
11
4.18585
21
-4.2491
0
LINE
8
BLACK
6
CONTINUOUS
10
4.18585
20
-4.2491
11
4.18576
21
-4.2491
0
LINE
8
BLACK
6
CONTINUOUS
10
4.18576
20
-4.2491
11
4.18556
21
-4.24907
0
LINE
8
BLACK
6
CONTINUOUS
10
4.18556
20
-4.24907
11
4.18536
21
-4.24904
0
LINE
8
BLACK
6
CONTINUOUS
10
4.18536
20
-4.24904
11
4.18528
21
-4.24902
0
LINE
8
BLACK
6
CONTINUOUS
10
4.18528
20
-4.24902
11
4.18519
21
-4.249
0
LINE
8
BLACK
6
CONTINUOUS
10
4.18519
20
-4.249
11
4.18501
21
-4.24893
0
LINE
8
BLACK
6
CONTINUOUS
10
4.18501
20
-4.24893
11
4.18481
21
-4.24887
0
LINE
8
BLACK
6
CONTINUOUS
10
4.18481
20
-4.24887
11
4.18474
21
-4.24883
0
LINE
8
BLACK
6
CONTINUOUS
10
4.18474
20
-4.24883
11
4.18466
21
-4.2488
0
LINE
8
BLACK
6
CONTINUOUS
10
4.18466
20
-4.2488
11
4.18091
21
-4.24692
0
LINE
8
BLACK
6
CONTINUOUS
10
4.18091
20
-4.24692
11
4.18087
21
-4.2469
0
LINE
8
BLACK
6
CONTINUOUS
10
4.18087
20
-4.2469
11
4.18073
21
-4.24681
0
LINE
8
BLACK
6
CONTINUOUS
10
4.18073
20
-4.24681
11
4.18058
21
-4.24674
0
LINE
8
BLACK
6
CONTINUOUS
10
4.18058
20
-4.24674
11
4.18049
21
-4.24666
0
LINE
8
BLACK
6
CONTINUOUS
10
4.18049
20
-4.24666
11
4.18039
21
-4.24659
0
LINE
8
BLACK
6
CONTINUOUS
10
4.18039
20
-4.24659
11
4.18027
21
-4.24648
0
LINE
8
BLACK
6
CONTINUOUS
10
4.18027
20
-4.24648
11
4.18014
21
-4.24637
0
LINE
8
BLACK
6
CONTINUOUS
10
4.18014
20
-4.24637
11
4.17826
21
-4.2445
0
LINE
8
BLACK
6
CONTINUOUS
10
4.17826
20
-4.2445
11
4.17824
21
-4.24447
0
LINE
8
BLACK
6
CONTINUOUS
10
4.17824
20
-4.24447
11
4.17813
21
-4.24434
0
LINE
8
BLACK
6
CONTINUOUS
10
4.17813
20
-4.24434
11
4.17802
21
-4.24422
0
LINE
8
BLACK
6
CONTINUOUS
10
4.17802
20
-4.24422
11
4.17795
21
-4.24411
0
LINE
8
BLACK
6
CONTINUOUS
10
4.17795
20
-4.24411
11
4.17788
21
-4.24402
0
LINE
8
BLACK
6
CONTINUOUS
10
4.17788
20
-4.24402
11
4.1778
21
-4.24387
0
LINE
8
BLACK
6
CONTINUOUS
10
4.1778
20
-4.24387
11
4.17771
21
-4.24373
0
LINE
8
BLACK
6
CONTINUOUS
10
4.17771
20
-4.24373
11
4.17584
21
-4.23998
0
LINE
8
BLACK
6
CONTINUOUS
10
4.17584
20
-4.23998
11
4.17582
21
-4.23994
0
LINE
8
BLACK
6
CONTINUOUS
10
4.17582
20
-4.23994
11
4.17579
21
-4.23986
0
LINE
8
BLACK
6
CONTINUOUS
10
4.17579
20
-4.23986
11
4.17575
21
-4.23978
0
LINE
8
BLACK
6
CONTINUOUS
10
4.17575
20
-4.23978
11
4.17569
21
-4.23959
0
LINE
8
BLACK
6
CONTINUOUS
10
4.17569
20
-4.23959
11
4.17562
21
-4.2394
0
LINE
8
BLACK
6
CONTINUOUS
10
4.17562
20
-4.2394
11
4.17561
21
-4.23931
0
LINE
8
BLACK
6
CONTINUOUS
10
4.17561
20
-4.23931
11
4.17558
21
-4.23923
0
LINE
8
BLACK
6
CONTINUOUS
10
4.17558
20
-4.23923
11
4.17556
21
-4.23903
0
LINE
8
BLACK
6
CONTINUOUS
10
4.17556
20
-4.23903
11
4.17553
21
-4.23883
0
LINE
8
BLACK
6
CONTINUOUS
10
4.17553
20
-4.23883
11
4.17553
21
-4.23874
0
LINE
8
BLACK
6
CONTINUOUS
10
4.17553
20
-4.23874
11
4.17552
21
-4.23866
0
LINE
8
BLACK
6
CONTINUOUS
10
4.17552
20
-4.23866
11
4.17552
21
-4.22928
0
LINE
8
BLACK
6
CONTINUOUS
10
4.17552
20
-4.22928
11
4.17553
21
-4.22924
0
LINE
8
BLACK
6
CONTINUOUS
10
4.17553
20
-4.22924
11
4.17553
21
-4.22916
0
LINE
8
BLACK
6
CONTINUOUS
10
4.17553
20
-4.22916
11
4.17553
21
-4.22907
0
LINE
8
BLACK
6
CONTINUOUS
10
4.17553
20
-4.22907
11
4.17557
21
-4.22887
0
LINE
8
BLACK
6
CONTINUOUS
10
4.17557
20
-4.22887
11
4.17559
21
-4.22867
0
LINE
8
BLACK
6
CONTINUOUS
10
4.17559
20
-4.22867
11
4.17562
21
-4.22859
0
LINE
8
BLACK
6
CONTINUOUS
10
4.17562
20
-4.22859
11
4.17563
21
-4.2285
0
LINE
8
BLACK
6
CONTINUOUS
10
4.17563
20
-4.2285
11
4.1757
21
-4.22831
0
LINE
8
BLACK
6
CONTINUOUS
10
4.1757
20
-4.22831
11
4.17576
21
-4.22812
0
LINE
8
BLACK
6
CONTINUOUS
10
4.17576
20
-4.22812
11
4.17581
21
-4.22804
0
LINE
8
BLACK
6
CONTINUOUS
10
4.17581
20
-4.22804
11
4.17584
21
-4.22796
0
LINE
8
BLACK
6
CONTINUOUS
10
4.17584
20
-4.22796
11
4.17771
21
-4.22421
0
LINE
8
BLACK
6
CONTINUOUS
10
4.17771
20
-4.22421
11
4.17773
21
-4.22418
0
LINE
8
BLACK
6
CONTINUOUS
10
4.17773
20
-4.22418
11
4.17782
21
-4.22404
0
LINE
8
BLACK
6
CONTINUOUS
10
4.17782
20
-4.22404
11
4.1779
21
-4.22389
0
LINE
8
BLACK
6
CONTINUOUS
10
4.1779
20
-4.22389
11
4.17798
21
-4.2238
0
LINE
8
BLACK
6
CONTINUOUS
10
4.17798
20
-4.2238
11
4.17804
21
-4.22369
0
LINE
8
BLACK
6
CONTINUOUS
10
4.17804
20
-4.22369
11
4.17816
21
-4.22357
0
LINE
8
BLACK
6
CONTINUOUS
10
4.17816
20
-4.22357
11
4.17826
21
-4.22345
0
LINE
8
BLACK
6
CONTINUOUS
10
4.17826
20
-4.22345
11
4.18014
21
-4.22157
0
LINE
8
BLACK
6
CONTINUOUS
10
4.18014
20
-4.22157
11
4.18017
21
-4.22154
0
LINE
8
BLACK
6
CONTINUOUS
10
4.18017
20
-4.22154
11
4.1803
21
-4.22144
0
LINE
8
BLACK
6
CONTINUOUS
10
4.1803
20
-4.22144
11
4.18042
21
-4.22133
0
LINE
8
BLACK
6
CONTINUOUS
10
4.18042
20
-4.22133
11
4.18052
21
-4.22126
0
LINE
8
BLACK
6
CONTINUOUS
10
4.18052
20
-4.22126
11
4.18062
21
-4.22118
0
LINE
8
BLACK
6
CONTINUOUS
10
4.18062
20
-4.22118
11
4.18077
21
-4.22111
0
LINE
8
BLACK
6
CONTINUOUS
10
4.18077
20
-4.22111
11
4.18091
21
-4.22102
0
LINE
8
BLACK
6
CONTINUOUS
10
4.18091
20
-4.22102
11
4.18466
21
-4.21914
0
LINE
8
BLACK
6
CONTINUOUS
10
4.18466
20
-4.21914
11
4.18469
21
-4.21913
0
LINE
8
BLACK
6
CONTINUOUS
10
4.18469
20
-4.21913
11
4.18477
21
-4.2191
0
LINE
8
BLACK
6
CONTINUOUS
10
4.18477
20
-4.2191
11
4.18485
21
-4.21905
0
LINE
8
BLACK
6
CONTINUOUS
10
4.18485
20
-4.21905
11
4.18504
21
-4.219
0
LINE
8
BLACK
6
CONTINUOUS
10
4.18504
20
-4.219
11
4.18519
21
-4.21894
0
LINE
8
BLACK
6
CONTINUOUS
10
4.18519
20
-4.21894
11
4.17626
21
-4.20873
0
LINE
8
BLACK
6
CONTINUOUS
10
4.17626
20
-4.20873
11
4.17623
21
-4.2087
0
LINE
8
BLACK
6
CONTINUOUS
10
4.17623
20
-4.2087
11
4.17612
21
-4.20855
0
LINE
8
BLACK
6
CONTINUOUS
10
4.17612
20
-4.20855
11
4.17601
21
-4.2084
0
LINE
8
BLACK
6
CONTINUOUS
10
4.17601
20
-4.2084
11
4.17596
21
-4.20831
0
LINE
8
BLACK
6
CONTINUOUS
10
4.17596
20
-4.20831
11
4.1759
21
-4.20823
0
LINE
8
BLACK
6
CONTINUOUS
10
4.1759
20
-4.20823
11
4.17583
21
-4.20806
0
LINE
8
BLACK
6
CONTINUOUS
10
4.17583
20
-4.20806
11
4.17574
21
-4.20789
0
LINE
8
BLACK
6
CONTINUOUS
10
4.17574
20
-4.20789
11
4.17571
21
-4.20779
0
LINE
8
BLACK
6
CONTINUOUS
10
4.17571
20
-4.20779
11
4.17567
21
-4.2077
0
LINE
8
BLACK
6
CONTINUOUS
10
4.17567
20
-4.2077
11
4.17563
21
-4.20752
0
LINE
8
BLACK
6
CONTINUOUS
10
4.17563
20
-4.20752
11
4.17558
21
-4.20734
0
LINE
8
BLACK
6
CONTINUOUS
10
4.17558
20
-4.20734
11
4.17557
21
-4.20724
0
LINE
8
BLACK
6
CONTINUOUS
10
4.17557
20
-4.20724
11
4.17555
21
-4.20714
0
LINE
8
BLACK
6
CONTINUOUS
10
4.17555
20
-4.20714
11
4.17554
21
-4.20695
0
LINE
8
BLACK
6
CONTINUOUS
10
4.17554
20
-4.20695
11
4.17552
21
-4.20677
0
LINE
8
BLACK
6
CONTINUOUS
10
4.17552
20
-4.20677
11
4.17554
21
-4.20666
0
LINE
8
BLACK
6
CONTINUOUS
10
4.17554
20
-4.20666
11
4.17553
21
-4.20656
0
LINE
8
BLACK
6
CONTINUOUS
10
4.17553
20
-4.20656
11
4.17557
21
-4.20638
0
LINE
8
BLACK
6
CONTINUOUS
10
4.17557
20
-4.20638
11
4.17559
21
-4.20619
0
LINE
8
BLACK
6
CONTINUOUS
10
4.17559
20
-4.20619
11
4.17562
21
-4.20609
0
LINE
8
BLACK
6
CONTINUOUS
10
4.17562
20
-4.20609
11
4.17563
21
-4.20599
0
LINE
8
BLACK
6
CONTINUOUS
10
4.17563
20
-4.20599
11
4.1757
21
-4.20582
0
LINE
8
BLACK
6
CONTINUOUS
10
4.1757
20
-4.20582
11
4.17576
21
-4.20564
0
LINE
8
BLACK
6
CONTINUOUS
10
4.17576
20
-4.20564
11
4.1758
21
-4.20555
0
LINE
8
BLACK
6
CONTINUOUS
10
4.1758
20
-4.20555
11
4.17584
21
-4.20545
0
LINE
8
BLACK
6
CONTINUOUS
10
4.17584
20
-4.20545
11
4.17594
21
-4.2053
0
LINE
8
BLACK
6
CONTINUOUS
10
4.17594
20
-4.2053
11
4.17603
21
-4.20514
0
LINE
8
BLACK
6
CONTINUOUS
10
4.17603
20
-4.20514
11
4.1761
21
-4.20506
0
LINE
8
BLACK
6
CONTINUOUS
10
4.1761
20
-4.20506
11
4.17615
21
-4.20497
0
LINE
8
BLACK
6
CONTINUOUS
10
4.17615
20
-4.20497
11
4.17628
21
-4.20483
0
LINE
8
BLACK
6
CONTINUOUS
10
4.17628
20
-4.20483
11
4.1764
21
-4.20469
0
LINE
8
BLACK
6
CONTINUOUS
10
4.1764
20
-4.20469
11
4.17648
21
-4.20463
0
LINE
8
BLACK
6
CONTINUOUS
10
4.17648
20
-4.20463
11
4.17655
21
-4.20455
0
LINE
8
BLACK
6
CONTINUOUS
10
4.17655
20
-4.20455
11
4.1767
21
-4.20444
0
LINE
8
BLACK
6
CONTINUOUS
10
4.1767
20
-4.20444
11
4.17684
21
-4.20433
0
LINE
8
BLACK
6
CONTINUOUS
10
4.17684
20
-4.20433
11
4.17694
21
-4.20428
0
LINE
8
BLACK
6
CONTINUOUS
10
4.17694
20
-4.20428
11
4.17702
21
-4.20422
0
LINE
8
BLACK
6
CONTINUOUS
10
4.17702
20
-4.20422
11
4.17719
21
-4.20414
0
LINE
8
BLACK
6
CONTINUOUS
10
4.17719
20
-4.20414
11
4.17735
21
-4.20406
0
LINE
8
BLACK
6
CONTINUOUS
10
4.17735
20
-4.20406
11
4.17745
21
-4.20403
0
LINE
8
BLACK
6
CONTINUOUS
10
4.17745
20
-4.20403
11
4.17755
21
-4.20398
0
LINE
8
BLACK
6
CONTINUOUS
10
4.17755
20
-4.20398
11
4.17773
21
-4.20394
0
LINE
8
BLACK
6
CONTINUOUS
10
4.17773
20
-4.20394
11
4.1779
21
-4.20389
0
LINE
8
BLACK
6
CONTINUOUS
10
4.1779
20
-4.20389
11
4.17801
21
-4.20388
0
LINE
8
BLACK
6
CONTINUOUS
10
4.17801
20
-4.20388
11
4.17811
21
-4.20386
0
LINE
8
BLACK
6
CONTINUOUS
10
4.17811
20
-4.20386
11
4.17829
21
-4.20385
0
LINE
8
BLACK
6
CONTINUOUS
10
4.17829
20
-4.20385
11
4.17848
21
-4.20383
0
LINE
8
BLACK
6
CONTINUOUS
10
4.17848
20
-4.20383
11
4.20285
21
-4.20383
0
LINE
8
BLACK
6
CONTINUOUS
10
4.20285
20
-4.20383
11
4.20289
21
-4.20383
0
LINE
8
BLACK
6
CONTINUOUS
10
3.73813
20
-4.20389
11
3.73868
21
-4.20406
0
LINE
8
BLACK
6
CONTINUOUS
10
3.73868
20
-4.20406
11
3.73918
21
-4.20434
0
LINE
8
BLACK
6
CONTINUOUS
10
3.73918
20
-4.20434
11
3.73963
21
-4.20471
0
LINE
8
BLACK
6
CONTINUOUS
10
3.73963
20
-4.20471
11
3.73999
21
-4.20515
0
LINE
8
BLACK
6
CONTINUOUS
10
3.73999
20
-4.20515
11
3.74026
21
-4.20566
0
LINE
8
BLACK
6
CONTINUOUS
10
3.74026
20
-4.20566
11
3.74043
21
-4.20621
0
LINE
8
BLACK
6
CONTINUOUS
10
3.74043
20
-4.20621
11
3.74049
21
-4.20679
0
LINE
8
BLACK
6
CONTINUOUS
10
3.74049
20
-4.20679
11
3.74049
21
-4.23443
0
LINE
8
BLACK
6
CONTINUOUS
10
3.74049
20
-4.23443
11
3.74199
21
-4.23894
0
LINE
8
BLACK
6
CONTINUOUS
10
3.74199
20
-4.23894
11
3.74475
21
-4.2417
0
LINE
8
BLACK
6
CONTINUOUS
10
3.74475
20
-4.2417
11
3.74926
21
-4.2432
0
LINE
8
BLACK
6
CONTINUOUS
10
3.74926
20
-4.2432
11
3.75253
21
-4.2432
0
LINE
8
BLACK
6
CONTINUOUS
10
3.75253
20
-4.2432
11
3.75257
21
-4.2432
0
LINE
8
BLACK
6
CONTINUOUS
10
3.75257
20
-4.2432
11
3.75314
21
-4.24327
0
LINE
8
BLACK
6
CONTINUOUS
10
3.75314
20
-4.24327
11
3.75369
21
-4.24344
0
LINE
8
BLACK
6
CONTINUOUS
10
3.75369
20
-4.24344
11
3.7542
21
-4.24372
0
LINE
8
BLACK
6
CONTINUOUS
10
3.7542
20
-4.24372
11
3.75464
21
-4.24409
0
LINE
8
BLACK
6
CONTINUOUS
10
3.75464
20
-4.24409
11
3.755
21
-4.24454
0
LINE
8
BLACK
6
CONTINUOUS
10
3.755
20
-4.24454
11
3.75527
21
-4.24505
0
LINE
8
BLACK
6
CONTINUOUS
10
3.75527
20
-4.24505
11
3.75543
21
-4.2456
0
LINE
8
BLACK
6
CONTINUOUS
10
3.75543
20
-4.2456
11
3.75548
21
-4.24618
0
LINE
8
BLACK
6
CONTINUOUS
10
3.75548
20
-4.24618
11
3.75542
21
-4.24675
0
LINE
8
BLACK
6
CONTINUOUS
10
3.75542
20
-4.24675
11
3.75525
21
-4.2473
0
LINE
8
BLACK
6
CONTINUOUS
10
3.75525
20
-4.2473
11
3.75498
21
-4.24781
0
LINE
8
BLACK
6
CONTINUOUS
10
3.75498
20
-4.24781
11
3.75461
21
-4.24825
0
LINE
8
BLACK
6
CONTINUOUS
10
3.75461
20
-4.24825
11
3.75416
21
-4.24862
0
LINE
8
BLACK
6
CONTINUOUS
10
3.75416
20
-4.24862
11
3.75366
21
-4.24889
0
LINE
8
BLACK
6
CONTINUOUS
10
3.75366
20
-4.24889
11
3.7531
21
-4.24905
0
LINE
8
BLACK
6
CONTINUOUS
10
3.7531
20
-4.24905
11
3.75253
21
-4.24911
0
LINE
8
BLACK
6
CONTINUOUS
10
3.75253
20
-4.24911
11
3.74878
21
-4.24911
0
LINE
8
BLACK
6
CONTINUOUS
10
3.74878
20
-4.24911
11
3.74874
21
-4.24911
0
LINE
8
BLACK
6
CONTINUOUS
10
3.74874
20
-4.24911
11
3.74858
21
-4.24909
0
LINE
8
BLACK
6
CONTINUOUS
10
3.74858
20
-4.24909
11
3.74841
21
-4.24909
0
LINE
8
BLACK
6
CONTINUOUS
10
3.74841
20
-4.24909
11
3.74829
21
-4.24906
0
LINE
8
BLACK
6
CONTINUOUS
10
3.74829
20
-4.24906
11
3.74817
21
-4.24904
0
LINE
8
BLACK
6
CONTINUOUS
10
3.74817
20
-4.24904
11
3.74801
21
-4.24899
0
LINE
8
BLACK
6
CONTINUOUS
10
3.74801
20
-4.24899
11
3.74785
21
-4.24896
0
LINE
8
BLACK
6
CONTINUOUS
10
3.74785
20
-4.24896
11
3.74222
21
-4.24708
0
LINE
8
BLACK
6
CONTINUOUS
10
3.74222
20
-4.24708
11
3.74218
21
-4.24707
0
LINE
8
BLACK
6
CONTINUOUS
10
3.74218
20
-4.24707
11
3.74211
21
-4.24703
0
LINE
8
BLACK
6
CONTINUOUS
10
3.74211
20
-4.24703
11
3.74202
21
-4.24701
0
LINE
8
BLACK
6
CONTINUOUS
10
3.74202
20
-4.24701
11
3.74184
21
-4.24691
0
LINE
8
BLACK
6
CONTINUOUS
10
3.74184
20
-4.24691
11
3.74166
21
-4.24683
0
LINE
8
BLACK
6
CONTINUOUS
10
3.74166
20
-4.24683
11
3.74159
21
-4.24678
0
LINE
8
BLACK
6
CONTINUOUS
10
3.74159
20
-4.24678
11
3.74151
21
-4.24674
0
LINE
8
BLACK
6
CONTINUOUS
10
3.74151
20
-4.24674
11
3.74136
21
-4.24661
0
LINE
8
BLACK
6
CONTINUOUS
10
3.74136
20
-4.24661
11
3.7412
21
-4.24649
0
LINE
8
BLACK
6
CONTINUOUS
10
3.7412
20
-4.24649
11
3.74114
21
-4.24643
0
LINE
8
BLACK
6
CONTINUOUS
10
3.74114
20
-4.24643
11
3.74107
21
-4.24637
0
LINE
8
BLACK
6
CONTINUOUS
10
3.74107
20
-4.24637
11
3.73732
21
-4.24262
0
LINE
8
BLACK
6
CONTINUOUS
10
3.73732
20
-4.24262
11
3.73729
21
-4.24259
0
LINE
8
BLACK
6
CONTINUOUS
10
3.73729
20
-4.24259
11
3.73724
21
-4.24252
0
LINE
8
BLACK
6
CONTINUOUS
10
3.73724
20
-4.24252
11
3.73717
21
-4.24246
0
LINE
8
BLACK
6
CONTINUOUS
10
3.73717
20
-4.24246
11
3.73706
21
-4.2423
0
LINE
8
BLACK
6
CONTINUOUS
10
3.73706
20
-4.2423
11
3.73693
21
-4.24214
0
LINE
8
BLACK
6
CONTINUOUS
10
3.73693
20
-4.24214
11
3.73689
21
-4.24206
0
LINE
8
BLACK
6
CONTINUOUS
10
3.73689
20
-4.24206
11
3.73684
21
-4.24199
0
LINE
8
BLACK
6
CONTINUOUS
10
3.73684
20
-4.24199
11
3.73676
21
-4.24181
0
LINE
8
BLACK
6
CONTINUOUS
10
3.73676
20
-4.24181
11
3.73667
21
-4.24163
0
LINE
8
BLACK
6
CONTINUOUS
10
3.73667
20
-4.24163
11
3.73664
21
-4.24155
0
LINE
8
BLACK
6
CONTINUOUS
10
3.73664
20
-4.24155
11
3.73661
21
-4.24147
0
LINE
8
BLACK
6
CONTINUOUS
10
3.73661
20
-4.24147
11
3.73473
21
-4.23584
0
LINE
8
BLACK
6
CONTINUOUS
10
3.73473
20
-4.23584
11
3.73472
21
-4.2358
0
LINE
8
BLACK
6
CONTINUOUS
10
3.73472
20
-4.2358
11
3.73468
21
-4.23564
0
LINE
8
BLACK
6
CONTINUOUS
10
3.73468
20
-4.23564
11
3.73464
21
-4.23548
0
LINE
8
BLACK
6
CONTINUOUS
10
3.73464
20
-4.23548
11
3.73462
21
-4.23536
0
LINE
8
BLACK
6
CONTINUOUS
10
3.73462
20
-4.23536
11
3.7346
21
-4.23524
0
LINE
8
BLACK
6
CONTINUOUS
10
3.7346
20
-4.23524
11
3.7346
21
-4.23507
0
LINE
8
BLACK
6
CONTINUOUS
10
3.7346
20
-4.23507
11
3.73458
21
-4.23491
0
LINE
8
BLACK
6
CONTINUOUS
10
3.73458
20
-4.23491
11
3.73458
21
-4.20679
0
LINE
8
BLACK
6
CONTINUOUS
10
3.73458
20
-4.20679
11
3.73458
21
-4.20675
0
LINE
8
BLACK
6
CONTINUOUS
10
3.73458
20
-4.20675
11
3.73464
21
-4.20617
0
LINE
8
BLACK
6
CONTINUOUS
10
3.73464
20
-4.20617
11
3.73482
21
-4.20562
0
LINE
8
BLACK
6
CONTINUOUS
10
3.73482
20
-4.20562
11
3.7351
21
-4.20512
0
LINE
8
BLACK
6
CONTINUOUS
10
3.7351
20
-4.20512
11
3.73547
21
-4.20468
0
LINE
8
BLACK
6
CONTINUOUS
10
3.73547
20
-4.20468
11
3.73592
21
-4.20432
0
LINE
8
BLACK
6
CONTINUOUS
10
3.73592
20
-4.20432
11
3.73643
21
-4.20405
0
LINE
8
BLACK
6
CONTINUOUS
10
3.73643
20
-4.20405
11
3.73698
21
-4.20389
0
LINE
8
BLACK
6
CONTINUOUS
10
3.73698
20
-4.20389
11
3.73755
21
-4.20383
0
LINE
8
BLACK
6
CONTINUOUS
10
3.73755
20
-4.20383
11
3.73813
21
-4.20389
0
LINE
8
BLACK
6
CONTINUOUS
10
4.52369
20
-4.13685
11
4.52414
21
-4.13698
0
LINE
8
BLACK
6
CONTINUOUS
10
4.52414
20
-4.13698
11
4.52455
21
-4.1372
0
LINE
8
BLACK
6
CONTINUOUS
10
4.52455
20
-4.1372
11
4.52491
21
-4.13749
0
LINE
8
BLACK
6
CONTINUOUS
10
4.52491
20
-4.13749
11
4.5252
21
-4.13785
0
LINE
8
BLACK
6
CONTINUOUS
10
4.5252
20
-4.13785
11
4.52542
21
-4.13826
0
LINE
8
BLACK
6
CONTINUOUS
10
4.52542
20
-4.13826
11
4.52556
21
-4.13871
0
LINE
8
BLACK
6
CONTINUOUS
10
4.52556
20
-4.13871
11
4.52559
21
-4.13906
0
LINE
8
BLACK
6
CONTINUOUS
10
4.52559
20
-4.13906
11
4.52559
21
-4.17421
0
LINE
8
BLACK
6
CONTINUOUS
10
4.52559
20
-4.17421
11
4.54106
21
-4.17421
0
LINE
8
BLACK
6
CONTINUOUS
10
4.54106
20
-4.17421
11
4.54141
21
-4.17425
0
LINE
8
BLACK
6
CONTINUOUS
10
4.54141
20
-4.17425
11
4.54185
21
-4.17438
0
LINE
8
BLACK
6
CONTINUOUS
10
4.54185
20
-4.17438
11
4.54226
21
-4.1746
0
LINE
8
BLACK
6
CONTINUOUS
10
4.54226
20
-4.1746
11
4.54262
21
-4.1749
0
LINE
8
BLACK
6
CONTINUOUS
10
4.54262
20
-4.1749
11
4.54292
21
-4.17526
0
LINE
8
BLACK
6
CONTINUOUS
10
4.54292
20
-4.17526
11
4.54314
21
-4.17567
0
LINE
8
BLACK
6
CONTINUOUS
10
4.54314
20
-4.17567
11
4.54327
21
-4.17611
0
LINE
8
BLACK
6
CONTINUOUS
10
4.54327
20
-4.17611
11
4.54332
21
-4.17657
0
LINE
8
BLACK
6
CONTINUOUS
10
4.54332
20
-4.17657
11
4.54327
21
-4.17704
0
LINE
8
BLACK
6
CONTINUOUS
10
4.54327
20
-4.17704
11
4.54314
21
-4.17748
0
LINE
8
BLACK
6
CONTINUOUS
10
4.54314
20
-4.17748
11
4.54292
21
-4.17789
0
LINE
8
BLACK
6
CONTINUOUS
10
4.54292
20
-4.17789
11
4.54262
21
-4.17825
0
LINE
8
BLACK
6
CONTINUOUS
10
4.54262
20
-4.17825
11
4.54226
21
-4.17855
0
LINE
8
BLACK
6
CONTINUOUS
10
4.54226
20
-4.17855
11
4.54185
21
-4.17877
0
LINE
8
BLACK
6
CONTINUOUS
10
4.54185
20
-4.17877
11
4.54141
21
-4.1789
0
LINE
8
BLACK
6
CONTINUOUS
10
4.54141
20
-4.1789
11
4.54106
21
-4.17894
0
LINE
8
BLACK
6
CONTINUOUS
10
4.54106
20
-4.17894
11
4.52334
21
-4.17894
0
LINE
8
BLACK
6
CONTINUOUS
10
4.52334
20
-4.17894
11
4.52323
21
-4.17895
0
LINE
8
BLACK
6
CONTINUOUS
10
4.52323
20
-4.17895
11
4.52277
21
-4.1789
0
LINE
8
BLACK
6
CONTINUOUS
10
4.52277
20
-4.1789
11
4.52232
21
-4.17877
0
LINE
8
BLACK
6
CONTINUOUS
10
4.52232
20
-4.17877
11
4.52191
21
-4.17855
0
LINE
8
BLACK
6
CONTINUOUS
10
4.52191
20
-4.17855
11
4.52155
21
-4.17825
0
LINE
8
BLACK
6
CONTINUOUS
10
4.52155
20
-4.17825
11
4.52125
21
-4.17789
0
LINE
8
BLACK
6
CONTINUOUS
10
4.52125
20
-4.17789
11
4.52104
21
-4.17748
0
LINE
8
BLACK
6
CONTINUOUS
10
4.52104
20
-4.17748
11
4.5209
21
-4.17704
0
LINE
8
BLACK
6
CONTINUOUS
10
4.5209
20
-4.17704
11
4.52085
21
-4.17657
0
LINE
8
BLACK
6
CONTINUOUS
10
4.52085
20
-4.17657
11
4.52087
21
-4.17646
0
LINE
8
BLACK
6
CONTINUOUS
10
4.52087
20
-4.17646
11
4.52087
21
-4.13906
0
LINE
8
BLACK
6
CONTINUOUS
10
4.52087
20
-4.13906
11
4.5209
21
-4.13871
0
LINE
8
BLACK
6
CONTINUOUS
10
4.5209
20
-4.13871
11
4.52104
21
-4.13826
0
LINE
8
BLACK
6
CONTINUOUS
10
4.52104
20
-4.13826
11
4.52125
21
-4.13785
0
LINE
8
BLACK
6
CONTINUOUS
10
4.52125
20
-4.13785
11
4.52155
21
-4.13749
0
LINE
8
BLACK
6
CONTINUOUS
10
4.52155
20
-4.13749
11
4.52191
21
-4.1372
0
LINE
8
BLACK
6
CONTINUOUS
10
4.52191
20
-4.1372
11
4.52232
21
-4.13698
0
LINE
8
BLACK
6
CONTINUOUS
10
4.52232
20
-4.13698
11
4.52277
21
-4.13685
0
LINE
8
BLACK
6
CONTINUOUS
10
4.52277
20
-4.13685
11
4.52323
21
-4.1368
0
LINE
8
BLACK
6
CONTINUOUS
10
4.52323
20
-4.1368
11
4.52369
21
-4.13685
0
LINE
8
BLACK
6
CONTINUOUS
10
4.69736
20
-3.70295
11
4.69736
21
-3.70295
0
LINE
8
BLACK
6
CONTINUOUS
10
4.69736
20
-3.70295
11
4.69771
21
-3.70299
0
LINE
8
BLACK
6
CONTINUOUS
10
4.69771
20
-3.70299
11
4.69815
21
-3.70312
0
LINE
8
BLACK
6
CONTINUOUS
10
4.69815
20
-3.70312
11
4.69856
21
-3.70334
0
LINE
8
BLACK
6
CONTINUOUS
10
4.69856
20
-3.70334
11
4.69892
21
-3.70364
0
LINE
8
BLACK
6
CONTINUOUS
10
4.69892
20
-3.70364
11
4.69922
21
-3.704
0
LINE
8
BLACK
6
CONTINUOUS
10
4.69922
20
-3.704
11
4.69944
21
-3.70441
0
LINE
8
BLACK
6
CONTINUOUS
10
4.69944
20
-3.70441
11
4.69957
21
-3.70485
0
LINE
8
BLACK
6
CONTINUOUS
10
4.69957
20
-3.70485
11
4.69962
21
-3.70531
0
LINE
8
BLACK
6
CONTINUOUS
10
4.69962
20
-3.70531
11
4.69961
21
-3.70543
0
LINE
8
BLACK
6
CONTINUOUS
10
4.69961
20
-3.70543
11
4.69961
21
-4.17646
0
LINE
8
BLACK
6
CONTINUOUS
10
4.69961
20
-4.17646
11
4.69962
21
-4.17657
0
LINE
8
BLACK
6
CONTINUOUS
10
4.69962
20
-4.17657
11
4.69961
21
-4.17669
0
LINE
8
BLACK
6
CONTINUOUS
10
4.69961
20
-4.17669
11
4.69961
21
-4.17669
0
LINE
8
BLACK
6
CONTINUOUS
10
4.69961
20
-4.17669
11
4.69957
21
-4.17704
0
LINE
8
BLACK
6
CONTINUOUS
10
4.69957
20
-4.17704
11
4.69944
21
-4.17748
0
LINE
8
BLACK
6
CONTINUOUS
10
4.69944
20
-4.17748
11
4.69922
21
-4.17789
0
LINE
8
BLACK
6
CONTINUOUS
10
4.69922
20
-4.17789
11
4.69892
21
-4.17825
0
LINE
8
BLACK
6
CONTINUOUS
10
4.69892
20
-4.17825
11
4.69856
21
-4.17855
0
LINE
8
BLACK
6
CONTINUOUS
10
4.69856
20
-4.17855
11
4.69815
21
-4.17877
0
LINE
8
BLACK
6
CONTINUOUS
10
4.69815
20
-4.17877
11
4.69771
21
-4.1789
0
LINE
8
BLACK
6
CONTINUOUS
10
4.69771
20
-4.1789
11
4.69724
21
-4.17895
0
LINE
8
BLACK
6
CONTINUOUS
10
4.69724
20
-4.17895
11
4.69713
21
-4.17894
0
LINE
8
BLACK
6
CONTINUOUS
10
4.69713
20
-4.17894
11
4.67941
21
-4.17894
0
LINE
8
BLACK
6
CONTINUOUS
10
4.67941
20
-4.17894
11
4.67906
21
-4.1789
0
LINE
8
BLACK
6
CONTINUOUS
10
4.67906
20
-4.1789
11
4.67862
21
-4.17877
0
LINE
8
BLACK
6
CONTINUOUS
10
4.67862
20
-4.17877
11
4.67821
21
-4.17855
0
LINE
8
BLACK
6
CONTINUOUS
10
4.67821
20
-4.17855
11
4.67785
21
-4.17825
0
LINE
8
BLACK
6
CONTINUOUS
10
4.67785
20
-4.17825
11
4.67755
21
-4.17789
0
LINE
8
BLACK
6
CONTINUOUS
10
4.67755
20
-4.17789
11
4.67733
21
-4.17748
0
LINE
8
BLACK
6
CONTINUOUS
10
4.67733
20
-4.17748
11
4.6772
21
-4.17704
0
LINE
8
BLACK
6
CONTINUOUS
10
4.6772
20
-4.17704
11
4.67715
21
-4.17657
0
LINE
8
BLACK
6
CONTINUOUS
10
4.67715
20
-4.17657
11
4.6772
21
-4.17611
0
LINE
8
BLACK
6
CONTINUOUS
10
4.6772
20
-4.17611
11
4.67733
21
-4.17567
0
LINE
8
BLACK
6
CONTINUOUS
10
4.67733
20
-4.17567
11
4.67755
21
-4.17526
0
LINE
8
BLACK
6
CONTINUOUS
10
4.67755
20
-4.17526
11
4.67785
21
-4.1749
0
LINE
8
BLACK
6
CONTINUOUS
10
4.67785
20
-4.1749
11
4.67821
21
-4.1746
0
LINE
8
BLACK
6
CONTINUOUS
10
4.67821
20
-4.1746
11
4.67862
21
-4.17438
0
LINE
8
BLACK
6
CONTINUOUS
10
4.67862
20
-4.17438
11
4.67906
21
-4.17425
0
LINE
8
BLACK
6
CONTINUOUS
10
4.67906
20
-4.17425
11
4.67941
21
-4.17421
0
LINE
8
BLACK
6
CONTINUOUS
10
4.67941
20
-4.17421
11
4.69488
21
-4.17421
0
LINE
8
BLACK
6
CONTINUOUS
10
4.69488
20
-4.17421
11
4.69488
21
-3.70768
0
LINE
8
BLACK
6
CONTINUOUS
10
4.69488
20
-3.70768
11
4.67941
21
-3.70768
0
LINE
8
BLACK
6
CONTINUOUS
10
4.67941
20
-3.70768
11
4.67906
21
-3.70764
0
LINE
8
BLACK
6
CONTINUOUS
10
4.67906
20
-3.70764
11
4.67862
21
-3.70751
0
LINE
8
BLACK
6
CONTINUOUS
10
4.67862
20
-3.70751
11
4.67821
21
-3.70729
0
LINE
8
BLACK
6
CONTINUOUS
10
4.67821
20
-3.70729
11
4.67785
21
-3.70699
0
LINE
8
BLACK
6
CONTINUOUS
10
4.67785
20
-3.70699
11
4.67755
21
-3.70663
0
LINE
8
BLACK
6
CONTINUOUS
10
4.67755
20
-3.70663
11
4.67733
21
-3.70622
0
LINE
8
BLACK
6
CONTINUOUS
10
4.67733
20
-3.70622
11
4.6772
21
-3.70578
0
LINE
8
BLACK
6
CONTINUOUS
10
4.6772
20
-3.70578
11
4.67715
21
-3.70531
0
LINE
8
BLACK
6
CONTINUOUS
10
4.67715
20
-3.70531
11
4.6772
21
-3.70485
0
LINE
8
BLACK
6
CONTINUOUS
10
4.6772
20
-3.70485
11
4.67733
21
-3.70441
0
LINE
8
BLACK
6
CONTINUOUS
10
4.67733
20
-3.70441
11
4.67755
21
-3.704
0
LINE
8
BLACK
6
CONTINUOUS
10
4.67755
20
-3.704
11
4.67785
21
-3.70364
0
LINE
8
BLACK
6
CONTINUOUS
10
4.67785
20
-3.70364
11
4.67821
21
-3.70334
0
LINE
8
BLACK
6
CONTINUOUS
10
4.67821
20
-3.70334
11
4.67862
21
-3.70312
0
LINE
8
BLACK
6
CONTINUOUS
10
4.67862
20
-3.70312
11
4.67906
21
-3.70299
0
LINE
8
BLACK
6
CONTINUOUS
10
4.67906
20
-3.70299
11
4.67941
21
-3.70295
0
LINE
8
BLACK
6
CONTINUOUS
10
4.67941
20
-3.70295
11
4.69713
21
-3.70295
0
LINE
8
BLACK
6
CONTINUOUS
10
4.69713
20
-3.70295
11
4.69724
21
-3.70294
0
LINE
8
BLACK
6
CONTINUOUS
10
4.69724
20
-3.70294
11
4.69736
21
-3.70295
0
LINE
8
BLACK
6
CONTINUOUS
10
4.43197
20
-3.9418
11
4.43252
21
-3.94197
0
LINE
8
BLACK
6
CONTINUOUS
10
4.43252
20
-3.94197
11
4.43303
21
-3.94224
0
LINE
8
BLACK
6
CONTINUOUS
10
4.43303
20
-3.94224
11
4.43347
21
-3.94261
0
LINE
8
BLACK
6
CONTINUOUS
10
4.43347
20
-3.94261
11
4.43535
21
-3.94448
0
LINE
8
BLACK
6
CONTINUOUS
10
4.43535
20
-3.94448
11
4.43538
21
-3.94451
0
LINE
8
BLACK
6
CONTINUOUS
10
4.43538
20
-3.94451
11
4.43548
21
-3.94464
0
LINE
8
BLACK
6
CONTINUOUS
10
4.43548
20
-3.94464
11
4.43559
21
-3.94476
0
LINE
8
BLACK
6
CONTINUOUS
10
4.43559
20
-3.94476
11
4.43566
21
-3.94487
0
LINE
8
BLACK
6
CONTINUOUS
10
4.43566
20
-3.94487
11
4.43573
21
-3.94496
0
LINE
8
BLACK
6
CONTINUOUS
10
4.43573
20
-3.94496
11
4.43581
21
-3.94511
0
LINE
8
BLACK
6
CONTINUOUS
10
4.43581
20
-3.94511
11
4.4359
21
-3.94525
0
LINE
8
BLACK
6
CONTINUOUS
10
4.4359
20
-3.94525
11
4.43777
21
-3.949
0
LINE
8
BLACK
6
CONTINUOUS
10
4.43777
20
-3.949
11
4.43779
21
-3.94904
0
LINE
8
BLACK
6
CONTINUOUS
10
4.43779
20
-3.94904
11
4.43782
21
-3.94912
0
LINE
8
BLACK
6
CONTINUOUS
10
4.43782
20
-3.94912
11
4.43786
21
-3.94919
0
LINE
8
BLACK
6
CONTINUOUS
10
4.43786
20
-3.94919
11
4.43792
21
-3.94939
0
LINE
8
BLACK
6
CONTINUOUS
10
4.43792
20
-3.94939
11
4.43799
21
-3.94958
0
LINE
8
BLACK
6
CONTINUOUS
10
4.43799
20
-3.94958
11
4.438
21
-3.94966
0
LINE
8
BLACK
6
CONTINUOUS
10
4.438
20
-3.94966
11
4.43803
21
-3.94975
0
LINE
8
BLACK
6
CONTINUOUS
10
4.43803
20
-3.94975
11
4.43805
21
-3.94995
0
LINE
8
BLACK
6
CONTINUOUS
10
4.43805
20
-3.94995
11
4.43808
21
-3.95015
0
LINE
8
BLACK
6
CONTINUOUS
10
4.43808
20
-3.95015
11
4.43808
21
-3.95023
0
LINE
8
BLACK
6
CONTINUOUS
10
4.43808
20
-3.95023
11
4.43809
21
-3.95032
0
LINE
8
BLACK
6
CONTINUOUS
10
4.43809
20
-3.95032
11
4.43809
21
-3.95969
0
LINE
8
BLACK
6
CONTINUOUS
10
4.43809
20
-3.95969
11
4.43809
21
-3.95973
0
LINE
8
BLACK
6
CONTINUOUS
10
4.43809
20
-3.95973
11
4.43808
21
-3.95982
0
LINE
8
BLACK
6
CONTINUOUS
10
4.43808
20
-3.95982
11
4.43808
21
-3.95991
0
LINE
8
BLACK
6
CONTINUOUS
10
4.43808
20
-3.95991
11
4.43804
21
-3.96011
0
LINE
8
BLACK
6
CONTINUOUS
10
4.43804
20
-3.96011
11
4.43802
21
-3.96031
0
LINE
8
BLACK
6
CONTINUOUS
10
4.43802
20
-3.96031
11
4.438
21
-3.96039
0
LINE
8
BLACK
6
CONTINUOUS
10
4.438
20
-3.96039
11
4.43798
21
-3.96047
0
LINE
8
BLACK
6
CONTINUOUS
10
4.43798
20
-3.96047
11
4.43791
21
-3.96066
0
LINE
8
BLACK
6
CONTINUOUS
10
4.43791
20
-3.96066
11
4.43785
21
-3.96086
0
LINE
8
BLACK
6
CONTINUOUS
10
4.43785
20
-3.96086
11
4.43781
21
-3.96093
0
LINE
8
BLACK
6
CONTINUOUS
10
4.43781
20
-3.96093
11
4.43777
21
-3.96101
0
LINE
8
BLACK
6
CONTINUOUS
10
4.43777
20
-3.96101
11
4.4359
21
-3.96476
0
LINE
8
BLACK
6
CONTINUOUS
10
4.4359
20
-3.96476
11
4.43588
21
-3.9648
0
LINE
8
BLACK
6
CONTINUOUS
10
4.43588
20
-3.9648
11
4.43579
21
-3.96494
0
LINE
8
BLACK
6
CONTINUOUS
10
4.43579
20
-3.96494
11
4.43571
21
-3.96508
0
LINE
8
BLACK
6
CONTINUOUS
10
4.43571
20
-3.96508
11
4.43563
21
-3.96518
0
LINE
8
BLACK
6
CONTINUOUS
10
4.43563
20
-3.96518
11
4.43557
21
-3.96528
0
LINE
8
BLACK
6
CONTINUOUS
10
4.43557
20
-3.96528
11
4.43545
21
-3.9654
0
LINE
8
BLACK
6
CONTINUOUS
10
4.43545
20
-3.9654
11
4.43535
21
-3.96553
0
LINE
8
BLACK
6
CONTINUOUS
10
4.43535
20
-3.96553
11
4.43347
21
-3.9674
0
LINE
8
BLACK
6
CONTINUOUS
10
4.43347
20
-3.9674
11
4.43344
21
-3.96743
0
LINE
8
BLACK
6
CONTINUOUS
10
4.43344
20
-3.96743
11
4.43331
21
-3.96754
0
LINE
8
BLACK
6
CONTINUOUS
10
4.43331
20
-3.96754
11
4.43319
21
-3.96765
0
LINE
8
BLACK
6
CONTINUOUS
10
4.43319
20
-3.96765
11
4.43309
21
-3.96772
0
LINE
8
BLACK
6
CONTINUOUS
10
4.43309
20
-3.96772
11
4.43299
21
-3.96779
0
LINE
8
BLACK
6
CONTINUOUS
10
4.43299
20
-3.96779
11
4.43284
21
-3.96787
0
LINE
8
BLACK
6
CONTINUOUS
10
4.43284
20
-3.96787
11
4.4327
21
-3.96796
0
LINE
8
BLACK
6
CONTINUOUS
10
4.4327
20
-3.96796
11
4.42895
21
-3.96983
0
LINE
8
BLACK
6
CONTINUOUS
10
4.42895
20
-3.96983
11
4.42892
21
-3.96985
0
LINE
8
BLACK
6
CONTINUOUS
10
4.42892
20
-3.96985
11
4.42884
21
-3.96988
0
LINE
8
BLACK
6
CONTINUOUS
10
4.42884
20
-3.96988
11
4.42876
21
-3.96992
0
LINE
8
BLACK
6
CONTINUOUS
10
4.42876
20
-3.96992
11
4.42857
21
-3.96998
0
LINE
8
BLACK
6
CONTINUOUS
10
4.42857
20
-3.96998
11
4.42838
21
-3.97005
0
LINE
8
BLACK
6
CONTINUOUS
10
4.42838
20
-3.97005
11
4.42829
21
-3.97006
0
LINE
8
BLACK
6
CONTINUOUS
10
4.42829
20
-3.97006
11
4.42821
21
-3.97009
0
LINE
8
BLACK
6
CONTINUOUS
10
4.42821
20
-3.97009
11
4.42801
21
-3.97011
0
LINE
8
BLACK
6
CONTINUOUS
10
4.42801
20
-3.97011
11
4.42781
21
-3.97014
0
LINE
8
BLACK
6
CONTINUOUS
10
4.42781
20
-3.97014
11
4.42772
21
-3.97014
0
LINE
8
BLACK
6
CONTINUOUS
10
4.42772
20
-3.97014
11
4.42763
21
-3.97014
0
LINE
8
BLACK
6
CONTINUOUS
10
4.42763
20
-3.97014
11
4.41826
21
-3.97014
0
LINE
8
BLACK
6
CONTINUOUS
10
4.41826
20
-3.97014
11
4.41822
21
-3.97014
0
LINE
8
BLACK
6
CONTINUOUS
10
4.41822
20
-3.97014
11
4.41813
21
-3.97013
0
LINE
8
BLACK
6
CONTINUOUS
10
4.41813
20
-3.97013
11
4.41805
21
-3.97014
0
LINE
8
BLACK
6
CONTINUOUS
10
4.41805
20
-3.97014
11
4.41785
21
-3.9701
0
LINE
8
BLACK
6
CONTINUOUS
10
4.41785
20
-3.9701
11
4.41765
21
-3.97008
0
LINE
8
BLACK
6
CONTINUOUS
10
4.41765
20
-3.97008
11
4.41756
21
-3.97005
0
LINE
8
BLACK
6
CONTINUOUS
10
4.41756
20
-3.97005
11
4.41748
21
-3.97004
0
LINE
8
BLACK
6
CONTINUOUS
10
4.41748
20
-3.97004
11
4.41729
21
-3.96997
0
LINE
8
BLACK
6
CONTINUOUS
10
4.41729
20
-3.96997
11
4.4171
21
-3.96991
0
LINE
8
BLACK
6
CONTINUOUS
10
4.4171
20
-3.96991
11
4.41702
21
-3.96986
0
LINE
8
BLACK
6
CONTINUOUS
10
4.41702
20
-3.96986
11
4.41694
21
-3.96983
0
LINE
8
BLACK
6
CONTINUOUS
10
4.41694
20
-3.96983
11
4.41319
21
-3.96796
0
LINE
8
BLACK
6
CONTINUOUS
10
4.41319
20
-3.96796
11
4.41315
21
-3.96794
0
LINE
8
BLACK
6
CONTINUOUS
10
4.41315
20
-3.96794
11
4.41301
21
-3.96785
0
LINE
8
BLACK
6
CONTINUOUS
10
4.41301
20
-3.96785
11
4.41287
21
-3.96777
0
LINE
8
BLACK
6
CONTINUOUS
10
4.41287
20
-3.96777
11
4.41277
21
-3.96769
0
LINE
8
BLACK
6
CONTINUOUS
10
4.41277
20
-3.96769
11
4.41267
21
-3.96763
0
LINE
8
BLACK
6
CONTINUOUS
10
4.41267
20
-3.96763
11
4.41255
21
-3.96751
0
LINE
8
BLACK
6
CONTINUOUS
10
4.41255
20
-3.96751
11
4.41242
21
-3.9674
0
LINE
8
BLACK
6
CONTINUOUS
10
4.41242
20
-3.9674
11
4.41055
21
-3.96553
0
LINE
8
BLACK
6
CONTINUOUS
10
4.41055
20
-3.96553
11
4.41052
21
-3.9655
0
LINE
8
BLACK
6
CONTINUOUS
10
4.41052
20
-3.9655
11
4.41042
21
-3.96537
0
LINE
8
BLACK
6
CONTINUOUS
10
4.41042
20
-3.96537
11
4.4103
21
-3.96525
0
LINE
8
BLACK
6
CONTINUOUS
10
4.4103
20
-3.96525
11
4.41024
21
-3.96515
0
LINE
8
BLACK
6
CONTINUOUS
10
4.41024
20
-3.96515
11
4.41016
21
-3.96505
0
LINE
8
BLACK
6
CONTINUOUS
10
4.41016
20
-3.96505
11
4.41008
21
-3.9649
0
LINE
8
BLACK
6
CONTINUOUS
10
4.41008
20
-3.9649
11
4.40999
21
-3.96476
0
LINE
8
BLACK
6
CONTINUOUS
10
4.40999
20
-3.96476
11
4.40812
21
-3.96101
0
LINE
8
BLACK
6
CONTINUOUS
10
4.40812
20
-3.96101
11
4.4081
21
-3.96098
0
LINE
8
BLACK
6
CONTINUOUS
10
4.4081
20
-3.96098
11
4.40807
21
-3.96089
0
LINE
8
BLACK
6
CONTINUOUS
10
4.40807
20
-3.96089
11
4.40803
21
-3.96082
0
LINE
8
BLACK
6
CONTINUOUS
10
4.40803
20
-3.96082
11
4.40797
21
-3.96062
0
LINE
8
BLACK
6
CONTINUOUS
10
4.40797
20
-3.96062
11
4.4079
21
-3.96044
0
LINE
8
BLACK
6
CONTINUOUS
10
4.4079
20
-3.96044
11
4.40789
21
-3.96035
0
LINE
8
BLACK
6
CONTINUOUS
10
4.40789
20
-3.96035
11
4.40786
21
-3.96027
0
LINE
8
BLACK
6
CONTINUOUS
10
4.40786
20
-3.96027
11
4.40784
21
-3.96006
0
LINE
8
BLACK
6
CONTINUOUS
10
4.40784
20
-3.96006
11
4.40781
21
-3.95987
0
LINE
8
BLACK
6
CONTINUOUS
10
4.40781
20
-3.95987
11
4.40782
21
-3.95978
0
LINE
8
BLACK
6
CONTINUOUS
10
4.40782
20
-3.95978
11
4.40781
21
-3.95969
0
LINE
8
BLACK
6
CONTINUOUS
10
4.40781
20
-3.95969
11
4.40781
21
-3.95032
0
LINE
8
BLACK
6
CONTINUOUS
10
4.40781
20
-3.95032
11
4.40781
21
-3.95028
0
LINE
8
BLACK
6
CONTINUOUS
10
4.40781
20
-3.95028
11
4.40782
21
-3.95019
0
LINE
8
BLACK
6
CONTINUOUS
10
4.40782
20
-3.95019
11
4.40782
21
-3.9501
0
LINE
8
BLACK
6
CONTINUOUS
10
4.40782
20
-3.9501
11
4.40785
21
-3.94991
0
LINE
8
BLACK
6
CONTINUOUS
10
4.40785
20
-3.94991
11
4.40787
21
-3.9497
0
LINE
8
BLACK
6
CONTINUOUS
10
4.40787
20
-3.9497
11
4.4079
21
-3.94962
0
LINE
8
BLACK
6
CONTINUOUS
10
4.4079
20
-3.94962
11
4.40791
21
-3.94954
0
LINE
8
BLACK
6
CONTINUOUS
10
4.40791
20
-3.94954
11
4.40799
21
-3.94935
0
LINE
8
BLACK
6
CONTINUOUS
10
4.40799
20
-3.94935
11
4.40805
21
-3.94916
0
LINE
8
BLACK
6
CONTINUOUS
10
4.40805
20
-3.94916
11
4.40809
21
-3.94908
0
LINE
8
BLACK
6
CONTINUOUS
10
4.40809
20
-3.94908
11
4.40812
21
-3.949
0
LINE
8
BLACK
6
CONTINUOUS
10
4.40812
20
-3.949
11
4.40849
21
-3.94826
0
LINE
8
BLACK
6
CONTINUOUS
10
4.40849
20
-3.94826
11
4.39872
21
-3.94924
0
LINE
8
BLACK
6
CONTINUOUS
10
4.39872
20
-3.94924
11
4.39872
21
-3.96532
0
LINE
8
BLACK
6
CONTINUOUS
10
4.39872
20
-3.96532
11
4.39872
21
-3.96536
0
LINE
8
BLACK
6
CONTINUOUS
10
4.39872
20
-3.96536
11
4.39865
21
-3.96593
0
LINE
8
BLACK
6
CONTINUOUS
10
4.39865
20
-3.96593
11
4.39848
21
-3.96648
0
LINE
8
BLACK
6
CONTINUOUS
10
4.39848
20
-3.96648
11
4.3982
21
-3.96699
0
LINE
8
BLACK
6
CONTINUOUS
10
4.3982
20
-3.96699
11
4.39783
21
-3.96743
0
LINE
8
BLACK
6
CONTINUOUS
10
4.39783
20
-3.96743
11
4.39738
21
-3.96779
0
LINE
8
BLACK
6
CONTINUOUS
10
4.39738
20
-3.96779
11
4.39687
21
-3.96805
0
LINE
8
BLACK
6
CONTINUOUS
10
4.39687
20
-3.96805
11
4.39632
21
-3.96822
0
LINE
8
BLACK
6
CONTINUOUS
10
4.39632
20
-3.96822
11
4.39574
21
-3.96827
0
LINE
8
BLACK
6
CONTINUOUS
10
4.39574
20
-3.96827
11
4.39517
21
-3.96821
0
LINE
8
BLACK
6
CONTINUOUS
10
4.39517
20
-3.96821
11
4.39462
21
-3.96804
0
LINE
8
BLACK
6
CONTINUOUS
10
4.39462
20
-3.96804
11
4.39411
21
-3.96776
0
LINE
8
BLACK
6
CONTINUOUS
10
4.39411
20
-3.96776
11
4.39367
21
-3.9674
0
LINE
8
BLACK
6
CONTINUOUS
10
4.39367
20
-3.9674
11
4.3933
21
-3.96695
0
LINE
8
BLACK
6
CONTINUOUS
10
4.3933
20
-3.96695
11
4.39303
21
-3.96644
0
LINE
8
BLACK
6
CONTINUOUS
10
4.39303
20
-3.96644
11
4.39287
21
-3.96589
0
LINE
8
BLACK
6
CONTINUOUS
10
4.39287
20
-3.96589
11
4.39281
21
-3.96532
0
LINE
8
BLACK
6
CONTINUOUS
10
4.39281
20
-3.96532
11
4.39281
21
-3.94657
0
LINE
8
BLACK
6
CONTINUOUS
10
4.39281
20
-3.94657
11
4.39281
21
-3.94653
0
LINE
8
BLACK
6
CONTINUOUS
10
4.39281
20
-3.94653
11
4.39283
21
-3.9464
0
LINE
8
BLACK
6
CONTINUOUS
10
4.39283
20
-3.9464
11
4.39283
21
-3.94627
0
LINE
8
BLACK
6
CONTINUOUS
10
4.39283
20
-3.94627
11
4.39286
21
-3.94611
0
LINE
8
BLACK
6
CONTINUOUS
10
4.39286
20
-3.94611
11
4.39287
21
-3.94596
0
LINE
8
BLACK
6
CONTINUOUS
10
4.39287
20
-3.94596
11
4.39291
21
-3.94583
0
LINE
8
BLACK
6
CONTINUOUS
10
4.39291
20
-3.94583
11
4.39294
21
-3.9457
0
LINE
8
BLACK
6
CONTINUOUS
10
4.39294
20
-3.9457
11
4.393
21
-3.94556
0
LINE
8
BLACK
6
CONTINUOUS
10
4.393
20
-3.94556
11
4.39305
21
-3.94541
0
LINE
8
BLACK
6
CONTINUOUS
10
4.39305
20
-3.94541
11
4.39311
21
-3.94529
0
LINE
8
BLACK
6
CONTINUOUS
10
4.39311
20
-3.94529
11
4.39316
21
-3.94517
0
LINE
8
BLACK
6
CONTINUOUS
10
4.39316
20
-3.94517
11
4.39325
21
-3.94504
0
LINE
8
BLACK
6
CONTINUOUS
10
4.39325
20
-3.94504
11
4.39333
21
-3.9449
0
LINE
8
BLACK
6
CONTINUOUS
10
4.39333
20
-3.9449
11
4.39341
21
-3.9448
0
LINE
8
BLACK
6
CONTINUOUS
10
4.39341
20
-3.9448
11
4.39348
21
-3.94469
0
LINE
8
BLACK
6
CONTINUOUS
10
4.39348
20
-3.94469
11
4.3936
21
-3.94458
0
LINE
8
BLACK
6
CONTINUOUS
10
4.3936
20
-3.94458
11
4.3937
21
-3.94446
0
LINE
8
BLACK
6
CONTINUOUS
10
4.3937
20
-3.94446
11
4.3938
21
-3.94438
0
LINE
8
BLACK
6
CONTINUOUS
10
4.3938
20
-3.94438
11
4.39389
21
-3.94428
0
LINE
8
BLACK
6
CONTINUOUS
10
4.39389
20
-3.94428
11
4.39402
21
-3.9442
0
LINE
8
BLACK
6
CONTINUOUS
10
4.39402
20
-3.9442
11
4.39415
21
-3.9441
0
LINE
8
BLACK
6
CONTINUOUS
10
4.39415
20
-3.9441
11
4.39426
21
-3.94404
0
LINE
8
BLACK
6
CONTINUOUS
10
4.39426
20
-3.94404
11
4.39437
21
-3.94396
0
LINE
8
BLACK
6
CONTINUOUS
10
4.39437
20
-3.94396
11
4.39452
21
-3.9439
0
LINE
8
BLACK
6
CONTINUOUS
10
4.39452
20
-3.9439
11
4.39466
21
-3.94383
0
LINE
8
BLACK
6
CONTINUOUS
10
4.39466
20
-3.94383
11
4.39478
21
-3.94379
0
LINE
8
BLACK
6
CONTINUOUS
10
4.39478
20
-3.94379
11
4.3949
21
-3.94374
0
LINE
8
BLACK
6
CONTINUOUS
10
4.3949
20
-3.94374
11
4.39506
21
-3.94371
0
LINE
8
BLACK
6
CONTINUOUS
10
4.39506
20
-3.94371
11
4.39521
21
-3.94367
0
LINE
8
BLACK
6
CONTINUOUS
10
4.39521
20
-3.94367
11
4.39534
21
-3.94366
0
LINE
8
BLACK
6
CONTINUOUS
10
4.39534
20
-3.94366
11
4.39547
21
-3.94363
0
LINE
8
BLACK
6
CONTINUOUS
10
4.39547
20
-3.94363
11
4.41422
21
-3.94176
0
LINE
8
BLACK
6
CONTINUOUS
10
4.41422
20
-3.94176
11
4.41426
21
-3.94175
0
LINE
8
BLACK
6
CONTINUOUS
10
4.41426
20
-3.94175
11
4.4144
21
-3.94175
0
LINE
8
BLACK
6
CONTINUOUS
10
4.4144
20
-3.94175
11
4.41454
21
-3.94174
0
LINE
8
BLACK
6
CONTINUOUS
10
4.41454
20
-3.94174
11
4.41469
21
-3.94176
0
LINE
8
BLACK
6
CONTINUOUS
10
4.41469
20
-3.94176
11
4.41483
21
-3.94176
0
LINE
8
BLACK
6
CONTINUOUS
10
4.41483
20
-3.94176
11
4.41497
21
-3.94179
0
LINE
8
BLACK
6
CONTINUOUS
10
4.41497
20
-3.94179
11
4.41511
21
-3.9418
0
LINE
8
BLACK
6
CONTINUOUS
10
4.41511
20
-3.9418
11
4.41525
21
-3.94185
0
LINE
8
BLACK
6
CONTINUOUS
10
4.41525
20
-3.94185
11
4.4154
21
-3.94188
0
LINE
8
BLACK
6
CONTINUOUS
10
4.4154
20
-3.94188
11
4.41553
21
-3.94193
0
LINE
8
BLACK
6
CONTINUOUS
10
4.41553
20
-3.94193
11
4.41566
21
-3.94198
0
LINE
8
BLACK
6
CONTINUOUS
10
4.41566
20
-3.94198
11
4.41579
21
-3.94205
0
LINE
8
BLACK
6
CONTINUOUS
10
4.41579
20
-3.94205
11
4.41593
21
-3.9421
0
LINE
8
BLACK
6
CONTINUOUS
10
4.41593
20
-3.9421
11
4.41605
21
-3.94218
0
LINE
8
BLACK
6
CONTINUOUS
10
4.41605
20
-3.94218
11
4.41617
21
-3.94225
0
LINE
8
BLACK
6
CONTINUOUS
10
4.41617
20
-3.94225
11
4.41628
21
-3.94235
0
LINE
8
BLACK
6
CONTINUOUS
10
4.41628
20
-3.94235
11
4.4164
21
-3.94243
0
LINE
8
BLACK
6
CONTINUOUS
10
4.4164
20
-3.94243
11
4.4165
21
-3.94253
0
LINE
8
BLACK
6
CONTINUOUS
10
4.4165
20
-3.94253
11
4.41661
21
-3.94262
0
LINE
8
BLACK
6
CONTINUOUS
10
4.41661
20
-3.94262
11
4.41671
21
-3.94274
0
LINE
8
BLACK
6
CONTINUOUS
10
4.41671
20
-3.94274
11
4.41681
21
-3.94284
0
LINE
8
BLACK
6
CONTINUOUS
10
4.41681
20
-3.94284
11
4.41689
21
-3.94296
0
LINE
8
BLACK
6
CONTINUOUS
10
4.41689
20
-3.94296
11
4.41698
21
-3.94307
0
LINE
8
BLACK
6
CONTINUOUS
10
4.41698
20
-3.94307
11
4.41704
21
-3.9432
0
LINE
8
BLACK
6
CONTINUOUS
10
4.41704
20
-3.9432
11
4.41712
21
-3.94332
0
LINE
8
BLACK
6
CONTINUOUS
10
4.41712
20
-3.94332
11
4.41718
21
-3.94345
0
LINE
8
BLACK
6
CONTINUOUS
10
4.41718
20
-3.94345
11
4.41724
21
-3.94358
0
LINE
8
BLACK
6
CONTINUOUS
10
4.41724
20
-3.94358
11
4.41729
21
-3.94372
0
LINE
8
BLACK
6
CONTINUOUS
10
4.41729
20
-3.94372
11
4.41734
21
-3.94386
0
LINE
8
BLACK
6
CONTINUOUS
10
4.41734
20
-3.94386
11
4.41737
21
-3.94399
0
LINE
8
BLACK
6
CONTINUOUS
10
4.41737
20
-3.94399
11
4.41741
21
-3.94413
0
LINE
8
BLACK
6
CONTINUOUS
10
4.41741
20
-3.94413
11
4.41742
21
-3.94428
0
LINE
8
BLACK
6
CONTINUOUS
10
4.41742
20
-3.94428
11
4.41745
21
-3.94442
0
LINE
8
BLACK
6
CONTINUOUS
10
4.41745
20
-3.94442
11
4.41745
21
-3.94456
0
LINE
8
BLACK
6
CONTINUOUS
10
4.41745
20
-3.94456
11
4.41746
21
-3.9447
0
LINE
8
BLACK
6
CONTINUOUS
10
4.41746
20
-3.9447
11
4.41745
21
-3.94485
0
LINE
8
BLACK
6
CONTINUOUS
10
4.41745
20
-3.94485
11
4.41745
21
-3.945
0
LINE
8
BLACK
6
CONTINUOUS
10
4.41745
20
-3.945
11
4.41742
21
-3.94514
0
LINE
8
BLACK
6
CONTINUOUS
10
4.41742
20
-3.94514
11
4.41741
21
-3.94528
0
LINE
8
BLACK
6
CONTINUOUS
10
4.41741
20
-3.94528
11
4.41736
21
-3.94542
0
LINE
8
BLACK
6
CONTINUOUS
10
4.41736
20
-3.94542
11
4.41733
21
-3.94556
0
LINE
8
BLACK
6
CONTINUOUS
10
4.41733
20
-3.94556
11
4.41728
21
-3.94569
0
LINE
8
BLACK
6
CONTINUOUS
10
4.41728
20
-3.94569
11
4.41724
21
-3.94583
0
LINE
8
BLACK
6
CONTINUOUS
10
4.41724
20
-3.94583
11
4.41717
21
-3.94596
0
LINE
8
BLACK
6
CONTINUOUS
10
4.41717
20
-3.94596
11
4.41711
21
-3.94609
0
LINE
8
BLACK
6
CONTINUOUS
10
4.41711
20
-3.94609
11
4.41703
21
-3.94621
0
LINE
8
BLACK
6
CONTINUOUS
10
4.41703
20
-3.94621
11
4.41696
21
-3.94634
0
LINE
8
BLACK
6
CONTINUOUS
10
4.41696
20
-3.94634
11
4.41687
21
-3.94645
0
LINE
8
BLACK
6
CONTINUOUS
10
4.41687
20
-3.94645
11
4.41679
21
-3.94657
0
LINE
8
BLACK
6
CONTINUOUS
10
4.41679
20
-3.94657
11
4.41669
21
-3.94667
0
LINE
8
BLACK
6
CONTINUOUS
10
4.41669
20
-3.94667
11
4.4166
21
-3.94678
0
LINE
8
BLACK
6
CONTINUOUS
10
4.4166
20
-3.94678
11
4.41506
21
-3.94832
0
LINE
8
BLACK
6
CONTINUOUS
10
4.41506
20
-3.94832
11
4.41371
21
-3.95102
0
LINE
8
BLACK
6
CONTINUOUS
10
4.41371
20
-3.95102
11
4.41371
21
-3.959
0
LINE
8
BLACK
6
CONTINUOUS
10
4.41371
20
-3.959
11
4.41506
21
-3.96169
0
LINE
8
BLACK
6
CONTINUOUS
10
4.41506
20
-3.96169
11
4.41626
21
-3.96289
0
LINE
8
BLACK
6
CONTINUOUS
10
4.41626
20
-3.96289
11
4.41896
21
-3.96424
0
LINE
8
BLACK
6
CONTINUOUS
10
4.41896
20
-3.96424
11
4.42694
21
-3.96424
0
LINE
8
BLACK
6
CONTINUOUS
10
4.42694
20
-3.96424
11
4.42963
21
-3.96289
0
LINE
8
BLACK
6
CONTINUOUS
10
4.42963
20
-3.96289
11
4.43083
21
-3.96169
0
LINE
8
BLACK
6
CONTINUOUS
10
4.43083
20
-3.96169
11
4.43218
21
-3.959
0
LINE
8
BLACK
6
CONTINUOUS
10
4.43218
20
-3.959
11
4.43218
21
-3.95102
0
LINE
8
BLACK
6
CONTINUOUS
10
4.43218
20
-3.95102
11
4.43083
21
-3.94832
0
LINE
8
BLACK
6
CONTINUOUS
10
4.43083
20
-3.94832
11
4.4293
21
-3.94678
0
LINE
8
BLACK
6
CONTINUOUS
10
4.4293
20
-3.94678
11
4.42927
21
-3.94675
0
LINE
8
BLACK
6
CONTINUOUS
10
4.42927
20
-3.94675
11
4.42891
21
-3.9463
0
LINE
8
BLACK
6
CONTINUOUS
10
4.42891
20
-3.9463
11
4.42864
21
-3.94579
0
LINE
8
BLACK
6
CONTINUOUS
10
4.42864
20
-3.94579
11
4.42848
21
-3.94524
0
LINE
8
BLACK
6
CONTINUOUS
10
4.42848
20
-3.94524
11
4.42843
21
-3.94466
0
LINE
8
BLACK
6
CONTINUOUS
10
4.42843
20
-3.94466
11
4.42849
21
-3.94409
0
LINE
8
BLACK
6
CONTINUOUS
10
4.42849
20
-3.94409
11
4.42867
21
-3.94354
0
LINE
8
BLACK
6
CONTINUOUS
10
4.42867
20
-3.94354
11
4.42894
21
-3.94303
0
LINE
8
BLACK
6
CONTINUOUS
10
4.42894
20
-3.94303
11
4.42931
21
-3.94259
0
LINE
8
BLACK
6
CONTINUOUS
10
4.42931
20
-3.94259
11
4.42976
21
-3.94223
0
LINE
8
BLACK
6
CONTINUOUS
10
4.42976
20
-3.94223
11
4.43027
21
-3.94196
0
LINE
8
BLACK
6
CONTINUOUS
10
4.43027
20
-3.94196
11
4.43082
21
-3.9418
0
LINE
8
BLACK
6
CONTINUOUS
10
4.43082
20
-3.9418
11
4.43139
21
-3.94174
0
LINE
8
BLACK
6
CONTINUOUS
10
4.43139
20
-3.94174
11
4.43197
21
-3.9418
0
LINE
8
BLACK
6
CONTINUOUS
10
4.43573
20
-3.90993
11
4.43628
21
-3.9101
0
LINE
8
BLACK
6
CONTINUOUS
10
4.43628
20
-3.9101
11
4.43678
21
-3.91038
0
LINE
8
BLACK
6
CONTINUOUS
10
4.43678
20
-3.91038
11
4.43723
21
-3.91074
0
LINE
8
BLACK
6
CONTINUOUS
10
4.43723
20
-3.91074
11
4.43759
21
-3.91119
0
LINE
8
BLACK
6
CONTINUOUS
10
4.43759
20
-3.91119
11
4.43786
21
-3.9117
0
LINE
8
BLACK
6
CONTINUOUS
10
4.43786
20
-3.9117
11
4.43803
21
-3.91225
0
LINE
8
BLACK
6
CONTINUOUS
10
4.43803
20
-3.91225
11
4.43809
21
-3.91282
0
LINE
8
BLACK
6
CONTINUOUS
10
4.43809
20
-3.91282
11
4.43809
21
-3.91657
0
LINE
8
BLACK
6
CONTINUOUS
10
4.43809
20
-3.91657
11
4.43809
21
-3.91661
0
LINE
8
BLACK
6
CONTINUOUS
10
4.43809
20
-3.91661
11
4.43807
21
-3.91678
0
LINE
8
BLACK
6
CONTINUOUS
10
4.43807
20
-3.91678
11
4.43806
21
-3.91694
0
LINE
8
BLACK
6
CONTINUOUS
10
4.43806
20
-3.91694
11
4.43804
21
-3.91706
0
LINE
8
BLACK
6
CONTINUOUS
10
4.43804
20
-3.91706
11
4.43802
21
-3.91719
0
LINE
8
BLACK
6
CONTINUOUS
10
4.43802
20
-3.91719
11
4.43797
21
-3.91734
0
LINE
8
BLACK
6
CONTINUOUS
10
4.43797
20
-3.91734
11
4.43793
21
-3.91751
0
LINE
8
BLACK
6
CONTINUOUS
10
4.43793
20
-3.91751
11
4.43606
21
-3.92313
0
LINE
8
BLACK
6
CONTINUOUS
10
4.43606
20
-3.92313
11
4.43605
21
-3.92317
0
LINE
8
BLACK
6
CONTINUOUS
10
4.43605
20
-3.92317
11
4.43601
21
-3.92325
0
LINE
8
BLACK
6
CONTINUOUS
10
4.43601
20
-3.92325
11
4.43598
21
-3.92333
0
LINE
8
BLACK
6
CONTINUOUS
10
4.43598
20
-3.92333
11
4.43589
21
-3.92351
0
LINE
8
BLACK
6
CONTINUOUS
10
4.43589
20
-3.92351
11
4.4358
21
-3.92369
0
LINE
8
BLACK
6
CONTINUOUS
10
4.4358
20
-3.92369
11
4.43575
21
-3.92376
0
LINE
8
BLACK
6
CONTINUOUS
10
4.43575
20
-3.92376
11
4.43571
21
-3.92384
0
LINE
8
BLACK
6
CONTINUOUS
10
4.43571
20
-3.92384
11
4.43558
21
-3.924
0
LINE
8
BLACK
6
CONTINUOUS
10
4.43558
20
-3.924
11
4.43547
21
-3.92416
0
LINE
8
BLACK
6
CONTINUOUS
10
4.43547
20
-3.92416
11
4.4354
21
-3.92422
0
LINE
8
BLACK
6
CONTINUOUS
10
4.4354
20
-3.92422
11
4.43535
21
-3.92429
0
LINE
8
BLACK
6
CONTINUOUS
10
4.43535
20
-3.92429
11
4.4316
21
-3.92803
0
LINE
8
BLACK
6
CONTINUOUS
10
4.4316
20
-3.92803
11
4.43157
21
-3.92806
0
LINE
8
BLACK
6
CONTINUOUS
10
4.43157
20
-3.92806
11
4.4315
21
-3.92812
0
LINE
8
BLACK
6
CONTINUOUS
10
4.4315
20
-3.92812
11
4.43144
21
-3.92818
0
LINE
8
BLACK
6
CONTINUOUS
10
4.43144
20
-3.92818
11
4.43127
21
-3.9283
0
LINE
8
BLACK
6
CONTINUOUS
10
4.43127
20
-3.9283
11
4.43112
21
-3.92842
0
LINE
8
BLACK
6
CONTINUOUS
10
4.43112
20
-3.92842
11
4.43104
21
-3.92846
0
LINE
8
BLACK
6
CONTINUOUS
10
4.43104
20
-3.92846
11
4.43097
21
-3.92851
0
LINE
8
BLACK
6
CONTINUOUS
10
4.43097
20
-3.92851
11
4.43078
21
-3.9286
0
LINE
8
BLACK
6
CONTINUOUS
10
4.43078
20
-3.9286
11
4.43061
21
-3.92869
0
LINE
8
BLACK
6
CONTINUOUS
10
4.43061
20
-3.92869
11
4.43052
21
-3.92871
0
LINE
8
BLACK
6
CONTINUOUS
10
4.43052
20
-3.92871
11
4.43044
21
-3.92875
0
LINE
8
BLACK
6
CONTINUOUS
10
4.43044
20
-3.92875
11
4.42482
21
-3.93062
0
LINE
8
BLACK
6
CONTINUOUS
10
4.42482
20
-3.93062
11
4.42478
21
-3.93064
0
LINE
8
BLACK
6
CONTINUOUS
10
4.42478
20
-3.93064
11
4.42462
21
-3.93067
0
LINE
8
BLACK
6
CONTINUOUS
10
4.42462
20
-3.93067
11
4.42446
21
-3.93072
0
LINE
8
BLACK
6
CONTINUOUS
10
4.42446
20
-3.93072
11
4.42434
21
-3.93073
0
LINE
8
BLACK
6
CONTINUOUS
10
4.42434
20
-3.93073
11
4.42422
21
-3.93076
0
LINE
8
BLACK
6
CONTINUOUS
10
4.42422
20
-3.93076
11
4.42405
21
-3.93076
0
LINE
8
BLACK
6
CONTINUOUS
10
4.42405
20
-3.93076
11
4.42388
21
-3.93077
0
LINE
8
BLACK
6
CONTINUOUS
10
4.42388
20
-3.93077
11
4.39576
21
-3.93077
0
LINE
8
BLACK
6
CONTINUOUS
10
4.39576
20
-3.93077
11
4.39572
21
-3.93077
0
LINE
8
BLACK
6
CONTINUOUS
10
4.39572
20
-3.93077
11
4.39515
21
-3.93071
0
LINE
8
BLACK
6
CONTINUOUS
10
4.39515
20
-3.93071
11
4.3946
21
-3.93054
0
LINE
8
BLACK
6
CONTINUOUS
10
4.3946
20
-3.93054
11
4.39409
21
-3.93026
0
LINE
8
BLACK
6
CONTINUOUS
10
4.39409
20
-3.93026
11
4.39365
21
-3.92989
0
LINE
8
BLACK
6
CONTINUOUS
10
4.39365
20
-3.92989
11
4.39329
21
-3.92944
0
LINE
8
BLACK
6
CONTINUOUS
10
4.39329
20
-3.92944
11
4.39303
21
-3.92893
0
LINE
8
BLACK
6
CONTINUOUS
10
4.39303
20
-3.92893
11
4.39286
21
-3.92837
0
LINE
8
BLACK
6
CONTINUOUS
10
4.39286
20
-3.92837
11
4.39281
21
-3.9278
0
LINE
8
BLACK
6
CONTINUOUS
10
4.39281
20
-3.9278
11
4.39287
21
-3.92723
0
LINE
8
BLACK
6
CONTINUOUS
10
4.39287
20
-3.92723
11
4.39304
21
-3.92668
0
LINE
8
BLACK
6
CONTINUOUS
10
4.39304
20
-3.92668
11
4.39332
21
-3.92617
0
LINE
8
BLACK
6
CONTINUOUS
10
4.39332
20
-3.92617
11
4.39368
21
-3.92573
0
LINE
8
BLACK
6
CONTINUOUS
10
4.39368
20
-3.92573
11
4.39413
21
-3.92536
0
LINE
8
BLACK
6
CONTINUOUS
10
4.39413
20
-3.92536
11
4.39464
21
-3.92509
0
LINE
8
BLACK
6
CONTINUOUS
10
4.39464
20
-3.92509
11
4.39519
21
-3.92492
0
LINE
8
BLACK
6
CONTINUOUS
10
4.39519
20
-3.92492
11
4.39576
21
-3.92487
0
LINE
8
BLACK
6
CONTINUOUS
10
4.39576
20
-3.92487
11
4.42341
21
-3.92487
0
LINE
8
BLACK
6
CONTINUOUS
10
4.42341
20
-3.92487
11
4.42791
21
-3.92337
0
LINE
8
BLACK
6
CONTINUOUS
10
4.42791
20
-3.92337
11
4.43068
21
-3.9206
0
LINE
8
BLACK
6
CONTINUOUS
10
4.43068
20
-3.9206
11
4.43218
21
-3.91609
0
LINE
8
BLACK
6
CONTINUOUS
10
4.43218
20
-3.91609
11
4.43218
21
-3.91282
0
LINE
8
BLACK
6
CONTINUOUS
10
4.43218
20
-3.91282
11
4.43218
21
-3.91278
0
LINE
8
BLACK
6
CONTINUOUS
10
4.43218
20
-3.91278
11
4.43224
21
-3.91221
0
LINE
8
BLACK
6
CONTINUOUS
10
4.43224
20
-3.91221
11
4.43242
21
-3.91166
0
LINE
8
BLACK
6
CONTINUOUS
10
4.43242
20
-3.91166
11
4.4327
21
-3.91116
0
LINE
8
BLACK
6
CONTINUOUS
10
4.4327
20
-3.91116
11
4.43307
21
-3.91071
0
LINE
8
BLACK
6
CONTINUOUS
10
4.43307
20
-3.91071
11
4.43352
21
-3.91035
0
LINE
8
BLACK
6
CONTINUOUS
10
4.43352
20
-3.91035
11
4.43403
21
-3.91009
0
LINE
8
BLACK
6
CONTINUOUS
10
4.43403
20
-3.91009
11
4.43458
21
-3.90992
0
LINE
8
BLACK
6
CONTINUOUS
10
4.43458
20
-3.90992
11
4.43515
21
-3.90987
0
LINE
8
BLACK
6
CONTINUOUS
10
4.43515
20
-3.90987
11
4.43573
21
-3.90993
0
LINE
8
BLACK
6
CONTINUOUS
10
4.02553
20
-3.847
11
4.02608
21
-3.84717
0
LINE
8
BLACK
6
CONTINUOUS
10
4.02608
20
-3.84717
11
4.02659
21
-3.84745
0
LINE
8
BLACK
6
CONTINUOUS
10
4.02659
20
-3.84745
11
4.02703
21
-3.84782
0
LINE
8
BLACK
6
CONTINUOUS
10
4.02703
20
-3.84782
11
4.02739
21
-3.84826
0
LINE
8
BLACK
6
CONTINUOUS
10
4.02739
20
-3.84826
11
4.02766
21
-3.84877
0
LINE
8
BLACK
6
CONTINUOUS
10
4.02766
20
-3.84877
11
4.02783
21
-3.84932
0
LINE
8
BLACK
6
CONTINUOUS
10
4.02783
20
-3.84932
11
4.02789
21
-3.8499
0
LINE
8
BLACK
6
CONTINUOUS
10
4.02789
20
-3.8499
11
4.02789
21
-3.87754
0
LINE
8
BLACK
6
CONTINUOUS
10
4.02789
20
-3.87754
11
4.02939
21
-3.88205
0
LINE
8
BLACK
6
CONTINUOUS
10
4.02939
20
-3.88205
11
4.03215
21
-3.88481
0
LINE
8
BLACK
6
CONTINUOUS
10
4.03215
20
-3.88481
11
4.03666
21
-3.88631
0
LINE
8
BLACK
6
CONTINUOUS
10
4.03666
20
-3.88631
11
4.03993
21
-3.88631
0
LINE
8
BLACK
6
CONTINUOUS
10
4.03993
20
-3.88631
11
4.03997
21
-3.88631
0
LINE
8
BLACK
6
CONTINUOUS
10
4.03997
20
-3.88631
11
4.04055
21
-3.88638
0
LINE
8
BLACK
6
CONTINUOUS
10
4.04055
20
-3.88638
11
4.0411
21
-3.88655
0
LINE
8
BLACK
6
CONTINUOUS
10
4.0411
20
-3.88655
11
4.0416
21
-3.88683
0
LINE
8
BLACK
6
CONTINUOUS
10
4.0416
20
-3.88683
11
4.04204
21
-3.8872
0
LINE
8
BLACK
6
CONTINUOUS
10
4.04204
20
-3.8872
11
4.0424
21
-3.88765
0
LINE
8
BLACK
6
CONTINUOUS
10
4.0424
20
-3.88765
11
4.04267
21
-3.88816
0
LINE
8
BLACK
6
CONTINUOUS
10
4.04267
20
-3.88816
11
4.04283
21
-3.88871
0
LINE
8
BLACK
6
CONTINUOUS
10
4.04283
20
-3.88871
11
4.04289
21
-3.88929
0
LINE
8
BLACK
6
CONTINUOUS
10
4.04289
20
-3.88929
11
4.04282
21
-3.88986
0
LINE
8
BLACK
6
CONTINUOUS
10
4.04282
20
-3.88986
11
4.04265
21
-3.89041
0
LINE
8
BLACK
6
CONTINUOUS
10
4.04265
20
-3.89041
11
4.04238
21
-3.89092
0
LINE
8
BLACK
6
CONTINUOUS
10
4.04238
20
-3.89092
11
4.04201
21
-3.89136
0
LINE
8
BLACK
6
CONTINUOUS
10
4.04201
20
-3.89136
11
4.04157
21
-3.89173
0
LINE
8
BLACK
6
CONTINUOUS
10
4.04157
20
-3.89173
11
4.04106
21
-3.892
0
LINE
8
BLACK
6
CONTINUOUS
10
4.04106
20
-3.892
11
4.04051
21
-3.89216
0
LINE
8
BLACK
6
CONTINUOUS
10
4.04051
20
-3.89216
11
4.03993
21
-3.89222
0
LINE
8
BLACK
6
CONTINUOUS
10
4.03993
20
-3.89222
11
4.03618
21
-3.89222
0
LINE
8
BLACK
6
CONTINUOUS
10
4.03618
20
-3.89222
11
4.03614
21
-3.89222
0
LINE
8
BLACK
6
CONTINUOUS
10
4.03614
20
-3.89222
11
4.03598
21
-3.8922
0
LINE
8
BLACK
6
CONTINUOUS
10
4.03598
20
-3.8922
11
4.03581
21
-3.8922
0
LINE
8
BLACK
6
CONTINUOUS
10
4.03581
20
-3.8922
11
4.03569
21
-3.89217
0
LINE
8
BLACK
6
CONTINUOUS
10
4.03569
20
-3.89217
11
4.03557
21
-3.89216
0
LINE
8
BLACK
6
CONTINUOUS
10
4.03557
20
-3.89216
11
4.03541
21
-3.89211
0
LINE
8
BLACK
6
CONTINUOUS
10
4.03541
20
-3.89211
11
4.03525
21
-3.89207
0
LINE
8
BLACK
6
CONTINUOUS
10
4.03525
20
-3.89207
11
4.02962
21
-3.89019
0
LINE
8
BLACK
6
CONTINUOUS
10
4.02962
20
-3.89019
11
4.02959
21
-3.89018
0
LINE
8
BLACK
6
CONTINUOUS
10
4.02959
20
-3.89018
11
4.02951
21
-3.89014
0
LINE
8
BLACK
6
CONTINUOUS
10
4.02951
20
-3.89014
11
4.02942
21
-3.89012
0
LINE
8
BLACK
6
CONTINUOUS
10
4.02942
20
-3.89012
11
4.02925
21
-3.89002
0
LINE
8
BLACK
6
CONTINUOUS
10
4.02925
20
-3.89002
11
4.02906
21
-3.88994
0
LINE
8
BLACK
6
CONTINUOUS
10
4.02906
20
-3.88994
11
4.02899
21
-3.88989
0
LINE
8
BLACK
6
CONTINUOUS
10
4.02899
20
-3.88989
11
4.02892
21
-3.88985
0
LINE
8
BLACK
6
CONTINUOUS
10
4.02892
20
-3.88985
11
4.02876
21
-3.88972
0
LINE
8
BLACK
6
CONTINUOUS
10
4.02876
20
-3.88972
11
4.0286
21
-3.8896
0
LINE
8
BLACK
6
CONTINUOUS
10
4.0286
20
-3.8896
11
4.02854
21
-3.88954
0
LINE
8
BLACK
6
CONTINUOUS
10
4.02854
20
-3.88954
11
4.02847
21
-3.88948
0
LINE
8
BLACK
6
CONTINUOUS
10
4.02847
20
-3.88948
11
4.02472
21
-3.88573
0
LINE
8
BLACK
6
CONTINUOUS
10
4.02472
20
-3.88573
11
4.02469
21
-3.8857
0
LINE
8
BLACK
6
CONTINUOUS
10
4.02469
20
-3.8857
11
4.02464
21
-3.88563
0
LINE
8
BLACK
6
CONTINUOUS
10
4.02464
20
-3.88563
11
4.02458
21
-3.88557
0
LINE
8
BLACK
6
CONTINUOUS
10
4.02458
20
-3.88557
11
4.02446
21
-3.88541
0
LINE
8
BLACK
6
CONTINUOUS
10
4.02446
20
-3.88541
11
4.02433
21
-3.88525
0
LINE
8
BLACK
6
CONTINUOUS
10
4.02433
20
-3.88525
11
4.02429
21
-3.88517
0
LINE
8
BLACK
6
CONTINUOUS
10
4.02429
20
-3.88517
11
4.02424
21
-3.8851
0
LINE
8
BLACK
6
CONTINUOUS
10
4.02424
20
-3.8851
11
4.02416
21
-3.88492
0
LINE
8
BLACK
6
CONTINUOUS
10
4.02416
20
-3.88492
11
4.02407
21
-3.88474
0
LINE
8
BLACK
6
CONTINUOUS
10
4.02407
20
-3.88474
11
4.02404
21
-3.88466
0
LINE
8
BLACK
6
CONTINUOUS
10
4.02404
20
-3.88466
11
4.02401
21
-3.88458
0
LINE
8
BLACK
6
CONTINUOUS
10
4.02401
20
-3.88458
11
4.02213
21
-3.87895
0
LINE
8
BLACK
6
CONTINUOUS
10
4.02213
20
-3.87895
11
4.02212
21
-3.87891
0
LINE
8
BLACK
6
CONTINUOUS
10
4.02212
20
-3.87891
11
4.02209
21
-3.87875
0
LINE
8
BLACK
6
CONTINUOUS
10
4.02209
20
-3.87875
11
4.02204
21
-3.87859
0
LINE
8
BLACK
6
CONTINUOUS
10
4.02204
20
-3.87859
11
4.02203
21
-3.87847
0
LINE
8
BLACK
6
CONTINUOUS
10
4.02203
20
-3.87847
11
4.022
21
-3.87835
0
LINE
8
BLACK
6
CONTINUOUS
10
4.022
20
-3.87835
11
4.022
21
-3.87818
0
LINE
8
BLACK
6
CONTINUOUS
10
4.022
20
-3.87818
11
4.02198
21
-3.87802
0
LINE
8
BLACK
6
CONTINUOUS
10
4.02198
20
-3.87802
11
4.02198
21
-3.8499
0
LINE
8
BLACK
6
CONTINUOUS
10
4.02198
20
-3.8499
11
4.02198
21
-3.84986
0
LINE
8
BLACK
6
CONTINUOUS
10
4.02198
20
-3.84986
11
4.02205
21
-3.84928
0
LINE
8
BLACK
6
CONTINUOUS
10
4.02205
20
-3.84928
11
4.02222
21
-3.84873
0
LINE
8
BLACK
6
CONTINUOUS
10
4.02222
20
-3.84873
11
4.0225
21
-3.84823
0
LINE
8
BLACK
6
CONTINUOUS
10
4.0225
20
-3.84823
11
4.02287
21
-3.84779
0
LINE
8
BLACK
6
CONTINUOUS
10
4.02287
20
-3.84779
11
4.02332
21
-3.84743
0
LINE
8
BLACK
6
CONTINUOUS
10
4.02332
20
-3.84743
11
4.02383
21
-3.84716
0
LINE
8
BLACK
6
CONTINUOUS
10
4.02383
20
-3.84716
11
4.02438
21
-3.847
0
LINE
8
BLACK
6
CONTINUOUS
10
4.02438
20
-3.847
11
4.02496
21
-3.84694
0
LINE
8
BLACK
6
CONTINUOUS
10
4.02496
20
-3.84694
11
4.02553
21
-3.847
0
LINE
8
BLACK
6
CONTINUOUS
10
3.99683
20
-3.84694
11
3.99683
21
-3.84694
0
LINE
8
BLACK
6
CONTINUOUS
10
3.99683
20
-3.84694
11
3.99711
21
-3.84697
0
LINE
8
BLACK
6
CONTINUOUS
10
3.99711
20
-3.84697
11
3.9974
21
-3.847
0
LINE
8
BLACK
6
CONTINUOUS
10
3.9974
20
-3.847
11
3.9974
21
-3.847
0
LINE
8
BLACK
6
CONTINUOUS
10
3.9974
20
-3.847
11
3.99741
21
-3.847
0
LINE
8
BLACK
6
CONTINUOUS
10
3.99741
20
-3.847
11
3.99769
21
-3.84709
0
LINE
8
BLACK
6
CONTINUOUS
10
3.99769
20
-3.84709
11
3.99795
21
-3.84717
0
LINE
8
BLACK
6
CONTINUOUS
10
3.99795
20
-3.84717
11
3.99795
21
-3.84717
0
LINE
8
BLACK
6
CONTINUOUS
10
3.99795
20
-3.84717
11
3.99796
21
-3.84717
0
LINE
8
BLACK
6
CONTINUOUS
10
3.99796
20
-3.84717
11
3.99822
21
-3.84732
0
LINE
8
BLACK
6
CONTINUOUS
10
3.99822
20
-3.84732
11
3.99846
21
-3.84745
0
LINE
8
BLACK
6
CONTINUOUS
10
3.99846
20
-3.84745
11
3.99846
21
-3.84745
0
LINE
8
BLACK
6
CONTINUOUS
10
3.99846
20
-3.84745
11
3.99846
21
-3.84745
0
LINE
8
BLACK
6
CONTINUOUS
10
3.99846
20
-3.84745
11
3.99868
21
-3.84763
0
LINE
8
BLACK
6
CONTINUOUS
10
3.99868
20
-3.84763
11
3.9989
21
-3.84781
0
LINE
8
BLACK
6
CONTINUOUS
10
3.9989
20
-3.84781
11
3.99891
21
-3.84781
0
LINE
8
BLACK
6
CONTINUOUS
10
3.99891
20
-3.84781
11
3.99891
21
-3.84782
0
LINE
8
BLACK
6
CONTINUOUS
10
3.99891
20
-3.84782
11
3.99908
21
-3.84803
0
LINE
8
BLACK
6
CONTINUOUS
10
3.99908
20
-3.84803
11
3.99927
21
-3.84826
0
LINE
8
BLACK
6
CONTINUOUS
10
3.99927
20
-3.84826
11
4.00286
21
-3.85364
0
LINE
8
BLACK
6
CONTINUOUS
10
4.00286
20
-3.85364
11
4.00606
21
-3.85684
0
LINE
8
BLACK
6
CONTINUOUS
10
4.00606
20
-3.85684
11
4.00938
21
-3.8585
0
LINE
8
BLACK
6
CONTINUOUS
10
4.00938
20
-3.8585
11
4.00942
21
-3.85852
0
LINE
8
BLACK
6
CONTINUOUS
10
4.00942
20
-3.85852
11
4.0099
21
-3.85884
0
LINE
8
BLACK
6
CONTINUOUS
10
4.0099
20
-3.85884
11
4.01032
21
-3.85924
0
LINE
8
BLACK
6
CONTINUOUS
10
4.01032
20
-3.85924
11
4.01064
21
-3.85971
0
LINE
8
BLACK
6
CONTINUOUS
10
4.01064
20
-3.85971
11
4.01087
21
-3.86024
0
LINE
8
BLACK
6
CONTINUOUS
10
4.01087
20
-3.86024
11
4.01099
21
-3.8608
0
LINE
8
BLACK
6
CONTINUOUS
10
4.01099
20
-3.8608
11
4.011
21
-3.86138
0
LINE
8
BLACK
6
CONTINUOUS
10
4.011
20
-3.86138
11
4.0109
21
-3.86195
0
LINE
8
BLACK
6
CONTINUOUS
10
4.0109
20
-3.86195
11
4.01069
21
-3.86248
0
LINE
8
BLACK
6
CONTINUOUS
10
4.01069
20
-3.86248
11
4.01038
21
-3.86297
0
LINE
8
BLACK
6
CONTINUOUS
10
4.01038
20
-3.86297
11
4.00998
21
-3.86339
0
LINE
8
BLACK
6
CONTINUOUS
10
4.00998
20
-3.86339
11
4.00951
21
-3.86372
0
LINE
8
BLACK
6
CONTINUOUS
10
4.00951
20
-3.86372
11
4.00899
21
-3.86395
0
LINE
8
BLACK
6
CONTINUOUS
10
4.00899
20
-3.86395
11
4.00842
21
-3.86408
0
LINE
8
BLACK
6
CONTINUOUS
10
4.00842
20
-3.86408
11
4.00785
21
-3.86409
0
LINE
8
BLACK
6
CONTINUOUS
10
4.00785
20
-3.86409
11
4.00728
21
-3.86399
0
LINE
8
BLACK
6
CONTINUOUS
10
4.00728
20
-3.86399
11
4.00674
21
-3.86379
0
LINE
8
BLACK
6
CONTINUOUS
10
4.00674
20
-3.86379
11
4.00299
21
-3.86191
0
LINE
8
BLACK
6
CONTINUOUS
10
4.00299
20
-3.86191
11
4.00295
21
-3.86189
0
LINE
8
BLACK
6
CONTINUOUS
10
4.00295
20
-3.86189
11
4.00282
21
-3.8618
0
LINE
8
BLACK
6
CONTINUOUS
10
4.00282
20
-3.8618
11
4.00267
21
-3.86172
0
LINE
8
BLACK
6
CONTINUOUS
10
4.00267
20
-3.86172
11
4.00257
21
-3.86165
0
LINE
8
BLACK
6
CONTINUOUS
10
4.00257
20
-3.86165
11
4.00247
21
-3.86158
0
LINE
8
BLACK
6
CONTINUOUS
10
4.00247
20
-3.86158
11
4.00235
21
-3.86146
0
LINE
8
BLACK
6
CONTINUOUS
10
4.00235
20
-3.86146
11
4.00222
21
-3.86136
0
LINE
8
BLACK
6
CONTINUOUS
10
4.00222
20
-3.86136
11
3.99977
21
-3.8589
0
LINE
8
BLACK
6
CONTINUOUS
10
3.99977
20
-3.8589
11
3.99977
21
-3.88631
0
LINE
8
BLACK
6
CONTINUOUS
10
3.99977
20
-3.88631
11
4.00806
21
-3.88631
0
LINE
8
BLACK
6
CONTINUOUS
10
4.00806
20
-3.88631
11
4.0081
21
-3.88631
0
LINE
8
BLACK
6
CONTINUOUS
10
4.0081
20
-3.88631
11
4.00868
21
-3.88638
0
LINE
8
BLACK
6
CONTINUOUS
10
4.00868
20
-3.88638
11
4.00922
21
-3.88655
0
LINE
8
BLACK
6
CONTINUOUS
10
4.00922
20
-3.88655
11
4.00973
21
-3.88683
0
LINE
8
BLACK
6
CONTINUOUS
10
4.00973
20
-3.88683
11
4.01017
21
-3.8872
0
LINE
8
BLACK
6
CONTINUOUS
10
4.01017
20
-3.8872
11
4.01053
21
-3.88765
0
LINE
8
BLACK
6
CONTINUOUS
10
4.01053
20
-3.88765
11
4.0108
21
-3.88816
0
LINE
8
BLACK
6
CONTINUOUS
10
4.0108
20
-3.88816
11
4.01096
21
-3.88871
0
LINE
8
BLACK
6
CONTINUOUS
10
4.01096
20
-3.88871
11
4.01101
21
-3.88929
0
LINE
8
BLACK
6
CONTINUOUS
10
4.01101
20
-3.88929
11
4.01095
21
-3.88986
0
LINE
8
BLACK
6
CONTINUOUS
10
4.01095
20
-3.88986
11
4.01078
21
-3.89041
0
LINE
8
BLACK
6
CONTINUOUS
10
4.01078
20
-3.89041
11
4.01051
21
-3.89092
0
LINE
8
BLACK
6
CONTINUOUS
10
4.01051
20
-3.89092
11
4.01014
21
-3.89136
0
LINE
8
BLACK
6
CONTINUOUS
10
4.01014
20
-3.89136
11
4.0097
21
-3.89173
0
LINE
8
BLACK
6
CONTINUOUS
10
4.0097
20
-3.89173
11
4.00919
21
-3.892
0
LINE
8
BLACK
6
CONTINUOUS
10
4.00919
20
-3.892
11
4.00863
21
-3.89216
0
LINE
8
BLACK
6
CONTINUOUS
10
4.00863
20
-3.89216
11
4.00806
21
-3.89222
0
LINE
8
BLACK
6
CONTINUOUS
10
4.00806
20
-3.89222
11
3.98556
21
-3.89222
0
LINE
8
BLACK
6
CONTINUOUS
10
3.98556
20
-3.89222
11
3.98552
21
-3.89222
0
LINE
8
BLACK
6
CONTINUOUS
10
3.98552
20
-3.89222
11
3.98495
21
-3.89216
0
LINE
8
BLACK
6
CONTINUOUS
10
3.98495
20
-3.89216
11
3.9844
21
-3.89198
0
LINE
8
BLACK
6
CONTINUOUS
10
3.9844
20
-3.89198
11
3.9839
21
-3.8917
0
LINE
8
BLACK
6
CONTINUOUS
10
3.9839
20
-3.8917
11
3.98345
21
-3.89133
0
LINE
8
BLACK
6
CONTINUOUS
10
3.98345
20
-3.89133
11
3.98309
21
-3.89088
0
LINE
8
BLACK
6
CONTINUOUS
10
3.98309
20
-3.89088
11
3.98283
21
-3.89037
0
LINE
8
BLACK
6
CONTINUOUS
10
3.98283
20
-3.89037
11
3.98266
21
-3.88982
0
LINE
8
BLACK
6
CONTINUOUS
10
3.98266
20
-3.88982
11
3.98261
21
-3.88925
0
LINE
8
BLACK
6
CONTINUOUS
10
3.98261
20
-3.88925
11
3.98267
21
-3.88867
0
LINE
8
BLACK
6
CONTINUOUS
10
3.98267
20
-3.88867
11
3.98284
21
-3.88812
0
LINE
8
BLACK
6
CONTINUOUS
10
3.98284
20
-3.88812
11
3.98312
21
-3.88762
0
LINE
8
BLACK
6
CONTINUOUS
10
3.98312
20
-3.88762
11
3.98348
21
-3.88717
0
LINE
8
BLACK
6
CONTINUOUS
10
3.98348
20
-3.88717
11
3.98393
21
-3.88681
0
LINE
8
BLACK
6
CONTINUOUS
10
3.98393
20
-3.88681
11
3.98444
21
-3.88654
0
LINE
8
BLACK
6
CONTINUOUS
10
3.98444
20
-3.88654
11
3.98499
21
-3.88637
0
LINE
8
BLACK
6
CONTINUOUS
10
3.98499
20
-3.88637
11
3.98556
21
-3.88631
0
LINE
8
BLACK
6
CONTINUOUS
10
3.98556
20
-3.88631
11
3.99386
21
-3.88631
0
LINE
8
BLACK
6
CONTINUOUS
10
3.99386
20
-3.88631
11
3.99386
21
-3.8499
0
LINE
8
BLACK
6
CONTINUOUS
10
3.99386
20
-3.8499
11
3.99386
21
-3.84986
0
LINE
8
BLACK
6
CONTINUOUS
10
3.99386
20
-3.84986
11
3.99386
21
-3.84986
0
LINE
8
BLACK
6
CONTINUOUS
10
3.99386
20
-3.84986
11
3.99386
21
-3.84986
0
LINE
8
BLACK
6
CONTINUOUS
10
3.99386
20
-3.84986
11
3.99386
21
-3.84986
0
LINE
8
BLACK
6
CONTINUOUS
10
3.99386
20
-3.84986
11
3.99389
21
-3.84957
0
LINE
8
BLACK
6
CONTINUOUS
10
3.99389
20
-3.84957
11
3.99392
21
-3.84929
0
LINE
8
BLACK
6
CONTINUOUS
10
3.99392
20
-3.84929
11
3.99392
21
-3.84929
0
LINE
8
BLACK
6
CONTINUOUS
10
3.99392
20
-3.84929
11
3.99392
21
-3.84928
0
LINE
8
BLACK
6
CONTINUOUS
10
3.99392
20
-3.84928
11
3.99401
21
-3.849
0
LINE
8
BLACK
6
CONTINUOUS
10
3.99401
20
-3.849
11
3.9941
21
-3.84874
0
LINE
8
BLACK
6
CONTINUOUS
10
3.9941
20
-3.84874
11
3.9941
21
-3.84874
0
LINE
8
BLACK
6
CONTINUOUS
10
3.9941
20
-3.84874
11
3.9941
21
-3.84873
0
LINE
8
BLACK
6
CONTINUOUS
10
3.9941
20
-3.84873
11
3.99424
21
-3.84847
0
LINE
8
BLACK
6
CONTINUOUS
10
3.99424
20
-3.84847
11
3.99437
21
-3.84823
0
LINE
8
BLACK
6
CONTINUOUS
10
3.99437
20
-3.84823
11
3.99438
21
-3.84823
0
LINE
8
BLACK
6
CONTINUOUS
10
3.99438
20
-3.84823
11
3.99438
21
-3.84823
0
LINE
8
BLACK
6
CONTINUOUS
10
3.99438
20
-3.84823
11
3.99456
21
-3.84801
0
LINE
8
BLACK
6
CONTINUOUS
10
3.99456
20
-3.84801
11
3.99474
21
-3.84779
0
LINE
8
BLACK
6
CONTINUOUS
10
3.99474
20
-3.84779
11
3.99475
21
-3.84779
0
LINE
8
BLACK
6
CONTINUOUS
10
3.99475
20
-3.84779
11
3.99475
21
-3.84779
0
LINE
8
BLACK
6
CONTINUOUS
10
3.99475
20
-3.84779
11
3.99497
21
-3.84761
0
LINE
8
BLACK
6
CONTINUOUS
10
3.99497
20
-3.84761
11
3.99519
21
-3.84743
0
LINE
8
BLACK
6
CONTINUOUS
10
3.99519
20
-3.84743
11
3.99519
21
-3.84743
0
LINE
8
BLACK
6
CONTINUOUS
10
3.99519
20
-3.84743
11
3.9952
21
-3.84743
0
LINE
8
BLACK
6
CONTINUOUS
10
3.9952
20
-3.84743
11
3.99545
21
-3.8473
0
LINE
8
BLACK
6
CONTINUOUS
10
3.99545
20
-3.8473
11
3.9957
21
-3.84716
0
LINE
8
BLACK
6
CONTINUOUS
10
3.9957
20
-3.84716
11
3.9957
21
-3.84716
0
LINE
8
BLACK
6
CONTINUOUS
10
3.9957
20
-3.84716
11
3.99571
21
-3.84716
0
LINE
8
BLACK
6
CONTINUOUS
10
3.99571
20
-3.84716
11
3.99598
21
-3.84708
0
LINE
8
BLACK
6
CONTINUOUS
10
3.99598
20
-3.84708
11
3.99626
21
-3.847
0
LINE
8
BLACK
6
CONTINUOUS
10
3.99626
20
-3.847
11
3.99626
21
-3.847
0
LINE
8
BLACK
6
CONTINUOUS
10
3.99626
20
-3.847
11
3.99626
21
-3.847
0
LINE
8
BLACK
6
CONTINUOUS
10
3.99626
20
-3.847
11
3.99654
21
-3.84697
0
LINE
8
BLACK
6
CONTINUOUS
10
3.99654
20
-3.84697
11
3.99683
21
-3.84694
0
LINE
8
BLACK
6
CONTINUOUS
10
3.99683
20
-3.84694
11
3.99683
21
-3.84694
0
LINE
8
BLACK
6
CONTINUOUS
10
4.08176
20
-3.8272
11
4.08221
21
-3.82733
0
LINE
8
BLACK
6
CONTINUOUS
10
4.08221
20
-3.82733
11
4.08262
21
-3.82755
0
LINE
8
BLACK
6
CONTINUOUS
10
4.08262
20
-3.82755
11
4.08298
21
-3.82785
0
LINE
8
BLACK
6
CONTINUOUS
10
4.08298
20
-3.82785
11
4.08327
21
-3.82821
0
LINE
8
BLACK
6
CONTINUOUS
10
4.08327
20
-3.82821
11
4.08349
21
-3.82862
0
LINE
8
BLACK
6
CONTINUOUS
10
4.08349
20
-3.82862
11
4.08363
21
-3.82906
0
LINE
8
BLACK
6
CONTINUOUS
10
4.08363
20
-3.82906
11
4.08366
21
-3.82941
0
LINE
8
BLACK
6
CONTINUOUS
10
4.08366
20
-3.82941
11
4.08366
21
-3.83197
0
LINE
8
BLACK
6
CONTINUOUS
10
4.08366
20
-3.83197
11
4.08367
21
-3.83209
0
LINE
8
BLACK
6
CONTINUOUS
10
4.08367
20
-3.83209
11
4.08363
21
-3.83255
0
LINE
8
BLACK
6
CONTINUOUS
10
4.08363
20
-3.83255
11
4.08349
21
-3.83299
0
LINE
8
BLACK
6
CONTINUOUS
10
4.08349
20
-3.83299
11
4.08327
21
-3.83341
0
LINE
8
BLACK
6
CONTINUOUS
10
4.08327
20
-3.83341
11
4.08298
21
-3.83377
0
LINE
8
BLACK
6
CONTINUOUS
10
4.08298
20
-3.83377
11
4.08262
21
-3.83406
0
LINE
8
BLACK
6
CONTINUOUS
10
4.08262
20
-3.83406
11
4.08221
21
-3.83428
0
LINE
8
BLACK
6
CONTINUOUS
10
4.08221
20
-3.83428
11
4.08176
21
-3.83441
0
LINE
8
BLACK
6
CONTINUOUS
10
4.08176
20
-3.83441
11
4.08142
21
-3.83445
0
LINE
8
BLACK
6
CONTINUOUS
10
4.08142
20
-3.83445
11
4.08142
21
-3.83445
0
LINE
8
BLACK
6
CONTINUOUS
10
4.08142
20
-3.83445
11
4.0813
21
-3.83446
0
LINE
8
BLACK
6
CONTINUOUS
10
4.0813
20
-3.83446
11
4.08118
21
-3.83445
0
LINE
8
BLACK
6
CONTINUOUS
10
4.08118
20
-3.83445
11
3.94244
21
-3.83445
0
LINE
8
BLACK
6
CONTINUOUS
10
3.94244
20
-3.83445
11
3.94232
21
-3.83446
0
LINE
8
BLACK
6
CONTINUOUS
10
3.94232
20
-3.83446
11
3.94186
21
-3.83441
0
LINE
8
BLACK
6
CONTINUOUS
10
3.94186
20
-3.83441
11
3.94141
21
-3.83428
0
LINE
8
BLACK
6
CONTINUOUS
10
3.94141
20
-3.83428
11
3.941
21
-3.83406
0
LINE
8
BLACK
6
CONTINUOUS
10
3.941
20
-3.83406
11
3.94064
21
-3.83377
0
LINE
8
BLACK
6
CONTINUOUS
10
3.94064
20
-3.83377
11
3.94035
21
-3.83341
0
LINE
8
BLACK
6
CONTINUOUS
10
3.94035
20
-3.83341
11
3.94013
21
-3.83299
0
LINE
8
BLACK
6
CONTINUOUS
10
3.94013
20
-3.83299
11
3.93999
21
-3.83255
0
LINE
8
BLACK
6
CONTINUOUS
10
3.93999
20
-3.83255
11
3.93995
21
-3.83209
0
LINE
8
BLACK
6
CONTINUOUS
10
3.93995
20
-3.83209
11
3.93996
21
-3.83197
0
LINE
8
BLACK
6
CONTINUOUS
10
3.93996
20
-3.83197
11
3.93996
21
-3.83189
0
LINE
8
BLACK
6
CONTINUOUS
10
3.93996
20
-3.83189
11
3.89004
21
-3.83189
0
LINE
8
BLACK
6
CONTINUOUS
10
3.89004
20
-3.83189
11
3.88969
21
-3.83186
0
LINE
8
BLACK
6
CONTINUOUS
10
3.88969
20
-3.83186
11
3.88925
21
-3.83172
0
LINE
8
BLACK
6
CONTINUOUS
10
3.88925
20
-3.83172
11
3.88884
21
-3.8315
0
LINE
8
BLACK
6
CONTINUOUS
10
3.88884
20
-3.8315
11
3.88848
21
-3.83121
0
LINE
8
BLACK
6
CONTINUOUS
10
3.88848
20
-3.83121
11
3.88818
21
-3.83085
0
LINE
8
BLACK
6
CONTINUOUS
10
3.88818
20
-3.83085
11
3.88796
21
-3.83044
0
LINE
8
BLACK
6
CONTINUOUS
10
3.88796
20
-3.83044
11
3.88783
21
-3.82999
0
LINE
8
BLACK
6
CONTINUOUS
10
3.88783
20
-3.82999
11
3.88778
21
-3.82953
0
LINE
8
BLACK
6
CONTINUOUS
10
3.88778
20
-3.82953
11
3.88783
21
-3.82906
0
LINE
8
BLACK
6
CONTINUOUS
10
3.88783
20
-3.82906
11
3.88796
21
-3.82862
0
LINE
8
BLACK
6
CONTINUOUS
10
3.88796
20
-3.82862
11
3.88818
21
-3.82821
0
LINE
8
BLACK
6
CONTINUOUS
10
3.88818
20
-3.82821
11
3.88848
21
-3.82785
0
LINE
8
BLACK
6
CONTINUOUS
10
3.88848
20
-3.82785
11
3.88884
21
-3.82755
0
LINE
8
BLACK
6
CONTINUOUS
10
3.88884
20
-3.82755
11
3.88925
21
-3.82733
0
LINE
8
BLACK
6
CONTINUOUS
10
3.88925
20
-3.82733
11
3.88969
21
-3.8272
0
LINE
8
BLACK
6
CONTINUOUS
10
3.88969
20
-3.8272
11
3.89004
21
-3.82717
0
LINE
8
BLACK
6
CONTINUOUS
10
3.89004
20
-3.82717
11
3.94221
21
-3.82717
0
LINE
8
BLACK
6
CONTINUOUS
10
3.94221
20
-3.82717
11
3.94232
21
-3.82715
0
LINE
8
BLACK
6
CONTINUOUS
10
3.94232
20
-3.82715
11
3.94244
21
-3.82717
0
LINE
8
BLACK
6
CONTINUOUS
10
3.94244
20
-3.82717
11
3.94279
21
-3.8272
0
LINE
8
BLACK
6
CONTINUOUS
10
3.94279
20
-3.8272
11
3.94323
21
-3.82733
0
LINE
8
BLACK
6
CONTINUOUS
10
3.94323
20
-3.82733
11
3.94364
21
-3.82755
0
LINE
8
BLACK
6
CONTINUOUS
10
3.94364
20
-3.82755
11
3.944
21
-3.82785
0
LINE
8
BLACK
6
CONTINUOUS
10
3.944
20
-3.82785
11
3.9443
21
-3.82821
0
LINE
8
BLACK
6
CONTINUOUS
10
3.9443
20
-3.82821
11
3.94452
21
-3.82862
0
LINE
8
BLACK
6
CONTINUOUS
10
3.94452
20
-3.82862
11
3.94465
21
-3.82906
0
LINE
8
BLACK
6
CONTINUOUS
10
3.94465
20
-3.82906
11
3.9447
21
-3.82953
0
LINE
8
BLACK
6
CONTINUOUS
10
3.9447
20
-3.82953
11
3.94469
21
-3.82964
0
LINE
8
BLACK
6
CONTINUOUS
10
3.94469
20
-3.82964
11
3.94469
21
-3.82972
0
LINE
8
BLACK
6
CONTINUOUS
10
3.94469
20
-3.82972
11
4.07894
21
-3.82972
0
LINE
8
BLACK
6
CONTINUOUS
10
4.07894
20
-3.82972
11
4.07894
21
-3.82941
0
LINE
8
BLACK
6
CONTINUOUS
10
4.07894
20
-3.82941
11
4.07897
21
-3.82906
0
LINE
8
BLACK
6
CONTINUOUS
10
4.07897
20
-3.82906
11
4.07911
21
-3.82862
0
LINE
8
BLACK
6
CONTINUOUS
10
4.07911
20
-3.82862
11
4.07933
21
-3.82821
0
LINE
8
BLACK
6
CONTINUOUS
10
4.07933
20
-3.82821
11
4.07962
21
-3.82785
0
LINE
8
BLACK
6
CONTINUOUS
10
4.07962
20
-3.82785
11
4.07998
21
-3.82755
0
LINE
8
BLACK
6
CONTINUOUS
10
4.07998
20
-3.82755
11
4.08039
21
-3.82733
0
LINE
8
BLACK
6
CONTINUOUS
10
4.08039
20
-3.82733
11
4.08084
21
-3.8272
0
LINE
8
BLACK
6
CONTINUOUS
10
4.08084
20
-3.8272
11
4.0813
21
-3.82715
0
LINE
8
BLACK
6
CONTINUOUS
10
4.0813
20
-3.82715
11
4.08176
21
-3.8272
0
LINE
8
BLACK
6
CONTINUOUS
10
4.52334
20
-3.70295
11
4.54106
21
-3.70295
0
LINE
8
BLACK
6
CONTINUOUS
10
4.54106
20
-3.70295
11
4.54141
21
-3.70299
0
LINE
8
BLACK
6
CONTINUOUS
10
4.54141
20
-3.70299
11
4.54185
21
-3.70312
0
LINE
8
BLACK
6
CONTINUOUS
10
4.54185
20
-3.70312
11
4.54226
21
-3.70334
0
LINE
8
BLACK
6
CONTINUOUS
10
4.54226
20
-3.70334
11
4.54262
21
-3.70364
0
LINE
8
BLACK
6
CONTINUOUS
10
4.54262
20
-3.70364
11
4.54292
21
-3.704
0
LINE
8
BLACK
6
CONTINUOUS
10
4.54292
20
-3.704
11
4.54314
21
-3.70441
0
LINE
8
BLACK
6
CONTINUOUS
10
4.54314
20
-3.70441
11
4.54327
21
-3.70485
0
LINE
8
BLACK
6
CONTINUOUS
10
4.54327
20
-3.70485
11
4.54332
21
-3.70531
0
LINE
8
BLACK
6
CONTINUOUS
10
4.54332
20
-3.70531
11
4.54327
21
-3.70578
0
LINE
8
BLACK
6
CONTINUOUS
10
4.54327
20
-3.70578
11
4.54314
21
-3.70622
0
LINE
8
BLACK
6
CONTINUOUS
10
4.54314
20
-3.70622
11
4.54292
21
-3.70663
0
LINE
8
BLACK
6
CONTINUOUS
10
4.54292
20
-3.70663
11
4.54262
21
-3.70699
0
LINE
8
BLACK
6
CONTINUOUS
10
4.54262
20
-3.70699
11
4.54226
21
-3.70729
0
LINE
8
BLACK
6
CONTINUOUS
10
4.54226
20
-3.70729
11
4.54185
21
-3.70751
0
LINE
8
BLACK
6
CONTINUOUS
10
4.54185
20
-3.70751
11
4.54141
21
-3.70764
0
LINE
8
BLACK
6
CONTINUOUS
10
4.54141
20
-3.70764
11
4.54106
21
-3.70768
0
LINE
8
BLACK
6
CONTINUOUS
10
4.54106
20
-3.70768
11
4.52559
21
-3.70768
0
LINE
8
BLACK
6
CONTINUOUS
10
4.52559
20
-3.70768
11
4.52559
21
-3.7426
0
LINE
8
BLACK
6
CONTINUOUS
10
4.52559
20
-3.7426
11
4.5256
21
-3.74272
0
LINE
8
BLACK
6
CONTINUOUS
10
4.5256
20
-3.74272
11
4.52559
21
-3.74283
0
LINE
8
BLACK
6
CONTINUOUS
10
4.52559
20
-3.74283
11
4.52556
21
-3.74318
0
LINE
8
BLACK
6
CONTINUOUS
10
4.52556
20
-3.74318
11
4.52542
21
-3.74362
0
LINE
8
BLACK
6
CONTINUOUS
10
4.52542
20
-3.74362
11
4.5252
21
-3.74404
0
LINE
8
BLACK
6
CONTINUOUS
10
4.5252
20
-3.74404
11
4.52491
21
-3.74439
0
LINE
8
BLACK
6
CONTINUOUS
10
4.52491
20
-3.74439
11
4.52455
21
-3.74469
0
LINE
8
BLACK
6
CONTINUOUS
10
4.52455
20
-3.74469
11
4.52414
21
-3.74491
0
LINE
8
BLACK
6
CONTINUOUS
10
4.52414
20
-3.74491
11
4.52369
21
-3.74504
0
LINE
8
BLACK
6
CONTINUOUS
10
4.52369
20
-3.74504
11
4.52323
21
-3.74509
0
LINE
8
BLACK
6
CONTINUOUS
10
4.52323
20
-3.74509
11
4.52311
21
-3.74508
0
LINE
8
BLACK
6
CONTINUOUS
10
4.52311
20
-3.74508
11
4.46445
21
-3.74508
0
LINE
8
BLACK
6
CONTINUOUS
10
4.46445
20
-3.74508
11
4.4641
21
-3.74504
0
LINE
8
BLACK
6
CONTINUOUS
10
4.4641
20
-3.74504
11
4.46366
21
-3.74491
0
LINE
8
BLACK
6
CONTINUOUS
10
4.46366
20
-3.74491
11
4.46325
21
-3.74469
0
LINE
8
BLACK
6
CONTINUOUS
10
4.46325
20
-3.74469
11
4.46289
21
-3.74439
0
LINE
8
BLACK
6
CONTINUOUS
10
4.46289
20
-3.74439
11
4.46259
21
-3.74404
0
LINE
8
BLACK
6
CONTINUOUS
10
4.46259
20
-3.74404
11
4.46237
21
-3.74362
0
LINE
8
BLACK
6
CONTINUOUS
10
4.46237
20
-3.74362
11
4.46224
21
-3.74318
0
LINE
8
BLACK
6
CONTINUOUS
10
4.46224
20
-3.74318
11
4.46219
21
-3.74272
0
LINE
8
BLACK
6
CONTINUOUS
10
4.46219
20
-3.74272
11
4.46224
21
-3.74225
0
LINE
8
BLACK
6
CONTINUOUS
10
4.46224
20
-3.74225
11
4.46237
21
-3.74181
0
LINE
8
BLACK
6
CONTINUOUS
10
4.46237
20
-3.74181
11
4.46259
21
-3.7414
0
LINE
8
BLACK
6
CONTINUOUS
10
4.46259
20
-3.7414
11
4.46289
21
-3.74104
0
LINE
8
BLACK
6
CONTINUOUS
10
4.46289
20
-3.74104
11
4.46325
21
-3.74074
0
LINE
8
BLACK
6
CONTINUOUS
10
4.46325
20
-3.74074
11
4.46366
21
-3.74052
0
LINE
8
BLACK
6
CONTINUOUS
10
4.46366
20
-3.74052
11
4.4641
21
-3.74039
0
LINE
8
BLACK
6
CONTINUOUS
10
4.4641
20
-3.74039
11
4.46445
21
-3.74035
0
LINE
8
BLACK
6
CONTINUOUS
10
4.46445
20
-3.74035
11
4.52087
21
-3.74035
0
LINE
8
BLACK
6
CONTINUOUS
10
4.52087
20
-3.74035
11
4.52087
21
-3.70543
0
LINE
8
BLACK
6
CONTINUOUS
10
4.52087
20
-3.70543
11
4.52085
21
-3.70531
0
LINE
8
BLACK
6
CONTINUOUS
10
4.52085
20
-3.70531
11
4.5209
21
-3.70485
0
LINE
8
BLACK
6
CONTINUOUS
10
4.5209
20
-3.70485
11
4.52104
21
-3.70441
0
LINE
8
BLACK
6
CONTINUOUS
10
4.52104
20
-3.70441
11
4.52125
21
-3.704
0
LINE
8
BLACK
6
CONTINUOUS
10
4.52125
20
-3.704
11
4.52155
21
-3.70364
0
LINE
8
BLACK
6
CONTINUOUS
10
4.52155
20
-3.70364
11
4.52191
21
-3.70334
0
LINE
8
BLACK
6
CONTINUOUS
10
4.52191
20
-3.70334
11
4.52232
21
-3.70312
0
LINE
8
BLACK
6
CONTINUOUS
10
4.52232
20
-3.70312
11
4.52277
21
-3.70299
0
LINE
8
BLACK
6
CONTINUOUS
10
4.52277
20
-3.70299
11
4.52311
21
-3.70295
0
LINE
8
BLACK
6
CONTINUOUS
10
4.52311
20
-3.70295
11
4.52323
21
-3.70294
0
LINE
8
BLACK
6
CONTINUOUS
10
4.52323
20
-3.70294
11
4.52334
21
-3.70295
0
LINE
8
BLACK
6
CONTINUOUS
10
4.08142
20
-3.575
11
4.08176
21
-3.57503
0
LINE
8
BLACK
6
CONTINUOUS
10
4.08176
20
-3.57503
11
4.08221
21
-3.57517
0
LINE
8
BLACK
6
CONTINUOUS
10
4.08221
20
-3.57517
11
4.08262
21
-3.57539
0
LINE
8
BLACK
6
CONTINUOUS
10
4.08262
20
-3.57539
11
4.08298
21
-3.57568
0
LINE
8
BLACK
6
CONTINUOUS
10
4.08298
20
-3.57568
11
4.08327
21
-3.57604
0
LINE
8
BLACK
6
CONTINUOUS
10
4.08327
20
-3.57604
11
4.08349
21
-3.57645
0
LINE
8
BLACK
6
CONTINUOUS
10
4.08349
20
-3.57645
11
4.08363
21
-3.5769
0
LINE
8
BLACK
6
CONTINUOUS
10
4.08363
20
-3.5769
11
4.08367
21
-3.57736
0
LINE
8
BLACK
6
CONTINUOUS
10
4.08367
20
-3.57736
11
4.08366
21
-3.57748
0
LINE
8
BLACK
6
CONTINUOUS
10
4.08366
20
-3.57748
11
4.08366
21
-3.58004
0
LINE
8
BLACK
6
CONTINUOUS
10
4.08366
20
-3.58004
11
4.08363
21
-3.58038
0
LINE
8
BLACK
6
CONTINUOUS
10
4.08363
20
-3.58038
11
4.08349
21
-3.58083
0
LINE
8
BLACK
6
CONTINUOUS
10
4.08349
20
-3.58083
11
4.08327
21
-3.58124
0
LINE
8
BLACK
6
CONTINUOUS
10
4.08327
20
-3.58124
11
4.08298
21
-3.5816
0
LINE
8
BLACK
6
CONTINUOUS
10
4.08298
20
-3.5816
11
4.08262
21
-3.58189
0
LINE
8
BLACK
6
CONTINUOUS
10
4.08262
20
-3.58189
11
4.08221
21
-3.58211
0
LINE
8
BLACK
6
CONTINUOUS
10
4.08221
20
-3.58211
11
4.08176
21
-3.58225
0
LINE
8
BLACK
6
CONTINUOUS
10
4.08176
20
-3.58225
11
4.0813
21
-3.58229
0
LINE
8
BLACK
6
CONTINUOUS
10
4.0813
20
-3.58229
11
4.08084
21
-3.58225
0
LINE
8
BLACK
6
CONTINUOUS
10
4.08084
20
-3.58225
11
4.08039
21
-3.58211
0
LINE
8
BLACK
6
CONTINUOUS
10
4.08039
20
-3.58211
11
4.07998
21
-3.58189
0
LINE
8
BLACK
6
CONTINUOUS
10
4.07998
20
-3.58189
11
4.07962
21
-3.5816
0
LINE
8
BLACK
6
CONTINUOUS
10
4.07962
20
-3.5816
11
4.07933
21
-3.58124
0
LINE
8
BLACK
6
CONTINUOUS
10
4.07933
20
-3.58124
11
4.07911
21
-3.58083
0
LINE
8
BLACK
6
CONTINUOUS
10
4.07911
20
-3.58083
11
4.07897
21
-3.58038
0
LINE
8
BLACK
6
CONTINUOUS
10
4.07897
20
-3.58038
11
4.07894
21
-3.58004
0
LINE
8
BLACK
6
CONTINUOUS
10
4.07894
20
-3.58004
11
4.07894
21
-3.57972
0
LINE
8
BLACK
6
CONTINUOUS
10
4.07894
20
-3.57972
11
3.94469
21
-3.57972
0
LINE
8
BLACK
6
CONTINUOUS
10
3.94469
20
-3.57972
11
3.94469
21
-3.58004
0
LINE
8
BLACK
6
CONTINUOUS
10
3.94469
20
-3.58004
11
3.94465
21
-3.58038
0
LINE
8
BLACK
6
CONTINUOUS
10
3.94465
20
-3.58038
11
3.94452
21
-3.58083
0
LINE
8
BLACK
6
CONTINUOUS
10
3.94452
20
-3.58083
11
3.9443
21
-3.58124
0
LINE
8
BLACK
6
CONTINUOUS
10
3.9443
20
-3.58124
11
3.944
21
-3.5816
0
LINE
8
BLACK
6
CONTINUOUS
10
3.944
20
-3.5816
11
3.94364
21
-3.58189
0
LINE
8
BLACK
6
CONTINUOUS
10
3.94364
20
-3.58189
11
3.94323
21
-3.58211
0
LINE
8
BLACK
6
CONTINUOUS
10
3.94323
20
-3.58211
11
3.94279
21
-3.58225
0
LINE
8
BLACK
6
CONTINUOUS
10
3.94279
20
-3.58225
11
3.94232
21
-3.58229
0
LINE
8
BLACK
6
CONTINUOUS
10
3.94232
20
-3.58229
11
3.94186
21
-3.58225
0
LINE
8
BLACK
6
CONTINUOUS
10
3.94186
20
-3.58225
11
3.94141
21
-3.58211
0
LINE
8
BLACK
6
CONTINUOUS
10
3.94141
20
-3.58211
11
3.941
21
-3.58189
0
LINE
8
BLACK
6
CONTINUOUS
10
3.941
20
-3.58189
11
3.94064
21
-3.5816
0
LINE
8
BLACK
6
CONTINUOUS
10
3.94064
20
-3.5816
11
3.94035
21
-3.58124
0
LINE
8
BLACK
6
CONTINUOUS
10
3.94035
20
-3.58124
11
3.94013
21
-3.58083
0
LINE
8
BLACK
6
CONTINUOUS
10
3.94013
20
-3.58083
11
3.93999
21
-3.58038
0
LINE
8
BLACK
6
CONTINUOUS
10
3.93999
20
-3.58038
11
3.93996
21
-3.58004
0
LINE
8
BLACK
6
CONTINUOUS
10
3.93996
20
-3.58004
11
3.93996
21
-3.57748
0
LINE
8
BLACK
6
CONTINUOUS
10
3.93996
20
-3.57748
11
3.93995
21
-3.57736
0
LINE
8
BLACK
6
CONTINUOUS
10
3.93995
20
-3.57736
11
3.93999
21
-3.5769
0
LINE
8
BLACK
6
CONTINUOUS
10
3.93999
20
-3.5769
11
3.94013
21
-3.57645
0
LINE
8
BLACK
6
CONTINUOUS
10
3.94013
20
-3.57645
11
3.94035
21
-3.57604
0
LINE
8
BLACK
6
CONTINUOUS
10
3.94035
20
-3.57604
11
3.94064
21
-3.57568
0
LINE
8
BLACK
6
CONTINUOUS
10
3.94064
20
-3.57568
11
3.941
21
-3.57539
0
LINE
8
BLACK
6
CONTINUOUS
10
3.941
20
-3.57539
11
3.94141
21
-3.57517
0
LINE
8
BLACK
6
CONTINUOUS
10
3.94141
20
-3.57517
11
3.94186
21
-3.57503
0
LINE
8
BLACK
6
CONTINUOUS
10
3.94186
20
-3.57503
11
3.94221
21
-3.575
0
LINE
8
BLACK
6
CONTINUOUS
10
3.94221
20
-3.575
11
3.94221
21
-3.575
0
LINE
8
BLACK
6
CONTINUOUS
10
3.94221
20
-3.575
11
3.94232
21
-3.57499
0
LINE
8
BLACK
6
CONTINUOUS
10
3.94232
20
-3.57499
11
3.94244
21
-3.575
0
LINE
8
BLACK
6
CONTINUOUS
10
3.94244
20
-3.575
11
4.08118
21
-3.575
0
LINE
8
BLACK
6
CONTINUOUS
10
4.08118
20
-3.575
11
4.0813
21
-3.57499
0
LINE
8
BLACK
6
CONTINUOUS
10
4.0813
20
-3.57499
11
4.08142
21
-3.575
  0
ENDSEC
  0
EOF
