G04 #@! TF.GenerationSoftware,KiCad,Pcbnew,(5.1.5)-3*
G04 #@! TF.CreationDate,2021-09-26T22:58:58-04:00*
G04 #@! TF.ProjectId,EPC611 LIDAR,45504336-3131-4204-9c49-4441522e6b69,rev?*
G04 #@! TF.SameCoordinates,Original*
G04 #@! TF.FileFunction,Copper,L2,Inr*
G04 #@! TF.FilePolarity,Positive*
%FSLAX46Y46*%
G04 Gerber Fmt 4.6, Leading zero omitted, Abs format (unit mm)*
G04 Created by KiCad (PCBNEW (5.1.5)-3) date 2021-09-26 22:58:58*
%MOMM*%
%LPD*%
G04 APERTURE LIST*
%ADD10O,0.780000X0.780000*%
%ADD11R,0.780000X0.780000*%
%ADD12C,0.800000*%
%ADD13C,0.254000*%
G04 APERTURE END LIST*
D10*
X89700000Y-106600000D03*
D11*
X90700000Y-106600000D03*
D12*
X113600000Y-105700000D03*
X96500000Y-107800000D03*
X95900000Y-114000000D03*
X102300000Y-103800000D03*
X99800000Y-106300000D03*
X104800000Y-106300000D03*
X112300000Y-95800000D03*
X98100000Y-92900000D03*
X109600000Y-114000000D03*
X87600000Y-83600000D03*
X117700000Y-82000000D03*
X83200000Y-92100000D03*
X98600000Y-86800000D03*
X96500000Y-82400000D03*
X92700000Y-83400000D03*
X84700000Y-89400000D03*
X80700000Y-84800000D03*
X115600000Y-96900000D03*
X118700000Y-102000000D03*
X81400000Y-100300000D03*
X88400000Y-103600000D03*
X83400000Y-105600000D03*
X90800000Y-90800000D03*
X101100000Y-74600000D03*
X106900000Y-82600000D03*
X100300000Y-80100000D03*
X95400000Y-74400000D03*
X108675000Y-111225000D03*
X87500000Y-92100000D03*
X96600000Y-77800000D03*
X105800000Y-91600000D03*
X98000000Y-96700000D03*
X83000000Y-86300000D03*
X115800000Y-98800000D03*
X91000000Y-109300000D03*
X117800000Y-98900000D03*
X85500000Y-98900000D03*
X102500000Y-77900000D03*
X108300000Y-82800000D03*
X94000000Y-86500000D03*
X85000000Y-103500000D03*
X84800000Y-107200000D03*
X86712500Y-108412500D03*
X88937500Y-104937500D03*
X113000000Y-111400000D03*
X113862500Y-109362500D03*
X86500000Y-82300000D03*
X85200000Y-104500000D03*
X91300000Y-95900000D03*
X87500000Y-90700000D03*
X103700000Y-77900000D03*
X84200000Y-98900000D03*
X87000000Y-98800000D03*
X87600000Y-78900000D03*
X106900000Y-78900000D03*
X113900000Y-83000000D03*
X90000000Y-110100000D03*
X100300000Y-98800000D03*
X107500000Y-83700000D03*
X97200000Y-102600000D03*
X104900000Y-85200000D03*
X101300000Y-82400000D03*
X94900000Y-103400000D03*
X101500000Y-84000000D03*
X92400000Y-105100000D03*
X106200000Y-85200000D03*
X92400000Y-101900000D03*
X104100000Y-85900000D03*
X109800000Y-109000000D03*
X109800000Y-106500000D03*
X109800000Y-105200000D03*
X109800000Y-103900000D03*
X109800000Y-102600000D03*
X87300000Y-80100000D03*
X109700000Y-92800000D03*
X105800000Y-94100000D03*
X109800000Y-95000000D03*
X105800000Y-96700000D03*
X106200000Y-110900000D03*
X107500000Y-110900000D03*
X109800000Y-107700000D03*
D13*
G36*
X115763637Y-72755875D02*
G01*
X116253758Y-72889957D01*
X115941331Y-73019369D01*
X115575271Y-73263962D01*
X115263962Y-73575271D01*
X115019369Y-73941331D01*
X114850890Y-74348075D01*
X114765000Y-74779872D01*
X114765000Y-75220128D01*
X114850890Y-75651925D01*
X115019369Y-76058669D01*
X115263962Y-76424729D01*
X115575271Y-76736038D01*
X115941331Y-76980631D01*
X116348075Y-77149110D01*
X116779872Y-77235000D01*
X117220128Y-77235000D01*
X117651925Y-77149110D01*
X118058669Y-76980631D01*
X118424729Y-76736038D01*
X118736038Y-76424729D01*
X118980631Y-76058669D01*
X119113975Y-75736748D01*
X119267283Y-76375320D01*
X119315001Y-77025125D01*
X119315000Y-116969495D01*
X119244125Y-117763637D01*
X119110043Y-118253758D01*
X118980631Y-117941331D01*
X118736038Y-117575271D01*
X118424729Y-117263962D01*
X118058669Y-117019369D01*
X117651925Y-116850890D01*
X117220128Y-116765000D01*
X116779872Y-116765000D01*
X116348075Y-116850890D01*
X115941331Y-117019369D01*
X115575271Y-117263962D01*
X115263962Y-117575271D01*
X115019369Y-117941331D01*
X114850890Y-118348075D01*
X114765000Y-118779872D01*
X114765000Y-119220128D01*
X114850890Y-119651925D01*
X115019369Y-120058669D01*
X115263962Y-120424729D01*
X115575271Y-120736038D01*
X115941331Y-120980631D01*
X116263252Y-121113975D01*
X115624681Y-121267282D01*
X114974888Y-121315000D01*
X85030505Y-121315000D01*
X84236363Y-121244125D01*
X83746242Y-121110043D01*
X84058669Y-120980631D01*
X84424729Y-120736038D01*
X84736038Y-120424729D01*
X84980631Y-120058669D01*
X85149110Y-119651925D01*
X85235000Y-119220128D01*
X85235000Y-118779872D01*
X85149110Y-118348075D01*
X84980631Y-117941331D01*
X84736038Y-117575271D01*
X84424729Y-117263962D01*
X84058669Y-117019369D01*
X83651925Y-116850890D01*
X83220128Y-116765000D01*
X82779872Y-116765000D01*
X82348075Y-116850890D01*
X81941331Y-117019369D01*
X81575271Y-117263962D01*
X81263962Y-117575271D01*
X81019369Y-117941331D01*
X80886025Y-118263252D01*
X80732718Y-117624681D01*
X80685000Y-116974888D01*
X80685000Y-109998061D01*
X88965000Y-109998061D01*
X88965000Y-110201939D01*
X89004774Y-110401898D01*
X89082795Y-110590256D01*
X89196063Y-110759774D01*
X89340226Y-110903937D01*
X89509744Y-111017205D01*
X89698102Y-111095226D01*
X89898061Y-111135000D01*
X90101939Y-111135000D01*
X90301898Y-111095226D01*
X90490256Y-111017205D01*
X90659774Y-110903937D01*
X90765650Y-110798061D01*
X105165000Y-110798061D01*
X105165000Y-111001939D01*
X105204774Y-111201898D01*
X105282795Y-111390256D01*
X105396063Y-111559774D01*
X105540226Y-111703937D01*
X105709744Y-111817205D01*
X105898102Y-111895226D01*
X106098061Y-111935000D01*
X106301939Y-111935000D01*
X106501898Y-111895226D01*
X106690256Y-111817205D01*
X106850000Y-111710468D01*
X107009744Y-111817205D01*
X107198102Y-111895226D01*
X107398061Y-111935000D01*
X107601939Y-111935000D01*
X107801898Y-111895226D01*
X107990256Y-111817205D01*
X108159774Y-111703937D01*
X108303937Y-111559774D01*
X108417205Y-111390256D01*
X108455393Y-111298061D01*
X111965000Y-111298061D01*
X111965000Y-111501939D01*
X112004774Y-111701898D01*
X112082795Y-111890256D01*
X112196063Y-112059774D01*
X112340226Y-112203937D01*
X112509744Y-112317205D01*
X112698102Y-112395226D01*
X112898061Y-112435000D01*
X113101939Y-112435000D01*
X113301898Y-112395226D01*
X113490256Y-112317205D01*
X113659774Y-112203937D01*
X113803937Y-112059774D01*
X113917205Y-111890256D01*
X113995226Y-111701898D01*
X114035000Y-111501939D01*
X114035000Y-111298061D01*
X113995226Y-111098102D01*
X113917205Y-110909744D01*
X113803937Y-110740226D01*
X113659774Y-110596063D01*
X113490256Y-110482795D01*
X113301898Y-110404774D01*
X113101939Y-110365000D01*
X112898061Y-110365000D01*
X112698102Y-110404774D01*
X112509744Y-110482795D01*
X112340226Y-110596063D01*
X112196063Y-110740226D01*
X112082795Y-110909744D01*
X112004774Y-111098102D01*
X111965000Y-111298061D01*
X108455393Y-111298061D01*
X108495226Y-111201898D01*
X108535000Y-111001939D01*
X108535000Y-110798061D01*
X108495226Y-110598102D01*
X108417205Y-110409744D01*
X108303937Y-110240226D01*
X108159774Y-110096063D01*
X107990256Y-109982795D01*
X107801898Y-109904774D01*
X107601939Y-109865000D01*
X107398061Y-109865000D01*
X107198102Y-109904774D01*
X107009744Y-109982795D01*
X106850000Y-110089532D01*
X106690256Y-109982795D01*
X106501898Y-109904774D01*
X106301939Y-109865000D01*
X106098061Y-109865000D01*
X105898102Y-109904774D01*
X105709744Y-109982795D01*
X105540226Y-110096063D01*
X105396063Y-110240226D01*
X105282795Y-110409744D01*
X105204774Y-110598102D01*
X105165000Y-110798061D01*
X90765650Y-110798061D01*
X90803937Y-110759774D01*
X90917205Y-110590256D01*
X90995226Y-110401898D01*
X91008533Y-110335000D01*
X91101939Y-110335000D01*
X91301898Y-110295226D01*
X91490256Y-110217205D01*
X91659774Y-110103937D01*
X91803937Y-109959774D01*
X91917205Y-109790256D01*
X91995226Y-109601898D01*
X92035000Y-109401939D01*
X92035000Y-109198061D01*
X91995226Y-108998102D01*
X91917205Y-108809744D01*
X91803937Y-108640226D01*
X91659774Y-108496063D01*
X91490256Y-108382795D01*
X91301898Y-108304774D01*
X91101939Y-108265000D01*
X90898061Y-108265000D01*
X90698102Y-108304774D01*
X90509744Y-108382795D01*
X90340226Y-108496063D01*
X90196063Y-108640226D01*
X90082795Y-108809744D01*
X90004774Y-108998102D01*
X89991467Y-109065000D01*
X89898061Y-109065000D01*
X89698102Y-109104774D01*
X89509744Y-109182795D01*
X89340226Y-109296063D01*
X89196063Y-109440226D01*
X89082795Y-109609744D01*
X89004774Y-109798102D01*
X88965000Y-109998061D01*
X80685000Y-109998061D01*
X80685000Y-108310561D01*
X85677500Y-108310561D01*
X85677500Y-108514439D01*
X85717274Y-108714398D01*
X85795295Y-108902756D01*
X85908563Y-109072274D01*
X86052726Y-109216437D01*
X86222244Y-109329705D01*
X86410602Y-109407726D01*
X86610561Y-109447500D01*
X86814439Y-109447500D01*
X87014398Y-109407726D01*
X87202756Y-109329705D01*
X87372274Y-109216437D01*
X87516437Y-109072274D01*
X87629705Y-108902756D01*
X87707726Y-108714398D01*
X87747500Y-108514439D01*
X87747500Y-108310561D01*
X87707726Y-108110602D01*
X87629705Y-107922244D01*
X87516437Y-107752726D01*
X87372274Y-107608563D01*
X87202756Y-107495295D01*
X87014398Y-107417274D01*
X86814439Y-107377500D01*
X86610561Y-107377500D01*
X86410602Y-107417274D01*
X86222244Y-107495295D01*
X86052726Y-107608563D01*
X85908563Y-107752726D01*
X85795295Y-107922244D01*
X85717274Y-108110602D01*
X85677500Y-108310561D01*
X80685000Y-108310561D01*
X80685000Y-107098061D01*
X83765000Y-107098061D01*
X83765000Y-107301939D01*
X83804774Y-107501898D01*
X83882795Y-107690256D01*
X83996063Y-107859774D01*
X84140226Y-108003937D01*
X84309744Y-108117205D01*
X84498102Y-108195226D01*
X84698061Y-108235000D01*
X84901939Y-108235000D01*
X85101898Y-108195226D01*
X85290256Y-108117205D01*
X85459774Y-108003937D01*
X85603937Y-107859774D01*
X85717205Y-107690256D01*
X85795226Y-107501898D01*
X85835000Y-107301939D01*
X85835000Y-107098061D01*
X85795226Y-106898102D01*
X85789612Y-106884547D01*
X88715280Y-106884547D01*
X88789713Y-107071189D01*
X88899128Y-107239723D01*
X89039320Y-107383673D01*
X89204902Y-107497507D01*
X89389510Y-107576850D01*
X89415454Y-107584713D01*
X89573000Y-107456890D01*
X89573000Y-106727000D01*
X88841641Y-106727000D01*
X88715280Y-106884547D01*
X85789612Y-106884547D01*
X85717205Y-106709744D01*
X85603937Y-106540226D01*
X85459774Y-106396063D01*
X85290256Y-106282795D01*
X85101898Y-106204774D01*
X84901939Y-106165000D01*
X84698061Y-106165000D01*
X84498102Y-106204774D01*
X84309744Y-106282795D01*
X84140226Y-106396063D01*
X83996063Y-106540226D01*
X83882795Y-106709744D01*
X83804774Y-106898102D01*
X83765000Y-107098061D01*
X80685000Y-107098061D01*
X80685000Y-103398061D01*
X83965000Y-103398061D01*
X83965000Y-103601939D01*
X84004774Y-103801898D01*
X84082795Y-103990256D01*
X84196063Y-104159774D01*
X84213449Y-104177160D01*
X84204774Y-104198102D01*
X84165000Y-104398061D01*
X84165000Y-104601939D01*
X84204774Y-104801898D01*
X84282795Y-104990256D01*
X84396063Y-105159774D01*
X84540226Y-105303937D01*
X84709744Y-105417205D01*
X84898102Y-105495226D01*
X85098061Y-105535000D01*
X85301939Y-105535000D01*
X85501898Y-105495226D01*
X85690256Y-105417205D01*
X85859774Y-105303937D01*
X86003937Y-105159774D01*
X86117205Y-104990256D01*
X86181282Y-104835561D01*
X87902500Y-104835561D01*
X87902500Y-105039439D01*
X87942274Y-105239398D01*
X88020295Y-105427756D01*
X88133563Y-105597274D01*
X88277726Y-105741437D01*
X88447244Y-105854705D01*
X88635602Y-105932726D01*
X88835561Y-105972500D01*
X88891193Y-105972500D01*
X88789713Y-106128811D01*
X88715280Y-106315453D01*
X88841641Y-106473000D01*
X89573000Y-106473000D01*
X89573000Y-106453000D01*
X89671928Y-106453000D01*
X89671928Y-106990000D01*
X89684188Y-107114482D01*
X89720498Y-107234180D01*
X89779463Y-107344494D01*
X89827000Y-107402418D01*
X89827000Y-107456890D01*
X89984546Y-107584713D01*
X90010490Y-107576850D01*
X90038409Y-107564850D01*
X90065820Y-107579502D01*
X90185518Y-107615812D01*
X90310000Y-107628072D01*
X91090000Y-107628072D01*
X91214482Y-107615812D01*
X91334180Y-107579502D01*
X91444494Y-107520537D01*
X91541185Y-107441185D01*
X91620537Y-107344494D01*
X91679502Y-107234180D01*
X91715812Y-107114482D01*
X91728072Y-106990000D01*
X91728072Y-106210000D01*
X91715812Y-106085518D01*
X91679502Y-105965820D01*
X91620537Y-105855506D01*
X91541185Y-105758815D01*
X91444494Y-105679463D01*
X91334180Y-105620498D01*
X91214482Y-105584188D01*
X91090000Y-105571928D01*
X90310000Y-105571928D01*
X90185518Y-105584188D01*
X90065820Y-105620498D01*
X90038409Y-105635150D01*
X90010490Y-105623150D01*
X89984546Y-105615287D01*
X89827002Y-105743108D01*
X89827002Y-105575000D01*
X89756320Y-105575000D01*
X89854705Y-105427756D01*
X89932726Y-105239398D01*
X89972500Y-105039439D01*
X89972500Y-104998061D01*
X91365000Y-104998061D01*
X91365000Y-105201939D01*
X91404774Y-105401898D01*
X91482795Y-105590256D01*
X91596063Y-105759774D01*
X91740226Y-105903937D01*
X91909744Y-106017205D01*
X92098102Y-106095226D01*
X92298061Y-106135000D01*
X92501939Y-106135000D01*
X92701898Y-106095226D01*
X92890256Y-106017205D01*
X93059774Y-105903937D01*
X93203937Y-105759774D01*
X93317205Y-105590256D01*
X93395226Y-105401898D01*
X93435000Y-105201939D01*
X93435000Y-104998061D01*
X93395226Y-104798102D01*
X93317205Y-104609744D01*
X93203937Y-104440226D01*
X93059774Y-104296063D01*
X92890256Y-104182795D01*
X92701898Y-104104774D01*
X92501939Y-104065000D01*
X92298061Y-104065000D01*
X92098102Y-104104774D01*
X91909744Y-104182795D01*
X91740226Y-104296063D01*
X91596063Y-104440226D01*
X91482795Y-104609744D01*
X91404774Y-104798102D01*
X91365000Y-104998061D01*
X89972500Y-104998061D01*
X89972500Y-104835561D01*
X89932726Y-104635602D01*
X89854705Y-104447244D01*
X89741437Y-104277726D01*
X89597274Y-104133563D01*
X89427756Y-104020295D01*
X89239398Y-103942274D01*
X89039439Y-103902500D01*
X88835561Y-103902500D01*
X88635602Y-103942274D01*
X88447244Y-104020295D01*
X88277726Y-104133563D01*
X88133563Y-104277726D01*
X88020295Y-104447244D01*
X87942274Y-104635602D01*
X87902500Y-104835561D01*
X86181282Y-104835561D01*
X86195226Y-104801898D01*
X86235000Y-104601939D01*
X86235000Y-104398061D01*
X86195226Y-104198102D01*
X86117205Y-104009744D01*
X86003937Y-103840226D01*
X85986551Y-103822840D01*
X85995226Y-103801898D01*
X86035000Y-103601939D01*
X86035000Y-103398061D01*
X86015109Y-103298061D01*
X93865000Y-103298061D01*
X93865000Y-103501939D01*
X93904774Y-103701898D01*
X93982795Y-103890256D01*
X94096063Y-104059774D01*
X94240226Y-104203937D01*
X94409744Y-104317205D01*
X94598102Y-104395226D01*
X94798061Y-104435000D01*
X95001939Y-104435000D01*
X95201898Y-104395226D01*
X95390256Y-104317205D01*
X95559774Y-104203937D01*
X95703937Y-104059774D01*
X95817205Y-103890256D01*
X95895226Y-103701898D01*
X95935000Y-103501939D01*
X95935000Y-103298061D01*
X95895226Y-103098102D01*
X95817205Y-102909744D01*
X95703937Y-102740226D01*
X95559774Y-102596063D01*
X95413104Y-102498061D01*
X96165000Y-102498061D01*
X96165000Y-102701939D01*
X96204774Y-102901898D01*
X96282795Y-103090256D01*
X96396063Y-103259774D01*
X96540226Y-103403937D01*
X96709744Y-103517205D01*
X96898102Y-103595226D01*
X97098061Y-103635000D01*
X97301939Y-103635000D01*
X97501898Y-103595226D01*
X97690256Y-103517205D01*
X97859774Y-103403937D01*
X98003937Y-103259774D01*
X98117205Y-103090256D01*
X98195226Y-102901898D01*
X98235000Y-102701939D01*
X98235000Y-102498061D01*
X108765000Y-102498061D01*
X108765000Y-102701939D01*
X108804774Y-102901898D01*
X108882795Y-103090256D01*
X108989532Y-103250000D01*
X108882795Y-103409744D01*
X108804774Y-103598102D01*
X108765000Y-103798061D01*
X108765000Y-104001939D01*
X108804774Y-104201898D01*
X108882795Y-104390256D01*
X108989532Y-104550000D01*
X108882795Y-104709744D01*
X108804774Y-104898102D01*
X108765000Y-105098061D01*
X108765000Y-105301939D01*
X108804774Y-105501898D01*
X108882795Y-105690256D01*
X108989532Y-105850000D01*
X108882795Y-106009744D01*
X108804774Y-106198102D01*
X108765000Y-106398061D01*
X108765000Y-106601939D01*
X108804774Y-106801898D01*
X108882795Y-106990256D01*
X108956123Y-107100000D01*
X108882795Y-107209744D01*
X108804774Y-107398102D01*
X108765000Y-107598061D01*
X108765000Y-107801939D01*
X108804774Y-108001898D01*
X108882795Y-108190256D01*
X108989532Y-108350000D01*
X108882795Y-108509744D01*
X108804774Y-108698102D01*
X108765000Y-108898061D01*
X108765000Y-109101939D01*
X108804774Y-109301898D01*
X108882795Y-109490256D01*
X108996063Y-109659774D01*
X109140226Y-109803937D01*
X109309744Y-109917205D01*
X109498102Y-109995226D01*
X109698061Y-110035000D01*
X109901939Y-110035000D01*
X110101898Y-109995226D01*
X110290256Y-109917205D01*
X110459774Y-109803937D01*
X110603937Y-109659774D01*
X110717205Y-109490256D01*
X110795226Y-109301898D01*
X110803448Y-109260561D01*
X112827500Y-109260561D01*
X112827500Y-109464439D01*
X112867274Y-109664398D01*
X112945295Y-109852756D01*
X113058563Y-110022274D01*
X113202726Y-110166437D01*
X113372244Y-110279705D01*
X113560602Y-110357726D01*
X113760561Y-110397500D01*
X113964439Y-110397500D01*
X114164398Y-110357726D01*
X114352756Y-110279705D01*
X114522274Y-110166437D01*
X114666437Y-110022274D01*
X114779705Y-109852756D01*
X114857726Y-109664398D01*
X114897500Y-109464439D01*
X114897500Y-109260561D01*
X114857726Y-109060602D01*
X114779705Y-108872244D01*
X114666437Y-108702726D01*
X114522274Y-108558563D01*
X114352756Y-108445295D01*
X114164398Y-108367274D01*
X113964439Y-108327500D01*
X113760561Y-108327500D01*
X113560602Y-108367274D01*
X113372244Y-108445295D01*
X113202726Y-108558563D01*
X113058563Y-108702726D01*
X112945295Y-108872244D01*
X112867274Y-109060602D01*
X112827500Y-109260561D01*
X110803448Y-109260561D01*
X110835000Y-109101939D01*
X110835000Y-108898061D01*
X110795226Y-108698102D01*
X110717205Y-108509744D01*
X110610468Y-108350000D01*
X110717205Y-108190256D01*
X110795226Y-108001898D01*
X110835000Y-107801939D01*
X110835000Y-107598061D01*
X110795226Y-107398102D01*
X110717205Y-107209744D01*
X110643877Y-107100000D01*
X110717205Y-106990256D01*
X110795226Y-106801898D01*
X110835000Y-106601939D01*
X110835000Y-106398061D01*
X110795226Y-106198102D01*
X110717205Y-106009744D01*
X110610468Y-105850000D01*
X110717205Y-105690256D01*
X110795226Y-105501898D01*
X110835000Y-105301939D01*
X110835000Y-105098061D01*
X110795226Y-104898102D01*
X110717205Y-104709744D01*
X110610468Y-104550000D01*
X110717205Y-104390256D01*
X110795226Y-104201898D01*
X110835000Y-104001939D01*
X110835000Y-103798061D01*
X110795226Y-103598102D01*
X110717205Y-103409744D01*
X110610468Y-103250000D01*
X110717205Y-103090256D01*
X110795226Y-102901898D01*
X110835000Y-102701939D01*
X110835000Y-102498061D01*
X110795226Y-102298102D01*
X110717205Y-102109744D01*
X110603937Y-101940226D01*
X110459774Y-101796063D01*
X110290256Y-101682795D01*
X110101898Y-101604774D01*
X109901939Y-101565000D01*
X109698061Y-101565000D01*
X109498102Y-101604774D01*
X109309744Y-101682795D01*
X109140226Y-101796063D01*
X108996063Y-101940226D01*
X108882795Y-102109744D01*
X108804774Y-102298102D01*
X108765000Y-102498061D01*
X98235000Y-102498061D01*
X98195226Y-102298102D01*
X98117205Y-102109744D01*
X98003937Y-101940226D01*
X97859774Y-101796063D01*
X97690256Y-101682795D01*
X97501898Y-101604774D01*
X97301939Y-101565000D01*
X97098061Y-101565000D01*
X96898102Y-101604774D01*
X96709744Y-101682795D01*
X96540226Y-101796063D01*
X96396063Y-101940226D01*
X96282795Y-102109744D01*
X96204774Y-102298102D01*
X96165000Y-102498061D01*
X95413104Y-102498061D01*
X95390256Y-102482795D01*
X95201898Y-102404774D01*
X95001939Y-102365000D01*
X94798061Y-102365000D01*
X94598102Y-102404774D01*
X94409744Y-102482795D01*
X94240226Y-102596063D01*
X94096063Y-102740226D01*
X93982795Y-102909744D01*
X93904774Y-103098102D01*
X93865000Y-103298061D01*
X86015109Y-103298061D01*
X85995226Y-103198102D01*
X85917205Y-103009744D01*
X85803937Y-102840226D01*
X85659774Y-102696063D01*
X85490256Y-102582795D01*
X85301898Y-102504774D01*
X85101939Y-102465000D01*
X84898061Y-102465000D01*
X84698102Y-102504774D01*
X84509744Y-102582795D01*
X84340226Y-102696063D01*
X84196063Y-102840226D01*
X84082795Y-103009744D01*
X84004774Y-103198102D01*
X83965000Y-103398061D01*
X80685000Y-103398061D01*
X80685000Y-101798061D01*
X91365000Y-101798061D01*
X91365000Y-102001939D01*
X91404774Y-102201898D01*
X91482795Y-102390256D01*
X91596063Y-102559774D01*
X91740226Y-102703937D01*
X91909744Y-102817205D01*
X92098102Y-102895226D01*
X92298061Y-102935000D01*
X92501939Y-102935000D01*
X92701898Y-102895226D01*
X92890256Y-102817205D01*
X93059774Y-102703937D01*
X93203937Y-102559774D01*
X93317205Y-102390256D01*
X93395226Y-102201898D01*
X93435000Y-102001939D01*
X93435000Y-101798061D01*
X93395226Y-101598102D01*
X93317205Y-101409744D01*
X93203937Y-101240226D01*
X93059774Y-101096063D01*
X92890256Y-100982795D01*
X92701898Y-100904774D01*
X92501939Y-100865000D01*
X92298061Y-100865000D01*
X92098102Y-100904774D01*
X91909744Y-100982795D01*
X91740226Y-101096063D01*
X91596063Y-101240226D01*
X91482795Y-101409744D01*
X91404774Y-101598102D01*
X91365000Y-101798061D01*
X80685000Y-101798061D01*
X80685000Y-98798061D01*
X83165000Y-98798061D01*
X83165000Y-99001939D01*
X83204774Y-99201898D01*
X83282795Y-99390256D01*
X83396063Y-99559774D01*
X83540226Y-99703937D01*
X83709744Y-99817205D01*
X83898102Y-99895226D01*
X84098061Y-99935000D01*
X84301939Y-99935000D01*
X84501898Y-99895226D01*
X84690256Y-99817205D01*
X84850000Y-99710468D01*
X85009744Y-99817205D01*
X85198102Y-99895226D01*
X85398061Y-99935000D01*
X85601939Y-99935000D01*
X85801898Y-99895226D01*
X85990256Y-99817205D01*
X86159774Y-99703937D01*
X86300000Y-99563711D01*
X86340226Y-99603937D01*
X86509744Y-99717205D01*
X86698102Y-99795226D01*
X86898061Y-99835000D01*
X87101939Y-99835000D01*
X87301898Y-99795226D01*
X87490256Y-99717205D01*
X87659774Y-99603937D01*
X87803937Y-99459774D01*
X87917205Y-99290256D01*
X87995226Y-99101898D01*
X88035000Y-98901939D01*
X88035000Y-98698061D01*
X99265000Y-98698061D01*
X99265000Y-98901939D01*
X99304774Y-99101898D01*
X99382795Y-99290256D01*
X99496063Y-99459774D01*
X99640226Y-99603937D01*
X99809744Y-99717205D01*
X99998102Y-99795226D01*
X100198061Y-99835000D01*
X100401939Y-99835000D01*
X100601898Y-99795226D01*
X100790256Y-99717205D01*
X100959774Y-99603937D01*
X101103937Y-99459774D01*
X101217205Y-99290256D01*
X101295226Y-99101898D01*
X101335000Y-98901939D01*
X101335000Y-98698061D01*
X114765000Y-98698061D01*
X114765000Y-98901939D01*
X114804774Y-99101898D01*
X114882795Y-99290256D01*
X114996063Y-99459774D01*
X115140226Y-99603937D01*
X115309744Y-99717205D01*
X115498102Y-99795226D01*
X115698061Y-99835000D01*
X115901939Y-99835000D01*
X116101898Y-99795226D01*
X116290256Y-99717205D01*
X116459774Y-99603937D01*
X116603937Y-99459774D01*
X116717205Y-99290256D01*
X116788238Y-99118767D01*
X116804774Y-99201898D01*
X116882795Y-99390256D01*
X116996063Y-99559774D01*
X117140226Y-99703937D01*
X117309744Y-99817205D01*
X117498102Y-99895226D01*
X117698061Y-99935000D01*
X117901939Y-99935000D01*
X118101898Y-99895226D01*
X118290256Y-99817205D01*
X118459774Y-99703937D01*
X118603937Y-99559774D01*
X118717205Y-99390256D01*
X118795226Y-99201898D01*
X118835000Y-99001939D01*
X118835000Y-98798061D01*
X118795226Y-98598102D01*
X118717205Y-98409744D01*
X118603937Y-98240226D01*
X118459774Y-98096063D01*
X118290256Y-97982795D01*
X118101898Y-97904774D01*
X117901939Y-97865000D01*
X117698061Y-97865000D01*
X117498102Y-97904774D01*
X117309744Y-97982795D01*
X117140226Y-98096063D01*
X116996063Y-98240226D01*
X116882795Y-98409744D01*
X116811762Y-98581233D01*
X116795226Y-98498102D01*
X116717205Y-98309744D01*
X116603937Y-98140226D01*
X116459774Y-97996063D01*
X116290256Y-97882795D01*
X116101898Y-97804774D01*
X115901939Y-97765000D01*
X115698061Y-97765000D01*
X115498102Y-97804774D01*
X115309744Y-97882795D01*
X115140226Y-97996063D01*
X114996063Y-98140226D01*
X114882795Y-98309744D01*
X114804774Y-98498102D01*
X114765000Y-98698061D01*
X101335000Y-98698061D01*
X101295226Y-98498102D01*
X101217205Y-98309744D01*
X101103937Y-98140226D01*
X100959774Y-97996063D01*
X100790256Y-97882795D01*
X100601898Y-97804774D01*
X100401939Y-97765000D01*
X100198061Y-97765000D01*
X99998102Y-97804774D01*
X99809744Y-97882795D01*
X99640226Y-97996063D01*
X99496063Y-98140226D01*
X99382795Y-98309744D01*
X99304774Y-98498102D01*
X99265000Y-98698061D01*
X88035000Y-98698061D01*
X87995226Y-98498102D01*
X87917205Y-98309744D01*
X87803937Y-98140226D01*
X87659774Y-97996063D01*
X87490256Y-97882795D01*
X87301898Y-97804774D01*
X87101939Y-97765000D01*
X86898061Y-97765000D01*
X86698102Y-97804774D01*
X86509744Y-97882795D01*
X86340226Y-97996063D01*
X86200000Y-98136289D01*
X86159774Y-98096063D01*
X85990256Y-97982795D01*
X85801898Y-97904774D01*
X85601939Y-97865000D01*
X85398061Y-97865000D01*
X85198102Y-97904774D01*
X85009744Y-97982795D01*
X84850000Y-98089532D01*
X84690256Y-97982795D01*
X84501898Y-97904774D01*
X84301939Y-97865000D01*
X84098061Y-97865000D01*
X83898102Y-97904774D01*
X83709744Y-97982795D01*
X83540226Y-98096063D01*
X83396063Y-98240226D01*
X83282795Y-98409744D01*
X83204774Y-98598102D01*
X83165000Y-98798061D01*
X80685000Y-98798061D01*
X80685000Y-95798061D01*
X90265000Y-95798061D01*
X90265000Y-96001939D01*
X90304774Y-96201898D01*
X90382795Y-96390256D01*
X90496063Y-96559774D01*
X90640226Y-96703937D01*
X90809744Y-96817205D01*
X90998102Y-96895226D01*
X91198061Y-96935000D01*
X91401939Y-96935000D01*
X91601898Y-96895226D01*
X91790256Y-96817205D01*
X91959774Y-96703937D01*
X92065650Y-96598061D01*
X96965000Y-96598061D01*
X96965000Y-96801939D01*
X97004774Y-97001898D01*
X97082795Y-97190256D01*
X97196063Y-97359774D01*
X97340226Y-97503937D01*
X97509744Y-97617205D01*
X97698102Y-97695226D01*
X97898061Y-97735000D01*
X98101939Y-97735000D01*
X98301898Y-97695226D01*
X98490256Y-97617205D01*
X98659774Y-97503937D01*
X98803937Y-97359774D01*
X98917205Y-97190256D01*
X98995226Y-97001898D01*
X99035000Y-96801939D01*
X99035000Y-96598061D01*
X104765000Y-96598061D01*
X104765000Y-96801939D01*
X104804774Y-97001898D01*
X104882795Y-97190256D01*
X104996063Y-97359774D01*
X105140226Y-97503937D01*
X105309744Y-97617205D01*
X105498102Y-97695226D01*
X105698061Y-97735000D01*
X105901939Y-97735000D01*
X106101898Y-97695226D01*
X106290256Y-97617205D01*
X106459774Y-97503937D01*
X106603937Y-97359774D01*
X106717205Y-97190256D01*
X106795226Y-97001898D01*
X106835000Y-96801939D01*
X106835000Y-96598061D01*
X106795226Y-96398102D01*
X106717205Y-96209744D01*
X106603937Y-96040226D01*
X106459774Y-95896063D01*
X106290256Y-95782795D01*
X106101898Y-95704774D01*
X105901939Y-95665000D01*
X105698061Y-95665000D01*
X105498102Y-95704774D01*
X105309744Y-95782795D01*
X105140226Y-95896063D01*
X104996063Y-96040226D01*
X104882795Y-96209744D01*
X104804774Y-96398102D01*
X104765000Y-96598061D01*
X99035000Y-96598061D01*
X98995226Y-96398102D01*
X98917205Y-96209744D01*
X98803937Y-96040226D01*
X98659774Y-95896063D01*
X98490256Y-95782795D01*
X98301898Y-95704774D01*
X98101939Y-95665000D01*
X97898061Y-95665000D01*
X97698102Y-95704774D01*
X97509744Y-95782795D01*
X97340226Y-95896063D01*
X97196063Y-96040226D01*
X97082795Y-96209744D01*
X97004774Y-96398102D01*
X96965000Y-96598061D01*
X92065650Y-96598061D01*
X92103937Y-96559774D01*
X92217205Y-96390256D01*
X92295226Y-96201898D01*
X92335000Y-96001939D01*
X92335000Y-95798061D01*
X92295226Y-95598102D01*
X92217205Y-95409744D01*
X92103937Y-95240226D01*
X91959774Y-95096063D01*
X91790256Y-94982795D01*
X91601898Y-94904774D01*
X91401939Y-94865000D01*
X91198061Y-94865000D01*
X90998102Y-94904774D01*
X90809744Y-94982795D01*
X90640226Y-95096063D01*
X90496063Y-95240226D01*
X90382795Y-95409744D01*
X90304774Y-95598102D01*
X90265000Y-95798061D01*
X80685000Y-95798061D01*
X80685000Y-93998061D01*
X104765000Y-93998061D01*
X104765000Y-94201939D01*
X104804774Y-94401898D01*
X104882795Y-94590256D01*
X104996063Y-94759774D01*
X105140226Y-94903937D01*
X105309744Y-95017205D01*
X105498102Y-95095226D01*
X105698061Y-95135000D01*
X105901939Y-95135000D01*
X106101898Y-95095226D01*
X106290256Y-95017205D01*
X106459774Y-94903937D01*
X106465650Y-94898061D01*
X108765000Y-94898061D01*
X108765000Y-95101939D01*
X108804774Y-95301898D01*
X108882795Y-95490256D01*
X108996063Y-95659774D01*
X109140226Y-95803937D01*
X109309744Y-95917205D01*
X109498102Y-95995226D01*
X109698061Y-96035000D01*
X109901939Y-96035000D01*
X110101898Y-95995226D01*
X110290256Y-95917205D01*
X110459774Y-95803937D01*
X110603937Y-95659774D01*
X110717205Y-95490256D01*
X110795226Y-95301898D01*
X110835000Y-95101939D01*
X110835000Y-94898061D01*
X110795226Y-94698102D01*
X110717205Y-94509744D01*
X110603937Y-94340226D01*
X110459774Y-94196063D01*
X110290256Y-94082795D01*
X110101898Y-94004774D01*
X109901939Y-93965000D01*
X109698061Y-93965000D01*
X109498102Y-94004774D01*
X109309744Y-94082795D01*
X109140226Y-94196063D01*
X108996063Y-94340226D01*
X108882795Y-94509744D01*
X108804774Y-94698102D01*
X108765000Y-94898061D01*
X106465650Y-94898061D01*
X106603937Y-94759774D01*
X106717205Y-94590256D01*
X106795226Y-94401898D01*
X106835000Y-94201939D01*
X106835000Y-93998061D01*
X106795226Y-93798102D01*
X106717205Y-93609744D01*
X106603937Y-93440226D01*
X106459774Y-93296063D01*
X106290256Y-93182795D01*
X106101898Y-93104774D01*
X105901939Y-93065000D01*
X105698061Y-93065000D01*
X105498102Y-93104774D01*
X105309744Y-93182795D01*
X105140226Y-93296063D01*
X104996063Y-93440226D01*
X104882795Y-93609744D01*
X104804774Y-93798102D01*
X104765000Y-93998061D01*
X80685000Y-93998061D01*
X80685000Y-90598061D01*
X86465000Y-90598061D01*
X86465000Y-90801939D01*
X86504774Y-91001898D01*
X86582795Y-91190256D01*
X86696063Y-91359774D01*
X86736289Y-91400000D01*
X86696063Y-91440226D01*
X86582795Y-91609744D01*
X86504774Y-91798102D01*
X86465000Y-91998061D01*
X86465000Y-92201939D01*
X86504774Y-92401898D01*
X86582795Y-92590256D01*
X86696063Y-92759774D01*
X86840226Y-92903937D01*
X87009744Y-93017205D01*
X87198102Y-93095226D01*
X87398061Y-93135000D01*
X87601939Y-93135000D01*
X87801898Y-93095226D01*
X87990256Y-93017205D01*
X88159774Y-92903937D01*
X88303937Y-92759774D01*
X88345172Y-92698061D01*
X108665000Y-92698061D01*
X108665000Y-92901939D01*
X108704774Y-93101898D01*
X108782795Y-93290256D01*
X108896063Y-93459774D01*
X109040226Y-93603937D01*
X109209744Y-93717205D01*
X109398102Y-93795226D01*
X109598061Y-93835000D01*
X109801939Y-93835000D01*
X110001898Y-93795226D01*
X110190256Y-93717205D01*
X110359774Y-93603937D01*
X110503937Y-93459774D01*
X110617205Y-93290256D01*
X110695226Y-93101898D01*
X110735000Y-92901939D01*
X110735000Y-92698061D01*
X110695226Y-92498102D01*
X110617205Y-92309744D01*
X110503937Y-92140226D01*
X110359774Y-91996063D01*
X110190256Y-91882795D01*
X110001898Y-91804774D01*
X109801939Y-91765000D01*
X109598061Y-91765000D01*
X109398102Y-91804774D01*
X109209744Y-91882795D01*
X109040226Y-91996063D01*
X108896063Y-92140226D01*
X108782795Y-92309744D01*
X108704774Y-92498102D01*
X108665000Y-92698061D01*
X88345172Y-92698061D01*
X88417205Y-92590256D01*
X88495226Y-92401898D01*
X88535000Y-92201939D01*
X88535000Y-91998061D01*
X88495226Y-91798102D01*
X88417205Y-91609744D01*
X88342582Y-91498061D01*
X104765000Y-91498061D01*
X104765000Y-91701939D01*
X104804774Y-91901898D01*
X104882795Y-92090256D01*
X104996063Y-92259774D01*
X105140226Y-92403937D01*
X105309744Y-92517205D01*
X105498102Y-92595226D01*
X105698061Y-92635000D01*
X105901939Y-92635000D01*
X106101898Y-92595226D01*
X106290256Y-92517205D01*
X106459774Y-92403937D01*
X106603937Y-92259774D01*
X106717205Y-92090256D01*
X106795226Y-91901898D01*
X106835000Y-91701939D01*
X106835000Y-91498061D01*
X106795226Y-91298102D01*
X106717205Y-91109744D01*
X106603937Y-90940226D01*
X106459774Y-90796063D01*
X106290256Y-90682795D01*
X106101898Y-90604774D01*
X105901939Y-90565000D01*
X105698061Y-90565000D01*
X105498102Y-90604774D01*
X105309744Y-90682795D01*
X105140226Y-90796063D01*
X104996063Y-90940226D01*
X104882795Y-91109744D01*
X104804774Y-91298102D01*
X104765000Y-91498061D01*
X88342582Y-91498061D01*
X88303937Y-91440226D01*
X88263711Y-91400000D01*
X88303937Y-91359774D01*
X88417205Y-91190256D01*
X88495226Y-91001898D01*
X88535000Y-90801939D01*
X88535000Y-90598061D01*
X88495226Y-90398102D01*
X88417205Y-90209744D01*
X88303937Y-90040226D01*
X88159774Y-89896063D01*
X87990256Y-89782795D01*
X87801898Y-89704774D01*
X87601939Y-89665000D01*
X87398061Y-89665000D01*
X87198102Y-89704774D01*
X87009744Y-89782795D01*
X86840226Y-89896063D01*
X86696063Y-90040226D01*
X86582795Y-90209744D01*
X86504774Y-90398102D01*
X86465000Y-90598061D01*
X80685000Y-90598061D01*
X80685000Y-86198061D01*
X81965000Y-86198061D01*
X81965000Y-86401939D01*
X82004774Y-86601898D01*
X82082795Y-86790256D01*
X82196063Y-86959774D01*
X82340226Y-87103937D01*
X82509744Y-87217205D01*
X82698102Y-87295226D01*
X82898061Y-87335000D01*
X83101939Y-87335000D01*
X83301898Y-87295226D01*
X83490256Y-87217205D01*
X83659774Y-87103937D01*
X83803937Y-86959774D01*
X83917205Y-86790256D01*
X83995226Y-86601898D01*
X84035000Y-86401939D01*
X84035000Y-86198061D01*
X83995226Y-85998102D01*
X83917205Y-85809744D01*
X83803937Y-85640226D01*
X83659774Y-85496063D01*
X83490256Y-85382795D01*
X83301898Y-85304774D01*
X83101939Y-85265000D01*
X82898061Y-85265000D01*
X82698102Y-85304774D01*
X82509744Y-85382795D01*
X82340226Y-85496063D01*
X82196063Y-85640226D01*
X82082795Y-85809744D01*
X82004774Y-85998102D01*
X81965000Y-86198061D01*
X80685000Y-86198061D01*
X80685000Y-84929117D01*
X88565000Y-84929117D01*
X88565000Y-85270883D01*
X88631675Y-85606081D01*
X88762463Y-85921831D01*
X88952337Y-86205998D01*
X89194002Y-86447663D01*
X89478169Y-86637537D01*
X89793919Y-86768325D01*
X90129117Y-86835000D01*
X90470883Y-86835000D01*
X90806081Y-86768325D01*
X91121831Y-86637537D01*
X91405998Y-86447663D01*
X91455600Y-86398061D01*
X92965000Y-86398061D01*
X92965000Y-86601939D01*
X93004774Y-86801898D01*
X93082795Y-86990256D01*
X93196063Y-87159774D01*
X93340226Y-87303937D01*
X93509744Y-87417205D01*
X93698102Y-87495226D01*
X93898061Y-87535000D01*
X94101939Y-87535000D01*
X94301898Y-87495226D01*
X94490256Y-87417205D01*
X94659774Y-87303937D01*
X94803937Y-87159774D01*
X94917205Y-86990256D01*
X94995226Y-86801898D01*
X95035000Y-86601939D01*
X95035000Y-86398061D01*
X94995226Y-86198102D01*
X94917205Y-86009744D01*
X94803937Y-85840226D01*
X94761772Y-85798061D01*
X103065000Y-85798061D01*
X103065000Y-86001939D01*
X103104774Y-86201898D01*
X103182795Y-86390256D01*
X103296063Y-86559774D01*
X103440226Y-86703937D01*
X103609744Y-86817205D01*
X103798102Y-86895226D01*
X103998061Y-86935000D01*
X104201939Y-86935000D01*
X104401898Y-86895226D01*
X104590256Y-86817205D01*
X104759774Y-86703937D01*
X104903937Y-86559774D01*
X105017205Y-86390256D01*
X105088660Y-86217750D01*
X105201898Y-86195226D01*
X105390256Y-86117205D01*
X105550000Y-86010468D01*
X105709744Y-86117205D01*
X105898102Y-86195226D01*
X106098061Y-86235000D01*
X106301939Y-86235000D01*
X106501898Y-86195226D01*
X106690256Y-86117205D01*
X106859774Y-86003937D01*
X107003937Y-85859774D01*
X107117205Y-85690256D01*
X107195226Y-85501898D01*
X107235000Y-85301939D01*
X107235000Y-85098061D01*
X107201396Y-84929117D01*
X108565000Y-84929117D01*
X108565000Y-85270883D01*
X108631675Y-85606081D01*
X108762463Y-85921831D01*
X108952337Y-86205998D01*
X109194002Y-86447663D01*
X109478169Y-86637537D01*
X109793919Y-86768325D01*
X110129117Y-86835000D01*
X110470883Y-86835000D01*
X110806081Y-86768325D01*
X111121831Y-86637537D01*
X111405998Y-86447663D01*
X111647663Y-86205998D01*
X111837537Y-85921831D01*
X111968325Y-85606081D01*
X112035000Y-85270883D01*
X112035000Y-84929117D01*
X111968325Y-84593919D01*
X111837537Y-84278169D01*
X111647663Y-83994002D01*
X111405998Y-83752337D01*
X111121831Y-83562463D01*
X110806081Y-83431675D01*
X110470883Y-83365000D01*
X110129117Y-83365000D01*
X109793919Y-83431675D01*
X109478169Y-83562463D01*
X109194002Y-83752337D01*
X108952337Y-83994002D01*
X108762463Y-84278169D01*
X108631675Y-84593919D01*
X108565000Y-84929117D01*
X107201396Y-84929117D01*
X107195226Y-84898102D01*
X107117205Y-84709744D01*
X107072834Y-84643338D01*
X107198102Y-84695226D01*
X107398061Y-84735000D01*
X107601939Y-84735000D01*
X107801898Y-84695226D01*
X107990256Y-84617205D01*
X108159774Y-84503937D01*
X108303937Y-84359774D01*
X108417205Y-84190256D01*
X108495226Y-84001898D01*
X108533634Y-83808804D01*
X108601898Y-83795226D01*
X108790256Y-83717205D01*
X108959774Y-83603937D01*
X109103937Y-83459774D01*
X109217205Y-83290256D01*
X109295226Y-83101898D01*
X109335000Y-82901939D01*
X109335000Y-82898061D01*
X112865000Y-82898061D01*
X112865000Y-83101939D01*
X112904774Y-83301898D01*
X112982795Y-83490256D01*
X113096063Y-83659774D01*
X113240226Y-83803937D01*
X113409744Y-83917205D01*
X113598102Y-83995226D01*
X113798061Y-84035000D01*
X114001939Y-84035000D01*
X114201898Y-83995226D01*
X114390256Y-83917205D01*
X114559774Y-83803937D01*
X114703937Y-83659774D01*
X114817205Y-83490256D01*
X114895226Y-83301898D01*
X114935000Y-83101939D01*
X114935000Y-82898061D01*
X114895226Y-82698102D01*
X114817205Y-82509744D01*
X114703937Y-82340226D01*
X114559774Y-82196063D01*
X114390256Y-82082795D01*
X114201898Y-82004774D01*
X114001939Y-81965000D01*
X113798061Y-81965000D01*
X113598102Y-82004774D01*
X113409744Y-82082795D01*
X113240226Y-82196063D01*
X113096063Y-82340226D01*
X112982795Y-82509744D01*
X112904774Y-82698102D01*
X112865000Y-82898061D01*
X109335000Y-82898061D01*
X109335000Y-82698061D01*
X109295226Y-82498102D01*
X109217205Y-82309744D01*
X109103937Y-82140226D01*
X108959774Y-81996063D01*
X108790256Y-81882795D01*
X108601898Y-81804774D01*
X108401939Y-81765000D01*
X108198061Y-81765000D01*
X107998102Y-81804774D01*
X107809744Y-81882795D01*
X107640226Y-81996063D01*
X107496063Y-82140226D01*
X107382795Y-82309744D01*
X107304774Y-82498102D01*
X107266366Y-82691196D01*
X107198102Y-82704774D01*
X107009744Y-82782795D01*
X106840226Y-82896063D01*
X106696063Y-83040226D01*
X106582795Y-83209744D01*
X106504774Y-83398102D01*
X106465000Y-83598061D01*
X106465000Y-83801939D01*
X106504774Y-84001898D01*
X106582795Y-84190256D01*
X106627166Y-84256662D01*
X106501898Y-84204774D01*
X106301939Y-84165000D01*
X106098061Y-84165000D01*
X105898102Y-84204774D01*
X105709744Y-84282795D01*
X105550000Y-84389532D01*
X105390256Y-84282795D01*
X105201898Y-84204774D01*
X105001939Y-84165000D01*
X104798061Y-84165000D01*
X104598102Y-84204774D01*
X104409744Y-84282795D01*
X104240226Y-84396063D01*
X104096063Y-84540226D01*
X103982795Y-84709744D01*
X103911340Y-84882250D01*
X103798102Y-84904774D01*
X103609744Y-84982795D01*
X103440226Y-85096063D01*
X103296063Y-85240226D01*
X103182795Y-85409744D01*
X103104774Y-85598102D01*
X103065000Y-85798061D01*
X94761772Y-85798061D01*
X94659774Y-85696063D01*
X94490256Y-85582795D01*
X94301898Y-85504774D01*
X94101939Y-85465000D01*
X93898061Y-85465000D01*
X93698102Y-85504774D01*
X93509744Y-85582795D01*
X93340226Y-85696063D01*
X93196063Y-85840226D01*
X93082795Y-86009744D01*
X93004774Y-86198102D01*
X92965000Y-86398061D01*
X91455600Y-86398061D01*
X91647663Y-86205998D01*
X91837537Y-85921831D01*
X91968325Y-85606081D01*
X92035000Y-85270883D01*
X92035000Y-84929117D01*
X91968325Y-84593919D01*
X91837537Y-84278169D01*
X91647663Y-83994002D01*
X91405998Y-83752337D01*
X91121831Y-83562463D01*
X90806081Y-83431675D01*
X90470883Y-83365000D01*
X90129117Y-83365000D01*
X89793919Y-83431675D01*
X89478169Y-83562463D01*
X89194002Y-83752337D01*
X88952337Y-83994002D01*
X88762463Y-84278169D01*
X88631675Y-84593919D01*
X88565000Y-84929117D01*
X80685000Y-84929117D01*
X80685000Y-82198061D01*
X85465000Y-82198061D01*
X85465000Y-82401939D01*
X85504774Y-82601898D01*
X85582795Y-82790256D01*
X85696063Y-82959774D01*
X85840226Y-83103937D01*
X86009744Y-83217205D01*
X86198102Y-83295226D01*
X86398061Y-83335000D01*
X86601939Y-83335000D01*
X86801898Y-83295226D01*
X86990256Y-83217205D01*
X87159774Y-83103937D01*
X87303937Y-82959774D01*
X87417205Y-82790256D01*
X87495226Y-82601898D01*
X87535000Y-82401939D01*
X87535000Y-82298061D01*
X100265000Y-82298061D01*
X100265000Y-82501939D01*
X100304774Y-82701898D01*
X100382795Y-82890256D01*
X100496063Y-83059774D01*
X100640226Y-83203937D01*
X100755397Y-83280892D01*
X100696063Y-83340226D01*
X100582795Y-83509744D01*
X100504774Y-83698102D01*
X100465000Y-83898061D01*
X100465000Y-84101939D01*
X100504774Y-84301898D01*
X100582795Y-84490256D01*
X100696063Y-84659774D01*
X100840226Y-84803937D01*
X101009744Y-84917205D01*
X101198102Y-84995226D01*
X101398061Y-85035000D01*
X101601939Y-85035000D01*
X101801898Y-84995226D01*
X101990256Y-84917205D01*
X102159774Y-84803937D01*
X102303937Y-84659774D01*
X102417205Y-84490256D01*
X102495226Y-84301898D01*
X102535000Y-84101939D01*
X102535000Y-83898061D01*
X102495226Y-83698102D01*
X102417205Y-83509744D01*
X102303937Y-83340226D01*
X102159774Y-83196063D01*
X102044603Y-83119108D01*
X102103937Y-83059774D01*
X102217205Y-82890256D01*
X102295226Y-82701898D01*
X102335000Y-82501939D01*
X102335000Y-82298061D01*
X102295226Y-82098102D01*
X102217205Y-81909744D01*
X102103937Y-81740226D01*
X101959774Y-81596063D01*
X101790256Y-81482795D01*
X101601898Y-81404774D01*
X101401939Y-81365000D01*
X101198061Y-81365000D01*
X100998102Y-81404774D01*
X100809744Y-81482795D01*
X100640226Y-81596063D01*
X100496063Y-81740226D01*
X100382795Y-81909744D01*
X100304774Y-82098102D01*
X100265000Y-82298061D01*
X87535000Y-82298061D01*
X87535000Y-82198061D01*
X87495226Y-81998102D01*
X87417205Y-81809744D01*
X87303937Y-81640226D01*
X87159774Y-81496063D01*
X86990256Y-81382795D01*
X86801898Y-81304774D01*
X86601939Y-81265000D01*
X86398061Y-81265000D01*
X86198102Y-81304774D01*
X86009744Y-81382795D01*
X85840226Y-81496063D01*
X85696063Y-81640226D01*
X85582795Y-81809744D01*
X85504774Y-81998102D01*
X85465000Y-82198061D01*
X80685000Y-82198061D01*
X80685000Y-79998061D01*
X86265000Y-79998061D01*
X86265000Y-80201939D01*
X86304774Y-80401898D01*
X86382795Y-80590256D01*
X86496063Y-80759774D01*
X86640226Y-80903937D01*
X86809744Y-81017205D01*
X86998102Y-81095226D01*
X87198061Y-81135000D01*
X87401939Y-81135000D01*
X87601898Y-81095226D01*
X87790256Y-81017205D01*
X87959774Y-80903937D01*
X88103937Y-80759774D01*
X88217205Y-80590256D01*
X88295226Y-80401898D01*
X88335000Y-80201939D01*
X88335000Y-79998061D01*
X88295226Y-79798102D01*
X88256991Y-79705796D01*
X88259774Y-79703937D01*
X88403937Y-79559774D01*
X88517205Y-79390256D01*
X88595226Y-79201898D01*
X88635000Y-79001939D01*
X88635000Y-78798061D01*
X88595226Y-78598102D01*
X88517205Y-78409744D01*
X88403937Y-78240226D01*
X88259774Y-78096063D01*
X88090256Y-77982795D01*
X87901898Y-77904774D01*
X87701939Y-77865000D01*
X87498061Y-77865000D01*
X87298102Y-77904774D01*
X87109744Y-77982795D01*
X86940226Y-78096063D01*
X86796063Y-78240226D01*
X86682795Y-78409744D01*
X86604774Y-78598102D01*
X86565000Y-78798061D01*
X86565000Y-79001939D01*
X86604774Y-79201898D01*
X86643009Y-79294204D01*
X86640226Y-79296063D01*
X86496063Y-79440226D01*
X86382795Y-79609744D01*
X86304774Y-79798102D01*
X86265000Y-79998061D01*
X80685000Y-79998061D01*
X80685000Y-77698061D01*
X95565000Y-77698061D01*
X95565000Y-77901939D01*
X95604774Y-78101898D01*
X95682795Y-78290256D01*
X95796063Y-78459774D01*
X95940226Y-78603937D01*
X96109744Y-78717205D01*
X96298102Y-78795226D01*
X96498061Y-78835000D01*
X96701939Y-78835000D01*
X96901898Y-78795226D01*
X97090256Y-78717205D01*
X97259774Y-78603937D01*
X97403937Y-78459774D01*
X97517205Y-78290256D01*
X97595226Y-78101898D01*
X97635000Y-77901939D01*
X97635000Y-77798061D01*
X101465000Y-77798061D01*
X101465000Y-78001939D01*
X101504774Y-78201898D01*
X101582795Y-78390256D01*
X101696063Y-78559774D01*
X101840226Y-78703937D01*
X102009744Y-78817205D01*
X102198102Y-78895226D01*
X102398061Y-78935000D01*
X102601939Y-78935000D01*
X102801898Y-78895226D01*
X102990256Y-78817205D01*
X103100000Y-78743877D01*
X103209744Y-78817205D01*
X103398102Y-78895226D01*
X103598061Y-78935000D01*
X103801939Y-78935000D01*
X104001898Y-78895226D01*
X104190256Y-78817205D01*
X104218907Y-78798061D01*
X105865000Y-78798061D01*
X105865000Y-79001939D01*
X105904774Y-79201898D01*
X105982795Y-79390256D01*
X106096063Y-79559774D01*
X106240226Y-79703937D01*
X106409744Y-79817205D01*
X106598102Y-79895226D01*
X106798061Y-79935000D01*
X107001939Y-79935000D01*
X107201898Y-79895226D01*
X107390256Y-79817205D01*
X107559774Y-79703937D01*
X107703937Y-79559774D01*
X107817205Y-79390256D01*
X107895226Y-79201898D01*
X107935000Y-79001939D01*
X107935000Y-78798061D01*
X107895226Y-78598102D01*
X107817205Y-78409744D01*
X107703937Y-78240226D01*
X107559774Y-78096063D01*
X107390256Y-77982795D01*
X107201898Y-77904774D01*
X107001939Y-77865000D01*
X106798061Y-77865000D01*
X106598102Y-77904774D01*
X106409744Y-77982795D01*
X106240226Y-78096063D01*
X106096063Y-78240226D01*
X105982795Y-78409744D01*
X105904774Y-78598102D01*
X105865000Y-78798061D01*
X104218907Y-78798061D01*
X104359774Y-78703937D01*
X104503937Y-78559774D01*
X104617205Y-78390256D01*
X104695226Y-78201898D01*
X104735000Y-78001939D01*
X104735000Y-77798061D01*
X104695226Y-77598102D01*
X104617205Y-77409744D01*
X104503937Y-77240226D01*
X104359774Y-77096063D01*
X104190256Y-76982795D01*
X104001898Y-76904774D01*
X103801939Y-76865000D01*
X103598061Y-76865000D01*
X103398102Y-76904774D01*
X103209744Y-76982795D01*
X103100000Y-77056123D01*
X102990256Y-76982795D01*
X102801898Y-76904774D01*
X102601939Y-76865000D01*
X102398061Y-76865000D01*
X102198102Y-76904774D01*
X102009744Y-76982795D01*
X101840226Y-77096063D01*
X101696063Y-77240226D01*
X101582795Y-77409744D01*
X101504774Y-77598102D01*
X101465000Y-77798061D01*
X97635000Y-77798061D01*
X97635000Y-77698061D01*
X97595226Y-77498102D01*
X97517205Y-77309744D01*
X97403937Y-77140226D01*
X97259774Y-76996063D01*
X97090256Y-76882795D01*
X96901898Y-76804774D01*
X96701939Y-76765000D01*
X96498061Y-76765000D01*
X96298102Y-76804774D01*
X96109744Y-76882795D01*
X95940226Y-76996063D01*
X95796063Y-77140226D01*
X95682795Y-77309744D01*
X95604774Y-77498102D01*
X95565000Y-77698061D01*
X80685000Y-77698061D01*
X80685000Y-77030506D01*
X80755875Y-76236363D01*
X80889957Y-75746242D01*
X81019369Y-76058669D01*
X81263962Y-76424729D01*
X81575271Y-76736038D01*
X81941331Y-76980631D01*
X82348075Y-77149110D01*
X82779872Y-77235000D01*
X83220128Y-77235000D01*
X83651925Y-77149110D01*
X84058669Y-76980631D01*
X84424729Y-76736038D01*
X84736038Y-76424729D01*
X84980631Y-76058669D01*
X85149110Y-75651925D01*
X85235000Y-75220128D01*
X85235000Y-74929117D01*
X88565000Y-74929117D01*
X88565000Y-75270883D01*
X88631675Y-75606081D01*
X88762463Y-75921831D01*
X88952337Y-76205998D01*
X89194002Y-76447663D01*
X89478169Y-76637537D01*
X89793919Y-76768325D01*
X90129117Y-76835000D01*
X90470883Y-76835000D01*
X90806081Y-76768325D01*
X91121831Y-76637537D01*
X91405998Y-76447663D01*
X91647663Y-76205998D01*
X91837537Y-75921831D01*
X91968325Y-75606081D01*
X92035000Y-75270883D01*
X92035000Y-74929117D01*
X108565000Y-74929117D01*
X108565000Y-75270883D01*
X108631675Y-75606081D01*
X108762463Y-75921831D01*
X108952337Y-76205998D01*
X109194002Y-76447663D01*
X109478169Y-76637537D01*
X109793919Y-76768325D01*
X110129117Y-76835000D01*
X110470883Y-76835000D01*
X110806081Y-76768325D01*
X111121831Y-76637537D01*
X111405998Y-76447663D01*
X111647663Y-76205998D01*
X111837537Y-75921831D01*
X111968325Y-75606081D01*
X112035000Y-75270883D01*
X112035000Y-74929117D01*
X111968325Y-74593919D01*
X111837537Y-74278169D01*
X111647663Y-73994002D01*
X111405998Y-73752337D01*
X111121831Y-73562463D01*
X110806081Y-73431675D01*
X110470883Y-73365000D01*
X110129117Y-73365000D01*
X109793919Y-73431675D01*
X109478169Y-73562463D01*
X109194002Y-73752337D01*
X108952337Y-73994002D01*
X108762463Y-74278169D01*
X108631675Y-74593919D01*
X108565000Y-74929117D01*
X92035000Y-74929117D01*
X91968325Y-74593919D01*
X91837537Y-74278169D01*
X91647663Y-73994002D01*
X91405998Y-73752337D01*
X91121831Y-73562463D01*
X90806081Y-73431675D01*
X90470883Y-73365000D01*
X90129117Y-73365000D01*
X89793919Y-73431675D01*
X89478169Y-73562463D01*
X89194002Y-73752337D01*
X88952337Y-73994002D01*
X88762463Y-74278169D01*
X88631675Y-74593919D01*
X88565000Y-74929117D01*
X85235000Y-74929117D01*
X85235000Y-74779872D01*
X85149110Y-74348075D01*
X84980631Y-73941331D01*
X84736038Y-73575271D01*
X84424729Y-73263962D01*
X84058669Y-73019369D01*
X83736748Y-72886025D01*
X84375320Y-72732717D01*
X85025112Y-72685000D01*
X114969494Y-72685000D01*
X115763637Y-72755875D01*
G37*
X115763637Y-72755875D02*
X116253758Y-72889957D01*
X115941331Y-73019369D01*
X115575271Y-73263962D01*
X115263962Y-73575271D01*
X115019369Y-73941331D01*
X114850890Y-74348075D01*
X114765000Y-74779872D01*
X114765000Y-75220128D01*
X114850890Y-75651925D01*
X115019369Y-76058669D01*
X115263962Y-76424729D01*
X115575271Y-76736038D01*
X115941331Y-76980631D01*
X116348075Y-77149110D01*
X116779872Y-77235000D01*
X117220128Y-77235000D01*
X117651925Y-77149110D01*
X118058669Y-76980631D01*
X118424729Y-76736038D01*
X118736038Y-76424729D01*
X118980631Y-76058669D01*
X119113975Y-75736748D01*
X119267283Y-76375320D01*
X119315001Y-77025125D01*
X119315000Y-116969495D01*
X119244125Y-117763637D01*
X119110043Y-118253758D01*
X118980631Y-117941331D01*
X118736038Y-117575271D01*
X118424729Y-117263962D01*
X118058669Y-117019369D01*
X117651925Y-116850890D01*
X117220128Y-116765000D01*
X116779872Y-116765000D01*
X116348075Y-116850890D01*
X115941331Y-117019369D01*
X115575271Y-117263962D01*
X115263962Y-117575271D01*
X115019369Y-117941331D01*
X114850890Y-118348075D01*
X114765000Y-118779872D01*
X114765000Y-119220128D01*
X114850890Y-119651925D01*
X115019369Y-120058669D01*
X115263962Y-120424729D01*
X115575271Y-120736038D01*
X115941331Y-120980631D01*
X116263252Y-121113975D01*
X115624681Y-121267282D01*
X114974888Y-121315000D01*
X85030505Y-121315000D01*
X84236363Y-121244125D01*
X83746242Y-121110043D01*
X84058669Y-120980631D01*
X84424729Y-120736038D01*
X84736038Y-120424729D01*
X84980631Y-120058669D01*
X85149110Y-119651925D01*
X85235000Y-119220128D01*
X85235000Y-118779872D01*
X85149110Y-118348075D01*
X84980631Y-117941331D01*
X84736038Y-117575271D01*
X84424729Y-117263962D01*
X84058669Y-117019369D01*
X83651925Y-116850890D01*
X83220128Y-116765000D01*
X82779872Y-116765000D01*
X82348075Y-116850890D01*
X81941331Y-117019369D01*
X81575271Y-117263962D01*
X81263962Y-117575271D01*
X81019369Y-117941331D01*
X80886025Y-118263252D01*
X80732718Y-117624681D01*
X80685000Y-116974888D01*
X80685000Y-109998061D01*
X88965000Y-109998061D01*
X88965000Y-110201939D01*
X89004774Y-110401898D01*
X89082795Y-110590256D01*
X89196063Y-110759774D01*
X89340226Y-110903937D01*
X89509744Y-111017205D01*
X89698102Y-111095226D01*
X89898061Y-111135000D01*
X90101939Y-111135000D01*
X90301898Y-111095226D01*
X90490256Y-111017205D01*
X90659774Y-110903937D01*
X90765650Y-110798061D01*
X105165000Y-110798061D01*
X105165000Y-111001939D01*
X105204774Y-111201898D01*
X105282795Y-111390256D01*
X105396063Y-111559774D01*
X105540226Y-111703937D01*
X105709744Y-111817205D01*
X105898102Y-111895226D01*
X106098061Y-111935000D01*
X106301939Y-111935000D01*
X106501898Y-111895226D01*
X106690256Y-111817205D01*
X106850000Y-111710468D01*
X107009744Y-111817205D01*
X107198102Y-111895226D01*
X107398061Y-111935000D01*
X107601939Y-111935000D01*
X107801898Y-111895226D01*
X107990256Y-111817205D01*
X108159774Y-111703937D01*
X108303937Y-111559774D01*
X108417205Y-111390256D01*
X108455393Y-111298061D01*
X111965000Y-111298061D01*
X111965000Y-111501939D01*
X112004774Y-111701898D01*
X112082795Y-111890256D01*
X112196063Y-112059774D01*
X112340226Y-112203937D01*
X112509744Y-112317205D01*
X112698102Y-112395226D01*
X112898061Y-112435000D01*
X113101939Y-112435000D01*
X113301898Y-112395226D01*
X113490256Y-112317205D01*
X113659774Y-112203937D01*
X113803937Y-112059774D01*
X113917205Y-111890256D01*
X113995226Y-111701898D01*
X114035000Y-111501939D01*
X114035000Y-111298061D01*
X113995226Y-111098102D01*
X113917205Y-110909744D01*
X113803937Y-110740226D01*
X113659774Y-110596063D01*
X113490256Y-110482795D01*
X113301898Y-110404774D01*
X113101939Y-110365000D01*
X112898061Y-110365000D01*
X112698102Y-110404774D01*
X112509744Y-110482795D01*
X112340226Y-110596063D01*
X112196063Y-110740226D01*
X112082795Y-110909744D01*
X112004774Y-111098102D01*
X111965000Y-111298061D01*
X108455393Y-111298061D01*
X108495226Y-111201898D01*
X108535000Y-111001939D01*
X108535000Y-110798061D01*
X108495226Y-110598102D01*
X108417205Y-110409744D01*
X108303937Y-110240226D01*
X108159774Y-110096063D01*
X107990256Y-109982795D01*
X107801898Y-109904774D01*
X107601939Y-109865000D01*
X107398061Y-109865000D01*
X107198102Y-109904774D01*
X107009744Y-109982795D01*
X106850000Y-110089532D01*
X106690256Y-109982795D01*
X106501898Y-109904774D01*
X106301939Y-109865000D01*
X106098061Y-109865000D01*
X105898102Y-109904774D01*
X105709744Y-109982795D01*
X105540226Y-110096063D01*
X105396063Y-110240226D01*
X105282795Y-110409744D01*
X105204774Y-110598102D01*
X105165000Y-110798061D01*
X90765650Y-110798061D01*
X90803937Y-110759774D01*
X90917205Y-110590256D01*
X90995226Y-110401898D01*
X91008533Y-110335000D01*
X91101939Y-110335000D01*
X91301898Y-110295226D01*
X91490256Y-110217205D01*
X91659774Y-110103937D01*
X91803937Y-109959774D01*
X91917205Y-109790256D01*
X91995226Y-109601898D01*
X92035000Y-109401939D01*
X92035000Y-109198061D01*
X91995226Y-108998102D01*
X91917205Y-108809744D01*
X91803937Y-108640226D01*
X91659774Y-108496063D01*
X91490256Y-108382795D01*
X91301898Y-108304774D01*
X91101939Y-108265000D01*
X90898061Y-108265000D01*
X90698102Y-108304774D01*
X90509744Y-108382795D01*
X90340226Y-108496063D01*
X90196063Y-108640226D01*
X90082795Y-108809744D01*
X90004774Y-108998102D01*
X89991467Y-109065000D01*
X89898061Y-109065000D01*
X89698102Y-109104774D01*
X89509744Y-109182795D01*
X89340226Y-109296063D01*
X89196063Y-109440226D01*
X89082795Y-109609744D01*
X89004774Y-109798102D01*
X88965000Y-109998061D01*
X80685000Y-109998061D01*
X80685000Y-108310561D01*
X85677500Y-108310561D01*
X85677500Y-108514439D01*
X85717274Y-108714398D01*
X85795295Y-108902756D01*
X85908563Y-109072274D01*
X86052726Y-109216437D01*
X86222244Y-109329705D01*
X86410602Y-109407726D01*
X86610561Y-109447500D01*
X86814439Y-109447500D01*
X87014398Y-109407726D01*
X87202756Y-109329705D01*
X87372274Y-109216437D01*
X87516437Y-109072274D01*
X87629705Y-108902756D01*
X87707726Y-108714398D01*
X87747500Y-108514439D01*
X87747500Y-108310561D01*
X87707726Y-108110602D01*
X87629705Y-107922244D01*
X87516437Y-107752726D01*
X87372274Y-107608563D01*
X87202756Y-107495295D01*
X87014398Y-107417274D01*
X86814439Y-107377500D01*
X86610561Y-107377500D01*
X86410602Y-107417274D01*
X86222244Y-107495295D01*
X86052726Y-107608563D01*
X85908563Y-107752726D01*
X85795295Y-107922244D01*
X85717274Y-108110602D01*
X85677500Y-108310561D01*
X80685000Y-108310561D01*
X80685000Y-107098061D01*
X83765000Y-107098061D01*
X83765000Y-107301939D01*
X83804774Y-107501898D01*
X83882795Y-107690256D01*
X83996063Y-107859774D01*
X84140226Y-108003937D01*
X84309744Y-108117205D01*
X84498102Y-108195226D01*
X84698061Y-108235000D01*
X84901939Y-108235000D01*
X85101898Y-108195226D01*
X85290256Y-108117205D01*
X85459774Y-108003937D01*
X85603937Y-107859774D01*
X85717205Y-107690256D01*
X85795226Y-107501898D01*
X85835000Y-107301939D01*
X85835000Y-107098061D01*
X85795226Y-106898102D01*
X85789612Y-106884547D01*
X88715280Y-106884547D01*
X88789713Y-107071189D01*
X88899128Y-107239723D01*
X89039320Y-107383673D01*
X89204902Y-107497507D01*
X89389510Y-107576850D01*
X89415454Y-107584713D01*
X89573000Y-107456890D01*
X89573000Y-106727000D01*
X88841641Y-106727000D01*
X88715280Y-106884547D01*
X85789612Y-106884547D01*
X85717205Y-106709744D01*
X85603937Y-106540226D01*
X85459774Y-106396063D01*
X85290256Y-106282795D01*
X85101898Y-106204774D01*
X84901939Y-106165000D01*
X84698061Y-106165000D01*
X84498102Y-106204774D01*
X84309744Y-106282795D01*
X84140226Y-106396063D01*
X83996063Y-106540226D01*
X83882795Y-106709744D01*
X83804774Y-106898102D01*
X83765000Y-107098061D01*
X80685000Y-107098061D01*
X80685000Y-103398061D01*
X83965000Y-103398061D01*
X83965000Y-103601939D01*
X84004774Y-103801898D01*
X84082795Y-103990256D01*
X84196063Y-104159774D01*
X84213449Y-104177160D01*
X84204774Y-104198102D01*
X84165000Y-104398061D01*
X84165000Y-104601939D01*
X84204774Y-104801898D01*
X84282795Y-104990256D01*
X84396063Y-105159774D01*
X84540226Y-105303937D01*
X84709744Y-105417205D01*
X84898102Y-105495226D01*
X85098061Y-105535000D01*
X85301939Y-105535000D01*
X85501898Y-105495226D01*
X85690256Y-105417205D01*
X85859774Y-105303937D01*
X86003937Y-105159774D01*
X86117205Y-104990256D01*
X86181282Y-104835561D01*
X87902500Y-104835561D01*
X87902500Y-105039439D01*
X87942274Y-105239398D01*
X88020295Y-105427756D01*
X88133563Y-105597274D01*
X88277726Y-105741437D01*
X88447244Y-105854705D01*
X88635602Y-105932726D01*
X88835561Y-105972500D01*
X88891193Y-105972500D01*
X88789713Y-106128811D01*
X88715280Y-106315453D01*
X88841641Y-106473000D01*
X89573000Y-106473000D01*
X89573000Y-106453000D01*
X89671928Y-106453000D01*
X89671928Y-106990000D01*
X89684188Y-107114482D01*
X89720498Y-107234180D01*
X89779463Y-107344494D01*
X89827000Y-107402418D01*
X89827000Y-107456890D01*
X89984546Y-107584713D01*
X90010490Y-107576850D01*
X90038409Y-107564850D01*
X90065820Y-107579502D01*
X90185518Y-107615812D01*
X90310000Y-107628072D01*
X91090000Y-107628072D01*
X91214482Y-107615812D01*
X91334180Y-107579502D01*
X91444494Y-107520537D01*
X91541185Y-107441185D01*
X91620537Y-107344494D01*
X91679502Y-107234180D01*
X91715812Y-107114482D01*
X91728072Y-106990000D01*
X91728072Y-106210000D01*
X91715812Y-106085518D01*
X91679502Y-105965820D01*
X91620537Y-105855506D01*
X91541185Y-105758815D01*
X91444494Y-105679463D01*
X91334180Y-105620498D01*
X91214482Y-105584188D01*
X91090000Y-105571928D01*
X90310000Y-105571928D01*
X90185518Y-105584188D01*
X90065820Y-105620498D01*
X90038409Y-105635150D01*
X90010490Y-105623150D01*
X89984546Y-105615287D01*
X89827002Y-105743108D01*
X89827002Y-105575000D01*
X89756320Y-105575000D01*
X89854705Y-105427756D01*
X89932726Y-105239398D01*
X89972500Y-105039439D01*
X89972500Y-104998061D01*
X91365000Y-104998061D01*
X91365000Y-105201939D01*
X91404774Y-105401898D01*
X91482795Y-105590256D01*
X91596063Y-105759774D01*
X91740226Y-105903937D01*
X91909744Y-106017205D01*
X92098102Y-106095226D01*
X92298061Y-106135000D01*
X92501939Y-106135000D01*
X92701898Y-106095226D01*
X92890256Y-106017205D01*
X93059774Y-105903937D01*
X93203937Y-105759774D01*
X93317205Y-105590256D01*
X93395226Y-105401898D01*
X93435000Y-105201939D01*
X93435000Y-104998061D01*
X93395226Y-104798102D01*
X93317205Y-104609744D01*
X93203937Y-104440226D01*
X93059774Y-104296063D01*
X92890256Y-104182795D01*
X92701898Y-104104774D01*
X92501939Y-104065000D01*
X92298061Y-104065000D01*
X92098102Y-104104774D01*
X91909744Y-104182795D01*
X91740226Y-104296063D01*
X91596063Y-104440226D01*
X91482795Y-104609744D01*
X91404774Y-104798102D01*
X91365000Y-104998061D01*
X89972500Y-104998061D01*
X89972500Y-104835561D01*
X89932726Y-104635602D01*
X89854705Y-104447244D01*
X89741437Y-104277726D01*
X89597274Y-104133563D01*
X89427756Y-104020295D01*
X89239398Y-103942274D01*
X89039439Y-103902500D01*
X88835561Y-103902500D01*
X88635602Y-103942274D01*
X88447244Y-104020295D01*
X88277726Y-104133563D01*
X88133563Y-104277726D01*
X88020295Y-104447244D01*
X87942274Y-104635602D01*
X87902500Y-104835561D01*
X86181282Y-104835561D01*
X86195226Y-104801898D01*
X86235000Y-104601939D01*
X86235000Y-104398061D01*
X86195226Y-104198102D01*
X86117205Y-104009744D01*
X86003937Y-103840226D01*
X85986551Y-103822840D01*
X85995226Y-103801898D01*
X86035000Y-103601939D01*
X86035000Y-103398061D01*
X86015109Y-103298061D01*
X93865000Y-103298061D01*
X93865000Y-103501939D01*
X93904774Y-103701898D01*
X93982795Y-103890256D01*
X94096063Y-104059774D01*
X94240226Y-104203937D01*
X94409744Y-104317205D01*
X94598102Y-104395226D01*
X94798061Y-104435000D01*
X95001939Y-104435000D01*
X95201898Y-104395226D01*
X95390256Y-104317205D01*
X95559774Y-104203937D01*
X95703937Y-104059774D01*
X95817205Y-103890256D01*
X95895226Y-103701898D01*
X95935000Y-103501939D01*
X95935000Y-103298061D01*
X95895226Y-103098102D01*
X95817205Y-102909744D01*
X95703937Y-102740226D01*
X95559774Y-102596063D01*
X95413104Y-102498061D01*
X96165000Y-102498061D01*
X96165000Y-102701939D01*
X96204774Y-102901898D01*
X96282795Y-103090256D01*
X96396063Y-103259774D01*
X96540226Y-103403937D01*
X96709744Y-103517205D01*
X96898102Y-103595226D01*
X97098061Y-103635000D01*
X97301939Y-103635000D01*
X97501898Y-103595226D01*
X97690256Y-103517205D01*
X97859774Y-103403937D01*
X98003937Y-103259774D01*
X98117205Y-103090256D01*
X98195226Y-102901898D01*
X98235000Y-102701939D01*
X98235000Y-102498061D01*
X108765000Y-102498061D01*
X108765000Y-102701939D01*
X108804774Y-102901898D01*
X108882795Y-103090256D01*
X108989532Y-103250000D01*
X108882795Y-103409744D01*
X108804774Y-103598102D01*
X108765000Y-103798061D01*
X108765000Y-104001939D01*
X108804774Y-104201898D01*
X108882795Y-104390256D01*
X108989532Y-104550000D01*
X108882795Y-104709744D01*
X108804774Y-104898102D01*
X108765000Y-105098061D01*
X108765000Y-105301939D01*
X108804774Y-105501898D01*
X108882795Y-105690256D01*
X108989532Y-105850000D01*
X108882795Y-106009744D01*
X108804774Y-106198102D01*
X108765000Y-106398061D01*
X108765000Y-106601939D01*
X108804774Y-106801898D01*
X108882795Y-106990256D01*
X108956123Y-107100000D01*
X108882795Y-107209744D01*
X108804774Y-107398102D01*
X108765000Y-107598061D01*
X108765000Y-107801939D01*
X108804774Y-108001898D01*
X108882795Y-108190256D01*
X108989532Y-108350000D01*
X108882795Y-108509744D01*
X108804774Y-108698102D01*
X108765000Y-108898061D01*
X108765000Y-109101939D01*
X108804774Y-109301898D01*
X108882795Y-109490256D01*
X108996063Y-109659774D01*
X109140226Y-109803937D01*
X109309744Y-109917205D01*
X109498102Y-109995226D01*
X109698061Y-110035000D01*
X109901939Y-110035000D01*
X110101898Y-109995226D01*
X110290256Y-109917205D01*
X110459774Y-109803937D01*
X110603937Y-109659774D01*
X110717205Y-109490256D01*
X110795226Y-109301898D01*
X110803448Y-109260561D01*
X112827500Y-109260561D01*
X112827500Y-109464439D01*
X112867274Y-109664398D01*
X112945295Y-109852756D01*
X113058563Y-110022274D01*
X113202726Y-110166437D01*
X113372244Y-110279705D01*
X113560602Y-110357726D01*
X113760561Y-110397500D01*
X113964439Y-110397500D01*
X114164398Y-110357726D01*
X114352756Y-110279705D01*
X114522274Y-110166437D01*
X114666437Y-110022274D01*
X114779705Y-109852756D01*
X114857726Y-109664398D01*
X114897500Y-109464439D01*
X114897500Y-109260561D01*
X114857726Y-109060602D01*
X114779705Y-108872244D01*
X114666437Y-108702726D01*
X114522274Y-108558563D01*
X114352756Y-108445295D01*
X114164398Y-108367274D01*
X113964439Y-108327500D01*
X113760561Y-108327500D01*
X113560602Y-108367274D01*
X113372244Y-108445295D01*
X113202726Y-108558563D01*
X113058563Y-108702726D01*
X112945295Y-108872244D01*
X112867274Y-109060602D01*
X112827500Y-109260561D01*
X110803448Y-109260561D01*
X110835000Y-109101939D01*
X110835000Y-108898061D01*
X110795226Y-108698102D01*
X110717205Y-108509744D01*
X110610468Y-108350000D01*
X110717205Y-108190256D01*
X110795226Y-108001898D01*
X110835000Y-107801939D01*
X110835000Y-107598061D01*
X110795226Y-107398102D01*
X110717205Y-107209744D01*
X110643877Y-107100000D01*
X110717205Y-106990256D01*
X110795226Y-106801898D01*
X110835000Y-106601939D01*
X110835000Y-106398061D01*
X110795226Y-106198102D01*
X110717205Y-106009744D01*
X110610468Y-105850000D01*
X110717205Y-105690256D01*
X110795226Y-105501898D01*
X110835000Y-105301939D01*
X110835000Y-105098061D01*
X110795226Y-104898102D01*
X110717205Y-104709744D01*
X110610468Y-104550000D01*
X110717205Y-104390256D01*
X110795226Y-104201898D01*
X110835000Y-104001939D01*
X110835000Y-103798061D01*
X110795226Y-103598102D01*
X110717205Y-103409744D01*
X110610468Y-103250000D01*
X110717205Y-103090256D01*
X110795226Y-102901898D01*
X110835000Y-102701939D01*
X110835000Y-102498061D01*
X110795226Y-102298102D01*
X110717205Y-102109744D01*
X110603937Y-101940226D01*
X110459774Y-101796063D01*
X110290256Y-101682795D01*
X110101898Y-101604774D01*
X109901939Y-101565000D01*
X109698061Y-101565000D01*
X109498102Y-101604774D01*
X109309744Y-101682795D01*
X109140226Y-101796063D01*
X108996063Y-101940226D01*
X108882795Y-102109744D01*
X108804774Y-102298102D01*
X108765000Y-102498061D01*
X98235000Y-102498061D01*
X98195226Y-102298102D01*
X98117205Y-102109744D01*
X98003937Y-101940226D01*
X97859774Y-101796063D01*
X97690256Y-101682795D01*
X97501898Y-101604774D01*
X97301939Y-101565000D01*
X97098061Y-101565000D01*
X96898102Y-101604774D01*
X96709744Y-101682795D01*
X96540226Y-101796063D01*
X96396063Y-101940226D01*
X96282795Y-102109744D01*
X96204774Y-102298102D01*
X96165000Y-102498061D01*
X95413104Y-102498061D01*
X95390256Y-102482795D01*
X95201898Y-102404774D01*
X95001939Y-102365000D01*
X94798061Y-102365000D01*
X94598102Y-102404774D01*
X94409744Y-102482795D01*
X94240226Y-102596063D01*
X94096063Y-102740226D01*
X93982795Y-102909744D01*
X93904774Y-103098102D01*
X93865000Y-103298061D01*
X86015109Y-103298061D01*
X85995226Y-103198102D01*
X85917205Y-103009744D01*
X85803937Y-102840226D01*
X85659774Y-102696063D01*
X85490256Y-102582795D01*
X85301898Y-102504774D01*
X85101939Y-102465000D01*
X84898061Y-102465000D01*
X84698102Y-102504774D01*
X84509744Y-102582795D01*
X84340226Y-102696063D01*
X84196063Y-102840226D01*
X84082795Y-103009744D01*
X84004774Y-103198102D01*
X83965000Y-103398061D01*
X80685000Y-103398061D01*
X80685000Y-101798061D01*
X91365000Y-101798061D01*
X91365000Y-102001939D01*
X91404774Y-102201898D01*
X91482795Y-102390256D01*
X91596063Y-102559774D01*
X91740226Y-102703937D01*
X91909744Y-102817205D01*
X92098102Y-102895226D01*
X92298061Y-102935000D01*
X92501939Y-102935000D01*
X92701898Y-102895226D01*
X92890256Y-102817205D01*
X93059774Y-102703937D01*
X93203937Y-102559774D01*
X93317205Y-102390256D01*
X93395226Y-102201898D01*
X93435000Y-102001939D01*
X93435000Y-101798061D01*
X93395226Y-101598102D01*
X93317205Y-101409744D01*
X93203937Y-101240226D01*
X93059774Y-101096063D01*
X92890256Y-100982795D01*
X92701898Y-100904774D01*
X92501939Y-100865000D01*
X92298061Y-100865000D01*
X92098102Y-100904774D01*
X91909744Y-100982795D01*
X91740226Y-101096063D01*
X91596063Y-101240226D01*
X91482795Y-101409744D01*
X91404774Y-101598102D01*
X91365000Y-101798061D01*
X80685000Y-101798061D01*
X80685000Y-98798061D01*
X83165000Y-98798061D01*
X83165000Y-99001939D01*
X83204774Y-99201898D01*
X83282795Y-99390256D01*
X83396063Y-99559774D01*
X83540226Y-99703937D01*
X83709744Y-99817205D01*
X83898102Y-99895226D01*
X84098061Y-99935000D01*
X84301939Y-99935000D01*
X84501898Y-99895226D01*
X84690256Y-99817205D01*
X84850000Y-99710468D01*
X85009744Y-99817205D01*
X85198102Y-99895226D01*
X85398061Y-99935000D01*
X85601939Y-99935000D01*
X85801898Y-99895226D01*
X85990256Y-99817205D01*
X86159774Y-99703937D01*
X86300000Y-99563711D01*
X86340226Y-99603937D01*
X86509744Y-99717205D01*
X86698102Y-99795226D01*
X86898061Y-99835000D01*
X87101939Y-99835000D01*
X87301898Y-99795226D01*
X87490256Y-99717205D01*
X87659774Y-99603937D01*
X87803937Y-99459774D01*
X87917205Y-99290256D01*
X87995226Y-99101898D01*
X88035000Y-98901939D01*
X88035000Y-98698061D01*
X99265000Y-98698061D01*
X99265000Y-98901939D01*
X99304774Y-99101898D01*
X99382795Y-99290256D01*
X99496063Y-99459774D01*
X99640226Y-99603937D01*
X99809744Y-99717205D01*
X99998102Y-99795226D01*
X100198061Y-99835000D01*
X100401939Y-99835000D01*
X100601898Y-99795226D01*
X100790256Y-99717205D01*
X100959774Y-99603937D01*
X101103937Y-99459774D01*
X101217205Y-99290256D01*
X101295226Y-99101898D01*
X101335000Y-98901939D01*
X101335000Y-98698061D01*
X114765000Y-98698061D01*
X114765000Y-98901939D01*
X114804774Y-99101898D01*
X114882795Y-99290256D01*
X114996063Y-99459774D01*
X115140226Y-99603937D01*
X115309744Y-99717205D01*
X115498102Y-99795226D01*
X115698061Y-99835000D01*
X115901939Y-99835000D01*
X116101898Y-99795226D01*
X116290256Y-99717205D01*
X116459774Y-99603937D01*
X116603937Y-99459774D01*
X116717205Y-99290256D01*
X116788238Y-99118767D01*
X116804774Y-99201898D01*
X116882795Y-99390256D01*
X116996063Y-99559774D01*
X117140226Y-99703937D01*
X117309744Y-99817205D01*
X117498102Y-99895226D01*
X117698061Y-99935000D01*
X117901939Y-99935000D01*
X118101898Y-99895226D01*
X118290256Y-99817205D01*
X118459774Y-99703937D01*
X118603937Y-99559774D01*
X118717205Y-99390256D01*
X118795226Y-99201898D01*
X118835000Y-99001939D01*
X118835000Y-98798061D01*
X118795226Y-98598102D01*
X118717205Y-98409744D01*
X118603937Y-98240226D01*
X118459774Y-98096063D01*
X118290256Y-97982795D01*
X118101898Y-97904774D01*
X117901939Y-97865000D01*
X117698061Y-97865000D01*
X117498102Y-97904774D01*
X117309744Y-97982795D01*
X117140226Y-98096063D01*
X116996063Y-98240226D01*
X116882795Y-98409744D01*
X116811762Y-98581233D01*
X116795226Y-98498102D01*
X116717205Y-98309744D01*
X116603937Y-98140226D01*
X116459774Y-97996063D01*
X116290256Y-97882795D01*
X116101898Y-97804774D01*
X115901939Y-97765000D01*
X115698061Y-97765000D01*
X115498102Y-97804774D01*
X115309744Y-97882795D01*
X115140226Y-97996063D01*
X114996063Y-98140226D01*
X114882795Y-98309744D01*
X114804774Y-98498102D01*
X114765000Y-98698061D01*
X101335000Y-98698061D01*
X101295226Y-98498102D01*
X101217205Y-98309744D01*
X101103937Y-98140226D01*
X100959774Y-97996063D01*
X100790256Y-97882795D01*
X100601898Y-97804774D01*
X100401939Y-97765000D01*
X100198061Y-97765000D01*
X99998102Y-97804774D01*
X99809744Y-97882795D01*
X99640226Y-97996063D01*
X99496063Y-98140226D01*
X99382795Y-98309744D01*
X99304774Y-98498102D01*
X99265000Y-98698061D01*
X88035000Y-98698061D01*
X87995226Y-98498102D01*
X87917205Y-98309744D01*
X87803937Y-98140226D01*
X87659774Y-97996063D01*
X87490256Y-97882795D01*
X87301898Y-97804774D01*
X87101939Y-97765000D01*
X86898061Y-97765000D01*
X86698102Y-97804774D01*
X86509744Y-97882795D01*
X86340226Y-97996063D01*
X86200000Y-98136289D01*
X86159774Y-98096063D01*
X85990256Y-97982795D01*
X85801898Y-97904774D01*
X85601939Y-97865000D01*
X85398061Y-97865000D01*
X85198102Y-97904774D01*
X85009744Y-97982795D01*
X84850000Y-98089532D01*
X84690256Y-97982795D01*
X84501898Y-97904774D01*
X84301939Y-97865000D01*
X84098061Y-97865000D01*
X83898102Y-97904774D01*
X83709744Y-97982795D01*
X83540226Y-98096063D01*
X83396063Y-98240226D01*
X83282795Y-98409744D01*
X83204774Y-98598102D01*
X83165000Y-98798061D01*
X80685000Y-98798061D01*
X80685000Y-95798061D01*
X90265000Y-95798061D01*
X90265000Y-96001939D01*
X90304774Y-96201898D01*
X90382795Y-96390256D01*
X90496063Y-96559774D01*
X90640226Y-96703937D01*
X90809744Y-96817205D01*
X90998102Y-96895226D01*
X91198061Y-96935000D01*
X91401939Y-96935000D01*
X91601898Y-96895226D01*
X91790256Y-96817205D01*
X91959774Y-96703937D01*
X92065650Y-96598061D01*
X96965000Y-96598061D01*
X96965000Y-96801939D01*
X97004774Y-97001898D01*
X97082795Y-97190256D01*
X97196063Y-97359774D01*
X97340226Y-97503937D01*
X97509744Y-97617205D01*
X97698102Y-97695226D01*
X97898061Y-97735000D01*
X98101939Y-97735000D01*
X98301898Y-97695226D01*
X98490256Y-97617205D01*
X98659774Y-97503937D01*
X98803937Y-97359774D01*
X98917205Y-97190256D01*
X98995226Y-97001898D01*
X99035000Y-96801939D01*
X99035000Y-96598061D01*
X104765000Y-96598061D01*
X104765000Y-96801939D01*
X104804774Y-97001898D01*
X104882795Y-97190256D01*
X104996063Y-97359774D01*
X105140226Y-97503937D01*
X105309744Y-97617205D01*
X105498102Y-97695226D01*
X105698061Y-97735000D01*
X105901939Y-97735000D01*
X106101898Y-97695226D01*
X106290256Y-97617205D01*
X106459774Y-97503937D01*
X106603937Y-97359774D01*
X106717205Y-97190256D01*
X106795226Y-97001898D01*
X106835000Y-96801939D01*
X106835000Y-96598061D01*
X106795226Y-96398102D01*
X106717205Y-96209744D01*
X106603937Y-96040226D01*
X106459774Y-95896063D01*
X106290256Y-95782795D01*
X106101898Y-95704774D01*
X105901939Y-95665000D01*
X105698061Y-95665000D01*
X105498102Y-95704774D01*
X105309744Y-95782795D01*
X105140226Y-95896063D01*
X104996063Y-96040226D01*
X104882795Y-96209744D01*
X104804774Y-96398102D01*
X104765000Y-96598061D01*
X99035000Y-96598061D01*
X98995226Y-96398102D01*
X98917205Y-96209744D01*
X98803937Y-96040226D01*
X98659774Y-95896063D01*
X98490256Y-95782795D01*
X98301898Y-95704774D01*
X98101939Y-95665000D01*
X97898061Y-95665000D01*
X97698102Y-95704774D01*
X97509744Y-95782795D01*
X97340226Y-95896063D01*
X97196063Y-96040226D01*
X97082795Y-96209744D01*
X97004774Y-96398102D01*
X96965000Y-96598061D01*
X92065650Y-96598061D01*
X92103937Y-96559774D01*
X92217205Y-96390256D01*
X92295226Y-96201898D01*
X92335000Y-96001939D01*
X92335000Y-95798061D01*
X92295226Y-95598102D01*
X92217205Y-95409744D01*
X92103937Y-95240226D01*
X91959774Y-95096063D01*
X91790256Y-94982795D01*
X91601898Y-94904774D01*
X91401939Y-94865000D01*
X91198061Y-94865000D01*
X90998102Y-94904774D01*
X90809744Y-94982795D01*
X90640226Y-95096063D01*
X90496063Y-95240226D01*
X90382795Y-95409744D01*
X90304774Y-95598102D01*
X90265000Y-95798061D01*
X80685000Y-95798061D01*
X80685000Y-93998061D01*
X104765000Y-93998061D01*
X104765000Y-94201939D01*
X104804774Y-94401898D01*
X104882795Y-94590256D01*
X104996063Y-94759774D01*
X105140226Y-94903937D01*
X105309744Y-95017205D01*
X105498102Y-95095226D01*
X105698061Y-95135000D01*
X105901939Y-95135000D01*
X106101898Y-95095226D01*
X106290256Y-95017205D01*
X106459774Y-94903937D01*
X106465650Y-94898061D01*
X108765000Y-94898061D01*
X108765000Y-95101939D01*
X108804774Y-95301898D01*
X108882795Y-95490256D01*
X108996063Y-95659774D01*
X109140226Y-95803937D01*
X109309744Y-95917205D01*
X109498102Y-95995226D01*
X109698061Y-96035000D01*
X109901939Y-96035000D01*
X110101898Y-95995226D01*
X110290256Y-95917205D01*
X110459774Y-95803937D01*
X110603937Y-95659774D01*
X110717205Y-95490256D01*
X110795226Y-95301898D01*
X110835000Y-95101939D01*
X110835000Y-94898061D01*
X110795226Y-94698102D01*
X110717205Y-94509744D01*
X110603937Y-94340226D01*
X110459774Y-94196063D01*
X110290256Y-94082795D01*
X110101898Y-94004774D01*
X109901939Y-93965000D01*
X109698061Y-93965000D01*
X109498102Y-94004774D01*
X109309744Y-94082795D01*
X109140226Y-94196063D01*
X108996063Y-94340226D01*
X108882795Y-94509744D01*
X108804774Y-94698102D01*
X108765000Y-94898061D01*
X106465650Y-94898061D01*
X106603937Y-94759774D01*
X106717205Y-94590256D01*
X106795226Y-94401898D01*
X106835000Y-94201939D01*
X106835000Y-93998061D01*
X106795226Y-93798102D01*
X106717205Y-93609744D01*
X106603937Y-93440226D01*
X106459774Y-93296063D01*
X106290256Y-93182795D01*
X106101898Y-93104774D01*
X105901939Y-93065000D01*
X105698061Y-93065000D01*
X105498102Y-93104774D01*
X105309744Y-93182795D01*
X105140226Y-93296063D01*
X104996063Y-93440226D01*
X104882795Y-93609744D01*
X104804774Y-93798102D01*
X104765000Y-93998061D01*
X80685000Y-93998061D01*
X80685000Y-90598061D01*
X86465000Y-90598061D01*
X86465000Y-90801939D01*
X86504774Y-91001898D01*
X86582795Y-91190256D01*
X86696063Y-91359774D01*
X86736289Y-91400000D01*
X86696063Y-91440226D01*
X86582795Y-91609744D01*
X86504774Y-91798102D01*
X86465000Y-91998061D01*
X86465000Y-92201939D01*
X86504774Y-92401898D01*
X86582795Y-92590256D01*
X86696063Y-92759774D01*
X86840226Y-92903937D01*
X87009744Y-93017205D01*
X87198102Y-93095226D01*
X87398061Y-93135000D01*
X87601939Y-93135000D01*
X87801898Y-93095226D01*
X87990256Y-93017205D01*
X88159774Y-92903937D01*
X88303937Y-92759774D01*
X88345172Y-92698061D01*
X108665000Y-92698061D01*
X108665000Y-92901939D01*
X108704774Y-93101898D01*
X108782795Y-93290256D01*
X108896063Y-93459774D01*
X109040226Y-93603937D01*
X109209744Y-93717205D01*
X109398102Y-93795226D01*
X109598061Y-93835000D01*
X109801939Y-93835000D01*
X110001898Y-93795226D01*
X110190256Y-93717205D01*
X110359774Y-93603937D01*
X110503937Y-93459774D01*
X110617205Y-93290256D01*
X110695226Y-93101898D01*
X110735000Y-92901939D01*
X110735000Y-92698061D01*
X110695226Y-92498102D01*
X110617205Y-92309744D01*
X110503937Y-92140226D01*
X110359774Y-91996063D01*
X110190256Y-91882795D01*
X110001898Y-91804774D01*
X109801939Y-91765000D01*
X109598061Y-91765000D01*
X109398102Y-91804774D01*
X109209744Y-91882795D01*
X109040226Y-91996063D01*
X108896063Y-92140226D01*
X108782795Y-92309744D01*
X108704774Y-92498102D01*
X108665000Y-92698061D01*
X88345172Y-92698061D01*
X88417205Y-92590256D01*
X88495226Y-92401898D01*
X88535000Y-92201939D01*
X88535000Y-91998061D01*
X88495226Y-91798102D01*
X88417205Y-91609744D01*
X88342582Y-91498061D01*
X104765000Y-91498061D01*
X104765000Y-91701939D01*
X104804774Y-91901898D01*
X104882795Y-92090256D01*
X104996063Y-92259774D01*
X105140226Y-92403937D01*
X105309744Y-92517205D01*
X105498102Y-92595226D01*
X105698061Y-92635000D01*
X105901939Y-92635000D01*
X106101898Y-92595226D01*
X106290256Y-92517205D01*
X106459774Y-92403937D01*
X106603937Y-92259774D01*
X106717205Y-92090256D01*
X106795226Y-91901898D01*
X106835000Y-91701939D01*
X106835000Y-91498061D01*
X106795226Y-91298102D01*
X106717205Y-91109744D01*
X106603937Y-90940226D01*
X106459774Y-90796063D01*
X106290256Y-90682795D01*
X106101898Y-90604774D01*
X105901939Y-90565000D01*
X105698061Y-90565000D01*
X105498102Y-90604774D01*
X105309744Y-90682795D01*
X105140226Y-90796063D01*
X104996063Y-90940226D01*
X104882795Y-91109744D01*
X104804774Y-91298102D01*
X104765000Y-91498061D01*
X88342582Y-91498061D01*
X88303937Y-91440226D01*
X88263711Y-91400000D01*
X88303937Y-91359774D01*
X88417205Y-91190256D01*
X88495226Y-91001898D01*
X88535000Y-90801939D01*
X88535000Y-90598061D01*
X88495226Y-90398102D01*
X88417205Y-90209744D01*
X88303937Y-90040226D01*
X88159774Y-89896063D01*
X87990256Y-89782795D01*
X87801898Y-89704774D01*
X87601939Y-89665000D01*
X87398061Y-89665000D01*
X87198102Y-89704774D01*
X87009744Y-89782795D01*
X86840226Y-89896063D01*
X86696063Y-90040226D01*
X86582795Y-90209744D01*
X86504774Y-90398102D01*
X86465000Y-90598061D01*
X80685000Y-90598061D01*
X80685000Y-86198061D01*
X81965000Y-86198061D01*
X81965000Y-86401939D01*
X82004774Y-86601898D01*
X82082795Y-86790256D01*
X82196063Y-86959774D01*
X82340226Y-87103937D01*
X82509744Y-87217205D01*
X82698102Y-87295226D01*
X82898061Y-87335000D01*
X83101939Y-87335000D01*
X83301898Y-87295226D01*
X83490256Y-87217205D01*
X83659774Y-87103937D01*
X83803937Y-86959774D01*
X83917205Y-86790256D01*
X83995226Y-86601898D01*
X84035000Y-86401939D01*
X84035000Y-86198061D01*
X83995226Y-85998102D01*
X83917205Y-85809744D01*
X83803937Y-85640226D01*
X83659774Y-85496063D01*
X83490256Y-85382795D01*
X83301898Y-85304774D01*
X83101939Y-85265000D01*
X82898061Y-85265000D01*
X82698102Y-85304774D01*
X82509744Y-85382795D01*
X82340226Y-85496063D01*
X82196063Y-85640226D01*
X82082795Y-85809744D01*
X82004774Y-85998102D01*
X81965000Y-86198061D01*
X80685000Y-86198061D01*
X80685000Y-84929117D01*
X88565000Y-84929117D01*
X88565000Y-85270883D01*
X88631675Y-85606081D01*
X88762463Y-85921831D01*
X88952337Y-86205998D01*
X89194002Y-86447663D01*
X89478169Y-86637537D01*
X89793919Y-86768325D01*
X90129117Y-86835000D01*
X90470883Y-86835000D01*
X90806081Y-86768325D01*
X91121831Y-86637537D01*
X91405998Y-86447663D01*
X91455600Y-86398061D01*
X92965000Y-86398061D01*
X92965000Y-86601939D01*
X93004774Y-86801898D01*
X93082795Y-86990256D01*
X93196063Y-87159774D01*
X93340226Y-87303937D01*
X93509744Y-87417205D01*
X93698102Y-87495226D01*
X93898061Y-87535000D01*
X94101939Y-87535000D01*
X94301898Y-87495226D01*
X94490256Y-87417205D01*
X94659774Y-87303937D01*
X94803937Y-87159774D01*
X94917205Y-86990256D01*
X94995226Y-86801898D01*
X95035000Y-86601939D01*
X95035000Y-86398061D01*
X94995226Y-86198102D01*
X94917205Y-86009744D01*
X94803937Y-85840226D01*
X94761772Y-85798061D01*
X103065000Y-85798061D01*
X103065000Y-86001939D01*
X103104774Y-86201898D01*
X103182795Y-86390256D01*
X103296063Y-86559774D01*
X103440226Y-86703937D01*
X103609744Y-86817205D01*
X103798102Y-86895226D01*
X103998061Y-86935000D01*
X104201939Y-86935000D01*
X104401898Y-86895226D01*
X104590256Y-86817205D01*
X104759774Y-86703937D01*
X104903937Y-86559774D01*
X105017205Y-86390256D01*
X105088660Y-86217750D01*
X105201898Y-86195226D01*
X105390256Y-86117205D01*
X105550000Y-86010468D01*
X105709744Y-86117205D01*
X105898102Y-86195226D01*
X106098061Y-86235000D01*
X106301939Y-86235000D01*
X106501898Y-86195226D01*
X106690256Y-86117205D01*
X106859774Y-86003937D01*
X107003937Y-85859774D01*
X107117205Y-85690256D01*
X107195226Y-85501898D01*
X107235000Y-85301939D01*
X107235000Y-85098061D01*
X107201396Y-84929117D01*
X108565000Y-84929117D01*
X108565000Y-85270883D01*
X108631675Y-85606081D01*
X108762463Y-85921831D01*
X108952337Y-86205998D01*
X109194002Y-86447663D01*
X109478169Y-86637537D01*
X109793919Y-86768325D01*
X110129117Y-86835000D01*
X110470883Y-86835000D01*
X110806081Y-86768325D01*
X111121831Y-86637537D01*
X111405998Y-86447663D01*
X111647663Y-86205998D01*
X111837537Y-85921831D01*
X111968325Y-85606081D01*
X112035000Y-85270883D01*
X112035000Y-84929117D01*
X111968325Y-84593919D01*
X111837537Y-84278169D01*
X111647663Y-83994002D01*
X111405998Y-83752337D01*
X111121831Y-83562463D01*
X110806081Y-83431675D01*
X110470883Y-83365000D01*
X110129117Y-83365000D01*
X109793919Y-83431675D01*
X109478169Y-83562463D01*
X109194002Y-83752337D01*
X108952337Y-83994002D01*
X108762463Y-84278169D01*
X108631675Y-84593919D01*
X108565000Y-84929117D01*
X107201396Y-84929117D01*
X107195226Y-84898102D01*
X107117205Y-84709744D01*
X107072834Y-84643338D01*
X107198102Y-84695226D01*
X107398061Y-84735000D01*
X107601939Y-84735000D01*
X107801898Y-84695226D01*
X107990256Y-84617205D01*
X108159774Y-84503937D01*
X108303937Y-84359774D01*
X108417205Y-84190256D01*
X108495226Y-84001898D01*
X108533634Y-83808804D01*
X108601898Y-83795226D01*
X108790256Y-83717205D01*
X108959774Y-83603937D01*
X109103937Y-83459774D01*
X109217205Y-83290256D01*
X109295226Y-83101898D01*
X109335000Y-82901939D01*
X109335000Y-82898061D01*
X112865000Y-82898061D01*
X112865000Y-83101939D01*
X112904774Y-83301898D01*
X112982795Y-83490256D01*
X113096063Y-83659774D01*
X113240226Y-83803937D01*
X113409744Y-83917205D01*
X113598102Y-83995226D01*
X113798061Y-84035000D01*
X114001939Y-84035000D01*
X114201898Y-83995226D01*
X114390256Y-83917205D01*
X114559774Y-83803937D01*
X114703937Y-83659774D01*
X114817205Y-83490256D01*
X114895226Y-83301898D01*
X114935000Y-83101939D01*
X114935000Y-82898061D01*
X114895226Y-82698102D01*
X114817205Y-82509744D01*
X114703937Y-82340226D01*
X114559774Y-82196063D01*
X114390256Y-82082795D01*
X114201898Y-82004774D01*
X114001939Y-81965000D01*
X113798061Y-81965000D01*
X113598102Y-82004774D01*
X113409744Y-82082795D01*
X113240226Y-82196063D01*
X113096063Y-82340226D01*
X112982795Y-82509744D01*
X112904774Y-82698102D01*
X112865000Y-82898061D01*
X109335000Y-82898061D01*
X109335000Y-82698061D01*
X109295226Y-82498102D01*
X109217205Y-82309744D01*
X109103937Y-82140226D01*
X108959774Y-81996063D01*
X108790256Y-81882795D01*
X108601898Y-81804774D01*
X108401939Y-81765000D01*
X108198061Y-81765000D01*
X107998102Y-81804774D01*
X107809744Y-81882795D01*
X107640226Y-81996063D01*
X107496063Y-82140226D01*
X107382795Y-82309744D01*
X107304774Y-82498102D01*
X107266366Y-82691196D01*
X107198102Y-82704774D01*
X107009744Y-82782795D01*
X106840226Y-82896063D01*
X106696063Y-83040226D01*
X106582795Y-83209744D01*
X106504774Y-83398102D01*
X106465000Y-83598061D01*
X106465000Y-83801939D01*
X106504774Y-84001898D01*
X106582795Y-84190256D01*
X106627166Y-84256662D01*
X106501898Y-84204774D01*
X106301939Y-84165000D01*
X106098061Y-84165000D01*
X105898102Y-84204774D01*
X105709744Y-84282795D01*
X105550000Y-84389532D01*
X105390256Y-84282795D01*
X105201898Y-84204774D01*
X105001939Y-84165000D01*
X104798061Y-84165000D01*
X104598102Y-84204774D01*
X104409744Y-84282795D01*
X104240226Y-84396063D01*
X104096063Y-84540226D01*
X103982795Y-84709744D01*
X103911340Y-84882250D01*
X103798102Y-84904774D01*
X103609744Y-84982795D01*
X103440226Y-85096063D01*
X103296063Y-85240226D01*
X103182795Y-85409744D01*
X103104774Y-85598102D01*
X103065000Y-85798061D01*
X94761772Y-85798061D01*
X94659774Y-85696063D01*
X94490256Y-85582795D01*
X94301898Y-85504774D01*
X94101939Y-85465000D01*
X93898061Y-85465000D01*
X93698102Y-85504774D01*
X93509744Y-85582795D01*
X93340226Y-85696063D01*
X93196063Y-85840226D01*
X93082795Y-86009744D01*
X93004774Y-86198102D01*
X92965000Y-86398061D01*
X91455600Y-86398061D01*
X91647663Y-86205998D01*
X91837537Y-85921831D01*
X91968325Y-85606081D01*
X92035000Y-85270883D01*
X92035000Y-84929117D01*
X91968325Y-84593919D01*
X91837537Y-84278169D01*
X91647663Y-83994002D01*
X91405998Y-83752337D01*
X91121831Y-83562463D01*
X90806081Y-83431675D01*
X90470883Y-83365000D01*
X90129117Y-83365000D01*
X89793919Y-83431675D01*
X89478169Y-83562463D01*
X89194002Y-83752337D01*
X88952337Y-83994002D01*
X88762463Y-84278169D01*
X88631675Y-84593919D01*
X88565000Y-84929117D01*
X80685000Y-84929117D01*
X80685000Y-82198061D01*
X85465000Y-82198061D01*
X85465000Y-82401939D01*
X85504774Y-82601898D01*
X85582795Y-82790256D01*
X85696063Y-82959774D01*
X85840226Y-83103937D01*
X86009744Y-83217205D01*
X86198102Y-83295226D01*
X86398061Y-83335000D01*
X86601939Y-83335000D01*
X86801898Y-83295226D01*
X86990256Y-83217205D01*
X87159774Y-83103937D01*
X87303937Y-82959774D01*
X87417205Y-82790256D01*
X87495226Y-82601898D01*
X87535000Y-82401939D01*
X87535000Y-82298061D01*
X100265000Y-82298061D01*
X100265000Y-82501939D01*
X100304774Y-82701898D01*
X100382795Y-82890256D01*
X100496063Y-83059774D01*
X100640226Y-83203937D01*
X100755397Y-83280892D01*
X100696063Y-83340226D01*
X100582795Y-83509744D01*
X100504774Y-83698102D01*
X100465000Y-83898061D01*
X100465000Y-84101939D01*
X100504774Y-84301898D01*
X100582795Y-84490256D01*
X100696063Y-84659774D01*
X100840226Y-84803937D01*
X101009744Y-84917205D01*
X101198102Y-84995226D01*
X101398061Y-85035000D01*
X101601939Y-85035000D01*
X101801898Y-84995226D01*
X101990256Y-84917205D01*
X102159774Y-84803937D01*
X102303937Y-84659774D01*
X102417205Y-84490256D01*
X102495226Y-84301898D01*
X102535000Y-84101939D01*
X102535000Y-83898061D01*
X102495226Y-83698102D01*
X102417205Y-83509744D01*
X102303937Y-83340226D01*
X102159774Y-83196063D01*
X102044603Y-83119108D01*
X102103937Y-83059774D01*
X102217205Y-82890256D01*
X102295226Y-82701898D01*
X102335000Y-82501939D01*
X102335000Y-82298061D01*
X102295226Y-82098102D01*
X102217205Y-81909744D01*
X102103937Y-81740226D01*
X101959774Y-81596063D01*
X101790256Y-81482795D01*
X101601898Y-81404774D01*
X101401939Y-81365000D01*
X101198061Y-81365000D01*
X100998102Y-81404774D01*
X100809744Y-81482795D01*
X100640226Y-81596063D01*
X100496063Y-81740226D01*
X100382795Y-81909744D01*
X100304774Y-82098102D01*
X100265000Y-82298061D01*
X87535000Y-82298061D01*
X87535000Y-82198061D01*
X87495226Y-81998102D01*
X87417205Y-81809744D01*
X87303937Y-81640226D01*
X87159774Y-81496063D01*
X86990256Y-81382795D01*
X86801898Y-81304774D01*
X86601939Y-81265000D01*
X86398061Y-81265000D01*
X86198102Y-81304774D01*
X86009744Y-81382795D01*
X85840226Y-81496063D01*
X85696063Y-81640226D01*
X85582795Y-81809744D01*
X85504774Y-81998102D01*
X85465000Y-82198061D01*
X80685000Y-82198061D01*
X80685000Y-79998061D01*
X86265000Y-79998061D01*
X86265000Y-80201939D01*
X86304774Y-80401898D01*
X86382795Y-80590256D01*
X86496063Y-80759774D01*
X86640226Y-80903937D01*
X86809744Y-81017205D01*
X86998102Y-81095226D01*
X87198061Y-81135000D01*
X87401939Y-81135000D01*
X87601898Y-81095226D01*
X87790256Y-81017205D01*
X87959774Y-80903937D01*
X88103937Y-80759774D01*
X88217205Y-80590256D01*
X88295226Y-80401898D01*
X88335000Y-80201939D01*
X88335000Y-79998061D01*
X88295226Y-79798102D01*
X88256991Y-79705796D01*
X88259774Y-79703937D01*
X88403937Y-79559774D01*
X88517205Y-79390256D01*
X88595226Y-79201898D01*
X88635000Y-79001939D01*
X88635000Y-78798061D01*
X88595226Y-78598102D01*
X88517205Y-78409744D01*
X88403937Y-78240226D01*
X88259774Y-78096063D01*
X88090256Y-77982795D01*
X87901898Y-77904774D01*
X87701939Y-77865000D01*
X87498061Y-77865000D01*
X87298102Y-77904774D01*
X87109744Y-77982795D01*
X86940226Y-78096063D01*
X86796063Y-78240226D01*
X86682795Y-78409744D01*
X86604774Y-78598102D01*
X86565000Y-78798061D01*
X86565000Y-79001939D01*
X86604774Y-79201898D01*
X86643009Y-79294204D01*
X86640226Y-79296063D01*
X86496063Y-79440226D01*
X86382795Y-79609744D01*
X86304774Y-79798102D01*
X86265000Y-79998061D01*
X80685000Y-79998061D01*
X80685000Y-77698061D01*
X95565000Y-77698061D01*
X95565000Y-77901939D01*
X95604774Y-78101898D01*
X95682795Y-78290256D01*
X95796063Y-78459774D01*
X95940226Y-78603937D01*
X96109744Y-78717205D01*
X96298102Y-78795226D01*
X96498061Y-78835000D01*
X96701939Y-78835000D01*
X96901898Y-78795226D01*
X97090256Y-78717205D01*
X97259774Y-78603937D01*
X97403937Y-78459774D01*
X97517205Y-78290256D01*
X97595226Y-78101898D01*
X97635000Y-77901939D01*
X97635000Y-77798061D01*
X101465000Y-77798061D01*
X101465000Y-78001939D01*
X101504774Y-78201898D01*
X101582795Y-78390256D01*
X101696063Y-78559774D01*
X101840226Y-78703937D01*
X102009744Y-78817205D01*
X102198102Y-78895226D01*
X102398061Y-78935000D01*
X102601939Y-78935000D01*
X102801898Y-78895226D01*
X102990256Y-78817205D01*
X103100000Y-78743877D01*
X103209744Y-78817205D01*
X103398102Y-78895226D01*
X103598061Y-78935000D01*
X103801939Y-78935000D01*
X104001898Y-78895226D01*
X104190256Y-78817205D01*
X104218907Y-78798061D01*
X105865000Y-78798061D01*
X105865000Y-79001939D01*
X105904774Y-79201898D01*
X105982795Y-79390256D01*
X106096063Y-79559774D01*
X106240226Y-79703937D01*
X106409744Y-79817205D01*
X106598102Y-79895226D01*
X106798061Y-79935000D01*
X107001939Y-79935000D01*
X107201898Y-79895226D01*
X107390256Y-79817205D01*
X107559774Y-79703937D01*
X107703937Y-79559774D01*
X107817205Y-79390256D01*
X107895226Y-79201898D01*
X107935000Y-79001939D01*
X107935000Y-78798061D01*
X107895226Y-78598102D01*
X107817205Y-78409744D01*
X107703937Y-78240226D01*
X107559774Y-78096063D01*
X107390256Y-77982795D01*
X107201898Y-77904774D01*
X107001939Y-77865000D01*
X106798061Y-77865000D01*
X106598102Y-77904774D01*
X106409744Y-77982795D01*
X106240226Y-78096063D01*
X106096063Y-78240226D01*
X105982795Y-78409744D01*
X105904774Y-78598102D01*
X105865000Y-78798061D01*
X104218907Y-78798061D01*
X104359774Y-78703937D01*
X104503937Y-78559774D01*
X104617205Y-78390256D01*
X104695226Y-78201898D01*
X104735000Y-78001939D01*
X104735000Y-77798061D01*
X104695226Y-77598102D01*
X104617205Y-77409744D01*
X104503937Y-77240226D01*
X104359774Y-77096063D01*
X104190256Y-76982795D01*
X104001898Y-76904774D01*
X103801939Y-76865000D01*
X103598061Y-76865000D01*
X103398102Y-76904774D01*
X103209744Y-76982795D01*
X103100000Y-77056123D01*
X102990256Y-76982795D01*
X102801898Y-76904774D01*
X102601939Y-76865000D01*
X102398061Y-76865000D01*
X102198102Y-76904774D01*
X102009744Y-76982795D01*
X101840226Y-77096063D01*
X101696063Y-77240226D01*
X101582795Y-77409744D01*
X101504774Y-77598102D01*
X101465000Y-77798061D01*
X97635000Y-77798061D01*
X97635000Y-77698061D01*
X97595226Y-77498102D01*
X97517205Y-77309744D01*
X97403937Y-77140226D01*
X97259774Y-76996063D01*
X97090256Y-76882795D01*
X96901898Y-76804774D01*
X96701939Y-76765000D01*
X96498061Y-76765000D01*
X96298102Y-76804774D01*
X96109744Y-76882795D01*
X95940226Y-76996063D01*
X95796063Y-77140226D01*
X95682795Y-77309744D01*
X95604774Y-77498102D01*
X95565000Y-77698061D01*
X80685000Y-77698061D01*
X80685000Y-77030506D01*
X80755875Y-76236363D01*
X80889957Y-75746242D01*
X81019369Y-76058669D01*
X81263962Y-76424729D01*
X81575271Y-76736038D01*
X81941331Y-76980631D01*
X82348075Y-77149110D01*
X82779872Y-77235000D01*
X83220128Y-77235000D01*
X83651925Y-77149110D01*
X84058669Y-76980631D01*
X84424729Y-76736038D01*
X84736038Y-76424729D01*
X84980631Y-76058669D01*
X85149110Y-75651925D01*
X85235000Y-75220128D01*
X85235000Y-74929117D01*
X88565000Y-74929117D01*
X88565000Y-75270883D01*
X88631675Y-75606081D01*
X88762463Y-75921831D01*
X88952337Y-76205998D01*
X89194002Y-76447663D01*
X89478169Y-76637537D01*
X89793919Y-76768325D01*
X90129117Y-76835000D01*
X90470883Y-76835000D01*
X90806081Y-76768325D01*
X91121831Y-76637537D01*
X91405998Y-76447663D01*
X91647663Y-76205998D01*
X91837537Y-75921831D01*
X91968325Y-75606081D01*
X92035000Y-75270883D01*
X92035000Y-74929117D01*
X108565000Y-74929117D01*
X108565000Y-75270883D01*
X108631675Y-75606081D01*
X108762463Y-75921831D01*
X108952337Y-76205998D01*
X109194002Y-76447663D01*
X109478169Y-76637537D01*
X109793919Y-76768325D01*
X110129117Y-76835000D01*
X110470883Y-76835000D01*
X110806081Y-76768325D01*
X111121831Y-76637537D01*
X111405998Y-76447663D01*
X111647663Y-76205998D01*
X111837537Y-75921831D01*
X111968325Y-75606081D01*
X112035000Y-75270883D01*
X112035000Y-74929117D01*
X111968325Y-74593919D01*
X111837537Y-74278169D01*
X111647663Y-73994002D01*
X111405998Y-73752337D01*
X111121831Y-73562463D01*
X110806081Y-73431675D01*
X110470883Y-73365000D01*
X110129117Y-73365000D01*
X109793919Y-73431675D01*
X109478169Y-73562463D01*
X109194002Y-73752337D01*
X108952337Y-73994002D01*
X108762463Y-74278169D01*
X108631675Y-74593919D01*
X108565000Y-74929117D01*
X92035000Y-74929117D01*
X91968325Y-74593919D01*
X91837537Y-74278169D01*
X91647663Y-73994002D01*
X91405998Y-73752337D01*
X91121831Y-73562463D01*
X90806081Y-73431675D01*
X90470883Y-73365000D01*
X90129117Y-73365000D01*
X89793919Y-73431675D01*
X89478169Y-73562463D01*
X89194002Y-73752337D01*
X88952337Y-73994002D01*
X88762463Y-74278169D01*
X88631675Y-74593919D01*
X88565000Y-74929117D01*
X85235000Y-74929117D01*
X85235000Y-74779872D01*
X85149110Y-74348075D01*
X84980631Y-73941331D01*
X84736038Y-73575271D01*
X84424729Y-73263962D01*
X84058669Y-73019369D01*
X83736748Y-72886025D01*
X84375320Y-72732717D01*
X85025112Y-72685000D01*
X114969494Y-72685000D01*
X115763637Y-72755875D01*
M02*
