G04 #@! TF.GenerationSoftware,KiCad,Pcbnew,(5.1.5)-3*
G04 #@! TF.CreationDate,2021-09-26T22:58:58-04:00*
G04 #@! TF.ProjectId,EPC611 LIDAR,45504336-3131-4204-9c49-4441522e6b69,rev?*
G04 #@! TF.SameCoordinates,Original*
G04 #@! TF.FileFunction,Legend,Bot*
G04 #@! TF.FilePolarity,Positive*
%FSLAX46Y46*%
G04 Gerber Fmt 4.6, Leading zero omitted, Abs format (unit mm)*
G04 Created by KiCad (PCBNEW (5.1.5)-3) date 2021-09-26 22:58:58*
%MOMM*%
%LPD*%
G04 APERTURE LIST*
%ADD10C,0.120000*%
%ADD11C,0.150000*%
G04 APERTURE END LIST*
D10*
X119310000Y-106085000D02*
X118860000Y-106085000D01*
X119310000Y-94115000D02*
X119310000Y-106085000D01*
X118860000Y-94115000D02*
X119310000Y-94115000D01*
X114890000Y-106085000D02*
X114890000Y-105135000D01*
X115340000Y-106085000D02*
X114890000Y-106085000D01*
X114890000Y-95065000D02*
X113400000Y-95065000D01*
X114890000Y-94115000D02*
X114890000Y-95065000D01*
X115340000Y-94115000D02*
X114890000Y-94115000D01*
X103315000Y-114510000D02*
X103315000Y-114060000D01*
X110285000Y-114510000D02*
X103315000Y-114510000D01*
X110285000Y-114060000D02*
X110285000Y-114510000D01*
X103315000Y-110090000D02*
X104265000Y-110090000D01*
X103315000Y-110540000D02*
X103315000Y-110090000D01*
X109335000Y-110090000D02*
X109335000Y-108600000D01*
X110285000Y-110090000D02*
X109335000Y-110090000D01*
X110285000Y-110540000D02*
X110285000Y-110090000D01*
X103665000Y-90930000D02*
X103665000Y-90865000D01*
X100135000Y-90930000D02*
X100135000Y-90865000D01*
X103665000Y-97335000D02*
X103665000Y-97270000D01*
X100135000Y-97335000D02*
X100135000Y-97270000D01*
X98810000Y-97270000D02*
X100135000Y-97270000D01*
X100135000Y-90865000D02*
X103665000Y-90865000D01*
X100135000Y-97335000D02*
X103665000Y-97335000D01*
X91115000Y-114510000D02*
X91115000Y-114060000D01*
X98085000Y-114510000D02*
X91115000Y-114510000D01*
X98085000Y-114060000D02*
X98085000Y-114510000D01*
X91115000Y-110090000D02*
X92065000Y-110090000D01*
X91115000Y-110540000D02*
X91115000Y-110090000D01*
X97135000Y-110090000D02*
X97135000Y-108600000D01*
X98085000Y-110090000D02*
X97135000Y-110090000D01*
X98085000Y-110540000D02*
X98085000Y-110090000D01*
D11*
X111652380Y-99766666D02*
X112366666Y-99766666D01*
X112509523Y-99719047D01*
X112604761Y-99623809D01*
X112652380Y-99480952D01*
X112652380Y-99385714D01*
X111652380Y-100719047D02*
X111652380Y-100242857D01*
X112128571Y-100195238D01*
X112080952Y-100242857D01*
X112033333Y-100338095D01*
X112033333Y-100576190D01*
X112080952Y-100671428D01*
X112128571Y-100719047D01*
X112223809Y-100766666D01*
X112461904Y-100766666D01*
X112557142Y-100719047D01*
X112604761Y-100671428D01*
X112652380Y-100576190D01*
X112652380Y-100338095D01*
X112604761Y-100242857D01*
X112557142Y-100195238D01*
X107133333Y-106852380D02*
X107133333Y-107566666D01*
X107180952Y-107709523D01*
X107276190Y-107804761D01*
X107419047Y-107852380D01*
X107514285Y-107852380D01*
X106752380Y-106852380D02*
X106133333Y-106852380D01*
X106466666Y-107233333D01*
X106323809Y-107233333D01*
X106228571Y-107280952D01*
X106180952Y-107328571D01*
X106133333Y-107423809D01*
X106133333Y-107661904D01*
X106180952Y-107757142D01*
X106228571Y-107804761D01*
X106323809Y-107852380D01*
X106609523Y-107852380D01*
X106704761Y-107804761D01*
X106752380Y-107757142D01*
X102233333Y-97787380D02*
X102233333Y-98501666D01*
X102280952Y-98644523D01*
X102376190Y-98739761D01*
X102519047Y-98787380D01*
X102614285Y-98787380D01*
X101233333Y-98787380D02*
X101804761Y-98787380D01*
X101519047Y-98787380D02*
X101519047Y-97787380D01*
X101614285Y-97930238D01*
X101709523Y-98025476D01*
X101804761Y-98073095D01*
X94933333Y-106852380D02*
X94933333Y-107566666D01*
X94980952Y-107709523D01*
X95076190Y-107804761D01*
X95219047Y-107852380D01*
X95314285Y-107852380D01*
X94504761Y-106947619D02*
X94457142Y-106900000D01*
X94361904Y-106852380D01*
X94123809Y-106852380D01*
X94028571Y-106900000D01*
X93980952Y-106947619D01*
X93933333Y-107042857D01*
X93933333Y-107138095D01*
X93980952Y-107280952D01*
X94552380Y-107852380D01*
X93933333Y-107852380D01*
M02*
