M48
INCH,TZ
T1C0.0157
T2C0.0197
%
G90
G05
T1
X31772Y-33386
X32047Y-39488
X32677Y-33976
X32756Y-36260
X32835Y-41575
X33150Y-38937
X33346Y-35197
X33386Y-42205
X33465Y-40748
X33543Y-41142
X33661Y-38937
X34055Y-32402
X34139Y-42682
X34252Y-38898
X34370Y-31535
X34449Y-35709
X34449Y-36260
X34488Y-31063
X34488Y-32913
X34803Y-40787
X35015Y-41314
X35433Y-43346
X35748Y-35748
X35827Y-43031
X35945Y-37756
X36378Y-40118
X36378Y-41378
X36496Y-32835
X37008Y-34055
X37362Y-40709
X37559Y-29291
X37756Y-44882
X37992Y-32441
X37992Y-42441
X38031Y-30630
X38268Y-40394
X38583Y-38071
X38622Y-36575
X38819Y-34173
X39291Y-41850
X39488Y-31535
X39488Y-38898
X39803Y-29370
X39882Y-32441
X39961Y-33071
X40276Y-40866
X40354Y-30669
X40827Y-30669
X40984Y-33819
X41260Y-41850
X41299Y-33543
X41654Y-36063
X41654Y-37047
X41654Y-38071
X41811Y-33543
X41811Y-43661
X42087Y-31063
X42087Y-32520
X42323Y-32953
X42323Y-43661
X42638Y-32598
X42785Y-43789
X43150Y-44882
X43189Y-36535
X43228Y-37402
X43228Y-40394
X43228Y-40906
X43228Y-41417
X43228Y-41929
X43228Y-42402
X43228Y-42913
X44213Y-37717
X44488Y-43858
X44724Y-41614
X44828Y-43056
X44843Y-32677
X45512Y-38150
X45591Y-38898
X46339Y-32283
X46378Y-38937
X46732Y-40157
T2
X35315Y-41969
X35709Y-41969
T0
M30
