G04 #@! TF.GenerationSoftware,KiCad,Pcbnew,(5.1.5)-3*
G04 #@! TF.CreationDate,2021-09-26T22:58:59-04:00*
G04 #@! TF.ProjectId,EPC611 LIDAR,45504336-3131-4204-9c49-4441522e6b69,rev?*
G04 #@! TF.SameCoordinates,Original*
G04 #@! TF.FileFunction,Soldermask,Bot*
G04 #@! TF.FilePolarity,Negative*
%FSLAX46Y46*%
G04 Gerber Fmt 4.6, Leading zero omitted, Abs format (unit mm)*
G04 Created by KiCad (PCBNEW (5.1.5)-3) date 2021-09-26 22:58:59*
%MOMM*%
%LPD*%
G04 APERTURE LIST*
%ADD10O,0.780000X0.780000*%
%ADD11R,0.780000X0.780000*%
%ADD12C,0.100000*%
%ADD13R,2.400000X0.740000*%
%ADD14C,3.200000*%
%ADD15C,2.200000*%
G04 APERTURE END LIST*
D10*
X89700000Y-106600000D03*
D11*
X90700000Y-106600000D03*
D12*
G36*
X118374504Y-105976204D02*
G01*
X118398773Y-105979804D01*
X118422571Y-105985765D01*
X118445671Y-105994030D01*
X118467849Y-106004520D01*
X118488893Y-106017133D01*
X118508598Y-106031747D01*
X118526777Y-106048223D01*
X118543253Y-106066402D01*
X118557867Y-106086107D01*
X118570480Y-106107151D01*
X118580970Y-106129329D01*
X118589235Y-106152429D01*
X118595196Y-106176227D01*
X118598796Y-106200496D01*
X118600000Y-106225000D01*
X118600000Y-107825000D01*
X118598796Y-107849504D01*
X118595196Y-107873773D01*
X118589235Y-107897571D01*
X118580970Y-107920671D01*
X118570480Y-107942849D01*
X118557867Y-107963893D01*
X118543253Y-107983598D01*
X118526777Y-108001777D01*
X118508598Y-108018253D01*
X118488893Y-108032867D01*
X118467849Y-108045480D01*
X118445671Y-108055970D01*
X118422571Y-108064235D01*
X118398773Y-108070196D01*
X118374504Y-108073796D01*
X118350000Y-108075000D01*
X115850000Y-108075000D01*
X115825496Y-108073796D01*
X115801227Y-108070196D01*
X115777429Y-108064235D01*
X115754329Y-108055970D01*
X115732151Y-108045480D01*
X115711107Y-108032867D01*
X115691402Y-108018253D01*
X115673223Y-108001777D01*
X115656747Y-107983598D01*
X115642133Y-107963893D01*
X115629520Y-107942849D01*
X115619030Y-107920671D01*
X115610765Y-107897571D01*
X115604804Y-107873773D01*
X115601204Y-107849504D01*
X115600000Y-107825000D01*
X115600000Y-106225000D01*
X115601204Y-106200496D01*
X115604804Y-106176227D01*
X115610765Y-106152429D01*
X115619030Y-106129329D01*
X115629520Y-106107151D01*
X115642133Y-106086107D01*
X115656747Y-106066402D01*
X115673223Y-106048223D01*
X115691402Y-106031747D01*
X115711107Y-106017133D01*
X115732151Y-106004520D01*
X115754329Y-105994030D01*
X115777429Y-105985765D01*
X115801227Y-105979804D01*
X115825496Y-105976204D01*
X115850000Y-105975000D01*
X118350000Y-105975000D01*
X118374504Y-105976204D01*
G37*
G36*
X118374504Y-92126204D02*
G01*
X118398773Y-92129804D01*
X118422571Y-92135765D01*
X118445671Y-92144030D01*
X118467849Y-92154520D01*
X118488893Y-92167133D01*
X118508598Y-92181747D01*
X118526777Y-92198223D01*
X118543253Y-92216402D01*
X118557867Y-92236107D01*
X118570480Y-92257151D01*
X118580970Y-92279329D01*
X118589235Y-92302429D01*
X118595196Y-92326227D01*
X118598796Y-92350496D01*
X118600000Y-92375000D01*
X118600000Y-93975000D01*
X118598796Y-93999504D01*
X118595196Y-94023773D01*
X118589235Y-94047571D01*
X118580970Y-94070671D01*
X118570480Y-94092849D01*
X118557867Y-94113893D01*
X118543253Y-94133598D01*
X118526777Y-94151777D01*
X118508598Y-94168253D01*
X118488893Y-94182867D01*
X118467849Y-94195480D01*
X118445671Y-94205970D01*
X118422571Y-94214235D01*
X118398773Y-94220196D01*
X118374504Y-94223796D01*
X118350000Y-94225000D01*
X115850000Y-94225000D01*
X115825496Y-94223796D01*
X115801227Y-94220196D01*
X115777429Y-94214235D01*
X115754329Y-94205970D01*
X115732151Y-94195480D01*
X115711107Y-94182867D01*
X115691402Y-94168253D01*
X115673223Y-94151777D01*
X115656747Y-94133598D01*
X115642133Y-94113893D01*
X115629520Y-94092849D01*
X115619030Y-94070671D01*
X115610765Y-94047571D01*
X115604804Y-94023773D01*
X115601204Y-93999504D01*
X115600000Y-93975000D01*
X115600000Y-92375000D01*
X115601204Y-92350496D01*
X115604804Y-92326227D01*
X115610765Y-92302429D01*
X115619030Y-92279329D01*
X115629520Y-92257151D01*
X115642133Y-92236107D01*
X115656747Y-92216402D01*
X115673223Y-92198223D01*
X115691402Y-92181747D01*
X115711107Y-92167133D01*
X115732151Y-92154520D01*
X115754329Y-92144030D01*
X115777429Y-92135765D01*
X115801227Y-92129804D01*
X115825496Y-92126204D01*
X115850000Y-92125000D01*
X118350000Y-92125000D01*
X118374504Y-92126204D01*
G37*
G36*
X114819603Y-104075963D02*
G01*
X114839018Y-104078843D01*
X114858057Y-104083612D01*
X114876537Y-104090224D01*
X114894279Y-104098616D01*
X114911114Y-104108706D01*
X114926879Y-104120398D01*
X114941421Y-104133579D01*
X114954602Y-104148121D01*
X114966294Y-104163886D01*
X114976384Y-104180721D01*
X114984776Y-104198463D01*
X114991388Y-104216943D01*
X114996157Y-104235982D01*
X114999037Y-104255397D01*
X115000000Y-104275000D01*
X115000000Y-104675000D01*
X114999037Y-104694603D01*
X114996157Y-104714018D01*
X114991388Y-104733057D01*
X114984776Y-104751537D01*
X114976384Y-104769279D01*
X114966294Y-104786114D01*
X114954602Y-104801879D01*
X114941421Y-104816421D01*
X114926879Y-104829602D01*
X114911114Y-104841294D01*
X114894279Y-104851384D01*
X114876537Y-104859776D01*
X114858057Y-104866388D01*
X114839018Y-104871157D01*
X114819603Y-104874037D01*
X114800000Y-104875000D01*
X113600000Y-104875000D01*
X113580397Y-104874037D01*
X113560982Y-104871157D01*
X113541943Y-104866388D01*
X113523463Y-104859776D01*
X113505721Y-104851384D01*
X113488886Y-104841294D01*
X113473121Y-104829602D01*
X113458579Y-104816421D01*
X113445398Y-104801879D01*
X113433706Y-104786114D01*
X113423616Y-104769279D01*
X113415224Y-104751537D01*
X113408612Y-104733057D01*
X113403843Y-104714018D01*
X113400963Y-104694603D01*
X113400000Y-104675000D01*
X113400000Y-104275000D01*
X113400963Y-104255397D01*
X113403843Y-104235982D01*
X113408612Y-104216943D01*
X113415224Y-104198463D01*
X113423616Y-104180721D01*
X113433706Y-104163886D01*
X113445398Y-104148121D01*
X113458579Y-104133579D01*
X113473121Y-104120398D01*
X113488886Y-104108706D01*
X113505721Y-104098616D01*
X113523463Y-104090224D01*
X113541943Y-104083612D01*
X113560982Y-104078843D01*
X113580397Y-104075963D01*
X113600000Y-104075000D01*
X114800000Y-104075000D01*
X114819603Y-104075963D01*
G37*
G36*
X114819603Y-102825963D02*
G01*
X114839018Y-102828843D01*
X114858057Y-102833612D01*
X114876537Y-102840224D01*
X114894279Y-102848616D01*
X114911114Y-102858706D01*
X114926879Y-102870398D01*
X114941421Y-102883579D01*
X114954602Y-102898121D01*
X114966294Y-102913886D01*
X114976384Y-102930721D01*
X114984776Y-102948463D01*
X114991388Y-102966943D01*
X114996157Y-102985982D01*
X114999037Y-103005397D01*
X115000000Y-103025000D01*
X115000000Y-103425000D01*
X114999037Y-103444603D01*
X114996157Y-103464018D01*
X114991388Y-103483057D01*
X114984776Y-103501537D01*
X114976384Y-103519279D01*
X114966294Y-103536114D01*
X114954602Y-103551879D01*
X114941421Y-103566421D01*
X114926879Y-103579602D01*
X114911114Y-103591294D01*
X114894279Y-103601384D01*
X114876537Y-103609776D01*
X114858057Y-103616388D01*
X114839018Y-103621157D01*
X114819603Y-103624037D01*
X114800000Y-103625000D01*
X113600000Y-103625000D01*
X113580397Y-103624037D01*
X113560982Y-103621157D01*
X113541943Y-103616388D01*
X113523463Y-103609776D01*
X113505721Y-103601384D01*
X113488886Y-103591294D01*
X113473121Y-103579602D01*
X113458579Y-103566421D01*
X113445398Y-103551879D01*
X113433706Y-103536114D01*
X113423616Y-103519279D01*
X113415224Y-103501537D01*
X113408612Y-103483057D01*
X113403843Y-103464018D01*
X113400963Y-103444603D01*
X113400000Y-103425000D01*
X113400000Y-103025000D01*
X113400963Y-103005397D01*
X113403843Y-102985982D01*
X113408612Y-102966943D01*
X113415224Y-102948463D01*
X113423616Y-102930721D01*
X113433706Y-102913886D01*
X113445398Y-102898121D01*
X113458579Y-102883579D01*
X113473121Y-102870398D01*
X113488886Y-102858706D01*
X113505721Y-102848616D01*
X113523463Y-102840224D01*
X113541943Y-102833612D01*
X113560982Y-102828843D01*
X113580397Y-102825963D01*
X113600000Y-102825000D01*
X114800000Y-102825000D01*
X114819603Y-102825963D01*
G37*
G36*
X114819603Y-101575963D02*
G01*
X114839018Y-101578843D01*
X114858057Y-101583612D01*
X114876537Y-101590224D01*
X114894279Y-101598616D01*
X114911114Y-101608706D01*
X114926879Y-101620398D01*
X114941421Y-101633579D01*
X114954602Y-101648121D01*
X114966294Y-101663886D01*
X114976384Y-101680721D01*
X114984776Y-101698463D01*
X114991388Y-101716943D01*
X114996157Y-101735982D01*
X114999037Y-101755397D01*
X115000000Y-101775000D01*
X115000000Y-102175000D01*
X114999037Y-102194603D01*
X114996157Y-102214018D01*
X114991388Y-102233057D01*
X114984776Y-102251537D01*
X114976384Y-102269279D01*
X114966294Y-102286114D01*
X114954602Y-102301879D01*
X114941421Y-102316421D01*
X114926879Y-102329602D01*
X114911114Y-102341294D01*
X114894279Y-102351384D01*
X114876537Y-102359776D01*
X114858057Y-102366388D01*
X114839018Y-102371157D01*
X114819603Y-102374037D01*
X114800000Y-102375000D01*
X113600000Y-102375000D01*
X113580397Y-102374037D01*
X113560982Y-102371157D01*
X113541943Y-102366388D01*
X113523463Y-102359776D01*
X113505721Y-102351384D01*
X113488886Y-102341294D01*
X113473121Y-102329602D01*
X113458579Y-102316421D01*
X113445398Y-102301879D01*
X113433706Y-102286114D01*
X113423616Y-102269279D01*
X113415224Y-102251537D01*
X113408612Y-102233057D01*
X113403843Y-102214018D01*
X113400963Y-102194603D01*
X113400000Y-102175000D01*
X113400000Y-101775000D01*
X113400963Y-101755397D01*
X113403843Y-101735982D01*
X113408612Y-101716943D01*
X113415224Y-101698463D01*
X113423616Y-101680721D01*
X113433706Y-101663886D01*
X113445398Y-101648121D01*
X113458579Y-101633579D01*
X113473121Y-101620398D01*
X113488886Y-101608706D01*
X113505721Y-101598616D01*
X113523463Y-101590224D01*
X113541943Y-101583612D01*
X113560982Y-101578843D01*
X113580397Y-101575963D01*
X113600000Y-101575000D01*
X114800000Y-101575000D01*
X114819603Y-101575963D01*
G37*
G36*
X114819603Y-100325963D02*
G01*
X114839018Y-100328843D01*
X114858057Y-100333612D01*
X114876537Y-100340224D01*
X114894279Y-100348616D01*
X114911114Y-100358706D01*
X114926879Y-100370398D01*
X114941421Y-100383579D01*
X114954602Y-100398121D01*
X114966294Y-100413886D01*
X114976384Y-100430721D01*
X114984776Y-100448463D01*
X114991388Y-100466943D01*
X114996157Y-100485982D01*
X114999037Y-100505397D01*
X115000000Y-100525000D01*
X115000000Y-100925000D01*
X114999037Y-100944603D01*
X114996157Y-100964018D01*
X114991388Y-100983057D01*
X114984776Y-101001537D01*
X114976384Y-101019279D01*
X114966294Y-101036114D01*
X114954602Y-101051879D01*
X114941421Y-101066421D01*
X114926879Y-101079602D01*
X114911114Y-101091294D01*
X114894279Y-101101384D01*
X114876537Y-101109776D01*
X114858057Y-101116388D01*
X114839018Y-101121157D01*
X114819603Y-101124037D01*
X114800000Y-101125000D01*
X113600000Y-101125000D01*
X113580397Y-101124037D01*
X113560982Y-101121157D01*
X113541943Y-101116388D01*
X113523463Y-101109776D01*
X113505721Y-101101384D01*
X113488886Y-101091294D01*
X113473121Y-101079602D01*
X113458579Y-101066421D01*
X113445398Y-101051879D01*
X113433706Y-101036114D01*
X113423616Y-101019279D01*
X113415224Y-101001537D01*
X113408612Y-100983057D01*
X113403843Y-100964018D01*
X113400963Y-100944603D01*
X113400000Y-100925000D01*
X113400000Y-100525000D01*
X113400963Y-100505397D01*
X113403843Y-100485982D01*
X113408612Y-100466943D01*
X113415224Y-100448463D01*
X113423616Y-100430721D01*
X113433706Y-100413886D01*
X113445398Y-100398121D01*
X113458579Y-100383579D01*
X113473121Y-100370398D01*
X113488886Y-100358706D01*
X113505721Y-100348616D01*
X113523463Y-100340224D01*
X113541943Y-100333612D01*
X113560982Y-100328843D01*
X113580397Y-100325963D01*
X113600000Y-100325000D01*
X114800000Y-100325000D01*
X114819603Y-100325963D01*
G37*
G36*
X114819603Y-99075963D02*
G01*
X114839018Y-99078843D01*
X114858057Y-99083612D01*
X114876537Y-99090224D01*
X114894279Y-99098616D01*
X114911114Y-99108706D01*
X114926879Y-99120398D01*
X114941421Y-99133579D01*
X114954602Y-99148121D01*
X114966294Y-99163886D01*
X114976384Y-99180721D01*
X114984776Y-99198463D01*
X114991388Y-99216943D01*
X114996157Y-99235982D01*
X114999037Y-99255397D01*
X115000000Y-99275000D01*
X115000000Y-99675000D01*
X114999037Y-99694603D01*
X114996157Y-99714018D01*
X114991388Y-99733057D01*
X114984776Y-99751537D01*
X114976384Y-99769279D01*
X114966294Y-99786114D01*
X114954602Y-99801879D01*
X114941421Y-99816421D01*
X114926879Y-99829602D01*
X114911114Y-99841294D01*
X114894279Y-99851384D01*
X114876537Y-99859776D01*
X114858057Y-99866388D01*
X114839018Y-99871157D01*
X114819603Y-99874037D01*
X114800000Y-99875000D01*
X113600000Y-99875000D01*
X113580397Y-99874037D01*
X113560982Y-99871157D01*
X113541943Y-99866388D01*
X113523463Y-99859776D01*
X113505721Y-99851384D01*
X113488886Y-99841294D01*
X113473121Y-99829602D01*
X113458579Y-99816421D01*
X113445398Y-99801879D01*
X113433706Y-99786114D01*
X113423616Y-99769279D01*
X113415224Y-99751537D01*
X113408612Y-99733057D01*
X113403843Y-99714018D01*
X113400963Y-99694603D01*
X113400000Y-99675000D01*
X113400000Y-99275000D01*
X113400963Y-99255397D01*
X113403843Y-99235982D01*
X113408612Y-99216943D01*
X113415224Y-99198463D01*
X113423616Y-99180721D01*
X113433706Y-99163886D01*
X113445398Y-99148121D01*
X113458579Y-99133579D01*
X113473121Y-99120398D01*
X113488886Y-99108706D01*
X113505721Y-99098616D01*
X113523463Y-99090224D01*
X113541943Y-99083612D01*
X113560982Y-99078843D01*
X113580397Y-99075963D01*
X113600000Y-99075000D01*
X114800000Y-99075000D01*
X114819603Y-99075963D01*
G37*
G36*
X114819603Y-97825963D02*
G01*
X114839018Y-97828843D01*
X114858057Y-97833612D01*
X114876537Y-97840224D01*
X114894279Y-97848616D01*
X114911114Y-97858706D01*
X114926879Y-97870398D01*
X114941421Y-97883579D01*
X114954602Y-97898121D01*
X114966294Y-97913886D01*
X114976384Y-97930721D01*
X114984776Y-97948463D01*
X114991388Y-97966943D01*
X114996157Y-97985982D01*
X114999037Y-98005397D01*
X115000000Y-98025000D01*
X115000000Y-98425000D01*
X114999037Y-98444603D01*
X114996157Y-98464018D01*
X114991388Y-98483057D01*
X114984776Y-98501537D01*
X114976384Y-98519279D01*
X114966294Y-98536114D01*
X114954602Y-98551879D01*
X114941421Y-98566421D01*
X114926879Y-98579602D01*
X114911114Y-98591294D01*
X114894279Y-98601384D01*
X114876537Y-98609776D01*
X114858057Y-98616388D01*
X114839018Y-98621157D01*
X114819603Y-98624037D01*
X114800000Y-98625000D01*
X113600000Y-98625000D01*
X113580397Y-98624037D01*
X113560982Y-98621157D01*
X113541943Y-98616388D01*
X113523463Y-98609776D01*
X113505721Y-98601384D01*
X113488886Y-98591294D01*
X113473121Y-98579602D01*
X113458579Y-98566421D01*
X113445398Y-98551879D01*
X113433706Y-98536114D01*
X113423616Y-98519279D01*
X113415224Y-98501537D01*
X113408612Y-98483057D01*
X113403843Y-98464018D01*
X113400963Y-98444603D01*
X113400000Y-98425000D01*
X113400000Y-98025000D01*
X113400963Y-98005397D01*
X113403843Y-97985982D01*
X113408612Y-97966943D01*
X113415224Y-97948463D01*
X113423616Y-97930721D01*
X113433706Y-97913886D01*
X113445398Y-97898121D01*
X113458579Y-97883579D01*
X113473121Y-97870398D01*
X113488886Y-97858706D01*
X113505721Y-97848616D01*
X113523463Y-97840224D01*
X113541943Y-97833612D01*
X113560982Y-97828843D01*
X113580397Y-97825963D01*
X113600000Y-97825000D01*
X114800000Y-97825000D01*
X114819603Y-97825963D01*
G37*
G36*
X114819603Y-96575963D02*
G01*
X114839018Y-96578843D01*
X114858057Y-96583612D01*
X114876537Y-96590224D01*
X114894279Y-96598616D01*
X114911114Y-96608706D01*
X114926879Y-96620398D01*
X114941421Y-96633579D01*
X114954602Y-96648121D01*
X114966294Y-96663886D01*
X114976384Y-96680721D01*
X114984776Y-96698463D01*
X114991388Y-96716943D01*
X114996157Y-96735982D01*
X114999037Y-96755397D01*
X115000000Y-96775000D01*
X115000000Y-97175000D01*
X114999037Y-97194603D01*
X114996157Y-97214018D01*
X114991388Y-97233057D01*
X114984776Y-97251537D01*
X114976384Y-97269279D01*
X114966294Y-97286114D01*
X114954602Y-97301879D01*
X114941421Y-97316421D01*
X114926879Y-97329602D01*
X114911114Y-97341294D01*
X114894279Y-97351384D01*
X114876537Y-97359776D01*
X114858057Y-97366388D01*
X114839018Y-97371157D01*
X114819603Y-97374037D01*
X114800000Y-97375000D01*
X113600000Y-97375000D01*
X113580397Y-97374037D01*
X113560982Y-97371157D01*
X113541943Y-97366388D01*
X113523463Y-97359776D01*
X113505721Y-97351384D01*
X113488886Y-97341294D01*
X113473121Y-97329602D01*
X113458579Y-97316421D01*
X113445398Y-97301879D01*
X113433706Y-97286114D01*
X113423616Y-97269279D01*
X113415224Y-97251537D01*
X113408612Y-97233057D01*
X113403843Y-97214018D01*
X113400963Y-97194603D01*
X113400000Y-97175000D01*
X113400000Y-96775000D01*
X113400963Y-96755397D01*
X113403843Y-96735982D01*
X113408612Y-96716943D01*
X113415224Y-96698463D01*
X113423616Y-96680721D01*
X113433706Y-96663886D01*
X113445398Y-96648121D01*
X113458579Y-96633579D01*
X113473121Y-96620398D01*
X113488886Y-96608706D01*
X113505721Y-96598616D01*
X113523463Y-96590224D01*
X113541943Y-96583612D01*
X113560982Y-96578843D01*
X113580397Y-96575963D01*
X113600000Y-96575000D01*
X114800000Y-96575000D01*
X114819603Y-96575963D01*
G37*
G36*
X114819603Y-95325963D02*
G01*
X114839018Y-95328843D01*
X114858057Y-95333612D01*
X114876537Y-95340224D01*
X114894279Y-95348616D01*
X114911114Y-95358706D01*
X114926879Y-95370398D01*
X114941421Y-95383579D01*
X114954602Y-95398121D01*
X114966294Y-95413886D01*
X114976384Y-95430721D01*
X114984776Y-95448463D01*
X114991388Y-95466943D01*
X114996157Y-95485982D01*
X114999037Y-95505397D01*
X115000000Y-95525000D01*
X115000000Y-95925000D01*
X114999037Y-95944603D01*
X114996157Y-95964018D01*
X114991388Y-95983057D01*
X114984776Y-96001537D01*
X114976384Y-96019279D01*
X114966294Y-96036114D01*
X114954602Y-96051879D01*
X114941421Y-96066421D01*
X114926879Y-96079602D01*
X114911114Y-96091294D01*
X114894279Y-96101384D01*
X114876537Y-96109776D01*
X114858057Y-96116388D01*
X114839018Y-96121157D01*
X114819603Y-96124037D01*
X114800000Y-96125000D01*
X113600000Y-96125000D01*
X113580397Y-96124037D01*
X113560982Y-96121157D01*
X113541943Y-96116388D01*
X113523463Y-96109776D01*
X113505721Y-96101384D01*
X113488886Y-96091294D01*
X113473121Y-96079602D01*
X113458579Y-96066421D01*
X113445398Y-96051879D01*
X113433706Y-96036114D01*
X113423616Y-96019279D01*
X113415224Y-96001537D01*
X113408612Y-95983057D01*
X113403843Y-95964018D01*
X113400963Y-95944603D01*
X113400000Y-95925000D01*
X113400000Y-95525000D01*
X113400963Y-95505397D01*
X113403843Y-95485982D01*
X113408612Y-95466943D01*
X113415224Y-95448463D01*
X113423616Y-95430721D01*
X113433706Y-95413886D01*
X113445398Y-95398121D01*
X113458579Y-95383579D01*
X113473121Y-95370398D01*
X113488886Y-95358706D01*
X113505721Y-95348616D01*
X113523463Y-95340224D01*
X113541943Y-95333612D01*
X113560982Y-95328843D01*
X113580397Y-95325963D01*
X113600000Y-95325000D01*
X114800000Y-95325000D01*
X114819603Y-95325963D01*
G37*
G36*
X103199504Y-110801204D02*
G01*
X103223773Y-110804804D01*
X103247571Y-110810765D01*
X103270671Y-110819030D01*
X103292849Y-110829520D01*
X103313893Y-110842133D01*
X103333598Y-110856747D01*
X103351777Y-110873223D01*
X103368253Y-110891402D01*
X103382867Y-110911107D01*
X103395480Y-110932151D01*
X103405970Y-110954329D01*
X103414235Y-110977429D01*
X103420196Y-111001227D01*
X103423796Y-111025496D01*
X103425000Y-111050000D01*
X103425000Y-113550000D01*
X103423796Y-113574504D01*
X103420196Y-113598773D01*
X103414235Y-113622571D01*
X103405970Y-113645671D01*
X103395480Y-113667849D01*
X103382867Y-113688893D01*
X103368253Y-113708598D01*
X103351777Y-113726777D01*
X103333598Y-113743253D01*
X103313893Y-113757867D01*
X103292849Y-113770480D01*
X103270671Y-113780970D01*
X103247571Y-113789235D01*
X103223773Y-113795196D01*
X103199504Y-113798796D01*
X103175000Y-113800000D01*
X101575000Y-113800000D01*
X101550496Y-113798796D01*
X101526227Y-113795196D01*
X101502429Y-113789235D01*
X101479329Y-113780970D01*
X101457151Y-113770480D01*
X101436107Y-113757867D01*
X101416402Y-113743253D01*
X101398223Y-113726777D01*
X101381747Y-113708598D01*
X101367133Y-113688893D01*
X101354520Y-113667849D01*
X101344030Y-113645671D01*
X101335765Y-113622571D01*
X101329804Y-113598773D01*
X101326204Y-113574504D01*
X101325000Y-113550000D01*
X101325000Y-111050000D01*
X101326204Y-111025496D01*
X101329804Y-111001227D01*
X101335765Y-110977429D01*
X101344030Y-110954329D01*
X101354520Y-110932151D01*
X101367133Y-110911107D01*
X101381747Y-110891402D01*
X101398223Y-110873223D01*
X101416402Y-110856747D01*
X101436107Y-110842133D01*
X101457151Y-110829520D01*
X101479329Y-110819030D01*
X101502429Y-110810765D01*
X101526227Y-110804804D01*
X101550496Y-110801204D01*
X101575000Y-110800000D01*
X103175000Y-110800000D01*
X103199504Y-110801204D01*
G37*
G36*
X112049504Y-110801204D02*
G01*
X112073773Y-110804804D01*
X112097571Y-110810765D01*
X112120671Y-110819030D01*
X112142849Y-110829520D01*
X112163893Y-110842133D01*
X112183598Y-110856747D01*
X112201777Y-110873223D01*
X112218253Y-110891402D01*
X112232867Y-110911107D01*
X112245480Y-110932151D01*
X112255970Y-110954329D01*
X112264235Y-110977429D01*
X112270196Y-111001227D01*
X112273796Y-111025496D01*
X112275000Y-111050000D01*
X112275000Y-113550000D01*
X112273796Y-113574504D01*
X112270196Y-113598773D01*
X112264235Y-113622571D01*
X112255970Y-113645671D01*
X112245480Y-113667849D01*
X112232867Y-113688893D01*
X112218253Y-113708598D01*
X112201777Y-113726777D01*
X112183598Y-113743253D01*
X112163893Y-113757867D01*
X112142849Y-113770480D01*
X112120671Y-113780970D01*
X112097571Y-113789235D01*
X112073773Y-113795196D01*
X112049504Y-113798796D01*
X112025000Y-113800000D01*
X110425000Y-113800000D01*
X110400496Y-113798796D01*
X110376227Y-113795196D01*
X110352429Y-113789235D01*
X110329329Y-113780970D01*
X110307151Y-113770480D01*
X110286107Y-113757867D01*
X110266402Y-113743253D01*
X110248223Y-113726777D01*
X110231747Y-113708598D01*
X110217133Y-113688893D01*
X110204520Y-113667849D01*
X110194030Y-113645671D01*
X110185765Y-113622571D01*
X110179804Y-113598773D01*
X110176204Y-113574504D01*
X110175000Y-113550000D01*
X110175000Y-111050000D01*
X110176204Y-111025496D01*
X110179804Y-111001227D01*
X110185765Y-110977429D01*
X110194030Y-110954329D01*
X110204520Y-110932151D01*
X110217133Y-110911107D01*
X110231747Y-110891402D01*
X110248223Y-110873223D01*
X110266402Y-110856747D01*
X110286107Y-110842133D01*
X110307151Y-110829520D01*
X110329329Y-110819030D01*
X110352429Y-110810765D01*
X110376227Y-110804804D01*
X110400496Y-110801204D01*
X110425000Y-110800000D01*
X112025000Y-110800000D01*
X112049504Y-110801204D01*
G37*
G36*
X105144603Y-108600963D02*
G01*
X105164018Y-108603843D01*
X105183057Y-108608612D01*
X105201537Y-108615224D01*
X105219279Y-108623616D01*
X105236114Y-108633706D01*
X105251879Y-108645398D01*
X105266421Y-108658579D01*
X105279602Y-108673121D01*
X105291294Y-108688886D01*
X105301384Y-108705721D01*
X105309776Y-108723463D01*
X105316388Y-108741943D01*
X105321157Y-108760982D01*
X105324037Y-108780397D01*
X105325000Y-108800000D01*
X105325000Y-110000000D01*
X105324037Y-110019603D01*
X105321157Y-110039018D01*
X105316388Y-110058057D01*
X105309776Y-110076537D01*
X105301384Y-110094279D01*
X105291294Y-110111114D01*
X105279602Y-110126879D01*
X105266421Y-110141421D01*
X105251879Y-110154602D01*
X105236114Y-110166294D01*
X105219279Y-110176384D01*
X105201537Y-110184776D01*
X105183057Y-110191388D01*
X105164018Y-110196157D01*
X105144603Y-110199037D01*
X105125000Y-110200000D01*
X104725000Y-110200000D01*
X104705397Y-110199037D01*
X104685982Y-110196157D01*
X104666943Y-110191388D01*
X104648463Y-110184776D01*
X104630721Y-110176384D01*
X104613886Y-110166294D01*
X104598121Y-110154602D01*
X104583579Y-110141421D01*
X104570398Y-110126879D01*
X104558706Y-110111114D01*
X104548616Y-110094279D01*
X104540224Y-110076537D01*
X104533612Y-110058057D01*
X104528843Y-110039018D01*
X104525963Y-110019603D01*
X104525000Y-110000000D01*
X104525000Y-108800000D01*
X104525963Y-108780397D01*
X104528843Y-108760982D01*
X104533612Y-108741943D01*
X104540224Y-108723463D01*
X104548616Y-108705721D01*
X104558706Y-108688886D01*
X104570398Y-108673121D01*
X104583579Y-108658579D01*
X104598121Y-108645398D01*
X104613886Y-108633706D01*
X104630721Y-108623616D01*
X104648463Y-108615224D01*
X104666943Y-108608612D01*
X104685982Y-108603843D01*
X104705397Y-108600963D01*
X104725000Y-108600000D01*
X105125000Y-108600000D01*
X105144603Y-108600963D01*
G37*
G36*
X106394603Y-108600963D02*
G01*
X106414018Y-108603843D01*
X106433057Y-108608612D01*
X106451537Y-108615224D01*
X106469279Y-108623616D01*
X106486114Y-108633706D01*
X106501879Y-108645398D01*
X106516421Y-108658579D01*
X106529602Y-108673121D01*
X106541294Y-108688886D01*
X106551384Y-108705721D01*
X106559776Y-108723463D01*
X106566388Y-108741943D01*
X106571157Y-108760982D01*
X106574037Y-108780397D01*
X106575000Y-108800000D01*
X106575000Y-110000000D01*
X106574037Y-110019603D01*
X106571157Y-110039018D01*
X106566388Y-110058057D01*
X106559776Y-110076537D01*
X106551384Y-110094279D01*
X106541294Y-110111114D01*
X106529602Y-110126879D01*
X106516421Y-110141421D01*
X106501879Y-110154602D01*
X106486114Y-110166294D01*
X106469279Y-110176384D01*
X106451537Y-110184776D01*
X106433057Y-110191388D01*
X106414018Y-110196157D01*
X106394603Y-110199037D01*
X106375000Y-110200000D01*
X105975000Y-110200000D01*
X105955397Y-110199037D01*
X105935982Y-110196157D01*
X105916943Y-110191388D01*
X105898463Y-110184776D01*
X105880721Y-110176384D01*
X105863886Y-110166294D01*
X105848121Y-110154602D01*
X105833579Y-110141421D01*
X105820398Y-110126879D01*
X105808706Y-110111114D01*
X105798616Y-110094279D01*
X105790224Y-110076537D01*
X105783612Y-110058057D01*
X105778843Y-110039018D01*
X105775963Y-110019603D01*
X105775000Y-110000000D01*
X105775000Y-108800000D01*
X105775963Y-108780397D01*
X105778843Y-108760982D01*
X105783612Y-108741943D01*
X105790224Y-108723463D01*
X105798616Y-108705721D01*
X105808706Y-108688886D01*
X105820398Y-108673121D01*
X105833579Y-108658579D01*
X105848121Y-108645398D01*
X105863886Y-108633706D01*
X105880721Y-108623616D01*
X105898463Y-108615224D01*
X105916943Y-108608612D01*
X105935982Y-108603843D01*
X105955397Y-108600963D01*
X105975000Y-108600000D01*
X106375000Y-108600000D01*
X106394603Y-108600963D01*
G37*
G36*
X107644603Y-108600963D02*
G01*
X107664018Y-108603843D01*
X107683057Y-108608612D01*
X107701537Y-108615224D01*
X107719279Y-108623616D01*
X107736114Y-108633706D01*
X107751879Y-108645398D01*
X107766421Y-108658579D01*
X107779602Y-108673121D01*
X107791294Y-108688886D01*
X107801384Y-108705721D01*
X107809776Y-108723463D01*
X107816388Y-108741943D01*
X107821157Y-108760982D01*
X107824037Y-108780397D01*
X107825000Y-108800000D01*
X107825000Y-110000000D01*
X107824037Y-110019603D01*
X107821157Y-110039018D01*
X107816388Y-110058057D01*
X107809776Y-110076537D01*
X107801384Y-110094279D01*
X107791294Y-110111114D01*
X107779602Y-110126879D01*
X107766421Y-110141421D01*
X107751879Y-110154602D01*
X107736114Y-110166294D01*
X107719279Y-110176384D01*
X107701537Y-110184776D01*
X107683057Y-110191388D01*
X107664018Y-110196157D01*
X107644603Y-110199037D01*
X107625000Y-110200000D01*
X107225000Y-110200000D01*
X107205397Y-110199037D01*
X107185982Y-110196157D01*
X107166943Y-110191388D01*
X107148463Y-110184776D01*
X107130721Y-110176384D01*
X107113886Y-110166294D01*
X107098121Y-110154602D01*
X107083579Y-110141421D01*
X107070398Y-110126879D01*
X107058706Y-110111114D01*
X107048616Y-110094279D01*
X107040224Y-110076537D01*
X107033612Y-110058057D01*
X107028843Y-110039018D01*
X107025963Y-110019603D01*
X107025000Y-110000000D01*
X107025000Y-108800000D01*
X107025963Y-108780397D01*
X107028843Y-108760982D01*
X107033612Y-108741943D01*
X107040224Y-108723463D01*
X107048616Y-108705721D01*
X107058706Y-108688886D01*
X107070398Y-108673121D01*
X107083579Y-108658579D01*
X107098121Y-108645398D01*
X107113886Y-108633706D01*
X107130721Y-108623616D01*
X107148463Y-108615224D01*
X107166943Y-108608612D01*
X107185982Y-108603843D01*
X107205397Y-108600963D01*
X107225000Y-108600000D01*
X107625000Y-108600000D01*
X107644603Y-108600963D01*
G37*
G36*
X108894603Y-108600963D02*
G01*
X108914018Y-108603843D01*
X108933057Y-108608612D01*
X108951537Y-108615224D01*
X108969279Y-108623616D01*
X108986114Y-108633706D01*
X109001879Y-108645398D01*
X109016421Y-108658579D01*
X109029602Y-108673121D01*
X109041294Y-108688886D01*
X109051384Y-108705721D01*
X109059776Y-108723463D01*
X109066388Y-108741943D01*
X109071157Y-108760982D01*
X109074037Y-108780397D01*
X109075000Y-108800000D01*
X109075000Y-110000000D01*
X109074037Y-110019603D01*
X109071157Y-110039018D01*
X109066388Y-110058057D01*
X109059776Y-110076537D01*
X109051384Y-110094279D01*
X109041294Y-110111114D01*
X109029602Y-110126879D01*
X109016421Y-110141421D01*
X109001879Y-110154602D01*
X108986114Y-110166294D01*
X108969279Y-110176384D01*
X108951537Y-110184776D01*
X108933057Y-110191388D01*
X108914018Y-110196157D01*
X108894603Y-110199037D01*
X108875000Y-110200000D01*
X108475000Y-110200000D01*
X108455397Y-110199037D01*
X108435982Y-110196157D01*
X108416943Y-110191388D01*
X108398463Y-110184776D01*
X108380721Y-110176384D01*
X108363886Y-110166294D01*
X108348121Y-110154602D01*
X108333579Y-110141421D01*
X108320398Y-110126879D01*
X108308706Y-110111114D01*
X108298616Y-110094279D01*
X108290224Y-110076537D01*
X108283612Y-110058057D01*
X108278843Y-110039018D01*
X108275963Y-110019603D01*
X108275000Y-110000000D01*
X108275000Y-108800000D01*
X108275963Y-108780397D01*
X108278843Y-108760982D01*
X108283612Y-108741943D01*
X108290224Y-108723463D01*
X108298616Y-108705721D01*
X108308706Y-108688886D01*
X108320398Y-108673121D01*
X108333579Y-108658579D01*
X108348121Y-108645398D01*
X108363886Y-108633706D01*
X108380721Y-108623616D01*
X108398463Y-108615224D01*
X108416943Y-108608612D01*
X108435982Y-108603843D01*
X108455397Y-108600963D01*
X108475000Y-108600000D01*
X108875000Y-108600000D01*
X108894603Y-108600963D01*
G37*
D13*
X103850000Y-91560000D03*
X99950000Y-91560000D03*
X103850000Y-92830000D03*
X99950000Y-92830000D03*
X103850000Y-94100000D03*
X99950000Y-94100000D03*
X103850000Y-95370000D03*
X99950000Y-95370000D03*
X103850000Y-96640000D03*
X99950000Y-96640000D03*
D12*
G36*
X90999504Y-110801204D02*
G01*
X91023773Y-110804804D01*
X91047571Y-110810765D01*
X91070671Y-110819030D01*
X91092849Y-110829520D01*
X91113893Y-110842133D01*
X91133598Y-110856747D01*
X91151777Y-110873223D01*
X91168253Y-110891402D01*
X91182867Y-110911107D01*
X91195480Y-110932151D01*
X91205970Y-110954329D01*
X91214235Y-110977429D01*
X91220196Y-111001227D01*
X91223796Y-111025496D01*
X91225000Y-111050000D01*
X91225000Y-113550000D01*
X91223796Y-113574504D01*
X91220196Y-113598773D01*
X91214235Y-113622571D01*
X91205970Y-113645671D01*
X91195480Y-113667849D01*
X91182867Y-113688893D01*
X91168253Y-113708598D01*
X91151777Y-113726777D01*
X91133598Y-113743253D01*
X91113893Y-113757867D01*
X91092849Y-113770480D01*
X91070671Y-113780970D01*
X91047571Y-113789235D01*
X91023773Y-113795196D01*
X90999504Y-113798796D01*
X90975000Y-113800000D01*
X89375000Y-113800000D01*
X89350496Y-113798796D01*
X89326227Y-113795196D01*
X89302429Y-113789235D01*
X89279329Y-113780970D01*
X89257151Y-113770480D01*
X89236107Y-113757867D01*
X89216402Y-113743253D01*
X89198223Y-113726777D01*
X89181747Y-113708598D01*
X89167133Y-113688893D01*
X89154520Y-113667849D01*
X89144030Y-113645671D01*
X89135765Y-113622571D01*
X89129804Y-113598773D01*
X89126204Y-113574504D01*
X89125000Y-113550000D01*
X89125000Y-111050000D01*
X89126204Y-111025496D01*
X89129804Y-111001227D01*
X89135765Y-110977429D01*
X89144030Y-110954329D01*
X89154520Y-110932151D01*
X89167133Y-110911107D01*
X89181747Y-110891402D01*
X89198223Y-110873223D01*
X89216402Y-110856747D01*
X89236107Y-110842133D01*
X89257151Y-110829520D01*
X89279329Y-110819030D01*
X89302429Y-110810765D01*
X89326227Y-110804804D01*
X89350496Y-110801204D01*
X89375000Y-110800000D01*
X90975000Y-110800000D01*
X90999504Y-110801204D01*
G37*
G36*
X99849504Y-110801204D02*
G01*
X99873773Y-110804804D01*
X99897571Y-110810765D01*
X99920671Y-110819030D01*
X99942849Y-110829520D01*
X99963893Y-110842133D01*
X99983598Y-110856747D01*
X100001777Y-110873223D01*
X100018253Y-110891402D01*
X100032867Y-110911107D01*
X100045480Y-110932151D01*
X100055970Y-110954329D01*
X100064235Y-110977429D01*
X100070196Y-111001227D01*
X100073796Y-111025496D01*
X100075000Y-111050000D01*
X100075000Y-113550000D01*
X100073796Y-113574504D01*
X100070196Y-113598773D01*
X100064235Y-113622571D01*
X100055970Y-113645671D01*
X100045480Y-113667849D01*
X100032867Y-113688893D01*
X100018253Y-113708598D01*
X100001777Y-113726777D01*
X99983598Y-113743253D01*
X99963893Y-113757867D01*
X99942849Y-113770480D01*
X99920671Y-113780970D01*
X99897571Y-113789235D01*
X99873773Y-113795196D01*
X99849504Y-113798796D01*
X99825000Y-113800000D01*
X98225000Y-113800000D01*
X98200496Y-113798796D01*
X98176227Y-113795196D01*
X98152429Y-113789235D01*
X98129329Y-113780970D01*
X98107151Y-113770480D01*
X98086107Y-113757867D01*
X98066402Y-113743253D01*
X98048223Y-113726777D01*
X98031747Y-113708598D01*
X98017133Y-113688893D01*
X98004520Y-113667849D01*
X97994030Y-113645671D01*
X97985765Y-113622571D01*
X97979804Y-113598773D01*
X97976204Y-113574504D01*
X97975000Y-113550000D01*
X97975000Y-111050000D01*
X97976204Y-111025496D01*
X97979804Y-111001227D01*
X97985765Y-110977429D01*
X97994030Y-110954329D01*
X98004520Y-110932151D01*
X98017133Y-110911107D01*
X98031747Y-110891402D01*
X98048223Y-110873223D01*
X98066402Y-110856747D01*
X98086107Y-110842133D01*
X98107151Y-110829520D01*
X98129329Y-110819030D01*
X98152429Y-110810765D01*
X98176227Y-110804804D01*
X98200496Y-110801204D01*
X98225000Y-110800000D01*
X99825000Y-110800000D01*
X99849504Y-110801204D01*
G37*
G36*
X92944603Y-108600963D02*
G01*
X92964018Y-108603843D01*
X92983057Y-108608612D01*
X93001537Y-108615224D01*
X93019279Y-108623616D01*
X93036114Y-108633706D01*
X93051879Y-108645398D01*
X93066421Y-108658579D01*
X93079602Y-108673121D01*
X93091294Y-108688886D01*
X93101384Y-108705721D01*
X93109776Y-108723463D01*
X93116388Y-108741943D01*
X93121157Y-108760982D01*
X93124037Y-108780397D01*
X93125000Y-108800000D01*
X93125000Y-110000000D01*
X93124037Y-110019603D01*
X93121157Y-110039018D01*
X93116388Y-110058057D01*
X93109776Y-110076537D01*
X93101384Y-110094279D01*
X93091294Y-110111114D01*
X93079602Y-110126879D01*
X93066421Y-110141421D01*
X93051879Y-110154602D01*
X93036114Y-110166294D01*
X93019279Y-110176384D01*
X93001537Y-110184776D01*
X92983057Y-110191388D01*
X92964018Y-110196157D01*
X92944603Y-110199037D01*
X92925000Y-110200000D01*
X92525000Y-110200000D01*
X92505397Y-110199037D01*
X92485982Y-110196157D01*
X92466943Y-110191388D01*
X92448463Y-110184776D01*
X92430721Y-110176384D01*
X92413886Y-110166294D01*
X92398121Y-110154602D01*
X92383579Y-110141421D01*
X92370398Y-110126879D01*
X92358706Y-110111114D01*
X92348616Y-110094279D01*
X92340224Y-110076537D01*
X92333612Y-110058057D01*
X92328843Y-110039018D01*
X92325963Y-110019603D01*
X92325000Y-110000000D01*
X92325000Y-108800000D01*
X92325963Y-108780397D01*
X92328843Y-108760982D01*
X92333612Y-108741943D01*
X92340224Y-108723463D01*
X92348616Y-108705721D01*
X92358706Y-108688886D01*
X92370398Y-108673121D01*
X92383579Y-108658579D01*
X92398121Y-108645398D01*
X92413886Y-108633706D01*
X92430721Y-108623616D01*
X92448463Y-108615224D01*
X92466943Y-108608612D01*
X92485982Y-108603843D01*
X92505397Y-108600963D01*
X92525000Y-108600000D01*
X92925000Y-108600000D01*
X92944603Y-108600963D01*
G37*
G36*
X94194603Y-108600963D02*
G01*
X94214018Y-108603843D01*
X94233057Y-108608612D01*
X94251537Y-108615224D01*
X94269279Y-108623616D01*
X94286114Y-108633706D01*
X94301879Y-108645398D01*
X94316421Y-108658579D01*
X94329602Y-108673121D01*
X94341294Y-108688886D01*
X94351384Y-108705721D01*
X94359776Y-108723463D01*
X94366388Y-108741943D01*
X94371157Y-108760982D01*
X94374037Y-108780397D01*
X94375000Y-108800000D01*
X94375000Y-110000000D01*
X94374037Y-110019603D01*
X94371157Y-110039018D01*
X94366388Y-110058057D01*
X94359776Y-110076537D01*
X94351384Y-110094279D01*
X94341294Y-110111114D01*
X94329602Y-110126879D01*
X94316421Y-110141421D01*
X94301879Y-110154602D01*
X94286114Y-110166294D01*
X94269279Y-110176384D01*
X94251537Y-110184776D01*
X94233057Y-110191388D01*
X94214018Y-110196157D01*
X94194603Y-110199037D01*
X94175000Y-110200000D01*
X93775000Y-110200000D01*
X93755397Y-110199037D01*
X93735982Y-110196157D01*
X93716943Y-110191388D01*
X93698463Y-110184776D01*
X93680721Y-110176384D01*
X93663886Y-110166294D01*
X93648121Y-110154602D01*
X93633579Y-110141421D01*
X93620398Y-110126879D01*
X93608706Y-110111114D01*
X93598616Y-110094279D01*
X93590224Y-110076537D01*
X93583612Y-110058057D01*
X93578843Y-110039018D01*
X93575963Y-110019603D01*
X93575000Y-110000000D01*
X93575000Y-108800000D01*
X93575963Y-108780397D01*
X93578843Y-108760982D01*
X93583612Y-108741943D01*
X93590224Y-108723463D01*
X93598616Y-108705721D01*
X93608706Y-108688886D01*
X93620398Y-108673121D01*
X93633579Y-108658579D01*
X93648121Y-108645398D01*
X93663886Y-108633706D01*
X93680721Y-108623616D01*
X93698463Y-108615224D01*
X93716943Y-108608612D01*
X93735982Y-108603843D01*
X93755397Y-108600963D01*
X93775000Y-108600000D01*
X94175000Y-108600000D01*
X94194603Y-108600963D01*
G37*
G36*
X95444603Y-108600963D02*
G01*
X95464018Y-108603843D01*
X95483057Y-108608612D01*
X95501537Y-108615224D01*
X95519279Y-108623616D01*
X95536114Y-108633706D01*
X95551879Y-108645398D01*
X95566421Y-108658579D01*
X95579602Y-108673121D01*
X95591294Y-108688886D01*
X95601384Y-108705721D01*
X95609776Y-108723463D01*
X95616388Y-108741943D01*
X95621157Y-108760982D01*
X95624037Y-108780397D01*
X95625000Y-108800000D01*
X95625000Y-110000000D01*
X95624037Y-110019603D01*
X95621157Y-110039018D01*
X95616388Y-110058057D01*
X95609776Y-110076537D01*
X95601384Y-110094279D01*
X95591294Y-110111114D01*
X95579602Y-110126879D01*
X95566421Y-110141421D01*
X95551879Y-110154602D01*
X95536114Y-110166294D01*
X95519279Y-110176384D01*
X95501537Y-110184776D01*
X95483057Y-110191388D01*
X95464018Y-110196157D01*
X95444603Y-110199037D01*
X95425000Y-110200000D01*
X95025000Y-110200000D01*
X95005397Y-110199037D01*
X94985982Y-110196157D01*
X94966943Y-110191388D01*
X94948463Y-110184776D01*
X94930721Y-110176384D01*
X94913886Y-110166294D01*
X94898121Y-110154602D01*
X94883579Y-110141421D01*
X94870398Y-110126879D01*
X94858706Y-110111114D01*
X94848616Y-110094279D01*
X94840224Y-110076537D01*
X94833612Y-110058057D01*
X94828843Y-110039018D01*
X94825963Y-110019603D01*
X94825000Y-110000000D01*
X94825000Y-108800000D01*
X94825963Y-108780397D01*
X94828843Y-108760982D01*
X94833612Y-108741943D01*
X94840224Y-108723463D01*
X94848616Y-108705721D01*
X94858706Y-108688886D01*
X94870398Y-108673121D01*
X94883579Y-108658579D01*
X94898121Y-108645398D01*
X94913886Y-108633706D01*
X94930721Y-108623616D01*
X94948463Y-108615224D01*
X94966943Y-108608612D01*
X94985982Y-108603843D01*
X95005397Y-108600963D01*
X95025000Y-108600000D01*
X95425000Y-108600000D01*
X95444603Y-108600963D01*
G37*
G36*
X96694603Y-108600963D02*
G01*
X96714018Y-108603843D01*
X96733057Y-108608612D01*
X96751537Y-108615224D01*
X96769279Y-108623616D01*
X96786114Y-108633706D01*
X96801879Y-108645398D01*
X96816421Y-108658579D01*
X96829602Y-108673121D01*
X96841294Y-108688886D01*
X96851384Y-108705721D01*
X96859776Y-108723463D01*
X96866388Y-108741943D01*
X96871157Y-108760982D01*
X96874037Y-108780397D01*
X96875000Y-108800000D01*
X96875000Y-110000000D01*
X96874037Y-110019603D01*
X96871157Y-110039018D01*
X96866388Y-110058057D01*
X96859776Y-110076537D01*
X96851384Y-110094279D01*
X96841294Y-110111114D01*
X96829602Y-110126879D01*
X96816421Y-110141421D01*
X96801879Y-110154602D01*
X96786114Y-110166294D01*
X96769279Y-110176384D01*
X96751537Y-110184776D01*
X96733057Y-110191388D01*
X96714018Y-110196157D01*
X96694603Y-110199037D01*
X96675000Y-110200000D01*
X96275000Y-110200000D01*
X96255397Y-110199037D01*
X96235982Y-110196157D01*
X96216943Y-110191388D01*
X96198463Y-110184776D01*
X96180721Y-110176384D01*
X96163886Y-110166294D01*
X96148121Y-110154602D01*
X96133579Y-110141421D01*
X96120398Y-110126879D01*
X96108706Y-110111114D01*
X96098616Y-110094279D01*
X96090224Y-110076537D01*
X96083612Y-110058057D01*
X96078843Y-110039018D01*
X96075963Y-110019603D01*
X96075000Y-110000000D01*
X96075000Y-108800000D01*
X96075963Y-108780397D01*
X96078843Y-108760982D01*
X96083612Y-108741943D01*
X96090224Y-108723463D01*
X96098616Y-108705721D01*
X96108706Y-108688886D01*
X96120398Y-108673121D01*
X96133579Y-108658579D01*
X96148121Y-108645398D01*
X96163886Y-108633706D01*
X96180721Y-108623616D01*
X96198463Y-108615224D01*
X96216943Y-108608612D01*
X96235982Y-108603843D01*
X96255397Y-108600963D01*
X96275000Y-108600000D01*
X96675000Y-108600000D01*
X96694603Y-108600963D01*
G37*
D14*
X117000000Y-75000000D03*
X83000000Y-75000000D03*
X83000000Y-119000000D03*
X117000000Y-119000000D03*
D15*
X110300000Y-85100000D03*
X110300000Y-75100000D03*
X90300000Y-85100000D03*
X90300000Y-75100000D03*
M02*
