G04 #@! TF.GenerationSoftware,KiCad,Pcbnew,(5.1.5)-3*
G04 #@! TF.CreationDate,2021-09-26T22:58:58-04:00*
G04 #@! TF.ProjectId,EPC611 LIDAR,45504336-3131-4204-9c49-4441522e6b69,rev?*
G04 #@! TF.SameCoordinates,Original*
G04 #@! TF.FileFunction,Paste,Top*
G04 #@! TF.FilePolarity,Positive*
%FSLAX46Y46*%
G04 Gerber Fmt 4.6, Leading zero omitted, Abs format (unit mm)*
G04 Created by KiCad (PCBNEW (5.1.5)-3) date 2021-09-26 22:58:58*
%MOMM*%
%LPD*%
G04 APERTURE LIST*
%ADD10C,0.010000*%
%ADD11R,0.250000X0.250000*%
%ADD12R,0.838200X0.889000*%
%ADD13R,3.708400X3.708400*%
%ADD14C,0.100000*%
%ADD15R,1.100000X1.100000*%
%ADD16C,1.000000*%
%ADD17R,1.100000X1.300000*%
%ADD18R,0.650001X0.249999*%
%ADD19C,0.250000*%
%ADD20R,2.700000X1.700000*%
%ADD21R,0.900000X0.800000*%
%ADD22R,0.800000X0.900000*%
G04 APERTURE END LIST*
D10*
G36*
X109000000Y-78800000D02*
G01*
X111600000Y-78800000D01*
X111600000Y-79200000D01*
X109000000Y-79200000D01*
X109000000Y-78800000D01*
G37*
X109000000Y-78800000D02*
X111600000Y-78800000D01*
X111600000Y-79200000D01*
X109000000Y-79200000D01*
X109000000Y-78800000D01*
G36*
X109000000Y-81000000D02*
G01*
X111600000Y-81000000D01*
X111600000Y-81400000D01*
X109000000Y-81400000D01*
X109000000Y-81000000D01*
G37*
X109000000Y-81000000D02*
X111600000Y-81000000D01*
X111600000Y-81400000D01*
X109000000Y-81400000D01*
X109000000Y-81000000D01*
G36*
X109000000Y-79650000D02*
G01*
X110150000Y-79650000D01*
X110150000Y-80550000D01*
X109000000Y-80550000D01*
X109000000Y-79650000D01*
G37*
X109000000Y-79650000D02*
X110150000Y-79650000D01*
X110150000Y-80550000D01*
X109000000Y-80550000D01*
X109000000Y-79650000D01*
G36*
X110450000Y-79650000D02*
G01*
X111600000Y-79650000D01*
X111600000Y-80550000D01*
X110450000Y-80550000D01*
X110450000Y-79650000D01*
G37*
X110450000Y-79650000D02*
X111600000Y-79650000D01*
X111600000Y-80550000D01*
X110450000Y-80550000D01*
X110450000Y-79650000D01*
G36*
X91600000Y-81400000D02*
G01*
X89000000Y-81400000D01*
X89000000Y-81000000D01*
X91600000Y-81000000D01*
X91600000Y-81400000D01*
G37*
X91600000Y-81400000D02*
X89000000Y-81400000D01*
X89000000Y-81000000D01*
X91600000Y-81000000D01*
X91600000Y-81400000D01*
G36*
X91600000Y-79200000D02*
G01*
X89000000Y-79200000D01*
X89000000Y-78800000D01*
X91600000Y-78800000D01*
X91600000Y-79200000D01*
G37*
X91600000Y-79200000D02*
X89000000Y-79200000D01*
X89000000Y-78800000D01*
X91600000Y-78800000D01*
X91600000Y-79200000D01*
G36*
X91600000Y-80550000D02*
G01*
X90450000Y-80550000D01*
X90450000Y-79650000D01*
X91600000Y-79650000D01*
X91600000Y-80550000D01*
G37*
X91600000Y-80550000D02*
X90450000Y-80550000D01*
X90450000Y-79650000D01*
X91600000Y-79650000D01*
X91600000Y-80550000D01*
G36*
X90150000Y-80550000D02*
G01*
X89000000Y-80550000D01*
X89000000Y-79650000D01*
X90150000Y-79650000D01*
X90150000Y-80550000D01*
G37*
X90150000Y-80550000D02*
X89000000Y-80550000D01*
X89000000Y-79650000D01*
X90150000Y-79650000D01*
X90150000Y-80550000D01*
D11*
X113111200Y-99849811D03*
X113111200Y-100349937D03*
X113111200Y-100850063D03*
X113111200Y-101350189D03*
X113600000Y-101350000D03*
X114100063Y-101350000D03*
X114588800Y-101350189D03*
X114588800Y-100850063D03*
X114588800Y-100349937D03*
X114588800Y-99849811D03*
X114100000Y-99850000D03*
X113599937Y-99850000D03*
D12*
X110880900Y-114062800D03*
X110880900Y-112792800D03*
X110880900Y-111522800D03*
X110880900Y-110252800D03*
X110880900Y-108982800D03*
X110880900Y-107712800D03*
X110880900Y-106442800D03*
X110880900Y-105172800D03*
X110880900Y-103902800D03*
X110880900Y-102632800D03*
X110880900Y-101362800D03*
X110880900Y-100092800D03*
X110880900Y-98822800D03*
X110880900Y-97552800D03*
X110880900Y-96282800D03*
X110880900Y-95012800D03*
X110880900Y-93742800D03*
X110880900Y-92472800D03*
X110880900Y-91202800D03*
X93719100Y-91202800D03*
X93719100Y-92472800D03*
X93719100Y-93742800D03*
X93719100Y-95012800D03*
X93719100Y-96282800D03*
X93719100Y-97552800D03*
X93719100Y-98822800D03*
X93719100Y-100092800D03*
X93719100Y-101362800D03*
X93719100Y-102632800D03*
X93719100Y-103902800D03*
X93719100Y-105172800D03*
X93719100Y-106442800D03*
X93719100Y-107712800D03*
X93719100Y-108982800D03*
X93719100Y-110252800D03*
X93719100Y-111522800D03*
X93719100Y-112792800D03*
X93719100Y-114062800D03*
D13*
X102300000Y-106308000D03*
D14*
G36*
X112786958Y-108920710D02*
G01*
X112801276Y-108922834D01*
X112815317Y-108926351D01*
X112828946Y-108931228D01*
X112842031Y-108937417D01*
X112854447Y-108944858D01*
X112866073Y-108953481D01*
X112876798Y-108963202D01*
X112886519Y-108973927D01*
X112895142Y-108985553D01*
X112902583Y-108997969D01*
X112908772Y-109011054D01*
X112913649Y-109024683D01*
X112917166Y-109038724D01*
X112919290Y-109053042D01*
X112920000Y-109067500D01*
X112920000Y-109362500D01*
X112919290Y-109376958D01*
X112917166Y-109391276D01*
X112913649Y-109405317D01*
X112908772Y-109418946D01*
X112902583Y-109432031D01*
X112895142Y-109444447D01*
X112886519Y-109456073D01*
X112876798Y-109466798D01*
X112866073Y-109476519D01*
X112854447Y-109485142D01*
X112842031Y-109492583D01*
X112828946Y-109498772D01*
X112815317Y-109503649D01*
X112801276Y-109507166D01*
X112786958Y-109509290D01*
X112772500Y-109510000D01*
X112427500Y-109510000D01*
X112413042Y-109509290D01*
X112398724Y-109507166D01*
X112384683Y-109503649D01*
X112371054Y-109498772D01*
X112357969Y-109492583D01*
X112345553Y-109485142D01*
X112333927Y-109476519D01*
X112323202Y-109466798D01*
X112313481Y-109456073D01*
X112304858Y-109444447D01*
X112297417Y-109432031D01*
X112291228Y-109418946D01*
X112286351Y-109405317D01*
X112282834Y-109391276D01*
X112280710Y-109376958D01*
X112280000Y-109362500D01*
X112280000Y-109067500D01*
X112280710Y-109053042D01*
X112282834Y-109038724D01*
X112286351Y-109024683D01*
X112291228Y-109011054D01*
X112297417Y-108997969D01*
X112304858Y-108985553D01*
X112313481Y-108973927D01*
X112323202Y-108963202D01*
X112333927Y-108953481D01*
X112345553Y-108944858D01*
X112357969Y-108937417D01*
X112371054Y-108931228D01*
X112384683Y-108926351D01*
X112398724Y-108922834D01*
X112413042Y-108920710D01*
X112427500Y-108920000D01*
X112772500Y-108920000D01*
X112786958Y-108920710D01*
G37*
G36*
X112786958Y-109890710D02*
G01*
X112801276Y-109892834D01*
X112815317Y-109896351D01*
X112828946Y-109901228D01*
X112842031Y-109907417D01*
X112854447Y-109914858D01*
X112866073Y-109923481D01*
X112876798Y-109933202D01*
X112886519Y-109943927D01*
X112895142Y-109955553D01*
X112902583Y-109967969D01*
X112908772Y-109981054D01*
X112913649Y-109994683D01*
X112917166Y-110008724D01*
X112919290Y-110023042D01*
X112920000Y-110037500D01*
X112920000Y-110332500D01*
X112919290Y-110346958D01*
X112917166Y-110361276D01*
X112913649Y-110375317D01*
X112908772Y-110388946D01*
X112902583Y-110402031D01*
X112895142Y-110414447D01*
X112886519Y-110426073D01*
X112876798Y-110436798D01*
X112866073Y-110446519D01*
X112854447Y-110455142D01*
X112842031Y-110462583D01*
X112828946Y-110468772D01*
X112815317Y-110473649D01*
X112801276Y-110477166D01*
X112786958Y-110479290D01*
X112772500Y-110480000D01*
X112427500Y-110480000D01*
X112413042Y-110479290D01*
X112398724Y-110477166D01*
X112384683Y-110473649D01*
X112371054Y-110468772D01*
X112357969Y-110462583D01*
X112345553Y-110455142D01*
X112333927Y-110446519D01*
X112323202Y-110436798D01*
X112313481Y-110426073D01*
X112304858Y-110414447D01*
X112297417Y-110402031D01*
X112291228Y-110388946D01*
X112286351Y-110375317D01*
X112282834Y-110361276D01*
X112280710Y-110346958D01*
X112280000Y-110332500D01*
X112280000Y-110037500D01*
X112280710Y-110023042D01*
X112282834Y-110008724D01*
X112286351Y-109994683D01*
X112291228Y-109981054D01*
X112297417Y-109967969D01*
X112304858Y-109955553D01*
X112313481Y-109943927D01*
X112323202Y-109933202D01*
X112333927Y-109923481D01*
X112345553Y-109914858D01*
X112357969Y-109907417D01*
X112371054Y-109901228D01*
X112384683Y-109896351D01*
X112398724Y-109892834D01*
X112413042Y-109890710D01*
X112427500Y-109890000D01*
X112772500Y-109890000D01*
X112786958Y-109890710D01*
G37*
G36*
X92686958Y-112520710D02*
G01*
X92701276Y-112522834D01*
X92715317Y-112526351D01*
X92728946Y-112531228D01*
X92742031Y-112537417D01*
X92754447Y-112544858D01*
X92766073Y-112553481D01*
X92776798Y-112563202D01*
X92786519Y-112573927D01*
X92795142Y-112585553D01*
X92802583Y-112597969D01*
X92808772Y-112611054D01*
X92813649Y-112624683D01*
X92817166Y-112638724D01*
X92819290Y-112653042D01*
X92820000Y-112667500D01*
X92820000Y-112962500D01*
X92819290Y-112976958D01*
X92817166Y-112991276D01*
X92813649Y-113005317D01*
X92808772Y-113018946D01*
X92802583Y-113032031D01*
X92795142Y-113044447D01*
X92786519Y-113056073D01*
X92776798Y-113066798D01*
X92766073Y-113076519D01*
X92754447Y-113085142D01*
X92742031Y-113092583D01*
X92728946Y-113098772D01*
X92715317Y-113103649D01*
X92701276Y-113107166D01*
X92686958Y-113109290D01*
X92672500Y-113110000D01*
X92327500Y-113110000D01*
X92313042Y-113109290D01*
X92298724Y-113107166D01*
X92284683Y-113103649D01*
X92271054Y-113098772D01*
X92257969Y-113092583D01*
X92245553Y-113085142D01*
X92233927Y-113076519D01*
X92223202Y-113066798D01*
X92213481Y-113056073D01*
X92204858Y-113044447D01*
X92197417Y-113032031D01*
X92191228Y-113018946D01*
X92186351Y-113005317D01*
X92182834Y-112991276D01*
X92180710Y-112976958D01*
X92180000Y-112962500D01*
X92180000Y-112667500D01*
X92180710Y-112653042D01*
X92182834Y-112638724D01*
X92186351Y-112624683D01*
X92191228Y-112611054D01*
X92197417Y-112597969D01*
X92204858Y-112585553D01*
X92213481Y-112573927D01*
X92223202Y-112563202D01*
X92233927Y-112553481D01*
X92245553Y-112544858D01*
X92257969Y-112537417D01*
X92271054Y-112531228D01*
X92284683Y-112526351D01*
X92298724Y-112522834D01*
X92313042Y-112520710D01*
X92327500Y-112520000D01*
X92672500Y-112520000D01*
X92686958Y-112520710D01*
G37*
G36*
X92686958Y-113490710D02*
G01*
X92701276Y-113492834D01*
X92715317Y-113496351D01*
X92728946Y-113501228D01*
X92742031Y-113507417D01*
X92754447Y-113514858D01*
X92766073Y-113523481D01*
X92776798Y-113533202D01*
X92786519Y-113543927D01*
X92795142Y-113555553D01*
X92802583Y-113567969D01*
X92808772Y-113581054D01*
X92813649Y-113594683D01*
X92817166Y-113608724D01*
X92819290Y-113623042D01*
X92820000Y-113637500D01*
X92820000Y-113932500D01*
X92819290Y-113946958D01*
X92817166Y-113961276D01*
X92813649Y-113975317D01*
X92808772Y-113988946D01*
X92802583Y-114002031D01*
X92795142Y-114014447D01*
X92786519Y-114026073D01*
X92776798Y-114036798D01*
X92766073Y-114046519D01*
X92754447Y-114055142D01*
X92742031Y-114062583D01*
X92728946Y-114068772D01*
X92715317Y-114073649D01*
X92701276Y-114077166D01*
X92686958Y-114079290D01*
X92672500Y-114080000D01*
X92327500Y-114080000D01*
X92313042Y-114079290D01*
X92298724Y-114077166D01*
X92284683Y-114073649D01*
X92271054Y-114068772D01*
X92257969Y-114062583D01*
X92245553Y-114055142D01*
X92233927Y-114046519D01*
X92223202Y-114036798D01*
X92213481Y-114026073D01*
X92204858Y-114014447D01*
X92197417Y-114002031D01*
X92191228Y-113988946D01*
X92186351Y-113975317D01*
X92182834Y-113961276D01*
X92180710Y-113946958D01*
X92180000Y-113932500D01*
X92180000Y-113637500D01*
X92180710Y-113623042D01*
X92182834Y-113608724D01*
X92186351Y-113594683D01*
X92191228Y-113581054D01*
X92197417Y-113567969D01*
X92204858Y-113555553D01*
X92213481Y-113543927D01*
X92223202Y-113533202D01*
X92233927Y-113523481D01*
X92245553Y-113514858D01*
X92257969Y-113507417D01*
X92271054Y-113501228D01*
X92284683Y-113496351D01*
X92298724Y-113492834D01*
X92313042Y-113490710D01*
X92327500Y-113490000D01*
X92672500Y-113490000D01*
X92686958Y-113490710D01*
G37*
G36*
X92586958Y-103590710D02*
G01*
X92601276Y-103592834D01*
X92615317Y-103596351D01*
X92628946Y-103601228D01*
X92642031Y-103607417D01*
X92654447Y-103614858D01*
X92666073Y-103623481D01*
X92676798Y-103633202D01*
X92686519Y-103643927D01*
X92695142Y-103655553D01*
X92702583Y-103667969D01*
X92708772Y-103681054D01*
X92713649Y-103694683D01*
X92717166Y-103708724D01*
X92719290Y-103723042D01*
X92720000Y-103737500D01*
X92720000Y-104032500D01*
X92719290Y-104046958D01*
X92717166Y-104061276D01*
X92713649Y-104075317D01*
X92708772Y-104088946D01*
X92702583Y-104102031D01*
X92695142Y-104114447D01*
X92686519Y-104126073D01*
X92676798Y-104136798D01*
X92666073Y-104146519D01*
X92654447Y-104155142D01*
X92642031Y-104162583D01*
X92628946Y-104168772D01*
X92615317Y-104173649D01*
X92601276Y-104177166D01*
X92586958Y-104179290D01*
X92572500Y-104180000D01*
X92227500Y-104180000D01*
X92213042Y-104179290D01*
X92198724Y-104177166D01*
X92184683Y-104173649D01*
X92171054Y-104168772D01*
X92157969Y-104162583D01*
X92145553Y-104155142D01*
X92133927Y-104146519D01*
X92123202Y-104136798D01*
X92113481Y-104126073D01*
X92104858Y-104114447D01*
X92097417Y-104102031D01*
X92091228Y-104088946D01*
X92086351Y-104075317D01*
X92082834Y-104061276D01*
X92080710Y-104046958D01*
X92080000Y-104032500D01*
X92080000Y-103737500D01*
X92080710Y-103723042D01*
X92082834Y-103708724D01*
X92086351Y-103694683D01*
X92091228Y-103681054D01*
X92097417Y-103667969D01*
X92104858Y-103655553D01*
X92113481Y-103643927D01*
X92123202Y-103633202D01*
X92133927Y-103623481D01*
X92145553Y-103614858D01*
X92157969Y-103607417D01*
X92171054Y-103601228D01*
X92184683Y-103596351D01*
X92198724Y-103592834D01*
X92213042Y-103590710D01*
X92227500Y-103590000D01*
X92572500Y-103590000D01*
X92586958Y-103590710D01*
G37*
G36*
X92586958Y-102620710D02*
G01*
X92601276Y-102622834D01*
X92615317Y-102626351D01*
X92628946Y-102631228D01*
X92642031Y-102637417D01*
X92654447Y-102644858D01*
X92666073Y-102653481D01*
X92676798Y-102663202D01*
X92686519Y-102673927D01*
X92695142Y-102685553D01*
X92702583Y-102697969D01*
X92708772Y-102711054D01*
X92713649Y-102724683D01*
X92717166Y-102738724D01*
X92719290Y-102753042D01*
X92720000Y-102767500D01*
X92720000Y-103062500D01*
X92719290Y-103076958D01*
X92717166Y-103091276D01*
X92713649Y-103105317D01*
X92708772Y-103118946D01*
X92702583Y-103132031D01*
X92695142Y-103144447D01*
X92686519Y-103156073D01*
X92676798Y-103166798D01*
X92666073Y-103176519D01*
X92654447Y-103185142D01*
X92642031Y-103192583D01*
X92628946Y-103198772D01*
X92615317Y-103203649D01*
X92601276Y-103207166D01*
X92586958Y-103209290D01*
X92572500Y-103210000D01*
X92227500Y-103210000D01*
X92213042Y-103209290D01*
X92198724Y-103207166D01*
X92184683Y-103203649D01*
X92171054Y-103198772D01*
X92157969Y-103192583D01*
X92145553Y-103185142D01*
X92133927Y-103176519D01*
X92123202Y-103166798D01*
X92113481Y-103156073D01*
X92104858Y-103144447D01*
X92097417Y-103132031D01*
X92091228Y-103118946D01*
X92086351Y-103105317D01*
X92082834Y-103091276D01*
X92080710Y-103076958D01*
X92080000Y-103062500D01*
X92080000Y-102767500D01*
X92080710Y-102753042D01*
X92082834Y-102738724D01*
X92086351Y-102724683D01*
X92091228Y-102711054D01*
X92097417Y-102697969D01*
X92104858Y-102685553D01*
X92113481Y-102673927D01*
X92123202Y-102663202D01*
X92133927Y-102653481D01*
X92145553Y-102644858D01*
X92157969Y-102637417D01*
X92171054Y-102631228D01*
X92184683Y-102626351D01*
X92198724Y-102622834D01*
X92213042Y-102620710D01*
X92227500Y-102620000D01*
X92572500Y-102620000D01*
X92586958Y-102620710D01*
G37*
G36*
X112877691Y-105876053D02*
G01*
X112898926Y-105879203D01*
X112919750Y-105884419D01*
X112939962Y-105891651D01*
X112959368Y-105900830D01*
X112977781Y-105911866D01*
X112995024Y-105924654D01*
X113010930Y-105939070D01*
X113025346Y-105954976D01*
X113038134Y-105972219D01*
X113049170Y-105990632D01*
X113058349Y-106010038D01*
X113065581Y-106030250D01*
X113070797Y-106051074D01*
X113073947Y-106072309D01*
X113075000Y-106093750D01*
X113075000Y-106531250D01*
X113073947Y-106552691D01*
X113070797Y-106573926D01*
X113065581Y-106594750D01*
X113058349Y-106614962D01*
X113049170Y-106634368D01*
X113038134Y-106652781D01*
X113025346Y-106670024D01*
X113010930Y-106685930D01*
X112995024Y-106700346D01*
X112977781Y-106713134D01*
X112959368Y-106724170D01*
X112939962Y-106733349D01*
X112919750Y-106740581D01*
X112898926Y-106745797D01*
X112877691Y-106748947D01*
X112856250Y-106750000D01*
X112343750Y-106750000D01*
X112322309Y-106748947D01*
X112301074Y-106745797D01*
X112280250Y-106740581D01*
X112260038Y-106733349D01*
X112240632Y-106724170D01*
X112222219Y-106713134D01*
X112204976Y-106700346D01*
X112189070Y-106685930D01*
X112174654Y-106670024D01*
X112161866Y-106652781D01*
X112150830Y-106634368D01*
X112141651Y-106614962D01*
X112134419Y-106594750D01*
X112129203Y-106573926D01*
X112126053Y-106552691D01*
X112125000Y-106531250D01*
X112125000Y-106093750D01*
X112126053Y-106072309D01*
X112129203Y-106051074D01*
X112134419Y-106030250D01*
X112141651Y-106010038D01*
X112150830Y-105990632D01*
X112161866Y-105972219D01*
X112174654Y-105954976D01*
X112189070Y-105939070D01*
X112204976Y-105924654D01*
X112222219Y-105911866D01*
X112240632Y-105900830D01*
X112260038Y-105891651D01*
X112280250Y-105884419D01*
X112301074Y-105879203D01*
X112322309Y-105876053D01*
X112343750Y-105875000D01*
X112856250Y-105875000D01*
X112877691Y-105876053D01*
G37*
G36*
X112877691Y-107451053D02*
G01*
X112898926Y-107454203D01*
X112919750Y-107459419D01*
X112939962Y-107466651D01*
X112959368Y-107475830D01*
X112977781Y-107486866D01*
X112995024Y-107499654D01*
X113010930Y-107514070D01*
X113025346Y-107529976D01*
X113038134Y-107547219D01*
X113049170Y-107565632D01*
X113058349Y-107585038D01*
X113065581Y-107605250D01*
X113070797Y-107626074D01*
X113073947Y-107647309D01*
X113075000Y-107668750D01*
X113075000Y-108106250D01*
X113073947Y-108127691D01*
X113070797Y-108148926D01*
X113065581Y-108169750D01*
X113058349Y-108189962D01*
X113049170Y-108209368D01*
X113038134Y-108227781D01*
X113025346Y-108245024D01*
X113010930Y-108260930D01*
X112995024Y-108275346D01*
X112977781Y-108288134D01*
X112959368Y-108299170D01*
X112939962Y-108308349D01*
X112919750Y-108315581D01*
X112898926Y-108320797D01*
X112877691Y-108323947D01*
X112856250Y-108325000D01*
X112343750Y-108325000D01*
X112322309Y-108323947D01*
X112301074Y-108320797D01*
X112280250Y-108315581D01*
X112260038Y-108308349D01*
X112240632Y-108299170D01*
X112222219Y-108288134D01*
X112204976Y-108275346D01*
X112189070Y-108260930D01*
X112174654Y-108245024D01*
X112161866Y-108227781D01*
X112150830Y-108209368D01*
X112141651Y-108189962D01*
X112134419Y-108169750D01*
X112129203Y-108148926D01*
X112126053Y-108127691D01*
X112125000Y-108106250D01*
X112125000Y-107668750D01*
X112126053Y-107647309D01*
X112129203Y-107626074D01*
X112134419Y-107605250D01*
X112141651Y-107585038D01*
X112150830Y-107565632D01*
X112161866Y-107547219D01*
X112174654Y-107529976D01*
X112189070Y-107514070D01*
X112204976Y-107499654D01*
X112222219Y-107486866D01*
X112240632Y-107475830D01*
X112260038Y-107466651D01*
X112280250Y-107459419D01*
X112301074Y-107454203D01*
X112322309Y-107451053D01*
X112343750Y-107450000D01*
X112856250Y-107450000D01*
X112877691Y-107451053D01*
G37*
G36*
X113186958Y-113490710D02*
G01*
X113201276Y-113492834D01*
X113215317Y-113496351D01*
X113228946Y-113501228D01*
X113242031Y-113507417D01*
X113254447Y-113514858D01*
X113266073Y-113523481D01*
X113276798Y-113533202D01*
X113286519Y-113543927D01*
X113295142Y-113555553D01*
X113302583Y-113567969D01*
X113308772Y-113581054D01*
X113313649Y-113594683D01*
X113317166Y-113608724D01*
X113319290Y-113623042D01*
X113320000Y-113637500D01*
X113320000Y-113932500D01*
X113319290Y-113946958D01*
X113317166Y-113961276D01*
X113313649Y-113975317D01*
X113308772Y-113988946D01*
X113302583Y-114002031D01*
X113295142Y-114014447D01*
X113286519Y-114026073D01*
X113276798Y-114036798D01*
X113266073Y-114046519D01*
X113254447Y-114055142D01*
X113242031Y-114062583D01*
X113228946Y-114068772D01*
X113215317Y-114073649D01*
X113201276Y-114077166D01*
X113186958Y-114079290D01*
X113172500Y-114080000D01*
X112827500Y-114080000D01*
X112813042Y-114079290D01*
X112798724Y-114077166D01*
X112784683Y-114073649D01*
X112771054Y-114068772D01*
X112757969Y-114062583D01*
X112745553Y-114055142D01*
X112733927Y-114046519D01*
X112723202Y-114036798D01*
X112713481Y-114026073D01*
X112704858Y-114014447D01*
X112697417Y-114002031D01*
X112691228Y-113988946D01*
X112686351Y-113975317D01*
X112682834Y-113961276D01*
X112680710Y-113946958D01*
X112680000Y-113932500D01*
X112680000Y-113637500D01*
X112680710Y-113623042D01*
X112682834Y-113608724D01*
X112686351Y-113594683D01*
X112691228Y-113581054D01*
X112697417Y-113567969D01*
X112704858Y-113555553D01*
X112713481Y-113543927D01*
X112723202Y-113533202D01*
X112733927Y-113523481D01*
X112745553Y-113514858D01*
X112757969Y-113507417D01*
X112771054Y-113501228D01*
X112784683Y-113496351D01*
X112798724Y-113492834D01*
X112813042Y-113490710D01*
X112827500Y-113490000D01*
X113172500Y-113490000D01*
X113186958Y-113490710D01*
G37*
G36*
X113186958Y-112520710D02*
G01*
X113201276Y-112522834D01*
X113215317Y-112526351D01*
X113228946Y-112531228D01*
X113242031Y-112537417D01*
X113254447Y-112544858D01*
X113266073Y-112553481D01*
X113276798Y-112563202D01*
X113286519Y-112573927D01*
X113295142Y-112585553D01*
X113302583Y-112597969D01*
X113308772Y-112611054D01*
X113313649Y-112624683D01*
X113317166Y-112638724D01*
X113319290Y-112653042D01*
X113320000Y-112667500D01*
X113320000Y-112962500D01*
X113319290Y-112976958D01*
X113317166Y-112991276D01*
X113313649Y-113005317D01*
X113308772Y-113018946D01*
X113302583Y-113032031D01*
X113295142Y-113044447D01*
X113286519Y-113056073D01*
X113276798Y-113066798D01*
X113266073Y-113076519D01*
X113254447Y-113085142D01*
X113242031Y-113092583D01*
X113228946Y-113098772D01*
X113215317Y-113103649D01*
X113201276Y-113107166D01*
X113186958Y-113109290D01*
X113172500Y-113110000D01*
X112827500Y-113110000D01*
X112813042Y-113109290D01*
X112798724Y-113107166D01*
X112784683Y-113103649D01*
X112771054Y-113098772D01*
X112757969Y-113092583D01*
X112745553Y-113085142D01*
X112733927Y-113076519D01*
X112723202Y-113066798D01*
X112713481Y-113056073D01*
X112704858Y-113044447D01*
X112697417Y-113032031D01*
X112691228Y-113018946D01*
X112686351Y-113005317D01*
X112682834Y-112991276D01*
X112680710Y-112976958D01*
X112680000Y-112962500D01*
X112680000Y-112667500D01*
X112680710Y-112653042D01*
X112682834Y-112638724D01*
X112686351Y-112624683D01*
X112691228Y-112611054D01*
X112697417Y-112597969D01*
X112704858Y-112585553D01*
X112713481Y-112573927D01*
X112723202Y-112563202D01*
X112733927Y-112553481D01*
X112745553Y-112544858D01*
X112757969Y-112537417D01*
X112771054Y-112531228D01*
X112784683Y-112526351D01*
X112798724Y-112522834D01*
X112813042Y-112520710D01*
X112827500Y-112520000D01*
X113172500Y-112520000D01*
X113186958Y-112520710D01*
G37*
G36*
X115380142Y-105476174D02*
G01*
X115403803Y-105479684D01*
X115427007Y-105485496D01*
X115449529Y-105493554D01*
X115471153Y-105503782D01*
X115491670Y-105516079D01*
X115510883Y-105530329D01*
X115528607Y-105546393D01*
X115544671Y-105564117D01*
X115558921Y-105583330D01*
X115571218Y-105603847D01*
X115581446Y-105625471D01*
X115589504Y-105647993D01*
X115595316Y-105671197D01*
X115598826Y-105694858D01*
X115600000Y-105718750D01*
X115600000Y-106206250D01*
X115598826Y-106230142D01*
X115595316Y-106253803D01*
X115589504Y-106277007D01*
X115581446Y-106299529D01*
X115571218Y-106321153D01*
X115558921Y-106341670D01*
X115544671Y-106360883D01*
X115528607Y-106378607D01*
X115510883Y-106394671D01*
X115491670Y-106408921D01*
X115471153Y-106421218D01*
X115449529Y-106431446D01*
X115427007Y-106439504D01*
X115403803Y-106445316D01*
X115380142Y-106448826D01*
X115356250Y-106450000D01*
X114443750Y-106450000D01*
X114419858Y-106448826D01*
X114396197Y-106445316D01*
X114372993Y-106439504D01*
X114350471Y-106431446D01*
X114328847Y-106421218D01*
X114308330Y-106408921D01*
X114289117Y-106394671D01*
X114271393Y-106378607D01*
X114255329Y-106360883D01*
X114241079Y-106341670D01*
X114228782Y-106321153D01*
X114218554Y-106299529D01*
X114210496Y-106277007D01*
X114204684Y-106253803D01*
X114201174Y-106230142D01*
X114200000Y-106206250D01*
X114200000Y-105718750D01*
X114201174Y-105694858D01*
X114204684Y-105671197D01*
X114210496Y-105647993D01*
X114218554Y-105625471D01*
X114228782Y-105603847D01*
X114241079Y-105583330D01*
X114255329Y-105564117D01*
X114271393Y-105546393D01*
X114289117Y-105530329D01*
X114308330Y-105516079D01*
X114328847Y-105503782D01*
X114350471Y-105493554D01*
X114372993Y-105485496D01*
X114396197Y-105479684D01*
X114419858Y-105476174D01*
X114443750Y-105475000D01*
X115356250Y-105475000D01*
X115380142Y-105476174D01*
G37*
G36*
X115380142Y-107351174D02*
G01*
X115403803Y-107354684D01*
X115427007Y-107360496D01*
X115449529Y-107368554D01*
X115471153Y-107378782D01*
X115491670Y-107391079D01*
X115510883Y-107405329D01*
X115528607Y-107421393D01*
X115544671Y-107439117D01*
X115558921Y-107458330D01*
X115571218Y-107478847D01*
X115581446Y-107500471D01*
X115589504Y-107522993D01*
X115595316Y-107546197D01*
X115598826Y-107569858D01*
X115600000Y-107593750D01*
X115600000Y-108081250D01*
X115598826Y-108105142D01*
X115595316Y-108128803D01*
X115589504Y-108152007D01*
X115581446Y-108174529D01*
X115571218Y-108196153D01*
X115558921Y-108216670D01*
X115544671Y-108235883D01*
X115528607Y-108253607D01*
X115510883Y-108269671D01*
X115491670Y-108283921D01*
X115471153Y-108296218D01*
X115449529Y-108306446D01*
X115427007Y-108314504D01*
X115403803Y-108320316D01*
X115380142Y-108323826D01*
X115356250Y-108325000D01*
X114443750Y-108325000D01*
X114419858Y-108323826D01*
X114396197Y-108320316D01*
X114372993Y-108314504D01*
X114350471Y-108306446D01*
X114328847Y-108296218D01*
X114308330Y-108283921D01*
X114289117Y-108269671D01*
X114271393Y-108253607D01*
X114255329Y-108235883D01*
X114241079Y-108216670D01*
X114228782Y-108196153D01*
X114218554Y-108174529D01*
X114210496Y-108152007D01*
X114204684Y-108128803D01*
X114201174Y-108105142D01*
X114200000Y-108081250D01*
X114200000Y-107593750D01*
X114201174Y-107569858D01*
X114204684Y-107546197D01*
X114210496Y-107522993D01*
X114218554Y-107500471D01*
X114228782Y-107478847D01*
X114241079Y-107458330D01*
X114255329Y-107439117D01*
X114271393Y-107421393D01*
X114289117Y-107405329D01*
X114308330Y-107391079D01*
X114328847Y-107378782D01*
X114350471Y-107368554D01*
X114372993Y-107360496D01*
X114396197Y-107354684D01*
X114419858Y-107351174D01*
X114443750Y-107350000D01*
X115356250Y-107350000D01*
X115380142Y-107351174D01*
G37*
D15*
X85600000Y-79800000D03*
X82800000Y-79800000D03*
D14*
G36*
X83008292Y-85186383D02*
G01*
X83016010Y-85187528D01*
X83023578Y-85189423D01*
X83030923Y-85192052D01*
X83037976Y-85195387D01*
X83044668Y-85199398D01*
X83050934Y-85204046D01*
X83056715Y-85209285D01*
X83061954Y-85215066D01*
X83066602Y-85221332D01*
X83070613Y-85228024D01*
X83073948Y-85235077D01*
X83076577Y-85242422D01*
X83078472Y-85249990D01*
X83079617Y-85257708D01*
X83080000Y-85265500D01*
X83080000Y-85424500D01*
X83079617Y-85432292D01*
X83078472Y-85440010D01*
X83076577Y-85447578D01*
X83073948Y-85454923D01*
X83070613Y-85461976D01*
X83066602Y-85468668D01*
X83061954Y-85474934D01*
X83056715Y-85480715D01*
X83050934Y-85485954D01*
X83044668Y-85490602D01*
X83037976Y-85494613D01*
X83030923Y-85497948D01*
X83023578Y-85500577D01*
X83016010Y-85502472D01*
X83008292Y-85503617D01*
X83000500Y-85504000D01*
X82799500Y-85504000D01*
X82791708Y-85503617D01*
X82783990Y-85502472D01*
X82776422Y-85500577D01*
X82769077Y-85497948D01*
X82762024Y-85494613D01*
X82755332Y-85490602D01*
X82749066Y-85485954D01*
X82743285Y-85480715D01*
X82738046Y-85474934D01*
X82733398Y-85468668D01*
X82729387Y-85461976D01*
X82726052Y-85454923D01*
X82723423Y-85447578D01*
X82721528Y-85440010D01*
X82720383Y-85432292D01*
X82720000Y-85424500D01*
X82720000Y-85265500D01*
X82720383Y-85257708D01*
X82721528Y-85249990D01*
X82723423Y-85242422D01*
X82726052Y-85235077D01*
X82729387Y-85228024D01*
X82733398Y-85221332D01*
X82738046Y-85215066D01*
X82743285Y-85209285D01*
X82749066Y-85204046D01*
X82755332Y-85199398D01*
X82762024Y-85195387D01*
X82769077Y-85192052D01*
X82776422Y-85189423D01*
X82783990Y-85187528D01*
X82791708Y-85186383D01*
X82799500Y-85186000D01*
X83000500Y-85186000D01*
X83008292Y-85186383D01*
G37*
G36*
X83008292Y-84496383D02*
G01*
X83016010Y-84497528D01*
X83023578Y-84499423D01*
X83030923Y-84502052D01*
X83037976Y-84505387D01*
X83044668Y-84509398D01*
X83050934Y-84514046D01*
X83056715Y-84519285D01*
X83061954Y-84525066D01*
X83066602Y-84531332D01*
X83070613Y-84538024D01*
X83073948Y-84545077D01*
X83076577Y-84552422D01*
X83078472Y-84559990D01*
X83079617Y-84567708D01*
X83080000Y-84575500D01*
X83080000Y-84734500D01*
X83079617Y-84742292D01*
X83078472Y-84750010D01*
X83076577Y-84757578D01*
X83073948Y-84764923D01*
X83070613Y-84771976D01*
X83066602Y-84778668D01*
X83061954Y-84784934D01*
X83056715Y-84790715D01*
X83050934Y-84795954D01*
X83044668Y-84800602D01*
X83037976Y-84804613D01*
X83030923Y-84807948D01*
X83023578Y-84810577D01*
X83016010Y-84812472D01*
X83008292Y-84813617D01*
X83000500Y-84814000D01*
X82799500Y-84814000D01*
X82791708Y-84813617D01*
X82783990Y-84812472D01*
X82776422Y-84810577D01*
X82769077Y-84807948D01*
X82762024Y-84804613D01*
X82755332Y-84800602D01*
X82749066Y-84795954D01*
X82743285Y-84790715D01*
X82738046Y-84784934D01*
X82733398Y-84778668D01*
X82729387Y-84771976D01*
X82726052Y-84764923D01*
X82723423Y-84757578D01*
X82721528Y-84750010D01*
X82720383Y-84742292D01*
X82720000Y-84734500D01*
X82720000Y-84575500D01*
X82720383Y-84567708D01*
X82721528Y-84559990D01*
X82723423Y-84552422D01*
X82726052Y-84545077D01*
X82729387Y-84538024D01*
X82733398Y-84531332D01*
X82738046Y-84525066D01*
X82743285Y-84519285D01*
X82749066Y-84514046D01*
X82755332Y-84509398D01*
X82762024Y-84505387D01*
X82769077Y-84502052D01*
X82776422Y-84499423D01*
X82783990Y-84497528D01*
X82791708Y-84496383D01*
X82799500Y-84496000D01*
X83000500Y-84496000D01*
X83008292Y-84496383D01*
G37*
D16*
X84600000Y-105650000D03*
D17*
X95350000Y-86150000D03*
X95350000Y-83850000D03*
X97250000Y-83850000D03*
X97250000Y-86150000D03*
D18*
X83900000Y-83000000D03*
X83900000Y-83500002D03*
X83900000Y-84000001D03*
X83900000Y-84500000D03*
X83900000Y-85000002D03*
X85150000Y-85000002D03*
X85150000Y-84500000D03*
X85150000Y-84000001D03*
X85150000Y-83500002D03*
X85150000Y-83000000D03*
D19*
X101425000Y-78975000D03*
X100975000Y-78975000D03*
X100525000Y-78975000D03*
X100075000Y-78975000D03*
X99625000Y-78975000D03*
X99175000Y-78975000D03*
X101425000Y-79425000D03*
X100975000Y-79425000D03*
X99625000Y-79425000D03*
X99175000Y-79425000D03*
X101425000Y-79875000D03*
X99175000Y-79875000D03*
X101425000Y-80325000D03*
X99175000Y-80325000D03*
X101425000Y-80775000D03*
X100975000Y-80775000D03*
X99625000Y-80775000D03*
X99175000Y-80775000D03*
X101425000Y-81225000D03*
X100975000Y-81225000D03*
X100525000Y-81225000D03*
X100075000Y-81225000D03*
X99625000Y-81225000D03*
X99175000Y-81225000D03*
D11*
X85250000Y-102375000D03*
X85250000Y-99925000D03*
D20*
X86500000Y-101150000D03*
D11*
X87750000Y-102375000D03*
X87250000Y-102375000D03*
X86750000Y-102375000D03*
X86250000Y-102375000D03*
X85750000Y-102375000D03*
X85750000Y-99925000D03*
X86250000Y-99925000D03*
X86750000Y-99925000D03*
X87250000Y-99925000D03*
X87750000Y-99925000D03*
D16*
X91900000Y-111500000D03*
X113900000Y-84300000D03*
X87300000Y-81350000D03*
X96500000Y-81100000D03*
X86400000Y-84000000D03*
X89100000Y-90650000D03*
X86100000Y-90650000D03*
D14*
G36*
X92186958Y-109990710D02*
G01*
X92201276Y-109992834D01*
X92215317Y-109996351D01*
X92228946Y-110001228D01*
X92242031Y-110007417D01*
X92254447Y-110014858D01*
X92266073Y-110023481D01*
X92276798Y-110033202D01*
X92286519Y-110043927D01*
X92295142Y-110055553D01*
X92302583Y-110067969D01*
X92308772Y-110081054D01*
X92313649Y-110094683D01*
X92317166Y-110108724D01*
X92319290Y-110123042D01*
X92320000Y-110137500D01*
X92320000Y-110432500D01*
X92319290Y-110446958D01*
X92317166Y-110461276D01*
X92313649Y-110475317D01*
X92308772Y-110488946D01*
X92302583Y-110502031D01*
X92295142Y-110514447D01*
X92286519Y-110526073D01*
X92276798Y-110536798D01*
X92266073Y-110546519D01*
X92254447Y-110555142D01*
X92242031Y-110562583D01*
X92228946Y-110568772D01*
X92215317Y-110573649D01*
X92201276Y-110577166D01*
X92186958Y-110579290D01*
X92172500Y-110580000D01*
X91827500Y-110580000D01*
X91813042Y-110579290D01*
X91798724Y-110577166D01*
X91784683Y-110573649D01*
X91771054Y-110568772D01*
X91757969Y-110562583D01*
X91745553Y-110555142D01*
X91733927Y-110546519D01*
X91723202Y-110536798D01*
X91713481Y-110526073D01*
X91704858Y-110514447D01*
X91697417Y-110502031D01*
X91691228Y-110488946D01*
X91686351Y-110475317D01*
X91682834Y-110461276D01*
X91680710Y-110446958D01*
X91680000Y-110432500D01*
X91680000Y-110137500D01*
X91680710Y-110123042D01*
X91682834Y-110108724D01*
X91686351Y-110094683D01*
X91691228Y-110081054D01*
X91697417Y-110067969D01*
X91704858Y-110055553D01*
X91713481Y-110043927D01*
X91723202Y-110033202D01*
X91733927Y-110023481D01*
X91745553Y-110014858D01*
X91757969Y-110007417D01*
X91771054Y-110001228D01*
X91784683Y-109996351D01*
X91798724Y-109992834D01*
X91813042Y-109990710D01*
X91827500Y-109990000D01*
X92172500Y-109990000D01*
X92186958Y-109990710D01*
G37*
G36*
X92186958Y-109020710D02*
G01*
X92201276Y-109022834D01*
X92215317Y-109026351D01*
X92228946Y-109031228D01*
X92242031Y-109037417D01*
X92254447Y-109044858D01*
X92266073Y-109053481D01*
X92276798Y-109063202D01*
X92286519Y-109073927D01*
X92295142Y-109085553D01*
X92302583Y-109097969D01*
X92308772Y-109111054D01*
X92313649Y-109124683D01*
X92317166Y-109138724D01*
X92319290Y-109153042D01*
X92320000Y-109167500D01*
X92320000Y-109462500D01*
X92319290Y-109476958D01*
X92317166Y-109491276D01*
X92313649Y-109505317D01*
X92308772Y-109518946D01*
X92302583Y-109532031D01*
X92295142Y-109544447D01*
X92286519Y-109556073D01*
X92276798Y-109566798D01*
X92266073Y-109576519D01*
X92254447Y-109585142D01*
X92242031Y-109592583D01*
X92228946Y-109598772D01*
X92215317Y-109603649D01*
X92201276Y-109607166D01*
X92186958Y-109609290D01*
X92172500Y-109610000D01*
X91827500Y-109610000D01*
X91813042Y-109609290D01*
X91798724Y-109607166D01*
X91784683Y-109603649D01*
X91771054Y-109598772D01*
X91757969Y-109592583D01*
X91745553Y-109585142D01*
X91733927Y-109576519D01*
X91723202Y-109566798D01*
X91713481Y-109556073D01*
X91704858Y-109544447D01*
X91697417Y-109532031D01*
X91691228Y-109518946D01*
X91686351Y-109505317D01*
X91682834Y-109491276D01*
X91680710Y-109476958D01*
X91680000Y-109462500D01*
X91680000Y-109167500D01*
X91680710Y-109153042D01*
X91682834Y-109138724D01*
X91686351Y-109124683D01*
X91691228Y-109111054D01*
X91697417Y-109097969D01*
X91704858Y-109085553D01*
X91713481Y-109073927D01*
X91723202Y-109063202D01*
X91733927Y-109053481D01*
X91745553Y-109044858D01*
X91757969Y-109037417D01*
X91771054Y-109031228D01*
X91784683Y-109026351D01*
X91798724Y-109022834D01*
X91813042Y-109020710D01*
X91827500Y-109020000D01*
X92172500Y-109020000D01*
X92186958Y-109020710D01*
G37*
G36*
X100486958Y-83190710D02*
G01*
X100501276Y-83192834D01*
X100515317Y-83196351D01*
X100528946Y-83201228D01*
X100542031Y-83207417D01*
X100554447Y-83214858D01*
X100566073Y-83223481D01*
X100576798Y-83233202D01*
X100586519Y-83243927D01*
X100595142Y-83255553D01*
X100602583Y-83267969D01*
X100608772Y-83281054D01*
X100613649Y-83294683D01*
X100617166Y-83308724D01*
X100619290Y-83323042D01*
X100620000Y-83337500D01*
X100620000Y-83632500D01*
X100619290Y-83646958D01*
X100617166Y-83661276D01*
X100613649Y-83675317D01*
X100608772Y-83688946D01*
X100602583Y-83702031D01*
X100595142Y-83714447D01*
X100586519Y-83726073D01*
X100576798Y-83736798D01*
X100566073Y-83746519D01*
X100554447Y-83755142D01*
X100542031Y-83762583D01*
X100528946Y-83768772D01*
X100515317Y-83773649D01*
X100501276Y-83777166D01*
X100486958Y-83779290D01*
X100472500Y-83780000D01*
X100127500Y-83780000D01*
X100113042Y-83779290D01*
X100098724Y-83777166D01*
X100084683Y-83773649D01*
X100071054Y-83768772D01*
X100057969Y-83762583D01*
X100045553Y-83755142D01*
X100033927Y-83746519D01*
X100023202Y-83736798D01*
X100013481Y-83726073D01*
X100004858Y-83714447D01*
X99997417Y-83702031D01*
X99991228Y-83688946D01*
X99986351Y-83675317D01*
X99982834Y-83661276D01*
X99980710Y-83646958D01*
X99980000Y-83632500D01*
X99980000Y-83337500D01*
X99980710Y-83323042D01*
X99982834Y-83308724D01*
X99986351Y-83294683D01*
X99991228Y-83281054D01*
X99997417Y-83267969D01*
X100004858Y-83255553D01*
X100013481Y-83243927D01*
X100023202Y-83233202D01*
X100033927Y-83223481D01*
X100045553Y-83214858D01*
X100057969Y-83207417D01*
X100071054Y-83201228D01*
X100084683Y-83196351D01*
X100098724Y-83192834D01*
X100113042Y-83190710D01*
X100127500Y-83190000D01*
X100472500Y-83190000D01*
X100486958Y-83190710D01*
G37*
G36*
X100486958Y-82220710D02*
G01*
X100501276Y-82222834D01*
X100515317Y-82226351D01*
X100528946Y-82231228D01*
X100542031Y-82237417D01*
X100554447Y-82244858D01*
X100566073Y-82253481D01*
X100576798Y-82263202D01*
X100586519Y-82273927D01*
X100595142Y-82285553D01*
X100602583Y-82297969D01*
X100608772Y-82311054D01*
X100613649Y-82324683D01*
X100617166Y-82338724D01*
X100619290Y-82353042D01*
X100620000Y-82367500D01*
X100620000Y-82662500D01*
X100619290Y-82676958D01*
X100617166Y-82691276D01*
X100613649Y-82705317D01*
X100608772Y-82718946D01*
X100602583Y-82732031D01*
X100595142Y-82744447D01*
X100586519Y-82756073D01*
X100576798Y-82766798D01*
X100566073Y-82776519D01*
X100554447Y-82785142D01*
X100542031Y-82792583D01*
X100528946Y-82798772D01*
X100515317Y-82803649D01*
X100501276Y-82807166D01*
X100486958Y-82809290D01*
X100472500Y-82810000D01*
X100127500Y-82810000D01*
X100113042Y-82809290D01*
X100098724Y-82807166D01*
X100084683Y-82803649D01*
X100071054Y-82798772D01*
X100057969Y-82792583D01*
X100045553Y-82785142D01*
X100033927Y-82776519D01*
X100023202Y-82766798D01*
X100013481Y-82756073D01*
X100004858Y-82744447D01*
X99997417Y-82732031D01*
X99991228Y-82718946D01*
X99986351Y-82705317D01*
X99982834Y-82691276D01*
X99980710Y-82676958D01*
X99980000Y-82662500D01*
X99980000Y-82367500D01*
X99980710Y-82353042D01*
X99982834Y-82338724D01*
X99986351Y-82324683D01*
X99991228Y-82311054D01*
X99997417Y-82297969D01*
X100004858Y-82285553D01*
X100013481Y-82273927D01*
X100023202Y-82263202D01*
X100033927Y-82253481D01*
X100045553Y-82244858D01*
X100057969Y-82237417D01*
X100071054Y-82231228D01*
X100084683Y-82226351D01*
X100098724Y-82222834D01*
X100113042Y-82220710D01*
X100127500Y-82220000D01*
X100472500Y-82220000D01*
X100486958Y-82220710D01*
G37*
G36*
X97886958Y-80820710D02*
G01*
X97901276Y-80822834D01*
X97915317Y-80826351D01*
X97928946Y-80831228D01*
X97942031Y-80837417D01*
X97954447Y-80844858D01*
X97966073Y-80853481D01*
X97976798Y-80863202D01*
X97986519Y-80873927D01*
X97995142Y-80885553D01*
X98002583Y-80897969D01*
X98008772Y-80911054D01*
X98013649Y-80924683D01*
X98017166Y-80938724D01*
X98019290Y-80953042D01*
X98020000Y-80967500D01*
X98020000Y-81262500D01*
X98019290Y-81276958D01*
X98017166Y-81291276D01*
X98013649Y-81305317D01*
X98008772Y-81318946D01*
X98002583Y-81332031D01*
X97995142Y-81344447D01*
X97986519Y-81356073D01*
X97976798Y-81366798D01*
X97966073Y-81376519D01*
X97954447Y-81385142D01*
X97942031Y-81392583D01*
X97928946Y-81398772D01*
X97915317Y-81403649D01*
X97901276Y-81407166D01*
X97886958Y-81409290D01*
X97872500Y-81410000D01*
X97527500Y-81410000D01*
X97513042Y-81409290D01*
X97498724Y-81407166D01*
X97484683Y-81403649D01*
X97471054Y-81398772D01*
X97457969Y-81392583D01*
X97445553Y-81385142D01*
X97433927Y-81376519D01*
X97423202Y-81366798D01*
X97413481Y-81356073D01*
X97404858Y-81344447D01*
X97397417Y-81332031D01*
X97391228Y-81318946D01*
X97386351Y-81305317D01*
X97382834Y-81291276D01*
X97380710Y-81276958D01*
X97380000Y-81262500D01*
X97380000Y-80967500D01*
X97380710Y-80953042D01*
X97382834Y-80938724D01*
X97386351Y-80924683D01*
X97391228Y-80911054D01*
X97397417Y-80897969D01*
X97404858Y-80885553D01*
X97413481Y-80873927D01*
X97423202Y-80863202D01*
X97433927Y-80853481D01*
X97445553Y-80844858D01*
X97457969Y-80837417D01*
X97471054Y-80831228D01*
X97484683Y-80826351D01*
X97498724Y-80822834D01*
X97513042Y-80820710D01*
X97527500Y-80820000D01*
X97872500Y-80820000D01*
X97886958Y-80820710D01*
G37*
G36*
X97886958Y-81790710D02*
G01*
X97901276Y-81792834D01*
X97915317Y-81796351D01*
X97928946Y-81801228D01*
X97942031Y-81807417D01*
X97954447Y-81814858D01*
X97966073Y-81823481D01*
X97976798Y-81833202D01*
X97986519Y-81843927D01*
X97995142Y-81855553D01*
X98002583Y-81867969D01*
X98008772Y-81881054D01*
X98013649Y-81894683D01*
X98017166Y-81908724D01*
X98019290Y-81923042D01*
X98020000Y-81937500D01*
X98020000Y-82232500D01*
X98019290Y-82246958D01*
X98017166Y-82261276D01*
X98013649Y-82275317D01*
X98008772Y-82288946D01*
X98002583Y-82302031D01*
X97995142Y-82314447D01*
X97986519Y-82326073D01*
X97976798Y-82336798D01*
X97966073Y-82346519D01*
X97954447Y-82355142D01*
X97942031Y-82362583D01*
X97928946Y-82368772D01*
X97915317Y-82373649D01*
X97901276Y-82377166D01*
X97886958Y-82379290D01*
X97872500Y-82380000D01*
X97527500Y-82380000D01*
X97513042Y-82379290D01*
X97498724Y-82377166D01*
X97484683Y-82373649D01*
X97471054Y-82368772D01*
X97457969Y-82362583D01*
X97445553Y-82355142D01*
X97433927Y-82346519D01*
X97423202Y-82336798D01*
X97413481Y-82326073D01*
X97404858Y-82314447D01*
X97397417Y-82302031D01*
X97391228Y-82288946D01*
X97386351Y-82275317D01*
X97382834Y-82261276D01*
X97380710Y-82246958D01*
X97380000Y-82232500D01*
X97380000Y-81937500D01*
X97380710Y-81923042D01*
X97382834Y-81908724D01*
X97386351Y-81894683D01*
X97391228Y-81881054D01*
X97397417Y-81867969D01*
X97404858Y-81855553D01*
X97413481Y-81843927D01*
X97423202Y-81833202D01*
X97433927Y-81823481D01*
X97445553Y-81814858D01*
X97457969Y-81807417D01*
X97471054Y-81801228D01*
X97484683Y-81796351D01*
X97498724Y-81792834D01*
X97513042Y-81790710D01*
X97527500Y-81790000D01*
X97872500Y-81790000D01*
X97886958Y-81790710D01*
G37*
G36*
X95486958Y-81790710D02*
G01*
X95501276Y-81792834D01*
X95515317Y-81796351D01*
X95528946Y-81801228D01*
X95542031Y-81807417D01*
X95554447Y-81814858D01*
X95566073Y-81823481D01*
X95576798Y-81833202D01*
X95586519Y-81843927D01*
X95595142Y-81855553D01*
X95602583Y-81867969D01*
X95608772Y-81881054D01*
X95613649Y-81894683D01*
X95617166Y-81908724D01*
X95619290Y-81923042D01*
X95620000Y-81937500D01*
X95620000Y-82232500D01*
X95619290Y-82246958D01*
X95617166Y-82261276D01*
X95613649Y-82275317D01*
X95608772Y-82288946D01*
X95602583Y-82302031D01*
X95595142Y-82314447D01*
X95586519Y-82326073D01*
X95576798Y-82336798D01*
X95566073Y-82346519D01*
X95554447Y-82355142D01*
X95542031Y-82362583D01*
X95528946Y-82368772D01*
X95515317Y-82373649D01*
X95501276Y-82377166D01*
X95486958Y-82379290D01*
X95472500Y-82380000D01*
X95127500Y-82380000D01*
X95113042Y-82379290D01*
X95098724Y-82377166D01*
X95084683Y-82373649D01*
X95071054Y-82368772D01*
X95057969Y-82362583D01*
X95045553Y-82355142D01*
X95033927Y-82346519D01*
X95023202Y-82336798D01*
X95013481Y-82326073D01*
X95004858Y-82314447D01*
X94997417Y-82302031D01*
X94991228Y-82288946D01*
X94986351Y-82275317D01*
X94982834Y-82261276D01*
X94980710Y-82246958D01*
X94980000Y-82232500D01*
X94980000Y-81937500D01*
X94980710Y-81923042D01*
X94982834Y-81908724D01*
X94986351Y-81894683D01*
X94991228Y-81881054D01*
X94997417Y-81867969D01*
X95004858Y-81855553D01*
X95013481Y-81843927D01*
X95023202Y-81833202D01*
X95033927Y-81823481D01*
X95045553Y-81814858D01*
X95057969Y-81807417D01*
X95071054Y-81801228D01*
X95084683Y-81796351D01*
X95098724Y-81792834D01*
X95113042Y-81790710D01*
X95127500Y-81790000D01*
X95472500Y-81790000D01*
X95486958Y-81790710D01*
G37*
G36*
X95486958Y-80820710D02*
G01*
X95501276Y-80822834D01*
X95515317Y-80826351D01*
X95528946Y-80831228D01*
X95542031Y-80837417D01*
X95554447Y-80844858D01*
X95566073Y-80853481D01*
X95576798Y-80863202D01*
X95586519Y-80873927D01*
X95595142Y-80885553D01*
X95602583Y-80897969D01*
X95608772Y-80911054D01*
X95613649Y-80924683D01*
X95617166Y-80938724D01*
X95619290Y-80953042D01*
X95620000Y-80967500D01*
X95620000Y-81262500D01*
X95619290Y-81276958D01*
X95617166Y-81291276D01*
X95613649Y-81305317D01*
X95608772Y-81318946D01*
X95602583Y-81332031D01*
X95595142Y-81344447D01*
X95586519Y-81356073D01*
X95576798Y-81366798D01*
X95566073Y-81376519D01*
X95554447Y-81385142D01*
X95542031Y-81392583D01*
X95528946Y-81398772D01*
X95515317Y-81403649D01*
X95501276Y-81407166D01*
X95486958Y-81409290D01*
X95472500Y-81410000D01*
X95127500Y-81410000D01*
X95113042Y-81409290D01*
X95098724Y-81407166D01*
X95084683Y-81403649D01*
X95071054Y-81398772D01*
X95057969Y-81392583D01*
X95045553Y-81385142D01*
X95033927Y-81376519D01*
X95023202Y-81366798D01*
X95013481Y-81356073D01*
X95004858Y-81344447D01*
X94997417Y-81332031D01*
X94991228Y-81318946D01*
X94986351Y-81305317D01*
X94982834Y-81291276D01*
X94980710Y-81276958D01*
X94980000Y-81262500D01*
X94980000Y-80967500D01*
X94980710Y-80953042D01*
X94982834Y-80938724D01*
X94986351Y-80924683D01*
X94991228Y-80911054D01*
X94997417Y-80897969D01*
X95004858Y-80885553D01*
X95013481Y-80873927D01*
X95023202Y-80863202D01*
X95033927Y-80853481D01*
X95045553Y-80844858D01*
X95057969Y-80837417D01*
X95071054Y-80831228D01*
X95084683Y-80826351D01*
X95098724Y-80822834D01*
X95113042Y-80820710D01*
X95127500Y-80820000D01*
X95472500Y-80820000D01*
X95486958Y-80820710D01*
G37*
G36*
X85426958Y-93080710D02*
G01*
X85441276Y-93082834D01*
X85455317Y-93086351D01*
X85468946Y-93091228D01*
X85482031Y-93097417D01*
X85494447Y-93104858D01*
X85506073Y-93113481D01*
X85516798Y-93123202D01*
X85526519Y-93133927D01*
X85535142Y-93145553D01*
X85542583Y-93157969D01*
X85548772Y-93171054D01*
X85553649Y-93184683D01*
X85557166Y-93198724D01*
X85559290Y-93213042D01*
X85560000Y-93227500D01*
X85560000Y-93572500D01*
X85559290Y-93586958D01*
X85557166Y-93601276D01*
X85553649Y-93615317D01*
X85548772Y-93628946D01*
X85542583Y-93642031D01*
X85535142Y-93654447D01*
X85526519Y-93666073D01*
X85516798Y-93676798D01*
X85506073Y-93686519D01*
X85494447Y-93695142D01*
X85482031Y-93702583D01*
X85468946Y-93708772D01*
X85455317Y-93713649D01*
X85441276Y-93717166D01*
X85426958Y-93719290D01*
X85412500Y-93720000D01*
X85117500Y-93720000D01*
X85103042Y-93719290D01*
X85088724Y-93717166D01*
X85074683Y-93713649D01*
X85061054Y-93708772D01*
X85047969Y-93702583D01*
X85035553Y-93695142D01*
X85023927Y-93686519D01*
X85013202Y-93676798D01*
X85003481Y-93666073D01*
X84994858Y-93654447D01*
X84987417Y-93642031D01*
X84981228Y-93628946D01*
X84976351Y-93615317D01*
X84972834Y-93601276D01*
X84970710Y-93586958D01*
X84970000Y-93572500D01*
X84970000Y-93227500D01*
X84970710Y-93213042D01*
X84972834Y-93198724D01*
X84976351Y-93184683D01*
X84981228Y-93171054D01*
X84987417Y-93157969D01*
X84994858Y-93145553D01*
X85003481Y-93133927D01*
X85013202Y-93123202D01*
X85023927Y-93113481D01*
X85035553Y-93104858D01*
X85047969Y-93097417D01*
X85061054Y-93091228D01*
X85074683Y-93086351D01*
X85088724Y-93082834D01*
X85103042Y-93080710D01*
X85117500Y-93080000D01*
X85412500Y-93080000D01*
X85426958Y-93080710D01*
G37*
G36*
X86396958Y-93080710D02*
G01*
X86411276Y-93082834D01*
X86425317Y-93086351D01*
X86438946Y-93091228D01*
X86452031Y-93097417D01*
X86464447Y-93104858D01*
X86476073Y-93113481D01*
X86486798Y-93123202D01*
X86496519Y-93133927D01*
X86505142Y-93145553D01*
X86512583Y-93157969D01*
X86518772Y-93171054D01*
X86523649Y-93184683D01*
X86527166Y-93198724D01*
X86529290Y-93213042D01*
X86530000Y-93227500D01*
X86530000Y-93572500D01*
X86529290Y-93586958D01*
X86527166Y-93601276D01*
X86523649Y-93615317D01*
X86518772Y-93628946D01*
X86512583Y-93642031D01*
X86505142Y-93654447D01*
X86496519Y-93666073D01*
X86486798Y-93676798D01*
X86476073Y-93686519D01*
X86464447Y-93695142D01*
X86452031Y-93702583D01*
X86438946Y-93708772D01*
X86425317Y-93713649D01*
X86411276Y-93717166D01*
X86396958Y-93719290D01*
X86382500Y-93720000D01*
X86087500Y-93720000D01*
X86073042Y-93719290D01*
X86058724Y-93717166D01*
X86044683Y-93713649D01*
X86031054Y-93708772D01*
X86017969Y-93702583D01*
X86005553Y-93695142D01*
X85993927Y-93686519D01*
X85983202Y-93676798D01*
X85973481Y-93666073D01*
X85964858Y-93654447D01*
X85957417Y-93642031D01*
X85951228Y-93628946D01*
X85946351Y-93615317D01*
X85942834Y-93601276D01*
X85940710Y-93586958D01*
X85940000Y-93572500D01*
X85940000Y-93227500D01*
X85940710Y-93213042D01*
X85942834Y-93198724D01*
X85946351Y-93184683D01*
X85951228Y-93171054D01*
X85957417Y-93157969D01*
X85964858Y-93145553D01*
X85973481Y-93133927D01*
X85983202Y-93123202D01*
X85993927Y-93113481D01*
X86005553Y-93104858D01*
X86017969Y-93097417D01*
X86031054Y-93091228D01*
X86044683Y-93086351D01*
X86058724Y-93082834D01*
X86073042Y-93080710D01*
X86087500Y-93080000D01*
X86382500Y-93080000D01*
X86396958Y-93080710D01*
G37*
G36*
X85426958Y-94080710D02*
G01*
X85441276Y-94082834D01*
X85455317Y-94086351D01*
X85468946Y-94091228D01*
X85482031Y-94097417D01*
X85494447Y-94104858D01*
X85506073Y-94113481D01*
X85516798Y-94123202D01*
X85526519Y-94133927D01*
X85535142Y-94145553D01*
X85542583Y-94157969D01*
X85548772Y-94171054D01*
X85553649Y-94184683D01*
X85557166Y-94198724D01*
X85559290Y-94213042D01*
X85560000Y-94227500D01*
X85560000Y-94572500D01*
X85559290Y-94586958D01*
X85557166Y-94601276D01*
X85553649Y-94615317D01*
X85548772Y-94628946D01*
X85542583Y-94642031D01*
X85535142Y-94654447D01*
X85526519Y-94666073D01*
X85516798Y-94676798D01*
X85506073Y-94686519D01*
X85494447Y-94695142D01*
X85482031Y-94702583D01*
X85468946Y-94708772D01*
X85455317Y-94713649D01*
X85441276Y-94717166D01*
X85426958Y-94719290D01*
X85412500Y-94720000D01*
X85117500Y-94720000D01*
X85103042Y-94719290D01*
X85088724Y-94717166D01*
X85074683Y-94713649D01*
X85061054Y-94708772D01*
X85047969Y-94702583D01*
X85035553Y-94695142D01*
X85023927Y-94686519D01*
X85013202Y-94676798D01*
X85003481Y-94666073D01*
X84994858Y-94654447D01*
X84987417Y-94642031D01*
X84981228Y-94628946D01*
X84976351Y-94615317D01*
X84972834Y-94601276D01*
X84970710Y-94586958D01*
X84970000Y-94572500D01*
X84970000Y-94227500D01*
X84970710Y-94213042D01*
X84972834Y-94198724D01*
X84976351Y-94184683D01*
X84981228Y-94171054D01*
X84987417Y-94157969D01*
X84994858Y-94145553D01*
X85003481Y-94133927D01*
X85013202Y-94123202D01*
X85023927Y-94113481D01*
X85035553Y-94104858D01*
X85047969Y-94097417D01*
X85061054Y-94091228D01*
X85074683Y-94086351D01*
X85088724Y-94082834D01*
X85103042Y-94080710D01*
X85117500Y-94080000D01*
X85412500Y-94080000D01*
X85426958Y-94080710D01*
G37*
G36*
X86396958Y-94080710D02*
G01*
X86411276Y-94082834D01*
X86425317Y-94086351D01*
X86438946Y-94091228D01*
X86452031Y-94097417D01*
X86464447Y-94104858D01*
X86476073Y-94113481D01*
X86486798Y-94123202D01*
X86496519Y-94133927D01*
X86505142Y-94145553D01*
X86512583Y-94157969D01*
X86518772Y-94171054D01*
X86523649Y-94184683D01*
X86527166Y-94198724D01*
X86529290Y-94213042D01*
X86530000Y-94227500D01*
X86530000Y-94572500D01*
X86529290Y-94586958D01*
X86527166Y-94601276D01*
X86523649Y-94615317D01*
X86518772Y-94628946D01*
X86512583Y-94642031D01*
X86505142Y-94654447D01*
X86496519Y-94666073D01*
X86486798Y-94676798D01*
X86476073Y-94686519D01*
X86464447Y-94695142D01*
X86452031Y-94702583D01*
X86438946Y-94708772D01*
X86425317Y-94713649D01*
X86411276Y-94717166D01*
X86396958Y-94719290D01*
X86382500Y-94720000D01*
X86087500Y-94720000D01*
X86073042Y-94719290D01*
X86058724Y-94717166D01*
X86044683Y-94713649D01*
X86031054Y-94708772D01*
X86017969Y-94702583D01*
X86005553Y-94695142D01*
X85993927Y-94686519D01*
X85983202Y-94676798D01*
X85973481Y-94666073D01*
X85964858Y-94654447D01*
X85957417Y-94642031D01*
X85951228Y-94628946D01*
X85946351Y-94615317D01*
X85942834Y-94601276D01*
X85940710Y-94586958D01*
X85940000Y-94572500D01*
X85940000Y-94227500D01*
X85940710Y-94213042D01*
X85942834Y-94198724D01*
X85946351Y-94184683D01*
X85951228Y-94171054D01*
X85957417Y-94157969D01*
X85964858Y-94145553D01*
X85973481Y-94133927D01*
X85983202Y-94123202D01*
X85993927Y-94113481D01*
X86005553Y-94104858D01*
X86017969Y-94097417D01*
X86031054Y-94091228D01*
X86044683Y-94086351D01*
X86058724Y-94082834D01*
X86073042Y-94080710D01*
X86087500Y-94080000D01*
X86382500Y-94080000D01*
X86396958Y-94080710D01*
G37*
G36*
X89176958Y-93080710D02*
G01*
X89191276Y-93082834D01*
X89205317Y-93086351D01*
X89218946Y-93091228D01*
X89232031Y-93097417D01*
X89244447Y-93104858D01*
X89256073Y-93113481D01*
X89266798Y-93123202D01*
X89276519Y-93133927D01*
X89285142Y-93145553D01*
X89292583Y-93157969D01*
X89298772Y-93171054D01*
X89303649Y-93184683D01*
X89307166Y-93198724D01*
X89309290Y-93213042D01*
X89310000Y-93227500D01*
X89310000Y-93572500D01*
X89309290Y-93586958D01*
X89307166Y-93601276D01*
X89303649Y-93615317D01*
X89298772Y-93628946D01*
X89292583Y-93642031D01*
X89285142Y-93654447D01*
X89276519Y-93666073D01*
X89266798Y-93676798D01*
X89256073Y-93686519D01*
X89244447Y-93695142D01*
X89232031Y-93702583D01*
X89218946Y-93708772D01*
X89205317Y-93713649D01*
X89191276Y-93717166D01*
X89176958Y-93719290D01*
X89162500Y-93720000D01*
X88867500Y-93720000D01*
X88853042Y-93719290D01*
X88838724Y-93717166D01*
X88824683Y-93713649D01*
X88811054Y-93708772D01*
X88797969Y-93702583D01*
X88785553Y-93695142D01*
X88773927Y-93686519D01*
X88763202Y-93676798D01*
X88753481Y-93666073D01*
X88744858Y-93654447D01*
X88737417Y-93642031D01*
X88731228Y-93628946D01*
X88726351Y-93615317D01*
X88722834Y-93601276D01*
X88720710Y-93586958D01*
X88720000Y-93572500D01*
X88720000Y-93227500D01*
X88720710Y-93213042D01*
X88722834Y-93198724D01*
X88726351Y-93184683D01*
X88731228Y-93171054D01*
X88737417Y-93157969D01*
X88744858Y-93145553D01*
X88753481Y-93133927D01*
X88763202Y-93123202D01*
X88773927Y-93113481D01*
X88785553Y-93104858D01*
X88797969Y-93097417D01*
X88811054Y-93091228D01*
X88824683Y-93086351D01*
X88838724Y-93082834D01*
X88853042Y-93080710D01*
X88867500Y-93080000D01*
X89162500Y-93080000D01*
X89176958Y-93080710D01*
G37*
G36*
X90146958Y-93080710D02*
G01*
X90161276Y-93082834D01*
X90175317Y-93086351D01*
X90188946Y-93091228D01*
X90202031Y-93097417D01*
X90214447Y-93104858D01*
X90226073Y-93113481D01*
X90236798Y-93123202D01*
X90246519Y-93133927D01*
X90255142Y-93145553D01*
X90262583Y-93157969D01*
X90268772Y-93171054D01*
X90273649Y-93184683D01*
X90277166Y-93198724D01*
X90279290Y-93213042D01*
X90280000Y-93227500D01*
X90280000Y-93572500D01*
X90279290Y-93586958D01*
X90277166Y-93601276D01*
X90273649Y-93615317D01*
X90268772Y-93628946D01*
X90262583Y-93642031D01*
X90255142Y-93654447D01*
X90246519Y-93666073D01*
X90236798Y-93676798D01*
X90226073Y-93686519D01*
X90214447Y-93695142D01*
X90202031Y-93702583D01*
X90188946Y-93708772D01*
X90175317Y-93713649D01*
X90161276Y-93717166D01*
X90146958Y-93719290D01*
X90132500Y-93720000D01*
X89837500Y-93720000D01*
X89823042Y-93719290D01*
X89808724Y-93717166D01*
X89794683Y-93713649D01*
X89781054Y-93708772D01*
X89767969Y-93702583D01*
X89755553Y-93695142D01*
X89743927Y-93686519D01*
X89733202Y-93676798D01*
X89723481Y-93666073D01*
X89714858Y-93654447D01*
X89707417Y-93642031D01*
X89701228Y-93628946D01*
X89696351Y-93615317D01*
X89692834Y-93601276D01*
X89690710Y-93586958D01*
X89690000Y-93572500D01*
X89690000Y-93227500D01*
X89690710Y-93213042D01*
X89692834Y-93198724D01*
X89696351Y-93184683D01*
X89701228Y-93171054D01*
X89707417Y-93157969D01*
X89714858Y-93145553D01*
X89723481Y-93133927D01*
X89733202Y-93123202D01*
X89743927Y-93113481D01*
X89755553Y-93104858D01*
X89767969Y-93097417D01*
X89781054Y-93091228D01*
X89794683Y-93086351D01*
X89808724Y-93082834D01*
X89823042Y-93080710D01*
X89837500Y-93080000D01*
X90132500Y-93080000D01*
X90146958Y-93080710D01*
G37*
G36*
X89176958Y-94080710D02*
G01*
X89191276Y-94082834D01*
X89205317Y-94086351D01*
X89218946Y-94091228D01*
X89232031Y-94097417D01*
X89244447Y-94104858D01*
X89256073Y-94113481D01*
X89266798Y-94123202D01*
X89276519Y-94133927D01*
X89285142Y-94145553D01*
X89292583Y-94157969D01*
X89298772Y-94171054D01*
X89303649Y-94184683D01*
X89307166Y-94198724D01*
X89309290Y-94213042D01*
X89310000Y-94227500D01*
X89310000Y-94572500D01*
X89309290Y-94586958D01*
X89307166Y-94601276D01*
X89303649Y-94615317D01*
X89298772Y-94628946D01*
X89292583Y-94642031D01*
X89285142Y-94654447D01*
X89276519Y-94666073D01*
X89266798Y-94676798D01*
X89256073Y-94686519D01*
X89244447Y-94695142D01*
X89232031Y-94702583D01*
X89218946Y-94708772D01*
X89205317Y-94713649D01*
X89191276Y-94717166D01*
X89176958Y-94719290D01*
X89162500Y-94720000D01*
X88867500Y-94720000D01*
X88853042Y-94719290D01*
X88838724Y-94717166D01*
X88824683Y-94713649D01*
X88811054Y-94708772D01*
X88797969Y-94702583D01*
X88785553Y-94695142D01*
X88773927Y-94686519D01*
X88763202Y-94676798D01*
X88753481Y-94666073D01*
X88744858Y-94654447D01*
X88737417Y-94642031D01*
X88731228Y-94628946D01*
X88726351Y-94615317D01*
X88722834Y-94601276D01*
X88720710Y-94586958D01*
X88720000Y-94572500D01*
X88720000Y-94227500D01*
X88720710Y-94213042D01*
X88722834Y-94198724D01*
X88726351Y-94184683D01*
X88731228Y-94171054D01*
X88737417Y-94157969D01*
X88744858Y-94145553D01*
X88753481Y-94133927D01*
X88763202Y-94123202D01*
X88773927Y-94113481D01*
X88785553Y-94104858D01*
X88797969Y-94097417D01*
X88811054Y-94091228D01*
X88824683Y-94086351D01*
X88838724Y-94082834D01*
X88853042Y-94080710D01*
X88867500Y-94080000D01*
X89162500Y-94080000D01*
X89176958Y-94080710D01*
G37*
G36*
X90146958Y-94080710D02*
G01*
X90161276Y-94082834D01*
X90175317Y-94086351D01*
X90188946Y-94091228D01*
X90202031Y-94097417D01*
X90214447Y-94104858D01*
X90226073Y-94113481D01*
X90236798Y-94123202D01*
X90246519Y-94133927D01*
X90255142Y-94145553D01*
X90262583Y-94157969D01*
X90268772Y-94171054D01*
X90273649Y-94184683D01*
X90277166Y-94198724D01*
X90279290Y-94213042D01*
X90280000Y-94227500D01*
X90280000Y-94572500D01*
X90279290Y-94586958D01*
X90277166Y-94601276D01*
X90273649Y-94615317D01*
X90268772Y-94628946D01*
X90262583Y-94642031D01*
X90255142Y-94654447D01*
X90246519Y-94666073D01*
X90236798Y-94676798D01*
X90226073Y-94686519D01*
X90214447Y-94695142D01*
X90202031Y-94702583D01*
X90188946Y-94708772D01*
X90175317Y-94713649D01*
X90161276Y-94717166D01*
X90146958Y-94719290D01*
X90132500Y-94720000D01*
X89837500Y-94720000D01*
X89823042Y-94719290D01*
X89808724Y-94717166D01*
X89794683Y-94713649D01*
X89781054Y-94708772D01*
X89767969Y-94702583D01*
X89755553Y-94695142D01*
X89743927Y-94686519D01*
X89733202Y-94676798D01*
X89723481Y-94666073D01*
X89714858Y-94654447D01*
X89707417Y-94642031D01*
X89701228Y-94628946D01*
X89696351Y-94615317D01*
X89692834Y-94601276D01*
X89690710Y-94586958D01*
X89690000Y-94572500D01*
X89690000Y-94227500D01*
X89690710Y-94213042D01*
X89692834Y-94198724D01*
X89696351Y-94184683D01*
X89701228Y-94171054D01*
X89707417Y-94157969D01*
X89714858Y-94145553D01*
X89723481Y-94133927D01*
X89733202Y-94123202D01*
X89743927Y-94113481D01*
X89755553Y-94104858D01*
X89767969Y-94097417D01*
X89781054Y-94091228D01*
X89794683Y-94086351D01*
X89808724Y-94082834D01*
X89823042Y-94080710D01*
X89837500Y-94080000D01*
X90132500Y-94080000D01*
X90146958Y-94080710D01*
G37*
G36*
X84186958Y-99620710D02*
G01*
X84201276Y-99622834D01*
X84215317Y-99626351D01*
X84228946Y-99631228D01*
X84242031Y-99637417D01*
X84254447Y-99644858D01*
X84266073Y-99653481D01*
X84276798Y-99663202D01*
X84286519Y-99673927D01*
X84295142Y-99685553D01*
X84302583Y-99697969D01*
X84308772Y-99711054D01*
X84313649Y-99724683D01*
X84317166Y-99738724D01*
X84319290Y-99753042D01*
X84320000Y-99767500D01*
X84320000Y-100062500D01*
X84319290Y-100076958D01*
X84317166Y-100091276D01*
X84313649Y-100105317D01*
X84308772Y-100118946D01*
X84302583Y-100132031D01*
X84295142Y-100144447D01*
X84286519Y-100156073D01*
X84276798Y-100166798D01*
X84266073Y-100176519D01*
X84254447Y-100185142D01*
X84242031Y-100192583D01*
X84228946Y-100198772D01*
X84215317Y-100203649D01*
X84201276Y-100207166D01*
X84186958Y-100209290D01*
X84172500Y-100210000D01*
X83827500Y-100210000D01*
X83813042Y-100209290D01*
X83798724Y-100207166D01*
X83784683Y-100203649D01*
X83771054Y-100198772D01*
X83757969Y-100192583D01*
X83745553Y-100185142D01*
X83733927Y-100176519D01*
X83723202Y-100166798D01*
X83713481Y-100156073D01*
X83704858Y-100144447D01*
X83697417Y-100132031D01*
X83691228Y-100118946D01*
X83686351Y-100105317D01*
X83682834Y-100091276D01*
X83680710Y-100076958D01*
X83680000Y-100062500D01*
X83680000Y-99767500D01*
X83680710Y-99753042D01*
X83682834Y-99738724D01*
X83686351Y-99724683D01*
X83691228Y-99711054D01*
X83697417Y-99697969D01*
X83704858Y-99685553D01*
X83713481Y-99673927D01*
X83723202Y-99663202D01*
X83733927Y-99653481D01*
X83745553Y-99644858D01*
X83757969Y-99637417D01*
X83771054Y-99631228D01*
X83784683Y-99626351D01*
X83798724Y-99622834D01*
X83813042Y-99620710D01*
X83827500Y-99620000D01*
X84172500Y-99620000D01*
X84186958Y-99620710D01*
G37*
G36*
X84186958Y-100590710D02*
G01*
X84201276Y-100592834D01*
X84215317Y-100596351D01*
X84228946Y-100601228D01*
X84242031Y-100607417D01*
X84254447Y-100614858D01*
X84266073Y-100623481D01*
X84276798Y-100633202D01*
X84286519Y-100643927D01*
X84295142Y-100655553D01*
X84302583Y-100667969D01*
X84308772Y-100681054D01*
X84313649Y-100694683D01*
X84317166Y-100708724D01*
X84319290Y-100723042D01*
X84320000Y-100737500D01*
X84320000Y-101032500D01*
X84319290Y-101046958D01*
X84317166Y-101061276D01*
X84313649Y-101075317D01*
X84308772Y-101088946D01*
X84302583Y-101102031D01*
X84295142Y-101114447D01*
X84286519Y-101126073D01*
X84276798Y-101136798D01*
X84266073Y-101146519D01*
X84254447Y-101155142D01*
X84242031Y-101162583D01*
X84228946Y-101168772D01*
X84215317Y-101173649D01*
X84201276Y-101177166D01*
X84186958Y-101179290D01*
X84172500Y-101180000D01*
X83827500Y-101180000D01*
X83813042Y-101179290D01*
X83798724Y-101177166D01*
X83784683Y-101173649D01*
X83771054Y-101168772D01*
X83757969Y-101162583D01*
X83745553Y-101155142D01*
X83733927Y-101146519D01*
X83723202Y-101136798D01*
X83713481Y-101126073D01*
X83704858Y-101114447D01*
X83697417Y-101102031D01*
X83691228Y-101088946D01*
X83686351Y-101075317D01*
X83682834Y-101061276D01*
X83680710Y-101046958D01*
X83680000Y-101032500D01*
X83680000Y-100737500D01*
X83680710Y-100723042D01*
X83682834Y-100708724D01*
X83686351Y-100694683D01*
X83691228Y-100681054D01*
X83697417Y-100667969D01*
X83704858Y-100655553D01*
X83713481Y-100643927D01*
X83723202Y-100633202D01*
X83733927Y-100623481D01*
X83745553Y-100614858D01*
X83757969Y-100607417D01*
X83771054Y-100601228D01*
X83784683Y-100596351D01*
X83798724Y-100592834D01*
X83813042Y-100590710D01*
X83827500Y-100590000D01*
X84172500Y-100590000D01*
X84186958Y-100590710D01*
G37*
G36*
X86436958Y-103120710D02*
G01*
X86451276Y-103122834D01*
X86465317Y-103126351D01*
X86478946Y-103131228D01*
X86492031Y-103137417D01*
X86504447Y-103144858D01*
X86516073Y-103153481D01*
X86526798Y-103163202D01*
X86536519Y-103173927D01*
X86545142Y-103185553D01*
X86552583Y-103197969D01*
X86558772Y-103211054D01*
X86563649Y-103224683D01*
X86567166Y-103238724D01*
X86569290Y-103253042D01*
X86570000Y-103267500D01*
X86570000Y-103562500D01*
X86569290Y-103576958D01*
X86567166Y-103591276D01*
X86563649Y-103605317D01*
X86558772Y-103618946D01*
X86552583Y-103632031D01*
X86545142Y-103644447D01*
X86536519Y-103656073D01*
X86526798Y-103666798D01*
X86516073Y-103676519D01*
X86504447Y-103685142D01*
X86492031Y-103692583D01*
X86478946Y-103698772D01*
X86465317Y-103703649D01*
X86451276Y-103707166D01*
X86436958Y-103709290D01*
X86422500Y-103710000D01*
X86077500Y-103710000D01*
X86063042Y-103709290D01*
X86048724Y-103707166D01*
X86034683Y-103703649D01*
X86021054Y-103698772D01*
X86007969Y-103692583D01*
X85995553Y-103685142D01*
X85983927Y-103676519D01*
X85973202Y-103666798D01*
X85963481Y-103656073D01*
X85954858Y-103644447D01*
X85947417Y-103632031D01*
X85941228Y-103618946D01*
X85936351Y-103605317D01*
X85932834Y-103591276D01*
X85930710Y-103576958D01*
X85930000Y-103562500D01*
X85930000Y-103267500D01*
X85930710Y-103253042D01*
X85932834Y-103238724D01*
X85936351Y-103224683D01*
X85941228Y-103211054D01*
X85947417Y-103197969D01*
X85954858Y-103185553D01*
X85963481Y-103173927D01*
X85973202Y-103163202D01*
X85983927Y-103153481D01*
X85995553Y-103144858D01*
X86007969Y-103137417D01*
X86021054Y-103131228D01*
X86034683Y-103126351D01*
X86048724Y-103122834D01*
X86063042Y-103120710D01*
X86077500Y-103120000D01*
X86422500Y-103120000D01*
X86436958Y-103120710D01*
G37*
G36*
X86436958Y-104090710D02*
G01*
X86451276Y-104092834D01*
X86465317Y-104096351D01*
X86478946Y-104101228D01*
X86492031Y-104107417D01*
X86504447Y-104114858D01*
X86516073Y-104123481D01*
X86526798Y-104133202D01*
X86536519Y-104143927D01*
X86545142Y-104155553D01*
X86552583Y-104167969D01*
X86558772Y-104181054D01*
X86563649Y-104194683D01*
X86567166Y-104208724D01*
X86569290Y-104223042D01*
X86570000Y-104237500D01*
X86570000Y-104532500D01*
X86569290Y-104546958D01*
X86567166Y-104561276D01*
X86563649Y-104575317D01*
X86558772Y-104588946D01*
X86552583Y-104602031D01*
X86545142Y-104614447D01*
X86536519Y-104626073D01*
X86526798Y-104636798D01*
X86516073Y-104646519D01*
X86504447Y-104655142D01*
X86492031Y-104662583D01*
X86478946Y-104668772D01*
X86465317Y-104673649D01*
X86451276Y-104677166D01*
X86436958Y-104679290D01*
X86422500Y-104680000D01*
X86077500Y-104680000D01*
X86063042Y-104679290D01*
X86048724Y-104677166D01*
X86034683Y-104673649D01*
X86021054Y-104668772D01*
X86007969Y-104662583D01*
X85995553Y-104655142D01*
X85983927Y-104646519D01*
X85973202Y-104636798D01*
X85963481Y-104626073D01*
X85954858Y-104614447D01*
X85947417Y-104602031D01*
X85941228Y-104588946D01*
X85936351Y-104575317D01*
X85932834Y-104561276D01*
X85930710Y-104546958D01*
X85930000Y-104532500D01*
X85930000Y-104237500D01*
X85930710Y-104223042D01*
X85932834Y-104208724D01*
X85936351Y-104194683D01*
X85941228Y-104181054D01*
X85947417Y-104167969D01*
X85954858Y-104155553D01*
X85963481Y-104143927D01*
X85973202Y-104133202D01*
X85983927Y-104123481D01*
X85995553Y-104114858D01*
X86007969Y-104107417D01*
X86021054Y-104101228D01*
X86034683Y-104096351D01*
X86048724Y-104092834D01*
X86063042Y-104090710D01*
X86077500Y-104090000D01*
X86422500Y-104090000D01*
X86436958Y-104090710D01*
G37*
G36*
X117986958Y-89890710D02*
G01*
X118001276Y-89892834D01*
X118015317Y-89896351D01*
X118028946Y-89901228D01*
X118042031Y-89907417D01*
X118054447Y-89914858D01*
X118066073Y-89923481D01*
X118076798Y-89933202D01*
X118086519Y-89943927D01*
X118095142Y-89955553D01*
X118102583Y-89967969D01*
X118108772Y-89981054D01*
X118113649Y-89994683D01*
X118117166Y-90008724D01*
X118119290Y-90023042D01*
X118120000Y-90037500D01*
X118120000Y-90332500D01*
X118119290Y-90346958D01*
X118117166Y-90361276D01*
X118113649Y-90375317D01*
X118108772Y-90388946D01*
X118102583Y-90402031D01*
X118095142Y-90414447D01*
X118086519Y-90426073D01*
X118076798Y-90436798D01*
X118066073Y-90446519D01*
X118054447Y-90455142D01*
X118042031Y-90462583D01*
X118028946Y-90468772D01*
X118015317Y-90473649D01*
X118001276Y-90477166D01*
X117986958Y-90479290D01*
X117972500Y-90480000D01*
X117627500Y-90480000D01*
X117613042Y-90479290D01*
X117598724Y-90477166D01*
X117584683Y-90473649D01*
X117571054Y-90468772D01*
X117557969Y-90462583D01*
X117545553Y-90455142D01*
X117533927Y-90446519D01*
X117523202Y-90436798D01*
X117513481Y-90426073D01*
X117504858Y-90414447D01*
X117497417Y-90402031D01*
X117491228Y-90388946D01*
X117486351Y-90375317D01*
X117482834Y-90361276D01*
X117480710Y-90346958D01*
X117480000Y-90332500D01*
X117480000Y-90037500D01*
X117480710Y-90023042D01*
X117482834Y-90008724D01*
X117486351Y-89994683D01*
X117491228Y-89981054D01*
X117497417Y-89967969D01*
X117504858Y-89955553D01*
X117513481Y-89943927D01*
X117523202Y-89933202D01*
X117533927Y-89923481D01*
X117545553Y-89914858D01*
X117557969Y-89907417D01*
X117571054Y-89901228D01*
X117584683Y-89896351D01*
X117598724Y-89892834D01*
X117613042Y-89890710D01*
X117627500Y-89890000D01*
X117972500Y-89890000D01*
X117986958Y-89890710D01*
G37*
G36*
X117986958Y-88920710D02*
G01*
X118001276Y-88922834D01*
X118015317Y-88926351D01*
X118028946Y-88931228D01*
X118042031Y-88937417D01*
X118054447Y-88944858D01*
X118066073Y-88953481D01*
X118076798Y-88963202D01*
X118086519Y-88973927D01*
X118095142Y-88985553D01*
X118102583Y-88997969D01*
X118108772Y-89011054D01*
X118113649Y-89024683D01*
X118117166Y-89038724D01*
X118119290Y-89053042D01*
X118120000Y-89067500D01*
X118120000Y-89362500D01*
X118119290Y-89376958D01*
X118117166Y-89391276D01*
X118113649Y-89405317D01*
X118108772Y-89418946D01*
X118102583Y-89432031D01*
X118095142Y-89444447D01*
X118086519Y-89456073D01*
X118076798Y-89466798D01*
X118066073Y-89476519D01*
X118054447Y-89485142D01*
X118042031Y-89492583D01*
X118028946Y-89498772D01*
X118015317Y-89503649D01*
X118001276Y-89507166D01*
X117986958Y-89509290D01*
X117972500Y-89510000D01*
X117627500Y-89510000D01*
X117613042Y-89509290D01*
X117598724Y-89507166D01*
X117584683Y-89503649D01*
X117571054Y-89498772D01*
X117557969Y-89492583D01*
X117545553Y-89485142D01*
X117533927Y-89476519D01*
X117523202Y-89466798D01*
X117513481Y-89456073D01*
X117504858Y-89444447D01*
X117497417Y-89432031D01*
X117491228Y-89418946D01*
X117486351Y-89405317D01*
X117482834Y-89391276D01*
X117480710Y-89376958D01*
X117480000Y-89362500D01*
X117480000Y-89067500D01*
X117480710Y-89053042D01*
X117482834Y-89038724D01*
X117486351Y-89024683D01*
X117491228Y-89011054D01*
X117497417Y-88997969D01*
X117504858Y-88985553D01*
X117513481Y-88973927D01*
X117523202Y-88963202D01*
X117533927Y-88953481D01*
X117545553Y-88944858D01*
X117557969Y-88937417D01*
X117571054Y-88931228D01*
X117584683Y-88926351D01*
X117598724Y-88922834D01*
X117613042Y-88920710D01*
X117627500Y-88920000D01*
X117972500Y-88920000D01*
X117986958Y-88920710D01*
G37*
G36*
X93986958Y-83070710D02*
G01*
X94001276Y-83072834D01*
X94015317Y-83076351D01*
X94028946Y-83081228D01*
X94042031Y-83087417D01*
X94054447Y-83094858D01*
X94066073Y-83103481D01*
X94076798Y-83113202D01*
X94086519Y-83123927D01*
X94095142Y-83135553D01*
X94102583Y-83147969D01*
X94108772Y-83161054D01*
X94113649Y-83174683D01*
X94117166Y-83188724D01*
X94119290Y-83203042D01*
X94120000Y-83217500D01*
X94120000Y-83512500D01*
X94119290Y-83526958D01*
X94117166Y-83541276D01*
X94113649Y-83555317D01*
X94108772Y-83568946D01*
X94102583Y-83582031D01*
X94095142Y-83594447D01*
X94086519Y-83606073D01*
X94076798Y-83616798D01*
X94066073Y-83626519D01*
X94054447Y-83635142D01*
X94042031Y-83642583D01*
X94028946Y-83648772D01*
X94015317Y-83653649D01*
X94001276Y-83657166D01*
X93986958Y-83659290D01*
X93972500Y-83660000D01*
X93627500Y-83660000D01*
X93613042Y-83659290D01*
X93598724Y-83657166D01*
X93584683Y-83653649D01*
X93571054Y-83648772D01*
X93557969Y-83642583D01*
X93545553Y-83635142D01*
X93533927Y-83626519D01*
X93523202Y-83616798D01*
X93513481Y-83606073D01*
X93504858Y-83594447D01*
X93497417Y-83582031D01*
X93491228Y-83568946D01*
X93486351Y-83555317D01*
X93482834Y-83541276D01*
X93480710Y-83526958D01*
X93480000Y-83512500D01*
X93480000Y-83217500D01*
X93480710Y-83203042D01*
X93482834Y-83188724D01*
X93486351Y-83174683D01*
X93491228Y-83161054D01*
X93497417Y-83147969D01*
X93504858Y-83135553D01*
X93513481Y-83123927D01*
X93523202Y-83113202D01*
X93533927Y-83103481D01*
X93545553Y-83094858D01*
X93557969Y-83087417D01*
X93571054Y-83081228D01*
X93584683Y-83076351D01*
X93598724Y-83072834D01*
X93613042Y-83070710D01*
X93627500Y-83070000D01*
X93972500Y-83070000D01*
X93986958Y-83070710D01*
G37*
G36*
X93986958Y-84040710D02*
G01*
X94001276Y-84042834D01*
X94015317Y-84046351D01*
X94028946Y-84051228D01*
X94042031Y-84057417D01*
X94054447Y-84064858D01*
X94066073Y-84073481D01*
X94076798Y-84083202D01*
X94086519Y-84093927D01*
X94095142Y-84105553D01*
X94102583Y-84117969D01*
X94108772Y-84131054D01*
X94113649Y-84144683D01*
X94117166Y-84158724D01*
X94119290Y-84173042D01*
X94120000Y-84187500D01*
X94120000Y-84482500D01*
X94119290Y-84496958D01*
X94117166Y-84511276D01*
X94113649Y-84525317D01*
X94108772Y-84538946D01*
X94102583Y-84552031D01*
X94095142Y-84564447D01*
X94086519Y-84576073D01*
X94076798Y-84586798D01*
X94066073Y-84596519D01*
X94054447Y-84605142D01*
X94042031Y-84612583D01*
X94028946Y-84618772D01*
X94015317Y-84623649D01*
X94001276Y-84627166D01*
X93986958Y-84629290D01*
X93972500Y-84630000D01*
X93627500Y-84630000D01*
X93613042Y-84629290D01*
X93598724Y-84627166D01*
X93584683Y-84623649D01*
X93571054Y-84618772D01*
X93557969Y-84612583D01*
X93545553Y-84605142D01*
X93533927Y-84596519D01*
X93523202Y-84586798D01*
X93513481Y-84576073D01*
X93504858Y-84564447D01*
X93497417Y-84552031D01*
X93491228Y-84538946D01*
X93486351Y-84525317D01*
X93482834Y-84511276D01*
X93480710Y-84496958D01*
X93480000Y-84482500D01*
X93480000Y-84187500D01*
X93480710Y-84173042D01*
X93482834Y-84158724D01*
X93486351Y-84144683D01*
X93491228Y-84131054D01*
X93497417Y-84117969D01*
X93504858Y-84105553D01*
X93513481Y-84093927D01*
X93523202Y-84083202D01*
X93533927Y-84073481D01*
X93545553Y-84064858D01*
X93557969Y-84057417D01*
X93571054Y-84051228D01*
X93584683Y-84046351D01*
X93598724Y-84042834D01*
X93613042Y-84040710D01*
X93627500Y-84040000D01*
X93972500Y-84040000D01*
X93986958Y-84040710D01*
G37*
G36*
X94280142Y-79676174D02*
G01*
X94303803Y-79679684D01*
X94327007Y-79685496D01*
X94349529Y-79693554D01*
X94371153Y-79703782D01*
X94391670Y-79716079D01*
X94410883Y-79730329D01*
X94428607Y-79746393D01*
X94444671Y-79764117D01*
X94458921Y-79783330D01*
X94471218Y-79803847D01*
X94481446Y-79825471D01*
X94489504Y-79847993D01*
X94495316Y-79871197D01*
X94498826Y-79894858D01*
X94500000Y-79918750D01*
X94500000Y-80406250D01*
X94498826Y-80430142D01*
X94495316Y-80453803D01*
X94489504Y-80477007D01*
X94481446Y-80499529D01*
X94471218Y-80521153D01*
X94458921Y-80541670D01*
X94444671Y-80560883D01*
X94428607Y-80578607D01*
X94410883Y-80594671D01*
X94391670Y-80608921D01*
X94371153Y-80621218D01*
X94349529Y-80631446D01*
X94327007Y-80639504D01*
X94303803Y-80645316D01*
X94280142Y-80648826D01*
X94256250Y-80650000D01*
X93343750Y-80650000D01*
X93319858Y-80648826D01*
X93296197Y-80645316D01*
X93272993Y-80639504D01*
X93250471Y-80631446D01*
X93228847Y-80621218D01*
X93208330Y-80608921D01*
X93189117Y-80594671D01*
X93171393Y-80578607D01*
X93155329Y-80560883D01*
X93141079Y-80541670D01*
X93128782Y-80521153D01*
X93118554Y-80499529D01*
X93110496Y-80477007D01*
X93104684Y-80453803D01*
X93101174Y-80430142D01*
X93100000Y-80406250D01*
X93100000Y-79918750D01*
X93101174Y-79894858D01*
X93104684Y-79871197D01*
X93110496Y-79847993D01*
X93118554Y-79825471D01*
X93128782Y-79803847D01*
X93141079Y-79783330D01*
X93155329Y-79764117D01*
X93171393Y-79746393D01*
X93189117Y-79730329D01*
X93208330Y-79716079D01*
X93228847Y-79703782D01*
X93250471Y-79693554D01*
X93272993Y-79685496D01*
X93296197Y-79679684D01*
X93319858Y-79676174D01*
X93343750Y-79675000D01*
X94256250Y-79675000D01*
X94280142Y-79676174D01*
G37*
G36*
X94280142Y-81551174D02*
G01*
X94303803Y-81554684D01*
X94327007Y-81560496D01*
X94349529Y-81568554D01*
X94371153Y-81578782D01*
X94391670Y-81591079D01*
X94410883Y-81605329D01*
X94428607Y-81621393D01*
X94444671Y-81639117D01*
X94458921Y-81658330D01*
X94471218Y-81678847D01*
X94481446Y-81700471D01*
X94489504Y-81722993D01*
X94495316Y-81746197D01*
X94498826Y-81769858D01*
X94500000Y-81793750D01*
X94500000Y-82281250D01*
X94498826Y-82305142D01*
X94495316Y-82328803D01*
X94489504Y-82352007D01*
X94481446Y-82374529D01*
X94471218Y-82396153D01*
X94458921Y-82416670D01*
X94444671Y-82435883D01*
X94428607Y-82453607D01*
X94410883Y-82469671D01*
X94391670Y-82483921D01*
X94371153Y-82496218D01*
X94349529Y-82506446D01*
X94327007Y-82514504D01*
X94303803Y-82520316D01*
X94280142Y-82523826D01*
X94256250Y-82525000D01*
X93343750Y-82525000D01*
X93319858Y-82523826D01*
X93296197Y-82520316D01*
X93272993Y-82514504D01*
X93250471Y-82506446D01*
X93228847Y-82496218D01*
X93208330Y-82483921D01*
X93189117Y-82469671D01*
X93171393Y-82453607D01*
X93155329Y-82435883D01*
X93141079Y-82416670D01*
X93128782Y-82396153D01*
X93118554Y-82374529D01*
X93110496Y-82352007D01*
X93104684Y-82328803D01*
X93101174Y-82305142D01*
X93100000Y-82281250D01*
X93100000Y-81793750D01*
X93101174Y-81769858D01*
X93104684Y-81746197D01*
X93110496Y-81722993D01*
X93118554Y-81700471D01*
X93128782Y-81678847D01*
X93141079Y-81658330D01*
X93155329Y-81639117D01*
X93171393Y-81621393D01*
X93189117Y-81605329D01*
X93208330Y-81591079D01*
X93228847Y-81578782D01*
X93250471Y-81568554D01*
X93272993Y-81560496D01*
X93296197Y-81554684D01*
X93319858Y-81551174D01*
X93343750Y-81550000D01*
X94256250Y-81550000D01*
X94280142Y-81551174D01*
G37*
D21*
X115300000Y-84300000D03*
X117300000Y-83350000D03*
X117300000Y-85250000D03*
D14*
G36*
X81202691Y-97176053D02*
G01*
X81223926Y-97179203D01*
X81244750Y-97184419D01*
X81264962Y-97191651D01*
X81284368Y-97200830D01*
X81302781Y-97211866D01*
X81320024Y-97224654D01*
X81335930Y-97239070D01*
X81350346Y-97254976D01*
X81363134Y-97272219D01*
X81374170Y-97290632D01*
X81383349Y-97310038D01*
X81390581Y-97330250D01*
X81395797Y-97351074D01*
X81398947Y-97372309D01*
X81400000Y-97393750D01*
X81400000Y-97906250D01*
X81398947Y-97927691D01*
X81395797Y-97948926D01*
X81390581Y-97969750D01*
X81383349Y-97989962D01*
X81374170Y-98009368D01*
X81363134Y-98027781D01*
X81350346Y-98045024D01*
X81335930Y-98060930D01*
X81320024Y-98075346D01*
X81302781Y-98088134D01*
X81284368Y-98099170D01*
X81264962Y-98108349D01*
X81244750Y-98115581D01*
X81223926Y-98120797D01*
X81202691Y-98123947D01*
X81181250Y-98125000D01*
X80743750Y-98125000D01*
X80722309Y-98123947D01*
X80701074Y-98120797D01*
X80680250Y-98115581D01*
X80660038Y-98108349D01*
X80640632Y-98099170D01*
X80622219Y-98088134D01*
X80604976Y-98075346D01*
X80589070Y-98060930D01*
X80574654Y-98045024D01*
X80561866Y-98027781D01*
X80550830Y-98009368D01*
X80541651Y-97989962D01*
X80534419Y-97969750D01*
X80529203Y-97948926D01*
X80526053Y-97927691D01*
X80525000Y-97906250D01*
X80525000Y-97393750D01*
X80526053Y-97372309D01*
X80529203Y-97351074D01*
X80534419Y-97330250D01*
X80541651Y-97310038D01*
X80550830Y-97290632D01*
X80561866Y-97272219D01*
X80574654Y-97254976D01*
X80589070Y-97239070D01*
X80604976Y-97224654D01*
X80622219Y-97211866D01*
X80640632Y-97200830D01*
X80660038Y-97191651D01*
X80680250Y-97184419D01*
X80701074Y-97179203D01*
X80722309Y-97176053D01*
X80743750Y-97175000D01*
X81181250Y-97175000D01*
X81202691Y-97176053D01*
G37*
G36*
X82777691Y-97176053D02*
G01*
X82798926Y-97179203D01*
X82819750Y-97184419D01*
X82839962Y-97191651D01*
X82859368Y-97200830D01*
X82877781Y-97211866D01*
X82895024Y-97224654D01*
X82910930Y-97239070D01*
X82925346Y-97254976D01*
X82938134Y-97272219D01*
X82949170Y-97290632D01*
X82958349Y-97310038D01*
X82965581Y-97330250D01*
X82970797Y-97351074D01*
X82973947Y-97372309D01*
X82975000Y-97393750D01*
X82975000Y-97906250D01*
X82973947Y-97927691D01*
X82970797Y-97948926D01*
X82965581Y-97969750D01*
X82958349Y-97989962D01*
X82949170Y-98009368D01*
X82938134Y-98027781D01*
X82925346Y-98045024D01*
X82910930Y-98060930D01*
X82895024Y-98075346D01*
X82877781Y-98088134D01*
X82859368Y-98099170D01*
X82839962Y-98108349D01*
X82819750Y-98115581D01*
X82798926Y-98120797D01*
X82777691Y-98123947D01*
X82756250Y-98125000D01*
X82318750Y-98125000D01*
X82297309Y-98123947D01*
X82276074Y-98120797D01*
X82255250Y-98115581D01*
X82235038Y-98108349D01*
X82215632Y-98099170D01*
X82197219Y-98088134D01*
X82179976Y-98075346D01*
X82164070Y-98060930D01*
X82149654Y-98045024D01*
X82136866Y-98027781D01*
X82125830Y-98009368D01*
X82116651Y-97989962D01*
X82109419Y-97969750D01*
X82104203Y-97948926D01*
X82101053Y-97927691D01*
X82100000Y-97906250D01*
X82100000Y-97393750D01*
X82101053Y-97372309D01*
X82104203Y-97351074D01*
X82109419Y-97330250D01*
X82116651Y-97310038D01*
X82125830Y-97290632D01*
X82136866Y-97272219D01*
X82149654Y-97254976D01*
X82164070Y-97239070D01*
X82179976Y-97224654D01*
X82197219Y-97211866D01*
X82215632Y-97200830D01*
X82235038Y-97191651D01*
X82255250Y-97184419D01*
X82276074Y-97179203D01*
X82297309Y-97176053D01*
X82318750Y-97175000D01*
X82756250Y-97175000D01*
X82777691Y-97176053D01*
G37*
G36*
X90624504Y-98701204D02*
G01*
X90648773Y-98704804D01*
X90672571Y-98710765D01*
X90695671Y-98719030D01*
X90717849Y-98729520D01*
X90738893Y-98742133D01*
X90758598Y-98756747D01*
X90776777Y-98773223D01*
X90793253Y-98791402D01*
X90807867Y-98811107D01*
X90820480Y-98832151D01*
X90830970Y-98854329D01*
X90839235Y-98877429D01*
X90845196Y-98901227D01*
X90848796Y-98925496D01*
X90850000Y-98950000D01*
X90850000Y-99700000D01*
X90848796Y-99724504D01*
X90845196Y-99748773D01*
X90839235Y-99772571D01*
X90830970Y-99795671D01*
X90820480Y-99817849D01*
X90807867Y-99838893D01*
X90793253Y-99858598D01*
X90776777Y-99876777D01*
X90758598Y-99893253D01*
X90738893Y-99907867D01*
X90717849Y-99920480D01*
X90695671Y-99930970D01*
X90672571Y-99939235D01*
X90648773Y-99945196D01*
X90624504Y-99948796D01*
X90600000Y-99950000D01*
X88900000Y-99950000D01*
X88875496Y-99948796D01*
X88851227Y-99945196D01*
X88827429Y-99939235D01*
X88804329Y-99930970D01*
X88782151Y-99920480D01*
X88761107Y-99907867D01*
X88741402Y-99893253D01*
X88723223Y-99876777D01*
X88706747Y-99858598D01*
X88692133Y-99838893D01*
X88679520Y-99817849D01*
X88669030Y-99795671D01*
X88660765Y-99772571D01*
X88654804Y-99748773D01*
X88651204Y-99724504D01*
X88650000Y-99700000D01*
X88650000Y-98950000D01*
X88651204Y-98925496D01*
X88654804Y-98901227D01*
X88660765Y-98877429D01*
X88669030Y-98854329D01*
X88679520Y-98832151D01*
X88692133Y-98811107D01*
X88706747Y-98791402D01*
X88723223Y-98773223D01*
X88741402Y-98756747D01*
X88761107Y-98742133D01*
X88782151Y-98729520D01*
X88804329Y-98719030D01*
X88827429Y-98710765D01*
X88851227Y-98704804D01*
X88875496Y-98701204D01*
X88900000Y-98700000D01*
X90600000Y-98700000D01*
X90624504Y-98701204D01*
G37*
G36*
X90624504Y-100851204D02*
G01*
X90648773Y-100854804D01*
X90672571Y-100860765D01*
X90695671Y-100869030D01*
X90717849Y-100879520D01*
X90738893Y-100892133D01*
X90758598Y-100906747D01*
X90776777Y-100923223D01*
X90793253Y-100941402D01*
X90807867Y-100961107D01*
X90820480Y-100982151D01*
X90830970Y-101004329D01*
X90839235Y-101027429D01*
X90845196Y-101051227D01*
X90848796Y-101075496D01*
X90850000Y-101100000D01*
X90850000Y-101850000D01*
X90848796Y-101874504D01*
X90845196Y-101898773D01*
X90839235Y-101922571D01*
X90830970Y-101945671D01*
X90820480Y-101967849D01*
X90807867Y-101988893D01*
X90793253Y-102008598D01*
X90776777Y-102026777D01*
X90758598Y-102043253D01*
X90738893Y-102057867D01*
X90717849Y-102070480D01*
X90695671Y-102080970D01*
X90672571Y-102089235D01*
X90648773Y-102095196D01*
X90624504Y-102098796D01*
X90600000Y-102100000D01*
X88900000Y-102100000D01*
X88875496Y-102098796D01*
X88851227Y-102095196D01*
X88827429Y-102089235D01*
X88804329Y-102080970D01*
X88782151Y-102070480D01*
X88761107Y-102057867D01*
X88741402Y-102043253D01*
X88723223Y-102026777D01*
X88706747Y-102008598D01*
X88692133Y-101988893D01*
X88679520Y-101967849D01*
X88669030Y-101945671D01*
X88660765Y-101922571D01*
X88654804Y-101898773D01*
X88651204Y-101874504D01*
X88650000Y-101850000D01*
X88650000Y-101100000D01*
X88651204Y-101075496D01*
X88654804Y-101051227D01*
X88660765Y-101027429D01*
X88669030Y-101004329D01*
X88679520Y-100982151D01*
X88692133Y-100961107D01*
X88706747Y-100941402D01*
X88723223Y-100923223D01*
X88741402Y-100906747D01*
X88761107Y-100892133D01*
X88782151Y-100879520D01*
X88804329Y-100869030D01*
X88827429Y-100860765D01*
X88851227Y-100854804D01*
X88875496Y-100851204D01*
X88900000Y-100850000D01*
X90600000Y-100850000D01*
X90624504Y-100851204D01*
G37*
D16*
X105700000Y-82600000D03*
X104900000Y-84000000D03*
X103300000Y-84000000D03*
X104100000Y-82600000D03*
X102500000Y-82600000D03*
D21*
X97500000Y-78850000D03*
X95500000Y-79800000D03*
X95500000Y-77900000D03*
D22*
X85250000Y-97650000D03*
X84300000Y-95650000D03*
X86200000Y-95650000D03*
X89000000Y-95650000D03*
X89950000Y-97650000D03*
X88050000Y-97650000D03*
D14*
G36*
X113786958Y-102070710D02*
G01*
X113801276Y-102072834D01*
X113815317Y-102076351D01*
X113828946Y-102081228D01*
X113842031Y-102087417D01*
X113854447Y-102094858D01*
X113866073Y-102103481D01*
X113876798Y-102113202D01*
X113886519Y-102123927D01*
X113895142Y-102135553D01*
X113902583Y-102147969D01*
X113908772Y-102161054D01*
X113913649Y-102174683D01*
X113917166Y-102188724D01*
X113919290Y-102203042D01*
X113920000Y-102217500D01*
X113920000Y-102512500D01*
X113919290Y-102526958D01*
X113917166Y-102541276D01*
X113913649Y-102555317D01*
X113908772Y-102568946D01*
X113902583Y-102582031D01*
X113895142Y-102594447D01*
X113886519Y-102606073D01*
X113876798Y-102616798D01*
X113866073Y-102626519D01*
X113854447Y-102635142D01*
X113842031Y-102642583D01*
X113828946Y-102648772D01*
X113815317Y-102653649D01*
X113801276Y-102657166D01*
X113786958Y-102659290D01*
X113772500Y-102660000D01*
X113427500Y-102660000D01*
X113413042Y-102659290D01*
X113398724Y-102657166D01*
X113384683Y-102653649D01*
X113371054Y-102648772D01*
X113357969Y-102642583D01*
X113345553Y-102635142D01*
X113333927Y-102626519D01*
X113323202Y-102616798D01*
X113313481Y-102606073D01*
X113304858Y-102594447D01*
X113297417Y-102582031D01*
X113291228Y-102568946D01*
X113286351Y-102555317D01*
X113282834Y-102541276D01*
X113280710Y-102526958D01*
X113280000Y-102512500D01*
X113280000Y-102217500D01*
X113280710Y-102203042D01*
X113282834Y-102188724D01*
X113286351Y-102174683D01*
X113291228Y-102161054D01*
X113297417Y-102147969D01*
X113304858Y-102135553D01*
X113313481Y-102123927D01*
X113323202Y-102113202D01*
X113333927Y-102103481D01*
X113345553Y-102094858D01*
X113357969Y-102087417D01*
X113371054Y-102081228D01*
X113384683Y-102076351D01*
X113398724Y-102072834D01*
X113413042Y-102070710D01*
X113427500Y-102070000D01*
X113772500Y-102070000D01*
X113786958Y-102070710D01*
G37*
G36*
X113786958Y-103040710D02*
G01*
X113801276Y-103042834D01*
X113815317Y-103046351D01*
X113828946Y-103051228D01*
X113842031Y-103057417D01*
X113854447Y-103064858D01*
X113866073Y-103073481D01*
X113876798Y-103083202D01*
X113886519Y-103093927D01*
X113895142Y-103105553D01*
X113902583Y-103117969D01*
X113908772Y-103131054D01*
X113913649Y-103144683D01*
X113917166Y-103158724D01*
X113919290Y-103173042D01*
X113920000Y-103187500D01*
X113920000Y-103482500D01*
X113919290Y-103496958D01*
X113917166Y-103511276D01*
X113913649Y-103525317D01*
X113908772Y-103538946D01*
X113902583Y-103552031D01*
X113895142Y-103564447D01*
X113886519Y-103576073D01*
X113876798Y-103586798D01*
X113866073Y-103596519D01*
X113854447Y-103605142D01*
X113842031Y-103612583D01*
X113828946Y-103618772D01*
X113815317Y-103623649D01*
X113801276Y-103627166D01*
X113786958Y-103629290D01*
X113772500Y-103630000D01*
X113427500Y-103630000D01*
X113413042Y-103629290D01*
X113398724Y-103627166D01*
X113384683Y-103623649D01*
X113371054Y-103618772D01*
X113357969Y-103612583D01*
X113345553Y-103605142D01*
X113333927Y-103596519D01*
X113323202Y-103586798D01*
X113313481Y-103576073D01*
X113304858Y-103564447D01*
X113297417Y-103552031D01*
X113291228Y-103538946D01*
X113286351Y-103525317D01*
X113282834Y-103511276D01*
X113280710Y-103496958D01*
X113280000Y-103482500D01*
X113280000Y-103187500D01*
X113280710Y-103173042D01*
X113282834Y-103158724D01*
X113286351Y-103144683D01*
X113291228Y-103131054D01*
X113297417Y-103117969D01*
X113304858Y-103105553D01*
X113313481Y-103093927D01*
X113323202Y-103083202D01*
X113333927Y-103073481D01*
X113345553Y-103064858D01*
X113357969Y-103057417D01*
X113371054Y-103051228D01*
X113384683Y-103046351D01*
X113398724Y-103042834D01*
X113413042Y-103040710D01*
X113427500Y-103040000D01*
X113772500Y-103040000D01*
X113786958Y-103040710D01*
G37*
G36*
X117580142Y-101751174D02*
G01*
X117603803Y-101754684D01*
X117627007Y-101760496D01*
X117649529Y-101768554D01*
X117671153Y-101778782D01*
X117691670Y-101791079D01*
X117710883Y-101805329D01*
X117728607Y-101821393D01*
X117744671Y-101839117D01*
X117758921Y-101858330D01*
X117771218Y-101878847D01*
X117781446Y-101900471D01*
X117789504Y-101922993D01*
X117795316Y-101946197D01*
X117798826Y-101969858D01*
X117800000Y-101993750D01*
X117800000Y-102481250D01*
X117798826Y-102505142D01*
X117795316Y-102528803D01*
X117789504Y-102552007D01*
X117781446Y-102574529D01*
X117771218Y-102596153D01*
X117758921Y-102616670D01*
X117744671Y-102635883D01*
X117728607Y-102653607D01*
X117710883Y-102669671D01*
X117691670Y-102683921D01*
X117671153Y-102696218D01*
X117649529Y-102706446D01*
X117627007Y-102714504D01*
X117603803Y-102720316D01*
X117580142Y-102723826D01*
X117556250Y-102725000D01*
X116643750Y-102725000D01*
X116619858Y-102723826D01*
X116596197Y-102720316D01*
X116572993Y-102714504D01*
X116550471Y-102706446D01*
X116528847Y-102696218D01*
X116508330Y-102683921D01*
X116489117Y-102669671D01*
X116471393Y-102653607D01*
X116455329Y-102635883D01*
X116441079Y-102616670D01*
X116428782Y-102596153D01*
X116418554Y-102574529D01*
X116410496Y-102552007D01*
X116404684Y-102528803D01*
X116401174Y-102505142D01*
X116400000Y-102481250D01*
X116400000Y-101993750D01*
X116401174Y-101969858D01*
X116404684Y-101946197D01*
X116410496Y-101922993D01*
X116418554Y-101900471D01*
X116428782Y-101878847D01*
X116441079Y-101858330D01*
X116455329Y-101839117D01*
X116471393Y-101821393D01*
X116489117Y-101805329D01*
X116508330Y-101791079D01*
X116528847Y-101778782D01*
X116550471Y-101768554D01*
X116572993Y-101760496D01*
X116596197Y-101754684D01*
X116619858Y-101751174D01*
X116643750Y-101750000D01*
X117556250Y-101750000D01*
X117580142Y-101751174D01*
G37*
G36*
X117580142Y-99876174D02*
G01*
X117603803Y-99879684D01*
X117627007Y-99885496D01*
X117649529Y-99893554D01*
X117671153Y-99903782D01*
X117691670Y-99916079D01*
X117710883Y-99930329D01*
X117728607Y-99946393D01*
X117744671Y-99964117D01*
X117758921Y-99983330D01*
X117771218Y-100003847D01*
X117781446Y-100025471D01*
X117789504Y-100047993D01*
X117795316Y-100071197D01*
X117798826Y-100094858D01*
X117800000Y-100118750D01*
X117800000Y-100606250D01*
X117798826Y-100630142D01*
X117795316Y-100653803D01*
X117789504Y-100677007D01*
X117781446Y-100699529D01*
X117771218Y-100721153D01*
X117758921Y-100741670D01*
X117744671Y-100760883D01*
X117728607Y-100778607D01*
X117710883Y-100794671D01*
X117691670Y-100808921D01*
X117671153Y-100821218D01*
X117649529Y-100831446D01*
X117627007Y-100839504D01*
X117603803Y-100845316D01*
X117580142Y-100848826D01*
X117556250Y-100850000D01*
X116643750Y-100850000D01*
X116619858Y-100848826D01*
X116596197Y-100845316D01*
X116572993Y-100839504D01*
X116550471Y-100831446D01*
X116528847Y-100821218D01*
X116508330Y-100808921D01*
X116489117Y-100794671D01*
X116471393Y-100778607D01*
X116455329Y-100760883D01*
X116441079Y-100741670D01*
X116428782Y-100721153D01*
X116418554Y-100699529D01*
X116410496Y-100677007D01*
X116404684Y-100653803D01*
X116401174Y-100630142D01*
X116400000Y-100606250D01*
X116400000Y-100118750D01*
X116401174Y-100094858D01*
X116404684Y-100071197D01*
X116410496Y-100047993D01*
X116418554Y-100025471D01*
X116428782Y-100003847D01*
X116441079Y-99983330D01*
X116455329Y-99964117D01*
X116471393Y-99946393D01*
X116489117Y-99930329D01*
X116508330Y-99916079D01*
X116528847Y-99903782D01*
X116550471Y-99893554D01*
X116572993Y-99885496D01*
X116596197Y-99879684D01*
X116619858Y-99876174D01*
X116643750Y-99875000D01*
X117556250Y-99875000D01*
X117580142Y-99876174D01*
G37*
G36*
X115786958Y-100990710D02*
G01*
X115801276Y-100992834D01*
X115815317Y-100996351D01*
X115828946Y-101001228D01*
X115842031Y-101007417D01*
X115854447Y-101014858D01*
X115866073Y-101023481D01*
X115876798Y-101033202D01*
X115886519Y-101043927D01*
X115895142Y-101055553D01*
X115902583Y-101067969D01*
X115908772Y-101081054D01*
X115913649Y-101094683D01*
X115917166Y-101108724D01*
X115919290Y-101123042D01*
X115920000Y-101137500D01*
X115920000Y-101432500D01*
X115919290Y-101446958D01*
X115917166Y-101461276D01*
X115913649Y-101475317D01*
X115908772Y-101488946D01*
X115902583Y-101502031D01*
X115895142Y-101514447D01*
X115886519Y-101526073D01*
X115876798Y-101536798D01*
X115866073Y-101546519D01*
X115854447Y-101555142D01*
X115842031Y-101562583D01*
X115828946Y-101568772D01*
X115815317Y-101573649D01*
X115801276Y-101577166D01*
X115786958Y-101579290D01*
X115772500Y-101580000D01*
X115427500Y-101580000D01*
X115413042Y-101579290D01*
X115398724Y-101577166D01*
X115384683Y-101573649D01*
X115371054Y-101568772D01*
X115357969Y-101562583D01*
X115345553Y-101555142D01*
X115333927Y-101546519D01*
X115323202Y-101536798D01*
X115313481Y-101526073D01*
X115304858Y-101514447D01*
X115297417Y-101502031D01*
X115291228Y-101488946D01*
X115286351Y-101475317D01*
X115282834Y-101461276D01*
X115280710Y-101446958D01*
X115280000Y-101432500D01*
X115280000Y-101137500D01*
X115280710Y-101123042D01*
X115282834Y-101108724D01*
X115286351Y-101094683D01*
X115291228Y-101081054D01*
X115297417Y-101067969D01*
X115304858Y-101055553D01*
X115313481Y-101043927D01*
X115323202Y-101033202D01*
X115333927Y-101023481D01*
X115345553Y-101014858D01*
X115357969Y-101007417D01*
X115371054Y-101001228D01*
X115384683Y-100996351D01*
X115398724Y-100992834D01*
X115413042Y-100990710D01*
X115427500Y-100990000D01*
X115772500Y-100990000D01*
X115786958Y-100990710D01*
G37*
G36*
X115786958Y-100020710D02*
G01*
X115801276Y-100022834D01*
X115815317Y-100026351D01*
X115828946Y-100031228D01*
X115842031Y-100037417D01*
X115854447Y-100044858D01*
X115866073Y-100053481D01*
X115876798Y-100063202D01*
X115886519Y-100073927D01*
X115895142Y-100085553D01*
X115902583Y-100097969D01*
X115908772Y-100111054D01*
X115913649Y-100124683D01*
X115917166Y-100138724D01*
X115919290Y-100153042D01*
X115920000Y-100167500D01*
X115920000Y-100462500D01*
X115919290Y-100476958D01*
X115917166Y-100491276D01*
X115913649Y-100505317D01*
X115908772Y-100518946D01*
X115902583Y-100532031D01*
X115895142Y-100544447D01*
X115886519Y-100556073D01*
X115876798Y-100566798D01*
X115866073Y-100576519D01*
X115854447Y-100585142D01*
X115842031Y-100592583D01*
X115828946Y-100598772D01*
X115815317Y-100603649D01*
X115801276Y-100607166D01*
X115786958Y-100609290D01*
X115772500Y-100610000D01*
X115427500Y-100610000D01*
X115413042Y-100609290D01*
X115398724Y-100607166D01*
X115384683Y-100603649D01*
X115371054Y-100598772D01*
X115357969Y-100592583D01*
X115345553Y-100585142D01*
X115333927Y-100576519D01*
X115323202Y-100566798D01*
X115313481Y-100556073D01*
X115304858Y-100544447D01*
X115297417Y-100532031D01*
X115291228Y-100518946D01*
X115286351Y-100505317D01*
X115282834Y-100491276D01*
X115280710Y-100476958D01*
X115280000Y-100462500D01*
X115280000Y-100167500D01*
X115280710Y-100153042D01*
X115282834Y-100138724D01*
X115286351Y-100124683D01*
X115291228Y-100111054D01*
X115297417Y-100097969D01*
X115304858Y-100085553D01*
X115313481Y-100073927D01*
X115323202Y-100063202D01*
X115333927Y-100053481D01*
X115345553Y-100044858D01*
X115357969Y-100037417D01*
X115371054Y-100031228D01*
X115384683Y-100026351D01*
X115398724Y-100022834D01*
X115413042Y-100020710D01*
X115427500Y-100020000D01*
X115772500Y-100020000D01*
X115786958Y-100020710D01*
G37*
G36*
X114786958Y-97520710D02*
G01*
X114801276Y-97522834D01*
X114815317Y-97526351D01*
X114828946Y-97531228D01*
X114842031Y-97537417D01*
X114854447Y-97544858D01*
X114866073Y-97553481D01*
X114876798Y-97563202D01*
X114886519Y-97573927D01*
X114895142Y-97585553D01*
X114902583Y-97597969D01*
X114908772Y-97611054D01*
X114913649Y-97624683D01*
X114917166Y-97638724D01*
X114919290Y-97653042D01*
X114920000Y-97667500D01*
X114920000Y-97962500D01*
X114919290Y-97976958D01*
X114917166Y-97991276D01*
X114913649Y-98005317D01*
X114908772Y-98018946D01*
X114902583Y-98032031D01*
X114895142Y-98044447D01*
X114886519Y-98056073D01*
X114876798Y-98066798D01*
X114866073Y-98076519D01*
X114854447Y-98085142D01*
X114842031Y-98092583D01*
X114828946Y-98098772D01*
X114815317Y-98103649D01*
X114801276Y-98107166D01*
X114786958Y-98109290D01*
X114772500Y-98110000D01*
X114427500Y-98110000D01*
X114413042Y-98109290D01*
X114398724Y-98107166D01*
X114384683Y-98103649D01*
X114371054Y-98098772D01*
X114357969Y-98092583D01*
X114345553Y-98085142D01*
X114333927Y-98076519D01*
X114323202Y-98066798D01*
X114313481Y-98056073D01*
X114304858Y-98044447D01*
X114297417Y-98032031D01*
X114291228Y-98018946D01*
X114286351Y-98005317D01*
X114282834Y-97991276D01*
X114280710Y-97976958D01*
X114280000Y-97962500D01*
X114280000Y-97667500D01*
X114280710Y-97653042D01*
X114282834Y-97638724D01*
X114286351Y-97624683D01*
X114291228Y-97611054D01*
X114297417Y-97597969D01*
X114304858Y-97585553D01*
X114313481Y-97573927D01*
X114323202Y-97563202D01*
X114333927Y-97553481D01*
X114345553Y-97544858D01*
X114357969Y-97537417D01*
X114371054Y-97531228D01*
X114384683Y-97526351D01*
X114398724Y-97522834D01*
X114413042Y-97520710D01*
X114427500Y-97520000D01*
X114772500Y-97520000D01*
X114786958Y-97520710D01*
G37*
G36*
X114786958Y-98490710D02*
G01*
X114801276Y-98492834D01*
X114815317Y-98496351D01*
X114828946Y-98501228D01*
X114842031Y-98507417D01*
X114854447Y-98514858D01*
X114866073Y-98523481D01*
X114876798Y-98533202D01*
X114886519Y-98543927D01*
X114895142Y-98555553D01*
X114902583Y-98567969D01*
X114908772Y-98581054D01*
X114913649Y-98594683D01*
X114917166Y-98608724D01*
X114919290Y-98623042D01*
X114920000Y-98637500D01*
X114920000Y-98932500D01*
X114919290Y-98946958D01*
X114917166Y-98961276D01*
X114913649Y-98975317D01*
X114908772Y-98988946D01*
X114902583Y-99002031D01*
X114895142Y-99014447D01*
X114886519Y-99026073D01*
X114876798Y-99036798D01*
X114866073Y-99046519D01*
X114854447Y-99055142D01*
X114842031Y-99062583D01*
X114828946Y-99068772D01*
X114815317Y-99073649D01*
X114801276Y-99077166D01*
X114786958Y-99079290D01*
X114772500Y-99080000D01*
X114427500Y-99080000D01*
X114413042Y-99079290D01*
X114398724Y-99077166D01*
X114384683Y-99073649D01*
X114371054Y-99068772D01*
X114357969Y-99062583D01*
X114345553Y-99055142D01*
X114333927Y-99046519D01*
X114323202Y-99036798D01*
X114313481Y-99026073D01*
X114304858Y-99014447D01*
X114297417Y-99002031D01*
X114291228Y-98988946D01*
X114286351Y-98975317D01*
X114282834Y-98961276D01*
X114280710Y-98946958D01*
X114280000Y-98932500D01*
X114280000Y-98637500D01*
X114280710Y-98623042D01*
X114282834Y-98608724D01*
X114286351Y-98594683D01*
X114291228Y-98581054D01*
X114297417Y-98567969D01*
X114304858Y-98555553D01*
X114313481Y-98543927D01*
X114323202Y-98533202D01*
X114333927Y-98523481D01*
X114345553Y-98514858D01*
X114357969Y-98507417D01*
X114371054Y-98501228D01*
X114384683Y-98496351D01*
X114398724Y-98492834D01*
X114413042Y-98490710D01*
X114427500Y-98490000D01*
X114772500Y-98490000D01*
X114786958Y-98490710D01*
G37*
G36*
X85130142Y-87701174D02*
G01*
X85153803Y-87704684D01*
X85177007Y-87710496D01*
X85199529Y-87718554D01*
X85221153Y-87728782D01*
X85241670Y-87741079D01*
X85260883Y-87755329D01*
X85278607Y-87771393D01*
X85294671Y-87789117D01*
X85308921Y-87808330D01*
X85321218Y-87828847D01*
X85331446Y-87850471D01*
X85339504Y-87872993D01*
X85345316Y-87896197D01*
X85348826Y-87919858D01*
X85350000Y-87943750D01*
X85350000Y-88431250D01*
X85348826Y-88455142D01*
X85345316Y-88478803D01*
X85339504Y-88502007D01*
X85331446Y-88524529D01*
X85321218Y-88546153D01*
X85308921Y-88566670D01*
X85294671Y-88585883D01*
X85278607Y-88603607D01*
X85260883Y-88619671D01*
X85241670Y-88633921D01*
X85221153Y-88646218D01*
X85199529Y-88656446D01*
X85177007Y-88664504D01*
X85153803Y-88670316D01*
X85130142Y-88673826D01*
X85106250Y-88675000D01*
X84193750Y-88675000D01*
X84169858Y-88673826D01*
X84146197Y-88670316D01*
X84122993Y-88664504D01*
X84100471Y-88656446D01*
X84078847Y-88646218D01*
X84058330Y-88633921D01*
X84039117Y-88619671D01*
X84021393Y-88603607D01*
X84005329Y-88585883D01*
X83991079Y-88566670D01*
X83978782Y-88546153D01*
X83968554Y-88524529D01*
X83960496Y-88502007D01*
X83954684Y-88478803D01*
X83951174Y-88455142D01*
X83950000Y-88431250D01*
X83950000Y-87943750D01*
X83951174Y-87919858D01*
X83954684Y-87896197D01*
X83960496Y-87872993D01*
X83968554Y-87850471D01*
X83978782Y-87828847D01*
X83991079Y-87808330D01*
X84005329Y-87789117D01*
X84021393Y-87771393D01*
X84039117Y-87755329D01*
X84058330Y-87741079D01*
X84078847Y-87728782D01*
X84100471Y-87718554D01*
X84122993Y-87710496D01*
X84146197Y-87704684D01*
X84169858Y-87701174D01*
X84193750Y-87700000D01*
X85106250Y-87700000D01*
X85130142Y-87701174D01*
G37*
G36*
X85130142Y-85826174D02*
G01*
X85153803Y-85829684D01*
X85177007Y-85835496D01*
X85199529Y-85843554D01*
X85221153Y-85853782D01*
X85241670Y-85866079D01*
X85260883Y-85880329D01*
X85278607Y-85896393D01*
X85294671Y-85914117D01*
X85308921Y-85933330D01*
X85321218Y-85953847D01*
X85331446Y-85975471D01*
X85339504Y-85997993D01*
X85345316Y-86021197D01*
X85348826Y-86044858D01*
X85350000Y-86068750D01*
X85350000Y-86556250D01*
X85348826Y-86580142D01*
X85345316Y-86603803D01*
X85339504Y-86627007D01*
X85331446Y-86649529D01*
X85321218Y-86671153D01*
X85308921Y-86691670D01*
X85294671Y-86710883D01*
X85278607Y-86728607D01*
X85260883Y-86744671D01*
X85241670Y-86758921D01*
X85221153Y-86771218D01*
X85199529Y-86781446D01*
X85177007Y-86789504D01*
X85153803Y-86795316D01*
X85130142Y-86798826D01*
X85106250Y-86800000D01*
X84193750Y-86800000D01*
X84169858Y-86798826D01*
X84146197Y-86795316D01*
X84122993Y-86789504D01*
X84100471Y-86781446D01*
X84078847Y-86771218D01*
X84058330Y-86758921D01*
X84039117Y-86744671D01*
X84021393Y-86728607D01*
X84005329Y-86710883D01*
X83991079Y-86691670D01*
X83978782Y-86671153D01*
X83968554Y-86649529D01*
X83960496Y-86627007D01*
X83954684Y-86603803D01*
X83951174Y-86580142D01*
X83950000Y-86556250D01*
X83950000Y-86068750D01*
X83951174Y-86044858D01*
X83954684Y-86021197D01*
X83960496Y-85997993D01*
X83968554Y-85975471D01*
X83978782Y-85953847D01*
X83991079Y-85933330D01*
X84005329Y-85914117D01*
X84021393Y-85896393D01*
X84039117Y-85880329D01*
X84058330Y-85866079D01*
X84078847Y-85853782D01*
X84100471Y-85843554D01*
X84122993Y-85835496D01*
X84146197Y-85829684D01*
X84169858Y-85826174D01*
X84193750Y-85825000D01*
X85106250Y-85825000D01*
X85130142Y-85826174D01*
G37*
G36*
X83426958Y-94080710D02*
G01*
X83441276Y-94082834D01*
X83455317Y-94086351D01*
X83468946Y-94091228D01*
X83482031Y-94097417D01*
X83494447Y-94104858D01*
X83506073Y-94113481D01*
X83516798Y-94123202D01*
X83526519Y-94133927D01*
X83535142Y-94145553D01*
X83542583Y-94157969D01*
X83548772Y-94171054D01*
X83553649Y-94184683D01*
X83557166Y-94198724D01*
X83559290Y-94213042D01*
X83560000Y-94227500D01*
X83560000Y-94572500D01*
X83559290Y-94586958D01*
X83557166Y-94601276D01*
X83553649Y-94615317D01*
X83548772Y-94628946D01*
X83542583Y-94642031D01*
X83535142Y-94654447D01*
X83526519Y-94666073D01*
X83516798Y-94676798D01*
X83506073Y-94686519D01*
X83494447Y-94695142D01*
X83482031Y-94702583D01*
X83468946Y-94708772D01*
X83455317Y-94713649D01*
X83441276Y-94717166D01*
X83426958Y-94719290D01*
X83412500Y-94720000D01*
X83117500Y-94720000D01*
X83103042Y-94719290D01*
X83088724Y-94717166D01*
X83074683Y-94713649D01*
X83061054Y-94708772D01*
X83047969Y-94702583D01*
X83035553Y-94695142D01*
X83023927Y-94686519D01*
X83013202Y-94676798D01*
X83003481Y-94666073D01*
X82994858Y-94654447D01*
X82987417Y-94642031D01*
X82981228Y-94628946D01*
X82976351Y-94615317D01*
X82972834Y-94601276D01*
X82970710Y-94586958D01*
X82970000Y-94572500D01*
X82970000Y-94227500D01*
X82970710Y-94213042D01*
X82972834Y-94198724D01*
X82976351Y-94184683D01*
X82981228Y-94171054D01*
X82987417Y-94157969D01*
X82994858Y-94145553D01*
X83003481Y-94133927D01*
X83013202Y-94123202D01*
X83023927Y-94113481D01*
X83035553Y-94104858D01*
X83047969Y-94097417D01*
X83061054Y-94091228D01*
X83074683Y-94086351D01*
X83088724Y-94082834D01*
X83103042Y-94080710D01*
X83117500Y-94080000D01*
X83412500Y-94080000D01*
X83426958Y-94080710D01*
G37*
G36*
X84396958Y-94080710D02*
G01*
X84411276Y-94082834D01*
X84425317Y-94086351D01*
X84438946Y-94091228D01*
X84452031Y-94097417D01*
X84464447Y-94104858D01*
X84476073Y-94113481D01*
X84486798Y-94123202D01*
X84496519Y-94133927D01*
X84505142Y-94145553D01*
X84512583Y-94157969D01*
X84518772Y-94171054D01*
X84523649Y-94184683D01*
X84527166Y-94198724D01*
X84529290Y-94213042D01*
X84530000Y-94227500D01*
X84530000Y-94572500D01*
X84529290Y-94586958D01*
X84527166Y-94601276D01*
X84523649Y-94615317D01*
X84518772Y-94628946D01*
X84512583Y-94642031D01*
X84505142Y-94654447D01*
X84496519Y-94666073D01*
X84486798Y-94676798D01*
X84476073Y-94686519D01*
X84464447Y-94695142D01*
X84452031Y-94702583D01*
X84438946Y-94708772D01*
X84425317Y-94713649D01*
X84411276Y-94717166D01*
X84396958Y-94719290D01*
X84382500Y-94720000D01*
X84087500Y-94720000D01*
X84073042Y-94719290D01*
X84058724Y-94717166D01*
X84044683Y-94713649D01*
X84031054Y-94708772D01*
X84017969Y-94702583D01*
X84005553Y-94695142D01*
X83993927Y-94686519D01*
X83983202Y-94676798D01*
X83973481Y-94666073D01*
X83964858Y-94654447D01*
X83957417Y-94642031D01*
X83951228Y-94628946D01*
X83946351Y-94615317D01*
X83942834Y-94601276D01*
X83940710Y-94586958D01*
X83940000Y-94572500D01*
X83940000Y-94227500D01*
X83940710Y-94213042D01*
X83942834Y-94198724D01*
X83946351Y-94184683D01*
X83951228Y-94171054D01*
X83957417Y-94157969D01*
X83964858Y-94145553D01*
X83973481Y-94133927D01*
X83983202Y-94123202D01*
X83993927Y-94113481D01*
X84005553Y-94104858D01*
X84017969Y-94097417D01*
X84031054Y-94091228D01*
X84044683Y-94086351D01*
X84058724Y-94082834D01*
X84073042Y-94080710D01*
X84087500Y-94080000D01*
X84382500Y-94080000D01*
X84396958Y-94080710D01*
G37*
G36*
X84665191Y-91676053D02*
G01*
X84686426Y-91679203D01*
X84707250Y-91684419D01*
X84727462Y-91691651D01*
X84746868Y-91700830D01*
X84765281Y-91711866D01*
X84782524Y-91724654D01*
X84798430Y-91739070D01*
X84812846Y-91754976D01*
X84825634Y-91772219D01*
X84836670Y-91790632D01*
X84845849Y-91810038D01*
X84853081Y-91830250D01*
X84858297Y-91851074D01*
X84861447Y-91872309D01*
X84862500Y-91893750D01*
X84862500Y-92406250D01*
X84861447Y-92427691D01*
X84858297Y-92448926D01*
X84853081Y-92469750D01*
X84845849Y-92489962D01*
X84836670Y-92509368D01*
X84825634Y-92527781D01*
X84812846Y-92545024D01*
X84798430Y-92560930D01*
X84782524Y-92575346D01*
X84765281Y-92588134D01*
X84746868Y-92599170D01*
X84727462Y-92608349D01*
X84707250Y-92615581D01*
X84686426Y-92620797D01*
X84665191Y-92623947D01*
X84643750Y-92625000D01*
X84206250Y-92625000D01*
X84184809Y-92623947D01*
X84163574Y-92620797D01*
X84142750Y-92615581D01*
X84122538Y-92608349D01*
X84103132Y-92599170D01*
X84084719Y-92588134D01*
X84067476Y-92575346D01*
X84051570Y-92560930D01*
X84037154Y-92545024D01*
X84024366Y-92527781D01*
X84013330Y-92509368D01*
X84004151Y-92489962D01*
X83996919Y-92469750D01*
X83991703Y-92448926D01*
X83988553Y-92427691D01*
X83987500Y-92406250D01*
X83987500Y-91893750D01*
X83988553Y-91872309D01*
X83991703Y-91851074D01*
X83996919Y-91830250D01*
X84004151Y-91810038D01*
X84013330Y-91790632D01*
X84024366Y-91772219D01*
X84037154Y-91754976D01*
X84051570Y-91739070D01*
X84067476Y-91724654D01*
X84084719Y-91711866D01*
X84103132Y-91700830D01*
X84122538Y-91691651D01*
X84142750Y-91684419D01*
X84163574Y-91679203D01*
X84184809Y-91676053D01*
X84206250Y-91675000D01*
X84643750Y-91675000D01*
X84665191Y-91676053D01*
G37*
G36*
X86240191Y-91676053D02*
G01*
X86261426Y-91679203D01*
X86282250Y-91684419D01*
X86302462Y-91691651D01*
X86321868Y-91700830D01*
X86340281Y-91711866D01*
X86357524Y-91724654D01*
X86373430Y-91739070D01*
X86387846Y-91754976D01*
X86400634Y-91772219D01*
X86411670Y-91790632D01*
X86420849Y-91810038D01*
X86428081Y-91830250D01*
X86433297Y-91851074D01*
X86436447Y-91872309D01*
X86437500Y-91893750D01*
X86437500Y-92406250D01*
X86436447Y-92427691D01*
X86433297Y-92448926D01*
X86428081Y-92469750D01*
X86420849Y-92489962D01*
X86411670Y-92509368D01*
X86400634Y-92527781D01*
X86387846Y-92545024D01*
X86373430Y-92560930D01*
X86357524Y-92575346D01*
X86340281Y-92588134D01*
X86321868Y-92599170D01*
X86302462Y-92608349D01*
X86282250Y-92615581D01*
X86261426Y-92620797D01*
X86240191Y-92623947D01*
X86218750Y-92625000D01*
X85781250Y-92625000D01*
X85759809Y-92623947D01*
X85738574Y-92620797D01*
X85717750Y-92615581D01*
X85697538Y-92608349D01*
X85678132Y-92599170D01*
X85659719Y-92588134D01*
X85642476Y-92575346D01*
X85626570Y-92560930D01*
X85612154Y-92545024D01*
X85599366Y-92527781D01*
X85588330Y-92509368D01*
X85579151Y-92489962D01*
X85571919Y-92469750D01*
X85566703Y-92448926D01*
X85563553Y-92427691D01*
X85562500Y-92406250D01*
X85562500Y-91893750D01*
X85563553Y-91872309D01*
X85566703Y-91851074D01*
X85571919Y-91830250D01*
X85579151Y-91810038D01*
X85588330Y-91790632D01*
X85599366Y-91772219D01*
X85612154Y-91754976D01*
X85626570Y-91739070D01*
X85642476Y-91724654D01*
X85659719Y-91711866D01*
X85678132Y-91700830D01*
X85697538Y-91691651D01*
X85717750Y-91684419D01*
X85738574Y-91679203D01*
X85759809Y-91676053D01*
X85781250Y-91675000D01*
X86218750Y-91675000D01*
X86240191Y-91676053D01*
G37*
G36*
X91176958Y-94080710D02*
G01*
X91191276Y-94082834D01*
X91205317Y-94086351D01*
X91218946Y-94091228D01*
X91232031Y-94097417D01*
X91244447Y-94104858D01*
X91256073Y-94113481D01*
X91266798Y-94123202D01*
X91276519Y-94133927D01*
X91285142Y-94145553D01*
X91292583Y-94157969D01*
X91298772Y-94171054D01*
X91303649Y-94184683D01*
X91307166Y-94198724D01*
X91309290Y-94213042D01*
X91310000Y-94227500D01*
X91310000Y-94572500D01*
X91309290Y-94586958D01*
X91307166Y-94601276D01*
X91303649Y-94615317D01*
X91298772Y-94628946D01*
X91292583Y-94642031D01*
X91285142Y-94654447D01*
X91276519Y-94666073D01*
X91266798Y-94676798D01*
X91256073Y-94686519D01*
X91244447Y-94695142D01*
X91232031Y-94702583D01*
X91218946Y-94708772D01*
X91205317Y-94713649D01*
X91191276Y-94717166D01*
X91176958Y-94719290D01*
X91162500Y-94720000D01*
X90867500Y-94720000D01*
X90853042Y-94719290D01*
X90838724Y-94717166D01*
X90824683Y-94713649D01*
X90811054Y-94708772D01*
X90797969Y-94702583D01*
X90785553Y-94695142D01*
X90773927Y-94686519D01*
X90763202Y-94676798D01*
X90753481Y-94666073D01*
X90744858Y-94654447D01*
X90737417Y-94642031D01*
X90731228Y-94628946D01*
X90726351Y-94615317D01*
X90722834Y-94601276D01*
X90720710Y-94586958D01*
X90720000Y-94572500D01*
X90720000Y-94227500D01*
X90720710Y-94213042D01*
X90722834Y-94198724D01*
X90726351Y-94184683D01*
X90731228Y-94171054D01*
X90737417Y-94157969D01*
X90744858Y-94145553D01*
X90753481Y-94133927D01*
X90763202Y-94123202D01*
X90773927Y-94113481D01*
X90785553Y-94104858D01*
X90797969Y-94097417D01*
X90811054Y-94091228D01*
X90824683Y-94086351D01*
X90838724Y-94082834D01*
X90853042Y-94080710D01*
X90867500Y-94080000D01*
X91162500Y-94080000D01*
X91176958Y-94080710D01*
G37*
G36*
X92146958Y-94080710D02*
G01*
X92161276Y-94082834D01*
X92175317Y-94086351D01*
X92188946Y-94091228D01*
X92202031Y-94097417D01*
X92214447Y-94104858D01*
X92226073Y-94113481D01*
X92236798Y-94123202D01*
X92246519Y-94133927D01*
X92255142Y-94145553D01*
X92262583Y-94157969D01*
X92268772Y-94171054D01*
X92273649Y-94184683D01*
X92277166Y-94198724D01*
X92279290Y-94213042D01*
X92280000Y-94227500D01*
X92280000Y-94572500D01*
X92279290Y-94586958D01*
X92277166Y-94601276D01*
X92273649Y-94615317D01*
X92268772Y-94628946D01*
X92262583Y-94642031D01*
X92255142Y-94654447D01*
X92246519Y-94666073D01*
X92236798Y-94676798D01*
X92226073Y-94686519D01*
X92214447Y-94695142D01*
X92202031Y-94702583D01*
X92188946Y-94708772D01*
X92175317Y-94713649D01*
X92161276Y-94717166D01*
X92146958Y-94719290D01*
X92132500Y-94720000D01*
X91837500Y-94720000D01*
X91823042Y-94719290D01*
X91808724Y-94717166D01*
X91794683Y-94713649D01*
X91781054Y-94708772D01*
X91767969Y-94702583D01*
X91755553Y-94695142D01*
X91743927Y-94686519D01*
X91733202Y-94676798D01*
X91723481Y-94666073D01*
X91714858Y-94654447D01*
X91707417Y-94642031D01*
X91701228Y-94628946D01*
X91696351Y-94615317D01*
X91692834Y-94601276D01*
X91690710Y-94586958D01*
X91690000Y-94572500D01*
X91690000Y-94227500D01*
X91690710Y-94213042D01*
X91692834Y-94198724D01*
X91696351Y-94184683D01*
X91701228Y-94171054D01*
X91707417Y-94157969D01*
X91714858Y-94145553D01*
X91723481Y-94133927D01*
X91733202Y-94123202D01*
X91743927Y-94113481D01*
X91755553Y-94104858D01*
X91767969Y-94097417D01*
X91781054Y-94091228D01*
X91794683Y-94086351D01*
X91808724Y-94082834D01*
X91823042Y-94080710D01*
X91837500Y-94080000D01*
X92132500Y-94080000D01*
X92146958Y-94080710D01*
G37*
G36*
X91027691Y-91676053D02*
G01*
X91048926Y-91679203D01*
X91069750Y-91684419D01*
X91089962Y-91691651D01*
X91109368Y-91700830D01*
X91127781Y-91711866D01*
X91145024Y-91724654D01*
X91160930Y-91739070D01*
X91175346Y-91754976D01*
X91188134Y-91772219D01*
X91199170Y-91790632D01*
X91208349Y-91810038D01*
X91215581Y-91830250D01*
X91220797Y-91851074D01*
X91223947Y-91872309D01*
X91225000Y-91893750D01*
X91225000Y-92406250D01*
X91223947Y-92427691D01*
X91220797Y-92448926D01*
X91215581Y-92469750D01*
X91208349Y-92489962D01*
X91199170Y-92509368D01*
X91188134Y-92527781D01*
X91175346Y-92545024D01*
X91160930Y-92560930D01*
X91145024Y-92575346D01*
X91127781Y-92588134D01*
X91109368Y-92599170D01*
X91089962Y-92608349D01*
X91069750Y-92615581D01*
X91048926Y-92620797D01*
X91027691Y-92623947D01*
X91006250Y-92625000D01*
X90568750Y-92625000D01*
X90547309Y-92623947D01*
X90526074Y-92620797D01*
X90505250Y-92615581D01*
X90485038Y-92608349D01*
X90465632Y-92599170D01*
X90447219Y-92588134D01*
X90429976Y-92575346D01*
X90414070Y-92560930D01*
X90399654Y-92545024D01*
X90386866Y-92527781D01*
X90375830Y-92509368D01*
X90366651Y-92489962D01*
X90359419Y-92469750D01*
X90354203Y-92448926D01*
X90351053Y-92427691D01*
X90350000Y-92406250D01*
X90350000Y-91893750D01*
X90351053Y-91872309D01*
X90354203Y-91851074D01*
X90359419Y-91830250D01*
X90366651Y-91810038D01*
X90375830Y-91790632D01*
X90386866Y-91772219D01*
X90399654Y-91754976D01*
X90414070Y-91739070D01*
X90429976Y-91724654D01*
X90447219Y-91711866D01*
X90465632Y-91700830D01*
X90485038Y-91691651D01*
X90505250Y-91684419D01*
X90526074Y-91679203D01*
X90547309Y-91676053D01*
X90568750Y-91675000D01*
X91006250Y-91675000D01*
X91027691Y-91676053D01*
G37*
G36*
X89452691Y-91676053D02*
G01*
X89473926Y-91679203D01*
X89494750Y-91684419D01*
X89514962Y-91691651D01*
X89534368Y-91700830D01*
X89552781Y-91711866D01*
X89570024Y-91724654D01*
X89585930Y-91739070D01*
X89600346Y-91754976D01*
X89613134Y-91772219D01*
X89624170Y-91790632D01*
X89633349Y-91810038D01*
X89640581Y-91830250D01*
X89645797Y-91851074D01*
X89648947Y-91872309D01*
X89650000Y-91893750D01*
X89650000Y-92406250D01*
X89648947Y-92427691D01*
X89645797Y-92448926D01*
X89640581Y-92469750D01*
X89633349Y-92489962D01*
X89624170Y-92509368D01*
X89613134Y-92527781D01*
X89600346Y-92545024D01*
X89585930Y-92560930D01*
X89570024Y-92575346D01*
X89552781Y-92588134D01*
X89534368Y-92599170D01*
X89514962Y-92608349D01*
X89494750Y-92615581D01*
X89473926Y-92620797D01*
X89452691Y-92623947D01*
X89431250Y-92625000D01*
X88993750Y-92625000D01*
X88972309Y-92623947D01*
X88951074Y-92620797D01*
X88930250Y-92615581D01*
X88910038Y-92608349D01*
X88890632Y-92599170D01*
X88872219Y-92588134D01*
X88854976Y-92575346D01*
X88839070Y-92560930D01*
X88824654Y-92545024D01*
X88811866Y-92527781D01*
X88800830Y-92509368D01*
X88791651Y-92489962D01*
X88784419Y-92469750D01*
X88779203Y-92448926D01*
X88776053Y-92427691D01*
X88775000Y-92406250D01*
X88775000Y-91893750D01*
X88776053Y-91872309D01*
X88779203Y-91851074D01*
X88784419Y-91830250D01*
X88791651Y-91810038D01*
X88800830Y-91790632D01*
X88811866Y-91772219D01*
X88824654Y-91754976D01*
X88839070Y-91739070D01*
X88854976Y-91724654D01*
X88872219Y-91711866D01*
X88890632Y-91700830D01*
X88910038Y-91691651D01*
X88930250Y-91684419D01*
X88951074Y-91679203D01*
X88972309Y-91676053D01*
X88993750Y-91675000D01*
X89431250Y-91675000D01*
X89452691Y-91676053D01*
G37*
G36*
X82452691Y-101676053D02*
G01*
X82473926Y-101679203D01*
X82494750Y-101684419D01*
X82514962Y-101691651D01*
X82534368Y-101700830D01*
X82552781Y-101711866D01*
X82570024Y-101724654D01*
X82585930Y-101739070D01*
X82600346Y-101754976D01*
X82613134Y-101772219D01*
X82624170Y-101790632D01*
X82633349Y-101810038D01*
X82640581Y-101830250D01*
X82645797Y-101851074D01*
X82648947Y-101872309D01*
X82650000Y-101893750D01*
X82650000Y-102406250D01*
X82648947Y-102427691D01*
X82645797Y-102448926D01*
X82640581Y-102469750D01*
X82633349Y-102489962D01*
X82624170Y-102509368D01*
X82613134Y-102527781D01*
X82600346Y-102545024D01*
X82585930Y-102560930D01*
X82570024Y-102575346D01*
X82552781Y-102588134D01*
X82534368Y-102599170D01*
X82514962Y-102608349D01*
X82494750Y-102615581D01*
X82473926Y-102620797D01*
X82452691Y-102623947D01*
X82431250Y-102625000D01*
X81993750Y-102625000D01*
X81972309Y-102623947D01*
X81951074Y-102620797D01*
X81930250Y-102615581D01*
X81910038Y-102608349D01*
X81890632Y-102599170D01*
X81872219Y-102588134D01*
X81854976Y-102575346D01*
X81839070Y-102560930D01*
X81824654Y-102545024D01*
X81811866Y-102527781D01*
X81800830Y-102509368D01*
X81791651Y-102489962D01*
X81784419Y-102469750D01*
X81779203Y-102448926D01*
X81776053Y-102427691D01*
X81775000Y-102406250D01*
X81775000Y-101893750D01*
X81776053Y-101872309D01*
X81779203Y-101851074D01*
X81784419Y-101830250D01*
X81791651Y-101810038D01*
X81800830Y-101790632D01*
X81811866Y-101772219D01*
X81824654Y-101754976D01*
X81839070Y-101739070D01*
X81854976Y-101724654D01*
X81872219Y-101711866D01*
X81890632Y-101700830D01*
X81910038Y-101691651D01*
X81930250Y-101684419D01*
X81951074Y-101679203D01*
X81972309Y-101676053D01*
X81993750Y-101675000D01*
X82431250Y-101675000D01*
X82452691Y-101676053D01*
G37*
G36*
X84027691Y-101676053D02*
G01*
X84048926Y-101679203D01*
X84069750Y-101684419D01*
X84089962Y-101691651D01*
X84109368Y-101700830D01*
X84127781Y-101711866D01*
X84145024Y-101724654D01*
X84160930Y-101739070D01*
X84175346Y-101754976D01*
X84188134Y-101772219D01*
X84199170Y-101790632D01*
X84208349Y-101810038D01*
X84215581Y-101830250D01*
X84220797Y-101851074D01*
X84223947Y-101872309D01*
X84225000Y-101893750D01*
X84225000Y-102406250D01*
X84223947Y-102427691D01*
X84220797Y-102448926D01*
X84215581Y-102469750D01*
X84208349Y-102489962D01*
X84199170Y-102509368D01*
X84188134Y-102527781D01*
X84175346Y-102545024D01*
X84160930Y-102560930D01*
X84145024Y-102575346D01*
X84127781Y-102588134D01*
X84109368Y-102599170D01*
X84089962Y-102608349D01*
X84069750Y-102615581D01*
X84048926Y-102620797D01*
X84027691Y-102623947D01*
X84006250Y-102625000D01*
X83568750Y-102625000D01*
X83547309Y-102623947D01*
X83526074Y-102620797D01*
X83505250Y-102615581D01*
X83485038Y-102608349D01*
X83465632Y-102599170D01*
X83447219Y-102588134D01*
X83429976Y-102575346D01*
X83414070Y-102560930D01*
X83399654Y-102545024D01*
X83386866Y-102527781D01*
X83375830Y-102509368D01*
X83366651Y-102489962D01*
X83359419Y-102469750D01*
X83354203Y-102448926D01*
X83351053Y-102427691D01*
X83350000Y-102406250D01*
X83350000Y-101893750D01*
X83351053Y-101872309D01*
X83354203Y-101851074D01*
X83359419Y-101830250D01*
X83366651Y-101810038D01*
X83375830Y-101790632D01*
X83386866Y-101772219D01*
X83399654Y-101754976D01*
X83414070Y-101739070D01*
X83429976Y-101724654D01*
X83447219Y-101711866D01*
X83465632Y-101700830D01*
X83485038Y-101691651D01*
X83505250Y-101684419D01*
X83526074Y-101679203D01*
X83547309Y-101676053D01*
X83568750Y-101675000D01*
X84006250Y-101675000D01*
X84027691Y-101676053D01*
G37*
G36*
X86452691Y-105176053D02*
G01*
X86473926Y-105179203D01*
X86494750Y-105184419D01*
X86514962Y-105191651D01*
X86534368Y-105200830D01*
X86552781Y-105211866D01*
X86570024Y-105224654D01*
X86585930Y-105239070D01*
X86600346Y-105254976D01*
X86613134Y-105272219D01*
X86624170Y-105290632D01*
X86633349Y-105310038D01*
X86640581Y-105330250D01*
X86645797Y-105351074D01*
X86648947Y-105372309D01*
X86650000Y-105393750D01*
X86650000Y-105906250D01*
X86648947Y-105927691D01*
X86645797Y-105948926D01*
X86640581Y-105969750D01*
X86633349Y-105989962D01*
X86624170Y-106009368D01*
X86613134Y-106027781D01*
X86600346Y-106045024D01*
X86585930Y-106060930D01*
X86570024Y-106075346D01*
X86552781Y-106088134D01*
X86534368Y-106099170D01*
X86514962Y-106108349D01*
X86494750Y-106115581D01*
X86473926Y-106120797D01*
X86452691Y-106123947D01*
X86431250Y-106125000D01*
X85993750Y-106125000D01*
X85972309Y-106123947D01*
X85951074Y-106120797D01*
X85930250Y-106115581D01*
X85910038Y-106108349D01*
X85890632Y-106099170D01*
X85872219Y-106088134D01*
X85854976Y-106075346D01*
X85839070Y-106060930D01*
X85824654Y-106045024D01*
X85811866Y-106027781D01*
X85800830Y-106009368D01*
X85791651Y-105989962D01*
X85784419Y-105969750D01*
X85779203Y-105948926D01*
X85776053Y-105927691D01*
X85775000Y-105906250D01*
X85775000Y-105393750D01*
X85776053Y-105372309D01*
X85779203Y-105351074D01*
X85784419Y-105330250D01*
X85791651Y-105310038D01*
X85800830Y-105290632D01*
X85811866Y-105272219D01*
X85824654Y-105254976D01*
X85839070Y-105239070D01*
X85854976Y-105224654D01*
X85872219Y-105211866D01*
X85890632Y-105200830D01*
X85910038Y-105191651D01*
X85930250Y-105184419D01*
X85951074Y-105179203D01*
X85972309Y-105176053D01*
X85993750Y-105175000D01*
X86431250Y-105175000D01*
X86452691Y-105176053D01*
G37*
G36*
X88027691Y-105176053D02*
G01*
X88048926Y-105179203D01*
X88069750Y-105184419D01*
X88089962Y-105191651D01*
X88109368Y-105200830D01*
X88127781Y-105211866D01*
X88145024Y-105224654D01*
X88160930Y-105239070D01*
X88175346Y-105254976D01*
X88188134Y-105272219D01*
X88199170Y-105290632D01*
X88208349Y-105310038D01*
X88215581Y-105330250D01*
X88220797Y-105351074D01*
X88223947Y-105372309D01*
X88225000Y-105393750D01*
X88225000Y-105906250D01*
X88223947Y-105927691D01*
X88220797Y-105948926D01*
X88215581Y-105969750D01*
X88208349Y-105989962D01*
X88199170Y-106009368D01*
X88188134Y-106027781D01*
X88175346Y-106045024D01*
X88160930Y-106060930D01*
X88145024Y-106075346D01*
X88127781Y-106088134D01*
X88109368Y-106099170D01*
X88089962Y-106108349D01*
X88069750Y-106115581D01*
X88048926Y-106120797D01*
X88027691Y-106123947D01*
X88006250Y-106125000D01*
X87568750Y-106125000D01*
X87547309Y-106123947D01*
X87526074Y-106120797D01*
X87505250Y-106115581D01*
X87485038Y-106108349D01*
X87465632Y-106099170D01*
X87447219Y-106088134D01*
X87429976Y-106075346D01*
X87414070Y-106060930D01*
X87399654Y-106045024D01*
X87386866Y-106027781D01*
X87375830Y-106009368D01*
X87366651Y-105989962D01*
X87359419Y-105969750D01*
X87354203Y-105948926D01*
X87351053Y-105927691D01*
X87350000Y-105906250D01*
X87350000Y-105393750D01*
X87351053Y-105372309D01*
X87354203Y-105351074D01*
X87359419Y-105330250D01*
X87366651Y-105310038D01*
X87375830Y-105290632D01*
X87386866Y-105272219D01*
X87399654Y-105254976D01*
X87414070Y-105239070D01*
X87429976Y-105224654D01*
X87447219Y-105211866D01*
X87465632Y-105200830D01*
X87485038Y-105191651D01*
X87505250Y-105184419D01*
X87526074Y-105179203D01*
X87547309Y-105176053D01*
X87568750Y-105175000D01*
X88006250Y-105175000D01*
X88027691Y-105176053D01*
G37*
G36*
X82677691Y-83026053D02*
G01*
X82698926Y-83029203D01*
X82719750Y-83034419D01*
X82739962Y-83041651D01*
X82759368Y-83050830D01*
X82777781Y-83061866D01*
X82795024Y-83074654D01*
X82810930Y-83089070D01*
X82825346Y-83104976D01*
X82838134Y-83122219D01*
X82849170Y-83140632D01*
X82858349Y-83160038D01*
X82865581Y-83180250D01*
X82870797Y-83201074D01*
X82873947Y-83222309D01*
X82875000Y-83243750D01*
X82875000Y-83756250D01*
X82873947Y-83777691D01*
X82870797Y-83798926D01*
X82865581Y-83819750D01*
X82858349Y-83839962D01*
X82849170Y-83859368D01*
X82838134Y-83877781D01*
X82825346Y-83895024D01*
X82810930Y-83910930D01*
X82795024Y-83925346D01*
X82777781Y-83938134D01*
X82759368Y-83949170D01*
X82739962Y-83958349D01*
X82719750Y-83965581D01*
X82698926Y-83970797D01*
X82677691Y-83973947D01*
X82656250Y-83975000D01*
X82218750Y-83975000D01*
X82197309Y-83973947D01*
X82176074Y-83970797D01*
X82155250Y-83965581D01*
X82135038Y-83958349D01*
X82115632Y-83949170D01*
X82097219Y-83938134D01*
X82079976Y-83925346D01*
X82064070Y-83910930D01*
X82049654Y-83895024D01*
X82036866Y-83877781D01*
X82025830Y-83859368D01*
X82016651Y-83839962D01*
X82009419Y-83819750D01*
X82004203Y-83798926D01*
X82001053Y-83777691D01*
X82000000Y-83756250D01*
X82000000Y-83243750D01*
X82001053Y-83222309D01*
X82004203Y-83201074D01*
X82009419Y-83180250D01*
X82016651Y-83160038D01*
X82025830Y-83140632D01*
X82036866Y-83122219D01*
X82049654Y-83104976D01*
X82064070Y-83089070D01*
X82079976Y-83074654D01*
X82097219Y-83061866D01*
X82115632Y-83050830D01*
X82135038Y-83041651D01*
X82155250Y-83034419D01*
X82176074Y-83029203D01*
X82197309Y-83026053D01*
X82218750Y-83025000D01*
X82656250Y-83025000D01*
X82677691Y-83026053D01*
G37*
G36*
X81102691Y-83026053D02*
G01*
X81123926Y-83029203D01*
X81144750Y-83034419D01*
X81164962Y-83041651D01*
X81184368Y-83050830D01*
X81202781Y-83061866D01*
X81220024Y-83074654D01*
X81235930Y-83089070D01*
X81250346Y-83104976D01*
X81263134Y-83122219D01*
X81274170Y-83140632D01*
X81283349Y-83160038D01*
X81290581Y-83180250D01*
X81295797Y-83201074D01*
X81298947Y-83222309D01*
X81300000Y-83243750D01*
X81300000Y-83756250D01*
X81298947Y-83777691D01*
X81295797Y-83798926D01*
X81290581Y-83819750D01*
X81283349Y-83839962D01*
X81274170Y-83859368D01*
X81263134Y-83877781D01*
X81250346Y-83895024D01*
X81235930Y-83910930D01*
X81220024Y-83925346D01*
X81202781Y-83938134D01*
X81184368Y-83949170D01*
X81164962Y-83958349D01*
X81144750Y-83965581D01*
X81123926Y-83970797D01*
X81102691Y-83973947D01*
X81081250Y-83975000D01*
X80643750Y-83975000D01*
X80622309Y-83973947D01*
X80601074Y-83970797D01*
X80580250Y-83965581D01*
X80560038Y-83958349D01*
X80540632Y-83949170D01*
X80522219Y-83938134D01*
X80504976Y-83925346D01*
X80489070Y-83910930D01*
X80474654Y-83895024D01*
X80461866Y-83877781D01*
X80450830Y-83859368D01*
X80441651Y-83839962D01*
X80434419Y-83819750D01*
X80429203Y-83798926D01*
X80426053Y-83777691D01*
X80425000Y-83756250D01*
X80425000Y-83243750D01*
X80426053Y-83222309D01*
X80429203Y-83201074D01*
X80434419Y-83180250D01*
X80441651Y-83160038D01*
X80450830Y-83140632D01*
X80461866Y-83122219D01*
X80474654Y-83104976D01*
X80489070Y-83089070D01*
X80504976Y-83074654D01*
X80522219Y-83061866D01*
X80540632Y-83050830D01*
X80560038Y-83041651D01*
X80580250Y-83034419D01*
X80601074Y-83029203D01*
X80622309Y-83026053D01*
X80643750Y-83025000D01*
X81081250Y-83025000D01*
X81102691Y-83026053D01*
G37*
G36*
X95476958Y-87280710D02*
G01*
X95491276Y-87282834D01*
X95505317Y-87286351D01*
X95518946Y-87291228D01*
X95532031Y-87297417D01*
X95544447Y-87304858D01*
X95556073Y-87313481D01*
X95566798Y-87323202D01*
X95576519Y-87333927D01*
X95585142Y-87345553D01*
X95592583Y-87357969D01*
X95598772Y-87371054D01*
X95603649Y-87384683D01*
X95607166Y-87398724D01*
X95609290Y-87413042D01*
X95610000Y-87427500D01*
X95610000Y-87772500D01*
X95609290Y-87786958D01*
X95607166Y-87801276D01*
X95603649Y-87815317D01*
X95598772Y-87828946D01*
X95592583Y-87842031D01*
X95585142Y-87854447D01*
X95576519Y-87866073D01*
X95566798Y-87876798D01*
X95556073Y-87886519D01*
X95544447Y-87895142D01*
X95532031Y-87902583D01*
X95518946Y-87908772D01*
X95505317Y-87913649D01*
X95491276Y-87917166D01*
X95476958Y-87919290D01*
X95462500Y-87920000D01*
X95167500Y-87920000D01*
X95153042Y-87919290D01*
X95138724Y-87917166D01*
X95124683Y-87913649D01*
X95111054Y-87908772D01*
X95097969Y-87902583D01*
X95085553Y-87895142D01*
X95073927Y-87886519D01*
X95063202Y-87876798D01*
X95053481Y-87866073D01*
X95044858Y-87854447D01*
X95037417Y-87842031D01*
X95031228Y-87828946D01*
X95026351Y-87815317D01*
X95022834Y-87801276D01*
X95020710Y-87786958D01*
X95020000Y-87772500D01*
X95020000Y-87427500D01*
X95020710Y-87413042D01*
X95022834Y-87398724D01*
X95026351Y-87384683D01*
X95031228Y-87371054D01*
X95037417Y-87357969D01*
X95044858Y-87345553D01*
X95053481Y-87333927D01*
X95063202Y-87323202D01*
X95073927Y-87313481D01*
X95085553Y-87304858D01*
X95097969Y-87297417D01*
X95111054Y-87291228D01*
X95124683Y-87286351D01*
X95138724Y-87282834D01*
X95153042Y-87280710D01*
X95167500Y-87280000D01*
X95462500Y-87280000D01*
X95476958Y-87280710D01*
G37*
G36*
X96446958Y-87280710D02*
G01*
X96461276Y-87282834D01*
X96475317Y-87286351D01*
X96488946Y-87291228D01*
X96502031Y-87297417D01*
X96514447Y-87304858D01*
X96526073Y-87313481D01*
X96536798Y-87323202D01*
X96546519Y-87333927D01*
X96555142Y-87345553D01*
X96562583Y-87357969D01*
X96568772Y-87371054D01*
X96573649Y-87384683D01*
X96577166Y-87398724D01*
X96579290Y-87413042D01*
X96580000Y-87427500D01*
X96580000Y-87772500D01*
X96579290Y-87786958D01*
X96577166Y-87801276D01*
X96573649Y-87815317D01*
X96568772Y-87828946D01*
X96562583Y-87842031D01*
X96555142Y-87854447D01*
X96546519Y-87866073D01*
X96536798Y-87876798D01*
X96526073Y-87886519D01*
X96514447Y-87895142D01*
X96502031Y-87902583D01*
X96488946Y-87908772D01*
X96475317Y-87913649D01*
X96461276Y-87917166D01*
X96446958Y-87919290D01*
X96432500Y-87920000D01*
X96137500Y-87920000D01*
X96123042Y-87919290D01*
X96108724Y-87917166D01*
X96094683Y-87913649D01*
X96081054Y-87908772D01*
X96067969Y-87902583D01*
X96055553Y-87895142D01*
X96043927Y-87886519D01*
X96033202Y-87876798D01*
X96023481Y-87866073D01*
X96014858Y-87854447D01*
X96007417Y-87842031D01*
X96001228Y-87828946D01*
X95996351Y-87815317D01*
X95992834Y-87801276D01*
X95990710Y-87786958D01*
X95990000Y-87772500D01*
X95990000Y-87427500D01*
X95990710Y-87413042D01*
X95992834Y-87398724D01*
X95996351Y-87384683D01*
X96001228Y-87371054D01*
X96007417Y-87357969D01*
X96014858Y-87345553D01*
X96023481Y-87333927D01*
X96033202Y-87323202D01*
X96043927Y-87313481D01*
X96055553Y-87304858D01*
X96067969Y-87297417D01*
X96081054Y-87291228D01*
X96094683Y-87286351D01*
X96108724Y-87282834D01*
X96123042Y-87280710D01*
X96137500Y-87280000D01*
X96432500Y-87280000D01*
X96446958Y-87280710D01*
G37*
G36*
X99277691Y-82276053D02*
G01*
X99298926Y-82279203D01*
X99319750Y-82284419D01*
X99339962Y-82291651D01*
X99359368Y-82300830D01*
X99377781Y-82311866D01*
X99395024Y-82324654D01*
X99410930Y-82339070D01*
X99425346Y-82354976D01*
X99438134Y-82372219D01*
X99449170Y-82390632D01*
X99458349Y-82410038D01*
X99465581Y-82430250D01*
X99470797Y-82451074D01*
X99473947Y-82472309D01*
X99475000Y-82493750D01*
X99475000Y-82931250D01*
X99473947Y-82952691D01*
X99470797Y-82973926D01*
X99465581Y-82994750D01*
X99458349Y-83014962D01*
X99449170Y-83034368D01*
X99438134Y-83052781D01*
X99425346Y-83070024D01*
X99410930Y-83085930D01*
X99395024Y-83100346D01*
X99377781Y-83113134D01*
X99359368Y-83124170D01*
X99339962Y-83133349D01*
X99319750Y-83140581D01*
X99298926Y-83145797D01*
X99277691Y-83148947D01*
X99256250Y-83150000D01*
X98743750Y-83150000D01*
X98722309Y-83148947D01*
X98701074Y-83145797D01*
X98680250Y-83140581D01*
X98660038Y-83133349D01*
X98640632Y-83124170D01*
X98622219Y-83113134D01*
X98604976Y-83100346D01*
X98589070Y-83085930D01*
X98574654Y-83070024D01*
X98561866Y-83052781D01*
X98550830Y-83034368D01*
X98541651Y-83014962D01*
X98534419Y-82994750D01*
X98529203Y-82973926D01*
X98526053Y-82952691D01*
X98525000Y-82931250D01*
X98525000Y-82493750D01*
X98526053Y-82472309D01*
X98529203Y-82451074D01*
X98534419Y-82430250D01*
X98541651Y-82410038D01*
X98550830Y-82390632D01*
X98561866Y-82372219D01*
X98574654Y-82354976D01*
X98589070Y-82339070D01*
X98604976Y-82324654D01*
X98622219Y-82311866D01*
X98640632Y-82300830D01*
X98660038Y-82291651D01*
X98680250Y-82284419D01*
X98701074Y-82279203D01*
X98722309Y-82276053D01*
X98743750Y-82275000D01*
X99256250Y-82275000D01*
X99277691Y-82276053D01*
G37*
G36*
X99277691Y-83851053D02*
G01*
X99298926Y-83854203D01*
X99319750Y-83859419D01*
X99339962Y-83866651D01*
X99359368Y-83875830D01*
X99377781Y-83886866D01*
X99395024Y-83899654D01*
X99410930Y-83914070D01*
X99425346Y-83929976D01*
X99438134Y-83947219D01*
X99449170Y-83965632D01*
X99458349Y-83985038D01*
X99465581Y-84005250D01*
X99470797Y-84026074D01*
X99473947Y-84047309D01*
X99475000Y-84068750D01*
X99475000Y-84506250D01*
X99473947Y-84527691D01*
X99470797Y-84548926D01*
X99465581Y-84569750D01*
X99458349Y-84589962D01*
X99449170Y-84609368D01*
X99438134Y-84627781D01*
X99425346Y-84645024D01*
X99410930Y-84660930D01*
X99395024Y-84675346D01*
X99377781Y-84688134D01*
X99359368Y-84699170D01*
X99339962Y-84708349D01*
X99319750Y-84715581D01*
X99298926Y-84720797D01*
X99277691Y-84723947D01*
X99256250Y-84725000D01*
X98743750Y-84725000D01*
X98722309Y-84723947D01*
X98701074Y-84720797D01*
X98680250Y-84715581D01*
X98660038Y-84708349D01*
X98640632Y-84699170D01*
X98622219Y-84688134D01*
X98604976Y-84675346D01*
X98589070Y-84660930D01*
X98574654Y-84645024D01*
X98561866Y-84627781D01*
X98550830Y-84609368D01*
X98541651Y-84589962D01*
X98534419Y-84569750D01*
X98529203Y-84548926D01*
X98526053Y-84527691D01*
X98525000Y-84506250D01*
X98525000Y-84068750D01*
X98526053Y-84047309D01*
X98529203Y-84026074D01*
X98534419Y-84005250D01*
X98541651Y-83985038D01*
X98550830Y-83965632D01*
X98561866Y-83947219D01*
X98574654Y-83929976D01*
X98589070Y-83914070D01*
X98604976Y-83899654D01*
X98622219Y-83886866D01*
X98640632Y-83875830D01*
X98660038Y-83866651D01*
X98680250Y-83859419D01*
X98701074Y-83854203D01*
X98722309Y-83851053D01*
X98743750Y-83850000D01*
X99256250Y-83850000D01*
X99277691Y-83851053D01*
G37*
G36*
X94446958Y-77980710D02*
G01*
X94461276Y-77982834D01*
X94475317Y-77986351D01*
X94488946Y-77991228D01*
X94502031Y-77997417D01*
X94514447Y-78004858D01*
X94526073Y-78013481D01*
X94536798Y-78023202D01*
X94546519Y-78033927D01*
X94555142Y-78045553D01*
X94562583Y-78057969D01*
X94568772Y-78071054D01*
X94573649Y-78084683D01*
X94577166Y-78098724D01*
X94579290Y-78113042D01*
X94580000Y-78127500D01*
X94580000Y-78472500D01*
X94579290Y-78486958D01*
X94577166Y-78501276D01*
X94573649Y-78515317D01*
X94568772Y-78528946D01*
X94562583Y-78542031D01*
X94555142Y-78554447D01*
X94546519Y-78566073D01*
X94536798Y-78576798D01*
X94526073Y-78586519D01*
X94514447Y-78595142D01*
X94502031Y-78602583D01*
X94488946Y-78608772D01*
X94475317Y-78613649D01*
X94461276Y-78617166D01*
X94446958Y-78619290D01*
X94432500Y-78620000D01*
X94137500Y-78620000D01*
X94123042Y-78619290D01*
X94108724Y-78617166D01*
X94094683Y-78613649D01*
X94081054Y-78608772D01*
X94067969Y-78602583D01*
X94055553Y-78595142D01*
X94043927Y-78586519D01*
X94033202Y-78576798D01*
X94023481Y-78566073D01*
X94014858Y-78554447D01*
X94007417Y-78542031D01*
X94001228Y-78528946D01*
X93996351Y-78515317D01*
X93992834Y-78501276D01*
X93990710Y-78486958D01*
X93990000Y-78472500D01*
X93990000Y-78127500D01*
X93990710Y-78113042D01*
X93992834Y-78098724D01*
X93996351Y-78084683D01*
X94001228Y-78071054D01*
X94007417Y-78057969D01*
X94014858Y-78045553D01*
X94023481Y-78033927D01*
X94033202Y-78023202D01*
X94043927Y-78013481D01*
X94055553Y-78004858D01*
X94067969Y-77997417D01*
X94081054Y-77991228D01*
X94094683Y-77986351D01*
X94108724Y-77982834D01*
X94123042Y-77980710D01*
X94137500Y-77980000D01*
X94432500Y-77980000D01*
X94446958Y-77980710D01*
G37*
G36*
X93476958Y-77980710D02*
G01*
X93491276Y-77982834D01*
X93505317Y-77986351D01*
X93518946Y-77991228D01*
X93532031Y-77997417D01*
X93544447Y-78004858D01*
X93556073Y-78013481D01*
X93566798Y-78023202D01*
X93576519Y-78033927D01*
X93585142Y-78045553D01*
X93592583Y-78057969D01*
X93598772Y-78071054D01*
X93603649Y-78084683D01*
X93607166Y-78098724D01*
X93609290Y-78113042D01*
X93610000Y-78127500D01*
X93610000Y-78472500D01*
X93609290Y-78486958D01*
X93607166Y-78501276D01*
X93603649Y-78515317D01*
X93598772Y-78528946D01*
X93592583Y-78542031D01*
X93585142Y-78554447D01*
X93576519Y-78566073D01*
X93566798Y-78576798D01*
X93556073Y-78586519D01*
X93544447Y-78595142D01*
X93532031Y-78602583D01*
X93518946Y-78608772D01*
X93505317Y-78613649D01*
X93491276Y-78617166D01*
X93476958Y-78619290D01*
X93462500Y-78620000D01*
X93167500Y-78620000D01*
X93153042Y-78619290D01*
X93138724Y-78617166D01*
X93124683Y-78613649D01*
X93111054Y-78608772D01*
X93097969Y-78602583D01*
X93085553Y-78595142D01*
X93073927Y-78586519D01*
X93063202Y-78576798D01*
X93053481Y-78566073D01*
X93044858Y-78554447D01*
X93037417Y-78542031D01*
X93031228Y-78528946D01*
X93026351Y-78515317D01*
X93022834Y-78501276D01*
X93020710Y-78486958D01*
X93020000Y-78472500D01*
X93020000Y-78127500D01*
X93020710Y-78113042D01*
X93022834Y-78098724D01*
X93026351Y-78084683D01*
X93031228Y-78071054D01*
X93037417Y-78057969D01*
X93044858Y-78045553D01*
X93053481Y-78033927D01*
X93063202Y-78023202D01*
X93073927Y-78013481D01*
X93085553Y-78004858D01*
X93097969Y-77997417D01*
X93111054Y-77991228D01*
X93124683Y-77986351D01*
X93138724Y-77982834D01*
X93153042Y-77980710D01*
X93167500Y-77980000D01*
X93462500Y-77980000D01*
X93476958Y-77980710D01*
G37*
G36*
X107681958Y-81030710D02*
G01*
X107696276Y-81032834D01*
X107710317Y-81036351D01*
X107723946Y-81041228D01*
X107737031Y-81047417D01*
X107749447Y-81054858D01*
X107761073Y-81063481D01*
X107771798Y-81073202D01*
X107781519Y-81083927D01*
X107790142Y-81095553D01*
X107797583Y-81107969D01*
X107803772Y-81121054D01*
X107808649Y-81134683D01*
X107812166Y-81148724D01*
X107814290Y-81163042D01*
X107815000Y-81177500D01*
X107815000Y-81522500D01*
X107814290Y-81536958D01*
X107812166Y-81551276D01*
X107808649Y-81565317D01*
X107803772Y-81578946D01*
X107797583Y-81592031D01*
X107790142Y-81604447D01*
X107781519Y-81616073D01*
X107771798Y-81626798D01*
X107761073Y-81636519D01*
X107749447Y-81645142D01*
X107737031Y-81652583D01*
X107723946Y-81658772D01*
X107710317Y-81663649D01*
X107696276Y-81667166D01*
X107681958Y-81669290D01*
X107667500Y-81670000D01*
X107372500Y-81670000D01*
X107358042Y-81669290D01*
X107343724Y-81667166D01*
X107329683Y-81663649D01*
X107316054Y-81658772D01*
X107302969Y-81652583D01*
X107290553Y-81645142D01*
X107278927Y-81636519D01*
X107268202Y-81626798D01*
X107258481Y-81616073D01*
X107249858Y-81604447D01*
X107242417Y-81592031D01*
X107236228Y-81578946D01*
X107231351Y-81565317D01*
X107227834Y-81551276D01*
X107225710Y-81536958D01*
X107225000Y-81522500D01*
X107225000Y-81177500D01*
X107225710Y-81163042D01*
X107227834Y-81148724D01*
X107231351Y-81134683D01*
X107236228Y-81121054D01*
X107242417Y-81107969D01*
X107249858Y-81095553D01*
X107258481Y-81083927D01*
X107268202Y-81073202D01*
X107278927Y-81063481D01*
X107290553Y-81054858D01*
X107302969Y-81047417D01*
X107316054Y-81041228D01*
X107329683Y-81036351D01*
X107343724Y-81032834D01*
X107358042Y-81030710D01*
X107372500Y-81030000D01*
X107667500Y-81030000D01*
X107681958Y-81030710D01*
G37*
G36*
X106711958Y-81030710D02*
G01*
X106726276Y-81032834D01*
X106740317Y-81036351D01*
X106753946Y-81041228D01*
X106767031Y-81047417D01*
X106779447Y-81054858D01*
X106791073Y-81063481D01*
X106801798Y-81073202D01*
X106811519Y-81083927D01*
X106820142Y-81095553D01*
X106827583Y-81107969D01*
X106833772Y-81121054D01*
X106838649Y-81134683D01*
X106842166Y-81148724D01*
X106844290Y-81163042D01*
X106845000Y-81177500D01*
X106845000Y-81522500D01*
X106844290Y-81536958D01*
X106842166Y-81551276D01*
X106838649Y-81565317D01*
X106833772Y-81578946D01*
X106827583Y-81592031D01*
X106820142Y-81604447D01*
X106811519Y-81616073D01*
X106801798Y-81626798D01*
X106791073Y-81636519D01*
X106779447Y-81645142D01*
X106767031Y-81652583D01*
X106753946Y-81658772D01*
X106740317Y-81663649D01*
X106726276Y-81667166D01*
X106711958Y-81669290D01*
X106697500Y-81670000D01*
X106402500Y-81670000D01*
X106388042Y-81669290D01*
X106373724Y-81667166D01*
X106359683Y-81663649D01*
X106346054Y-81658772D01*
X106332969Y-81652583D01*
X106320553Y-81645142D01*
X106308927Y-81636519D01*
X106298202Y-81626798D01*
X106288481Y-81616073D01*
X106279858Y-81604447D01*
X106272417Y-81592031D01*
X106266228Y-81578946D01*
X106261351Y-81565317D01*
X106257834Y-81551276D01*
X106255710Y-81536958D01*
X106255000Y-81522500D01*
X106255000Y-81177500D01*
X106255710Y-81163042D01*
X106257834Y-81148724D01*
X106261351Y-81134683D01*
X106266228Y-81121054D01*
X106272417Y-81107969D01*
X106279858Y-81095553D01*
X106288481Y-81083927D01*
X106298202Y-81073202D01*
X106308927Y-81063481D01*
X106320553Y-81054858D01*
X106332969Y-81047417D01*
X106346054Y-81041228D01*
X106359683Y-81036351D01*
X106373724Y-81032834D01*
X106388042Y-81030710D01*
X106402500Y-81030000D01*
X106697500Y-81030000D01*
X106711958Y-81030710D01*
G37*
G36*
X95830142Y-75401174D02*
G01*
X95853803Y-75404684D01*
X95877007Y-75410496D01*
X95899529Y-75418554D01*
X95921153Y-75428782D01*
X95941670Y-75441079D01*
X95960883Y-75455329D01*
X95978607Y-75471393D01*
X95994671Y-75489117D01*
X96008921Y-75508330D01*
X96021218Y-75528847D01*
X96031446Y-75550471D01*
X96039504Y-75572993D01*
X96045316Y-75596197D01*
X96048826Y-75619858D01*
X96050000Y-75643750D01*
X96050000Y-76556250D01*
X96048826Y-76580142D01*
X96045316Y-76603803D01*
X96039504Y-76627007D01*
X96031446Y-76649529D01*
X96021218Y-76671153D01*
X96008921Y-76691670D01*
X95994671Y-76710883D01*
X95978607Y-76728607D01*
X95960883Y-76744671D01*
X95941670Y-76758921D01*
X95921153Y-76771218D01*
X95899529Y-76781446D01*
X95877007Y-76789504D01*
X95853803Y-76795316D01*
X95830142Y-76798826D01*
X95806250Y-76800000D01*
X95318750Y-76800000D01*
X95294858Y-76798826D01*
X95271197Y-76795316D01*
X95247993Y-76789504D01*
X95225471Y-76781446D01*
X95203847Y-76771218D01*
X95183330Y-76758921D01*
X95164117Y-76744671D01*
X95146393Y-76728607D01*
X95130329Y-76710883D01*
X95116079Y-76691670D01*
X95103782Y-76671153D01*
X95093554Y-76649529D01*
X95085496Y-76627007D01*
X95079684Y-76603803D01*
X95076174Y-76580142D01*
X95075000Y-76556250D01*
X95075000Y-75643750D01*
X95076174Y-75619858D01*
X95079684Y-75596197D01*
X95085496Y-75572993D01*
X95093554Y-75550471D01*
X95103782Y-75528847D01*
X95116079Y-75508330D01*
X95130329Y-75489117D01*
X95146393Y-75471393D01*
X95164117Y-75455329D01*
X95183330Y-75441079D01*
X95203847Y-75428782D01*
X95225471Y-75418554D01*
X95247993Y-75410496D01*
X95271197Y-75404684D01*
X95294858Y-75401174D01*
X95318750Y-75400000D01*
X95806250Y-75400000D01*
X95830142Y-75401174D01*
G37*
G36*
X97705142Y-75401174D02*
G01*
X97728803Y-75404684D01*
X97752007Y-75410496D01*
X97774529Y-75418554D01*
X97796153Y-75428782D01*
X97816670Y-75441079D01*
X97835883Y-75455329D01*
X97853607Y-75471393D01*
X97869671Y-75489117D01*
X97883921Y-75508330D01*
X97896218Y-75528847D01*
X97906446Y-75550471D01*
X97914504Y-75572993D01*
X97920316Y-75596197D01*
X97923826Y-75619858D01*
X97925000Y-75643750D01*
X97925000Y-76556250D01*
X97923826Y-76580142D01*
X97920316Y-76603803D01*
X97914504Y-76627007D01*
X97906446Y-76649529D01*
X97896218Y-76671153D01*
X97883921Y-76691670D01*
X97869671Y-76710883D01*
X97853607Y-76728607D01*
X97835883Y-76744671D01*
X97816670Y-76758921D01*
X97796153Y-76771218D01*
X97774529Y-76781446D01*
X97752007Y-76789504D01*
X97728803Y-76795316D01*
X97705142Y-76798826D01*
X97681250Y-76800000D01*
X97193750Y-76800000D01*
X97169858Y-76798826D01*
X97146197Y-76795316D01*
X97122993Y-76789504D01*
X97100471Y-76781446D01*
X97078847Y-76771218D01*
X97058330Y-76758921D01*
X97039117Y-76744671D01*
X97021393Y-76728607D01*
X97005329Y-76710883D01*
X96991079Y-76691670D01*
X96978782Y-76671153D01*
X96968554Y-76649529D01*
X96960496Y-76627007D01*
X96954684Y-76603803D01*
X96951174Y-76580142D01*
X96950000Y-76556250D01*
X96950000Y-75643750D01*
X96951174Y-75619858D01*
X96954684Y-75596197D01*
X96960496Y-75572993D01*
X96968554Y-75550471D01*
X96978782Y-75528847D01*
X96991079Y-75508330D01*
X97005329Y-75489117D01*
X97021393Y-75471393D01*
X97039117Y-75455329D01*
X97058330Y-75441079D01*
X97078847Y-75428782D01*
X97100471Y-75418554D01*
X97122993Y-75410496D01*
X97146197Y-75404684D01*
X97169858Y-75401174D01*
X97193750Y-75400000D01*
X97681250Y-75400000D01*
X97705142Y-75401174D01*
G37*
G36*
X99827691Y-75476053D02*
G01*
X99848926Y-75479203D01*
X99869750Y-75484419D01*
X99889962Y-75491651D01*
X99909368Y-75500830D01*
X99927781Y-75511866D01*
X99945024Y-75524654D01*
X99960930Y-75539070D01*
X99975346Y-75554976D01*
X99988134Y-75572219D01*
X99999170Y-75590632D01*
X100008349Y-75610038D01*
X100015581Y-75630250D01*
X100020797Y-75651074D01*
X100023947Y-75672309D01*
X100025000Y-75693750D01*
X100025000Y-76131250D01*
X100023947Y-76152691D01*
X100020797Y-76173926D01*
X100015581Y-76194750D01*
X100008349Y-76214962D01*
X99999170Y-76234368D01*
X99988134Y-76252781D01*
X99975346Y-76270024D01*
X99960930Y-76285930D01*
X99945024Y-76300346D01*
X99927781Y-76313134D01*
X99909368Y-76324170D01*
X99889962Y-76333349D01*
X99869750Y-76340581D01*
X99848926Y-76345797D01*
X99827691Y-76348947D01*
X99806250Y-76350000D01*
X99293750Y-76350000D01*
X99272309Y-76348947D01*
X99251074Y-76345797D01*
X99230250Y-76340581D01*
X99210038Y-76333349D01*
X99190632Y-76324170D01*
X99172219Y-76313134D01*
X99154976Y-76300346D01*
X99139070Y-76285930D01*
X99124654Y-76270024D01*
X99111866Y-76252781D01*
X99100830Y-76234368D01*
X99091651Y-76214962D01*
X99084419Y-76194750D01*
X99079203Y-76173926D01*
X99076053Y-76152691D01*
X99075000Y-76131250D01*
X99075000Y-75693750D01*
X99076053Y-75672309D01*
X99079203Y-75651074D01*
X99084419Y-75630250D01*
X99091651Y-75610038D01*
X99100830Y-75590632D01*
X99111866Y-75572219D01*
X99124654Y-75554976D01*
X99139070Y-75539070D01*
X99154976Y-75524654D01*
X99172219Y-75511866D01*
X99190632Y-75500830D01*
X99210038Y-75491651D01*
X99230250Y-75484419D01*
X99251074Y-75479203D01*
X99272309Y-75476053D01*
X99293750Y-75475000D01*
X99806250Y-75475000D01*
X99827691Y-75476053D01*
G37*
G36*
X99827691Y-77051053D02*
G01*
X99848926Y-77054203D01*
X99869750Y-77059419D01*
X99889962Y-77066651D01*
X99909368Y-77075830D01*
X99927781Y-77086866D01*
X99945024Y-77099654D01*
X99960930Y-77114070D01*
X99975346Y-77129976D01*
X99988134Y-77147219D01*
X99999170Y-77165632D01*
X100008349Y-77185038D01*
X100015581Y-77205250D01*
X100020797Y-77226074D01*
X100023947Y-77247309D01*
X100025000Y-77268750D01*
X100025000Y-77706250D01*
X100023947Y-77727691D01*
X100020797Y-77748926D01*
X100015581Y-77769750D01*
X100008349Y-77789962D01*
X99999170Y-77809368D01*
X99988134Y-77827781D01*
X99975346Y-77845024D01*
X99960930Y-77860930D01*
X99945024Y-77875346D01*
X99927781Y-77888134D01*
X99909368Y-77899170D01*
X99889962Y-77908349D01*
X99869750Y-77915581D01*
X99848926Y-77920797D01*
X99827691Y-77923947D01*
X99806250Y-77925000D01*
X99293750Y-77925000D01*
X99272309Y-77923947D01*
X99251074Y-77920797D01*
X99230250Y-77915581D01*
X99210038Y-77908349D01*
X99190632Y-77899170D01*
X99172219Y-77888134D01*
X99154976Y-77875346D01*
X99139070Y-77860930D01*
X99124654Y-77845024D01*
X99111866Y-77827781D01*
X99100830Y-77809368D01*
X99091651Y-77789962D01*
X99084419Y-77769750D01*
X99079203Y-77748926D01*
X99076053Y-77727691D01*
X99075000Y-77706250D01*
X99075000Y-77268750D01*
X99076053Y-77247309D01*
X99079203Y-77226074D01*
X99084419Y-77205250D01*
X99091651Y-77185038D01*
X99100830Y-77165632D01*
X99111866Y-77147219D01*
X99124654Y-77129976D01*
X99139070Y-77114070D01*
X99154976Y-77099654D01*
X99172219Y-77086866D01*
X99190632Y-77075830D01*
X99210038Y-77066651D01*
X99230250Y-77059419D01*
X99251074Y-77054203D01*
X99272309Y-77051053D01*
X99293750Y-77050000D01*
X99806250Y-77050000D01*
X99827691Y-77051053D01*
G37*
G36*
X101327691Y-75476053D02*
G01*
X101348926Y-75479203D01*
X101369750Y-75484419D01*
X101389962Y-75491651D01*
X101409368Y-75500830D01*
X101427781Y-75511866D01*
X101445024Y-75524654D01*
X101460930Y-75539070D01*
X101475346Y-75554976D01*
X101488134Y-75572219D01*
X101499170Y-75590632D01*
X101508349Y-75610038D01*
X101515581Y-75630250D01*
X101520797Y-75651074D01*
X101523947Y-75672309D01*
X101525000Y-75693750D01*
X101525000Y-76131250D01*
X101523947Y-76152691D01*
X101520797Y-76173926D01*
X101515581Y-76194750D01*
X101508349Y-76214962D01*
X101499170Y-76234368D01*
X101488134Y-76252781D01*
X101475346Y-76270024D01*
X101460930Y-76285930D01*
X101445024Y-76300346D01*
X101427781Y-76313134D01*
X101409368Y-76324170D01*
X101389962Y-76333349D01*
X101369750Y-76340581D01*
X101348926Y-76345797D01*
X101327691Y-76348947D01*
X101306250Y-76350000D01*
X100793750Y-76350000D01*
X100772309Y-76348947D01*
X100751074Y-76345797D01*
X100730250Y-76340581D01*
X100710038Y-76333349D01*
X100690632Y-76324170D01*
X100672219Y-76313134D01*
X100654976Y-76300346D01*
X100639070Y-76285930D01*
X100624654Y-76270024D01*
X100611866Y-76252781D01*
X100600830Y-76234368D01*
X100591651Y-76214962D01*
X100584419Y-76194750D01*
X100579203Y-76173926D01*
X100576053Y-76152691D01*
X100575000Y-76131250D01*
X100575000Y-75693750D01*
X100576053Y-75672309D01*
X100579203Y-75651074D01*
X100584419Y-75630250D01*
X100591651Y-75610038D01*
X100600830Y-75590632D01*
X100611866Y-75572219D01*
X100624654Y-75554976D01*
X100639070Y-75539070D01*
X100654976Y-75524654D01*
X100672219Y-75511866D01*
X100690632Y-75500830D01*
X100710038Y-75491651D01*
X100730250Y-75484419D01*
X100751074Y-75479203D01*
X100772309Y-75476053D01*
X100793750Y-75475000D01*
X101306250Y-75475000D01*
X101327691Y-75476053D01*
G37*
G36*
X101327691Y-77051053D02*
G01*
X101348926Y-77054203D01*
X101369750Y-77059419D01*
X101389962Y-77066651D01*
X101409368Y-77075830D01*
X101427781Y-77086866D01*
X101445024Y-77099654D01*
X101460930Y-77114070D01*
X101475346Y-77129976D01*
X101488134Y-77147219D01*
X101499170Y-77165632D01*
X101508349Y-77185038D01*
X101515581Y-77205250D01*
X101520797Y-77226074D01*
X101523947Y-77247309D01*
X101525000Y-77268750D01*
X101525000Y-77706250D01*
X101523947Y-77727691D01*
X101520797Y-77748926D01*
X101515581Y-77769750D01*
X101508349Y-77789962D01*
X101499170Y-77809368D01*
X101488134Y-77827781D01*
X101475346Y-77845024D01*
X101460930Y-77860930D01*
X101445024Y-77875346D01*
X101427781Y-77888134D01*
X101409368Y-77899170D01*
X101389962Y-77908349D01*
X101369750Y-77915581D01*
X101348926Y-77920797D01*
X101327691Y-77923947D01*
X101306250Y-77925000D01*
X100793750Y-77925000D01*
X100772309Y-77923947D01*
X100751074Y-77920797D01*
X100730250Y-77915581D01*
X100710038Y-77908349D01*
X100690632Y-77899170D01*
X100672219Y-77888134D01*
X100654976Y-77875346D01*
X100639070Y-77860930D01*
X100624654Y-77845024D01*
X100611866Y-77827781D01*
X100600830Y-77809368D01*
X100591651Y-77789962D01*
X100584419Y-77769750D01*
X100579203Y-77748926D01*
X100576053Y-77727691D01*
X100575000Y-77706250D01*
X100575000Y-77268750D01*
X100576053Y-77247309D01*
X100579203Y-77226074D01*
X100584419Y-77205250D01*
X100591651Y-77185038D01*
X100600830Y-77165632D01*
X100611866Y-77147219D01*
X100624654Y-77129976D01*
X100639070Y-77114070D01*
X100654976Y-77099654D01*
X100672219Y-77086866D01*
X100690632Y-77075830D01*
X100710038Y-77066651D01*
X100730250Y-77059419D01*
X100751074Y-77054203D01*
X100772309Y-77051053D01*
X100793750Y-77050000D01*
X101306250Y-77050000D01*
X101327691Y-77051053D01*
G37*
G36*
X104627691Y-80126053D02*
G01*
X104648926Y-80129203D01*
X104669750Y-80134419D01*
X104689962Y-80141651D01*
X104709368Y-80150830D01*
X104727781Y-80161866D01*
X104745024Y-80174654D01*
X104760930Y-80189070D01*
X104775346Y-80204976D01*
X104788134Y-80222219D01*
X104799170Y-80240632D01*
X104808349Y-80260038D01*
X104815581Y-80280250D01*
X104820797Y-80301074D01*
X104823947Y-80322309D01*
X104825000Y-80343750D01*
X104825000Y-80856250D01*
X104823947Y-80877691D01*
X104820797Y-80898926D01*
X104815581Y-80919750D01*
X104808349Y-80939962D01*
X104799170Y-80959368D01*
X104788134Y-80977781D01*
X104775346Y-80995024D01*
X104760930Y-81010930D01*
X104745024Y-81025346D01*
X104727781Y-81038134D01*
X104709368Y-81049170D01*
X104689962Y-81058349D01*
X104669750Y-81065581D01*
X104648926Y-81070797D01*
X104627691Y-81073947D01*
X104606250Y-81075000D01*
X104168750Y-81075000D01*
X104147309Y-81073947D01*
X104126074Y-81070797D01*
X104105250Y-81065581D01*
X104085038Y-81058349D01*
X104065632Y-81049170D01*
X104047219Y-81038134D01*
X104029976Y-81025346D01*
X104014070Y-81010930D01*
X103999654Y-80995024D01*
X103986866Y-80977781D01*
X103975830Y-80959368D01*
X103966651Y-80939962D01*
X103959419Y-80919750D01*
X103954203Y-80898926D01*
X103951053Y-80877691D01*
X103950000Y-80856250D01*
X103950000Y-80343750D01*
X103951053Y-80322309D01*
X103954203Y-80301074D01*
X103959419Y-80280250D01*
X103966651Y-80260038D01*
X103975830Y-80240632D01*
X103986866Y-80222219D01*
X103999654Y-80204976D01*
X104014070Y-80189070D01*
X104029976Y-80174654D01*
X104047219Y-80161866D01*
X104065632Y-80150830D01*
X104085038Y-80141651D01*
X104105250Y-80134419D01*
X104126074Y-80129203D01*
X104147309Y-80126053D01*
X104168750Y-80125000D01*
X104606250Y-80125000D01*
X104627691Y-80126053D01*
G37*
G36*
X103052691Y-80126053D02*
G01*
X103073926Y-80129203D01*
X103094750Y-80134419D01*
X103114962Y-80141651D01*
X103134368Y-80150830D01*
X103152781Y-80161866D01*
X103170024Y-80174654D01*
X103185930Y-80189070D01*
X103200346Y-80204976D01*
X103213134Y-80222219D01*
X103224170Y-80240632D01*
X103233349Y-80260038D01*
X103240581Y-80280250D01*
X103245797Y-80301074D01*
X103248947Y-80322309D01*
X103250000Y-80343750D01*
X103250000Y-80856250D01*
X103248947Y-80877691D01*
X103245797Y-80898926D01*
X103240581Y-80919750D01*
X103233349Y-80939962D01*
X103224170Y-80959368D01*
X103213134Y-80977781D01*
X103200346Y-80995024D01*
X103185930Y-81010930D01*
X103170024Y-81025346D01*
X103152781Y-81038134D01*
X103134368Y-81049170D01*
X103114962Y-81058349D01*
X103094750Y-81065581D01*
X103073926Y-81070797D01*
X103052691Y-81073947D01*
X103031250Y-81075000D01*
X102593750Y-81075000D01*
X102572309Y-81073947D01*
X102551074Y-81070797D01*
X102530250Y-81065581D01*
X102510038Y-81058349D01*
X102490632Y-81049170D01*
X102472219Y-81038134D01*
X102454976Y-81025346D01*
X102439070Y-81010930D01*
X102424654Y-80995024D01*
X102411866Y-80977781D01*
X102400830Y-80959368D01*
X102391651Y-80939962D01*
X102384419Y-80919750D01*
X102379203Y-80898926D01*
X102376053Y-80877691D01*
X102375000Y-80856250D01*
X102375000Y-80343750D01*
X102376053Y-80322309D01*
X102379203Y-80301074D01*
X102384419Y-80280250D01*
X102391651Y-80260038D01*
X102400830Y-80240632D01*
X102411866Y-80222219D01*
X102424654Y-80204976D01*
X102439070Y-80189070D01*
X102454976Y-80174654D01*
X102472219Y-80161866D01*
X102490632Y-80150830D01*
X102510038Y-80141651D01*
X102530250Y-80134419D01*
X102551074Y-80129203D01*
X102572309Y-80126053D01*
X102593750Y-80125000D01*
X103031250Y-80125000D01*
X103052691Y-80126053D01*
G37*
M02*
