G04 #@! TF.GenerationSoftware,KiCad,Pcbnew,(5.1.5)-3*
G04 #@! TF.CreationDate,2021-09-26T22:58:58-04:00*
G04 #@! TF.ProjectId,EPC611 LIDAR,45504336-3131-4204-9c49-4441522e6b69,rev?*
G04 #@! TF.SameCoordinates,Original*
G04 #@! TF.FileFunction,Legend,Top*
G04 #@! TF.FilePolarity,Positive*
%FSLAX46Y46*%
G04 Gerber Fmt 4.6, Leading zero omitted, Abs format (unit mm)*
G04 Created by KiCad (PCBNEW (5.1.5)-3) date 2021-09-26 22:58:58*
%MOMM*%
%LPD*%
G04 APERTURE LIST*
%ADD10C,0.120000*%
%ADD11C,0.100000*%
%ADD12C,0.127000*%
%ADD13C,0.200000*%
%ADD14C,0.150000*%
%ADD15C,0.120132*%
G04 APERTURE END LIST*
D10*
X91385000Y-105905000D02*
X91385000Y-106600000D01*
X90700000Y-105905000D02*
X91385000Y-105905000D01*
X90015000Y-107208276D02*
X90015000Y-107295000D01*
X90015000Y-105905000D02*
X90015000Y-105991724D01*
X90015000Y-107295000D02*
X89140000Y-107295000D01*
X90015000Y-105905000D02*
X89140000Y-105905000D01*
X89140000Y-106994493D02*
X89140000Y-107295000D01*
X89140000Y-105905000D02*
X89140000Y-106205507D01*
D11*
G36*
X115234300Y-99659311D02*
G01*
X115234300Y-100040311D01*
X114980300Y-100040311D01*
X114980300Y-99659311D01*
X115234300Y-99659311D01*
G37*
X115234300Y-99659311D02*
X115234300Y-100040311D01*
X114980300Y-100040311D01*
X114980300Y-99659311D01*
X115234300Y-99659311D01*
D10*
X111431300Y-89975800D02*
X93168700Y-89975800D01*
X93168700Y-89975800D02*
X93168700Y-93619761D01*
X93168700Y-121624200D02*
X111431300Y-121624200D01*
X111431300Y-121624200D02*
X111431300Y-117980239D01*
X111431300Y-93619761D02*
X111431300Y-89975800D01*
X93168700Y-117980239D02*
X93168700Y-121624200D01*
X112722399Y-117230000D02*
G75*
G03X112722399Y-117230000I-101600J0D01*
G01*
X113110000Y-107262779D02*
X113110000Y-106937221D01*
X112090000Y-107262779D02*
X112090000Y-106937221D01*
X115610000Y-107158578D02*
X115610000Y-106641422D01*
X114190000Y-107158578D02*
X114190000Y-106641422D01*
X82000000Y-78800000D02*
X85850000Y-78800000D01*
X82000000Y-80800000D02*
X85850000Y-80800000D01*
X82000000Y-78800000D02*
X82000000Y-80800000D01*
D12*
X95050000Y-85250000D02*
X95050000Y-84750000D01*
X97550000Y-85250000D02*
X97550000Y-84750000D01*
D13*
X97394000Y-87275000D02*
G75*
G03X97394000Y-87275000I-100000J0D01*
G01*
D10*
X83475000Y-82500001D02*
X83475000Y-82475000D01*
X83475000Y-85525002D02*
X83475000Y-85500001D01*
X83475000Y-85525002D02*
X85575000Y-85525002D01*
X85575000Y-82500001D02*
X85575000Y-82475000D01*
X85575000Y-85525002D02*
X85575000Y-85500001D01*
X83475000Y-82475000D02*
X85575000Y-82475000D01*
X83000002Y-83000000D02*
G75*
G03X83000002Y-83000000I-125001J0D01*
G01*
D13*
X99050000Y-81450000D02*
G75*
G03X99050000Y-81450000I-100000J0D01*
G01*
D10*
X98830000Y-80450000D02*
X99950000Y-81570000D01*
X101770000Y-81570000D02*
X101095000Y-81570000D01*
X101770000Y-80895000D02*
X101770000Y-81570000D01*
X98830000Y-78630000D02*
X99505000Y-78630000D01*
X98830000Y-79305000D02*
X98830000Y-78630000D01*
X101770000Y-78630000D02*
X101095000Y-78630000D01*
X101770000Y-79305000D02*
X101770000Y-78630000D01*
X98830000Y-78630000D02*
X99505000Y-78630000D01*
X98830000Y-79305000D02*
X98830000Y-78630000D01*
X98830000Y-78630000D02*
X99505000Y-78630000D01*
X98830000Y-79305000D02*
X98830000Y-78630000D01*
X94510000Y-81358578D02*
X94510000Y-80841422D01*
X93090000Y-81358578D02*
X93090000Y-80841422D01*
X115540000Y-82720000D02*
X117000000Y-82720000D01*
X115540000Y-85880000D02*
X117700000Y-85880000D01*
X115540000Y-85880000D02*
X115540000Y-84950000D01*
X115540000Y-82720000D02*
X115540000Y-83650000D01*
X81912779Y-97140000D02*
X81587221Y-97140000D01*
X81912779Y-98160000D02*
X81587221Y-98160000D01*
X90860000Y-100661252D02*
X90860000Y-100138748D01*
X88640000Y-100661252D02*
X88640000Y-100138748D01*
D13*
X107763080Y-78968440D02*
G75*
G03X107763080Y-78968440I-100000J0D01*
G01*
D12*
X108425000Y-78225000D02*
X108425000Y-81975000D01*
X108425000Y-81975000D02*
X112175000Y-81975000D01*
X112175000Y-81975000D02*
X112175000Y-78225000D01*
X112175000Y-78225000D02*
X108425000Y-78225000D01*
D13*
X93036920Y-81231560D02*
G75*
G03X93036920Y-81231560I-100000J0D01*
G01*
D12*
X92175000Y-81975000D02*
X92175000Y-78225000D01*
X92175000Y-78225000D02*
X88425000Y-78225000D01*
X88425000Y-78225000D02*
X88425000Y-81975000D01*
X88425000Y-81975000D02*
X92175000Y-81975000D01*
D10*
X97260000Y-80430000D02*
X95800000Y-80430000D01*
X97260000Y-77270000D02*
X95100000Y-77270000D01*
X97260000Y-77270000D02*
X97260000Y-78200000D01*
X97260000Y-80430000D02*
X97260000Y-79500000D01*
X83670000Y-97410000D02*
X83670000Y-95950000D01*
X86830000Y-97410000D02*
X86830000Y-95250000D01*
X86830000Y-97410000D02*
X85900000Y-97410000D01*
X83670000Y-97410000D02*
X84600000Y-97410000D01*
X90580000Y-95890000D02*
X90580000Y-97350000D01*
X87420000Y-95890000D02*
X87420000Y-98050000D01*
X87420000Y-95890000D02*
X88350000Y-95890000D01*
X90580000Y-95890000D02*
X89650000Y-95890000D01*
X116390000Y-101041422D02*
X116390000Y-101558578D01*
X117810000Y-101041422D02*
X117810000Y-101558578D01*
X83940000Y-86991422D02*
X83940000Y-87508578D01*
X85360000Y-86991422D02*
X85360000Y-87508578D01*
X85375279Y-91640000D02*
X85049721Y-91640000D01*
X85375279Y-92660000D02*
X85049721Y-92660000D01*
X89837221Y-92660000D02*
X90162779Y-92660000D01*
X89837221Y-91640000D02*
X90162779Y-91640000D01*
X83162779Y-101640000D02*
X82837221Y-101640000D01*
X83162779Y-102660000D02*
X82837221Y-102660000D01*
X87162779Y-105140000D02*
X86837221Y-105140000D01*
X87162779Y-106160000D02*
X86837221Y-106160000D01*
X81487221Y-84010000D02*
X81812779Y-84010000D01*
X81487221Y-82990000D02*
X81812779Y-82990000D01*
X99510000Y-83662779D02*
X99510000Y-83337221D01*
X98490000Y-83662779D02*
X98490000Y-83337221D01*
X96758578Y-75390000D02*
X96241422Y-75390000D01*
X96758578Y-76810000D02*
X96241422Y-76810000D01*
X100060000Y-76862779D02*
X100060000Y-76537221D01*
X99040000Y-76862779D02*
X99040000Y-76537221D01*
X101560000Y-76862779D02*
X101560000Y-76537221D01*
X100540000Y-76862779D02*
X100540000Y-76537221D01*
X103437221Y-81110000D02*
X103762779Y-81110000D01*
X103437221Y-80090000D02*
X103762779Y-80090000D01*
D14*
X91712380Y-106933333D02*
X92426666Y-106933333D01*
X92569523Y-106980952D01*
X92664761Y-107076190D01*
X92712380Y-107219047D01*
X92712380Y-107314285D01*
X91712380Y-106028571D02*
X91712380Y-106219047D01*
X91760000Y-106314285D01*
X91807619Y-106361904D01*
X91950476Y-106457142D01*
X92140952Y-106504761D01*
X92521904Y-106504761D01*
X92617142Y-106457142D01*
X92664761Y-106409523D01*
X92712380Y-106314285D01*
X92712380Y-106123809D01*
X92664761Y-106028571D01*
X92617142Y-105980952D01*
X92521904Y-105933333D01*
X92283809Y-105933333D01*
X92188571Y-105980952D01*
X92140952Y-106028571D01*
X92093333Y-106123809D01*
X92093333Y-106314285D01*
X92140952Y-106409523D01*
X92188571Y-106457142D01*
X92283809Y-106504761D01*
X113088095Y-100052380D02*
X113088095Y-100861904D01*
X113135714Y-100957142D01*
X113183333Y-101004761D01*
X113278571Y-101052380D01*
X113469047Y-101052380D01*
X113564285Y-101004761D01*
X113611904Y-100957142D01*
X113659523Y-100861904D01*
X113659523Y-100052380D01*
X114611904Y-100052380D02*
X114135714Y-100052380D01*
X114088095Y-100528571D01*
X114135714Y-100480952D01*
X114230952Y-100433333D01*
X114469047Y-100433333D01*
X114564285Y-100480952D01*
X114611904Y-100528571D01*
X114659523Y-100623809D01*
X114659523Y-100861904D01*
X114611904Y-100957142D01*
X114564285Y-101004761D01*
X114469047Y-101052380D01*
X114230952Y-101052380D01*
X114135714Y-101004761D01*
X114088095Y-100957142D01*
X101538095Y-105252380D02*
X101538095Y-106061904D01*
X101585714Y-106157142D01*
X101633333Y-106204761D01*
X101728571Y-106252380D01*
X101919047Y-106252380D01*
X102014285Y-106204761D01*
X102061904Y-106157142D01*
X102109523Y-106061904D01*
X102109523Y-105252380D01*
X102490476Y-105252380D02*
X103109523Y-105252380D01*
X102776190Y-105633333D01*
X102919047Y-105633333D01*
X103014285Y-105680952D01*
X103061904Y-105728571D01*
X103109523Y-105823809D01*
X103109523Y-106061904D01*
X103061904Y-106157142D01*
X103014285Y-106204761D01*
X102919047Y-106252380D01*
X102633333Y-106252380D01*
X102538095Y-106204761D01*
X102490476Y-106157142D01*
X102300000Y-105252380D02*
X102300000Y-105490476D01*
X102061904Y-105395238D02*
X102300000Y-105490476D01*
X102538095Y-105395238D01*
X102157142Y-105680952D02*
X102300000Y-105490476D01*
X102442857Y-105680952D01*
X119652380Y-107742857D02*
X119176190Y-108076190D01*
X119652380Y-108314285D02*
X118652380Y-108314285D01*
X118652380Y-107933333D01*
X118700000Y-107838095D01*
X118747619Y-107790476D01*
X118842857Y-107742857D01*
X118985714Y-107742857D01*
X119080952Y-107790476D01*
X119128571Y-107838095D01*
X119176190Y-107933333D01*
X119176190Y-108314285D01*
X119652380Y-106790476D02*
X119652380Y-107361904D01*
X119652380Y-107076190D02*
X118652380Y-107076190D01*
X118795238Y-107171428D01*
X118890476Y-107266666D01*
X118938095Y-107361904D01*
X118652380Y-106457142D02*
X118652380Y-105790476D01*
X119652380Y-106219047D01*
X91782380Y-113942857D02*
X91306190Y-114276190D01*
X91782380Y-114514285D02*
X90782380Y-114514285D01*
X90782380Y-114133333D01*
X90830000Y-114038095D01*
X90877619Y-113990476D01*
X90972857Y-113942857D01*
X91115714Y-113942857D01*
X91210952Y-113990476D01*
X91258571Y-114038095D01*
X91306190Y-114133333D01*
X91306190Y-114514285D01*
X91782380Y-112990476D02*
X91782380Y-113561904D01*
X91782380Y-113276190D02*
X90782380Y-113276190D01*
X90925238Y-113371428D01*
X91020476Y-113466666D01*
X91068095Y-113561904D01*
X91115714Y-112133333D02*
X91782380Y-112133333D01*
X90734761Y-112371428D02*
X91449047Y-112609523D01*
X91449047Y-111990476D01*
X91752380Y-104642857D02*
X91276190Y-104976190D01*
X91752380Y-105214285D02*
X90752380Y-105214285D01*
X90752380Y-104833333D01*
X90800000Y-104738095D01*
X90847619Y-104690476D01*
X90942857Y-104642857D01*
X91085714Y-104642857D01*
X91180952Y-104690476D01*
X91228571Y-104738095D01*
X91276190Y-104833333D01*
X91276190Y-105214285D01*
X91752380Y-103690476D02*
X91752380Y-104261904D01*
X91752380Y-103976190D02*
X90752380Y-103976190D01*
X90895238Y-104071428D01*
X90990476Y-104166666D01*
X91038095Y-104261904D01*
X90752380Y-103357142D02*
X90752380Y-102738095D01*
X91133333Y-103071428D01*
X91133333Y-102928571D01*
X91180952Y-102833333D01*
X91228571Y-102785714D01*
X91323809Y-102738095D01*
X91561904Y-102738095D01*
X91657142Y-102785714D01*
X91704761Y-102833333D01*
X91752380Y-102928571D01*
X91752380Y-103214285D01*
X91704761Y-103309523D01*
X91657142Y-103357142D01*
X118257142Y-107642857D02*
X118304761Y-107690476D01*
X118352380Y-107833333D01*
X118352380Y-107928571D01*
X118304761Y-108071428D01*
X118209523Y-108166666D01*
X118114285Y-108214285D01*
X117923809Y-108261904D01*
X117780952Y-108261904D01*
X117590476Y-108214285D01*
X117495238Y-108166666D01*
X117400000Y-108071428D01*
X117352380Y-107928571D01*
X117352380Y-107833333D01*
X117400000Y-107690476D01*
X117447619Y-107642857D01*
X117447619Y-107261904D02*
X117400000Y-107214285D01*
X117352380Y-107119047D01*
X117352380Y-106880952D01*
X117400000Y-106785714D01*
X117447619Y-106738095D01*
X117542857Y-106690476D01*
X117638095Y-106690476D01*
X117780952Y-106738095D01*
X118352380Y-107309523D01*
X118352380Y-106690476D01*
X117352380Y-106357142D02*
X117352380Y-105738095D01*
X117733333Y-106071428D01*
X117733333Y-105928571D01*
X117780952Y-105833333D01*
X117828571Y-105785714D01*
X117923809Y-105738095D01*
X118161904Y-105738095D01*
X118257142Y-105785714D01*
X118304761Y-105833333D01*
X118352380Y-105928571D01*
X118352380Y-106214285D01*
X118304761Y-106309523D01*
X118257142Y-106357142D01*
X117157142Y-105157142D02*
X117109523Y-105204761D01*
X116966666Y-105252380D01*
X116871428Y-105252380D01*
X116728571Y-105204761D01*
X116633333Y-105109523D01*
X116585714Y-105014285D01*
X116538095Y-104823809D01*
X116538095Y-104680952D01*
X116585714Y-104490476D01*
X116633333Y-104395238D01*
X116728571Y-104300000D01*
X116871428Y-104252380D01*
X116966666Y-104252380D01*
X117109523Y-104300000D01*
X117157142Y-104347619D01*
X118109523Y-105252380D02*
X117538095Y-105252380D01*
X117823809Y-105252380D02*
X117823809Y-104252380D01*
X117728571Y-104395238D01*
X117633333Y-104490476D01*
X117538095Y-104538095D01*
X118680952Y-104680952D02*
X118585714Y-104633333D01*
X118538095Y-104585714D01*
X118490476Y-104490476D01*
X118490476Y-104442857D01*
X118538095Y-104347619D01*
X118585714Y-104300000D01*
X118680952Y-104252380D01*
X118871428Y-104252380D01*
X118966666Y-104300000D01*
X119014285Y-104347619D01*
X119061904Y-104442857D01*
X119061904Y-104490476D01*
X119014285Y-104585714D01*
X118966666Y-104633333D01*
X118871428Y-104680952D01*
X118680952Y-104680952D01*
X118585714Y-104728571D01*
X118538095Y-104776190D01*
X118490476Y-104871428D01*
X118490476Y-105061904D01*
X118538095Y-105157142D01*
X118585714Y-105204761D01*
X118680952Y-105252380D01*
X118871428Y-105252380D01*
X118966666Y-105204761D01*
X119014285Y-105157142D01*
X119061904Y-105061904D01*
X119061904Y-104871428D01*
X119014285Y-104776190D01*
X118966666Y-104728571D01*
X118871428Y-104680952D01*
X116857142Y-107542857D02*
X116904761Y-107590476D01*
X116952380Y-107733333D01*
X116952380Y-107828571D01*
X116904761Y-107971428D01*
X116809523Y-108066666D01*
X116714285Y-108114285D01*
X116523809Y-108161904D01*
X116380952Y-108161904D01*
X116190476Y-108114285D01*
X116095238Y-108066666D01*
X116000000Y-107971428D01*
X115952380Y-107828571D01*
X115952380Y-107733333D01*
X116000000Y-107590476D01*
X116047619Y-107542857D01*
X116952380Y-106590476D02*
X116952380Y-107161904D01*
X116952380Y-106876190D02*
X115952380Y-106876190D01*
X116095238Y-106971428D01*
X116190476Y-107066666D01*
X116238095Y-107161904D01*
X115952380Y-106257142D02*
X115952380Y-105590476D01*
X116952380Y-106019047D01*
X80261904Y-80252380D02*
X80261904Y-79252380D01*
X80500000Y-79252380D01*
X80642857Y-79300000D01*
X80738095Y-79395238D01*
X80785714Y-79490476D01*
X80833333Y-79680952D01*
X80833333Y-79823809D01*
X80785714Y-80014285D01*
X80738095Y-80109523D01*
X80642857Y-80204761D01*
X80500000Y-80252380D01*
X80261904Y-80252380D01*
X81690476Y-79252380D02*
X81500000Y-79252380D01*
X81404761Y-79300000D01*
X81357142Y-79347619D01*
X81261904Y-79490476D01*
X81214285Y-79680952D01*
X81214285Y-80061904D01*
X81261904Y-80157142D01*
X81309523Y-80204761D01*
X81404761Y-80252380D01*
X81595238Y-80252380D01*
X81690476Y-80204761D01*
X81738095Y-80157142D01*
X81785714Y-80061904D01*
X81785714Y-79823809D01*
X81738095Y-79728571D01*
X81690476Y-79680952D01*
X81595238Y-79633333D01*
X81404761Y-79633333D01*
X81309523Y-79680952D01*
X81261904Y-79728571D01*
X81214285Y-79823809D01*
X82352380Y-86392857D02*
X81876190Y-86726190D01*
X82352380Y-86964285D02*
X81352380Y-86964285D01*
X81352380Y-86583333D01*
X81400000Y-86488095D01*
X81447619Y-86440476D01*
X81542857Y-86392857D01*
X81685714Y-86392857D01*
X81780952Y-86440476D01*
X81828571Y-86488095D01*
X81876190Y-86583333D01*
X81876190Y-86964285D01*
X82352380Y-85440476D02*
X82352380Y-86011904D01*
X82352380Y-85726190D02*
X81352380Y-85726190D01*
X81495238Y-85821428D01*
X81590476Y-85916666D01*
X81638095Y-86011904D01*
X81352380Y-84583333D02*
X81352380Y-84773809D01*
X81400000Y-84869047D01*
X81447619Y-84916666D01*
X81590476Y-85011904D01*
X81780952Y-85059523D01*
X82161904Y-85059523D01*
X82257142Y-85011904D01*
X82304761Y-84964285D01*
X82352380Y-84869047D01*
X82352380Y-84678571D01*
X82304761Y-84583333D01*
X82257142Y-84535714D01*
X82161904Y-84488095D01*
X81923809Y-84488095D01*
X81828571Y-84535714D01*
X81780952Y-84583333D01*
X81733333Y-84678571D01*
X81733333Y-84869047D01*
X81780952Y-84964285D01*
X81828571Y-85011904D01*
X81923809Y-85059523D01*
D15*
X93987233Y-85838490D02*
X94216056Y-85838490D01*
X93735529Y-85998666D02*
X93987233Y-85838490D01*
X93735529Y-85678314D01*
X94216056Y-85266434D02*
X94216056Y-85541021D01*
X94216056Y-85403727D02*
X93735529Y-85403727D01*
X93804175Y-85449492D01*
X93849940Y-85495256D01*
X93872822Y-85541021D01*
D14*
X84438095Y-81202380D02*
X84438095Y-82011904D01*
X84485714Y-82107142D01*
X84533333Y-82154761D01*
X84628571Y-82202380D01*
X84819047Y-82202380D01*
X84914285Y-82154761D01*
X84961904Y-82107142D01*
X85009523Y-82011904D01*
X85009523Y-81202380D01*
X85914285Y-81535714D02*
X85914285Y-82202380D01*
X85676190Y-81154761D02*
X85438095Y-81869047D01*
X86057142Y-81869047D01*
X103452380Y-77361904D02*
X104261904Y-77361904D01*
X104357142Y-77314285D01*
X104404761Y-77266666D01*
X104452380Y-77171428D01*
X104452380Y-76980952D01*
X104404761Y-76885714D01*
X104357142Y-76838095D01*
X104261904Y-76790476D01*
X103452380Y-76790476D01*
X103547619Y-76361904D02*
X103500000Y-76314285D01*
X103452380Y-76219047D01*
X103452380Y-75980952D01*
X103500000Y-75885714D01*
X103547619Y-75838095D01*
X103642857Y-75790476D01*
X103738095Y-75790476D01*
X103880952Y-75838095D01*
X104452380Y-76409523D01*
X104452380Y-75790476D01*
X88952380Y-104261904D02*
X89761904Y-104261904D01*
X89857142Y-104214285D01*
X89904761Y-104166666D01*
X89952380Y-104071428D01*
X89952380Y-103880952D01*
X89904761Y-103785714D01*
X89857142Y-103738095D01*
X89761904Y-103690476D01*
X88952380Y-103690476D01*
X89952380Y-102690476D02*
X89952380Y-103261904D01*
X89952380Y-102976190D02*
X88952380Y-102976190D01*
X89095238Y-103071428D01*
X89190476Y-103166666D01*
X89238095Y-103261904D01*
X88657142Y-109052380D02*
X88323809Y-108576190D01*
X88085714Y-109052380D02*
X88085714Y-108052380D01*
X88466666Y-108052380D01*
X88561904Y-108100000D01*
X88609523Y-108147619D01*
X88657142Y-108242857D01*
X88657142Y-108385714D01*
X88609523Y-108480952D01*
X88561904Y-108528571D01*
X88466666Y-108576190D01*
X88085714Y-108576190D01*
X89609523Y-109052380D02*
X89038095Y-109052380D01*
X89323809Y-109052380D02*
X89323809Y-108052380D01*
X89228571Y-108195238D01*
X89133333Y-108290476D01*
X89038095Y-108338095D01*
X90514285Y-108052380D02*
X90038095Y-108052380D01*
X89990476Y-108528571D01*
X90038095Y-108480952D01*
X90133333Y-108433333D01*
X90371428Y-108433333D01*
X90466666Y-108480952D01*
X90514285Y-108528571D01*
X90561904Y-108623809D01*
X90561904Y-108861904D01*
X90514285Y-108957142D01*
X90466666Y-109004761D01*
X90371428Y-109052380D01*
X90133333Y-109052380D01*
X90038095Y-109004761D01*
X89990476Y-108957142D01*
X101657142Y-85752380D02*
X101323809Y-85276190D01*
X101085714Y-85752380D02*
X101085714Y-84752380D01*
X101466666Y-84752380D01*
X101561904Y-84800000D01*
X101609523Y-84847619D01*
X101657142Y-84942857D01*
X101657142Y-85085714D01*
X101609523Y-85180952D01*
X101561904Y-85228571D01*
X101466666Y-85276190D01*
X101085714Y-85276190D01*
X102609523Y-85752380D02*
X102038095Y-85752380D01*
X102323809Y-85752380D02*
X102323809Y-84752380D01*
X102228571Y-84895238D01*
X102133333Y-84990476D01*
X102038095Y-85038095D01*
X102990476Y-84847619D02*
X103038095Y-84800000D01*
X103133333Y-84752380D01*
X103371428Y-84752380D01*
X103466666Y-84800000D01*
X103514285Y-84847619D01*
X103561904Y-84942857D01*
X103561904Y-85038095D01*
X103514285Y-85180952D01*
X102942857Y-85752380D01*
X103561904Y-85752380D01*
X100252380Y-87942857D02*
X99776190Y-88276190D01*
X100252380Y-88514285D02*
X99252380Y-88514285D01*
X99252380Y-88133333D01*
X99300000Y-88038095D01*
X99347619Y-87990476D01*
X99442857Y-87942857D01*
X99585714Y-87942857D01*
X99680952Y-87990476D01*
X99728571Y-88038095D01*
X99776190Y-88133333D01*
X99776190Y-88514285D01*
X100252380Y-86990476D02*
X100252380Y-87561904D01*
X100252380Y-87276190D02*
X99252380Y-87276190D01*
X99395238Y-87371428D01*
X99490476Y-87466666D01*
X99538095Y-87561904D01*
X100252380Y-86038095D02*
X100252380Y-86609523D01*
X100252380Y-86323809D02*
X99252380Y-86323809D01*
X99395238Y-86419047D01*
X99490476Y-86514285D01*
X99538095Y-86609523D01*
X94752380Y-89042857D02*
X94276190Y-89376190D01*
X94752380Y-89614285D02*
X93752380Y-89614285D01*
X93752380Y-89233333D01*
X93800000Y-89138095D01*
X93847619Y-89090476D01*
X93942857Y-89042857D01*
X94085714Y-89042857D01*
X94180952Y-89090476D01*
X94228571Y-89138095D01*
X94276190Y-89233333D01*
X94276190Y-89614285D01*
X94752380Y-88090476D02*
X94752380Y-88661904D01*
X94752380Y-88376190D02*
X93752380Y-88376190D01*
X93895238Y-88471428D01*
X93990476Y-88566666D01*
X94038095Y-88661904D01*
X93752380Y-87471428D02*
X93752380Y-87376190D01*
X93800000Y-87280952D01*
X93847619Y-87233333D01*
X93942857Y-87185714D01*
X94133333Y-87138095D01*
X94371428Y-87138095D01*
X94561904Y-87185714D01*
X94657142Y-87233333D01*
X94704761Y-87280952D01*
X94752380Y-87376190D01*
X94752380Y-87471428D01*
X94704761Y-87566666D01*
X94657142Y-87614285D01*
X94561904Y-87661904D01*
X94371428Y-87709523D01*
X94133333Y-87709523D01*
X93942857Y-87661904D01*
X93847619Y-87614285D01*
X93800000Y-87566666D01*
X93752380Y-87471428D01*
X87583333Y-93602380D02*
X87250000Y-93126190D01*
X87011904Y-93602380D02*
X87011904Y-92602380D01*
X87392857Y-92602380D01*
X87488095Y-92650000D01*
X87535714Y-92697619D01*
X87583333Y-92792857D01*
X87583333Y-92935714D01*
X87535714Y-93030952D01*
X87488095Y-93078571D01*
X87392857Y-93126190D01*
X87011904Y-93126190D01*
X88059523Y-93602380D02*
X88250000Y-93602380D01*
X88345238Y-93554761D01*
X88392857Y-93507142D01*
X88488095Y-93364285D01*
X88535714Y-93173809D01*
X88535714Y-92792857D01*
X88488095Y-92697619D01*
X88440476Y-92650000D01*
X88345238Y-92602380D01*
X88154761Y-92602380D01*
X88059523Y-92650000D01*
X88011904Y-92697619D01*
X87964285Y-92792857D01*
X87964285Y-93030952D01*
X88011904Y-93126190D01*
X88059523Y-93173809D01*
X88154761Y-93221428D01*
X88345238Y-93221428D01*
X88440476Y-93173809D01*
X88488095Y-93126190D01*
X88535714Y-93030952D01*
X87583333Y-94852380D02*
X87250000Y-94376190D01*
X87011904Y-94852380D02*
X87011904Y-93852380D01*
X87392857Y-93852380D01*
X87488095Y-93900000D01*
X87535714Y-93947619D01*
X87583333Y-94042857D01*
X87583333Y-94185714D01*
X87535714Y-94280952D01*
X87488095Y-94328571D01*
X87392857Y-94376190D01*
X87011904Y-94376190D01*
X88154761Y-94280952D02*
X88059523Y-94233333D01*
X88011904Y-94185714D01*
X87964285Y-94090476D01*
X87964285Y-94042857D01*
X88011904Y-93947619D01*
X88059523Y-93900000D01*
X88154761Y-93852380D01*
X88345238Y-93852380D01*
X88440476Y-93900000D01*
X88488095Y-93947619D01*
X88535714Y-94042857D01*
X88535714Y-94090476D01*
X88488095Y-94185714D01*
X88440476Y-94233333D01*
X88345238Y-94280952D01*
X88154761Y-94280952D01*
X88059523Y-94328571D01*
X88011904Y-94376190D01*
X87964285Y-94471428D01*
X87964285Y-94661904D01*
X88011904Y-94757142D01*
X88059523Y-94804761D01*
X88154761Y-94852380D01*
X88345238Y-94852380D01*
X88440476Y-94804761D01*
X88488095Y-94757142D01*
X88535714Y-94661904D01*
X88535714Y-94471428D01*
X88488095Y-94376190D01*
X88440476Y-94328571D01*
X88345238Y-94280952D01*
X91333333Y-93852380D02*
X91000000Y-93376190D01*
X90761904Y-93852380D02*
X90761904Y-92852380D01*
X91142857Y-92852380D01*
X91238095Y-92900000D01*
X91285714Y-92947619D01*
X91333333Y-93042857D01*
X91333333Y-93185714D01*
X91285714Y-93280952D01*
X91238095Y-93328571D01*
X91142857Y-93376190D01*
X90761904Y-93376190D01*
X91666666Y-92852380D02*
X92333333Y-92852380D01*
X91904761Y-93852380D01*
X92852380Y-96666666D02*
X92376190Y-97000000D01*
X92852380Y-97238095D02*
X91852380Y-97238095D01*
X91852380Y-96857142D01*
X91900000Y-96761904D01*
X91947619Y-96714285D01*
X92042857Y-96666666D01*
X92185714Y-96666666D01*
X92280952Y-96714285D01*
X92328571Y-96761904D01*
X92376190Y-96857142D01*
X92376190Y-97238095D01*
X91852380Y-95809523D02*
X91852380Y-96000000D01*
X91900000Y-96095238D01*
X91947619Y-96142857D01*
X92090476Y-96238095D01*
X92280952Y-96285714D01*
X92661904Y-96285714D01*
X92757142Y-96238095D01*
X92804761Y-96190476D01*
X92852380Y-96095238D01*
X92852380Y-95904761D01*
X92804761Y-95809523D01*
X92757142Y-95761904D01*
X92661904Y-95714285D01*
X92423809Y-95714285D01*
X92328571Y-95761904D01*
X92280952Y-95809523D01*
X92233333Y-95904761D01*
X92233333Y-96095238D01*
X92280952Y-96190476D01*
X92328571Y-96238095D01*
X92423809Y-96285714D01*
X83282380Y-100566666D02*
X82806190Y-100900000D01*
X83282380Y-101138095D02*
X82282380Y-101138095D01*
X82282380Y-100757142D01*
X82330000Y-100661904D01*
X82377619Y-100614285D01*
X82472857Y-100566666D01*
X82615714Y-100566666D01*
X82710952Y-100614285D01*
X82758571Y-100661904D01*
X82806190Y-100757142D01*
X82806190Y-101138095D01*
X82282380Y-99661904D02*
X82282380Y-100138095D01*
X82758571Y-100185714D01*
X82710952Y-100138095D01*
X82663333Y-100042857D01*
X82663333Y-99804761D01*
X82710952Y-99709523D01*
X82758571Y-99661904D01*
X82853809Y-99614285D01*
X83091904Y-99614285D01*
X83187142Y-99661904D01*
X83234761Y-99709523D01*
X83282380Y-99804761D01*
X83282380Y-100042857D01*
X83234761Y-100138095D01*
X83187142Y-100185714D01*
X87852380Y-104066666D02*
X87376190Y-104400000D01*
X87852380Y-104638095D02*
X86852380Y-104638095D01*
X86852380Y-104257142D01*
X86900000Y-104161904D01*
X86947619Y-104114285D01*
X87042857Y-104066666D01*
X87185714Y-104066666D01*
X87280952Y-104114285D01*
X87328571Y-104161904D01*
X87376190Y-104257142D01*
X87376190Y-104638095D01*
X87185714Y-103209523D02*
X87852380Y-103209523D01*
X86804761Y-103447619D02*
X87519047Y-103685714D01*
X87519047Y-103066666D01*
X117052380Y-89766666D02*
X116576190Y-90100000D01*
X117052380Y-90338095D02*
X116052380Y-90338095D01*
X116052380Y-89957142D01*
X116100000Y-89861904D01*
X116147619Y-89814285D01*
X116242857Y-89766666D01*
X116385714Y-89766666D01*
X116480952Y-89814285D01*
X116528571Y-89861904D01*
X116576190Y-89957142D01*
X116576190Y-90338095D01*
X116052380Y-89433333D02*
X116052380Y-88814285D01*
X116433333Y-89147619D01*
X116433333Y-89004761D01*
X116480952Y-88909523D01*
X116528571Y-88861904D01*
X116623809Y-88814285D01*
X116861904Y-88814285D01*
X116957142Y-88861904D01*
X117004761Y-88909523D01*
X117052380Y-89004761D01*
X117052380Y-89290476D01*
X117004761Y-89385714D01*
X116957142Y-89433333D01*
X93452380Y-87766666D02*
X92976190Y-88100000D01*
X93452380Y-88338095D02*
X92452380Y-88338095D01*
X92452380Y-87957142D01*
X92500000Y-87861904D01*
X92547619Y-87814285D01*
X92642857Y-87766666D01*
X92785714Y-87766666D01*
X92880952Y-87814285D01*
X92928571Y-87861904D01*
X92976190Y-87957142D01*
X92976190Y-88338095D01*
X92547619Y-87385714D02*
X92500000Y-87338095D01*
X92452380Y-87242857D01*
X92452380Y-87004761D01*
X92500000Y-86909523D01*
X92547619Y-86861904D01*
X92642857Y-86814285D01*
X92738095Y-86814285D01*
X92880952Y-86861904D01*
X93452380Y-87433333D01*
X93452380Y-86814285D01*
X93533333Y-74952380D02*
X93200000Y-74476190D01*
X92961904Y-74952380D02*
X92961904Y-73952380D01*
X93342857Y-73952380D01*
X93438095Y-74000000D01*
X93485714Y-74047619D01*
X93533333Y-74142857D01*
X93533333Y-74285714D01*
X93485714Y-74380952D01*
X93438095Y-74428571D01*
X93342857Y-74476190D01*
X92961904Y-74476190D01*
X94485714Y-74952380D02*
X93914285Y-74952380D01*
X94200000Y-74952380D02*
X94200000Y-73952380D01*
X94104761Y-74095238D01*
X94009523Y-74190476D01*
X93914285Y-74238095D01*
X116204761Y-82447619D02*
X116109523Y-82400000D01*
X116014285Y-82304761D01*
X115871428Y-82161904D01*
X115776190Y-82114285D01*
X115680952Y-82114285D01*
X115728571Y-82352380D02*
X115633333Y-82304761D01*
X115538095Y-82209523D01*
X115490476Y-82019047D01*
X115490476Y-81685714D01*
X115538095Y-81495238D01*
X115633333Y-81400000D01*
X115728571Y-81352380D01*
X115919047Y-81352380D01*
X116014285Y-81400000D01*
X116109523Y-81495238D01*
X116157142Y-81685714D01*
X116157142Y-82019047D01*
X116109523Y-82209523D01*
X116014285Y-82304761D01*
X115919047Y-82352380D01*
X115728571Y-82352380D01*
X117109523Y-82352380D02*
X116538095Y-82352380D01*
X116823809Y-82352380D02*
X116823809Y-81352380D01*
X116728571Y-81495238D01*
X116633333Y-81590476D01*
X116538095Y-81638095D01*
X80833333Y-99602380D02*
X80357142Y-99602380D01*
X80357142Y-98602380D01*
X81119047Y-98697619D02*
X81166666Y-98650000D01*
X81261904Y-98602380D01*
X81500000Y-98602380D01*
X81595238Y-98650000D01*
X81642857Y-98697619D01*
X81690476Y-98792857D01*
X81690476Y-98888095D01*
X81642857Y-99030952D01*
X81071428Y-99602380D01*
X81690476Y-99602380D01*
X92352380Y-100466666D02*
X92352380Y-100942857D01*
X91352380Y-100942857D01*
X92352380Y-99609523D02*
X92352380Y-100180952D01*
X92352380Y-99895238D02*
X91352380Y-99895238D01*
X91495238Y-99990476D01*
X91590476Y-100085714D01*
X91638095Y-100180952D01*
X105852380Y-84633333D02*
X106566666Y-84633333D01*
X106709523Y-84680952D01*
X106804761Y-84776190D01*
X106852380Y-84919047D01*
X106852380Y-85014285D01*
X106185714Y-83728571D02*
X106852380Y-83728571D01*
X105804761Y-83966666D02*
X106519047Y-84204761D01*
X106519047Y-83585714D01*
X112835058Y-80384964D02*
X112835058Y-79755043D01*
X112985039Y-79755043D01*
X113075028Y-79785039D01*
X113135020Y-79845031D01*
X113165016Y-79905024D01*
X113195013Y-80025009D01*
X113195013Y-80114998D01*
X113165016Y-80234983D01*
X113135020Y-80294975D01*
X113075028Y-80354968D01*
X112985039Y-80384964D01*
X112835058Y-80384964D01*
X113764941Y-79755043D02*
X113464979Y-79755043D01*
X113434983Y-80055005D01*
X113464979Y-80025009D01*
X113524971Y-79995013D01*
X113674952Y-79995013D01*
X113734945Y-80025009D01*
X113764941Y-80055005D01*
X113794937Y-80114998D01*
X113794937Y-80264979D01*
X113764941Y-80324971D01*
X113734945Y-80354968D01*
X113674952Y-80384964D01*
X113524971Y-80384964D01*
X113464979Y-80354968D01*
X113434983Y-80324971D01*
X87735058Y-77784964D02*
X87735058Y-77155043D01*
X87885039Y-77155043D01*
X87975028Y-77185039D01*
X88035020Y-77245031D01*
X88065016Y-77305024D01*
X88095013Y-77425009D01*
X88095013Y-77514998D01*
X88065016Y-77634983D01*
X88035020Y-77694975D01*
X87975028Y-77754968D01*
X87885039Y-77784964D01*
X87735058Y-77784964D01*
X88634945Y-77365016D02*
X88634945Y-77784964D01*
X88484964Y-77125047D02*
X88334983Y-77574990D01*
X88724934Y-77574990D01*
X93011904Y-76352380D02*
X93011904Y-75352380D01*
X93250000Y-75352380D01*
X93392857Y-75400000D01*
X93488095Y-75495238D01*
X93535714Y-75590476D01*
X93583333Y-75780952D01*
X93583333Y-75923809D01*
X93535714Y-76114285D01*
X93488095Y-76209523D01*
X93392857Y-76304761D01*
X93250000Y-76352380D01*
X93011904Y-76352380D01*
X93916666Y-75352380D02*
X94535714Y-75352380D01*
X94202380Y-75733333D01*
X94345238Y-75733333D01*
X94440476Y-75780952D01*
X94488095Y-75828571D01*
X94535714Y-75923809D01*
X94535714Y-76161904D01*
X94488095Y-76257142D01*
X94440476Y-76304761D01*
X94345238Y-76352380D01*
X94059523Y-76352380D01*
X93964285Y-76304761D01*
X93916666Y-76257142D01*
X83202380Y-96388095D02*
X82202380Y-96388095D01*
X82202380Y-96150000D01*
X82250000Y-96007142D01*
X82345238Y-95911904D01*
X82440476Y-95864285D01*
X82630952Y-95816666D01*
X82773809Y-95816666D01*
X82964285Y-95864285D01*
X83059523Y-95911904D01*
X83154761Y-96007142D01*
X83202380Y-96150000D01*
X83202380Y-96388095D01*
X82297619Y-95435714D02*
X82250000Y-95388095D01*
X82202380Y-95292857D01*
X82202380Y-95054761D01*
X82250000Y-94959523D01*
X82297619Y-94911904D01*
X82392857Y-94864285D01*
X82488095Y-94864285D01*
X82630952Y-94911904D01*
X83202380Y-95483333D01*
X83202380Y-94864285D01*
X92452380Y-99238095D02*
X91452380Y-99238095D01*
X91452380Y-99000000D01*
X91500000Y-98857142D01*
X91595238Y-98761904D01*
X91690476Y-98714285D01*
X91880952Y-98666666D01*
X92023809Y-98666666D01*
X92214285Y-98714285D01*
X92309523Y-98761904D01*
X92404761Y-98857142D01*
X92452380Y-99000000D01*
X92452380Y-99238095D01*
X92452380Y-97714285D02*
X92452380Y-98285714D01*
X92452380Y-98000000D02*
X91452380Y-98000000D01*
X91595238Y-98095238D01*
X91690476Y-98190476D01*
X91738095Y-98285714D01*
X112787142Y-103992857D02*
X112834761Y-104040476D01*
X112882380Y-104183333D01*
X112882380Y-104278571D01*
X112834761Y-104421428D01*
X112739523Y-104516666D01*
X112644285Y-104564285D01*
X112453809Y-104611904D01*
X112310952Y-104611904D01*
X112120476Y-104564285D01*
X112025238Y-104516666D01*
X111930000Y-104421428D01*
X111882380Y-104278571D01*
X111882380Y-104183333D01*
X111930000Y-104040476D01*
X111977619Y-103992857D01*
X111977619Y-103611904D02*
X111930000Y-103564285D01*
X111882380Y-103469047D01*
X111882380Y-103230952D01*
X111930000Y-103135714D01*
X111977619Y-103088095D01*
X112072857Y-103040476D01*
X112168095Y-103040476D01*
X112310952Y-103088095D01*
X112882380Y-103659523D01*
X112882380Y-103040476D01*
X111977619Y-102659523D02*
X111930000Y-102611904D01*
X111882380Y-102516666D01*
X111882380Y-102278571D01*
X111930000Y-102183333D01*
X111977619Y-102135714D01*
X112072857Y-102088095D01*
X112168095Y-102088095D01*
X112310952Y-102135714D01*
X112882380Y-102707142D01*
X112882380Y-102088095D01*
X119107142Y-100742857D02*
X119154761Y-100790476D01*
X119202380Y-100933333D01*
X119202380Y-101028571D01*
X119154761Y-101171428D01*
X119059523Y-101266666D01*
X118964285Y-101314285D01*
X118773809Y-101361904D01*
X118630952Y-101361904D01*
X118440476Y-101314285D01*
X118345238Y-101266666D01*
X118250000Y-101171428D01*
X118202380Y-101028571D01*
X118202380Y-100933333D01*
X118250000Y-100790476D01*
X118297619Y-100742857D01*
X118297619Y-100361904D02*
X118250000Y-100314285D01*
X118202380Y-100219047D01*
X118202380Y-99980952D01*
X118250000Y-99885714D01*
X118297619Y-99838095D01*
X118392857Y-99790476D01*
X118488095Y-99790476D01*
X118630952Y-99838095D01*
X119202380Y-100409523D01*
X119202380Y-99790476D01*
X119202380Y-98838095D02*
X119202380Y-99409523D01*
X119202380Y-99123809D02*
X118202380Y-99123809D01*
X118345238Y-99219047D01*
X118440476Y-99314285D01*
X118488095Y-99409523D01*
X115957142Y-103942857D02*
X116004761Y-103990476D01*
X116052380Y-104133333D01*
X116052380Y-104228571D01*
X116004761Y-104371428D01*
X115909523Y-104466666D01*
X115814285Y-104514285D01*
X115623809Y-104561904D01*
X115480952Y-104561904D01*
X115290476Y-104514285D01*
X115195238Y-104466666D01*
X115100000Y-104371428D01*
X115052380Y-104228571D01*
X115052380Y-104133333D01*
X115100000Y-103990476D01*
X115147619Y-103942857D01*
X115147619Y-103561904D02*
X115100000Y-103514285D01*
X115052380Y-103419047D01*
X115052380Y-103180952D01*
X115100000Y-103085714D01*
X115147619Y-103038095D01*
X115242857Y-102990476D01*
X115338095Y-102990476D01*
X115480952Y-103038095D01*
X116052380Y-103609523D01*
X116052380Y-102990476D01*
X115052380Y-102371428D02*
X115052380Y-102276190D01*
X115100000Y-102180952D01*
X115147619Y-102133333D01*
X115242857Y-102085714D01*
X115433333Y-102038095D01*
X115671428Y-102038095D01*
X115861904Y-102085714D01*
X115957142Y-102133333D01*
X116004761Y-102180952D01*
X116052380Y-102276190D01*
X116052380Y-102371428D01*
X116004761Y-102466666D01*
X115957142Y-102514285D01*
X115861904Y-102561904D01*
X115671428Y-102609523D01*
X115433333Y-102609523D01*
X115242857Y-102561904D01*
X115147619Y-102514285D01*
X115100000Y-102466666D01*
X115052380Y-102371428D01*
X114707142Y-96442857D02*
X114754761Y-96490476D01*
X114802380Y-96633333D01*
X114802380Y-96728571D01*
X114754761Y-96871428D01*
X114659523Y-96966666D01*
X114564285Y-97014285D01*
X114373809Y-97061904D01*
X114230952Y-97061904D01*
X114040476Y-97014285D01*
X113945238Y-96966666D01*
X113850000Y-96871428D01*
X113802380Y-96728571D01*
X113802380Y-96633333D01*
X113850000Y-96490476D01*
X113897619Y-96442857D01*
X114802380Y-95490476D02*
X114802380Y-96061904D01*
X114802380Y-95776190D02*
X113802380Y-95776190D01*
X113945238Y-95871428D01*
X114040476Y-95966666D01*
X114088095Y-96061904D01*
X114802380Y-95014285D02*
X114802380Y-94823809D01*
X114754761Y-94728571D01*
X114707142Y-94680952D01*
X114564285Y-94585714D01*
X114373809Y-94538095D01*
X113992857Y-94538095D01*
X113897619Y-94585714D01*
X113850000Y-94633333D01*
X113802380Y-94728571D01*
X113802380Y-94919047D01*
X113850000Y-95014285D01*
X113897619Y-95061904D01*
X113992857Y-95109523D01*
X114230952Y-95109523D01*
X114326190Y-95061904D01*
X114373809Y-95014285D01*
X114421428Y-94919047D01*
X114421428Y-94728571D01*
X114373809Y-94633333D01*
X114326190Y-94585714D01*
X114230952Y-94538095D01*
X86657142Y-87892857D02*
X86704761Y-87940476D01*
X86752380Y-88083333D01*
X86752380Y-88178571D01*
X86704761Y-88321428D01*
X86609523Y-88416666D01*
X86514285Y-88464285D01*
X86323809Y-88511904D01*
X86180952Y-88511904D01*
X85990476Y-88464285D01*
X85895238Y-88416666D01*
X85800000Y-88321428D01*
X85752380Y-88178571D01*
X85752380Y-88083333D01*
X85800000Y-87940476D01*
X85847619Y-87892857D01*
X86752380Y-86940476D02*
X86752380Y-87511904D01*
X86752380Y-87226190D02*
X85752380Y-87226190D01*
X85895238Y-87321428D01*
X85990476Y-87416666D01*
X86038095Y-87511904D01*
X85752380Y-86083333D02*
X85752380Y-86273809D01*
X85800000Y-86369047D01*
X85847619Y-86416666D01*
X85990476Y-86511904D01*
X86180952Y-86559523D01*
X86561904Y-86559523D01*
X86657142Y-86511904D01*
X86704761Y-86464285D01*
X86752380Y-86369047D01*
X86752380Y-86178571D01*
X86704761Y-86083333D01*
X86657142Y-86035714D01*
X86561904Y-85988095D01*
X86323809Y-85988095D01*
X86228571Y-86035714D01*
X86180952Y-86083333D01*
X86133333Y-86178571D01*
X86133333Y-86369047D01*
X86180952Y-86464285D01*
X86228571Y-86511904D01*
X86323809Y-86559523D01*
X82857142Y-93757142D02*
X82809523Y-93804761D01*
X82666666Y-93852380D01*
X82571428Y-93852380D01*
X82428571Y-93804761D01*
X82333333Y-93709523D01*
X82285714Y-93614285D01*
X82238095Y-93423809D01*
X82238095Y-93280952D01*
X82285714Y-93090476D01*
X82333333Y-92995238D01*
X82428571Y-92900000D01*
X82571428Y-92852380D01*
X82666666Y-92852380D01*
X82809523Y-92900000D01*
X82857142Y-92947619D01*
X83809523Y-93852380D02*
X83238095Y-93852380D01*
X83523809Y-93852380D02*
X83523809Y-92852380D01*
X83428571Y-92995238D01*
X83333333Y-93090476D01*
X83238095Y-93138095D01*
X84714285Y-92852380D02*
X84238095Y-92852380D01*
X84190476Y-93328571D01*
X84238095Y-93280952D01*
X84333333Y-93233333D01*
X84571428Y-93233333D01*
X84666666Y-93280952D01*
X84714285Y-93328571D01*
X84761904Y-93423809D01*
X84761904Y-93661904D01*
X84714285Y-93757142D01*
X84666666Y-93804761D01*
X84571428Y-93852380D01*
X84333333Y-93852380D01*
X84238095Y-93804761D01*
X84190476Y-93757142D01*
X83357142Y-91007142D02*
X83309523Y-91054761D01*
X83166666Y-91102380D01*
X83071428Y-91102380D01*
X82928571Y-91054761D01*
X82833333Y-90959523D01*
X82785714Y-90864285D01*
X82738095Y-90673809D01*
X82738095Y-90530952D01*
X82785714Y-90340476D01*
X82833333Y-90245238D01*
X82928571Y-90150000D01*
X83071428Y-90102380D01*
X83166666Y-90102380D01*
X83309523Y-90150000D01*
X83357142Y-90197619D01*
X84309523Y-91102380D02*
X83738095Y-91102380D01*
X84023809Y-91102380D02*
X84023809Y-90102380D01*
X83928571Y-90245238D01*
X83833333Y-90340476D01*
X83738095Y-90388095D01*
X85166666Y-90435714D02*
X85166666Y-91102380D01*
X84928571Y-90054761D02*
X84690476Y-90769047D01*
X85309523Y-90769047D01*
X92557142Y-92042857D02*
X92604761Y-92090476D01*
X92652380Y-92233333D01*
X92652380Y-92328571D01*
X92604761Y-92471428D01*
X92509523Y-92566666D01*
X92414285Y-92614285D01*
X92223809Y-92661904D01*
X92080952Y-92661904D01*
X91890476Y-92614285D01*
X91795238Y-92566666D01*
X91700000Y-92471428D01*
X91652380Y-92328571D01*
X91652380Y-92233333D01*
X91700000Y-92090476D01*
X91747619Y-92042857D01*
X92652380Y-91090476D02*
X92652380Y-91661904D01*
X92652380Y-91376190D02*
X91652380Y-91376190D01*
X91795238Y-91471428D01*
X91890476Y-91566666D01*
X91938095Y-91661904D01*
X91652380Y-90757142D02*
X91652380Y-90138095D01*
X92033333Y-90471428D01*
X92033333Y-90328571D01*
X92080952Y-90233333D01*
X92128571Y-90185714D01*
X92223809Y-90138095D01*
X92461904Y-90138095D01*
X92557142Y-90185714D01*
X92604761Y-90233333D01*
X92652380Y-90328571D01*
X92652380Y-90614285D01*
X92604761Y-90709523D01*
X92557142Y-90757142D01*
X90157142Y-89857142D02*
X90109523Y-89904761D01*
X89966666Y-89952380D01*
X89871428Y-89952380D01*
X89728571Y-89904761D01*
X89633333Y-89809523D01*
X89585714Y-89714285D01*
X89538095Y-89523809D01*
X89538095Y-89380952D01*
X89585714Y-89190476D01*
X89633333Y-89095238D01*
X89728571Y-89000000D01*
X89871428Y-88952380D01*
X89966666Y-88952380D01*
X90109523Y-89000000D01*
X90157142Y-89047619D01*
X91109523Y-89952380D02*
X90538095Y-89952380D01*
X90823809Y-89952380D02*
X90823809Y-88952380D01*
X90728571Y-89095238D01*
X90633333Y-89190476D01*
X90538095Y-89238095D01*
X91490476Y-89047619D02*
X91538095Y-89000000D01*
X91633333Y-88952380D01*
X91871428Y-88952380D01*
X91966666Y-89000000D01*
X92014285Y-89047619D01*
X92061904Y-89142857D01*
X92061904Y-89238095D01*
X92014285Y-89380952D01*
X91442857Y-89952380D01*
X92061904Y-89952380D01*
X82357142Y-103937142D02*
X82309523Y-103984761D01*
X82166666Y-104032380D01*
X82071428Y-104032380D01*
X81928571Y-103984761D01*
X81833333Y-103889523D01*
X81785714Y-103794285D01*
X81738095Y-103603809D01*
X81738095Y-103460952D01*
X81785714Y-103270476D01*
X81833333Y-103175238D01*
X81928571Y-103080000D01*
X82071428Y-103032380D01*
X82166666Y-103032380D01*
X82309523Y-103080000D01*
X82357142Y-103127619D01*
X83309523Y-104032380D02*
X82738095Y-104032380D01*
X83023809Y-104032380D02*
X83023809Y-103032380D01*
X82928571Y-103175238D01*
X82833333Y-103270476D01*
X82738095Y-103318095D01*
X84261904Y-104032380D02*
X83690476Y-104032380D01*
X83976190Y-104032380D02*
X83976190Y-103032380D01*
X83880952Y-103175238D01*
X83785714Y-103270476D01*
X83690476Y-103318095D01*
X86357142Y-107437142D02*
X86309523Y-107484761D01*
X86166666Y-107532380D01*
X86071428Y-107532380D01*
X85928571Y-107484761D01*
X85833333Y-107389523D01*
X85785714Y-107294285D01*
X85738095Y-107103809D01*
X85738095Y-106960952D01*
X85785714Y-106770476D01*
X85833333Y-106675238D01*
X85928571Y-106580000D01*
X86071428Y-106532380D01*
X86166666Y-106532380D01*
X86309523Y-106580000D01*
X86357142Y-106627619D01*
X87309523Y-107532380D02*
X86738095Y-107532380D01*
X87023809Y-107532380D02*
X87023809Y-106532380D01*
X86928571Y-106675238D01*
X86833333Y-106770476D01*
X86738095Y-106818095D01*
X87928571Y-106532380D02*
X88023809Y-106532380D01*
X88119047Y-106580000D01*
X88166666Y-106627619D01*
X88214285Y-106722857D01*
X88261904Y-106913333D01*
X88261904Y-107151428D01*
X88214285Y-107341904D01*
X88166666Y-107437142D01*
X88119047Y-107484761D01*
X88023809Y-107532380D01*
X87928571Y-107532380D01*
X87833333Y-107484761D01*
X87785714Y-107437142D01*
X87738095Y-107341904D01*
X87690476Y-107151428D01*
X87690476Y-106913333D01*
X87738095Y-106722857D01*
X87785714Y-106627619D01*
X87833333Y-106580000D01*
X87928571Y-106532380D01*
X81483333Y-82427142D02*
X81435714Y-82474761D01*
X81292857Y-82522380D01*
X81197619Y-82522380D01*
X81054761Y-82474761D01*
X80959523Y-82379523D01*
X80911904Y-82284285D01*
X80864285Y-82093809D01*
X80864285Y-81950952D01*
X80911904Y-81760476D01*
X80959523Y-81665238D01*
X81054761Y-81570000D01*
X81197619Y-81522380D01*
X81292857Y-81522380D01*
X81435714Y-81570000D01*
X81483333Y-81617619D01*
X81959523Y-82522380D02*
X82150000Y-82522380D01*
X82245238Y-82474761D01*
X82292857Y-82427142D01*
X82388095Y-82284285D01*
X82435714Y-82093809D01*
X82435714Y-81712857D01*
X82388095Y-81617619D01*
X82340476Y-81570000D01*
X82245238Y-81522380D01*
X82054761Y-81522380D01*
X81959523Y-81570000D01*
X81911904Y-81617619D01*
X81864285Y-81712857D01*
X81864285Y-81950952D01*
X81911904Y-82046190D01*
X81959523Y-82093809D01*
X82054761Y-82141428D01*
X82245238Y-82141428D01*
X82340476Y-82093809D01*
X82388095Y-82046190D01*
X82435714Y-81950952D01*
X98833333Y-85957142D02*
X98785714Y-86004761D01*
X98642857Y-86052380D01*
X98547619Y-86052380D01*
X98404761Y-86004761D01*
X98309523Y-85909523D01*
X98261904Y-85814285D01*
X98214285Y-85623809D01*
X98214285Y-85480952D01*
X98261904Y-85290476D01*
X98309523Y-85195238D01*
X98404761Y-85100000D01*
X98547619Y-85052380D01*
X98642857Y-85052380D01*
X98785714Y-85100000D01*
X98833333Y-85147619D01*
X99404761Y-85480952D02*
X99309523Y-85433333D01*
X99261904Y-85385714D01*
X99214285Y-85290476D01*
X99214285Y-85242857D01*
X99261904Y-85147619D01*
X99309523Y-85100000D01*
X99404761Y-85052380D01*
X99595238Y-85052380D01*
X99690476Y-85100000D01*
X99738095Y-85147619D01*
X99785714Y-85242857D01*
X99785714Y-85290476D01*
X99738095Y-85385714D01*
X99690476Y-85433333D01*
X99595238Y-85480952D01*
X99404761Y-85480952D01*
X99309523Y-85528571D01*
X99261904Y-85576190D01*
X99214285Y-85671428D01*
X99214285Y-85861904D01*
X99261904Y-85957142D01*
X99309523Y-86004761D01*
X99404761Y-86052380D01*
X99595238Y-86052380D01*
X99690476Y-86004761D01*
X99738095Y-85957142D01*
X99785714Y-85861904D01*
X99785714Y-85671428D01*
X99738095Y-85576190D01*
X99690476Y-85528571D01*
X99595238Y-85480952D01*
X100757142Y-85066666D02*
X100804761Y-85114285D01*
X100852380Y-85257142D01*
X100852380Y-85352380D01*
X100804761Y-85495238D01*
X100709523Y-85590476D01*
X100614285Y-85638095D01*
X100423809Y-85685714D01*
X100280952Y-85685714D01*
X100090476Y-85638095D01*
X99995238Y-85590476D01*
X99900000Y-85495238D01*
X99852380Y-85352380D01*
X99852380Y-85257142D01*
X99900000Y-85114285D01*
X99947619Y-85066666D01*
X99852380Y-84733333D02*
X99852380Y-84066666D01*
X100852380Y-84495238D01*
X93633333Y-77487142D02*
X93585714Y-77534761D01*
X93442857Y-77582380D01*
X93347619Y-77582380D01*
X93204761Y-77534761D01*
X93109523Y-77439523D01*
X93061904Y-77344285D01*
X93014285Y-77153809D01*
X93014285Y-77010952D01*
X93061904Y-76820476D01*
X93109523Y-76725238D01*
X93204761Y-76630000D01*
X93347619Y-76582380D01*
X93442857Y-76582380D01*
X93585714Y-76630000D01*
X93633333Y-76677619D01*
X94490476Y-76582380D02*
X94300000Y-76582380D01*
X94204761Y-76630000D01*
X94157142Y-76677619D01*
X94061904Y-76820476D01*
X94014285Y-77010952D01*
X94014285Y-77391904D01*
X94061904Y-77487142D01*
X94109523Y-77534761D01*
X94204761Y-77582380D01*
X94395238Y-77582380D01*
X94490476Y-77534761D01*
X94538095Y-77487142D01*
X94585714Y-77391904D01*
X94585714Y-77153809D01*
X94538095Y-77058571D01*
X94490476Y-77010952D01*
X94395238Y-76963333D01*
X94204761Y-76963333D01*
X94109523Y-77010952D01*
X94061904Y-77058571D01*
X94014285Y-77153809D01*
X106868333Y-80537142D02*
X106820714Y-80584761D01*
X106677857Y-80632380D01*
X106582619Y-80632380D01*
X106439761Y-80584761D01*
X106344523Y-80489523D01*
X106296904Y-80394285D01*
X106249285Y-80203809D01*
X106249285Y-80060952D01*
X106296904Y-79870476D01*
X106344523Y-79775238D01*
X106439761Y-79680000D01*
X106582619Y-79632380D01*
X106677857Y-79632380D01*
X106820714Y-79680000D01*
X106868333Y-79727619D01*
X107773095Y-79632380D02*
X107296904Y-79632380D01*
X107249285Y-80108571D01*
X107296904Y-80060952D01*
X107392142Y-80013333D01*
X107630238Y-80013333D01*
X107725476Y-80060952D01*
X107773095Y-80108571D01*
X107820714Y-80203809D01*
X107820714Y-80441904D01*
X107773095Y-80537142D01*
X107725476Y-80584761D01*
X107630238Y-80632380D01*
X107392142Y-80632380D01*
X107296904Y-80584761D01*
X107249285Y-80537142D01*
X97857142Y-74266666D02*
X97904761Y-74314285D01*
X97952380Y-74457142D01*
X97952380Y-74552380D01*
X97904761Y-74695238D01*
X97809523Y-74790476D01*
X97714285Y-74838095D01*
X97523809Y-74885714D01*
X97380952Y-74885714D01*
X97190476Y-74838095D01*
X97095238Y-74790476D01*
X97000000Y-74695238D01*
X96952380Y-74552380D01*
X96952380Y-74457142D01*
X97000000Y-74314285D01*
X97047619Y-74266666D01*
X97285714Y-73409523D02*
X97952380Y-73409523D01*
X96904761Y-73647619D02*
X97619047Y-73885714D01*
X97619047Y-73266666D01*
X99907142Y-74366666D02*
X99954761Y-74414285D01*
X100002380Y-74557142D01*
X100002380Y-74652380D01*
X99954761Y-74795238D01*
X99859523Y-74890476D01*
X99764285Y-74938095D01*
X99573809Y-74985714D01*
X99430952Y-74985714D01*
X99240476Y-74938095D01*
X99145238Y-74890476D01*
X99050000Y-74795238D01*
X99002380Y-74652380D01*
X99002380Y-74557142D01*
X99050000Y-74414285D01*
X99097619Y-74366666D01*
X99002380Y-74033333D02*
X99002380Y-73414285D01*
X99383333Y-73747619D01*
X99383333Y-73604761D01*
X99430952Y-73509523D01*
X99478571Y-73461904D01*
X99573809Y-73414285D01*
X99811904Y-73414285D01*
X99907142Y-73461904D01*
X99954761Y-73509523D01*
X100002380Y-73604761D01*
X100002380Y-73890476D01*
X99954761Y-73985714D01*
X99907142Y-74033333D01*
X102857142Y-76766666D02*
X102904761Y-76814285D01*
X102952380Y-76957142D01*
X102952380Y-77052380D01*
X102904761Y-77195238D01*
X102809523Y-77290476D01*
X102714285Y-77338095D01*
X102523809Y-77385714D01*
X102380952Y-77385714D01*
X102190476Y-77338095D01*
X102095238Y-77290476D01*
X102000000Y-77195238D01*
X101952380Y-77052380D01*
X101952380Y-76957142D01*
X102000000Y-76814285D01*
X102047619Y-76766666D01*
X102047619Y-76385714D02*
X102000000Y-76338095D01*
X101952380Y-76242857D01*
X101952380Y-76004761D01*
X102000000Y-75909523D01*
X102047619Y-75861904D01*
X102142857Y-75814285D01*
X102238095Y-75814285D01*
X102380952Y-75861904D01*
X102952380Y-76433333D01*
X102952380Y-75814285D01*
X103433333Y-79527142D02*
X103385714Y-79574761D01*
X103242857Y-79622380D01*
X103147619Y-79622380D01*
X103004761Y-79574761D01*
X102909523Y-79479523D01*
X102861904Y-79384285D01*
X102814285Y-79193809D01*
X102814285Y-79050952D01*
X102861904Y-78860476D01*
X102909523Y-78765238D01*
X103004761Y-78670000D01*
X103147619Y-78622380D01*
X103242857Y-78622380D01*
X103385714Y-78670000D01*
X103433333Y-78717619D01*
X104385714Y-79622380D02*
X103814285Y-79622380D01*
X104100000Y-79622380D02*
X104100000Y-78622380D01*
X104004761Y-78765238D01*
X103909523Y-78860476D01*
X103814285Y-78908095D01*
M02*
