M48
; DRILL file {KiCad (5.1.5)-3} date 1/8/2021 3:31:03
; FORMAT={-:-/ absolute / inch / decimal}
; #@! TF.CreationDate,2021-01-08T03:31:03-05:00
; #@! TF.GenerationSoftware,Kicad,Pcbnew,(5.1.5)-3
; #@! TF.FileFunction,Plated,1,4,PTH
FMAT,2
INCH
T1C0.0157
T2C0.0394
%
G90
G05
T1
X3.9921Y-4.6142
X4.2323Y-4.1043
X4.2726Y-3.7746
X4.301Y-4.5573
X4.315Y-3.8031
X4.3504Y-3.8976
X4.4803Y-4.3307
X4.4803Y-4.5433
X4.5039Y-4.4409
X4.5591Y-3.9843
X4.5591Y-4.0236
X4.6535Y-4.5748
X4.8622Y-4.4685
X4.9508Y-4.5177
X5.0079Y-4.5591
X5.0787Y-4.3898
X5.128Y-4.4783
X5.1673Y-4.3504
X5.1673Y-4.4783
X5.3486Y-4.2856
T2
X4.3752Y-3.7106
X4.4752Y-3.7106
X4.5752Y-3.7106
X4.6752Y-3.7106
X4.3898Y-4.5472
X5.1772Y-4.5866
X4.6787Y-4.7343
X4.7787Y-4.7343
X4.8787Y-4.7343
X4.9787Y-4.7343
X5.0787Y-4.7343
X4.6752Y-4.3012
X4.0551Y-3.8583
X4.9134Y-4.0839
X4.9134Y-4.1839
X5.0295Y-3.8189
X5.2992Y-4.0551
X4.2126Y-4.5472
X4.685Y-3.8583
X4.785Y-3.8583
X4.885Y-3.8583
X4.4276Y-4.6752
X4.5276Y-4.6752
X4.2323Y-4.6752
X4.4488Y-3.8583
T0
M30
