G04 #@! TF.GenerationSoftware,KiCad,Pcbnew,(5.1.5)-3*
G04 #@! TF.CreationDate,2021-01-08T03:31:11-05:00*
G04 #@! TF.ProjectId,EPC611 LIDAR,45504336-3131-4204-9c49-4441522e6b69,rev?*
G04 #@! TF.SameCoordinates,Original*
G04 #@! TF.FileFunction,Copper,L3,Inr*
G04 #@! TF.FilePolarity,Positive*
%FSLAX46Y46*%
G04 Gerber Fmt 4.6, Leading zero omitted, Abs format (unit mm)*
G04 Created by KiCad (PCBNEW (5.1.5)-3) date 2021-01-08 03:31:11*
%MOMM*%
%LPD*%
G04 APERTURE LIST*
%ADD10R,1.700000X1.700000*%
%ADD11O,1.700000X1.700000*%
%ADD12C,2.000000*%
%ADD13C,0.800000*%
%ADD14C,0.250000*%
%ADD15C,0.254000*%
G04 APERTURE END LIST*
D10*
X103000000Y-98000000D03*
X131500000Y-116500000D03*
X127750000Y-97000000D03*
X107500000Y-118750000D03*
X134600000Y-103000000D03*
X118750000Y-109250000D03*
X113000000Y-98000000D03*
X111500000Y-115500000D03*
X107000000Y-115500000D03*
D11*
X115000000Y-118750000D03*
D10*
X112460000Y-118750000D03*
D11*
X124080000Y-98000000D03*
X121540000Y-98000000D03*
D10*
X119000000Y-98000000D03*
D11*
X118840000Y-120250000D03*
X121380000Y-120250000D03*
X123920000Y-120250000D03*
X126460000Y-120250000D03*
D10*
X129000000Y-120250000D03*
D11*
X111130000Y-94250000D03*
X113670000Y-94250000D03*
X116210000Y-94250000D03*
D10*
X118750000Y-94250000D03*
D12*
X124800000Y-106270000D03*
X124800000Y-103730000D03*
D13*
X101400000Y-117200000D03*
X123500000Y-113500000D03*
X129000000Y-111500000D03*
X110500000Y-99000000D03*
X109244999Y-115755001D03*
X135855001Y-108855001D03*
X131250000Y-110500000D03*
X107500000Y-104250000D03*
X109600000Y-96600000D03*
X118200000Y-116200000D03*
X131250000Y-113750000D03*
X113800000Y-110000000D03*
X108525001Y-95874999D03*
X130250000Y-113750000D03*
X115800000Y-101200000D03*
X115800000Y-102200000D03*
X127200000Y-115800000D03*
X114400000Y-112800000D03*
X125750000Y-114750000D03*
X113800000Y-115400000D03*
D14*
X123070001Y-119400001D02*
X123920000Y-120250000D01*
X115074999Y-111404999D02*
X123070001Y-119400001D01*
X115074999Y-101359316D02*
X115074999Y-111404999D01*
X115234315Y-101200000D02*
X115074999Y-101359316D01*
X115800000Y-101200000D02*
X115234315Y-101200000D01*
X115800000Y-109590000D02*
X115800000Y-102200000D01*
X126460000Y-120250000D02*
X115800000Y-109590000D01*
D15*
G36*
X138315000Y-122315000D02*
G01*
X99685000Y-122315000D01*
X99685000Y-117900000D01*
X106011928Y-117900000D01*
X106011928Y-119600000D01*
X106024188Y-119724482D01*
X106060498Y-119844180D01*
X106119463Y-119954494D01*
X106198815Y-120051185D01*
X106295506Y-120130537D01*
X106405820Y-120189502D01*
X106525518Y-120225812D01*
X106650000Y-120238072D01*
X108350000Y-120238072D01*
X108474482Y-120225812D01*
X108594180Y-120189502D01*
X108704494Y-120130537D01*
X108801185Y-120051185D01*
X108880537Y-119954494D01*
X108939502Y-119844180D01*
X108975812Y-119724482D01*
X108988072Y-119600000D01*
X108988072Y-117900000D01*
X110971928Y-117900000D01*
X110971928Y-119600000D01*
X110984188Y-119724482D01*
X111020498Y-119844180D01*
X111079463Y-119954494D01*
X111158815Y-120051185D01*
X111255506Y-120130537D01*
X111365820Y-120189502D01*
X111485518Y-120225812D01*
X111610000Y-120238072D01*
X113310000Y-120238072D01*
X113434482Y-120225812D01*
X113554180Y-120189502D01*
X113664494Y-120130537D01*
X113761185Y-120051185D01*
X113840537Y-119954494D01*
X113899502Y-119844180D01*
X113921513Y-119771620D01*
X114053368Y-119903475D01*
X114296589Y-120065990D01*
X114566842Y-120177932D01*
X114853740Y-120235000D01*
X115146260Y-120235000D01*
X115433158Y-120177932D01*
X115703411Y-120065990D01*
X115946632Y-119903475D01*
X116153475Y-119696632D01*
X116315990Y-119453411D01*
X116427932Y-119183158D01*
X116485000Y-118896260D01*
X116485000Y-118603740D01*
X116427932Y-118316842D01*
X116315990Y-118046589D01*
X116153475Y-117803368D01*
X115946632Y-117596525D01*
X115703411Y-117434010D01*
X115433158Y-117322068D01*
X115146260Y-117265000D01*
X114853740Y-117265000D01*
X114566842Y-117322068D01*
X114296589Y-117434010D01*
X114053368Y-117596525D01*
X113921513Y-117728380D01*
X113899502Y-117655820D01*
X113840537Y-117545506D01*
X113761185Y-117448815D01*
X113664494Y-117369463D01*
X113554180Y-117310498D01*
X113434482Y-117274188D01*
X113310000Y-117261928D01*
X111610000Y-117261928D01*
X111485518Y-117274188D01*
X111365820Y-117310498D01*
X111255506Y-117369463D01*
X111158815Y-117448815D01*
X111079463Y-117545506D01*
X111020498Y-117655820D01*
X110984188Y-117775518D01*
X110971928Y-117900000D01*
X108988072Y-117900000D01*
X108975812Y-117775518D01*
X108939502Y-117655820D01*
X108880537Y-117545506D01*
X108801185Y-117448815D01*
X108704494Y-117369463D01*
X108594180Y-117310498D01*
X108474482Y-117274188D01*
X108350000Y-117261928D01*
X106650000Y-117261928D01*
X106525518Y-117274188D01*
X106405820Y-117310498D01*
X106295506Y-117369463D01*
X106198815Y-117448815D01*
X106119463Y-117545506D01*
X106060498Y-117655820D01*
X106024188Y-117775518D01*
X106011928Y-117900000D01*
X99685000Y-117900000D01*
X99685000Y-114650000D01*
X105511928Y-114650000D01*
X105511928Y-116350000D01*
X105524188Y-116474482D01*
X105560498Y-116594180D01*
X105619463Y-116704494D01*
X105698815Y-116801185D01*
X105795506Y-116880537D01*
X105905820Y-116939502D01*
X106025518Y-116975812D01*
X106150000Y-116988072D01*
X107850000Y-116988072D01*
X107974482Y-116975812D01*
X108094180Y-116939502D01*
X108204494Y-116880537D01*
X108301185Y-116801185D01*
X108380537Y-116704494D01*
X108439502Y-116594180D01*
X108475812Y-116474482D01*
X108488072Y-116350000D01*
X108488072Y-114650000D01*
X110011928Y-114650000D01*
X110011928Y-116350000D01*
X110024188Y-116474482D01*
X110060498Y-116594180D01*
X110119463Y-116704494D01*
X110198815Y-116801185D01*
X110295506Y-116880537D01*
X110405820Y-116939502D01*
X110525518Y-116975812D01*
X110650000Y-116988072D01*
X112350000Y-116988072D01*
X112474482Y-116975812D01*
X112594180Y-116939502D01*
X112704494Y-116880537D01*
X112801185Y-116801185D01*
X112880537Y-116704494D01*
X112939502Y-116594180D01*
X112975812Y-116474482D01*
X112988072Y-116350000D01*
X112988072Y-116047815D01*
X112996063Y-116059774D01*
X113140226Y-116203937D01*
X113309744Y-116317205D01*
X113498102Y-116395226D01*
X113698061Y-116435000D01*
X113901939Y-116435000D01*
X114101898Y-116395226D01*
X114290256Y-116317205D01*
X114459774Y-116203937D01*
X114603937Y-116059774D01*
X114717205Y-115890256D01*
X114795226Y-115701898D01*
X114835000Y-115501939D01*
X114835000Y-115298061D01*
X114795226Y-115098102D01*
X114717205Y-114909744D01*
X114603937Y-114740226D01*
X114459774Y-114596063D01*
X114290256Y-114482795D01*
X114101898Y-114404774D01*
X113901939Y-114365000D01*
X113698061Y-114365000D01*
X113498102Y-114404774D01*
X113309744Y-114482795D01*
X113140226Y-114596063D01*
X112996063Y-114740226D01*
X112988072Y-114752185D01*
X112988072Y-114650000D01*
X112975812Y-114525518D01*
X112939502Y-114405820D01*
X112880537Y-114295506D01*
X112801185Y-114198815D01*
X112704494Y-114119463D01*
X112594180Y-114060498D01*
X112474482Y-114024188D01*
X112350000Y-114011928D01*
X110650000Y-114011928D01*
X110525518Y-114024188D01*
X110405820Y-114060498D01*
X110295506Y-114119463D01*
X110198815Y-114198815D01*
X110119463Y-114295506D01*
X110060498Y-114405820D01*
X110024188Y-114525518D01*
X110011928Y-114650000D01*
X108488072Y-114650000D01*
X108475812Y-114525518D01*
X108439502Y-114405820D01*
X108380537Y-114295506D01*
X108301185Y-114198815D01*
X108204494Y-114119463D01*
X108094180Y-114060498D01*
X107974482Y-114024188D01*
X107850000Y-114011928D01*
X106150000Y-114011928D01*
X106025518Y-114024188D01*
X105905820Y-114060498D01*
X105795506Y-114119463D01*
X105698815Y-114198815D01*
X105619463Y-114295506D01*
X105560498Y-114405820D01*
X105524188Y-114525518D01*
X105511928Y-114650000D01*
X99685000Y-114650000D01*
X99685000Y-109898061D01*
X112765000Y-109898061D01*
X112765000Y-110101939D01*
X112804774Y-110301898D01*
X112882795Y-110490256D01*
X112996063Y-110659774D01*
X113140226Y-110803937D01*
X113309744Y-110917205D01*
X113498102Y-110995226D01*
X113698061Y-111035000D01*
X113901939Y-111035000D01*
X114101898Y-110995226D01*
X114290256Y-110917205D01*
X114315000Y-110900672D01*
X114315000Y-111367667D01*
X114311323Y-111404999D01*
X114325997Y-111553984D01*
X114369453Y-111697245D01*
X114405669Y-111765000D01*
X114298061Y-111765000D01*
X114098102Y-111804774D01*
X113909744Y-111882795D01*
X113740226Y-111996063D01*
X113596063Y-112140226D01*
X113482795Y-112309744D01*
X113404774Y-112498102D01*
X113365000Y-112698061D01*
X113365000Y-112901939D01*
X113404774Y-113101898D01*
X113482795Y-113290256D01*
X113596063Y-113459774D01*
X113740226Y-113603937D01*
X113909744Y-113717205D01*
X114098102Y-113795226D01*
X114298061Y-113835000D01*
X114501939Y-113835000D01*
X114701898Y-113795226D01*
X114890256Y-113717205D01*
X115059774Y-113603937D01*
X115203937Y-113459774D01*
X115317205Y-113290256D01*
X115395226Y-113101898D01*
X115435000Y-112901939D01*
X115435000Y-112839801D01*
X117828714Y-115233516D01*
X117709744Y-115282795D01*
X117540226Y-115396063D01*
X117396063Y-115540226D01*
X117282795Y-115709744D01*
X117204774Y-115898102D01*
X117165000Y-116098061D01*
X117165000Y-116301939D01*
X117204774Y-116501898D01*
X117282795Y-116690256D01*
X117396063Y-116859774D01*
X117540226Y-117003937D01*
X117709744Y-117117205D01*
X117898102Y-117195226D01*
X118098061Y-117235000D01*
X118301939Y-117235000D01*
X118501898Y-117195226D01*
X118690256Y-117117205D01*
X118859774Y-117003937D01*
X119003937Y-116859774D01*
X119117205Y-116690256D01*
X119166484Y-116571286D01*
X121360198Y-118765000D01*
X121233740Y-118765000D01*
X120946842Y-118822068D01*
X120676589Y-118934010D01*
X120433368Y-119096525D01*
X120226525Y-119303368D01*
X120110000Y-119477760D01*
X119993475Y-119303368D01*
X119786632Y-119096525D01*
X119543411Y-118934010D01*
X119273158Y-118822068D01*
X118986260Y-118765000D01*
X118693740Y-118765000D01*
X118406842Y-118822068D01*
X118136589Y-118934010D01*
X117893368Y-119096525D01*
X117686525Y-119303368D01*
X117524010Y-119546589D01*
X117412068Y-119816842D01*
X117355000Y-120103740D01*
X117355000Y-120396260D01*
X117412068Y-120683158D01*
X117524010Y-120953411D01*
X117686525Y-121196632D01*
X117893368Y-121403475D01*
X118136589Y-121565990D01*
X118406842Y-121677932D01*
X118693740Y-121735000D01*
X118986260Y-121735000D01*
X119273158Y-121677932D01*
X119543411Y-121565990D01*
X119786632Y-121403475D01*
X119993475Y-121196632D01*
X120110000Y-121022240D01*
X120226525Y-121196632D01*
X120433368Y-121403475D01*
X120676589Y-121565990D01*
X120946842Y-121677932D01*
X121233740Y-121735000D01*
X121526260Y-121735000D01*
X121813158Y-121677932D01*
X122083411Y-121565990D01*
X122326632Y-121403475D01*
X122533475Y-121196632D01*
X122650000Y-121022240D01*
X122766525Y-121196632D01*
X122973368Y-121403475D01*
X123216589Y-121565990D01*
X123486842Y-121677932D01*
X123773740Y-121735000D01*
X124066260Y-121735000D01*
X124353158Y-121677932D01*
X124623411Y-121565990D01*
X124866632Y-121403475D01*
X125073475Y-121196632D01*
X125190000Y-121022240D01*
X125306525Y-121196632D01*
X125513368Y-121403475D01*
X125756589Y-121565990D01*
X126026842Y-121677932D01*
X126313740Y-121735000D01*
X126606260Y-121735000D01*
X126893158Y-121677932D01*
X127163411Y-121565990D01*
X127406632Y-121403475D01*
X127538487Y-121271620D01*
X127560498Y-121344180D01*
X127619463Y-121454494D01*
X127698815Y-121551185D01*
X127795506Y-121630537D01*
X127905820Y-121689502D01*
X128025518Y-121725812D01*
X128150000Y-121738072D01*
X128714250Y-121735000D01*
X128873000Y-121576250D01*
X128873000Y-120377000D01*
X129127000Y-120377000D01*
X129127000Y-121576250D01*
X129285750Y-121735000D01*
X129850000Y-121738072D01*
X129974482Y-121725812D01*
X130094180Y-121689502D01*
X130204494Y-121630537D01*
X130301185Y-121551185D01*
X130380537Y-121454494D01*
X130439502Y-121344180D01*
X130475812Y-121224482D01*
X130488072Y-121100000D01*
X130485000Y-120535750D01*
X130326250Y-120377000D01*
X129127000Y-120377000D01*
X128873000Y-120377000D01*
X128853000Y-120377000D01*
X128853000Y-120123000D01*
X128873000Y-120123000D01*
X128873000Y-118923750D01*
X129127000Y-118923750D01*
X129127000Y-120123000D01*
X130326250Y-120123000D01*
X130485000Y-119964250D01*
X130488072Y-119400000D01*
X130475812Y-119275518D01*
X130439502Y-119155820D01*
X130380537Y-119045506D01*
X130301185Y-118948815D01*
X130204494Y-118869463D01*
X130094180Y-118810498D01*
X129974482Y-118774188D01*
X129850000Y-118761928D01*
X129285750Y-118765000D01*
X129127000Y-118923750D01*
X128873000Y-118923750D01*
X128714250Y-118765000D01*
X128150000Y-118761928D01*
X128025518Y-118774188D01*
X127905820Y-118810498D01*
X127795506Y-118869463D01*
X127698815Y-118948815D01*
X127619463Y-119045506D01*
X127560498Y-119155820D01*
X127538487Y-119228380D01*
X127406632Y-119096525D01*
X127163411Y-118934010D01*
X126893158Y-118822068D01*
X126606260Y-118765000D01*
X126313740Y-118765000D01*
X126093592Y-118808790D01*
X121932863Y-114648061D01*
X124715000Y-114648061D01*
X124715000Y-114851939D01*
X124754774Y-115051898D01*
X124832795Y-115240256D01*
X124946063Y-115409774D01*
X125090226Y-115553937D01*
X125259744Y-115667205D01*
X125448102Y-115745226D01*
X125648061Y-115785000D01*
X125851939Y-115785000D01*
X126051898Y-115745226D01*
X126165000Y-115698377D01*
X126165000Y-115901939D01*
X126204774Y-116101898D01*
X126282795Y-116290256D01*
X126396063Y-116459774D01*
X126540226Y-116603937D01*
X126709744Y-116717205D01*
X126898102Y-116795226D01*
X127098061Y-116835000D01*
X127301939Y-116835000D01*
X127501898Y-116795226D01*
X127690256Y-116717205D01*
X127859774Y-116603937D01*
X128003937Y-116459774D01*
X128117205Y-116290256D01*
X128195226Y-116101898D01*
X128235000Y-115901939D01*
X128235000Y-115698061D01*
X128225441Y-115650000D01*
X130011928Y-115650000D01*
X130011928Y-117350000D01*
X130024188Y-117474482D01*
X130060498Y-117594180D01*
X130119463Y-117704494D01*
X130198815Y-117801185D01*
X130295506Y-117880537D01*
X130405820Y-117939502D01*
X130525518Y-117975812D01*
X130650000Y-117988072D01*
X132350000Y-117988072D01*
X132474482Y-117975812D01*
X132594180Y-117939502D01*
X132704494Y-117880537D01*
X132801185Y-117801185D01*
X132880537Y-117704494D01*
X132939502Y-117594180D01*
X132975812Y-117474482D01*
X132988072Y-117350000D01*
X132988072Y-115650000D01*
X132975812Y-115525518D01*
X132939502Y-115405820D01*
X132880537Y-115295506D01*
X132801185Y-115198815D01*
X132704494Y-115119463D01*
X132594180Y-115060498D01*
X132474482Y-115024188D01*
X132350000Y-115011928D01*
X130650000Y-115011928D01*
X130525518Y-115024188D01*
X130405820Y-115060498D01*
X130295506Y-115119463D01*
X130198815Y-115198815D01*
X130119463Y-115295506D01*
X130060498Y-115405820D01*
X130024188Y-115525518D01*
X130011928Y-115650000D01*
X128225441Y-115650000D01*
X128195226Y-115498102D01*
X128117205Y-115309744D01*
X128003937Y-115140226D01*
X127859774Y-114996063D01*
X127690256Y-114882795D01*
X127501898Y-114804774D01*
X127301939Y-114765000D01*
X127098061Y-114765000D01*
X126898102Y-114804774D01*
X126785000Y-114851623D01*
X126785000Y-114648061D01*
X126745226Y-114448102D01*
X126667205Y-114259744D01*
X126553937Y-114090226D01*
X126409774Y-113946063D01*
X126240256Y-113832795D01*
X126051898Y-113754774D01*
X125851939Y-113715000D01*
X125648061Y-113715000D01*
X125448102Y-113754774D01*
X125259744Y-113832795D01*
X125090226Y-113946063D01*
X124946063Y-114090226D01*
X124832795Y-114259744D01*
X124754774Y-114448102D01*
X124715000Y-114648061D01*
X121932863Y-114648061D01*
X120932863Y-113648061D01*
X129215000Y-113648061D01*
X129215000Y-113851939D01*
X129254774Y-114051898D01*
X129332795Y-114240256D01*
X129446063Y-114409774D01*
X129590226Y-114553937D01*
X129759744Y-114667205D01*
X129948102Y-114745226D01*
X130148061Y-114785000D01*
X130351939Y-114785000D01*
X130551898Y-114745226D01*
X130740256Y-114667205D01*
X130750000Y-114660694D01*
X130759744Y-114667205D01*
X130948102Y-114745226D01*
X131148061Y-114785000D01*
X131351939Y-114785000D01*
X131551898Y-114745226D01*
X131740256Y-114667205D01*
X131909774Y-114553937D01*
X132053937Y-114409774D01*
X132167205Y-114240256D01*
X132245226Y-114051898D01*
X132285000Y-113851939D01*
X132285000Y-113648061D01*
X132245226Y-113448102D01*
X132167205Y-113259744D01*
X132053937Y-113090226D01*
X131909774Y-112946063D01*
X131740256Y-112832795D01*
X131551898Y-112754774D01*
X131351939Y-112715000D01*
X131148061Y-112715000D01*
X130948102Y-112754774D01*
X130759744Y-112832795D01*
X130750000Y-112839306D01*
X130740256Y-112832795D01*
X130551898Y-112754774D01*
X130351939Y-112715000D01*
X130148061Y-112715000D01*
X129948102Y-112754774D01*
X129759744Y-112832795D01*
X129590226Y-112946063D01*
X129446063Y-113090226D01*
X129332795Y-113259744D01*
X129254774Y-113448102D01*
X129215000Y-113648061D01*
X120932863Y-113648061D01*
X118022873Y-110738072D01*
X119600000Y-110738072D01*
X119724482Y-110725812D01*
X119844180Y-110689502D01*
X119954494Y-110630537D01*
X120051185Y-110551185D01*
X120130537Y-110454494D01*
X120160701Y-110398061D01*
X130215000Y-110398061D01*
X130215000Y-110601939D01*
X130254774Y-110801898D01*
X130332795Y-110990256D01*
X130446063Y-111159774D01*
X130590226Y-111303937D01*
X130759744Y-111417205D01*
X130948102Y-111495226D01*
X131148061Y-111535000D01*
X131351939Y-111535000D01*
X131551898Y-111495226D01*
X131740256Y-111417205D01*
X131909774Y-111303937D01*
X132053937Y-111159774D01*
X132167205Y-110990256D01*
X132245226Y-110801898D01*
X132285000Y-110601939D01*
X132285000Y-110398061D01*
X132245226Y-110198102D01*
X132167205Y-110009744D01*
X132053937Y-109840226D01*
X131909774Y-109696063D01*
X131740256Y-109582795D01*
X131551898Y-109504774D01*
X131351939Y-109465000D01*
X131148061Y-109465000D01*
X130948102Y-109504774D01*
X130759744Y-109582795D01*
X130590226Y-109696063D01*
X130446063Y-109840226D01*
X130332795Y-110009744D01*
X130254774Y-110198102D01*
X130215000Y-110398061D01*
X120160701Y-110398061D01*
X120189502Y-110344180D01*
X120225812Y-110224482D01*
X120238072Y-110100000D01*
X120238072Y-108400000D01*
X120225812Y-108275518D01*
X120189502Y-108155820D01*
X120130537Y-108045506D01*
X120051185Y-107948815D01*
X119954494Y-107869463D01*
X119844180Y-107810498D01*
X119724482Y-107774188D01*
X119600000Y-107761928D01*
X117900000Y-107761928D01*
X117775518Y-107774188D01*
X117655820Y-107810498D01*
X117545506Y-107869463D01*
X117448815Y-107948815D01*
X117369463Y-108045506D01*
X117310498Y-108155820D01*
X117274188Y-108275518D01*
X117261928Y-108400000D01*
X117261928Y-109977127D01*
X116560000Y-109275199D01*
X116560000Y-103568967D01*
X123165000Y-103568967D01*
X123165000Y-103891033D01*
X123227832Y-104206912D01*
X123351082Y-104504463D01*
X123530013Y-104772252D01*
X123757748Y-104999987D01*
X123757767Y-105000000D01*
X123757748Y-105000013D01*
X123530013Y-105227748D01*
X123351082Y-105495537D01*
X123227832Y-105793088D01*
X123165000Y-106108967D01*
X123165000Y-106431033D01*
X123227832Y-106746912D01*
X123351082Y-107044463D01*
X123530013Y-107312252D01*
X123757748Y-107539987D01*
X124025537Y-107718918D01*
X124323088Y-107842168D01*
X124638967Y-107905000D01*
X124961033Y-107905000D01*
X125276912Y-107842168D01*
X125574463Y-107718918D01*
X125842252Y-107539987D01*
X126069987Y-107312252D01*
X126248918Y-107044463D01*
X126372168Y-106746912D01*
X126435000Y-106431033D01*
X126435000Y-106108967D01*
X126372168Y-105793088D01*
X126248918Y-105495537D01*
X126069987Y-105227748D01*
X125842252Y-105000013D01*
X125842233Y-105000000D01*
X125842252Y-104999987D01*
X126069987Y-104772252D01*
X126248918Y-104504463D01*
X126372168Y-104206912D01*
X126435000Y-103891033D01*
X126435000Y-103568967D01*
X126372168Y-103253088D01*
X126248918Y-102955537D01*
X126069987Y-102687748D01*
X125842252Y-102460013D01*
X125574463Y-102281082D01*
X125276912Y-102157832D01*
X125237538Y-102150000D01*
X133111928Y-102150000D01*
X133111928Y-103850000D01*
X133124188Y-103974482D01*
X133160498Y-104094180D01*
X133219463Y-104204494D01*
X133298815Y-104301185D01*
X133395506Y-104380537D01*
X133505820Y-104439502D01*
X133625518Y-104475812D01*
X133750000Y-104488072D01*
X135450000Y-104488072D01*
X135574482Y-104475812D01*
X135694180Y-104439502D01*
X135804494Y-104380537D01*
X135901185Y-104301185D01*
X135980537Y-104204494D01*
X136039502Y-104094180D01*
X136075812Y-103974482D01*
X136088072Y-103850000D01*
X136088072Y-102150000D01*
X136075812Y-102025518D01*
X136039502Y-101905820D01*
X135980537Y-101795506D01*
X135901185Y-101698815D01*
X135804494Y-101619463D01*
X135694180Y-101560498D01*
X135574482Y-101524188D01*
X135450000Y-101511928D01*
X133750000Y-101511928D01*
X133625518Y-101524188D01*
X133505820Y-101560498D01*
X133395506Y-101619463D01*
X133298815Y-101698815D01*
X133219463Y-101795506D01*
X133160498Y-101905820D01*
X133124188Y-102025518D01*
X133111928Y-102150000D01*
X125237538Y-102150000D01*
X124961033Y-102095000D01*
X124638967Y-102095000D01*
X124323088Y-102157832D01*
X124025537Y-102281082D01*
X123757748Y-102460013D01*
X123530013Y-102687748D01*
X123351082Y-102955537D01*
X123227832Y-103253088D01*
X123165000Y-103568967D01*
X116560000Y-103568967D01*
X116560000Y-102903711D01*
X116603937Y-102859774D01*
X116717205Y-102690256D01*
X116795226Y-102501898D01*
X116835000Y-102301939D01*
X116835000Y-102098061D01*
X116795226Y-101898102D01*
X116717205Y-101709744D01*
X116710694Y-101700000D01*
X116717205Y-101690256D01*
X116795226Y-101501898D01*
X116835000Y-101301939D01*
X116835000Y-101098061D01*
X116795226Y-100898102D01*
X116717205Y-100709744D01*
X116603937Y-100540226D01*
X116459774Y-100396063D01*
X116290256Y-100282795D01*
X116101898Y-100204774D01*
X115901939Y-100165000D01*
X115698061Y-100165000D01*
X115498102Y-100204774D01*
X115309744Y-100282795D01*
X115140226Y-100396063D01*
X115085276Y-100451013D01*
X114942068Y-100494454D01*
X114810039Y-100565026D01*
X114694314Y-100659999D01*
X114670511Y-100689003D01*
X114564002Y-100795512D01*
X114534998Y-100819315D01*
X114479870Y-100886490D01*
X114440025Y-100935040D01*
X114378035Y-101051014D01*
X114369453Y-101067070D01*
X114325996Y-101210331D01*
X114314999Y-101321984D01*
X114314999Y-101321994D01*
X114311323Y-101359316D01*
X114314999Y-101396638D01*
X114315000Y-109099328D01*
X114290256Y-109082795D01*
X114101898Y-109004774D01*
X113901939Y-108965000D01*
X113698061Y-108965000D01*
X113498102Y-109004774D01*
X113309744Y-109082795D01*
X113140226Y-109196063D01*
X112996063Y-109340226D01*
X112882795Y-109509744D01*
X112804774Y-109698102D01*
X112765000Y-109898061D01*
X99685000Y-109898061D01*
X99685000Y-104148061D01*
X106465000Y-104148061D01*
X106465000Y-104351939D01*
X106504774Y-104551898D01*
X106582795Y-104740256D01*
X106696063Y-104909774D01*
X106840226Y-105053937D01*
X107009744Y-105167205D01*
X107198102Y-105245226D01*
X107398061Y-105285000D01*
X107601939Y-105285000D01*
X107801898Y-105245226D01*
X107990256Y-105167205D01*
X108159774Y-105053937D01*
X108303937Y-104909774D01*
X108417205Y-104740256D01*
X108495226Y-104551898D01*
X108535000Y-104351939D01*
X108535000Y-104148061D01*
X108495226Y-103948102D01*
X108417205Y-103759744D01*
X108303937Y-103590226D01*
X108159774Y-103446063D01*
X107990256Y-103332795D01*
X107801898Y-103254774D01*
X107601939Y-103215000D01*
X107398061Y-103215000D01*
X107198102Y-103254774D01*
X107009744Y-103332795D01*
X106840226Y-103446063D01*
X106696063Y-103590226D01*
X106582795Y-103759744D01*
X106504774Y-103948102D01*
X106465000Y-104148061D01*
X99685000Y-104148061D01*
X99685000Y-98850000D01*
X101511928Y-98850000D01*
X101524188Y-98974482D01*
X101560498Y-99094180D01*
X101619463Y-99204494D01*
X101698815Y-99301185D01*
X101795506Y-99380537D01*
X101905820Y-99439502D01*
X102025518Y-99475812D01*
X102150000Y-99488072D01*
X102714250Y-99485000D01*
X102873000Y-99326250D01*
X102873000Y-98127000D01*
X103127000Y-98127000D01*
X103127000Y-99326250D01*
X103285750Y-99485000D01*
X103850000Y-99488072D01*
X103974482Y-99475812D01*
X104094180Y-99439502D01*
X104204494Y-99380537D01*
X104301185Y-99301185D01*
X104380537Y-99204494D01*
X104439502Y-99094180D01*
X104475812Y-98974482D01*
X104488072Y-98850000D01*
X104485000Y-98285750D01*
X104326250Y-98127000D01*
X103127000Y-98127000D01*
X102873000Y-98127000D01*
X101673750Y-98127000D01*
X101515000Y-98285750D01*
X101511928Y-98850000D01*
X99685000Y-98850000D01*
X99685000Y-97150000D01*
X101511928Y-97150000D01*
X101515000Y-97714250D01*
X101673750Y-97873000D01*
X102873000Y-97873000D01*
X102873000Y-96673750D01*
X103127000Y-96673750D01*
X103127000Y-97873000D01*
X104326250Y-97873000D01*
X104485000Y-97714250D01*
X104488072Y-97150000D01*
X104475812Y-97025518D01*
X104439502Y-96905820D01*
X104380537Y-96795506D01*
X104301185Y-96698815D01*
X104204494Y-96619463D01*
X104094180Y-96560498D01*
X103974482Y-96524188D01*
X103850000Y-96511928D01*
X103285750Y-96515000D01*
X103127000Y-96673750D01*
X102873000Y-96673750D01*
X102714250Y-96515000D01*
X102150000Y-96511928D01*
X102025518Y-96524188D01*
X101905820Y-96560498D01*
X101795506Y-96619463D01*
X101698815Y-96698815D01*
X101619463Y-96795506D01*
X101560498Y-96905820D01*
X101524188Y-97025518D01*
X101511928Y-97150000D01*
X99685000Y-97150000D01*
X99685000Y-95773060D01*
X107490001Y-95773060D01*
X107490001Y-95976938D01*
X107529775Y-96176897D01*
X107607796Y-96365255D01*
X107721064Y-96534773D01*
X107865227Y-96678936D01*
X108034745Y-96792204D01*
X108223103Y-96870225D01*
X108423062Y-96909999D01*
X108608130Y-96909999D01*
X108682795Y-97090256D01*
X108796063Y-97259774D01*
X108940226Y-97403937D01*
X109109744Y-97517205D01*
X109298102Y-97595226D01*
X109498061Y-97635000D01*
X109701939Y-97635000D01*
X109901898Y-97595226D01*
X110090256Y-97517205D01*
X110259774Y-97403937D01*
X110403937Y-97259774D01*
X110477285Y-97150000D01*
X111511928Y-97150000D01*
X111511928Y-98850000D01*
X111524188Y-98974482D01*
X111560498Y-99094180D01*
X111619463Y-99204494D01*
X111698815Y-99301185D01*
X111795506Y-99380537D01*
X111905820Y-99439502D01*
X112025518Y-99475812D01*
X112150000Y-99488072D01*
X113850000Y-99488072D01*
X113974482Y-99475812D01*
X114094180Y-99439502D01*
X114204494Y-99380537D01*
X114301185Y-99301185D01*
X114380537Y-99204494D01*
X114439502Y-99094180D01*
X114475812Y-98974482D01*
X114488072Y-98850000D01*
X117511928Y-98850000D01*
X117524188Y-98974482D01*
X117560498Y-99094180D01*
X117619463Y-99204494D01*
X117698815Y-99301185D01*
X117795506Y-99380537D01*
X117905820Y-99439502D01*
X118025518Y-99475812D01*
X118150000Y-99488072D01*
X118714250Y-99485000D01*
X118873000Y-99326250D01*
X118873000Y-98127000D01*
X117673750Y-98127000D01*
X117515000Y-98285750D01*
X117511928Y-98850000D01*
X114488072Y-98850000D01*
X114488072Y-97150000D01*
X117511928Y-97150000D01*
X117515000Y-97714250D01*
X117673750Y-97873000D01*
X118873000Y-97873000D01*
X118873000Y-96673750D01*
X119127000Y-96673750D01*
X119127000Y-97873000D01*
X119147000Y-97873000D01*
X119147000Y-98127000D01*
X119127000Y-98127000D01*
X119127000Y-99326250D01*
X119285750Y-99485000D01*
X119850000Y-99488072D01*
X119974482Y-99475812D01*
X120094180Y-99439502D01*
X120204494Y-99380537D01*
X120301185Y-99301185D01*
X120380537Y-99204494D01*
X120439502Y-99094180D01*
X120461513Y-99021620D01*
X120593368Y-99153475D01*
X120836589Y-99315990D01*
X121106842Y-99427932D01*
X121393740Y-99485000D01*
X121686260Y-99485000D01*
X121973158Y-99427932D01*
X122243411Y-99315990D01*
X122486632Y-99153475D01*
X122693475Y-98946632D01*
X122810000Y-98772240D01*
X122926525Y-98946632D01*
X123133368Y-99153475D01*
X123376589Y-99315990D01*
X123646842Y-99427932D01*
X123933740Y-99485000D01*
X124226260Y-99485000D01*
X124513158Y-99427932D01*
X124783411Y-99315990D01*
X125026632Y-99153475D01*
X125233475Y-98946632D01*
X125395990Y-98703411D01*
X125507932Y-98433158D01*
X125565000Y-98146260D01*
X125565000Y-97853740D01*
X125507932Y-97566842D01*
X125395990Y-97296589D01*
X125233475Y-97053368D01*
X125026632Y-96846525D01*
X124783411Y-96684010D01*
X124513158Y-96572068D01*
X124226260Y-96515000D01*
X123933740Y-96515000D01*
X123646842Y-96572068D01*
X123376589Y-96684010D01*
X123133368Y-96846525D01*
X122926525Y-97053368D01*
X122810000Y-97227760D01*
X122693475Y-97053368D01*
X122486632Y-96846525D01*
X122243411Y-96684010D01*
X121973158Y-96572068D01*
X121686260Y-96515000D01*
X121393740Y-96515000D01*
X121106842Y-96572068D01*
X120836589Y-96684010D01*
X120593368Y-96846525D01*
X120461513Y-96978380D01*
X120439502Y-96905820D01*
X120380537Y-96795506D01*
X120301185Y-96698815D01*
X120204494Y-96619463D01*
X120094180Y-96560498D01*
X119974482Y-96524188D01*
X119850000Y-96511928D01*
X119285750Y-96515000D01*
X119127000Y-96673750D01*
X118873000Y-96673750D01*
X118714250Y-96515000D01*
X118150000Y-96511928D01*
X118025518Y-96524188D01*
X117905820Y-96560498D01*
X117795506Y-96619463D01*
X117698815Y-96698815D01*
X117619463Y-96795506D01*
X117560498Y-96905820D01*
X117524188Y-97025518D01*
X117511928Y-97150000D01*
X114488072Y-97150000D01*
X114475812Y-97025518D01*
X114439502Y-96905820D01*
X114380537Y-96795506D01*
X114301185Y-96698815D01*
X114204494Y-96619463D01*
X114094180Y-96560498D01*
X113974482Y-96524188D01*
X113850000Y-96511928D01*
X112150000Y-96511928D01*
X112025518Y-96524188D01*
X111905820Y-96560498D01*
X111795506Y-96619463D01*
X111698815Y-96698815D01*
X111619463Y-96795506D01*
X111560498Y-96905820D01*
X111524188Y-97025518D01*
X111511928Y-97150000D01*
X110477285Y-97150000D01*
X110517205Y-97090256D01*
X110595226Y-96901898D01*
X110635000Y-96701939D01*
X110635000Y-96498061D01*
X110595226Y-96298102D01*
X110533880Y-96150000D01*
X126261928Y-96150000D01*
X126261928Y-97850000D01*
X126274188Y-97974482D01*
X126310498Y-98094180D01*
X126369463Y-98204494D01*
X126448815Y-98301185D01*
X126545506Y-98380537D01*
X126655820Y-98439502D01*
X126775518Y-98475812D01*
X126900000Y-98488072D01*
X128600000Y-98488072D01*
X128724482Y-98475812D01*
X128844180Y-98439502D01*
X128954494Y-98380537D01*
X129051185Y-98301185D01*
X129130537Y-98204494D01*
X129189502Y-98094180D01*
X129225812Y-97974482D01*
X129238072Y-97850000D01*
X129238072Y-96150000D01*
X129225812Y-96025518D01*
X129189502Y-95905820D01*
X129130537Y-95795506D01*
X129051185Y-95698815D01*
X128954494Y-95619463D01*
X128844180Y-95560498D01*
X128724482Y-95524188D01*
X128600000Y-95511928D01*
X126900000Y-95511928D01*
X126775518Y-95524188D01*
X126655820Y-95560498D01*
X126545506Y-95619463D01*
X126448815Y-95698815D01*
X126369463Y-95795506D01*
X126310498Y-95905820D01*
X126274188Y-96025518D01*
X126261928Y-96150000D01*
X110533880Y-96150000D01*
X110517205Y-96109744D01*
X110403937Y-95940226D01*
X110259774Y-95796063D01*
X110090256Y-95682795D01*
X109901898Y-95604774D01*
X109701939Y-95565000D01*
X109516871Y-95565000D01*
X109442206Y-95384743D01*
X109328938Y-95215225D01*
X109184775Y-95071062D01*
X109015257Y-94957794D01*
X108826899Y-94879773D01*
X108626940Y-94839999D01*
X108423062Y-94839999D01*
X108223103Y-94879773D01*
X108034745Y-94957794D01*
X107865227Y-95071062D01*
X107721064Y-95215225D01*
X107607796Y-95384743D01*
X107529775Y-95573101D01*
X107490001Y-95773060D01*
X99685000Y-95773060D01*
X99685000Y-94103740D01*
X109645000Y-94103740D01*
X109645000Y-94396260D01*
X109702068Y-94683158D01*
X109814010Y-94953411D01*
X109976525Y-95196632D01*
X110183368Y-95403475D01*
X110426589Y-95565990D01*
X110696842Y-95677932D01*
X110983740Y-95735000D01*
X111276260Y-95735000D01*
X111563158Y-95677932D01*
X111833411Y-95565990D01*
X112076632Y-95403475D01*
X112283475Y-95196632D01*
X112400000Y-95022240D01*
X112516525Y-95196632D01*
X112723368Y-95403475D01*
X112966589Y-95565990D01*
X113236842Y-95677932D01*
X113523740Y-95735000D01*
X113816260Y-95735000D01*
X114103158Y-95677932D01*
X114373411Y-95565990D01*
X114616632Y-95403475D01*
X114823475Y-95196632D01*
X114940000Y-95022240D01*
X115056525Y-95196632D01*
X115263368Y-95403475D01*
X115506589Y-95565990D01*
X115776842Y-95677932D01*
X116063740Y-95735000D01*
X116356260Y-95735000D01*
X116643158Y-95677932D01*
X116913411Y-95565990D01*
X117156632Y-95403475D01*
X117288487Y-95271620D01*
X117310498Y-95344180D01*
X117369463Y-95454494D01*
X117448815Y-95551185D01*
X117545506Y-95630537D01*
X117655820Y-95689502D01*
X117775518Y-95725812D01*
X117900000Y-95738072D01*
X118464250Y-95735000D01*
X118623000Y-95576250D01*
X118623000Y-94377000D01*
X118877000Y-94377000D01*
X118877000Y-95576250D01*
X119035750Y-95735000D01*
X119600000Y-95738072D01*
X119724482Y-95725812D01*
X119844180Y-95689502D01*
X119954494Y-95630537D01*
X120051185Y-95551185D01*
X120130537Y-95454494D01*
X120189502Y-95344180D01*
X120225812Y-95224482D01*
X120238072Y-95100000D01*
X120235000Y-94535750D01*
X120076250Y-94377000D01*
X118877000Y-94377000D01*
X118623000Y-94377000D01*
X118603000Y-94377000D01*
X118603000Y-94123000D01*
X118623000Y-94123000D01*
X118623000Y-92923750D01*
X118877000Y-92923750D01*
X118877000Y-94123000D01*
X120076250Y-94123000D01*
X120235000Y-93964250D01*
X120238072Y-93400000D01*
X120225812Y-93275518D01*
X120189502Y-93155820D01*
X120130537Y-93045506D01*
X120051185Y-92948815D01*
X119954494Y-92869463D01*
X119844180Y-92810498D01*
X119724482Y-92774188D01*
X119600000Y-92761928D01*
X119035750Y-92765000D01*
X118877000Y-92923750D01*
X118623000Y-92923750D01*
X118464250Y-92765000D01*
X117900000Y-92761928D01*
X117775518Y-92774188D01*
X117655820Y-92810498D01*
X117545506Y-92869463D01*
X117448815Y-92948815D01*
X117369463Y-93045506D01*
X117310498Y-93155820D01*
X117288487Y-93228380D01*
X117156632Y-93096525D01*
X116913411Y-92934010D01*
X116643158Y-92822068D01*
X116356260Y-92765000D01*
X116063740Y-92765000D01*
X115776842Y-92822068D01*
X115506589Y-92934010D01*
X115263368Y-93096525D01*
X115056525Y-93303368D01*
X114940000Y-93477760D01*
X114823475Y-93303368D01*
X114616632Y-93096525D01*
X114373411Y-92934010D01*
X114103158Y-92822068D01*
X113816260Y-92765000D01*
X113523740Y-92765000D01*
X113236842Y-92822068D01*
X112966589Y-92934010D01*
X112723368Y-93096525D01*
X112516525Y-93303368D01*
X112400000Y-93477760D01*
X112283475Y-93303368D01*
X112076632Y-93096525D01*
X111833411Y-92934010D01*
X111563158Y-92822068D01*
X111276260Y-92765000D01*
X110983740Y-92765000D01*
X110696842Y-92822068D01*
X110426589Y-92934010D01*
X110183368Y-93096525D01*
X109976525Y-93303368D01*
X109814010Y-93546589D01*
X109702068Y-93816842D01*
X109645000Y-94103740D01*
X99685000Y-94103740D01*
X99685000Y-92685000D01*
X138315001Y-92685000D01*
X138315000Y-122315000D01*
G37*
X138315000Y-122315000D02*
X99685000Y-122315000D01*
X99685000Y-117900000D01*
X106011928Y-117900000D01*
X106011928Y-119600000D01*
X106024188Y-119724482D01*
X106060498Y-119844180D01*
X106119463Y-119954494D01*
X106198815Y-120051185D01*
X106295506Y-120130537D01*
X106405820Y-120189502D01*
X106525518Y-120225812D01*
X106650000Y-120238072D01*
X108350000Y-120238072D01*
X108474482Y-120225812D01*
X108594180Y-120189502D01*
X108704494Y-120130537D01*
X108801185Y-120051185D01*
X108880537Y-119954494D01*
X108939502Y-119844180D01*
X108975812Y-119724482D01*
X108988072Y-119600000D01*
X108988072Y-117900000D01*
X110971928Y-117900000D01*
X110971928Y-119600000D01*
X110984188Y-119724482D01*
X111020498Y-119844180D01*
X111079463Y-119954494D01*
X111158815Y-120051185D01*
X111255506Y-120130537D01*
X111365820Y-120189502D01*
X111485518Y-120225812D01*
X111610000Y-120238072D01*
X113310000Y-120238072D01*
X113434482Y-120225812D01*
X113554180Y-120189502D01*
X113664494Y-120130537D01*
X113761185Y-120051185D01*
X113840537Y-119954494D01*
X113899502Y-119844180D01*
X113921513Y-119771620D01*
X114053368Y-119903475D01*
X114296589Y-120065990D01*
X114566842Y-120177932D01*
X114853740Y-120235000D01*
X115146260Y-120235000D01*
X115433158Y-120177932D01*
X115703411Y-120065990D01*
X115946632Y-119903475D01*
X116153475Y-119696632D01*
X116315990Y-119453411D01*
X116427932Y-119183158D01*
X116485000Y-118896260D01*
X116485000Y-118603740D01*
X116427932Y-118316842D01*
X116315990Y-118046589D01*
X116153475Y-117803368D01*
X115946632Y-117596525D01*
X115703411Y-117434010D01*
X115433158Y-117322068D01*
X115146260Y-117265000D01*
X114853740Y-117265000D01*
X114566842Y-117322068D01*
X114296589Y-117434010D01*
X114053368Y-117596525D01*
X113921513Y-117728380D01*
X113899502Y-117655820D01*
X113840537Y-117545506D01*
X113761185Y-117448815D01*
X113664494Y-117369463D01*
X113554180Y-117310498D01*
X113434482Y-117274188D01*
X113310000Y-117261928D01*
X111610000Y-117261928D01*
X111485518Y-117274188D01*
X111365820Y-117310498D01*
X111255506Y-117369463D01*
X111158815Y-117448815D01*
X111079463Y-117545506D01*
X111020498Y-117655820D01*
X110984188Y-117775518D01*
X110971928Y-117900000D01*
X108988072Y-117900000D01*
X108975812Y-117775518D01*
X108939502Y-117655820D01*
X108880537Y-117545506D01*
X108801185Y-117448815D01*
X108704494Y-117369463D01*
X108594180Y-117310498D01*
X108474482Y-117274188D01*
X108350000Y-117261928D01*
X106650000Y-117261928D01*
X106525518Y-117274188D01*
X106405820Y-117310498D01*
X106295506Y-117369463D01*
X106198815Y-117448815D01*
X106119463Y-117545506D01*
X106060498Y-117655820D01*
X106024188Y-117775518D01*
X106011928Y-117900000D01*
X99685000Y-117900000D01*
X99685000Y-114650000D01*
X105511928Y-114650000D01*
X105511928Y-116350000D01*
X105524188Y-116474482D01*
X105560498Y-116594180D01*
X105619463Y-116704494D01*
X105698815Y-116801185D01*
X105795506Y-116880537D01*
X105905820Y-116939502D01*
X106025518Y-116975812D01*
X106150000Y-116988072D01*
X107850000Y-116988072D01*
X107974482Y-116975812D01*
X108094180Y-116939502D01*
X108204494Y-116880537D01*
X108301185Y-116801185D01*
X108380537Y-116704494D01*
X108439502Y-116594180D01*
X108475812Y-116474482D01*
X108488072Y-116350000D01*
X108488072Y-114650000D01*
X110011928Y-114650000D01*
X110011928Y-116350000D01*
X110024188Y-116474482D01*
X110060498Y-116594180D01*
X110119463Y-116704494D01*
X110198815Y-116801185D01*
X110295506Y-116880537D01*
X110405820Y-116939502D01*
X110525518Y-116975812D01*
X110650000Y-116988072D01*
X112350000Y-116988072D01*
X112474482Y-116975812D01*
X112594180Y-116939502D01*
X112704494Y-116880537D01*
X112801185Y-116801185D01*
X112880537Y-116704494D01*
X112939502Y-116594180D01*
X112975812Y-116474482D01*
X112988072Y-116350000D01*
X112988072Y-116047815D01*
X112996063Y-116059774D01*
X113140226Y-116203937D01*
X113309744Y-116317205D01*
X113498102Y-116395226D01*
X113698061Y-116435000D01*
X113901939Y-116435000D01*
X114101898Y-116395226D01*
X114290256Y-116317205D01*
X114459774Y-116203937D01*
X114603937Y-116059774D01*
X114717205Y-115890256D01*
X114795226Y-115701898D01*
X114835000Y-115501939D01*
X114835000Y-115298061D01*
X114795226Y-115098102D01*
X114717205Y-114909744D01*
X114603937Y-114740226D01*
X114459774Y-114596063D01*
X114290256Y-114482795D01*
X114101898Y-114404774D01*
X113901939Y-114365000D01*
X113698061Y-114365000D01*
X113498102Y-114404774D01*
X113309744Y-114482795D01*
X113140226Y-114596063D01*
X112996063Y-114740226D01*
X112988072Y-114752185D01*
X112988072Y-114650000D01*
X112975812Y-114525518D01*
X112939502Y-114405820D01*
X112880537Y-114295506D01*
X112801185Y-114198815D01*
X112704494Y-114119463D01*
X112594180Y-114060498D01*
X112474482Y-114024188D01*
X112350000Y-114011928D01*
X110650000Y-114011928D01*
X110525518Y-114024188D01*
X110405820Y-114060498D01*
X110295506Y-114119463D01*
X110198815Y-114198815D01*
X110119463Y-114295506D01*
X110060498Y-114405820D01*
X110024188Y-114525518D01*
X110011928Y-114650000D01*
X108488072Y-114650000D01*
X108475812Y-114525518D01*
X108439502Y-114405820D01*
X108380537Y-114295506D01*
X108301185Y-114198815D01*
X108204494Y-114119463D01*
X108094180Y-114060498D01*
X107974482Y-114024188D01*
X107850000Y-114011928D01*
X106150000Y-114011928D01*
X106025518Y-114024188D01*
X105905820Y-114060498D01*
X105795506Y-114119463D01*
X105698815Y-114198815D01*
X105619463Y-114295506D01*
X105560498Y-114405820D01*
X105524188Y-114525518D01*
X105511928Y-114650000D01*
X99685000Y-114650000D01*
X99685000Y-109898061D01*
X112765000Y-109898061D01*
X112765000Y-110101939D01*
X112804774Y-110301898D01*
X112882795Y-110490256D01*
X112996063Y-110659774D01*
X113140226Y-110803937D01*
X113309744Y-110917205D01*
X113498102Y-110995226D01*
X113698061Y-111035000D01*
X113901939Y-111035000D01*
X114101898Y-110995226D01*
X114290256Y-110917205D01*
X114315000Y-110900672D01*
X114315000Y-111367667D01*
X114311323Y-111404999D01*
X114325997Y-111553984D01*
X114369453Y-111697245D01*
X114405669Y-111765000D01*
X114298061Y-111765000D01*
X114098102Y-111804774D01*
X113909744Y-111882795D01*
X113740226Y-111996063D01*
X113596063Y-112140226D01*
X113482795Y-112309744D01*
X113404774Y-112498102D01*
X113365000Y-112698061D01*
X113365000Y-112901939D01*
X113404774Y-113101898D01*
X113482795Y-113290256D01*
X113596063Y-113459774D01*
X113740226Y-113603937D01*
X113909744Y-113717205D01*
X114098102Y-113795226D01*
X114298061Y-113835000D01*
X114501939Y-113835000D01*
X114701898Y-113795226D01*
X114890256Y-113717205D01*
X115059774Y-113603937D01*
X115203937Y-113459774D01*
X115317205Y-113290256D01*
X115395226Y-113101898D01*
X115435000Y-112901939D01*
X115435000Y-112839801D01*
X117828714Y-115233516D01*
X117709744Y-115282795D01*
X117540226Y-115396063D01*
X117396063Y-115540226D01*
X117282795Y-115709744D01*
X117204774Y-115898102D01*
X117165000Y-116098061D01*
X117165000Y-116301939D01*
X117204774Y-116501898D01*
X117282795Y-116690256D01*
X117396063Y-116859774D01*
X117540226Y-117003937D01*
X117709744Y-117117205D01*
X117898102Y-117195226D01*
X118098061Y-117235000D01*
X118301939Y-117235000D01*
X118501898Y-117195226D01*
X118690256Y-117117205D01*
X118859774Y-117003937D01*
X119003937Y-116859774D01*
X119117205Y-116690256D01*
X119166484Y-116571286D01*
X121360198Y-118765000D01*
X121233740Y-118765000D01*
X120946842Y-118822068D01*
X120676589Y-118934010D01*
X120433368Y-119096525D01*
X120226525Y-119303368D01*
X120110000Y-119477760D01*
X119993475Y-119303368D01*
X119786632Y-119096525D01*
X119543411Y-118934010D01*
X119273158Y-118822068D01*
X118986260Y-118765000D01*
X118693740Y-118765000D01*
X118406842Y-118822068D01*
X118136589Y-118934010D01*
X117893368Y-119096525D01*
X117686525Y-119303368D01*
X117524010Y-119546589D01*
X117412068Y-119816842D01*
X117355000Y-120103740D01*
X117355000Y-120396260D01*
X117412068Y-120683158D01*
X117524010Y-120953411D01*
X117686525Y-121196632D01*
X117893368Y-121403475D01*
X118136589Y-121565990D01*
X118406842Y-121677932D01*
X118693740Y-121735000D01*
X118986260Y-121735000D01*
X119273158Y-121677932D01*
X119543411Y-121565990D01*
X119786632Y-121403475D01*
X119993475Y-121196632D01*
X120110000Y-121022240D01*
X120226525Y-121196632D01*
X120433368Y-121403475D01*
X120676589Y-121565990D01*
X120946842Y-121677932D01*
X121233740Y-121735000D01*
X121526260Y-121735000D01*
X121813158Y-121677932D01*
X122083411Y-121565990D01*
X122326632Y-121403475D01*
X122533475Y-121196632D01*
X122650000Y-121022240D01*
X122766525Y-121196632D01*
X122973368Y-121403475D01*
X123216589Y-121565990D01*
X123486842Y-121677932D01*
X123773740Y-121735000D01*
X124066260Y-121735000D01*
X124353158Y-121677932D01*
X124623411Y-121565990D01*
X124866632Y-121403475D01*
X125073475Y-121196632D01*
X125190000Y-121022240D01*
X125306525Y-121196632D01*
X125513368Y-121403475D01*
X125756589Y-121565990D01*
X126026842Y-121677932D01*
X126313740Y-121735000D01*
X126606260Y-121735000D01*
X126893158Y-121677932D01*
X127163411Y-121565990D01*
X127406632Y-121403475D01*
X127538487Y-121271620D01*
X127560498Y-121344180D01*
X127619463Y-121454494D01*
X127698815Y-121551185D01*
X127795506Y-121630537D01*
X127905820Y-121689502D01*
X128025518Y-121725812D01*
X128150000Y-121738072D01*
X128714250Y-121735000D01*
X128873000Y-121576250D01*
X128873000Y-120377000D01*
X129127000Y-120377000D01*
X129127000Y-121576250D01*
X129285750Y-121735000D01*
X129850000Y-121738072D01*
X129974482Y-121725812D01*
X130094180Y-121689502D01*
X130204494Y-121630537D01*
X130301185Y-121551185D01*
X130380537Y-121454494D01*
X130439502Y-121344180D01*
X130475812Y-121224482D01*
X130488072Y-121100000D01*
X130485000Y-120535750D01*
X130326250Y-120377000D01*
X129127000Y-120377000D01*
X128873000Y-120377000D01*
X128853000Y-120377000D01*
X128853000Y-120123000D01*
X128873000Y-120123000D01*
X128873000Y-118923750D01*
X129127000Y-118923750D01*
X129127000Y-120123000D01*
X130326250Y-120123000D01*
X130485000Y-119964250D01*
X130488072Y-119400000D01*
X130475812Y-119275518D01*
X130439502Y-119155820D01*
X130380537Y-119045506D01*
X130301185Y-118948815D01*
X130204494Y-118869463D01*
X130094180Y-118810498D01*
X129974482Y-118774188D01*
X129850000Y-118761928D01*
X129285750Y-118765000D01*
X129127000Y-118923750D01*
X128873000Y-118923750D01*
X128714250Y-118765000D01*
X128150000Y-118761928D01*
X128025518Y-118774188D01*
X127905820Y-118810498D01*
X127795506Y-118869463D01*
X127698815Y-118948815D01*
X127619463Y-119045506D01*
X127560498Y-119155820D01*
X127538487Y-119228380D01*
X127406632Y-119096525D01*
X127163411Y-118934010D01*
X126893158Y-118822068D01*
X126606260Y-118765000D01*
X126313740Y-118765000D01*
X126093592Y-118808790D01*
X121932863Y-114648061D01*
X124715000Y-114648061D01*
X124715000Y-114851939D01*
X124754774Y-115051898D01*
X124832795Y-115240256D01*
X124946063Y-115409774D01*
X125090226Y-115553937D01*
X125259744Y-115667205D01*
X125448102Y-115745226D01*
X125648061Y-115785000D01*
X125851939Y-115785000D01*
X126051898Y-115745226D01*
X126165000Y-115698377D01*
X126165000Y-115901939D01*
X126204774Y-116101898D01*
X126282795Y-116290256D01*
X126396063Y-116459774D01*
X126540226Y-116603937D01*
X126709744Y-116717205D01*
X126898102Y-116795226D01*
X127098061Y-116835000D01*
X127301939Y-116835000D01*
X127501898Y-116795226D01*
X127690256Y-116717205D01*
X127859774Y-116603937D01*
X128003937Y-116459774D01*
X128117205Y-116290256D01*
X128195226Y-116101898D01*
X128235000Y-115901939D01*
X128235000Y-115698061D01*
X128225441Y-115650000D01*
X130011928Y-115650000D01*
X130011928Y-117350000D01*
X130024188Y-117474482D01*
X130060498Y-117594180D01*
X130119463Y-117704494D01*
X130198815Y-117801185D01*
X130295506Y-117880537D01*
X130405820Y-117939502D01*
X130525518Y-117975812D01*
X130650000Y-117988072D01*
X132350000Y-117988072D01*
X132474482Y-117975812D01*
X132594180Y-117939502D01*
X132704494Y-117880537D01*
X132801185Y-117801185D01*
X132880537Y-117704494D01*
X132939502Y-117594180D01*
X132975812Y-117474482D01*
X132988072Y-117350000D01*
X132988072Y-115650000D01*
X132975812Y-115525518D01*
X132939502Y-115405820D01*
X132880537Y-115295506D01*
X132801185Y-115198815D01*
X132704494Y-115119463D01*
X132594180Y-115060498D01*
X132474482Y-115024188D01*
X132350000Y-115011928D01*
X130650000Y-115011928D01*
X130525518Y-115024188D01*
X130405820Y-115060498D01*
X130295506Y-115119463D01*
X130198815Y-115198815D01*
X130119463Y-115295506D01*
X130060498Y-115405820D01*
X130024188Y-115525518D01*
X130011928Y-115650000D01*
X128225441Y-115650000D01*
X128195226Y-115498102D01*
X128117205Y-115309744D01*
X128003937Y-115140226D01*
X127859774Y-114996063D01*
X127690256Y-114882795D01*
X127501898Y-114804774D01*
X127301939Y-114765000D01*
X127098061Y-114765000D01*
X126898102Y-114804774D01*
X126785000Y-114851623D01*
X126785000Y-114648061D01*
X126745226Y-114448102D01*
X126667205Y-114259744D01*
X126553937Y-114090226D01*
X126409774Y-113946063D01*
X126240256Y-113832795D01*
X126051898Y-113754774D01*
X125851939Y-113715000D01*
X125648061Y-113715000D01*
X125448102Y-113754774D01*
X125259744Y-113832795D01*
X125090226Y-113946063D01*
X124946063Y-114090226D01*
X124832795Y-114259744D01*
X124754774Y-114448102D01*
X124715000Y-114648061D01*
X121932863Y-114648061D01*
X120932863Y-113648061D01*
X129215000Y-113648061D01*
X129215000Y-113851939D01*
X129254774Y-114051898D01*
X129332795Y-114240256D01*
X129446063Y-114409774D01*
X129590226Y-114553937D01*
X129759744Y-114667205D01*
X129948102Y-114745226D01*
X130148061Y-114785000D01*
X130351939Y-114785000D01*
X130551898Y-114745226D01*
X130740256Y-114667205D01*
X130750000Y-114660694D01*
X130759744Y-114667205D01*
X130948102Y-114745226D01*
X131148061Y-114785000D01*
X131351939Y-114785000D01*
X131551898Y-114745226D01*
X131740256Y-114667205D01*
X131909774Y-114553937D01*
X132053937Y-114409774D01*
X132167205Y-114240256D01*
X132245226Y-114051898D01*
X132285000Y-113851939D01*
X132285000Y-113648061D01*
X132245226Y-113448102D01*
X132167205Y-113259744D01*
X132053937Y-113090226D01*
X131909774Y-112946063D01*
X131740256Y-112832795D01*
X131551898Y-112754774D01*
X131351939Y-112715000D01*
X131148061Y-112715000D01*
X130948102Y-112754774D01*
X130759744Y-112832795D01*
X130750000Y-112839306D01*
X130740256Y-112832795D01*
X130551898Y-112754774D01*
X130351939Y-112715000D01*
X130148061Y-112715000D01*
X129948102Y-112754774D01*
X129759744Y-112832795D01*
X129590226Y-112946063D01*
X129446063Y-113090226D01*
X129332795Y-113259744D01*
X129254774Y-113448102D01*
X129215000Y-113648061D01*
X120932863Y-113648061D01*
X118022873Y-110738072D01*
X119600000Y-110738072D01*
X119724482Y-110725812D01*
X119844180Y-110689502D01*
X119954494Y-110630537D01*
X120051185Y-110551185D01*
X120130537Y-110454494D01*
X120160701Y-110398061D01*
X130215000Y-110398061D01*
X130215000Y-110601939D01*
X130254774Y-110801898D01*
X130332795Y-110990256D01*
X130446063Y-111159774D01*
X130590226Y-111303937D01*
X130759744Y-111417205D01*
X130948102Y-111495226D01*
X131148061Y-111535000D01*
X131351939Y-111535000D01*
X131551898Y-111495226D01*
X131740256Y-111417205D01*
X131909774Y-111303937D01*
X132053937Y-111159774D01*
X132167205Y-110990256D01*
X132245226Y-110801898D01*
X132285000Y-110601939D01*
X132285000Y-110398061D01*
X132245226Y-110198102D01*
X132167205Y-110009744D01*
X132053937Y-109840226D01*
X131909774Y-109696063D01*
X131740256Y-109582795D01*
X131551898Y-109504774D01*
X131351939Y-109465000D01*
X131148061Y-109465000D01*
X130948102Y-109504774D01*
X130759744Y-109582795D01*
X130590226Y-109696063D01*
X130446063Y-109840226D01*
X130332795Y-110009744D01*
X130254774Y-110198102D01*
X130215000Y-110398061D01*
X120160701Y-110398061D01*
X120189502Y-110344180D01*
X120225812Y-110224482D01*
X120238072Y-110100000D01*
X120238072Y-108400000D01*
X120225812Y-108275518D01*
X120189502Y-108155820D01*
X120130537Y-108045506D01*
X120051185Y-107948815D01*
X119954494Y-107869463D01*
X119844180Y-107810498D01*
X119724482Y-107774188D01*
X119600000Y-107761928D01*
X117900000Y-107761928D01*
X117775518Y-107774188D01*
X117655820Y-107810498D01*
X117545506Y-107869463D01*
X117448815Y-107948815D01*
X117369463Y-108045506D01*
X117310498Y-108155820D01*
X117274188Y-108275518D01*
X117261928Y-108400000D01*
X117261928Y-109977127D01*
X116560000Y-109275199D01*
X116560000Y-103568967D01*
X123165000Y-103568967D01*
X123165000Y-103891033D01*
X123227832Y-104206912D01*
X123351082Y-104504463D01*
X123530013Y-104772252D01*
X123757748Y-104999987D01*
X123757767Y-105000000D01*
X123757748Y-105000013D01*
X123530013Y-105227748D01*
X123351082Y-105495537D01*
X123227832Y-105793088D01*
X123165000Y-106108967D01*
X123165000Y-106431033D01*
X123227832Y-106746912D01*
X123351082Y-107044463D01*
X123530013Y-107312252D01*
X123757748Y-107539987D01*
X124025537Y-107718918D01*
X124323088Y-107842168D01*
X124638967Y-107905000D01*
X124961033Y-107905000D01*
X125276912Y-107842168D01*
X125574463Y-107718918D01*
X125842252Y-107539987D01*
X126069987Y-107312252D01*
X126248918Y-107044463D01*
X126372168Y-106746912D01*
X126435000Y-106431033D01*
X126435000Y-106108967D01*
X126372168Y-105793088D01*
X126248918Y-105495537D01*
X126069987Y-105227748D01*
X125842252Y-105000013D01*
X125842233Y-105000000D01*
X125842252Y-104999987D01*
X126069987Y-104772252D01*
X126248918Y-104504463D01*
X126372168Y-104206912D01*
X126435000Y-103891033D01*
X126435000Y-103568967D01*
X126372168Y-103253088D01*
X126248918Y-102955537D01*
X126069987Y-102687748D01*
X125842252Y-102460013D01*
X125574463Y-102281082D01*
X125276912Y-102157832D01*
X125237538Y-102150000D01*
X133111928Y-102150000D01*
X133111928Y-103850000D01*
X133124188Y-103974482D01*
X133160498Y-104094180D01*
X133219463Y-104204494D01*
X133298815Y-104301185D01*
X133395506Y-104380537D01*
X133505820Y-104439502D01*
X133625518Y-104475812D01*
X133750000Y-104488072D01*
X135450000Y-104488072D01*
X135574482Y-104475812D01*
X135694180Y-104439502D01*
X135804494Y-104380537D01*
X135901185Y-104301185D01*
X135980537Y-104204494D01*
X136039502Y-104094180D01*
X136075812Y-103974482D01*
X136088072Y-103850000D01*
X136088072Y-102150000D01*
X136075812Y-102025518D01*
X136039502Y-101905820D01*
X135980537Y-101795506D01*
X135901185Y-101698815D01*
X135804494Y-101619463D01*
X135694180Y-101560498D01*
X135574482Y-101524188D01*
X135450000Y-101511928D01*
X133750000Y-101511928D01*
X133625518Y-101524188D01*
X133505820Y-101560498D01*
X133395506Y-101619463D01*
X133298815Y-101698815D01*
X133219463Y-101795506D01*
X133160498Y-101905820D01*
X133124188Y-102025518D01*
X133111928Y-102150000D01*
X125237538Y-102150000D01*
X124961033Y-102095000D01*
X124638967Y-102095000D01*
X124323088Y-102157832D01*
X124025537Y-102281082D01*
X123757748Y-102460013D01*
X123530013Y-102687748D01*
X123351082Y-102955537D01*
X123227832Y-103253088D01*
X123165000Y-103568967D01*
X116560000Y-103568967D01*
X116560000Y-102903711D01*
X116603937Y-102859774D01*
X116717205Y-102690256D01*
X116795226Y-102501898D01*
X116835000Y-102301939D01*
X116835000Y-102098061D01*
X116795226Y-101898102D01*
X116717205Y-101709744D01*
X116710694Y-101700000D01*
X116717205Y-101690256D01*
X116795226Y-101501898D01*
X116835000Y-101301939D01*
X116835000Y-101098061D01*
X116795226Y-100898102D01*
X116717205Y-100709744D01*
X116603937Y-100540226D01*
X116459774Y-100396063D01*
X116290256Y-100282795D01*
X116101898Y-100204774D01*
X115901939Y-100165000D01*
X115698061Y-100165000D01*
X115498102Y-100204774D01*
X115309744Y-100282795D01*
X115140226Y-100396063D01*
X115085276Y-100451013D01*
X114942068Y-100494454D01*
X114810039Y-100565026D01*
X114694314Y-100659999D01*
X114670511Y-100689003D01*
X114564002Y-100795512D01*
X114534998Y-100819315D01*
X114479870Y-100886490D01*
X114440025Y-100935040D01*
X114378035Y-101051014D01*
X114369453Y-101067070D01*
X114325996Y-101210331D01*
X114314999Y-101321984D01*
X114314999Y-101321994D01*
X114311323Y-101359316D01*
X114314999Y-101396638D01*
X114315000Y-109099328D01*
X114290256Y-109082795D01*
X114101898Y-109004774D01*
X113901939Y-108965000D01*
X113698061Y-108965000D01*
X113498102Y-109004774D01*
X113309744Y-109082795D01*
X113140226Y-109196063D01*
X112996063Y-109340226D01*
X112882795Y-109509744D01*
X112804774Y-109698102D01*
X112765000Y-109898061D01*
X99685000Y-109898061D01*
X99685000Y-104148061D01*
X106465000Y-104148061D01*
X106465000Y-104351939D01*
X106504774Y-104551898D01*
X106582795Y-104740256D01*
X106696063Y-104909774D01*
X106840226Y-105053937D01*
X107009744Y-105167205D01*
X107198102Y-105245226D01*
X107398061Y-105285000D01*
X107601939Y-105285000D01*
X107801898Y-105245226D01*
X107990256Y-105167205D01*
X108159774Y-105053937D01*
X108303937Y-104909774D01*
X108417205Y-104740256D01*
X108495226Y-104551898D01*
X108535000Y-104351939D01*
X108535000Y-104148061D01*
X108495226Y-103948102D01*
X108417205Y-103759744D01*
X108303937Y-103590226D01*
X108159774Y-103446063D01*
X107990256Y-103332795D01*
X107801898Y-103254774D01*
X107601939Y-103215000D01*
X107398061Y-103215000D01*
X107198102Y-103254774D01*
X107009744Y-103332795D01*
X106840226Y-103446063D01*
X106696063Y-103590226D01*
X106582795Y-103759744D01*
X106504774Y-103948102D01*
X106465000Y-104148061D01*
X99685000Y-104148061D01*
X99685000Y-98850000D01*
X101511928Y-98850000D01*
X101524188Y-98974482D01*
X101560498Y-99094180D01*
X101619463Y-99204494D01*
X101698815Y-99301185D01*
X101795506Y-99380537D01*
X101905820Y-99439502D01*
X102025518Y-99475812D01*
X102150000Y-99488072D01*
X102714250Y-99485000D01*
X102873000Y-99326250D01*
X102873000Y-98127000D01*
X103127000Y-98127000D01*
X103127000Y-99326250D01*
X103285750Y-99485000D01*
X103850000Y-99488072D01*
X103974482Y-99475812D01*
X104094180Y-99439502D01*
X104204494Y-99380537D01*
X104301185Y-99301185D01*
X104380537Y-99204494D01*
X104439502Y-99094180D01*
X104475812Y-98974482D01*
X104488072Y-98850000D01*
X104485000Y-98285750D01*
X104326250Y-98127000D01*
X103127000Y-98127000D01*
X102873000Y-98127000D01*
X101673750Y-98127000D01*
X101515000Y-98285750D01*
X101511928Y-98850000D01*
X99685000Y-98850000D01*
X99685000Y-97150000D01*
X101511928Y-97150000D01*
X101515000Y-97714250D01*
X101673750Y-97873000D01*
X102873000Y-97873000D01*
X102873000Y-96673750D01*
X103127000Y-96673750D01*
X103127000Y-97873000D01*
X104326250Y-97873000D01*
X104485000Y-97714250D01*
X104488072Y-97150000D01*
X104475812Y-97025518D01*
X104439502Y-96905820D01*
X104380537Y-96795506D01*
X104301185Y-96698815D01*
X104204494Y-96619463D01*
X104094180Y-96560498D01*
X103974482Y-96524188D01*
X103850000Y-96511928D01*
X103285750Y-96515000D01*
X103127000Y-96673750D01*
X102873000Y-96673750D01*
X102714250Y-96515000D01*
X102150000Y-96511928D01*
X102025518Y-96524188D01*
X101905820Y-96560498D01*
X101795506Y-96619463D01*
X101698815Y-96698815D01*
X101619463Y-96795506D01*
X101560498Y-96905820D01*
X101524188Y-97025518D01*
X101511928Y-97150000D01*
X99685000Y-97150000D01*
X99685000Y-95773060D01*
X107490001Y-95773060D01*
X107490001Y-95976938D01*
X107529775Y-96176897D01*
X107607796Y-96365255D01*
X107721064Y-96534773D01*
X107865227Y-96678936D01*
X108034745Y-96792204D01*
X108223103Y-96870225D01*
X108423062Y-96909999D01*
X108608130Y-96909999D01*
X108682795Y-97090256D01*
X108796063Y-97259774D01*
X108940226Y-97403937D01*
X109109744Y-97517205D01*
X109298102Y-97595226D01*
X109498061Y-97635000D01*
X109701939Y-97635000D01*
X109901898Y-97595226D01*
X110090256Y-97517205D01*
X110259774Y-97403937D01*
X110403937Y-97259774D01*
X110477285Y-97150000D01*
X111511928Y-97150000D01*
X111511928Y-98850000D01*
X111524188Y-98974482D01*
X111560498Y-99094180D01*
X111619463Y-99204494D01*
X111698815Y-99301185D01*
X111795506Y-99380537D01*
X111905820Y-99439502D01*
X112025518Y-99475812D01*
X112150000Y-99488072D01*
X113850000Y-99488072D01*
X113974482Y-99475812D01*
X114094180Y-99439502D01*
X114204494Y-99380537D01*
X114301185Y-99301185D01*
X114380537Y-99204494D01*
X114439502Y-99094180D01*
X114475812Y-98974482D01*
X114488072Y-98850000D01*
X117511928Y-98850000D01*
X117524188Y-98974482D01*
X117560498Y-99094180D01*
X117619463Y-99204494D01*
X117698815Y-99301185D01*
X117795506Y-99380537D01*
X117905820Y-99439502D01*
X118025518Y-99475812D01*
X118150000Y-99488072D01*
X118714250Y-99485000D01*
X118873000Y-99326250D01*
X118873000Y-98127000D01*
X117673750Y-98127000D01*
X117515000Y-98285750D01*
X117511928Y-98850000D01*
X114488072Y-98850000D01*
X114488072Y-97150000D01*
X117511928Y-97150000D01*
X117515000Y-97714250D01*
X117673750Y-97873000D01*
X118873000Y-97873000D01*
X118873000Y-96673750D01*
X119127000Y-96673750D01*
X119127000Y-97873000D01*
X119147000Y-97873000D01*
X119147000Y-98127000D01*
X119127000Y-98127000D01*
X119127000Y-99326250D01*
X119285750Y-99485000D01*
X119850000Y-99488072D01*
X119974482Y-99475812D01*
X120094180Y-99439502D01*
X120204494Y-99380537D01*
X120301185Y-99301185D01*
X120380537Y-99204494D01*
X120439502Y-99094180D01*
X120461513Y-99021620D01*
X120593368Y-99153475D01*
X120836589Y-99315990D01*
X121106842Y-99427932D01*
X121393740Y-99485000D01*
X121686260Y-99485000D01*
X121973158Y-99427932D01*
X122243411Y-99315990D01*
X122486632Y-99153475D01*
X122693475Y-98946632D01*
X122810000Y-98772240D01*
X122926525Y-98946632D01*
X123133368Y-99153475D01*
X123376589Y-99315990D01*
X123646842Y-99427932D01*
X123933740Y-99485000D01*
X124226260Y-99485000D01*
X124513158Y-99427932D01*
X124783411Y-99315990D01*
X125026632Y-99153475D01*
X125233475Y-98946632D01*
X125395990Y-98703411D01*
X125507932Y-98433158D01*
X125565000Y-98146260D01*
X125565000Y-97853740D01*
X125507932Y-97566842D01*
X125395990Y-97296589D01*
X125233475Y-97053368D01*
X125026632Y-96846525D01*
X124783411Y-96684010D01*
X124513158Y-96572068D01*
X124226260Y-96515000D01*
X123933740Y-96515000D01*
X123646842Y-96572068D01*
X123376589Y-96684010D01*
X123133368Y-96846525D01*
X122926525Y-97053368D01*
X122810000Y-97227760D01*
X122693475Y-97053368D01*
X122486632Y-96846525D01*
X122243411Y-96684010D01*
X121973158Y-96572068D01*
X121686260Y-96515000D01*
X121393740Y-96515000D01*
X121106842Y-96572068D01*
X120836589Y-96684010D01*
X120593368Y-96846525D01*
X120461513Y-96978380D01*
X120439502Y-96905820D01*
X120380537Y-96795506D01*
X120301185Y-96698815D01*
X120204494Y-96619463D01*
X120094180Y-96560498D01*
X119974482Y-96524188D01*
X119850000Y-96511928D01*
X119285750Y-96515000D01*
X119127000Y-96673750D01*
X118873000Y-96673750D01*
X118714250Y-96515000D01*
X118150000Y-96511928D01*
X118025518Y-96524188D01*
X117905820Y-96560498D01*
X117795506Y-96619463D01*
X117698815Y-96698815D01*
X117619463Y-96795506D01*
X117560498Y-96905820D01*
X117524188Y-97025518D01*
X117511928Y-97150000D01*
X114488072Y-97150000D01*
X114475812Y-97025518D01*
X114439502Y-96905820D01*
X114380537Y-96795506D01*
X114301185Y-96698815D01*
X114204494Y-96619463D01*
X114094180Y-96560498D01*
X113974482Y-96524188D01*
X113850000Y-96511928D01*
X112150000Y-96511928D01*
X112025518Y-96524188D01*
X111905820Y-96560498D01*
X111795506Y-96619463D01*
X111698815Y-96698815D01*
X111619463Y-96795506D01*
X111560498Y-96905820D01*
X111524188Y-97025518D01*
X111511928Y-97150000D01*
X110477285Y-97150000D01*
X110517205Y-97090256D01*
X110595226Y-96901898D01*
X110635000Y-96701939D01*
X110635000Y-96498061D01*
X110595226Y-96298102D01*
X110533880Y-96150000D01*
X126261928Y-96150000D01*
X126261928Y-97850000D01*
X126274188Y-97974482D01*
X126310498Y-98094180D01*
X126369463Y-98204494D01*
X126448815Y-98301185D01*
X126545506Y-98380537D01*
X126655820Y-98439502D01*
X126775518Y-98475812D01*
X126900000Y-98488072D01*
X128600000Y-98488072D01*
X128724482Y-98475812D01*
X128844180Y-98439502D01*
X128954494Y-98380537D01*
X129051185Y-98301185D01*
X129130537Y-98204494D01*
X129189502Y-98094180D01*
X129225812Y-97974482D01*
X129238072Y-97850000D01*
X129238072Y-96150000D01*
X129225812Y-96025518D01*
X129189502Y-95905820D01*
X129130537Y-95795506D01*
X129051185Y-95698815D01*
X128954494Y-95619463D01*
X128844180Y-95560498D01*
X128724482Y-95524188D01*
X128600000Y-95511928D01*
X126900000Y-95511928D01*
X126775518Y-95524188D01*
X126655820Y-95560498D01*
X126545506Y-95619463D01*
X126448815Y-95698815D01*
X126369463Y-95795506D01*
X126310498Y-95905820D01*
X126274188Y-96025518D01*
X126261928Y-96150000D01*
X110533880Y-96150000D01*
X110517205Y-96109744D01*
X110403937Y-95940226D01*
X110259774Y-95796063D01*
X110090256Y-95682795D01*
X109901898Y-95604774D01*
X109701939Y-95565000D01*
X109516871Y-95565000D01*
X109442206Y-95384743D01*
X109328938Y-95215225D01*
X109184775Y-95071062D01*
X109015257Y-94957794D01*
X108826899Y-94879773D01*
X108626940Y-94839999D01*
X108423062Y-94839999D01*
X108223103Y-94879773D01*
X108034745Y-94957794D01*
X107865227Y-95071062D01*
X107721064Y-95215225D01*
X107607796Y-95384743D01*
X107529775Y-95573101D01*
X107490001Y-95773060D01*
X99685000Y-95773060D01*
X99685000Y-94103740D01*
X109645000Y-94103740D01*
X109645000Y-94396260D01*
X109702068Y-94683158D01*
X109814010Y-94953411D01*
X109976525Y-95196632D01*
X110183368Y-95403475D01*
X110426589Y-95565990D01*
X110696842Y-95677932D01*
X110983740Y-95735000D01*
X111276260Y-95735000D01*
X111563158Y-95677932D01*
X111833411Y-95565990D01*
X112076632Y-95403475D01*
X112283475Y-95196632D01*
X112400000Y-95022240D01*
X112516525Y-95196632D01*
X112723368Y-95403475D01*
X112966589Y-95565990D01*
X113236842Y-95677932D01*
X113523740Y-95735000D01*
X113816260Y-95735000D01*
X114103158Y-95677932D01*
X114373411Y-95565990D01*
X114616632Y-95403475D01*
X114823475Y-95196632D01*
X114940000Y-95022240D01*
X115056525Y-95196632D01*
X115263368Y-95403475D01*
X115506589Y-95565990D01*
X115776842Y-95677932D01*
X116063740Y-95735000D01*
X116356260Y-95735000D01*
X116643158Y-95677932D01*
X116913411Y-95565990D01*
X117156632Y-95403475D01*
X117288487Y-95271620D01*
X117310498Y-95344180D01*
X117369463Y-95454494D01*
X117448815Y-95551185D01*
X117545506Y-95630537D01*
X117655820Y-95689502D01*
X117775518Y-95725812D01*
X117900000Y-95738072D01*
X118464250Y-95735000D01*
X118623000Y-95576250D01*
X118623000Y-94377000D01*
X118877000Y-94377000D01*
X118877000Y-95576250D01*
X119035750Y-95735000D01*
X119600000Y-95738072D01*
X119724482Y-95725812D01*
X119844180Y-95689502D01*
X119954494Y-95630537D01*
X120051185Y-95551185D01*
X120130537Y-95454494D01*
X120189502Y-95344180D01*
X120225812Y-95224482D01*
X120238072Y-95100000D01*
X120235000Y-94535750D01*
X120076250Y-94377000D01*
X118877000Y-94377000D01*
X118623000Y-94377000D01*
X118603000Y-94377000D01*
X118603000Y-94123000D01*
X118623000Y-94123000D01*
X118623000Y-92923750D01*
X118877000Y-92923750D01*
X118877000Y-94123000D01*
X120076250Y-94123000D01*
X120235000Y-93964250D01*
X120238072Y-93400000D01*
X120225812Y-93275518D01*
X120189502Y-93155820D01*
X120130537Y-93045506D01*
X120051185Y-92948815D01*
X119954494Y-92869463D01*
X119844180Y-92810498D01*
X119724482Y-92774188D01*
X119600000Y-92761928D01*
X119035750Y-92765000D01*
X118877000Y-92923750D01*
X118623000Y-92923750D01*
X118464250Y-92765000D01*
X117900000Y-92761928D01*
X117775518Y-92774188D01*
X117655820Y-92810498D01*
X117545506Y-92869463D01*
X117448815Y-92948815D01*
X117369463Y-93045506D01*
X117310498Y-93155820D01*
X117288487Y-93228380D01*
X117156632Y-93096525D01*
X116913411Y-92934010D01*
X116643158Y-92822068D01*
X116356260Y-92765000D01*
X116063740Y-92765000D01*
X115776842Y-92822068D01*
X115506589Y-92934010D01*
X115263368Y-93096525D01*
X115056525Y-93303368D01*
X114940000Y-93477760D01*
X114823475Y-93303368D01*
X114616632Y-93096525D01*
X114373411Y-92934010D01*
X114103158Y-92822068D01*
X113816260Y-92765000D01*
X113523740Y-92765000D01*
X113236842Y-92822068D01*
X112966589Y-92934010D01*
X112723368Y-93096525D01*
X112516525Y-93303368D01*
X112400000Y-93477760D01*
X112283475Y-93303368D01*
X112076632Y-93096525D01*
X111833411Y-92934010D01*
X111563158Y-92822068D01*
X111276260Y-92765000D01*
X110983740Y-92765000D01*
X110696842Y-92822068D01*
X110426589Y-92934010D01*
X110183368Y-93096525D01*
X109976525Y-93303368D01*
X109814010Y-93546589D01*
X109702068Y-93816842D01*
X109645000Y-94103740D01*
X99685000Y-94103740D01*
X99685000Y-92685000D01*
X138315001Y-92685000D01*
X138315000Y-122315000D01*
M02*
