G04 #@! TF.GenerationSoftware,KiCad,Pcbnew,(5.1.5)-3*
G04 #@! TF.CreationDate,2021-01-08T03:31:11-05:00*
G04 #@! TF.ProjectId,EPC611 LIDAR,45504336-3131-4204-9c49-4441522e6b69,rev?*
G04 #@! TF.SameCoordinates,Original*
G04 #@! TF.FileFunction,Copper,L1,Top*
G04 #@! TF.FilePolarity,Positive*
%FSLAX46Y46*%
G04 Gerber Fmt 4.6, Leading zero omitted, Abs format (unit mm)*
G04 Created by KiCad (PCBNEW (5.1.5)-3) date 2021-01-08 03:31:11*
%MOMM*%
%LPD*%
G04 APERTURE LIST*
%ADD10C,0.001000*%
%ADD11R,1.193800X0.762000*%
%ADD12R,1.473200X0.508000*%
%ADD13R,0.508000X1.473200*%
%ADD14C,0.250000*%
%ADD15R,1.700000X1.700000*%
%ADD16R,0.990600X1.549400*%
%ADD17C,0.100000*%
%ADD18R,0.900000X0.800000*%
%ADD19O,1.700000X1.700000*%
%ADD20C,2.000000*%
%ADD21C,0.800000*%
%ADD22C,0.200000*%
%ADD23C,0.500000*%
%ADD24C,1.000000*%
%ADD25C,0.250000*%
G04 APERTURE END LIST*
D10*
G36*
X124740000Y-105270000D02*
G01*
X123010000Y-105270000D01*
X122961331Y-105325072D01*
X122923885Y-105369937D01*
X122887573Y-105415724D01*
X122852417Y-105462405D01*
X122818441Y-105509951D01*
X122785664Y-105558332D01*
X122754107Y-105607517D01*
X122723791Y-105657477D01*
X122694734Y-105708179D01*
X122666954Y-105759592D01*
X122640469Y-105811684D01*
X122615296Y-105864422D01*
X122591449Y-105917774D01*
X122568945Y-105971705D01*
X122547796Y-106026182D01*
X122528017Y-106081171D01*
X122509619Y-106136638D01*
X122492615Y-106192548D01*
X122477014Y-106248865D01*
X122462827Y-106305555D01*
X122450063Y-106362582D01*
X122438729Y-106419911D01*
X122428832Y-106477505D01*
X122420380Y-106535329D01*
X122413376Y-106593346D01*
X122407826Y-106651520D01*
X122403732Y-106709815D01*
X122401098Y-106768193D01*
X122399925Y-106826620D01*
X122400000Y-106870000D01*
X122400000Y-106895000D01*
X122405535Y-107027992D01*
X122417379Y-107152129D01*
X122435632Y-107275487D01*
X122460244Y-107397735D01*
X122491151Y-107518545D01*
X122528268Y-107637594D01*
X122571497Y-107754563D01*
X122620722Y-107869137D01*
X122675811Y-107981010D01*
X122736616Y-108089882D01*
X122802974Y-108195461D01*
X122874708Y-108297464D01*
X122951624Y-108395618D01*
X123033517Y-108489660D01*
X123120168Y-108579337D01*
X123211344Y-108664410D01*
X123306801Y-108744649D01*
X123406282Y-108819841D01*
X123509522Y-108889783D01*
X123616243Y-108954289D01*
X123726159Y-109013184D01*
X123838977Y-109066312D01*
X123954393Y-109113530D01*
X124072098Y-109154711D01*
X124191776Y-109189746D01*
X124313108Y-109218539D01*
X124435767Y-109241014D01*
X124559424Y-109257111D01*
X124683750Y-109266787D01*
X124800000Y-109270000D01*
X124916250Y-109266787D01*
X125040576Y-109257111D01*
X125164233Y-109241014D01*
X125286892Y-109218539D01*
X125408224Y-109189746D01*
X125527902Y-109154711D01*
X125645607Y-109113530D01*
X125761023Y-109066312D01*
X125873841Y-109013184D01*
X125983757Y-108954289D01*
X126090478Y-108889783D01*
X126193718Y-108819841D01*
X126293199Y-108744649D01*
X126388656Y-108664410D01*
X126479832Y-108579337D01*
X126566483Y-108489660D01*
X126648376Y-108395618D01*
X126725292Y-108297464D01*
X126797026Y-108195461D01*
X126863384Y-108089882D01*
X126924189Y-107981010D01*
X126979278Y-107869137D01*
X127028503Y-107754563D01*
X127071732Y-107637594D01*
X127108849Y-107518545D01*
X127139756Y-107397735D01*
X127164368Y-107275487D01*
X127182621Y-107152129D01*
X127194465Y-107027992D01*
X127200000Y-106895000D01*
X127200000Y-106795000D01*
X127200000Y-106870000D01*
X127200075Y-106826620D01*
X127198902Y-106768193D01*
X127196268Y-106709815D01*
X127192174Y-106651520D01*
X127186624Y-106593346D01*
X127179620Y-106535329D01*
X127171168Y-106477505D01*
X127161271Y-106419911D01*
X127149937Y-106362582D01*
X127137173Y-106305555D01*
X127122986Y-106248865D01*
X127107385Y-106192548D01*
X127090381Y-106136638D01*
X127071983Y-106081171D01*
X127052204Y-106026182D01*
X127031055Y-105971705D01*
X127008551Y-105917774D01*
X126984704Y-105864422D01*
X126959531Y-105811684D01*
X126933046Y-105759592D01*
X126905266Y-105708179D01*
X126876209Y-105657477D01*
X126845893Y-105607517D01*
X126814336Y-105558332D01*
X126781559Y-105509951D01*
X126747583Y-105462405D01*
X126712427Y-105415724D01*
X126676115Y-105369937D01*
X126638669Y-105325072D01*
X126590000Y-105270000D01*
X124740000Y-105270000D01*
G37*
X124740000Y-105270000D02*
X123010000Y-105270000D01*
X122961331Y-105325072D01*
X122923885Y-105369937D01*
X122887573Y-105415724D01*
X122852417Y-105462405D01*
X122818441Y-105509951D01*
X122785664Y-105558332D01*
X122754107Y-105607517D01*
X122723791Y-105657477D01*
X122694734Y-105708179D01*
X122666954Y-105759592D01*
X122640469Y-105811684D01*
X122615296Y-105864422D01*
X122591449Y-105917774D01*
X122568945Y-105971705D01*
X122547796Y-106026182D01*
X122528017Y-106081171D01*
X122509619Y-106136638D01*
X122492615Y-106192548D01*
X122477014Y-106248865D01*
X122462827Y-106305555D01*
X122450063Y-106362582D01*
X122438729Y-106419911D01*
X122428832Y-106477505D01*
X122420380Y-106535329D01*
X122413376Y-106593346D01*
X122407826Y-106651520D01*
X122403732Y-106709815D01*
X122401098Y-106768193D01*
X122399925Y-106826620D01*
X122400000Y-106870000D01*
X122400000Y-106895000D01*
X122405535Y-107027992D01*
X122417379Y-107152129D01*
X122435632Y-107275487D01*
X122460244Y-107397735D01*
X122491151Y-107518545D01*
X122528268Y-107637594D01*
X122571497Y-107754563D01*
X122620722Y-107869137D01*
X122675811Y-107981010D01*
X122736616Y-108089882D01*
X122802974Y-108195461D01*
X122874708Y-108297464D01*
X122951624Y-108395618D01*
X123033517Y-108489660D01*
X123120168Y-108579337D01*
X123211344Y-108664410D01*
X123306801Y-108744649D01*
X123406282Y-108819841D01*
X123509522Y-108889783D01*
X123616243Y-108954289D01*
X123726159Y-109013184D01*
X123838977Y-109066312D01*
X123954393Y-109113530D01*
X124072098Y-109154711D01*
X124191776Y-109189746D01*
X124313108Y-109218539D01*
X124435767Y-109241014D01*
X124559424Y-109257111D01*
X124683750Y-109266787D01*
X124800000Y-109270000D01*
X124916250Y-109266787D01*
X125040576Y-109257111D01*
X125164233Y-109241014D01*
X125286892Y-109218539D01*
X125408224Y-109189746D01*
X125527902Y-109154711D01*
X125645607Y-109113530D01*
X125761023Y-109066312D01*
X125873841Y-109013184D01*
X125983757Y-108954289D01*
X126090478Y-108889783D01*
X126193718Y-108819841D01*
X126293199Y-108744649D01*
X126388656Y-108664410D01*
X126479832Y-108579337D01*
X126566483Y-108489660D01*
X126648376Y-108395618D01*
X126725292Y-108297464D01*
X126797026Y-108195461D01*
X126863384Y-108089882D01*
X126924189Y-107981010D01*
X126979278Y-107869137D01*
X127028503Y-107754563D01*
X127071732Y-107637594D01*
X127108849Y-107518545D01*
X127139756Y-107397735D01*
X127164368Y-107275487D01*
X127182621Y-107152129D01*
X127194465Y-107027992D01*
X127200000Y-106895000D01*
X127200000Y-106795000D01*
X127200000Y-106870000D01*
X127200075Y-106826620D01*
X127198902Y-106768193D01*
X127196268Y-106709815D01*
X127192174Y-106651520D01*
X127186624Y-106593346D01*
X127179620Y-106535329D01*
X127171168Y-106477505D01*
X127161271Y-106419911D01*
X127149937Y-106362582D01*
X127137173Y-106305555D01*
X127122986Y-106248865D01*
X127107385Y-106192548D01*
X127090381Y-106136638D01*
X127071983Y-106081171D01*
X127052204Y-106026182D01*
X127031055Y-105971705D01*
X127008551Y-105917774D01*
X126984704Y-105864422D01*
X126959531Y-105811684D01*
X126933046Y-105759592D01*
X126905266Y-105708179D01*
X126876209Y-105657477D01*
X126845893Y-105607517D01*
X126814336Y-105558332D01*
X126781559Y-105509951D01*
X126747583Y-105462405D01*
X126712427Y-105415724D01*
X126676115Y-105369937D01*
X126638669Y-105325072D01*
X126590000Y-105270000D01*
X124740000Y-105270000D01*
G36*
X124740000Y-104730000D02*
G01*
X123010000Y-104730000D01*
X122961331Y-104674928D01*
X122923885Y-104630063D01*
X122887573Y-104584276D01*
X122852417Y-104537595D01*
X122818441Y-104490049D01*
X122785664Y-104441668D01*
X122754107Y-104392483D01*
X122723791Y-104342523D01*
X122694734Y-104291821D01*
X122666954Y-104240408D01*
X122640469Y-104188316D01*
X122615296Y-104135578D01*
X122591449Y-104082226D01*
X122568945Y-104028295D01*
X122547796Y-103973818D01*
X122528017Y-103918829D01*
X122509619Y-103863362D01*
X122492615Y-103807452D01*
X122477014Y-103751135D01*
X122462827Y-103694445D01*
X122450063Y-103637418D01*
X122438729Y-103580089D01*
X122428832Y-103522495D01*
X122420380Y-103464671D01*
X122413376Y-103406654D01*
X122407826Y-103348480D01*
X122403732Y-103290185D01*
X122401098Y-103231807D01*
X122399925Y-103173380D01*
X122400000Y-103130000D01*
X122400000Y-103105000D01*
X122405535Y-102972008D01*
X122417379Y-102847871D01*
X122435632Y-102724513D01*
X122460244Y-102602265D01*
X122491151Y-102481455D01*
X122528268Y-102362406D01*
X122571497Y-102245437D01*
X122620722Y-102130863D01*
X122675811Y-102018990D01*
X122736616Y-101910118D01*
X122802974Y-101804539D01*
X122874708Y-101702536D01*
X122951624Y-101604382D01*
X123033517Y-101510340D01*
X123120168Y-101420663D01*
X123211344Y-101335590D01*
X123306801Y-101255351D01*
X123406282Y-101180159D01*
X123509522Y-101110217D01*
X123616243Y-101045711D01*
X123726159Y-100986816D01*
X123838977Y-100933688D01*
X123954393Y-100886470D01*
X124072098Y-100845289D01*
X124191776Y-100810254D01*
X124313108Y-100781461D01*
X124435767Y-100758986D01*
X124559424Y-100742889D01*
X124683750Y-100733213D01*
X124800000Y-100730000D01*
X124916250Y-100733213D01*
X125040576Y-100742889D01*
X125164233Y-100758986D01*
X125286892Y-100781461D01*
X125408224Y-100810254D01*
X125527902Y-100845289D01*
X125645607Y-100886470D01*
X125761023Y-100933688D01*
X125873841Y-100986816D01*
X125983757Y-101045711D01*
X126090478Y-101110217D01*
X126193718Y-101180159D01*
X126293199Y-101255351D01*
X126388656Y-101335590D01*
X126479832Y-101420663D01*
X126566483Y-101510340D01*
X126648376Y-101604382D01*
X126725292Y-101702536D01*
X126797026Y-101804539D01*
X126863384Y-101910118D01*
X126924189Y-102018990D01*
X126979278Y-102130863D01*
X127028503Y-102245437D01*
X127071732Y-102362406D01*
X127108849Y-102481455D01*
X127139756Y-102602265D01*
X127164368Y-102724513D01*
X127182621Y-102847871D01*
X127194465Y-102972008D01*
X127200000Y-103105000D01*
X127200000Y-103205000D01*
X127200000Y-103130000D01*
X127200075Y-103173380D01*
X127198902Y-103231807D01*
X127196268Y-103290185D01*
X127192174Y-103348480D01*
X127186624Y-103406654D01*
X127179620Y-103464671D01*
X127171168Y-103522495D01*
X127161271Y-103580089D01*
X127149937Y-103637418D01*
X127137173Y-103694445D01*
X127122986Y-103751135D01*
X127107385Y-103807452D01*
X127090381Y-103863362D01*
X127071983Y-103918829D01*
X127052204Y-103973818D01*
X127031055Y-104028295D01*
X127008551Y-104082226D01*
X126984704Y-104135578D01*
X126959531Y-104188316D01*
X126933046Y-104240408D01*
X126905266Y-104291821D01*
X126876209Y-104342523D01*
X126845893Y-104392483D01*
X126814336Y-104441668D01*
X126781559Y-104490049D01*
X126747583Y-104537595D01*
X126712427Y-104584276D01*
X126676115Y-104630063D01*
X126638669Y-104674928D01*
X126590000Y-104730000D01*
X124740000Y-104730000D01*
G37*
X124740000Y-104730000D02*
X123010000Y-104730000D01*
X122961331Y-104674928D01*
X122923885Y-104630063D01*
X122887573Y-104584276D01*
X122852417Y-104537595D01*
X122818441Y-104490049D01*
X122785664Y-104441668D01*
X122754107Y-104392483D01*
X122723791Y-104342523D01*
X122694734Y-104291821D01*
X122666954Y-104240408D01*
X122640469Y-104188316D01*
X122615296Y-104135578D01*
X122591449Y-104082226D01*
X122568945Y-104028295D01*
X122547796Y-103973818D01*
X122528017Y-103918829D01*
X122509619Y-103863362D01*
X122492615Y-103807452D01*
X122477014Y-103751135D01*
X122462827Y-103694445D01*
X122450063Y-103637418D01*
X122438729Y-103580089D01*
X122428832Y-103522495D01*
X122420380Y-103464671D01*
X122413376Y-103406654D01*
X122407826Y-103348480D01*
X122403732Y-103290185D01*
X122401098Y-103231807D01*
X122399925Y-103173380D01*
X122400000Y-103130000D01*
X122400000Y-103105000D01*
X122405535Y-102972008D01*
X122417379Y-102847871D01*
X122435632Y-102724513D01*
X122460244Y-102602265D01*
X122491151Y-102481455D01*
X122528268Y-102362406D01*
X122571497Y-102245437D01*
X122620722Y-102130863D01*
X122675811Y-102018990D01*
X122736616Y-101910118D01*
X122802974Y-101804539D01*
X122874708Y-101702536D01*
X122951624Y-101604382D01*
X123033517Y-101510340D01*
X123120168Y-101420663D01*
X123211344Y-101335590D01*
X123306801Y-101255351D01*
X123406282Y-101180159D01*
X123509522Y-101110217D01*
X123616243Y-101045711D01*
X123726159Y-100986816D01*
X123838977Y-100933688D01*
X123954393Y-100886470D01*
X124072098Y-100845289D01*
X124191776Y-100810254D01*
X124313108Y-100781461D01*
X124435767Y-100758986D01*
X124559424Y-100742889D01*
X124683750Y-100733213D01*
X124800000Y-100730000D01*
X124916250Y-100733213D01*
X125040576Y-100742889D01*
X125164233Y-100758986D01*
X125286892Y-100781461D01*
X125408224Y-100810254D01*
X125527902Y-100845289D01*
X125645607Y-100886470D01*
X125761023Y-100933688D01*
X125873841Y-100986816D01*
X125983757Y-101045711D01*
X126090478Y-101110217D01*
X126193718Y-101180159D01*
X126293199Y-101255351D01*
X126388656Y-101335590D01*
X126479832Y-101420663D01*
X126566483Y-101510340D01*
X126648376Y-101604382D01*
X126725292Y-101702536D01*
X126797026Y-101804539D01*
X126863384Y-101910118D01*
X126924189Y-102018990D01*
X126979278Y-102130863D01*
X127028503Y-102245437D01*
X127071732Y-102362406D01*
X127108849Y-102481455D01*
X127139756Y-102602265D01*
X127164368Y-102724513D01*
X127182621Y-102847871D01*
X127194465Y-102972008D01*
X127200000Y-103105000D01*
X127200000Y-103205000D01*
X127200000Y-103130000D01*
X127200075Y-103173380D01*
X127198902Y-103231807D01*
X127196268Y-103290185D01*
X127192174Y-103348480D01*
X127186624Y-103406654D01*
X127179620Y-103464671D01*
X127171168Y-103522495D01*
X127161271Y-103580089D01*
X127149937Y-103637418D01*
X127137173Y-103694445D01*
X127122986Y-103751135D01*
X127107385Y-103807452D01*
X127090381Y-103863362D01*
X127071983Y-103918829D01*
X127052204Y-103973818D01*
X127031055Y-104028295D01*
X127008551Y-104082226D01*
X126984704Y-104135578D01*
X126959531Y-104188316D01*
X126933046Y-104240408D01*
X126905266Y-104291821D01*
X126876209Y-104342523D01*
X126845893Y-104392483D01*
X126814336Y-104441668D01*
X126781559Y-104490049D01*
X126747583Y-104537595D01*
X126712427Y-104584276D01*
X126676115Y-104630063D01*
X126638669Y-104674928D01*
X126590000Y-104730000D01*
X124740000Y-104730000D01*
D11*
X121952500Y-116054100D03*
X121952500Y-113945900D03*
X120047500Y-113945900D03*
X120047500Y-116054100D03*
D12*
X105885200Y-102200001D03*
X105885200Y-102999999D03*
X105885200Y-103800000D03*
X105885200Y-104600001D03*
X105885200Y-105399999D03*
X105885200Y-106200000D03*
X105885200Y-106999999D03*
X105885200Y-107799999D03*
D13*
X107200001Y-109114800D03*
X107999999Y-109114800D03*
X108800000Y-109114800D03*
X109600001Y-109114800D03*
X110399999Y-109114800D03*
X111200000Y-109114800D03*
X111999999Y-109114800D03*
X112799999Y-109114800D03*
D12*
X114114800Y-107799999D03*
X114114800Y-107000001D03*
X114114800Y-106200000D03*
X114114800Y-105399999D03*
X114114800Y-104600001D03*
X114114800Y-103800000D03*
X114114800Y-103000001D03*
X114114800Y-102200001D03*
D13*
X112799999Y-100885200D03*
X112000001Y-100885200D03*
X111200000Y-100885200D03*
X110399999Y-100885200D03*
X109600001Y-100885200D03*
X108800000Y-100885200D03*
X108000001Y-100885200D03*
X107200001Y-100885200D03*
D14*
X130125000Y-112625000D03*
X130125000Y-112175000D03*
X130125000Y-111725000D03*
X130125000Y-111275000D03*
X130125000Y-110825000D03*
X130125000Y-110375000D03*
X129675000Y-112625000D03*
X129675000Y-112175000D03*
X129675000Y-110825000D03*
X129675000Y-110375000D03*
X129225000Y-112625000D03*
X129225000Y-110375000D03*
X128775000Y-112625000D03*
X128775000Y-110375000D03*
X128325000Y-112625000D03*
X128325000Y-112175000D03*
X128325000Y-110825000D03*
X128325000Y-110375000D03*
X127875000Y-112625000D03*
X127875000Y-112175000D03*
X127875000Y-111725000D03*
X127875000Y-111275000D03*
X127875000Y-110825000D03*
X127875000Y-110375000D03*
D15*
X103000000Y-98000000D03*
X131500000Y-116500000D03*
X127750000Y-97000000D03*
X107500000Y-118750000D03*
X134600000Y-103000000D03*
X118750000Y-109250000D03*
X113000000Y-98000000D03*
X111500000Y-115500000D03*
X107000000Y-115500000D03*
D16*
X101400001Y-115625001D03*
X104599999Y-115625001D03*
X104599999Y-110374999D03*
X101400001Y-110374999D03*
G04 #@! TA.AperFunction,SMDPad,CuDef*
D17*
G36*
X123452691Y-111526053D02*
G01*
X123473926Y-111529203D01*
X123494750Y-111534419D01*
X123514962Y-111541651D01*
X123534368Y-111550830D01*
X123552781Y-111561866D01*
X123570024Y-111574654D01*
X123585930Y-111589070D01*
X123600346Y-111604976D01*
X123613134Y-111622219D01*
X123624170Y-111640632D01*
X123633349Y-111660038D01*
X123640581Y-111680250D01*
X123645797Y-111701074D01*
X123648947Y-111722309D01*
X123650000Y-111743750D01*
X123650000Y-112256250D01*
X123648947Y-112277691D01*
X123645797Y-112298926D01*
X123640581Y-112319750D01*
X123633349Y-112339962D01*
X123624170Y-112359368D01*
X123613134Y-112377781D01*
X123600346Y-112395024D01*
X123585930Y-112410930D01*
X123570024Y-112425346D01*
X123552781Y-112438134D01*
X123534368Y-112449170D01*
X123514962Y-112458349D01*
X123494750Y-112465581D01*
X123473926Y-112470797D01*
X123452691Y-112473947D01*
X123431250Y-112475000D01*
X122993750Y-112475000D01*
X122972309Y-112473947D01*
X122951074Y-112470797D01*
X122930250Y-112465581D01*
X122910038Y-112458349D01*
X122890632Y-112449170D01*
X122872219Y-112438134D01*
X122854976Y-112425346D01*
X122839070Y-112410930D01*
X122824654Y-112395024D01*
X122811866Y-112377781D01*
X122800830Y-112359368D01*
X122791651Y-112339962D01*
X122784419Y-112319750D01*
X122779203Y-112298926D01*
X122776053Y-112277691D01*
X122775000Y-112256250D01*
X122775000Y-111743750D01*
X122776053Y-111722309D01*
X122779203Y-111701074D01*
X122784419Y-111680250D01*
X122791651Y-111660038D01*
X122800830Y-111640632D01*
X122811866Y-111622219D01*
X122824654Y-111604976D01*
X122839070Y-111589070D01*
X122854976Y-111574654D01*
X122872219Y-111561866D01*
X122890632Y-111550830D01*
X122910038Y-111541651D01*
X122930250Y-111534419D01*
X122951074Y-111529203D01*
X122972309Y-111526053D01*
X122993750Y-111525000D01*
X123431250Y-111525000D01*
X123452691Y-111526053D01*
G37*
G04 #@! TD.AperFunction*
G04 #@! TA.AperFunction,SMDPad,CuDef*
G36*
X125027691Y-111526053D02*
G01*
X125048926Y-111529203D01*
X125069750Y-111534419D01*
X125089962Y-111541651D01*
X125109368Y-111550830D01*
X125127781Y-111561866D01*
X125145024Y-111574654D01*
X125160930Y-111589070D01*
X125175346Y-111604976D01*
X125188134Y-111622219D01*
X125199170Y-111640632D01*
X125208349Y-111660038D01*
X125215581Y-111680250D01*
X125220797Y-111701074D01*
X125223947Y-111722309D01*
X125225000Y-111743750D01*
X125225000Y-112256250D01*
X125223947Y-112277691D01*
X125220797Y-112298926D01*
X125215581Y-112319750D01*
X125208349Y-112339962D01*
X125199170Y-112359368D01*
X125188134Y-112377781D01*
X125175346Y-112395024D01*
X125160930Y-112410930D01*
X125145024Y-112425346D01*
X125127781Y-112438134D01*
X125109368Y-112449170D01*
X125089962Y-112458349D01*
X125069750Y-112465581D01*
X125048926Y-112470797D01*
X125027691Y-112473947D01*
X125006250Y-112475000D01*
X124568750Y-112475000D01*
X124547309Y-112473947D01*
X124526074Y-112470797D01*
X124505250Y-112465581D01*
X124485038Y-112458349D01*
X124465632Y-112449170D01*
X124447219Y-112438134D01*
X124429976Y-112425346D01*
X124414070Y-112410930D01*
X124399654Y-112395024D01*
X124386866Y-112377781D01*
X124375830Y-112359368D01*
X124366651Y-112339962D01*
X124359419Y-112319750D01*
X124354203Y-112298926D01*
X124351053Y-112277691D01*
X124350000Y-112256250D01*
X124350000Y-111743750D01*
X124351053Y-111722309D01*
X124354203Y-111701074D01*
X124359419Y-111680250D01*
X124366651Y-111660038D01*
X124375830Y-111640632D01*
X124386866Y-111622219D01*
X124399654Y-111604976D01*
X124414070Y-111589070D01*
X124429976Y-111574654D01*
X124447219Y-111561866D01*
X124465632Y-111550830D01*
X124485038Y-111541651D01*
X124505250Y-111534419D01*
X124526074Y-111529203D01*
X124547309Y-111526053D01*
X124568750Y-111525000D01*
X125006250Y-111525000D01*
X125027691Y-111526053D01*
G37*
G04 #@! TD.AperFunction*
G04 #@! TA.AperFunction,SMDPad,CuDef*
G36*
X120240191Y-111526053D02*
G01*
X120261426Y-111529203D01*
X120282250Y-111534419D01*
X120302462Y-111541651D01*
X120321868Y-111550830D01*
X120340281Y-111561866D01*
X120357524Y-111574654D01*
X120373430Y-111589070D01*
X120387846Y-111604976D01*
X120400634Y-111622219D01*
X120411670Y-111640632D01*
X120420849Y-111660038D01*
X120428081Y-111680250D01*
X120433297Y-111701074D01*
X120436447Y-111722309D01*
X120437500Y-111743750D01*
X120437500Y-112256250D01*
X120436447Y-112277691D01*
X120433297Y-112298926D01*
X120428081Y-112319750D01*
X120420849Y-112339962D01*
X120411670Y-112359368D01*
X120400634Y-112377781D01*
X120387846Y-112395024D01*
X120373430Y-112410930D01*
X120357524Y-112425346D01*
X120340281Y-112438134D01*
X120321868Y-112449170D01*
X120302462Y-112458349D01*
X120282250Y-112465581D01*
X120261426Y-112470797D01*
X120240191Y-112473947D01*
X120218750Y-112475000D01*
X119781250Y-112475000D01*
X119759809Y-112473947D01*
X119738574Y-112470797D01*
X119717750Y-112465581D01*
X119697538Y-112458349D01*
X119678132Y-112449170D01*
X119659719Y-112438134D01*
X119642476Y-112425346D01*
X119626570Y-112410930D01*
X119612154Y-112395024D01*
X119599366Y-112377781D01*
X119588330Y-112359368D01*
X119579151Y-112339962D01*
X119571919Y-112319750D01*
X119566703Y-112298926D01*
X119563553Y-112277691D01*
X119562500Y-112256250D01*
X119562500Y-111743750D01*
X119563553Y-111722309D01*
X119566703Y-111701074D01*
X119571919Y-111680250D01*
X119579151Y-111660038D01*
X119588330Y-111640632D01*
X119599366Y-111622219D01*
X119612154Y-111604976D01*
X119626570Y-111589070D01*
X119642476Y-111574654D01*
X119659719Y-111561866D01*
X119678132Y-111550830D01*
X119697538Y-111541651D01*
X119717750Y-111534419D01*
X119738574Y-111529203D01*
X119759809Y-111526053D01*
X119781250Y-111525000D01*
X120218750Y-111525000D01*
X120240191Y-111526053D01*
G37*
G04 #@! TD.AperFunction*
G04 #@! TA.AperFunction,SMDPad,CuDef*
G36*
X121815191Y-111526053D02*
G01*
X121836426Y-111529203D01*
X121857250Y-111534419D01*
X121877462Y-111541651D01*
X121896868Y-111550830D01*
X121915281Y-111561866D01*
X121932524Y-111574654D01*
X121948430Y-111589070D01*
X121962846Y-111604976D01*
X121975634Y-111622219D01*
X121986670Y-111640632D01*
X121995849Y-111660038D01*
X122003081Y-111680250D01*
X122008297Y-111701074D01*
X122011447Y-111722309D01*
X122012500Y-111743750D01*
X122012500Y-112256250D01*
X122011447Y-112277691D01*
X122008297Y-112298926D01*
X122003081Y-112319750D01*
X121995849Y-112339962D01*
X121986670Y-112359368D01*
X121975634Y-112377781D01*
X121962846Y-112395024D01*
X121948430Y-112410930D01*
X121932524Y-112425346D01*
X121915281Y-112438134D01*
X121896868Y-112449170D01*
X121877462Y-112458349D01*
X121857250Y-112465581D01*
X121836426Y-112470797D01*
X121815191Y-112473947D01*
X121793750Y-112475000D01*
X121356250Y-112475000D01*
X121334809Y-112473947D01*
X121313574Y-112470797D01*
X121292750Y-112465581D01*
X121272538Y-112458349D01*
X121253132Y-112449170D01*
X121234719Y-112438134D01*
X121217476Y-112425346D01*
X121201570Y-112410930D01*
X121187154Y-112395024D01*
X121174366Y-112377781D01*
X121163330Y-112359368D01*
X121154151Y-112339962D01*
X121146919Y-112319750D01*
X121141703Y-112298926D01*
X121138553Y-112277691D01*
X121137500Y-112256250D01*
X121137500Y-111743750D01*
X121138553Y-111722309D01*
X121141703Y-111701074D01*
X121146919Y-111680250D01*
X121154151Y-111660038D01*
X121163330Y-111640632D01*
X121174366Y-111622219D01*
X121187154Y-111604976D01*
X121201570Y-111589070D01*
X121217476Y-111574654D01*
X121234719Y-111561866D01*
X121253132Y-111550830D01*
X121272538Y-111541651D01*
X121292750Y-111534419D01*
X121313574Y-111529203D01*
X121334809Y-111526053D01*
X121356250Y-111525000D01*
X121793750Y-111525000D01*
X121815191Y-111526053D01*
G37*
G04 #@! TD.AperFunction*
G04 #@! TA.AperFunction,SMDPad,CuDef*
G36*
X108277691Y-110776053D02*
G01*
X108298926Y-110779203D01*
X108319750Y-110784419D01*
X108339962Y-110791651D01*
X108359368Y-110800830D01*
X108377781Y-110811866D01*
X108395024Y-110824654D01*
X108410930Y-110839070D01*
X108425346Y-110854976D01*
X108438134Y-110872219D01*
X108449170Y-110890632D01*
X108458349Y-110910038D01*
X108465581Y-110930250D01*
X108470797Y-110951074D01*
X108473947Y-110972309D01*
X108475000Y-110993750D01*
X108475000Y-111431250D01*
X108473947Y-111452691D01*
X108470797Y-111473926D01*
X108465581Y-111494750D01*
X108458349Y-111514962D01*
X108449170Y-111534368D01*
X108438134Y-111552781D01*
X108425346Y-111570024D01*
X108410930Y-111585930D01*
X108395024Y-111600346D01*
X108377781Y-111613134D01*
X108359368Y-111624170D01*
X108339962Y-111633349D01*
X108319750Y-111640581D01*
X108298926Y-111645797D01*
X108277691Y-111648947D01*
X108256250Y-111650000D01*
X107743750Y-111650000D01*
X107722309Y-111648947D01*
X107701074Y-111645797D01*
X107680250Y-111640581D01*
X107660038Y-111633349D01*
X107640632Y-111624170D01*
X107622219Y-111613134D01*
X107604976Y-111600346D01*
X107589070Y-111585930D01*
X107574654Y-111570024D01*
X107561866Y-111552781D01*
X107550830Y-111534368D01*
X107541651Y-111514962D01*
X107534419Y-111494750D01*
X107529203Y-111473926D01*
X107526053Y-111452691D01*
X107525000Y-111431250D01*
X107525000Y-110993750D01*
X107526053Y-110972309D01*
X107529203Y-110951074D01*
X107534419Y-110930250D01*
X107541651Y-110910038D01*
X107550830Y-110890632D01*
X107561866Y-110872219D01*
X107574654Y-110854976D01*
X107589070Y-110839070D01*
X107604976Y-110824654D01*
X107622219Y-110811866D01*
X107640632Y-110800830D01*
X107660038Y-110791651D01*
X107680250Y-110784419D01*
X107701074Y-110779203D01*
X107722309Y-110776053D01*
X107743750Y-110775000D01*
X108256250Y-110775000D01*
X108277691Y-110776053D01*
G37*
G04 #@! TD.AperFunction*
G04 #@! TA.AperFunction,SMDPad,CuDef*
G36*
X108277691Y-112351053D02*
G01*
X108298926Y-112354203D01*
X108319750Y-112359419D01*
X108339962Y-112366651D01*
X108359368Y-112375830D01*
X108377781Y-112386866D01*
X108395024Y-112399654D01*
X108410930Y-112414070D01*
X108425346Y-112429976D01*
X108438134Y-112447219D01*
X108449170Y-112465632D01*
X108458349Y-112485038D01*
X108465581Y-112505250D01*
X108470797Y-112526074D01*
X108473947Y-112547309D01*
X108475000Y-112568750D01*
X108475000Y-113006250D01*
X108473947Y-113027691D01*
X108470797Y-113048926D01*
X108465581Y-113069750D01*
X108458349Y-113089962D01*
X108449170Y-113109368D01*
X108438134Y-113127781D01*
X108425346Y-113145024D01*
X108410930Y-113160930D01*
X108395024Y-113175346D01*
X108377781Y-113188134D01*
X108359368Y-113199170D01*
X108339962Y-113208349D01*
X108319750Y-113215581D01*
X108298926Y-113220797D01*
X108277691Y-113223947D01*
X108256250Y-113225000D01*
X107743750Y-113225000D01*
X107722309Y-113223947D01*
X107701074Y-113220797D01*
X107680250Y-113215581D01*
X107660038Y-113208349D01*
X107640632Y-113199170D01*
X107622219Y-113188134D01*
X107604976Y-113175346D01*
X107589070Y-113160930D01*
X107574654Y-113145024D01*
X107561866Y-113127781D01*
X107550830Y-113109368D01*
X107541651Y-113089962D01*
X107534419Y-113069750D01*
X107529203Y-113048926D01*
X107526053Y-113027691D01*
X107525000Y-113006250D01*
X107525000Y-112568750D01*
X107526053Y-112547309D01*
X107529203Y-112526074D01*
X107534419Y-112505250D01*
X107541651Y-112485038D01*
X107550830Y-112465632D01*
X107561866Y-112447219D01*
X107574654Y-112429976D01*
X107589070Y-112414070D01*
X107604976Y-112399654D01*
X107622219Y-112386866D01*
X107640632Y-112375830D01*
X107660038Y-112366651D01*
X107680250Y-112359419D01*
X107701074Y-112354203D01*
X107722309Y-112351053D01*
X107743750Y-112350000D01*
X108256250Y-112350000D01*
X108277691Y-112351053D01*
G37*
G04 #@! TD.AperFunction*
G04 #@! TA.AperFunction,SMDPad,CuDef*
G36*
X132277691Y-104351053D02*
G01*
X132298926Y-104354203D01*
X132319750Y-104359419D01*
X132339962Y-104366651D01*
X132359368Y-104375830D01*
X132377781Y-104386866D01*
X132395024Y-104399654D01*
X132410930Y-104414070D01*
X132425346Y-104429976D01*
X132438134Y-104447219D01*
X132449170Y-104465632D01*
X132458349Y-104485038D01*
X132465581Y-104505250D01*
X132470797Y-104526074D01*
X132473947Y-104547309D01*
X132475000Y-104568750D01*
X132475000Y-105006250D01*
X132473947Y-105027691D01*
X132470797Y-105048926D01*
X132465581Y-105069750D01*
X132458349Y-105089962D01*
X132449170Y-105109368D01*
X132438134Y-105127781D01*
X132425346Y-105145024D01*
X132410930Y-105160930D01*
X132395024Y-105175346D01*
X132377781Y-105188134D01*
X132359368Y-105199170D01*
X132339962Y-105208349D01*
X132319750Y-105215581D01*
X132298926Y-105220797D01*
X132277691Y-105223947D01*
X132256250Y-105225000D01*
X131743750Y-105225000D01*
X131722309Y-105223947D01*
X131701074Y-105220797D01*
X131680250Y-105215581D01*
X131660038Y-105208349D01*
X131640632Y-105199170D01*
X131622219Y-105188134D01*
X131604976Y-105175346D01*
X131589070Y-105160930D01*
X131574654Y-105145024D01*
X131561866Y-105127781D01*
X131550830Y-105109368D01*
X131541651Y-105089962D01*
X131534419Y-105069750D01*
X131529203Y-105048926D01*
X131526053Y-105027691D01*
X131525000Y-105006250D01*
X131525000Y-104568750D01*
X131526053Y-104547309D01*
X131529203Y-104526074D01*
X131534419Y-104505250D01*
X131541651Y-104485038D01*
X131550830Y-104465632D01*
X131561866Y-104447219D01*
X131574654Y-104429976D01*
X131589070Y-104414070D01*
X131604976Y-104399654D01*
X131622219Y-104386866D01*
X131640632Y-104375830D01*
X131660038Y-104366651D01*
X131680250Y-104359419D01*
X131701074Y-104354203D01*
X131722309Y-104351053D01*
X131743750Y-104350000D01*
X132256250Y-104350000D01*
X132277691Y-104351053D01*
G37*
G04 #@! TD.AperFunction*
G04 #@! TA.AperFunction,SMDPad,CuDef*
G36*
X132277691Y-102776053D02*
G01*
X132298926Y-102779203D01*
X132319750Y-102784419D01*
X132339962Y-102791651D01*
X132359368Y-102800830D01*
X132377781Y-102811866D01*
X132395024Y-102824654D01*
X132410930Y-102839070D01*
X132425346Y-102854976D01*
X132438134Y-102872219D01*
X132449170Y-102890632D01*
X132458349Y-102910038D01*
X132465581Y-102930250D01*
X132470797Y-102951074D01*
X132473947Y-102972309D01*
X132475000Y-102993750D01*
X132475000Y-103431250D01*
X132473947Y-103452691D01*
X132470797Y-103473926D01*
X132465581Y-103494750D01*
X132458349Y-103514962D01*
X132449170Y-103534368D01*
X132438134Y-103552781D01*
X132425346Y-103570024D01*
X132410930Y-103585930D01*
X132395024Y-103600346D01*
X132377781Y-103613134D01*
X132359368Y-103624170D01*
X132339962Y-103633349D01*
X132319750Y-103640581D01*
X132298926Y-103645797D01*
X132277691Y-103648947D01*
X132256250Y-103650000D01*
X131743750Y-103650000D01*
X131722309Y-103648947D01*
X131701074Y-103645797D01*
X131680250Y-103640581D01*
X131660038Y-103633349D01*
X131640632Y-103624170D01*
X131622219Y-103613134D01*
X131604976Y-103600346D01*
X131589070Y-103585930D01*
X131574654Y-103570024D01*
X131561866Y-103552781D01*
X131550830Y-103534368D01*
X131541651Y-103514962D01*
X131534419Y-103494750D01*
X131529203Y-103473926D01*
X131526053Y-103452691D01*
X131525000Y-103431250D01*
X131525000Y-102993750D01*
X131526053Y-102972309D01*
X131529203Y-102951074D01*
X131534419Y-102930250D01*
X131541651Y-102910038D01*
X131550830Y-102890632D01*
X131561866Y-102872219D01*
X131574654Y-102854976D01*
X131589070Y-102839070D01*
X131604976Y-102824654D01*
X131622219Y-102811866D01*
X131640632Y-102800830D01*
X131660038Y-102791651D01*
X131680250Y-102784419D01*
X131701074Y-102779203D01*
X131722309Y-102776053D01*
X131743750Y-102775000D01*
X132256250Y-102775000D01*
X132277691Y-102776053D01*
G37*
G04 #@! TD.AperFunction*
G04 #@! TA.AperFunction,SMDPad,CuDef*
G36*
X130599504Y-108276204D02*
G01*
X130623773Y-108279804D01*
X130647571Y-108285765D01*
X130670671Y-108294030D01*
X130692849Y-108304520D01*
X130713893Y-108317133D01*
X130733598Y-108331747D01*
X130751777Y-108348223D01*
X130768253Y-108366402D01*
X130782867Y-108386107D01*
X130795480Y-108407151D01*
X130805970Y-108429329D01*
X130814235Y-108452429D01*
X130820196Y-108476227D01*
X130823796Y-108500496D01*
X130825000Y-108525000D01*
X130825000Y-109275000D01*
X130823796Y-109299504D01*
X130820196Y-109323773D01*
X130814235Y-109347571D01*
X130805970Y-109370671D01*
X130795480Y-109392849D01*
X130782867Y-109413893D01*
X130768253Y-109433598D01*
X130751777Y-109451777D01*
X130733598Y-109468253D01*
X130713893Y-109482867D01*
X130692849Y-109495480D01*
X130670671Y-109505970D01*
X130647571Y-109514235D01*
X130623773Y-109520196D01*
X130599504Y-109523796D01*
X130575000Y-109525000D01*
X128425000Y-109525000D01*
X128400496Y-109523796D01*
X128376227Y-109520196D01*
X128352429Y-109514235D01*
X128329329Y-109505970D01*
X128307151Y-109495480D01*
X128286107Y-109482867D01*
X128266402Y-109468253D01*
X128248223Y-109451777D01*
X128231747Y-109433598D01*
X128217133Y-109413893D01*
X128204520Y-109392849D01*
X128194030Y-109370671D01*
X128185765Y-109347571D01*
X128179804Y-109323773D01*
X128176204Y-109299504D01*
X128175000Y-109275000D01*
X128175000Y-108525000D01*
X128176204Y-108500496D01*
X128179804Y-108476227D01*
X128185765Y-108452429D01*
X128194030Y-108429329D01*
X128204520Y-108407151D01*
X128217133Y-108386107D01*
X128231747Y-108366402D01*
X128248223Y-108348223D01*
X128266402Y-108331747D01*
X128286107Y-108317133D01*
X128307151Y-108304520D01*
X128329329Y-108294030D01*
X128352429Y-108285765D01*
X128376227Y-108279804D01*
X128400496Y-108276204D01*
X128425000Y-108275000D01*
X130575000Y-108275000D01*
X130599504Y-108276204D01*
G37*
G04 #@! TD.AperFunction*
G04 #@! TA.AperFunction,SMDPad,CuDef*
G36*
X130599504Y-105476204D02*
G01*
X130623773Y-105479804D01*
X130647571Y-105485765D01*
X130670671Y-105494030D01*
X130692849Y-105504520D01*
X130713893Y-105517133D01*
X130733598Y-105531747D01*
X130751777Y-105548223D01*
X130768253Y-105566402D01*
X130782867Y-105586107D01*
X130795480Y-105607151D01*
X130805970Y-105629329D01*
X130814235Y-105652429D01*
X130820196Y-105676227D01*
X130823796Y-105700496D01*
X130825000Y-105725000D01*
X130825000Y-106475000D01*
X130823796Y-106499504D01*
X130820196Y-106523773D01*
X130814235Y-106547571D01*
X130805970Y-106570671D01*
X130795480Y-106592849D01*
X130782867Y-106613893D01*
X130768253Y-106633598D01*
X130751777Y-106651777D01*
X130733598Y-106668253D01*
X130713893Y-106682867D01*
X130692849Y-106695480D01*
X130670671Y-106705970D01*
X130647571Y-106714235D01*
X130623773Y-106720196D01*
X130599504Y-106723796D01*
X130575000Y-106725000D01*
X128425000Y-106725000D01*
X128400496Y-106723796D01*
X128376227Y-106720196D01*
X128352429Y-106714235D01*
X128329329Y-106705970D01*
X128307151Y-106695480D01*
X128286107Y-106682867D01*
X128266402Y-106668253D01*
X128248223Y-106651777D01*
X128231747Y-106633598D01*
X128217133Y-106613893D01*
X128204520Y-106592849D01*
X128194030Y-106570671D01*
X128185765Y-106547571D01*
X128179804Y-106523773D01*
X128176204Y-106499504D01*
X128175000Y-106475000D01*
X128175000Y-105725000D01*
X128176204Y-105700496D01*
X128179804Y-105676227D01*
X128185765Y-105652429D01*
X128194030Y-105629329D01*
X128204520Y-105607151D01*
X128217133Y-105586107D01*
X128231747Y-105566402D01*
X128248223Y-105548223D01*
X128266402Y-105531747D01*
X128286107Y-105517133D01*
X128307151Y-105504520D01*
X128329329Y-105494030D01*
X128352429Y-105485765D01*
X128376227Y-105479804D01*
X128400496Y-105476204D01*
X128425000Y-105475000D01*
X130575000Y-105475000D01*
X130599504Y-105476204D01*
G37*
G04 #@! TD.AperFunction*
D18*
X111500000Y-113750000D03*
X109500000Y-114700000D03*
X109500000Y-112800000D03*
D19*
X115000000Y-118750000D03*
D15*
X112460000Y-118750000D03*
D19*
X124080000Y-98000000D03*
X121540000Y-98000000D03*
D15*
X119000000Y-98000000D03*
D19*
X118840000Y-120250000D03*
X121380000Y-120250000D03*
X123920000Y-120250000D03*
X126460000Y-120250000D03*
D15*
X129000000Y-120250000D03*
D19*
X111130000Y-94250000D03*
X113670000Y-94250000D03*
X116210000Y-94250000D03*
D15*
X118750000Y-94250000D03*
D20*
X124800000Y-106270000D03*
X124800000Y-103730000D03*
D18*
X133500000Y-106600000D03*
X135500000Y-105650000D03*
X135500000Y-107550000D03*
G04 #@! TA.AperFunction,SMDPad,CuDef*
D17*
G36*
X102980142Y-105451174D02*
G01*
X103003803Y-105454684D01*
X103027007Y-105460496D01*
X103049529Y-105468554D01*
X103071153Y-105478782D01*
X103091670Y-105491079D01*
X103110883Y-105505329D01*
X103128607Y-105521393D01*
X103144671Y-105539117D01*
X103158921Y-105558330D01*
X103171218Y-105578847D01*
X103181446Y-105600471D01*
X103189504Y-105622993D01*
X103195316Y-105646197D01*
X103198826Y-105669858D01*
X103200000Y-105693750D01*
X103200000Y-106181250D01*
X103198826Y-106205142D01*
X103195316Y-106228803D01*
X103189504Y-106252007D01*
X103181446Y-106274529D01*
X103171218Y-106296153D01*
X103158921Y-106316670D01*
X103144671Y-106335883D01*
X103128607Y-106353607D01*
X103110883Y-106369671D01*
X103091670Y-106383921D01*
X103071153Y-106396218D01*
X103049529Y-106406446D01*
X103027007Y-106414504D01*
X103003803Y-106420316D01*
X102980142Y-106423826D01*
X102956250Y-106425000D01*
X102043750Y-106425000D01*
X102019858Y-106423826D01*
X101996197Y-106420316D01*
X101972993Y-106414504D01*
X101950471Y-106406446D01*
X101928847Y-106396218D01*
X101908330Y-106383921D01*
X101889117Y-106369671D01*
X101871393Y-106353607D01*
X101855329Y-106335883D01*
X101841079Y-106316670D01*
X101828782Y-106296153D01*
X101818554Y-106274529D01*
X101810496Y-106252007D01*
X101804684Y-106228803D01*
X101801174Y-106205142D01*
X101800000Y-106181250D01*
X101800000Y-105693750D01*
X101801174Y-105669858D01*
X101804684Y-105646197D01*
X101810496Y-105622993D01*
X101818554Y-105600471D01*
X101828782Y-105578847D01*
X101841079Y-105558330D01*
X101855329Y-105539117D01*
X101871393Y-105521393D01*
X101889117Y-105505329D01*
X101908330Y-105491079D01*
X101928847Y-105478782D01*
X101950471Y-105468554D01*
X101972993Y-105460496D01*
X101996197Y-105454684D01*
X102019858Y-105451174D01*
X102043750Y-105450000D01*
X102956250Y-105450000D01*
X102980142Y-105451174D01*
G37*
G04 #@! TD.AperFunction*
G04 #@! TA.AperFunction,SMDPad,CuDef*
G36*
X102980142Y-103576174D02*
G01*
X103003803Y-103579684D01*
X103027007Y-103585496D01*
X103049529Y-103593554D01*
X103071153Y-103603782D01*
X103091670Y-103616079D01*
X103110883Y-103630329D01*
X103128607Y-103646393D01*
X103144671Y-103664117D01*
X103158921Y-103683330D01*
X103171218Y-103703847D01*
X103181446Y-103725471D01*
X103189504Y-103747993D01*
X103195316Y-103771197D01*
X103198826Y-103794858D01*
X103200000Y-103818750D01*
X103200000Y-104306250D01*
X103198826Y-104330142D01*
X103195316Y-104353803D01*
X103189504Y-104377007D01*
X103181446Y-104399529D01*
X103171218Y-104421153D01*
X103158921Y-104441670D01*
X103144671Y-104460883D01*
X103128607Y-104478607D01*
X103110883Y-104494671D01*
X103091670Y-104508921D01*
X103071153Y-104521218D01*
X103049529Y-104531446D01*
X103027007Y-104539504D01*
X103003803Y-104545316D01*
X102980142Y-104548826D01*
X102956250Y-104550000D01*
X102043750Y-104550000D01*
X102019858Y-104548826D01*
X101996197Y-104545316D01*
X101972993Y-104539504D01*
X101950471Y-104531446D01*
X101928847Y-104521218D01*
X101908330Y-104508921D01*
X101889117Y-104494671D01*
X101871393Y-104478607D01*
X101855329Y-104460883D01*
X101841079Y-104441670D01*
X101828782Y-104421153D01*
X101818554Y-104399529D01*
X101810496Y-104377007D01*
X101804684Y-104353803D01*
X101801174Y-104330142D01*
X101800000Y-104306250D01*
X101800000Y-103818750D01*
X101801174Y-103794858D01*
X101804684Y-103771197D01*
X101810496Y-103747993D01*
X101818554Y-103725471D01*
X101828782Y-103703847D01*
X101841079Y-103683330D01*
X101855329Y-103664117D01*
X101871393Y-103646393D01*
X101889117Y-103630329D01*
X101908330Y-103616079D01*
X101928847Y-103603782D01*
X101950471Y-103593554D01*
X101972993Y-103585496D01*
X101996197Y-103579684D01*
X102019858Y-103576174D01*
X102043750Y-103575000D01*
X102956250Y-103575000D01*
X102980142Y-103576174D01*
G37*
G04 #@! TD.AperFunction*
G04 #@! TA.AperFunction,SMDPad,CuDef*
G36*
X104186958Y-105190710D02*
G01*
X104201276Y-105192834D01*
X104215317Y-105196351D01*
X104228946Y-105201228D01*
X104242031Y-105207417D01*
X104254447Y-105214858D01*
X104266073Y-105223481D01*
X104276798Y-105233202D01*
X104286519Y-105243927D01*
X104295142Y-105255553D01*
X104302583Y-105267969D01*
X104308772Y-105281054D01*
X104313649Y-105294683D01*
X104317166Y-105308724D01*
X104319290Y-105323042D01*
X104320000Y-105337500D01*
X104320000Y-105632500D01*
X104319290Y-105646958D01*
X104317166Y-105661276D01*
X104313649Y-105675317D01*
X104308772Y-105688946D01*
X104302583Y-105702031D01*
X104295142Y-105714447D01*
X104286519Y-105726073D01*
X104276798Y-105736798D01*
X104266073Y-105746519D01*
X104254447Y-105755142D01*
X104242031Y-105762583D01*
X104228946Y-105768772D01*
X104215317Y-105773649D01*
X104201276Y-105777166D01*
X104186958Y-105779290D01*
X104172500Y-105780000D01*
X103827500Y-105780000D01*
X103813042Y-105779290D01*
X103798724Y-105777166D01*
X103784683Y-105773649D01*
X103771054Y-105768772D01*
X103757969Y-105762583D01*
X103745553Y-105755142D01*
X103733927Y-105746519D01*
X103723202Y-105736798D01*
X103713481Y-105726073D01*
X103704858Y-105714447D01*
X103697417Y-105702031D01*
X103691228Y-105688946D01*
X103686351Y-105675317D01*
X103682834Y-105661276D01*
X103680710Y-105646958D01*
X103680000Y-105632500D01*
X103680000Y-105337500D01*
X103680710Y-105323042D01*
X103682834Y-105308724D01*
X103686351Y-105294683D01*
X103691228Y-105281054D01*
X103697417Y-105267969D01*
X103704858Y-105255553D01*
X103713481Y-105243927D01*
X103723202Y-105233202D01*
X103733927Y-105223481D01*
X103745553Y-105214858D01*
X103757969Y-105207417D01*
X103771054Y-105201228D01*
X103784683Y-105196351D01*
X103798724Y-105192834D01*
X103813042Y-105190710D01*
X103827500Y-105190000D01*
X104172500Y-105190000D01*
X104186958Y-105190710D01*
G37*
G04 #@! TD.AperFunction*
G04 #@! TA.AperFunction,SMDPad,CuDef*
G36*
X104186958Y-104220710D02*
G01*
X104201276Y-104222834D01*
X104215317Y-104226351D01*
X104228946Y-104231228D01*
X104242031Y-104237417D01*
X104254447Y-104244858D01*
X104266073Y-104253481D01*
X104276798Y-104263202D01*
X104286519Y-104273927D01*
X104295142Y-104285553D01*
X104302583Y-104297969D01*
X104308772Y-104311054D01*
X104313649Y-104324683D01*
X104317166Y-104338724D01*
X104319290Y-104353042D01*
X104320000Y-104367500D01*
X104320000Y-104662500D01*
X104319290Y-104676958D01*
X104317166Y-104691276D01*
X104313649Y-104705317D01*
X104308772Y-104718946D01*
X104302583Y-104732031D01*
X104295142Y-104744447D01*
X104286519Y-104756073D01*
X104276798Y-104766798D01*
X104266073Y-104776519D01*
X104254447Y-104785142D01*
X104242031Y-104792583D01*
X104228946Y-104798772D01*
X104215317Y-104803649D01*
X104201276Y-104807166D01*
X104186958Y-104809290D01*
X104172500Y-104810000D01*
X103827500Y-104810000D01*
X103813042Y-104809290D01*
X103798724Y-104807166D01*
X103784683Y-104803649D01*
X103771054Y-104798772D01*
X103757969Y-104792583D01*
X103745553Y-104785142D01*
X103733927Y-104776519D01*
X103723202Y-104766798D01*
X103713481Y-104756073D01*
X103704858Y-104744447D01*
X103697417Y-104732031D01*
X103691228Y-104718946D01*
X103686351Y-104705317D01*
X103682834Y-104691276D01*
X103680710Y-104676958D01*
X103680000Y-104662500D01*
X103680000Y-104367500D01*
X103680710Y-104353042D01*
X103682834Y-104338724D01*
X103686351Y-104324683D01*
X103691228Y-104311054D01*
X103697417Y-104297969D01*
X103704858Y-104285553D01*
X103713481Y-104273927D01*
X103723202Y-104263202D01*
X103733927Y-104253481D01*
X103745553Y-104244858D01*
X103757969Y-104237417D01*
X103771054Y-104231228D01*
X103784683Y-104226351D01*
X103798724Y-104222834D01*
X103813042Y-104220710D01*
X103827500Y-104220000D01*
X104172500Y-104220000D01*
X104186958Y-104220710D01*
G37*
G04 #@! TD.AperFunction*
G04 #@! TA.AperFunction,SMDPad,CuDef*
G36*
X102676958Y-107180710D02*
G01*
X102691276Y-107182834D01*
X102705317Y-107186351D01*
X102718946Y-107191228D01*
X102732031Y-107197417D01*
X102744447Y-107204858D01*
X102756073Y-107213481D01*
X102766798Y-107223202D01*
X102776519Y-107233927D01*
X102785142Y-107245553D01*
X102792583Y-107257969D01*
X102798772Y-107271054D01*
X102803649Y-107284683D01*
X102807166Y-107298724D01*
X102809290Y-107313042D01*
X102810000Y-107327500D01*
X102810000Y-107672500D01*
X102809290Y-107686958D01*
X102807166Y-107701276D01*
X102803649Y-107715317D01*
X102798772Y-107728946D01*
X102792583Y-107742031D01*
X102785142Y-107754447D01*
X102776519Y-107766073D01*
X102766798Y-107776798D01*
X102756073Y-107786519D01*
X102744447Y-107795142D01*
X102732031Y-107802583D01*
X102718946Y-107808772D01*
X102705317Y-107813649D01*
X102691276Y-107817166D01*
X102676958Y-107819290D01*
X102662500Y-107820000D01*
X102367500Y-107820000D01*
X102353042Y-107819290D01*
X102338724Y-107817166D01*
X102324683Y-107813649D01*
X102311054Y-107808772D01*
X102297969Y-107802583D01*
X102285553Y-107795142D01*
X102273927Y-107786519D01*
X102263202Y-107776798D01*
X102253481Y-107766073D01*
X102244858Y-107754447D01*
X102237417Y-107742031D01*
X102231228Y-107728946D01*
X102226351Y-107715317D01*
X102222834Y-107701276D01*
X102220710Y-107686958D01*
X102220000Y-107672500D01*
X102220000Y-107327500D01*
X102220710Y-107313042D01*
X102222834Y-107298724D01*
X102226351Y-107284683D01*
X102231228Y-107271054D01*
X102237417Y-107257969D01*
X102244858Y-107245553D01*
X102253481Y-107233927D01*
X102263202Y-107223202D01*
X102273927Y-107213481D01*
X102285553Y-107204858D01*
X102297969Y-107197417D01*
X102311054Y-107191228D01*
X102324683Y-107186351D01*
X102338724Y-107182834D01*
X102353042Y-107180710D01*
X102367500Y-107180000D01*
X102662500Y-107180000D01*
X102676958Y-107180710D01*
G37*
G04 #@! TD.AperFunction*
G04 #@! TA.AperFunction,SMDPad,CuDef*
G36*
X103646958Y-107180710D02*
G01*
X103661276Y-107182834D01*
X103675317Y-107186351D01*
X103688946Y-107191228D01*
X103702031Y-107197417D01*
X103714447Y-107204858D01*
X103726073Y-107213481D01*
X103736798Y-107223202D01*
X103746519Y-107233927D01*
X103755142Y-107245553D01*
X103762583Y-107257969D01*
X103768772Y-107271054D01*
X103773649Y-107284683D01*
X103777166Y-107298724D01*
X103779290Y-107313042D01*
X103780000Y-107327500D01*
X103780000Y-107672500D01*
X103779290Y-107686958D01*
X103777166Y-107701276D01*
X103773649Y-107715317D01*
X103768772Y-107728946D01*
X103762583Y-107742031D01*
X103755142Y-107754447D01*
X103746519Y-107766073D01*
X103736798Y-107776798D01*
X103726073Y-107786519D01*
X103714447Y-107795142D01*
X103702031Y-107802583D01*
X103688946Y-107808772D01*
X103675317Y-107813649D01*
X103661276Y-107817166D01*
X103646958Y-107819290D01*
X103632500Y-107820000D01*
X103337500Y-107820000D01*
X103323042Y-107819290D01*
X103308724Y-107817166D01*
X103294683Y-107813649D01*
X103281054Y-107808772D01*
X103267969Y-107802583D01*
X103255553Y-107795142D01*
X103243927Y-107786519D01*
X103233202Y-107776798D01*
X103223481Y-107766073D01*
X103214858Y-107754447D01*
X103207417Y-107742031D01*
X103201228Y-107728946D01*
X103196351Y-107715317D01*
X103192834Y-107701276D01*
X103190710Y-107686958D01*
X103190000Y-107672500D01*
X103190000Y-107327500D01*
X103190710Y-107313042D01*
X103192834Y-107298724D01*
X103196351Y-107284683D01*
X103201228Y-107271054D01*
X103207417Y-107257969D01*
X103214858Y-107245553D01*
X103223481Y-107233927D01*
X103233202Y-107223202D01*
X103243927Y-107213481D01*
X103255553Y-107204858D01*
X103267969Y-107197417D01*
X103281054Y-107191228D01*
X103294683Y-107186351D01*
X103308724Y-107182834D01*
X103323042Y-107180710D01*
X103337500Y-107180000D01*
X103632500Y-107180000D01*
X103646958Y-107180710D01*
G37*
G04 #@! TD.AperFunction*
G04 #@! TA.AperFunction,SMDPad,CuDef*
G36*
X123686958Y-115205710D02*
G01*
X123701276Y-115207834D01*
X123715317Y-115211351D01*
X123728946Y-115216228D01*
X123742031Y-115222417D01*
X123754447Y-115229858D01*
X123766073Y-115238481D01*
X123776798Y-115248202D01*
X123786519Y-115258927D01*
X123795142Y-115270553D01*
X123802583Y-115282969D01*
X123808772Y-115296054D01*
X123813649Y-115309683D01*
X123817166Y-115323724D01*
X123819290Y-115338042D01*
X123820000Y-115352500D01*
X123820000Y-115647500D01*
X123819290Y-115661958D01*
X123817166Y-115676276D01*
X123813649Y-115690317D01*
X123808772Y-115703946D01*
X123802583Y-115717031D01*
X123795142Y-115729447D01*
X123786519Y-115741073D01*
X123776798Y-115751798D01*
X123766073Y-115761519D01*
X123754447Y-115770142D01*
X123742031Y-115777583D01*
X123728946Y-115783772D01*
X123715317Y-115788649D01*
X123701276Y-115792166D01*
X123686958Y-115794290D01*
X123672500Y-115795000D01*
X123327500Y-115795000D01*
X123313042Y-115794290D01*
X123298724Y-115792166D01*
X123284683Y-115788649D01*
X123271054Y-115783772D01*
X123257969Y-115777583D01*
X123245553Y-115770142D01*
X123233927Y-115761519D01*
X123223202Y-115751798D01*
X123213481Y-115741073D01*
X123204858Y-115729447D01*
X123197417Y-115717031D01*
X123191228Y-115703946D01*
X123186351Y-115690317D01*
X123182834Y-115676276D01*
X123180710Y-115661958D01*
X123180000Y-115647500D01*
X123180000Y-115352500D01*
X123180710Y-115338042D01*
X123182834Y-115323724D01*
X123186351Y-115309683D01*
X123191228Y-115296054D01*
X123197417Y-115282969D01*
X123204858Y-115270553D01*
X123213481Y-115258927D01*
X123223202Y-115248202D01*
X123233927Y-115238481D01*
X123245553Y-115229858D01*
X123257969Y-115222417D01*
X123271054Y-115216228D01*
X123284683Y-115211351D01*
X123298724Y-115207834D01*
X123313042Y-115205710D01*
X123327500Y-115205000D01*
X123672500Y-115205000D01*
X123686958Y-115205710D01*
G37*
G04 #@! TD.AperFunction*
G04 #@! TA.AperFunction,SMDPad,CuDef*
G36*
X123686958Y-114235710D02*
G01*
X123701276Y-114237834D01*
X123715317Y-114241351D01*
X123728946Y-114246228D01*
X123742031Y-114252417D01*
X123754447Y-114259858D01*
X123766073Y-114268481D01*
X123776798Y-114278202D01*
X123786519Y-114288927D01*
X123795142Y-114300553D01*
X123802583Y-114312969D01*
X123808772Y-114326054D01*
X123813649Y-114339683D01*
X123817166Y-114353724D01*
X123819290Y-114368042D01*
X123820000Y-114382500D01*
X123820000Y-114677500D01*
X123819290Y-114691958D01*
X123817166Y-114706276D01*
X123813649Y-114720317D01*
X123808772Y-114733946D01*
X123802583Y-114747031D01*
X123795142Y-114759447D01*
X123786519Y-114771073D01*
X123776798Y-114781798D01*
X123766073Y-114791519D01*
X123754447Y-114800142D01*
X123742031Y-114807583D01*
X123728946Y-114813772D01*
X123715317Y-114818649D01*
X123701276Y-114822166D01*
X123686958Y-114824290D01*
X123672500Y-114825000D01*
X123327500Y-114825000D01*
X123313042Y-114824290D01*
X123298724Y-114822166D01*
X123284683Y-114818649D01*
X123271054Y-114813772D01*
X123257969Y-114807583D01*
X123245553Y-114800142D01*
X123233927Y-114791519D01*
X123223202Y-114781798D01*
X123213481Y-114771073D01*
X123204858Y-114759447D01*
X123197417Y-114747031D01*
X123191228Y-114733946D01*
X123186351Y-114720317D01*
X123182834Y-114706276D01*
X123180710Y-114691958D01*
X123180000Y-114677500D01*
X123180000Y-114382500D01*
X123180710Y-114368042D01*
X123182834Y-114353724D01*
X123186351Y-114339683D01*
X123191228Y-114326054D01*
X123197417Y-114312969D01*
X123204858Y-114300553D01*
X123213481Y-114288927D01*
X123223202Y-114278202D01*
X123233927Y-114268481D01*
X123245553Y-114259858D01*
X123257969Y-114252417D01*
X123271054Y-114246228D01*
X123284683Y-114241351D01*
X123298724Y-114237834D01*
X123313042Y-114235710D01*
X123327500Y-114235000D01*
X123672500Y-114235000D01*
X123686958Y-114235710D01*
G37*
G04 #@! TD.AperFunction*
G04 #@! TA.AperFunction,SMDPad,CuDef*
G36*
X126527691Y-110026053D02*
G01*
X126548926Y-110029203D01*
X126569750Y-110034419D01*
X126589962Y-110041651D01*
X126609368Y-110050830D01*
X126627781Y-110061866D01*
X126645024Y-110074654D01*
X126660930Y-110089070D01*
X126675346Y-110104976D01*
X126688134Y-110122219D01*
X126699170Y-110140632D01*
X126708349Y-110160038D01*
X126715581Y-110180250D01*
X126720797Y-110201074D01*
X126723947Y-110222309D01*
X126725000Y-110243750D01*
X126725000Y-110756250D01*
X126723947Y-110777691D01*
X126720797Y-110798926D01*
X126715581Y-110819750D01*
X126708349Y-110839962D01*
X126699170Y-110859368D01*
X126688134Y-110877781D01*
X126675346Y-110895024D01*
X126660930Y-110910930D01*
X126645024Y-110925346D01*
X126627781Y-110938134D01*
X126609368Y-110949170D01*
X126589962Y-110958349D01*
X126569750Y-110965581D01*
X126548926Y-110970797D01*
X126527691Y-110973947D01*
X126506250Y-110975000D01*
X126068750Y-110975000D01*
X126047309Y-110973947D01*
X126026074Y-110970797D01*
X126005250Y-110965581D01*
X125985038Y-110958349D01*
X125965632Y-110949170D01*
X125947219Y-110938134D01*
X125929976Y-110925346D01*
X125914070Y-110910930D01*
X125899654Y-110895024D01*
X125886866Y-110877781D01*
X125875830Y-110859368D01*
X125866651Y-110839962D01*
X125859419Y-110819750D01*
X125854203Y-110798926D01*
X125851053Y-110777691D01*
X125850000Y-110756250D01*
X125850000Y-110243750D01*
X125851053Y-110222309D01*
X125854203Y-110201074D01*
X125859419Y-110180250D01*
X125866651Y-110160038D01*
X125875830Y-110140632D01*
X125886866Y-110122219D01*
X125899654Y-110104976D01*
X125914070Y-110089070D01*
X125929976Y-110074654D01*
X125947219Y-110061866D01*
X125965632Y-110050830D01*
X125985038Y-110041651D01*
X126005250Y-110034419D01*
X126026074Y-110029203D01*
X126047309Y-110026053D01*
X126068750Y-110025000D01*
X126506250Y-110025000D01*
X126527691Y-110026053D01*
G37*
G04 #@! TD.AperFunction*
G04 #@! TA.AperFunction,SMDPad,CuDef*
G36*
X124952691Y-110026053D02*
G01*
X124973926Y-110029203D01*
X124994750Y-110034419D01*
X125014962Y-110041651D01*
X125034368Y-110050830D01*
X125052781Y-110061866D01*
X125070024Y-110074654D01*
X125085930Y-110089070D01*
X125100346Y-110104976D01*
X125113134Y-110122219D01*
X125124170Y-110140632D01*
X125133349Y-110160038D01*
X125140581Y-110180250D01*
X125145797Y-110201074D01*
X125148947Y-110222309D01*
X125150000Y-110243750D01*
X125150000Y-110756250D01*
X125148947Y-110777691D01*
X125145797Y-110798926D01*
X125140581Y-110819750D01*
X125133349Y-110839962D01*
X125124170Y-110859368D01*
X125113134Y-110877781D01*
X125100346Y-110895024D01*
X125085930Y-110910930D01*
X125070024Y-110925346D01*
X125052781Y-110938134D01*
X125034368Y-110949170D01*
X125014962Y-110958349D01*
X124994750Y-110965581D01*
X124973926Y-110970797D01*
X124952691Y-110973947D01*
X124931250Y-110975000D01*
X124493750Y-110975000D01*
X124472309Y-110973947D01*
X124451074Y-110970797D01*
X124430250Y-110965581D01*
X124410038Y-110958349D01*
X124390632Y-110949170D01*
X124372219Y-110938134D01*
X124354976Y-110925346D01*
X124339070Y-110910930D01*
X124324654Y-110895024D01*
X124311866Y-110877781D01*
X124300830Y-110859368D01*
X124291651Y-110839962D01*
X124284419Y-110819750D01*
X124279203Y-110798926D01*
X124276053Y-110777691D01*
X124275000Y-110756250D01*
X124275000Y-110243750D01*
X124276053Y-110222309D01*
X124279203Y-110201074D01*
X124284419Y-110180250D01*
X124291651Y-110160038D01*
X124300830Y-110140632D01*
X124311866Y-110122219D01*
X124324654Y-110104976D01*
X124339070Y-110089070D01*
X124354976Y-110074654D01*
X124372219Y-110061866D01*
X124390632Y-110050830D01*
X124410038Y-110041651D01*
X124430250Y-110034419D01*
X124451074Y-110029203D01*
X124472309Y-110026053D01*
X124493750Y-110025000D01*
X124931250Y-110025000D01*
X124952691Y-110026053D01*
G37*
G04 #@! TD.AperFunction*
G04 #@! TA.AperFunction,SMDPad,CuDef*
G36*
X137186958Y-103990710D02*
G01*
X137201276Y-103992834D01*
X137215317Y-103996351D01*
X137228946Y-104001228D01*
X137242031Y-104007417D01*
X137254447Y-104014858D01*
X137266073Y-104023481D01*
X137276798Y-104033202D01*
X137286519Y-104043927D01*
X137295142Y-104055553D01*
X137302583Y-104067969D01*
X137308772Y-104081054D01*
X137313649Y-104094683D01*
X137317166Y-104108724D01*
X137319290Y-104123042D01*
X137320000Y-104137500D01*
X137320000Y-104432500D01*
X137319290Y-104446958D01*
X137317166Y-104461276D01*
X137313649Y-104475317D01*
X137308772Y-104488946D01*
X137302583Y-104502031D01*
X137295142Y-104514447D01*
X137286519Y-104526073D01*
X137276798Y-104536798D01*
X137266073Y-104546519D01*
X137254447Y-104555142D01*
X137242031Y-104562583D01*
X137228946Y-104568772D01*
X137215317Y-104573649D01*
X137201276Y-104577166D01*
X137186958Y-104579290D01*
X137172500Y-104580000D01*
X136827500Y-104580000D01*
X136813042Y-104579290D01*
X136798724Y-104577166D01*
X136784683Y-104573649D01*
X136771054Y-104568772D01*
X136757969Y-104562583D01*
X136745553Y-104555142D01*
X136733927Y-104546519D01*
X136723202Y-104536798D01*
X136713481Y-104526073D01*
X136704858Y-104514447D01*
X136697417Y-104502031D01*
X136691228Y-104488946D01*
X136686351Y-104475317D01*
X136682834Y-104461276D01*
X136680710Y-104446958D01*
X136680000Y-104432500D01*
X136680000Y-104137500D01*
X136680710Y-104123042D01*
X136682834Y-104108724D01*
X136686351Y-104094683D01*
X136691228Y-104081054D01*
X136697417Y-104067969D01*
X136704858Y-104055553D01*
X136713481Y-104043927D01*
X136723202Y-104033202D01*
X136733927Y-104023481D01*
X136745553Y-104014858D01*
X136757969Y-104007417D01*
X136771054Y-104001228D01*
X136784683Y-103996351D01*
X136798724Y-103992834D01*
X136813042Y-103990710D01*
X136827500Y-103990000D01*
X137172500Y-103990000D01*
X137186958Y-103990710D01*
G37*
G04 #@! TD.AperFunction*
G04 #@! TA.AperFunction,SMDPad,CuDef*
G36*
X137186958Y-103020710D02*
G01*
X137201276Y-103022834D01*
X137215317Y-103026351D01*
X137228946Y-103031228D01*
X137242031Y-103037417D01*
X137254447Y-103044858D01*
X137266073Y-103053481D01*
X137276798Y-103063202D01*
X137286519Y-103073927D01*
X137295142Y-103085553D01*
X137302583Y-103097969D01*
X137308772Y-103111054D01*
X137313649Y-103124683D01*
X137317166Y-103138724D01*
X137319290Y-103153042D01*
X137320000Y-103167500D01*
X137320000Y-103462500D01*
X137319290Y-103476958D01*
X137317166Y-103491276D01*
X137313649Y-103505317D01*
X137308772Y-103518946D01*
X137302583Y-103532031D01*
X137295142Y-103544447D01*
X137286519Y-103556073D01*
X137276798Y-103566798D01*
X137266073Y-103576519D01*
X137254447Y-103585142D01*
X137242031Y-103592583D01*
X137228946Y-103598772D01*
X137215317Y-103603649D01*
X137201276Y-103607166D01*
X137186958Y-103609290D01*
X137172500Y-103610000D01*
X136827500Y-103610000D01*
X136813042Y-103609290D01*
X136798724Y-103607166D01*
X136784683Y-103603649D01*
X136771054Y-103598772D01*
X136757969Y-103592583D01*
X136745553Y-103585142D01*
X136733927Y-103576519D01*
X136723202Y-103566798D01*
X136713481Y-103556073D01*
X136704858Y-103544447D01*
X136697417Y-103532031D01*
X136691228Y-103518946D01*
X136686351Y-103505317D01*
X136682834Y-103491276D01*
X136680710Y-103476958D01*
X136680000Y-103462500D01*
X136680000Y-103167500D01*
X136680710Y-103153042D01*
X136682834Y-103138724D01*
X136686351Y-103124683D01*
X136691228Y-103111054D01*
X136697417Y-103097969D01*
X136704858Y-103085553D01*
X136713481Y-103073927D01*
X136723202Y-103063202D01*
X136733927Y-103053481D01*
X136745553Y-103044858D01*
X136757969Y-103037417D01*
X136771054Y-103031228D01*
X136784683Y-103026351D01*
X136798724Y-103022834D01*
X136813042Y-103020710D01*
X136827500Y-103020000D01*
X137172500Y-103020000D01*
X137186958Y-103020710D01*
G37*
G04 #@! TD.AperFunction*
G04 #@! TA.AperFunction,SMDPad,CuDef*
G36*
X128676958Y-103680710D02*
G01*
X128691276Y-103682834D01*
X128705317Y-103686351D01*
X128718946Y-103691228D01*
X128732031Y-103697417D01*
X128744447Y-103704858D01*
X128756073Y-103713481D01*
X128766798Y-103723202D01*
X128776519Y-103733927D01*
X128785142Y-103745553D01*
X128792583Y-103757969D01*
X128798772Y-103771054D01*
X128803649Y-103784683D01*
X128807166Y-103798724D01*
X128809290Y-103813042D01*
X128810000Y-103827500D01*
X128810000Y-104172500D01*
X128809290Y-104186958D01*
X128807166Y-104201276D01*
X128803649Y-104215317D01*
X128798772Y-104228946D01*
X128792583Y-104242031D01*
X128785142Y-104254447D01*
X128776519Y-104266073D01*
X128766798Y-104276798D01*
X128756073Y-104286519D01*
X128744447Y-104295142D01*
X128732031Y-104302583D01*
X128718946Y-104308772D01*
X128705317Y-104313649D01*
X128691276Y-104317166D01*
X128676958Y-104319290D01*
X128662500Y-104320000D01*
X128367500Y-104320000D01*
X128353042Y-104319290D01*
X128338724Y-104317166D01*
X128324683Y-104313649D01*
X128311054Y-104308772D01*
X128297969Y-104302583D01*
X128285553Y-104295142D01*
X128273927Y-104286519D01*
X128263202Y-104276798D01*
X128253481Y-104266073D01*
X128244858Y-104254447D01*
X128237417Y-104242031D01*
X128231228Y-104228946D01*
X128226351Y-104215317D01*
X128222834Y-104201276D01*
X128220710Y-104186958D01*
X128220000Y-104172500D01*
X128220000Y-103827500D01*
X128220710Y-103813042D01*
X128222834Y-103798724D01*
X128226351Y-103784683D01*
X128231228Y-103771054D01*
X128237417Y-103757969D01*
X128244858Y-103745553D01*
X128253481Y-103733927D01*
X128263202Y-103723202D01*
X128273927Y-103713481D01*
X128285553Y-103704858D01*
X128297969Y-103697417D01*
X128311054Y-103691228D01*
X128324683Y-103686351D01*
X128338724Y-103682834D01*
X128353042Y-103680710D01*
X128367500Y-103680000D01*
X128662500Y-103680000D01*
X128676958Y-103680710D01*
G37*
G04 #@! TD.AperFunction*
G04 #@! TA.AperFunction,SMDPad,CuDef*
G36*
X129646958Y-103680710D02*
G01*
X129661276Y-103682834D01*
X129675317Y-103686351D01*
X129688946Y-103691228D01*
X129702031Y-103697417D01*
X129714447Y-103704858D01*
X129726073Y-103713481D01*
X129736798Y-103723202D01*
X129746519Y-103733927D01*
X129755142Y-103745553D01*
X129762583Y-103757969D01*
X129768772Y-103771054D01*
X129773649Y-103784683D01*
X129777166Y-103798724D01*
X129779290Y-103813042D01*
X129780000Y-103827500D01*
X129780000Y-104172500D01*
X129779290Y-104186958D01*
X129777166Y-104201276D01*
X129773649Y-104215317D01*
X129768772Y-104228946D01*
X129762583Y-104242031D01*
X129755142Y-104254447D01*
X129746519Y-104266073D01*
X129736798Y-104276798D01*
X129726073Y-104286519D01*
X129714447Y-104295142D01*
X129702031Y-104302583D01*
X129688946Y-104308772D01*
X129675317Y-104313649D01*
X129661276Y-104317166D01*
X129646958Y-104319290D01*
X129632500Y-104320000D01*
X129337500Y-104320000D01*
X129323042Y-104319290D01*
X129308724Y-104317166D01*
X129294683Y-104313649D01*
X129281054Y-104308772D01*
X129267969Y-104302583D01*
X129255553Y-104295142D01*
X129243927Y-104286519D01*
X129233202Y-104276798D01*
X129223481Y-104266073D01*
X129214858Y-104254447D01*
X129207417Y-104242031D01*
X129201228Y-104228946D01*
X129196351Y-104215317D01*
X129192834Y-104201276D01*
X129190710Y-104186958D01*
X129190000Y-104172500D01*
X129190000Y-103827500D01*
X129190710Y-103813042D01*
X129192834Y-103798724D01*
X129196351Y-103784683D01*
X129201228Y-103771054D01*
X129207417Y-103757969D01*
X129214858Y-103745553D01*
X129223481Y-103733927D01*
X129233202Y-103723202D01*
X129243927Y-103713481D01*
X129255553Y-103704858D01*
X129267969Y-103697417D01*
X129281054Y-103691228D01*
X129294683Y-103686351D01*
X129308724Y-103682834D01*
X129323042Y-103680710D01*
X129337500Y-103680000D01*
X129632500Y-103680000D01*
X129646958Y-103680710D01*
G37*
G04 #@! TD.AperFunction*
G04 #@! TA.AperFunction,SMDPad,CuDef*
G36*
X134705142Y-108801174D02*
G01*
X134728803Y-108804684D01*
X134752007Y-108810496D01*
X134774529Y-108818554D01*
X134796153Y-108828782D01*
X134816670Y-108841079D01*
X134835883Y-108855329D01*
X134853607Y-108871393D01*
X134869671Y-108889117D01*
X134883921Y-108908330D01*
X134896218Y-108928847D01*
X134906446Y-108950471D01*
X134914504Y-108972993D01*
X134920316Y-108996197D01*
X134923826Y-109019858D01*
X134925000Y-109043750D01*
X134925000Y-109956250D01*
X134923826Y-109980142D01*
X134920316Y-110003803D01*
X134914504Y-110027007D01*
X134906446Y-110049529D01*
X134896218Y-110071153D01*
X134883921Y-110091670D01*
X134869671Y-110110883D01*
X134853607Y-110128607D01*
X134835883Y-110144671D01*
X134816670Y-110158921D01*
X134796153Y-110171218D01*
X134774529Y-110181446D01*
X134752007Y-110189504D01*
X134728803Y-110195316D01*
X134705142Y-110198826D01*
X134681250Y-110200000D01*
X134193750Y-110200000D01*
X134169858Y-110198826D01*
X134146197Y-110195316D01*
X134122993Y-110189504D01*
X134100471Y-110181446D01*
X134078847Y-110171218D01*
X134058330Y-110158921D01*
X134039117Y-110144671D01*
X134021393Y-110128607D01*
X134005329Y-110110883D01*
X133991079Y-110091670D01*
X133978782Y-110071153D01*
X133968554Y-110049529D01*
X133960496Y-110027007D01*
X133954684Y-110003803D01*
X133951174Y-109980142D01*
X133950000Y-109956250D01*
X133950000Y-109043750D01*
X133951174Y-109019858D01*
X133954684Y-108996197D01*
X133960496Y-108972993D01*
X133968554Y-108950471D01*
X133978782Y-108928847D01*
X133991079Y-108908330D01*
X134005329Y-108889117D01*
X134021393Y-108871393D01*
X134039117Y-108855329D01*
X134058330Y-108841079D01*
X134078847Y-108828782D01*
X134100471Y-108818554D01*
X134122993Y-108810496D01*
X134146197Y-108804684D01*
X134169858Y-108801174D01*
X134193750Y-108800000D01*
X134681250Y-108800000D01*
X134705142Y-108801174D01*
G37*
G04 #@! TD.AperFunction*
G04 #@! TA.AperFunction,SMDPad,CuDef*
G36*
X132830142Y-108801174D02*
G01*
X132853803Y-108804684D01*
X132877007Y-108810496D01*
X132899529Y-108818554D01*
X132921153Y-108828782D01*
X132941670Y-108841079D01*
X132960883Y-108855329D01*
X132978607Y-108871393D01*
X132994671Y-108889117D01*
X133008921Y-108908330D01*
X133021218Y-108928847D01*
X133031446Y-108950471D01*
X133039504Y-108972993D01*
X133045316Y-108996197D01*
X133048826Y-109019858D01*
X133050000Y-109043750D01*
X133050000Y-109956250D01*
X133048826Y-109980142D01*
X133045316Y-110003803D01*
X133039504Y-110027007D01*
X133031446Y-110049529D01*
X133021218Y-110071153D01*
X133008921Y-110091670D01*
X132994671Y-110110883D01*
X132978607Y-110128607D01*
X132960883Y-110144671D01*
X132941670Y-110158921D01*
X132921153Y-110171218D01*
X132899529Y-110181446D01*
X132877007Y-110189504D01*
X132853803Y-110195316D01*
X132830142Y-110198826D01*
X132806250Y-110200000D01*
X132318750Y-110200000D01*
X132294858Y-110198826D01*
X132271197Y-110195316D01*
X132247993Y-110189504D01*
X132225471Y-110181446D01*
X132203847Y-110171218D01*
X132183330Y-110158921D01*
X132164117Y-110144671D01*
X132146393Y-110128607D01*
X132130329Y-110110883D01*
X132116079Y-110091670D01*
X132103782Y-110071153D01*
X132093554Y-110049529D01*
X132085496Y-110027007D01*
X132079684Y-110003803D01*
X132076174Y-109980142D01*
X132075000Y-109956250D01*
X132075000Y-109043750D01*
X132076174Y-109019858D01*
X132079684Y-108996197D01*
X132085496Y-108972993D01*
X132093554Y-108950471D01*
X132103782Y-108928847D01*
X132116079Y-108908330D01*
X132130329Y-108889117D01*
X132146393Y-108871393D01*
X132164117Y-108855329D01*
X132183330Y-108841079D01*
X132203847Y-108828782D01*
X132225471Y-108818554D01*
X132247993Y-108810496D01*
X132271197Y-108804684D01*
X132294858Y-108801174D01*
X132318750Y-108800000D01*
X132806250Y-108800000D01*
X132830142Y-108801174D01*
G37*
G04 #@! TD.AperFunction*
G04 #@! TA.AperFunction,SMDPad,CuDef*
G36*
X134705142Y-110801174D02*
G01*
X134728803Y-110804684D01*
X134752007Y-110810496D01*
X134774529Y-110818554D01*
X134796153Y-110828782D01*
X134816670Y-110841079D01*
X134835883Y-110855329D01*
X134853607Y-110871393D01*
X134869671Y-110889117D01*
X134883921Y-110908330D01*
X134896218Y-110928847D01*
X134906446Y-110950471D01*
X134914504Y-110972993D01*
X134920316Y-110996197D01*
X134923826Y-111019858D01*
X134925000Y-111043750D01*
X134925000Y-111956250D01*
X134923826Y-111980142D01*
X134920316Y-112003803D01*
X134914504Y-112027007D01*
X134906446Y-112049529D01*
X134896218Y-112071153D01*
X134883921Y-112091670D01*
X134869671Y-112110883D01*
X134853607Y-112128607D01*
X134835883Y-112144671D01*
X134816670Y-112158921D01*
X134796153Y-112171218D01*
X134774529Y-112181446D01*
X134752007Y-112189504D01*
X134728803Y-112195316D01*
X134705142Y-112198826D01*
X134681250Y-112200000D01*
X134193750Y-112200000D01*
X134169858Y-112198826D01*
X134146197Y-112195316D01*
X134122993Y-112189504D01*
X134100471Y-112181446D01*
X134078847Y-112171218D01*
X134058330Y-112158921D01*
X134039117Y-112144671D01*
X134021393Y-112128607D01*
X134005329Y-112110883D01*
X133991079Y-112091670D01*
X133978782Y-112071153D01*
X133968554Y-112049529D01*
X133960496Y-112027007D01*
X133954684Y-112003803D01*
X133951174Y-111980142D01*
X133950000Y-111956250D01*
X133950000Y-111043750D01*
X133951174Y-111019858D01*
X133954684Y-110996197D01*
X133960496Y-110972993D01*
X133968554Y-110950471D01*
X133978782Y-110928847D01*
X133991079Y-110908330D01*
X134005329Y-110889117D01*
X134021393Y-110871393D01*
X134039117Y-110855329D01*
X134058330Y-110841079D01*
X134078847Y-110828782D01*
X134100471Y-110818554D01*
X134122993Y-110810496D01*
X134146197Y-110804684D01*
X134169858Y-110801174D01*
X134193750Y-110800000D01*
X134681250Y-110800000D01*
X134705142Y-110801174D01*
G37*
G04 #@! TD.AperFunction*
G04 #@! TA.AperFunction,SMDPad,CuDef*
G36*
X132830142Y-110801174D02*
G01*
X132853803Y-110804684D01*
X132877007Y-110810496D01*
X132899529Y-110818554D01*
X132921153Y-110828782D01*
X132941670Y-110841079D01*
X132960883Y-110855329D01*
X132978607Y-110871393D01*
X132994671Y-110889117D01*
X133008921Y-110908330D01*
X133021218Y-110928847D01*
X133031446Y-110950471D01*
X133039504Y-110972993D01*
X133045316Y-110996197D01*
X133048826Y-111019858D01*
X133050000Y-111043750D01*
X133050000Y-111956250D01*
X133048826Y-111980142D01*
X133045316Y-112003803D01*
X133039504Y-112027007D01*
X133031446Y-112049529D01*
X133021218Y-112071153D01*
X133008921Y-112091670D01*
X132994671Y-112110883D01*
X132978607Y-112128607D01*
X132960883Y-112144671D01*
X132941670Y-112158921D01*
X132921153Y-112171218D01*
X132899529Y-112181446D01*
X132877007Y-112189504D01*
X132853803Y-112195316D01*
X132830142Y-112198826D01*
X132806250Y-112200000D01*
X132318750Y-112200000D01*
X132294858Y-112198826D01*
X132271197Y-112195316D01*
X132247993Y-112189504D01*
X132225471Y-112181446D01*
X132203847Y-112171218D01*
X132183330Y-112158921D01*
X132164117Y-112144671D01*
X132146393Y-112128607D01*
X132130329Y-112110883D01*
X132116079Y-112091670D01*
X132103782Y-112071153D01*
X132093554Y-112049529D01*
X132085496Y-112027007D01*
X132079684Y-112003803D01*
X132076174Y-111980142D01*
X132075000Y-111956250D01*
X132075000Y-111043750D01*
X132076174Y-111019858D01*
X132079684Y-110996197D01*
X132085496Y-110972993D01*
X132093554Y-110950471D01*
X132103782Y-110928847D01*
X132116079Y-110908330D01*
X132130329Y-110889117D01*
X132146393Y-110871393D01*
X132164117Y-110855329D01*
X132183330Y-110841079D01*
X132203847Y-110828782D01*
X132225471Y-110818554D01*
X132247993Y-110810496D01*
X132271197Y-110804684D01*
X132294858Y-110801174D01*
X132318750Y-110800000D01*
X132806250Y-110800000D01*
X132830142Y-110801174D01*
G37*
G04 #@! TD.AperFunction*
G04 #@! TA.AperFunction,SMDPad,CuDef*
G36*
X134705142Y-112801174D02*
G01*
X134728803Y-112804684D01*
X134752007Y-112810496D01*
X134774529Y-112818554D01*
X134796153Y-112828782D01*
X134816670Y-112841079D01*
X134835883Y-112855329D01*
X134853607Y-112871393D01*
X134869671Y-112889117D01*
X134883921Y-112908330D01*
X134896218Y-112928847D01*
X134906446Y-112950471D01*
X134914504Y-112972993D01*
X134920316Y-112996197D01*
X134923826Y-113019858D01*
X134925000Y-113043750D01*
X134925000Y-113956250D01*
X134923826Y-113980142D01*
X134920316Y-114003803D01*
X134914504Y-114027007D01*
X134906446Y-114049529D01*
X134896218Y-114071153D01*
X134883921Y-114091670D01*
X134869671Y-114110883D01*
X134853607Y-114128607D01*
X134835883Y-114144671D01*
X134816670Y-114158921D01*
X134796153Y-114171218D01*
X134774529Y-114181446D01*
X134752007Y-114189504D01*
X134728803Y-114195316D01*
X134705142Y-114198826D01*
X134681250Y-114200000D01*
X134193750Y-114200000D01*
X134169858Y-114198826D01*
X134146197Y-114195316D01*
X134122993Y-114189504D01*
X134100471Y-114181446D01*
X134078847Y-114171218D01*
X134058330Y-114158921D01*
X134039117Y-114144671D01*
X134021393Y-114128607D01*
X134005329Y-114110883D01*
X133991079Y-114091670D01*
X133978782Y-114071153D01*
X133968554Y-114049529D01*
X133960496Y-114027007D01*
X133954684Y-114003803D01*
X133951174Y-113980142D01*
X133950000Y-113956250D01*
X133950000Y-113043750D01*
X133951174Y-113019858D01*
X133954684Y-112996197D01*
X133960496Y-112972993D01*
X133968554Y-112950471D01*
X133978782Y-112928847D01*
X133991079Y-112908330D01*
X134005329Y-112889117D01*
X134021393Y-112871393D01*
X134039117Y-112855329D01*
X134058330Y-112841079D01*
X134078847Y-112828782D01*
X134100471Y-112818554D01*
X134122993Y-112810496D01*
X134146197Y-112804684D01*
X134169858Y-112801174D01*
X134193750Y-112800000D01*
X134681250Y-112800000D01*
X134705142Y-112801174D01*
G37*
G04 #@! TD.AperFunction*
G04 #@! TA.AperFunction,SMDPad,CuDef*
G36*
X132830142Y-112801174D02*
G01*
X132853803Y-112804684D01*
X132877007Y-112810496D01*
X132899529Y-112818554D01*
X132921153Y-112828782D01*
X132941670Y-112841079D01*
X132960883Y-112855329D01*
X132978607Y-112871393D01*
X132994671Y-112889117D01*
X133008921Y-112908330D01*
X133021218Y-112928847D01*
X133031446Y-112950471D01*
X133039504Y-112972993D01*
X133045316Y-112996197D01*
X133048826Y-113019858D01*
X133050000Y-113043750D01*
X133050000Y-113956250D01*
X133048826Y-113980142D01*
X133045316Y-114003803D01*
X133039504Y-114027007D01*
X133031446Y-114049529D01*
X133021218Y-114071153D01*
X133008921Y-114091670D01*
X132994671Y-114110883D01*
X132978607Y-114128607D01*
X132960883Y-114144671D01*
X132941670Y-114158921D01*
X132921153Y-114171218D01*
X132899529Y-114181446D01*
X132877007Y-114189504D01*
X132853803Y-114195316D01*
X132830142Y-114198826D01*
X132806250Y-114200000D01*
X132318750Y-114200000D01*
X132294858Y-114198826D01*
X132271197Y-114195316D01*
X132247993Y-114189504D01*
X132225471Y-114181446D01*
X132203847Y-114171218D01*
X132183330Y-114158921D01*
X132164117Y-114144671D01*
X132146393Y-114128607D01*
X132130329Y-114110883D01*
X132116079Y-114091670D01*
X132103782Y-114071153D01*
X132093554Y-114049529D01*
X132085496Y-114027007D01*
X132079684Y-114003803D01*
X132076174Y-113980142D01*
X132075000Y-113956250D01*
X132075000Y-113043750D01*
X132076174Y-113019858D01*
X132079684Y-112996197D01*
X132085496Y-112972993D01*
X132093554Y-112950471D01*
X132103782Y-112928847D01*
X132116079Y-112908330D01*
X132130329Y-112889117D01*
X132146393Y-112871393D01*
X132164117Y-112855329D01*
X132183330Y-112841079D01*
X132203847Y-112828782D01*
X132225471Y-112818554D01*
X132247993Y-112810496D01*
X132271197Y-112804684D01*
X132294858Y-112801174D01*
X132318750Y-112800000D01*
X132806250Y-112800000D01*
X132830142Y-112801174D01*
G37*
G04 #@! TD.AperFunction*
G04 #@! TA.AperFunction,SMDPad,CuDef*
G36*
X128777691Y-115351053D02*
G01*
X128798926Y-115354203D01*
X128819750Y-115359419D01*
X128839962Y-115366651D01*
X128859368Y-115375830D01*
X128877781Y-115386866D01*
X128895024Y-115399654D01*
X128910930Y-115414070D01*
X128925346Y-115429976D01*
X128938134Y-115447219D01*
X128949170Y-115465632D01*
X128958349Y-115485038D01*
X128965581Y-115505250D01*
X128970797Y-115526074D01*
X128973947Y-115547309D01*
X128975000Y-115568750D01*
X128975000Y-116006250D01*
X128973947Y-116027691D01*
X128970797Y-116048926D01*
X128965581Y-116069750D01*
X128958349Y-116089962D01*
X128949170Y-116109368D01*
X128938134Y-116127781D01*
X128925346Y-116145024D01*
X128910930Y-116160930D01*
X128895024Y-116175346D01*
X128877781Y-116188134D01*
X128859368Y-116199170D01*
X128839962Y-116208349D01*
X128819750Y-116215581D01*
X128798926Y-116220797D01*
X128777691Y-116223947D01*
X128756250Y-116225000D01*
X128243750Y-116225000D01*
X128222309Y-116223947D01*
X128201074Y-116220797D01*
X128180250Y-116215581D01*
X128160038Y-116208349D01*
X128140632Y-116199170D01*
X128122219Y-116188134D01*
X128104976Y-116175346D01*
X128089070Y-116160930D01*
X128074654Y-116145024D01*
X128061866Y-116127781D01*
X128050830Y-116109368D01*
X128041651Y-116089962D01*
X128034419Y-116069750D01*
X128029203Y-116048926D01*
X128026053Y-116027691D01*
X128025000Y-116006250D01*
X128025000Y-115568750D01*
X128026053Y-115547309D01*
X128029203Y-115526074D01*
X128034419Y-115505250D01*
X128041651Y-115485038D01*
X128050830Y-115465632D01*
X128061866Y-115447219D01*
X128074654Y-115429976D01*
X128089070Y-115414070D01*
X128104976Y-115399654D01*
X128122219Y-115386866D01*
X128140632Y-115375830D01*
X128160038Y-115366651D01*
X128180250Y-115359419D01*
X128201074Y-115354203D01*
X128222309Y-115351053D01*
X128243750Y-115350000D01*
X128756250Y-115350000D01*
X128777691Y-115351053D01*
G37*
G04 #@! TD.AperFunction*
G04 #@! TA.AperFunction,SMDPad,CuDef*
G36*
X128777691Y-113776053D02*
G01*
X128798926Y-113779203D01*
X128819750Y-113784419D01*
X128839962Y-113791651D01*
X128859368Y-113800830D01*
X128877781Y-113811866D01*
X128895024Y-113824654D01*
X128910930Y-113839070D01*
X128925346Y-113854976D01*
X128938134Y-113872219D01*
X128949170Y-113890632D01*
X128958349Y-113910038D01*
X128965581Y-113930250D01*
X128970797Y-113951074D01*
X128973947Y-113972309D01*
X128975000Y-113993750D01*
X128975000Y-114431250D01*
X128973947Y-114452691D01*
X128970797Y-114473926D01*
X128965581Y-114494750D01*
X128958349Y-114514962D01*
X128949170Y-114534368D01*
X128938134Y-114552781D01*
X128925346Y-114570024D01*
X128910930Y-114585930D01*
X128895024Y-114600346D01*
X128877781Y-114613134D01*
X128859368Y-114624170D01*
X128839962Y-114633349D01*
X128819750Y-114640581D01*
X128798926Y-114645797D01*
X128777691Y-114648947D01*
X128756250Y-114650000D01*
X128243750Y-114650000D01*
X128222309Y-114648947D01*
X128201074Y-114645797D01*
X128180250Y-114640581D01*
X128160038Y-114633349D01*
X128140632Y-114624170D01*
X128122219Y-114613134D01*
X128104976Y-114600346D01*
X128089070Y-114585930D01*
X128074654Y-114570024D01*
X128061866Y-114552781D01*
X128050830Y-114534368D01*
X128041651Y-114514962D01*
X128034419Y-114494750D01*
X128029203Y-114473926D01*
X128026053Y-114452691D01*
X128025000Y-114431250D01*
X128025000Y-113993750D01*
X128026053Y-113972309D01*
X128029203Y-113951074D01*
X128034419Y-113930250D01*
X128041651Y-113910038D01*
X128050830Y-113890632D01*
X128061866Y-113872219D01*
X128074654Y-113854976D01*
X128089070Y-113839070D01*
X128104976Y-113824654D01*
X128122219Y-113811866D01*
X128140632Y-113800830D01*
X128160038Y-113791651D01*
X128180250Y-113784419D01*
X128201074Y-113779203D01*
X128222309Y-113776053D01*
X128243750Y-113775000D01*
X128756250Y-113775000D01*
X128777691Y-113776053D01*
G37*
G04 #@! TD.AperFunction*
D21*
X101400000Y-117200000D03*
X123500000Y-113500000D03*
X129000000Y-111500000D03*
X110500000Y-99000000D03*
X109244999Y-115755001D03*
X135855001Y-108855001D03*
X131250000Y-110500000D03*
X107500000Y-104250000D03*
X109600000Y-96600000D03*
X118200000Y-116200000D03*
X131250000Y-113750000D03*
X113800000Y-110000000D03*
X108525001Y-95874999D03*
X130250000Y-113750000D03*
X115800000Y-101200000D03*
X115800000Y-102200000D03*
X127200000Y-115800000D03*
X114400000Y-112800000D03*
X125750000Y-114750000D03*
X113800000Y-115400000D03*
D22*
X128325000Y-112175000D02*
X129000000Y-111500000D01*
X128325000Y-110825000D02*
X129000000Y-111500000D01*
X129675000Y-110825000D02*
X129000000Y-111500000D01*
X129675000Y-112175000D02*
X129000000Y-111500000D01*
D23*
X123500000Y-114530000D02*
X123500000Y-113500000D01*
X123054100Y-113945900D02*
X123500000Y-113500000D01*
X121952500Y-113945900D02*
X123054100Y-113945900D01*
X123500000Y-113287500D02*
X124787500Y-112000000D01*
X123500000Y-113500000D02*
X123500000Y-113287500D01*
X124787500Y-110575000D02*
X124712500Y-110500000D01*
X124787500Y-112000000D02*
X124787500Y-110575000D01*
X128500000Y-119750000D02*
X129000000Y-120250000D01*
X128500000Y-115787500D02*
X128500000Y-119750000D01*
D24*
X134437500Y-113500000D02*
X134437500Y-111500000D01*
X134437500Y-111500000D02*
X134437500Y-109500000D01*
D23*
X132197500Y-103015000D02*
X132000000Y-103212500D01*
X130272500Y-103212500D02*
X129485000Y-104000000D01*
X132000000Y-103212500D02*
X130272500Y-103212500D01*
X137000000Y-103020000D02*
X137000000Y-103315000D01*
X133075001Y-101699999D02*
X135679999Y-101699999D01*
X135679999Y-101699999D02*
X137000000Y-103020000D01*
X132000000Y-102775000D02*
X133075001Y-101699999D01*
X132000000Y-103212500D02*
X132000000Y-102775000D01*
X137770010Y-103765010D02*
X137320000Y-103315000D01*
X137770010Y-106939992D02*
X137770010Y-103765010D01*
X137320000Y-103315000D02*
X137000000Y-103315000D01*
X135210002Y-109500000D02*
X135855001Y-108855001D01*
X134437500Y-109500000D02*
X135210002Y-109500000D01*
X101400001Y-115625001D02*
X101400001Y-110374999D01*
X102515000Y-109260000D02*
X101400001Y-110374999D01*
X102515000Y-107500000D02*
X102515000Y-109260000D01*
X102515000Y-105952500D02*
X102500000Y-105937500D01*
X102515000Y-107500000D02*
X102515000Y-105952500D01*
X102952500Y-105485000D02*
X102500000Y-105937500D01*
X104000000Y-105485000D02*
X102952500Y-105485000D01*
D24*
X118750000Y-97750000D02*
X119000000Y-98000000D01*
X118750000Y-94250000D02*
X118750000Y-97750000D01*
D23*
X109500000Y-115500000D02*
X109244999Y-115755001D01*
X109500000Y-114700000D02*
X109500000Y-115500000D01*
X101349990Y-104787490D02*
X102014473Y-105451973D01*
X101349990Y-101000010D02*
X101349990Y-104787490D01*
X102014473Y-105451973D02*
X102500000Y-105937500D01*
X103000000Y-99350000D02*
X101349990Y-101000010D01*
X103000000Y-98000000D02*
X103000000Y-99350000D01*
X101400001Y-117199999D02*
X101400000Y-117200000D01*
X101400001Y-115625001D02*
X101400001Y-117199999D01*
X135855001Y-108855001D02*
X137770010Y-106939992D01*
X104085001Y-105399999D02*
X104000000Y-105485000D01*
X105885200Y-105399999D02*
X104085001Y-105399999D01*
D22*
X128325000Y-114037500D02*
X128500000Y-114212500D01*
X128325000Y-112625000D02*
X128325000Y-114037500D01*
X130301776Y-111725000D02*
X130125000Y-111725000D01*
X132536002Y-113500000D02*
X130761002Y-111725000D01*
X130761002Y-111725000D02*
X130301776Y-111725000D01*
X132562500Y-113500000D02*
X132536002Y-113500000D01*
X132337500Y-111275000D02*
X132562500Y-111500000D01*
X130125000Y-111275000D02*
X132337500Y-111275000D01*
X130925000Y-110825000D02*
X131250000Y-110500000D01*
X130125000Y-110825000D02*
X130925000Y-110825000D01*
X131562500Y-110500000D02*
X132562500Y-109500000D01*
X131250000Y-110500000D02*
X131562500Y-110500000D01*
D23*
X134512500Y-107550000D02*
X132562500Y-109500000D01*
X135500000Y-107550000D02*
X134512500Y-107550000D01*
D22*
X131250000Y-113184315D02*
X131250000Y-113750000D01*
X130304002Y-112175000D02*
X131250000Y-113120998D01*
X131250000Y-113120998D02*
X131250000Y-113184315D01*
X130125000Y-112175000D02*
X130304002Y-112175000D01*
D23*
X125070000Y-104000000D02*
X124800000Y-103730000D01*
X128515000Y-104000000D02*
X125070000Y-104000000D01*
D24*
X124080000Y-103010000D02*
X124800000Y-103730000D01*
X124080000Y-98000000D02*
X124080000Y-103010000D01*
D23*
X104085001Y-104600001D02*
X104000000Y-104515000D01*
X105885200Y-104600001D02*
X104085001Y-104600001D01*
X102952500Y-104515000D02*
X102500000Y-104062500D01*
X104000000Y-104515000D02*
X102952500Y-104515000D01*
X122506600Y-115500000D02*
X121952500Y-116054100D01*
X123500000Y-115500000D02*
X122506600Y-115500000D01*
X120047500Y-116054100D02*
X121952500Y-116054100D01*
X118345900Y-116054100D02*
X118200000Y-116200000D01*
X120047500Y-116054100D02*
X118345900Y-116054100D01*
D25*
X107149999Y-104600001D02*
X105885200Y-104600001D01*
X107500000Y-104250000D02*
X107149999Y-104600001D01*
D22*
X130301776Y-110375000D02*
X131500000Y-109176776D01*
X130125000Y-110375000D02*
X130301776Y-110375000D01*
X131500000Y-109176776D02*
X131500000Y-107850000D01*
D25*
X135065000Y-104285000D02*
X136680000Y-104285000D01*
X133500000Y-105850000D02*
X135065000Y-104285000D01*
X136680000Y-104285000D02*
X137000000Y-104285000D01*
X133500000Y-106500000D02*
X133500000Y-105850000D01*
D22*
X132750000Y-106600000D02*
X133500000Y-106600000D01*
X131500000Y-107850000D02*
X132750000Y-106600000D01*
X126612500Y-110825000D02*
X126287500Y-110500000D01*
X127875000Y-110825000D02*
X126612500Y-110825000D01*
D25*
X104599999Y-114600301D02*
X104599999Y-110374999D01*
X104599999Y-115625001D02*
X104599999Y-114600301D01*
X103780000Y-107500000D02*
X103485000Y-107500000D01*
X104599999Y-108319999D02*
X103780000Y-107500000D01*
X104599999Y-110374999D02*
X104599999Y-108319999D01*
X103485000Y-107180000D02*
X103485000Y-107500000D01*
X104465000Y-106200000D02*
X103485000Y-107180000D01*
X105885200Y-106200000D02*
X104465000Y-106200000D01*
D22*
X130250000Y-112750000D02*
X130125000Y-112625000D01*
X130250000Y-113750000D02*
X130250000Y-112750000D01*
D24*
X130687500Y-106100000D02*
X132000000Y-104787500D01*
X129500000Y-106100000D02*
X130687500Y-106100000D01*
X124970000Y-106100000D02*
X124800000Y-106270000D01*
X129500000Y-106100000D02*
X124970000Y-106100000D01*
D25*
X134600000Y-104100000D02*
X134600000Y-103000000D01*
X133912500Y-104787500D02*
X134600000Y-104100000D01*
X132000000Y-104787500D02*
X133912500Y-104787500D01*
X114519999Y-99669200D02*
X113303999Y-100885200D01*
X113303999Y-100885200D02*
X112799999Y-100885200D01*
X114519999Y-95099999D02*
X114519999Y-99669200D01*
X113670000Y-94250000D02*
X114519999Y-95099999D01*
X114114800Y-101696001D02*
X114114800Y-102200001D01*
X115074999Y-100735802D02*
X114114800Y-101696001D01*
X115074999Y-95385001D02*
X115074999Y-100735802D01*
X116210000Y-94250000D02*
X115074999Y-95385001D01*
X116525001Y-104776399D02*
X115101400Y-106200000D01*
X115101400Y-106200000D02*
X114114800Y-106200000D01*
X116525001Y-101851999D02*
X116525001Y-104776399D01*
X115873002Y-101200000D02*
X116525001Y-101851999D01*
X115800000Y-101200000D02*
X115873002Y-101200000D01*
X115101400Y-104600001D02*
X114114800Y-104600001D01*
X115800000Y-103901401D02*
X115101400Y-104600001D01*
X115800000Y-102200000D02*
X115800000Y-103901401D01*
X126650000Y-97000000D02*
X127750000Y-97000000D01*
X126474999Y-96824999D02*
X126650000Y-97000000D01*
X122715001Y-96824999D02*
X126474999Y-96824999D01*
X121540000Y-98000000D02*
X122715001Y-96824999D01*
X121540000Y-101260000D02*
X121540000Y-98000000D01*
X114114800Y-107000001D02*
X115800000Y-107000000D01*
X115800000Y-107000000D02*
X121540000Y-101260000D01*
X112675001Y-117434999D02*
X112460000Y-117650000D01*
X112460000Y-117650000D02*
X112460000Y-118750000D01*
X112675001Y-114389999D02*
X112675001Y-117434999D01*
X112035002Y-113750000D02*
X112675001Y-114389999D01*
X111500000Y-113750000D02*
X112035002Y-113750000D01*
X108600000Y-118750000D02*
X112460000Y-118750000D01*
X107500000Y-118750000D02*
X108600000Y-118750000D01*
D23*
X109487500Y-112787500D02*
X109500000Y-112800000D01*
X108000000Y-112787500D02*
X109487500Y-112787500D01*
D22*
X129675000Y-109075000D02*
X129500000Y-108900000D01*
X129675000Y-110375000D02*
X129675000Y-109075000D01*
D23*
X107999999Y-111212499D02*
X108000000Y-111212500D01*
X107999999Y-109114800D02*
X107999999Y-111212499D01*
D25*
X120000000Y-113898400D02*
X120047500Y-113945900D01*
X120000000Y-112000000D02*
X120000000Y-113898400D01*
X123212500Y-112000000D02*
X121575000Y-112000000D01*
D22*
X124278870Y-109724990D02*
X123212500Y-110791360D01*
X127853992Y-109724990D02*
X124278870Y-109724990D01*
X123212500Y-110791360D02*
X123212500Y-111525000D01*
X128300001Y-110170999D02*
X127853992Y-109724990D01*
X128325000Y-110325000D02*
X128300001Y-110300001D01*
X123212500Y-111525000D02*
X123212500Y-112000000D01*
X128300001Y-110300001D02*
X128300001Y-110170999D01*
X128325000Y-110375000D02*
X128325000Y-110325000D01*
D25*
X119850000Y-109250000D02*
X118750000Y-109250000D01*
X121575000Y-110975000D02*
X119850000Y-109250000D01*
X121575000Y-112000000D02*
X121575000Y-110975000D01*
D22*
X129549999Y-113579001D02*
X129549999Y-114549999D01*
X128775000Y-112625000D02*
X128775000Y-112804002D01*
X128775000Y-112804002D02*
X129549999Y-113579001D01*
X129549999Y-114549999D02*
X131500000Y-116500000D01*
D25*
X106696001Y-109114800D02*
X107200001Y-109114800D01*
X107889999Y-121425001D02*
X105824999Y-119360001D01*
X105824999Y-109985802D02*
X106696001Y-109114800D01*
X131500000Y-120035002D02*
X130110001Y-121425001D01*
X105824999Y-119360001D02*
X105824999Y-109985802D01*
X130110001Y-121425001D02*
X107889999Y-121425001D01*
X131500000Y-116500000D02*
X131500000Y-120035002D01*
D22*
X111200000Y-110051400D02*
X111200000Y-109114800D01*
X111200000Y-110165685D02*
X111200000Y-110051400D01*
X113834315Y-112800000D02*
X111200000Y-110165685D01*
X114400000Y-112800000D02*
X113834315Y-112800000D01*
X127200000Y-115200000D02*
X127200000Y-115800000D01*
X127875000Y-112625000D02*
X127724990Y-112775010D01*
X127724990Y-114675010D02*
X127200000Y-115200000D01*
X127724990Y-112775010D02*
X127724990Y-114675010D01*
X127695998Y-112175000D02*
X127875000Y-112175000D01*
X126800010Y-113070988D02*
X127695998Y-112175000D01*
X123735992Y-117800010D02*
X126800010Y-114735992D01*
X109600001Y-110051400D02*
X110548593Y-110999992D01*
X109600001Y-109114800D02*
X109600001Y-110051400D01*
X110548593Y-110999992D02*
X110782892Y-110999992D01*
X126800010Y-114735992D02*
X126800010Y-113070988D01*
X110782892Y-110999992D02*
X117582909Y-117800010D01*
X117582909Y-117800010D02*
X123735992Y-117800010D01*
X127875000Y-111725000D02*
X127075000Y-111725000D01*
X127075000Y-111725000D02*
X126400000Y-112400000D01*
X126400000Y-114100000D02*
X125750000Y-114750000D01*
X126400000Y-112400000D02*
X126400000Y-114100000D01*
X110148600Y-111400000D02*
X108800000Y-110051400D01*
X113800000Y-115400000D02*
X113800000Y-114582798D01*
X108800000Y-110051400D02*
X108800000Y-109114800D01*
X110617202Y-111400000D02*
X110148600Y-111400000D01*
X113800000Y-114582798D02*
X110617202Y-111400000D01*
X110399999Y-110051400D02*
X110399999Y-109114800D01*
X117748598Y-117400000D02*
X117074299Y-116725701D01*
X123000000Y-117400000D02*
X117748598Y-117400000D01*
X124120010Y-116279990D02*
X123000000Y-117400000D01*
X117074299Y-116725701D02*
X110399999Y-110051400D01*
X117083700Y-116735101D02*
X117074299Y-116725701D01*
X127875000Y-111275000D02*
X126959302Y-111275000D01*
X126959302Y-111275000D02*
X124120010Y-114114292D01*
X124120010Y-114114292D02*
X124120010Y-116279990D01*
M02*
