G04 #@! TF.GenerationSoftware,KiCad,Pcbnew,(5.1.5)-3*
G04 #@! TF.CreationDate,2021-01-08T03:31:11-05:00*
G04 #@! TF.ProjectId,EPC611 LIDAR,45504336-3131-4204-9c49-4441522e6b69,rev?*
G04 #@! TF.SameCoordinates,Original*
G04 #@! TF.FileFunction,Legend,Top*
G04 #@! TF.FilePolarity,Positive*
%FSLAX46Y46*%
G04 Gerber Fmt 4.6, Leading zero omitted, Abs format (unit mm)*
G04 Created by KiCad (PCBNEW (5.1.5)-3) date 2021-01-08 03:31:11*
%MOMM*%
%LPD*%
G04 APERTURE LIST*
%ADD10C,0.152400*%
%ADD11C,0.200000*%
%ADD12C,0.120000*%
%ADD13C,0.127000*%
%ADD14C,0.150000*%
%ADD15C,0.015000*%
G04 APERTURE END LIST*
D10*
X121196247Y-113272800D02*
X120803753Y-113272800D01*
X119628400Y-114659640D02*
X119628400Y-115340360D01*
X120803753Y-116727200D02*
X121196247Y-116727200D01*
X122371600Y-115340360D02*
X122371600Y-114659640D01*
X123781300Y-116054100D02*
G75*
G03X123781300Y-116054100I-76200J0D01*
G01*
X106367800Y-108632200D02*
X106613261Y-108632200D01*
X113632200Y-108632200D02*
X113632200Y-108386739D01*
X113632200Y-101367800D02*
X113386739Y-101367800D01*
X106367800Y-101367800D02*
X106367800Y-101613261D01*
X106367800Y-108386739D02*
X106367800Y-108632200D01*
X113386739Y-108632200D02*
X113632200Y-108632200D01*
X113632200Y-101613261D02*
X113632200Y-101367800D01*
X106613261Y-101367800D02*
X106367800Y-101367800D01*
X107809499Y-110105400D02*
X107809499Y-110359400D01*
X107809499Y-110359400D02*
X108190499Y-110359400D01*
X108190499Y-110359400D02*
X108190499Y-110105400D01*
X108190499Y-110105400D02*
X107809499Y-110105400D01*
X115359400Y-105209499D02*
X115359400Y-105590499D01*
X115359400Y-105590499D02*
X115105400Y-105590499D01*
X115105400Y-105590499D02*
X115105400Y-105209499D01*
X115105400Y-105209499D02*
X115359400Y-105209499D01*
X108609500Y-99894600D02*
X108609500Y-99640600D01*
X108609500Y-99640600D02*
X108990500Y-99640600D01*
X108990500Y-99640600D02*
X108990500Y-99894600D01*
X108990500Y-99894600D02*
X108609500Y-99894600D01*
D11*
X127750000Y-110150000D02*
G75*
G03X127750000Y-110150000I-100000J0D01*
G01*
D12*
X128650000Y-110030000D02*
X127530000Y-111150000D01*
X127530000Y-112970000D02*
X127530000Y-112295000D01*
X128205000Y-112970000D02*
X127530000Y-112970000D01*
X130470000Y-110030000D02*
X130470000Y-110705000D01*
X129795000Y-110030000D02*
X130470000Y-110030000D01*
X130470000Y-112970000D02*
X130470000Y-112295000D01*
X129795000Y-112970000D02*
X130470000Y-112970000D01*
X130470000Y-110030000D02*
X130470000Y-110705000D01*
X129795000Y-110030000D02*
X130470000Y-110030000D01*
X130470000Y-110030000D02*
X130470000Y-110705000D01*
X129795000Y-110030000D02*
X130470000Y-110030000D01*
X130170000Y-115170000D02*
X131500000Y-115170000D01*
X130170000Y-116500000D02*
X130170000Y-115170000D01*
X130170000Y-117770000D02*
X132830000Y-117770000D01*
X132830000Y-117770000D02*
X132830000Y-117830000D01*
X130170000Y-117770000D02*
X130170000Y-117830000D01*
X130170000Y-117830000D02*
X132830000Y-117830000D01*
X126420000Y-95670000D02*
X127750000Y-95670000D01*
X126420000Y-97000000D02*
X126420000Y-95670000D01*
X126420000Y-98270000D02*
X129080000Y-98270000D01*
X129080000Y-98270000D02*
X129080000Y-98330000D01*
X126420000Y-98270000D02*
X126420000Y-98330000D01*
X126420000Y-98330000D02*
X129080000Y-98330000D01*
X106170000Y-117420000D02*
X107500000Y-117420000D01*
X106170000Y-118750000D02*
X106170000Y-117420000D01*
X106170000Y-120020000D02*
X108830000Y-120020000D01*
X108830000Y-120020000D02*
X108830000Y-120080000D01*
X106170000Y-120020000D02*
X106170000Y-120080000D01*
X106170000Y-120080000D02*
X108830000Y-120080000D01*
X133270000Y-101670000D02*
X134600000Y-101670000D01*
X133270000Y-103000000D02*
X133270000Y-101670000D01*
X133270000Y-104270000D02*
X135930000Y-104270000D01*
X135930000Y-104270000D02*
X135930000Y-104330000D01*
X133270000Y-104270000D02*
X133270000Y-104330000D01*
X133270000Y-104330000D02*
X135930000Y-104330000D01*
X117420000Y-107920000D02*
X118750000Y-107920000D01*
X117420000Y-109250000D02*
X117420000Y-107920000D01*
X117420000Y-110520000D02*
X120080000Y-110520000D01*
X120080000Y-110520000D02*
X120080000Y-110580000D01*
X117420000Y-110520000D02*
X117420000Y-110580000D01*
X117420000Y-110580000D02*
X120080000Y-110580000D01*
D10*
X105374900Y-114669914D02*
X105374900Y-111330086D01*
X103771959Y-110625100D02*
X102228041Y-110625100D01*
X100625100Y-111330086D02*
X100625100Y-114669914D01*
X102228041Y-115374900D02*
X103771959Y-115374900D01*
D12*
X124162779Y-111490000D02*
X123837221Y-111490000D01*
X124162779Y-112510000D02*
X123837221Y-112510000D01*
X120950279Y-111490000D02*
X120624721Y-111490000D01*
X120950279Y-112510000D02*
X120624721Y-112510000D01*
X108510000Y-112162779D02*
X108510000Y-111837221D01*
X107490000Y-112162779D02*
X107490000Y-111837221D01*
X131490000Y-103837221D02*
X131490000Y-104162779D01*
X132510000Y-103837221D02*
X132510000Y-104162779D01*
X128140000Y-106897936D02*
X128140000Y-108102064D01*
X130860000Y-106897936D02*
X130860000Y-108102064D01*
X111260000Y-115330000D02*
X109800000Y-115330000D01*
X111260000Y-112170000D02*
X109100000Y-112170000D01*
X111260000Y-112170000D02*
X111260000Y-113100000D01*
X111260000Y-115330000D02*
X111260000Y-114400000D01*
X111130000Y-120080000D02*
X111130000Y-118750000D01*
X112460000Y-120080000D02*
X111130000Y-120080000D01*
X113730000Y-120080000D02*
X113730000Y-117420000D01*
X113730000Y-117420000D02*
X116330000Y-117420000D01*
X113730000Y-120080000D02*
X116330000Y-120080000D01*
X116330000Y-120080000D02*
X116330000Y-117420000D01*
X117670000Y-99330000D02*
X117670000Y-98000000D01*
X119000000Y-99330000D02*
X117670000Y-99330000D01*
X120270000Y-99330000D02*
X120270000Y-96670000D01*
X120270000Y-96670000D02*
X125410000Y-96670000D01*
X120270000Y-99330000D02*
X125410000Y-99330000D01*
X125410000Y-99330000D02*
X125410000Y-96670000D01*
X130330000Y-118920000D02*
X130330000Y-120250000D01*
X129000000Y-118920000D02*
X130330000Y-118920000D01*
X127730000Y-118920000D02*
X127730000Y-121580000D01*
X127730000Y-121580000D02*
X117510000Y-121580000D01*
X127730000Y-118920000D02*
X117510000Y-118920000D01*
X117510000Y-118920000D02*
X117510000Y-121580000D01*
X120080000Y-92920000D02*
X120080000Y-94250000D01*
X118750000Y-92920000D02*
X120080000Y-92920000D01*
X117480000Y-92920000D02*
X117480000Y-95580000D01*
X117480000Y-95580000D02*
X109800000Y-95580000D01*
X117480000Y-92920000D02*
X109800000Y-92920000D01*
X109800000Y-92920000D02*
X109800000Y-95580000D01*
D11*
X124900000Y-110200000D02*
G75*
G03X124900000Y-110200000I-100000J0D01*
G01*
D13*
X127550000Y-105000000D02*
G75*
G03X127550000Y-105000000I-2750000J0D01*
G01*
D12*
X133740000Y-105020000D02*
X135200000Y-105020000D01*
X133740000Y-108180000D02*
X135900000Y-108180000D01*
X133740000Y-108180000D02*
X133740000Y-107250000D01*
X133740000Y-105020000D02*
X133740000Y-105950000D01*
X101790000Y-104741422D02*
X101790000Y-105258578D01*
X103210000Y-104741422D02*
X103210000Y-105258578D01*
X125337221Y-111010000D02*
X125662779Y-111010000D01*
X125337221Y-109990000D02*
X125662779Y-109990000D01*
X133241422Y-110210000D02*
X133758578Y-110210000D01*
X133241422Y-108790000D02*
X133758578Y-108790000D01*
X133241422Y-112210000D02*
X133758578Y-112210000D01*
X133241422Y-110790000D02*
X133758578Y-110790000D01*
X133241422Y-114210000D02*
X133758578Y-114210000D01*
X133241422Y-112790000D02*
X133758578Y-112790000D01*
X127990000Y-114837221D02*
X127990000Y-115162779D01*
X129010000Y-114837221D02*
X129010000Y-115162779D01*
D14*
X117238095Y-114452380D02*
X117238095Y-115261904D01*
X117285714Y-115357142D01*
X117333333Y-115404761D01*
X117428571Y-115452380D01*
X117619047Y-115452380D01*
X117714285Y-115404761D01*
X117761904Y-115357142D01*
X117809523Y-115261904D01*
X117809523Y-114452380D01*
X118714285Y-114785714D02*
X118714285Y-115452380D01*
X118476190Y-114404761D02*
X118238095Y-115119047D01*
X118857142Y-115119047D01*
X121000000Y-114452380D02*
X121000000Y-114690476D01*
X120761904Y-114595238D02*
X121000000Y-114690476D01*
X121238095Y-114595238D01*
X120857142Y-114880952D02*
X121000000Y-114690476D01*
X121142857Y-114880952D01*
X109238095Y-110452380D02*
X109238095Y-111261904D01*
X109285714Y-111357142D01*
X109333333Y-111404761D01*
X109428571Y-111452380D01*
X109619047Y-111452380D01*
X109714285Y-111404761D01*
X109761904Y-111357142D01*
X109809523Y-111261904D01*
X109809523Y-110452380D01*
X110190476Y-110452380D02*
X110809523Y-110452380D01*
X110476190Y-110833333D01*
X110619047Y-110833333D01*
X110714285Y-110880952D01*
X110761904Y-110928571D01*
X110809523Y-111023809D01*
X110809523Y-111261904D01*
X110761904Y-111357142D01*
X110714285Y-111404761D01*
X110619047Y-111452380D01*
X110333333Y-111452380D01*
X110238095Y-111404761D01*
X110190476Y-111357142D01*
X104513600Y-100871380D02*
X104513600Y-101109476D01*
X104275504Y-101014238D02*
X104513600Y-101109476D01*
X104751695Y-101014238D01*
X104370742Y-101299952D02*
X104513600Y-101109476D01*
X104656457Y-101299952D01*
X104513600Y-100871380D02*
X104513600Y-101109476D01*
X104275504Y-101014238D02*
X104513600Y-101109476D01*
X104751695Y-101014238D01*
X104370742Y-101299952D02*
X104513600Y-101109476D01*
X104656457Y-101299952D01*
X125738095Y-111952380D02*
X125738095Y-112761904D01*
X125785714Y-112857142D01*
X125833333Y-112904761D01*
X125928571Y-112952380D01*
X126119047Y-112952380D01*
X126214285Y-112904761D01*
X126261904Y-112857142D01*
X126309523Y-112761904D01*
X126309523Y-111952380D01*
X126738095Y-112047619D02*
X126785714Y-112000000D01*
X126880952Y-111952380D01*
X127119047Y-111952380D01*
X127214285Y-112000000D01*
X127261904Y-112047619D01*
X127309523Y-112142857D01*
X127309523Y-112238095D01*
X127261904Y-112380952D01*
X126690476Y-112952380D01*
X127309523Y-112952380D01*
X133452380Y-117761904D02*
X133452380Y-117190476D01*
X134452380Y-117476190D02*
X133452380Y-117476190D01*
X134452380Y-116857142D02*
X133452380Y-116857142D01*
X133452380Y-116476190D01*
X133500000Y-116380952D01*
X133547619Y-116333333D01*
X133642857Y-116285714D01*
X133785714Y-116285714D01*
X133880952Y-116333333D01*
X133928571Y-116380952D01*
X133976190Y-116476190D01*
X133976190Y-116857142D01*
X133880952Y-115714285D02*
X133833333Y-115809523D01*
X133785714Y-115857142D01*
X133690476Y-115904761D01*
X133642857Y-115904761D01*
X133547619Y-115857142D01*
X133500000Y-115809523D01*
X133452380Y-115714285D01*
X133452380Y-115523809D01*
X133500000Y-115428571D01*
X133547619Y-115380952D01*
X133642857Y-115333333D01*
X133690476Y-115333333D01*
X133785714Y-115380952D01*
X133833333Y-115428571D01*
X133880952Y-115523809D01*
X133880952Y-115714285D01*
X133928571Y-115809523D01*
X133976190Y-115857142D01*
X134071428Y-115904761D01*
X134261904Y-115904761D01*
X134357142Y-115857142D01*
X134404761Y-115809523D01*
X134452380Y-115714285D01*
X134452380Y-115523809D01*
X134404761Y-115428571D01*
X134357142Y-115380952D01*
X134261904Y-115333333D01*
X134071428Y-115333333D01*
X133976190Y-115380952D01*
X133928571Y-115428571D01*
X133880952Y-115523809D01*
X126488095Y-94122380D02*
X127059523Y-94122380D01*
X126773809Y-95122380D02*
X126773809Y-94122380D01*
X127392857Y-95122380D02*
X127392857Y-94122380D01*
X127773809Y-94122380D01*
X127869047Y-94170000D01*
X127916666Y-94217619D01*
X127964285Y-94312857D01*
X127964285Y-94455714D01*
X127916666Y-94550952D01*
X127869047Y-94598571D01*
X127773809Y-94646190D01*
X127392857Y-94646190D01*
X128297619Y-94122380D02*
X128964285Y-94122380D01*
X128535714Y-95122380D01*
X102988095Y-118702380D02*
X103559523Y-118702380D01*
X103273809Y-119702380D02*
X103273809Y-118702380D01*
X103892857Y-119702380D02*
X103892857Y-118702380D01*
X104273809Y-118702380D01*
X104369047Y-118750000D01*
X104416666Y-118797619D01*
X104464285Y-118892857D01*
X104464285Y-119035714D01*
X104416666Y-119130952D01*
X104369047Y-119178571D01*
X104273809Y-119226190D01*
X103892857Y-119226190D01*
X105321428Y-118702380D02*
X105130952Y-118702380D01*
X105035714Y-118750000D01*
X104988095Y-118797619D01*
X104892857Y-118940476D01*
X104845238Y-119130952D01*
X104845238Y-119511904D01*
X104892857Y-119607142D01*
X104940476Y-119654761D01*
X105035714Y-119702380D01*
X105226190Y-119702380D01*
X105321428Y-119654761D01*
X105369047Y-119607142D01*
X105416666Y-119511904D01*
X105416666Y-119273809D01*
X105369047Y-119178571D01*
X105321428Y-119130952D01*
X105226190Y-119083333D01*
X105035714Y-119083333D01*
X104940476Y-119130952D01*
X104892857Y-119178571D01*
X104845238Y-119273809D01*
X133338095Y-100052380D02*
X133909523Y-100052380D01*
X133623809Y-101052380D02*
X133623809Y-100052380D01*
X134242857Y-101052380D02*
X134242857Y-100052380D01*
X134623809Y-100052380D01*
X134719047Y-100100000D01*
X134766666Y-100147619D01*
X134814285Y-100242857D01*
X134814285Y-100385714D01*
X134766666Y-100480952D01*
X134719047Y-100528571D01*
X134623809Y-100576190D01*
X134242857Y-100576190D01*
X135719047Y-100052380D02*
X135242857Y-100052380D01*
X135195238Y-100528571D01*
X135242857Y-100480952D01*
X135338095Y-100433333D01*
X135576190Y-100433333D01*
X135671428Y-100480952D01*
X135719047Y-100528571D01*
X135766666Y-100623809D01*
X135766666Y-100861904D01*
X135719047Y-100957142D01*
X135671428Y-101004761D01*
X135576190Y-101052380D01*
X135338095Y-101052380D01*
X135242857Y-101004761D01*
X135195238Y-100957142D01*
X117488095Y-111202380D02*
X118059523Y-111202380D01*
X117773809Y-112202380D02*
X117773809Y-111202380D01*
X118392857Y-112202380D02*
X118392857Y-111202380D01*
X118773809Y-111202380D01*
X118869047Y-111250000D01*
X118916666Y-111297619D01*
X118964285Y-111392857D01*
X118964285Y-111535714D01*
X118916666Y-111630952D01*
X118869047Y-111678571D01*
X118773809Y-111726190D01*
X118392857Y-111726190D01*
X119821428Y-111535714D02*
X119821428Y-112202380D01*
X119583333Y-111154761D02*
X119345238Y-111869047D01*
X119964285Y-111869047D01*
X100404761Y-114333333D02*
X100452380Y-114190476D01*
X100452380Y-113952380D01*
X100404761Y-113857142D01*
X100357142Y-113809523D01*
X100261904Y-113761904D01*
X100166666Y-113761904D01*
X100071428Y-113809523D01*
X100023809Y-113857142D01*
X99976190Y-113952380D01*
X99928571Y-114142857D01*
X99880952Y-114238095D01*
X99833333Y-114285714D01*
X99738095Y-114333333D01*
X99642857Y-114333333D01*
X99547619Y-114285714D01*
X99500000Y-114238095D01*
X99452380Y-114142857D01*
X99452380Y-113904761D01*
X99500000Y-113761904D01*
X99452380Y-113428571D02*
X100452380Y-113190476D01*
X99738095Y-113000000D01*
X100452380Y-112809523D01*
X99452380Y-112571428D01*
X100452380Y-111666666D02*
X100452380Y-112238095D01*
X100452380Y-111952380D02*
X99452380Y-111952380D01*
X99595238Y-112047619D01*
X99690476Y-112142857D01*
X99738095Y-112238095D01*
X102452380Y-113000000D02*
X102690476Y-113000000D01*
X102595238Y-113238095D02*
X102690476Y-113000000D01*
X102595238Y-112761904D01*
X102880952Y-113142857D02*
X102690476Y-113000000D01*
X102880952Y-112857142D01*
X124857142Y-113952380D02*
X124523809Y-113476190D01*
X124285714Y-113952380D02*
X124285714Y-112952380D01*
X124666666Y-112952380D01*
X124761904Y-113000000D01*
X124809523Y-113047619D01*
X124857142Y-113142857D01*
X124857142Y-113285714D01*
X124809523Y-113380952D01*
X124761904Y-113428571D01*
X124666666Y-113476190D01*
X124285714Y-113476190D01*
X125809523Y-113952380D02*
X125238095Y-113952380D01*
X125523809Y-113952380D02*
X125523809Y-112952380D01*
X125428571Y-113095238D01*
X125333333Y-113190476D01*
X125238095Y-113238095D01*
X126761904Y-113952380D02*
X126190476Y-113952380D01*
X126476190Y-113952380D02*
X126476190Y-112952380D01*
X126380952Y-113095238D01*
X126285714Y-113190476D01*
X126190476Y-113238095D01*
X120144642Y-110952380D02*
X119811309Y-110476190D01*
X119573214Y-110952380D02*
X119573214Y-109952380D01*
X119954166Y-109952380D01*
X120049404Y-110000000D01*
X120097023Y-110047619D01*
X120144642Y-110142857D01*
X120144642Y-110285714D01*
X120097023Y-110380952D01*
X120049404Y-110428571D01*
X119954166Y-110476190D01*
X119573214Y-110476190D01*
X121097023Y-110952380D02*
X120525595Y-110952380D01*
X120811309Y-110952380D02*
X120811309Y-109952380D01*
X120716071Y-110095238D01*
X120620833Y-110190476D01*
X120525595Y-110238095D01*
X121716071Y-109952380D02*
X121811309Y-109952380D01*
X121906547Y-110000000D01*
X121954166Y-110047619D01*
X122001785Y-110142857D01*
X122049404Y-110333333D01*
X122049404Y-110571428D01*
X122001785Y-110761904D01*
X121954166Y-110857142D01*
X121906547Y-110904761D01*
X121811309Y-110952380D01*
X121716071Y-110952380D01*
X121620833Y-110904761D01*
X121573214Y-110857142D01*
X121525595Y-110761904D01*
X121477976Y-110571428D01*
X121477976Y-110333333D01*
X121525595Y-110142857D01*
X121573214Y-110047619D01*
X121620833Y-110000000D01*
X121716071Y-109952380D01*
X107022380Y-112166666D02*
X106546190Y-112500000D01*
X107022380Y-112738095D02*
X106022380Y-112738095D01*
X106022380Y-112357142D01*
X106070000Y-112261904D01*
X106117619Y-112214285D01*
X106212857Y-112166666D01*
X106355714Y-112166666D01*
X106450952Y-112214285D01*
X106498571Y-112261904D01*
X106546190Y-112357142D01*
X106546190Y-112738095D01*
X106022380Y-111833333D02*
X106022380Y-111214285D01*
X106403333Y-111547619D01*
X106403333Y-111404761D01*
X106450952Y-111309523D01*
X106498571Y-111261904D01*
X106593809Y-111214285D01*
X106831904Y-111214285D01*
X106927142Y-111261904D01*
X106974761Y-111309523D01*
X107022380Y-111404761D01*
X107022380Y-111690476D01*
X106974761Y-111785714D01*
X106927142Y-111833333D01*
X130952380Y-104166666D02*
X130476190Y-104500000D01*
X130952380Y-104738095D02*
X129952380Y-104738095D01*
X129952380Y-104357142D01*
X130000000Y-104261904D01*
X130047619Y-104214285D01*
X130142857Y-104166666D01*
X130285714Y-104166666D01*
X130380952Y-104214285D01*
X130428571Y-104261904D01*
X130476190Y-104357142D01*
X130476190Y-104738095D01*
X130047619Y-103785714D02*
X130000000Y-103738095D01*
X129952380Y-103642857D01*
X129952380Y-103404761D01*
X130000000Y-103309523D01*
X130047619Y-103261904D01*
X130142857Y-103214285D01*
X130238095Y-103214285D01*
X130380952Y-103261904D01*
X130952380Y-103833333D01*
X130952380Y-103214285D01*
X132232380Y-107666666D02*
X131756190Y-108000000D01*
X132232380Y-108238095D02*
X131232380Y-108238095D01*
X131232380Y-107857142D01*
X131280000Y-107761904D01*
X131327619Y-107714285D01*
X131422857Y-107666666D01*
X131565714Y-107666666D01*
X131660952Y-107714285D01*
X131708571Y-107761904D01*
X131756190Y-107857142D01*
X131756190Y-108238095D01*
X132232380Y-106714285D02*
X132232380Y-107285714D01*
X132232380Y-107000000D02*
X131232380Y-107000000D01*
X131375238Y-107095238D01*
X131470476Y-107190476D01*
X131518095Y-107285714D01*
X110404761Y-116797619D02*
X110309523Y-116750000D01*
X110214285Y-116654761D01*
X110071428Y-116511904D01*
X109976190Y-116464285D01*
X109880952Y-116464285D01*
X109928571Y-116702380D02*
X109833333Y-116654761D01*
X109738095Y-116559523D01*
X109690476Y-116369047D01*
X109690476Y-116035714D01*
X109738095Y-115845238D01*
X109833333Y-115750000D01*
X109928571Y-115702380D01*
X110119047Y-115702380D01*
X110214285Y-115750000D01*
X110309523Y-115845238D01*
X110357142Y-116035714D01*
X110357142Y-116369047D01*
X110309523Y-116559523D01*
X110214285Y-116654761D01*
X110119047Y-116702380D01*
X109928571Y-116702380D01*
X111309523Y-116702380D02*
X110738095Y-116702380D01*
X111023809Y-116702380D02*
X111023809Y-115702380D01*
X110928571Y-115845238D01*
X110833333Y-115940476D01*
X110738095Y-115988095D01*
X109582380Y-119083333D02*
X110296666Y-119083333D01*
X110439523Y-119130952D01*
X110534761Y-119226190D01*
X110582380Y-119369047D01*
X110582380Y-119464285D01*
X109915714Y-118178571D02*
X110582380Y-118178571D01*
X109534761Y-118416666D02*
X110249047Y-118654761D01*
X110249047Y-118035714D01*
X116122380Y-98333333D02*
X116836666Y-98333333D01*
X116979523Y-98380952D01*
X117074761Y-98476190D01*
X117122380Y-98619047D01*
X117122380Y-98714285D01*
X116122380Y-97952380D02*
X116122380Y-97333333D01*
X116503333Y-97666666D01*
X116503333Y-97523809D01*
X116550952Y-97428571D01*
X116598571Y-97380952D01*
X116693809Y-97333333D01*
X116931904Y-97333333D01*
X117027142Y-97380952D01*
X117074761Y-97428571D01*
X117122380Y-97523809D01*
X117122380Y-97809523D01*
X117074761Y-97904761D01*
X117027142Y-97952380D01*
X130782380Y-120583333D02*
X131496666Y-120583333D01*
X131639523Y-120630952D01*
X131734761Y-120726190D01*
X131782380Y-120869047D01*
X131782380Y-120964285D01*
X130877619Y-120154761D02*
X130830000Y-120107142D01*
X130782380Y-120011904D01*
X130782380Y-119773809D01*
X130830000Y-119678571D01*
X130877619Y-119630952D01*
X130972857Y-119583333D01*
X131068095Y-119583333D01*
X131210952Y-119630952D01*
X131782380Y-120202380D01*
X131782380Y-119583333D01*
X120532380Y-94583333D02*
X121246666Y-94583333D01*
X121389523Y-94630952D01*
X121484761Y-94726190D01*
X121532380Y-94869047D01*
X121532380Y-94964285D01*
X121532380Y-93583333D02*
X121532380Y-94154761D01*
X121532380Y-93869047D02*
X120532380Y-93869047D01*
X120675238Y-93964285D01*
X120770476Y-94059523D01*
X120818095Y-94154761D01*
D15*
X121662342Y-108630285D02*
X121182342Y-108630285D01*
X121182342Y-108516000D01*
X121205200Y-108447428D01*
X121250914Y-108401714D01*
X121296628Y-108378857D01*
X121388057Y-108356000D01*
X121456628Y-108356000D01*
X121548057Y-108378857D01*
X121593771Y-108401714D01*
X121639485Y-108447428D01*
X121662342Y-108516000D01*
X121662342Y-108630285D01*
X121342342Y-107944571D02*
X121662342Y-107944571D01*
X121159485Y-108058857D02*
X121502342Y-108173142D01*
X121502342Y-107876000D01*
D14*
X136261904Y-107052380D02*
X136261904Y-106052380D01*
X136500000Y-106052380D01*
X136642857Y-106100000D01*
X136738095Y-106195238D01*
X136785714Y-106290476D01*
X136833333Y-106480952D01*
X136833333Y-106623809D01*
X136785714Y-106814285D01*
X136738095Y-106909523D01*
X136642857Y-107004761D01*
X136500000Y-107052380D01*
X136261904Y-107052380D01*
X137166666Y-106052380D02*
X137785714Y-106052380D01*
X137452380Y-106433333D01*
X137595238Y-106433333D01*
X137690476Y-106480952D01*
X137738095Y-106528571D01*
X137785714Y-106623809D01*
X137785714Y-106861904D01*
X137738095Y-106957142D01*
X137690476Y-107004761D01*
X137595238Y-107052380D01*
X137309523Y-107052380D01*
X137214285Y-107004761D01*
X137166666Y-106957142D01*
X102857142Y-102642857D02*
X102904761Y-102690476D01*
X102952380Y-102833333D01*
X102952380Y-102928571D01*
X102904761Y-103071428D01*
X102809523Y-103166666D01*
X102714285Y-103214285D01*
X102523809Y-103261904D01*
X102380952Y-103261904D01*
X102190476Y-103214285D01*
X102095238Y-103166666D01*
X102000000Y-103071428D01*
X101952380Y-102928571D01*
X101952380Y-102833333D01*
X102000000Y-102690476D01*
X102047619Y-102642857D01*
X102952380Y-101690476D02*
X102952380Y-102261904D01*
X102952380Y-101976190D02*
X101952380Y-101976190D01*
X102095238Y-102071428D01*
X102190476Y-102166666D01*
X102238095Y-102261904D01*
X101952380Y-101357142D02*
X101952380Y-100690476D01*
X102952380Y-101119047D01*
X104357142Y-103142857D02*
X104404761Y-103190476D01*
X104452380Y-103333333D01*
X104452380Y-103428571D01*
X104404761Y-103571428D01*
X104309523Y-103666666D01*
X104214285Y-103714285D01*
X104023809Y-103761904D01*
X103880952Y-103761904D01*
X103690476Y-103714285D01*
X103595238Y-103666666D01*
X103500000Y-103571428D01*
X103452380Y-103428571D01*
X103452380Y-103333333D01*
X103500000Y-103190476D01*
X103547619Y-103142857D01*
X104452380Y-102190476D02*
X104452380Y-102761904D01*
X104452380Y-102476190D02*
X103452380Y-102476190D01*
X103595238Y-102571428D01*
X103690476Y-102666666D01*
X103738095Y-102761904D01*
X103452380Y-101333333D02*
X103452380Y-101523809D01*
X103500000Y-101619047D01*
X103547619Y-101666666D01*
X103690476Y-101761904D01*
X103880952Y-101809523D01*
X104261904Y-101809523D01*
X104357142Y-101761904D01*
X104404761Y-101714285D01*
X104452380Y-101619047D01*
X104452380Y-101428571D01*
X104404761Y-101333333D01*
X104357142Y-101285714D01*
X104261904Y-101238095D01*
X104023809Y-101238095D01*
X103928571Y-101285714D01*
X103880952Y-101333333D01*
X103833333Y-101428571D01*
X103833333Y-101619047D01*
X103880952Y-101714285D01*
X103928571Y-101761904D01*
X104023809Y-101809523D01*
X102833333Y-109027142D02*
X102785714Y-109074761D01*
X102642857Y-109122380D01*
X102547619Y-109122380D01*
X102404761Y-109074761D01*
X102309523Y-108979523D01*
X102261904Y-108884285D01*
X102214285Y-108693809D01*
X102214285Y-108550952D01*
X102261904Y-108360476D01*
X102309523Y-108265238D01*
X102404761Y-108170000D01*
X102547619Y-108122380D01*
X102642857Y-108122380D01*
X102785714Y-108170000D01*
X102833333Y-108217619D01*
X103309523Y-109122380D02*
X103500000Y-109122380D01*
X103595238Y-109074761D01*
X103642857Y-109027142D01*
X103738095Y-108884285D01*
X103785714Y-108693809D01*
X103785714Y-108312857D01*
X103738095Y-108217619D01*
X103690476Y-108170000D01*
X103595238Y-108122380D01*
X103404761Y-108122380D01*
X103309523Y-108170000D01*
X103261904Y-108217619D01*
X103214285Y-108312857D01*
X103214285Y-108550952D01*
X103261904Y-108646190D01*
X103309523Y-108693809D01*
X103404761Y-108741428D01*
X103595238Y-108741428D01*
X103690476Y-108693809D01*
X103738095Y-108646190D01*
X103785714Y-108550952D01*
X125027142Y-115181666D02*
X125074761Y-115229285D01*
X125122380Y-115372142D01*
X125122380Y-115467380D01*
X125074761Y-115610238D01*
X124979523Y-115705476D01*
X124884285Y-115753095D01*
X124693809Y-115800714D01*
X124550952Y-115800714D01*
X124360476Y-115753095D01*
X124265238Y-115705476D01*
X124170000Y-115610238D01*
X124122380Y-115467380D01*
X124122380Y-115372142D01*
X124170000Y-115229285D01*
X124217619Y-115181666D01*
X124550952Y-114610238D02*
X124503333Y-114705476D01*
X124455714Y-114753095D01*
X124360476Y-114800714D01*
X124312857Y-114800714D01*
X124217619Y-114753095D01*
X124170000Y-114705476D01*
X124122380Y-114610238D01*
X124122380Y-114419761D01*
X124170000Y-114324523D01*
X124217619Y-114276904D01*
X124312857Y-114229285D01*
X124360476Y-114229285D01*
X124455714Y-114276904D01*
X124503333Y-114324523D01*
X124550952Y-114419761D01*
X124550952Y-114610238D01*
X124598571Y-114705476D01*
X124646190Y-114753095D01*
X124741428Y-114800714D01*
X124931904Y-114800714D01*
X125027142Y-114753095D01*
X125074761Y-114705476D01*
X125122380Y-114610238D01*
X125122380Y-114419761D01*
X125074761Y-114324523D01*
X125027142Y-114276904D01*
X124931904Y-114229285D01*
X124741428Y-114229285D01*
X124646190Y-114276904D01*
X124598571Y-114324523D01*
X124550952Y-114419761D01*
X122833333Y-110857142D02*
X122785714Y-110904761D01*
X122642857Y-110952380D01*
X122547619Y-110952380D01*
X122404761Y-110904761D01*
X122309523Y-110809523D01*
X122261904Y-110714285D01*
X122214285Y-110523809D01*
X122214285Y-110380952D01*
X122261904Y-110190476D01*
X122309523Y-110095238D01*
X122404761Y-110000000D01*
X122547619Y-109952380D01*
X122642857Y-109952380D01*
X122785714Y-110000000D01*
X122833333Y-110047619D01*
X123166666Y-109952380D02*
X123833333Y-109952380D01*
X123404761Y-110952380D01*
X138527142Y-103966666D02*
X138574761Y-104014285D01*
X138622380Y-104157142D01*
X138622380Y-104252380D01*
X138574761Y-104395238D01*
X138479523Y-104490476D01*
X138384285Y-104538095D01*
X138193809Y-104585714D01*
X138050952Y-104585714D01*
X137860476Y-104538095D01*
X137765238Y-104490476D01*
X137670000Y-104395238D01*
X137622380Y-104252380D01*
X137622380Y-104157142D01*
X137670000Y-104014285D01*
X137717619Y-103966666D01*
X137622380Y-103109523D02*
X137622380Y-103300000D01*
X137670000Y-103395238D01*
X137717619Y-103442857D01*
X137860476Y-103538095D01*
X138050952Y-103585714D01*
X138431904Y-103585714D01*
X138527142Y-103538095D01*
X138574761Y-103490476D01*
X138622380Y-103395238D01*
X138622380Y-103204761D01*
X138574761Y-103109523D01*
X138527142Y-103061904D01*
X138431904Y-103014285D01*
X138193809Y-103014285D01*
X138098571Y-103061904D01*
X138050952Y-103109523D01*
X138003333Y-103204761D01*
X138003333Y-103395238D01*
X138050952Y-103490476D01*
X138098571Y-103538095D01*
X138193809Y-103585714D01*
X128833333Y-103357142D02*
X128785714Y-103404761D01*
X128642857Y-103452380D01*
X128547619Y-103452380D01*
X128404761Y-103404761D01*
X128309523Y-103309523D01*
X128261904Y-103214285D01*
X128214285Y-103023809D01*
X128214285Y-102880952D01*
X128261904Y-102690476D01*
X128309523Y-102595238D01*
X128404761Y-102500000D01*
X128547619Y-102452380D01*
X128642857Y-102452380D01*
X128785714Y-102500000D01*
X128833333Y-102547619D01*
X129738095Y-102452380D02*
X129261904Y-102452380D01*
X129214285Y-102928571D01*
X129261904Y-102880952D01*
X129357142Y-102833333D01*
X129595238Y-102833333D01*
X129690476Y-102880952D01*
X129738095Y-102928571D01*
X129785714Y-103023809D01*
X129785714Y-103261904D01*
X129738095Y-103357142D01*
X129690476Y-103404761D01*
X129595238Y-103452380D01*
X129357142Y-103452380D01*
X129261904Y-103404761D01*
X129214285Y-103357142D01*
X135833333Y-109857142D02*
X135785714Y-109904761D01*
X135642857Y-109952380D01*
X135547619Y-109952380D01*
X135404761Y-109904761D01*
X135309523Y-109809523D01*
X135261904Y-109714285D01*
X135214285Y-109523809D01*
X135214285Y-109380952D01*
X135261904Y-109190476D01*
X135309523Y-109095238D01*
X135404761Y-109000000D01*
X135547619Y-108952380D01*
X135642857Y-108952380D01*
X135785714Y-109000000D01*
X135833333Y-109047619D01*
X136690476Y-109285714D02*
X136690476Y-109952380D01*
X136452380Y-108904761D02*
X136214285Y-109619047D01*
X136833333Y-109619047D01*
X135833333Y-111857142D02*
X135785714Y-111904761D01*
X135642857Y-111952380D01*
X135547619Y-111952380D01*
X135404761Y-111904761D01*
X135309523Y-111809523D01*
X135261904Y-111714285D01*
X135214285Y-111523809D01*
X135214285Y-111380952D01*
X135261904Y-111190476D01*
X135309523Y-111095238D01*
X135404761Y-111000000D01*
X135547619Y-110952380D01*
X135642857Y-110952380D01*
X135785714Y-111000000D01*
X135833333Y-111047619D01*
X136166666Y-110952380D02*
X136785714Y-110952380D01*
X136452380Y-111333333D01*
X136595238Y-111333333D01*
X136690476Y-111380952D01*
X136738095Y-111428571D01*
X136785714Y-111523809D01*
X136785714Y-111761904D01*
X136738095Y-111857142D01*
X136690476Y-111904761D01*
X136595238Y-111952380D01*
X136309523Y-111952380D01*
X136214285Y-111904761D01*
X136166666Y-111857142D01*
X135833333Y-113857142D02*
X135785714Y-113904761D01*
X135642857Y-113952380D01*
X135547619Y-113952380D01*
X135404761Y-113904761D01*
X135309523Y-113809523D01*
X135261904Y-113714285D01*
X135214285Y-113523809D01*
X135214285Y-113380952D01*
X135261904Y-113190476D01*
X135309523Y-113095238D01*
X135404761Y-113000000D01*
X135547619Y-112952380D01*
X135642857Y-112952380D01*
X135785714Y-113000000D01*
X135833333Y-113047619D01*
X136214285Y-113047619D02*
X136261904Y-113000000D01*
X136357142Y-112952380D01*
X136595238Y-112952380D01*
X136690476Y-113000000D01*
X136738095Y-113047619D01*
X136785714Y-113142857D01*
X136785714Y-113238095D01*
X136738095Y-113380952D01*
X136166666Y-113952380D01*
X136785714Y-113952380D01*
X128957142Y-117566666D02*
X129004761Y-117614285D01*
X129052380Y-117757142D01*
X129052380Y-117852380D01*
X129004761Y-117995238D01*
X128909523Y-118090476D01*
X128814285Y-118138095D01*
X128623809Y-118185714D01*
X128480952Y-118185714D01*
X128290476Y-118138095D01*
X128195238Y-118090476D01*
X128100000Y-117995238D01*
X128052380Y-117852380D01*
X128052380Y-117757142D01*
X128100000Y-117614285D01*
X128147619Y-117566666D01*
X129052380Y-116614285D02*
X129052380Y-117185714D01*
X129052380Y-116900000D02*
X128052380Y-116900000D01*
X128195238Y-116995238D01*
X128290476Y-117090476D01*
X128338095Y-117185714D01*
M02*
